<?xml version="1.0" encoding="UTF-8"?>
<svg xmlns="http://www.w3.org/2000/svg"
 version="1.1" baseProfile="basic"
 viewBox="-98 -293 210 303"
 width="1280px" height="1024px"
 stroke="white" stroke-width="1px"
 fill="black" fill-opacity="0">
<rect x="-98" y="-293" width="210" height="303" stroke-width="0px" fill-opacity="1"/>
<path d="M0 0 L0 0 L-0.868241 -4.92404 L-1.73648 -9.84808 L1.47746 -13.6783 L2.77155 -18.5079 L1.90331 -23.432"/>
<path d="M-1.73648 -9.84808 L-1.73648 -9.84808 L-4.60436 -13.9438 L-5.4726 -18.8679"/>
<path d="M-1.73648 -9.84808 L-1.73648 -9.84808 L-2.60472 -14.7721 L-3.47296 -19.6962 L-0.259026 -23.5264 L1.03507 -28.356 L0.166829 -33.28"/>
<path d="M-3.47296 -19.6962 L-3.47296 -19.6962 L-6.34085 -23.7919 L-7.20909 -28.716"/>
<path d="M-3.47296 -19.6962 L-3.47296 -19.6962 L-0.259026 -23.5264 L2.95491 -27.3566 L7.95491 -27.3566 L12.4865 -29.4697 L15.7004 -33.2999"/>
<path d="M2.95491 -27.3566 L2.95491 -27.3566 L4.24901 -32.1862 L7.46295 -36.0165"/>
<path d="M2.95491 -27.3566 L2.95491 -27.3566 L4.24901 -32.1862 L5.5431 -37.0159 L10.0746 -39.1289 L13.2886 -42.9592 L14.5827 -47.7888"/>
<path d="M5.5431 -37.0159 L5.5431 -37.0159 L4.67486 -41.9399 L5.96896 -46.7695"/>
<path d="M5.5431 -37.0159 L5.5431 -37.0159 L4.67486 -41.9399 L3.80662 -46.8639 L7.02056 -50.6942 L8.31465 -55.5238 L7.44641 -60.4478"/>
<path d="M3.80662 -46.8639 L3.80662 -46.8639 L0.938739 -50.9597 L0.0704981 -55.8837"/>
<path d="M3.80662 -46.8639 L3.80662 -46.8639"/>
<path d="M-3.47296 -19.6962 L-3.47296 -19.6962 L-6.34085 -23.7919 L-9.20873 -27.8877 L-7.91463 -32.7173 L-8.78287 -37.6413 L-11.6508 -41.7371"/>
<path d="M-9.20873 -27.8877 L-9.20873 -27.8877 L-13.5389 -30.3877 L-16.4067 -34.4834"/>
<path d="M-9.20873 -27.8877 L-9.20873 -27.8877 L-10.077 -32.8117 L-10.9452 -37.7358 L-7.73127 -41.566 L-6.43718 -46.3956 L-7.30542 -51.3196"/>
<path d="M-10.9452 -37.7358 L-10.9452 -37.7358 L-13.8131 -41.8315 L-14.6813 -46.7556"/>
<path d="M-10.9452 -37.7358 L-10.9452 -37.7358"/>
<path d="M-3.47296 -19.6962 L-3.47296 -19.6962 L-4.3412 -24.6202 L-5.20945 -29.5442 L-1.99551 -33.3745 L-0.701412 -38.2041 L-1.56965 -43.1281"/>
<path d="M-5.20945 -29.5442 L-5.20945 -29.5442 L-8.07733 -33.64 L-8.94557 -38.564"/>
<path d="M-5.20945 -29.5442 L-5.20945 -29.5442 L-6.07769 -34.4683 L-6.94593 -39.3923 L-3.73199 -43.2225 L-2.43789 -48.0522 L-3.30613 -52.9762"/>
<path d="M-6.94593 -39.3923 L-6.94593 -39.3923 L-9.81381 -43.4881 L-10.6821 -48.4121"/>
<path d="M-6.94593 -39.3923 L-6.94593 -39.3923 L-3.73199 -43.2225 L-0.518051 -47.0528 L4.48195 -47.0528 L9.01349 -49.1658 L12.2274 -52.9961"/>
<path d="M-0.518051 -47.0528 L-0.518051 -47.0528 L0.776044 -51.8824 L3.98998 -55.7126"/>
<path d="M-0.518051 -47.0528 L-0.518051 -47.0528 L0.776044 -51.8824 L2.07014 -56.712 L6.60168 -58.8251 L9.81562 -62.6553 L11.1097 -67.485"/>
<path d="M2.07014 -56.712 L2.07014 -56.712 L1.2019 -61.6361 L2.49599 -66.4657"/>
<path d="M2.07014 -56.712 L2.07014 -56.712 L1.2019 -61.6361 L0.333658 -66.5601 L3.5476 -70.3903 L4.84169 -75.2199 L3.97345 -80.144"/>
<path d="M0.333658 -66.5601 L0.333658 -66.5601 L-2.53422 -70.6559 L-3.40247 -75.5799"/>
<path d="M0.333658 -66.5601 L0.333658 -66.5601"/>
<path d="M-6.94593 -39.3923 L-6.94593 -39.3923 L-9.81381 -43.4881 L-12.6817 -47.5838 L-11.3876 -52.4135 L-12.2558 -57.3375 L-15.1237 -61.4333"/>
<path d="M-12.6817 -47.5838 L-12.6817 -47.5838 L-17.0118 -50.0838 L-19.8797 -54.1796"/>
<path d="M-12.6817 -47.5838 L-12.6817 -47.5838 L-13.5499 -52.5079 L-14.4182 -57.4319 L-11.2042 -61.2621 L-9.91014 -66.0918 L-10.7784 -71.0158"/>
<path d="M-14.4182 -57.4319 L-14.4182 -57.4319 L-17.2861 -61.5277 L-18.1543 -66.4517"/>
<path d="M-14.4182 -57.4319 L-14.4182 -57.4319"/>
<path d="M-6.94593 -39.3923 L-6.94593 -39.3923 L-3.73199 -43.2225 L-0.518051 -47.0528 L4.48195 -47.0528 L9.01349 -49.1658 L12.2274 -52.9961"/>
<path d="M-0.518051 -47.0528 L-0.518051 -47.0528 L0.776044 -51.8824 L3.98998 -55.7126"/>
<path d="M-0.518051 -47.0528 L-0.518051 -47.0528 L2.69589 -50.883 L5.90983 -54.7132 L10.9098 -54.7132 L15.4414 -56.8263 L18.6553 -60.6565"/>
<path d="M5.90983 -54.7132 L5.90983 -54.7132 L7.20392 -59.5428 L10.4179 -63.3731"/>
<path d="M5.90983 -54.7132 L5.90983 -54.7132 L10.9098 -54.7132 L15.9098 -54.7132 L19.1238 -50.883 L23.6553 -48.7699 L28.6553 -48.7699"/>
<path d="M15.9098 -54.7132 L15.9098 -54.7132 L20.4414 -56.8263 L25.4414 -56.8263"/>
<path d="M15.9098 -54.7132 L15.9098 -54.7132 L20.4414 -56.8263 L24.9729 -58.9394 L29.5044 -56.8263 L34.5044 -56.8263 L39.036 -58.9394"/>
<path d="M24.9729 -58.9394 L24.9729 -58.9394 L28.1868 -62.7696 L32.7184 -64.8827"/>
<path d="M24.9729 -58.9394 L24.9729 -58.9394 L28.1868 -62.7696 L31.4008 -66.5998 L36.4008 -66.5998 L40.9323 -68.7129 L44.1463 -72.5431"/>
<path d="M31.4008 -66.5998 L31.4008 -66.5998 L32.6949 -71.4295 L35.9088 -75.2597"/>
<path d="M31.4008 -66.5998 L31.4008 -66.5998"/>
<path d="M5.90983 -54.7132 L5.90983 -54.7132 L7.20392 -59.5428 L8.49802 -64.3725 L13.0296 -66.4855 L16.2435 -70.3158 L17.5376 -75.1454"/>
<path d="M8.49802 -64.3725 L8.49802 -64.3725 L7.62977 -69.2965 L8.92387 -74.1261"/>
<path d="M8.49802 -64.3725 L8.49802 -64.3725 L11.712 -68.2027 L14.9259 -72.0329 L19.9259 -72.0329 L24.4574 -74.146 L27.6714 -77.9762"/>
<path d="M14.9259 -72.0329 L14.9259 -72.0329 L16.22 -76.8625 L19.4339 -80.6928"/>
<path d="M14.9259 -72.0329 L14.9259 -72.0329"/>
<path d="M5.90983 -54.7132 L5.90983 -54.7132 L7.20392 -59.5428 L8.49802 -64.3725 L13.0296 -66.4855 L16.2435 -70.3158 L17.5376 -75.1454"/>
<path d="M8.49802 -64.3725 L8.49802 -64.3725 L7.62977 -69.2965 L8.92387 -74.1261"/>
<path d="M8.49802 -64.3725 L8.49802 -64.3725 L9.79211 -69.2021 L11.0862 -74.0317 L15.6177 -76.1448 L18.8317 -79.975 L20.1258 -84.8047"/>
<path d="M11.0862 -74.0317 L11.0862 -74.0317 L10.218 -78.9558 L11.5121 -83.7854"/>
<path d="M11.0862 -74.0317 L11.0862 -74.0317 L15.6177 -76.1448 L20.1493 -78.2579 L24.6808 -76.1448 L29.6808 -76.1448 L34.2124 -78.2579"/>
<path d="M20.1493 -78.2579 L20.1493 -78.2579 L23.3632 -82.0881 L27.8948 -84.2012"/>
<path d="M20.1493 -78.2579 L20.1493 -78.2579 L23.3632 -82.0881 L26.5772 -85.9183 L31.5772 -85.9183 L36.1087 -88.0314 L39.3226 -91.8617"/>
<path d="M26.5772 -85.9183 L26.5772 -85.9183 L27.8713 -90.748 L31.0852 -94.5782"/>
<path d="M26.5772 -85.9183 L26.5772 -85.9183 L27.8713 -90.748 L29.1654 -95.5776 L33.6969 -97.6907 L36.9108 -101.521 L38.2049 -106.351"/>
<path d="M29.1654 -95.5776 L29.1654 -95.5776 L28.2971 -100.502 L29.5912 -105.331"/>
<path d="M29.1654 -95.5776 L29.1654 -95.5776"/>
<path d="M11.0862 -74.0317 L11.0862 -74.0317 L10.218 -78.9558 L9.34972 -83.8798 L12.5637 -87.71 L13.8578 -92.5396 L12.9895 -97.4637"/>
<path d="M9.34972 -83.8798 L9.34972 -83.8798 L6.48184 -87.9756 L5.6136 -92.8996"/>
<path d="M9.34972 -83.8798 L9.34972 -83.8798 L10.6438 -88.7094 L11.9379 -93.5391 L16.4695 -95.6521 L19.6834 -99.4824 L20.9775 -104.312"/>
<path d="M11.9379 -93.5391 L11.9379 -93.5391 L11.0697 -98.4631 L12.3638 -103.293"/>
<path d="M11.9379 -93.5391 L11.9379 -93.5391"/>
<path d="M11.0862 -74.0317 L11.0862 -74.0317 L10.218 -78.9558 L9.34972 -83.8798 L12.5637 -87.71 L13.8578 -92.5396 L12.9895 -97.4637"/>
<path d="M9.34972 -83.8798 L9.34972 -83.8798 L6.48184 -87.9756 L5.6136 -92.8996"/>
<path d="M9.34972 -83.8798 L9.34972 -83.8798 L8.48148 -88.8038 L7.61324 -93.7279 L10.8272 -97.5581 L12.1213 -102.388 L11.253 -107.312"/>
<path d="M7.61324 -93.7279 L7.61324 -93.7279 L4.74536 -97.8236 L3.87712 -102.748"/>
<path d="M7.61324 -93.7279 L7.61324 -93.7279 L10.8272 -97.5581 L14.0411 -101.388 L19.0411 -101.388 L23.5727 -103.501 L26.7866 -107.332"/>
<path d="M14.0411 -101.388 L14.0411 -101.388 L15.3352 -106.218 L18.5492 -110.048"/>
<path d="M14.0411 -101.388 L14.0411 -101.388 L15.3352 -106.218 L16.6293 -111.048 L21.1608 -113.161 L24.3748 -116.991 L25.6689 -121.821"/>
<path d="M16.6293 -111.048 L16.6293 -111.048 L15.7611 -115.972 L17.0552 -120.801"/>
<path d="M16.6293 -111.048 L16.6293 -111.048 L15.7611 -115.972 L14.8928 -120.896 L18.1068 -124.726 L19.4009 -129.556 L18.5326 -134.48"/>
<path d="M14.8928 -120.896 L14.8928 -120.896 L12.0249 -124.991 L11.1567 -129.915"/>
<path d="M14.8928 -120.896 L14.8928 -120.896"/>
<path d="M7.61324 -93.7279 L7.61324 -93.7279 L4.74536 -97.8236 L1.87748 -101.919 L3.17157 -106.749 L2.30333 -111.673 L-0.56455 -115.769"/>
<path d="M1.87748 -101.919 L1.87748 -101.919 L-2.45265 -104.419 L-5.32053 -108.515"/>
<path d="M1.87748 -101.919 L1.87748 -101.919 L1.00924 -106.843 L0.140996 -111.767 L3.35493 -115.598 L4.64903 -120.427 L3.78079 -125.351"/>
<path d="M0.140996 -111.767 L0.140996 -111.767 L-2.72689 -115.863 L-3.59513 -120.787"/>
<path d="M0.140996 -111.767 L0.140996 -111.767"/>
<path d="M7.61324 -93.7279 L7.61324 -93.7279"/>
<path d="M-6.94593 -39.3923 L-6.94593 -39.3923 L-9.81381 -43.4881 L-12.6817 -47.5838 L-11.3876 -52.4135 L-12.2558 -57.3375 L-15.1237 -61.4333"/>
<path d="M-12.6817 -47.5838 L-12.6817 -47.5838 L-17.0118 -50.0838 L-19.8797 -54.1796"/>
<path d="M-12.6817 -47.5838 L-12.6817 -47.5838 L-15.5496 -51.6796 L-18.4175 -55.7754 L-17.1234 -60.605 L-17.9916 -65.529 L-20.8595 -69.6248"/>
<path d="M-18.4175 -55.7754 L-18.4175 -55.7754 L-22.7476 -58.2754 L-25.6155 -62.3711"/>
<path d="M-18.4175 -55.7754 L-18.4175 -55.7754 L-17.1234 -60.605 L-15.8293 -65.4346 L-11.2977 -67.5477 L-8.08379 -71.3779 L-6.78969 -76.2076"/>
<path d="M-15.8293 -65.4346 L-15.8293 -65.4346 L-16.6975 -70.3586 L-15.4034 -75.1883"/>
<path d="M-15.8293 -65.4346 L-15.8293 -65.4346 L-16.6975 -70.3586 L-17.5657 -75.2827 L-14.3518 -79.1129 L-13.0577 -83.9425 L-13.926 -88.8666"/>
<path d="M-17.5657 -75.2827 L-17.5657 -75.2827 L-20.4336 -79.3784 L-21.3019 -84.3025"/>
<path d="M-17.5657 -75.2827 L-17.5657 -75.2827 L-20.4336 -79.3784 L-23.3015 -83.4742 L-22.0074 -88.3038 L-22.8757 -93.2279 L-25.7435 -97.3236"/>
<path d="M-23.3015 -83.4742 L-23.3015 -83.4742 L-27.6316 -85.9742 L-30.4995 -90.07"/>
<path d="M-23.3015 -83.4742 L-23.3015 -83.4742"/>
<path d="M-18.4175 -55.7754 L-18.4175 -55.7754 L-22.7476 -58.2754 L-27.0777 -60.7754 L-27.946 -65.6994 L-30.8138 -69.7951 L-35.144 -72.2951"/>
<path d="M-27.0777 -60.7754 L-27.0777 -60.7754 L-32.0587 -61.2111 L-36.3888 -63.7111"/>
<path d="M-27.0777 -60.7754 L-27.0777 -60.7754 L-29.9456 -64.8711 L-32.8135 -68.9669 L-31.5194 -73.7965 L-32.3876 -78.7205 L-35.2555 -82.8163"/>
<path d="M-32.8135 -68.9669 L-32.8135 -68.9669 L-37.1436 -71.4669 L-40.0115 -75.5626"/>
<path d="M-32.8135 -68.9669 L-32.8135 -68.9669"/>
<path d="M-18.4175 -55.7754 L-18.4175 -55.7754 L-19.2857 -60.6994 L-20.1539 -65.6234 L-16.94 -69.4537 L-15.6459 -74.2833 L-16.5141 -79.2073"/>
<path d="M-20.1539 -65.6234 L-20.1539 -65.6234 L-23.0218 -69.7192 L-23.8901 -74.6432"/>
<path d="M-20.1539 -65.6234 L-20.1539 -65.6234 L-21.0222 -70.5475 L-21.8904 -75.4715 L-18.6765 -79.3017 L-17.3824 -84.1314 L-18.2506 -89.0554"/>
<path d="M-21.8904 -75.4715 L-21.8904 -75.4715 L-24.7583 -79.5673 L-25.6265 -84.4913"/>
<path d="M-21.8904 -75.4715 L-21.8904 -75.4715 L-18.6765 -79.3017 L-15.4625 -83.132 L-10.4625 -83.132 L-5.931 -85.245 L-2.71707 -89.0753"/>
<path d="M-15.4625 -83.132 L-15.4625 -83.132 L-14.1684 -87.9616 L-10.9545 -91.7918"/>
<path d="M-15.4625 -83.132 L-15.4625 -83.132 L-14.1684 -87.9616 L-12.8744 -92.7912 L-8.34281 -94.9043 L-5.12888 -98.7345 L-3.83478 -103.564"/>
<path d="M-12.8744 -92.7912 L-12.8744 -92.7912 L-13.7426 -97.7152 L-12.4485 -102.545"/>
<path d="M-12.8744 -92.7912 L-12.8744 -92.7912 L-13.7426 -97.7152 L-14.6108 -102.639 L-11.3969 -106.47 L-10.1028 -111.299 L-10.971 -116.223"/>
<path d="M-14.6108 -102.639 L-14.6108 -102.639 L-17.4787 -106.735 L-18.347 -111.659"/>
<path d="M-14.6108 -102.639 L-14.6108 -102.639"/>
<path d="M-21.8904 -75.4715 L-21.8904 -75.4715 L-24.7583 -79.5673 L-27.6262 -83.663 L-26.3321 -88.4927 L-27.2003 -93.4167 L-30.0682 -97.5125"/>
<path d="M-27.6262 -83.663 L-27.6262 -83.663 L-31.9563 -86.163 L-34.8242 -90.2588"/>
<path d="M-27.6262 -83.663 L-27.6262 -83.663 L-28.4944 -88.5871 L-29.3627 -93.5111 L-26.1487 -97.3413 L-24.8546 -102.171 L-25.7229 -107.095"/>
<path d="M-29.3627 -93.5111 L-29.3627 -93.5111 L-32.2305 -97.6069 L-33.0988 -102.531"/>
<path d="M-29.3627 -93.5111 L-29.3627 -93.5111"/>
<path d="M-21.8904 -75.4715 L-21.8904 -75.4715"/>
<path d="M-6.94593 -39.3923 L-6.94593 -39.3923 L-7.81417 -44.3163 L-8.68241 -49.2404 L-5.46847 -53.0706 L-4.17438 -57.9002 L-5.04262 -62.8243"/>
<path d="M-8.68241 -49.2404 L-8.68241 -49.2404 L-11.5503 -53.3361 L-12.4185 -58.2602"/>
<path d="M-8.68241 -49.2404 L-8.68241 -49.2404 L-9.55065 -54.1644 L-10.4189 -59.0885 L-7.20495 -62.9187 L-5.91086 -67.7483 L-6.7791 -72.6724"/>
<path d="M-10.4189 -59.0885 L-10.4189 -59.0885 L-13.2868 -63.1842 L-14.155 -68.1083"/>
<path d="M-10.4189 -59.0885 L-10.4189 -59.0885 L-7.20495 -62.9187 L-3.99101 -66.7489 L1.00899 -66.7489 L5.54052 -68.862 L8.75446 -72.6922"/>
<path d="M-3.99101 -66.7489 L-3.99101 -66.7489 L-2.69692 -71.5785 L0.517019 -75.4088"/>
<path d="M-3.99101 -66.7489 L-3.99101 -66.7489 L-2.69692 -71.5785 L-1.40282 -76.4082 L3.12871 -78.5213 L6.34265 -82.3515 L7.63675 -87.1811"/>
<path d="M-1.40282 -76.4082 L-1.40282 -76.4082 L-2.27107 -81.3322 L-0.97697 -86.1618"/>
<path d="M-1.40282 -76.4082 L-1.40282 -76.4082 L-2.27107 -81.3322 L-3.13931 -86.2562 L0.0746322 -90.0865 L1.36873 -94.9161 L0.500486 -99.8401"/>
<path d="M-3.13931 -86.2562 L-3.13931 -86.2562 L-6.00719 -90.352 L-6.87543 -95.276"/>
<path d="M-3.13931 -86.2562 L-3.13931 -86.2562"/>
<path d="M-10.4189 -59.0885 L-10.4189 -59.0885 L-13.2868 -63.1842 L-16.1547 -67.28 L-14.8606 -72.1096 L-15.7288 -77.0337 L-18.5967 -81.1294"/>
<path d="M-16.1547 -67.28 L-16.1547 -67.28 L-20.4848 -69.78 L-23.3527 -73.8757"/>
<path d="M-16.1547 -67.28 L-16.1547 -67.28 L-17.0229 -72.204 L-17.8911 -77.1281 L-14.6772 -80.9583 L-13.3831 -85.7879 L-14.2513 -90.712"/>
<path d="M-17.8911 -77.1281 L-17.8911 -77.1281 L-20.759 -81.2238 L-21.6273 -86.1479"/>
<path d="M-17.8911 -77.1281 L-17.8911 -77.1281"/>
<path d="M-10.4189 -59.0885 L-10.4189 -59.0885 L-11.2871 -64.0125 L-12.1554 -68.9365 L-8.94143 -72.7668 L-7.64734 -77.5964 L-8.51558 -82.5204"/>
<path d="M-12.1554 -68.9365 L-12.1554 -68.9365 L-15.0233 -73.0323 L-15.8915 -77.9563"/>
<path d="M-12.1554 -68.9365 L-12.1554 -68.9365 L-13.0236 -73.8606 L-13.8919 -78.7846 L-10.6779 -82.6148 L-9.38382 -87.4445 L-10.2521 -92.3685"/>
<path d="M-13.8919 -78.7846 L-13.8919 -78.7846 L-16.7597 -82.8804 L-17.628 -87.8044"/>
<path d="M-13.8919 -78.7846 L-13.8919 -78.7846 L-10.6779 -82.6148 L-7.46398 -86.4451 L-2.46398 -86.4451 L2.06756 -88.5582 L5.2815 -92.3884"/>
<path d="M-7.46398 -86.4451 L-7.46398 -86.4451 L-6.16988 -91.2747 L-2.95594 -95.1049"/>
<path d="M-7.46398 -86.4451 L-7.46398 -86.4451 L-6.16988 -91.2747 L-4.87579 -96.1043 L-0.344249 -98.2174 L2.86969 -102.048 L4.16378 -106.877"/>
<path d="M-4.87579 -96.1043 L-4.87579 -96.1043 L-5.74403 -101.028 L-4.44993 -105.858"/>
<path d="M-4.87579 -96.1043 L-4.87579 -96.1043 L-5.74403 -101.028 L-6.61227 -105.952 L-3.39833 -109.783 L-2.10424 -114.612 L-2.97248 -119.536"/>
<path d="M-6.61227 -105.952 L-6.61227 -105.952 L-9.48015 -110.048 L-10.3484 -114.972"/>
<path d="M-6.61227 -105.952 L-6.61227 -105.952"/>
<path d="M-13.8919 -78.7846 L-13.8919 -78.7846 L-16.7597 -82.8804 L-19.6276 -86.9761 L-18.3335 -91.8058 L-19.2018 -96.7298 L-22.0696 -100.826"/>
<path d="M-19.6276 -86.9761 L-19.6276 -86.9761 L-23.9577 -89.4761 L-26.8256 -93.5719"/>
<path d="M-19.6276 -86.9761 L-19.6276 -86.9761 L-20.4959 -91.9002 L-21.3641 -96.8242 L-18.1502 -100.654 L-16.8561 -105.484 L-17.7243 -110.408"/>
<path d="M-21.3641 -96.8242 L-21.3641 -96.8242 L-24.232 -100.92 L-25.1002 -105.844"/>
<path d="M-21.3641 -96.8242 L-21.3641 -96.8242"/>
<path d="M-13.8919 -78.7846 L-13.8919 -78.7846 L-10.6779 -82.6148 L-7.46398 -86.4451 L-2.46398 -86.4451 L2.06756 -88.5582 L5.2815 -92.3884"/>
<path d="M-7.46398 -86.4451 L-7.46398 -86.4451 L-6.16988 -91.2747 L-2.95594 -95.1049"/>
<path d="M-7.46398 -86.4451 L-7.46398 -86.4451 L-4.25004 -90.2753 L-1.0361 -94.1055 L3.9639 -94.1055 L8.49544 -96.2186 L11.7094 -100.049"/>
<path d="M-1.0361 -94.1055 L-1.0361 -94.1055 L0.257993 -98.9351 L3.47193 -102.765"/>
<path d="M-1.0361 -94.1055 L-1.0361 -94.1055 L3.9639 -94.1055 L8.9639 -94.1055 L12.1778 -90.2753 L16.7094 -88.1622 L21.7094 -88.1622"/>
<path d="M8.9639 -94.1055 L8.9639 -94.1055 L13.4954 -96.2186 L18.4954 -96.2186"/>
<path d="M8.9639 -94.1055 L8.9639 -94.1055 L13.4954 -96.2186 L18.027 -98.3317 L22.5585 -96.2186 L27.5585 -96.2186 L32.0901 -98.3317"/>
<path d="M18.027 -98.3317 L18.027 -98.3317 L21.2409 -102.162 L25.7725 -104.275"/>
<path d="M18.027 -98.3317 L18.027 -98.3317 L21.2409 -102.162 L24.4549 -105.992 L29.4549 -105.992 L33.9864 -108.105 L37.2003 -111.935"/>
<path d="M24.4549 -105.992 L24.4549 -105.992 L25.7489 -110.822 L28.9629 -114.652"/>
<path d="M24.4549 -105.992 L24.4549 -105.992"/>
<path d="M-1.0361 -94.1055 L-1.0361 -94.1055 L0.257993 -98.9351 L1.55209 -103.765 L6.08363 -105.878 L9.29757 -109.708 L10.5917 -114.538"/>
<path d="M1.55209 -103.765 L1.55209 -103.765 L0.683848 -108.689 L1.97794 -113.518"/>
<path d="M1.55209 -103.765 L1.55209 -103.765 L4.76603 -107.595 L7.97996 -111.425 L12.98 -111.425 L17.5115 -113.538 L20.7254 -117.369"/>
<path d="M7.97996 -111.425 L7.97996 -111.425 L9.27406 -116.255 L12.488 -120.085"/>
<path d="M7.97996 -111.425 L7.97996 -111.425"/>
<path d="M-1.0361 -94.1055 L-1.0361 -94.1055 L0.257993 -98.9351 L1.55209 -103.765 L6.08363 -105.878 L9.29757 -109.708 L10.5917 -114.538"/>
<path d="M1.55209 -103.765 L1.55209 -103.765 L0.683848 -108.689 L1.97794 -113.518"/>
<path d="M1.55209 -103.765 L1.55209 -103.765 L2.84618 -108.594 L4.14028 -113.424 L8.67182 -115.537 L11.8858 -119.367 L13.1799 -124.197"/>
<path d="M4.14028 -113.424 L4.14028 -113.424 L3.27204 -118.348 L4.56613 -123.178"/>
<path d="M4.14028 -113.424 L4.14028 -113.424 L8.67182 -115.537 L13.2034 -117.65 L17.7349 -115.537 L22.7349 -115.537 L27.2664 -117.65"/>
<path d="M13.2034 -117.65 L13.2034 -117.65 L16.4173 -121.48 L20.9488 -123.594"/>
<path d="M13.2034 -117.65 L13.2034 -117.65 L16.4173 -121.48 L19.6312 -125.311 L24.6312 -125.311 L29.1628 -127.424 L32.3767 -131.254"/>
<path d="M19.6312 -125.311 L19.6312 -125.311 L20.9253 -130.14 L24.1393 -133.971"/>
<path d="M19.6312 -125.311 L19.6312 -125.311 L20.9253 -130.14 L22.2194 -134.97 L26.751 -137.083 L29.9649 -140.913 L31.259 -145.743"/>
<path d="M22.2194 -134.97 L22.2194 -134.97 L21.3512 -139.894 L22.6453 -144.724"/>
<path d="M22.2194 -134.97 L22.2194 -134.97"/>
<path d="M4.14028 -113.424 L4.14028 -113.424 L3.27204 -118.348 L2.4038 -123.272 L5.61774 -127.102 L6.91183 -131.932 L6.04359 -136.856"/>
<path d="M2.4038 -123.272 L2.4038 -123.272 L-0.464085 -127.368 L-1.33233 -132.292"/>
<path d="M2.4038 -123.272 L2.4038 -123.272 L3.69789 -128.102 L4.99199 -132.931 L9.52353 -135.044 L12.7375 -138.875 L14.0316 -143.704"/>
<path d="M4.99199 -132.931 L4.99199 -132.931 L4.12375 -137.855 L5.41784 -142.685"/>
<path d="M4.99199 -132.931 L4.99199 -132.931"/>
<path d="M4.14028 -113.424 L4.14028 -113.424 L3.27204 -118.348 L2.4038 -123.272 L5.61774 -127.102 L6.91183 -131.932 L6.04359 -136.856"/>
<path d="M2.4038 -123.272 L2.4038 -123.272 L-0.464085 -127.368 L-1.33233 -132.292"/>
<path d="M2.4038 -123.272 L2.4038 -123.272 L1.53556 -128.196 L0.667315 -133.12 L3.88125 -136.95 L5.17535 -141.78 L4.30711 -146.704"/>
<path d="M0.667315 -133.12 L0.667315 -133.12 L-2.20057 -137.216 L-3.06881 -142.14"/>
<path d="M0.667315 -133.12 L0.667315 -133.12 L3.88125 -136.95 L7.09519 -140.781 L12.0952 -140.781 L16.6267 -142.894 L19.8407 -146.724"/>
<path d="M7.09519 -140.781 L7.09519 -140.781 L8.38929 -145.61 L11.6032 -149.44"/>
<path d="M7.09519 -140.781 L7.09519 -140.781 L8.38929 -145.61 L9.68338 -150.44 L14.2149 -152.553 L17.4289 -156.383 L18.723 -161.213"/>
<path d="M9.68338 -150.44 L9.68338 -150.44 L8.81514 -155.364 L10.1092 -160.194"/>
<path d="M9.68338 -150.44 L9.68338 -150.44 L8.81514 -155.364 L7.9469 -160.288 L11.1608 -164.118 L12.4549 -168.948 L11.5867 -173.872"/>
<path d="M7.9469 -160.288 L7.9469 -160.288 L5.07902 -164.384 L4.21078 -169.308"/>
<path d="M7.9469 -160.288 L7.9469 -160.288"/>
<path d="M0.667315 -133.12 L0.667315 -133.12 L-2.20057 -137.216 L-5.06845 -141.312 L-3.77435 -146.141 L-4.64259 -151.065 L-7.51048 -155.161"/>
<path d="M-5.06845 -141.312 L-5.06845 -141.312 L-9.39858 -143.812 L-12.2665 -147.907"/>
<path d="M-5.06845 -141.312 L-5.06845 -141.312 L-5.93669 -146.236 L-6.80493 -151.16 L-3.59099 -154.99 L-2.2969 -159.82 L-3.16514 -164.744"/>
<path d="M-6.80493 -151.16 L-6.80493 -151.16 L-9.67281 -155.256 L-10.5411 -160.18"/>
<path d="M-6.80493 -151.16 L-6.80493 -151.16"/>
<path d="M0.667315 -133.12 L0.667315 -133.12"/>
<path d="M-13.8919 -78.7846 L-13.8919 -78.7846 L-16.7597 -82.8804 L-19.6276 -86.9761 L-18.3335 -91.8058 L-19.2018 -96.7298 L-22.0696 -100.826"/>
<path d="M-19.6276 -86.9761 L-19.6276 -86.9761 L-23.9577 -89.4761 L-26.8256 -93.5719"/>
<path d="M-19.6276 -86.9761 L-19.6276 -86.9761 L-22.4955 -91.0719 L-25.3634 -95.1677 L-24.0693 -99.9973 L-24.9375 -104.921 L-27.8054 -109.017"/>
<path d="M-25.3634 -95.1677 L-25.3634 -95.1677 L-29.6935 -97.6677 L-32.5614 -101.763"/>
<path d="M-25.3634 -95.1677 L-25.3634 -95.1677 L-24.0693 -99.9973 L-22.7752 -104.827 L-18.2437 -106.94 L-15.0297 -110.77 L-13.7356 -115.6"/>
<path d="M-22.7752 -104.827 L-22.7752 -104.827 L-23.6434 -109.751 L-22.3493 -114.581"/>
<path d="M-22.7752 -104.827 L-22.7752 -104.827 L-23.6434 -109.751 L-24.5117 -114.675 L-21.2977 -118.505 L-20.0036 -123.335 L-20.8719 -128.259"/>
<path d="M-24.5117 -114.675 L-24.5117 -114.675 L-27.3796 -118.771 L-28.2478 -123.695"/>
<path d="M-24.5117 -114.675 L-24.5117 -114.675 L-27.3796 -118.771 L-30.2474 -122.867 L-28.9533 -127.696 L-29.8216 -132.62 L-32.6895 -136.716"/>
<path d="M-30.2474 -122.867 L-30.2474 -122.867 L-34.5776 -125.367 L-37.4454 -129.462"/>
<path d="M-30.2474 -122.867 L-30.2474 -122.867"/>
<path d="M-25.3634 -95.1677 L-25.3634 -95.1677 L-29.6935 -97.6677 L-34.0236 -100.168 L-34.8919 -105.092 L-37.7598 -109.187 L-42.0899 -111.687"/>
<path d="M-34.0236 -100.168 L-34.0236 -100.168 L-39.0046 -100.603 L-43.3347 -103.103"/>
<path d="M-34.0236 -100.168 L-34.0236 -100.168 L-36.8915 -104.263 L-39.7594 -108.359 L-38.4653 -113.189 L-39.3335 -118.113 L-42.2014 -122.209"/>
<path d="M-39.7594 -108.359 L-39.7594 -108.359 L-44.0895 -110.859 L-46.9574 -114.955"/>
<path d="M-39.7594 -108.359 L-39.7594 -108.359"/>
<path d="M-25.3634 -95.1677 L-25.3634 -95.1677 L-26.2316 -100.092 L-27.0999 -105.016 L-23.8859 -108.846 L-22.5918 -113.676 L-23.4601 -118.6"/>
<path d="M-27.0999 -105.016 L-27.0999 -105.016 L-29.9677 -109.111 L-30.836 -114.036"/>
<path d="M-27.0999 -105.016 L-27.0999 -105.016 L-27.9681 -109.94 L-28.8363 -114.864 L-25.6224 -118.694 L-24.3283 -123.524 L-25.1966 -128.448"/>
<path d="M-28.8363 -114.864 L-28.8363 -114.864 L-31.7042 -118.96 L-32.5725 -123.884"/>
<path d="M-28.8363 -114.864 L-28.8363 -114.864 L-25.6224 -118.694 L-22.4085 -122.524 L-17.4085 -122.524 L-12.8769 -124.637 L-9.66299 -128.468"/>
<path d="M-22.4085 -122.524 L-22.4085 -122.524 L-21.1144 -127.354 L-17.9004 -131.184"/>
<path d="M-22.4085 -122.524 L-22.4085 -122.524 L-21.1144 -127.354 L-19.8203 -132.184 L-15.2887 -134.297 L-12.0748 -138.127 L-10.7807 -142.956"/>
<path d="M-19.8203 -132.184 L-19.8203 -132.184 L-20.6885 -137.108 L-19.3944 -141.937"/>
<path d="M-19.8203 -132.184 L-19.8203 -132.184 L-20.6885 -137.108 L-21.5568 -142.032 L-18.3428 -145.862 L-17.0487 -150.691 L-17.917 -155.615"/>
<path d="M-21.5568 -142.032 L-21.5568 -142.032 L-24.4246 -146.127 L-25.2929 -151.051"/>
<path d="M-21.5568 -142.032 L-21.5568 -142.032"/>
<path d="M-28.8363 -114.864 L-28.8363 -114.864 L-31.7042 -118.96 L-34.5721 -123.055 L-33.278 -127.885 L-34.1463 -132.809 L-37.0141 -136.905"/>
<path d="M-34.5721 -123.055 L-34.5721 -123.055 L-38.9022 -125.555 L-41.7701 -129.651"/>
<path d="M-34.5721 -123.055 L-34.5721 -123.055 L-35.4404 -127.979 L-36.3086 -132.903 L-33.0947 -136.734 L-31.8006 -141.563 L-32.6688 -146.487"/>
<path d="M-36.3086 -132.903 L-36.3086 -132.903 L-39.1765 -136.999 L-40.0447 -141.923"/>
<path d="M-36.3086 -132.903 L-36.3086 -132.903"/>
<path d="M-28.8363 -114.864 L-28.8363 -114.864"/>
<path d="M-13.8919 -78.7846 L-13.8919 -78.7846 L-10.6779 -82.6148 L-7.46398 -86.4451 L-2.46398 -86.4451 L2.06756 -88.5582 L5.2815 -92.3884"/>
<path d="M-7.46398 -86.4451 L-7.46398 -86.4451 L-6.16988 -91.2747 L-2.95594 -95.1049"/>
<path d="M-7.46398 -86.4451 L-7.46398 -86.4451 L-4.25004 -90.2753 L-1.0361 -94.1055 L3.9639 -94.1055 L8.49544 -96.2186 L11.7094 -100.049"/>
<path d="M-1.0361 -94.1055 L-1.0361 -94.1055 L0.257993 -98.9351 L3.47193 -102.765"/>
<path d="M-1.0361 -94.1055 L-1.0361 -94.1055 L3.9639 -94.1055 L8.9639 -94.1055 L12.1778 -90.2753 L16.7094 -88.1622 L21.7094 -88.1622"/>
<path d="M8.9639 -94.1055 L8.9639 -94.1055 L13.4954 -96.2186 L18.4954 -96.2186"/>
<path d="M8.9639 -94.1055 L8.9639 -94.1055 L13.4954 -96.2186 L18.027 -98.3317 L22.5585 -96.2186 L27.5585 -96.2186 L32.0901 -98.3317"/>
<path d="M18.027 -98.3317 L18.027 -98.3317 L21.2409 -102.162 L25.7725 -104.275"/>
<path d="M18.027 -98.3317 L18.027 -98.3317 L21.2409 -102.162 L24.4549 -105.992 L29.4549 -105.992 L33.9864 -108.105 L37.2003 -111.935"/>
<path d="M24.4549 -105.992 L24.4549 -105.992 L25.7489 -110.822 L28.9629 -114.652"/>
<path d="M24.4549 -105.992 L24.4549 -105.992"/>
<path d="M-1.0361 -94.1055 L-1.0361 -94.1055 L0.257993 -98.9351 L1.55209 -103.765 L6.08363 -105.878 L9.29757 -109.708 L10.5917 -114.538"/>
<path d="M1.55209 -103.765 L1.55209 -103.765 L0.683848 -108.689 L1.97794 -113.518"/>
<path d="M1.55209 -103.765 L1.55209 -103.765 L4.76603 -107.595 L7.97996 -111.425 L12.98 -111.425 L17.5115 -113.538 L20.7254 -117.369"/>
<path d="M7.97996 -111.425 L7.97996 -111.425 L9.27406 -116.255 L12.488 -120.085"/>
<path d="M7.97996 -111.425 L7.97996 -111.425"/>
<path d="M-1.0361 -94.1055 L-1.0361 -94.1055 L2.17784 -97.9357 L5.39177 -101.766 L10.3918 -101.766 L14.9233 -103.879 L18.1373 -107.709"/>
<path d="M5.39177 -101.766 L5.39177 -101.766 L6.68587 -106.596 L9.89981 -110.426"/>
<path d="M5.39177 -101.766 L5.39177 -101.766 L8.60571 -105.596 L11.8197 -109.426 L16.8197 -109.426 L21.3512 -111.539 L24.5651 -115.37"/>
<path d="M11.8197 -109.426 L11.8197 -109.426 L13.1137 -114.256 L16.3277 -118.086"/>
<path d="M11.8197 -109.426 L11.8197 -109.426 L16.8197 -109.426 L21.8197 -109.426 L25.0336 -105.596 L29.5651 -103.483 L34.5651 -103.483"/>
<path d="M21.8197 -109.426 L21.8197 -109.426 L26.3512 -111.539 L31.3512 -111.539"/>
<path d="M21.8197 -109.426 L21.8197 -109.426 L26.3512 -111.539 L30.8827 -113.653 L35.4143 -111.539 L40.4143 -111.539 L44.9458 -113.653"/>
<path d="M30.8827 -113.653 L30.8827 -113.653 L34.0967 -117.483 L38.6282 -119.596"/>
<path d="M30.8827 -113.653 L30.8827 -113.653 L34.0967 -117.483 L37.3106 -121.313 L42.3106 -121.313 L46.8421 -123.426 L50.0561 -127.256"/>
<path d="M37.3106 -121.313 L37.3106 -121.313 L38.6047 -126.143 L41.8186 -129.973"/>
<path d="M37.3106 -121.313 L37.3106 -121.313"/>
<path d="M11.8197 -109.426 L11.8197 -109.426 L13.1137 -114.256 L14.4078 -119.086 L18.9394 -121.199 L22.1533 -125.029 L23.4474 -129.859"/>
<path d="M14.4078 -119.086 L14.4078 -119.086 L13.5396 -124.01 L14.8337 -128.839"/>
<path d="M14.4078 -119.086 L14.4078 -119.086 L17.6218 -122.916 L20.8357 -126.746 L25.8357 -126.746 L30.3673 -128.859 L33.5812 -132.689"/>
<path d="M20.8357 -126.746 L20.8357 -126.746 L22.1298 -131.576 L25.3437 -135.406"/>
<path d="M20.8357 -126.746 L20.8357 -126.746"/>
<path d="M11.8197 -109.426 L11.8197 -109.426 L16.8197 -109.426 L21.8197 -109.426 L25.0336 -105.596 L29.5651 -103.483 L34.5651 -103.483"/>
<path d="M21.8197 -109.426 L21.8197 -109.426 L26.3512 -111.539 L31.3512 -111.539"/>
<path d="M21.8197 -109.426 L21.8197 -109.426 L26.8197 -109.426 L31.8197 -109.426 L35.0336 -105.596 L39.5651 -103.483 L44.5651 -103.483"/>
<path d="M31.8197 -109.426 L31.8197 -109.426 L36.3512 -111.539 L41.3512 -111.539"/>
<path d="M31.8197 -109.426 L31.8197 -109.426 L35.0336 -105.596 L38.2475 -101.766 L37.3793 -96.8419 L38.6734 -92.0123 L41.8873 -88.1821"/>
<path d="M38.2475 -101.766 L38.2475 -101.766 L42.7791 -99.6529 L45.993 -95.8226"/>
<path d="M38.2475 -101.766 L38.2475 -101.766 L42.7791 -99.6529 L47.3106 -97.5398 L48.6047 -92.7101 L51.8186 -88.8799 L56.3502 -86.7668"/>
<path d="M47.3106 -97.5398 L47.3106 -97.5398 L52.3106 -97.5398 L56.8421 -95.4267"/>
<path d="M47.3106 -97.5398 L47.3106 -97.5398 L52.3106 -97.5398 L57.3106 -97.5398 L60.5245 -93.7095 L65.0561 -91.5965 L70.0561 -91.5965"/>
<path d="M57.3106 -97.5398 L57.3106 -97.5398 L61.8421 -99.6529 L66.8421 -99.6529"/>
<path d="M57.3106 -97.5398 L57.3106 -97.5398"/>
<path d="M31.8197 -109.426 L31.8197 -109.426 L36.3512 -111.539 L40.8827 -113.653 L45.4143 -111.539 L50.4143 -111.539 L54.9458 -113.653"/>
<path d="M40.8827 -113.653 L40.8827 -113.653 L44.0967 -117.483 L48.6282 -119.596"/>
<path d="M40.8827 -113.653 L40.8827 -113.653 L45.8827 -113.653 L50.8827 -113.653 L54.0967 -109.822 L58.6282 -107.709 L63.6282 -107.709"/>
<path d="M50.8827 -113.653 L50.8827 -113.653 L55.4143 -115.766 L60.4143 -115.766"/>
<path d="M50.8827 -113.653 L50.8827 -113.653"/>
<path d="M31.8197 -109.426 L31.8197 -109.426 L36.3512 -111.539 L40.8827 -113.653 L45.4143 -111.539 L50.4143 -111.539 L54.9458 -113.653"/>
<path d="M40.8827 -113.653 L40.8827 -113.653 L44.0967 -117.483 L48.6282 -119.596"/>
<path d="M40.8827 -113.653 L40.8827 -113.653 L45.4143 -115.766 L49.9458 -117.879 L54.4773 -115.766 L59.4773 -115.766 L64.0089 -117.879"/>
<path d="M49.9458 -117.879 L49.9458 -117.879 L53.1597 -121.709 L57.6913 -123.822"/>
<path d="M49.9458 -117.879 L49.9458 -117.879 L54.4773 -115.766 L59.0089 -113.653 L60.303 -108.823 L63.5169 -104.993 L68.0485 -102.88"/>
<path d="M59.0089 -113.653 L59.0089 -113.653 L64.0089 -113.653 L68.5404 -111.539"/>
<path d="M59.0089 -113.653 L59.0089 -113.653 L64.0089 -113.653 L69.0089 -113.653 L72.2228 -109.822 L76.7544 -107.709 L81.7544 -107.709"/>
<path d="M69.0089 -113.653 L69.0089 -113.653 L73.5404 -115.766 L78.5404 -115.766"/>
<path d="M69.0089 -113.653 L69.0089 -113.653 L73.5404 -115.766 L78.072 -117.879 L82.6035 -115.766 L87.6035 -115.766 L92.135 -117.879"/>
<path d="M78.072 -117.879 L78.072 -117.879 L81.2859 -121.709 L85.8174 -123.822"/>
<path d="M78.072 -117.879 L78.072 -117.879"/>
<path d="M49.9458 -117.879 L49.9458 -117.879 L53.1597 -121.709 L56.3737 -125.539 L61.3737 -125.539 L65.9052 -127.652 L69.1192 -131.483"/>
<path d="M56.3737 -125.539 L56.3737 -125.539 L57.6678 -130.369 L60.8817 -134.199"/>
<path d="M56.3737 -125.539 L56.3737 -125.539 L60.9052 -127.652 L65.4368 -129.765 L69.9683 -127.652 L74.9683 -127.652 L79.4998 -129.765"/>
<path d="M65.4368 -129.765 L65.4368 -129.765 L68.6507 -133.596 L73.1822 -135.709"/>
<path d="M65.4368 -129.765 L65.4368 -129.765"/>
<path d="M49.9458 -117.879 L49.9458 -117.879 L53.1597 -121.709 L56.3737 -125.539 L61.3737 -125.539 L65.9052 -127.652 L69.1192 -131.483"/>
<path d="M56.3737 -125.539 L56.3737 -125.539 L57.6678 -130.369 L60.8817 -134.199"/>
<path d="M56.3737 -125.539 L56.3737 -125.539 L59.5876 -129.369 L62.8016 -133.2 L67.8016 -133.2 L72.3331 -135.313 L75.547 -139.143"/>
<path d="M62.8016 -133.2 L62.8016 -133.2 L64.0957 -138.029 L67.3096 -141.86"/>
<path d="M62.8016 -133.2 L62.8016 -133.2 L67.8016 -133.2 L72.8016 -133.2 L76.0155 -129.369 L80.547 -127.256 L85.547 -127.256"/>
<path d="M72.8016 -133.2 L72.8016 -133.2 L77.3331 -135.313 L82.3331 -135.313"/>
<path d="M72.8016 -133.2 L72.8016 -133.2 L77.3331 -135.313 L81.8646 -137.426 L86.3962 -135.313 L91.3962 -135.313 L95.9277 -137.426"/>
<path d="M81.8646 -137.426 L81.8646 -137.426 L85.0786 -141.256 L89.6101 -143.369"/>
<path d="M81.8646 -137.426 L81.8646 -137.426 L85.0786 -141.256 L88.2925 -145.086 L93.2925 -145.086 L97.8241 -147.199 L101.038 -151.03"/>
<path d="M88.2925 -145.086 L88.2925 -145.086 L89.5866 -149.916 L92.8005 -153.746"/>
<path d="M88.2925 -145.086 L88.2925 -145.086"/>
<path d="M62.8016 -133.2 L62.8016 -133.2 L64.0957 -138.029 L65.3897 -142.859 L69.9213 -144.972 L73.1352 -148.802 L74.4293 -153.632"/>
<path d="M65.3897 -142.859 L65.3897 -142.859 L64.5215 -147.783 L65.8156 -152.613"/>
<path d="M65.3897 -142.859 L65.3897 -142.859 L68.6037 -146.689 L71.8176 -150.519 L76.8176 -150.519 L81.3492 -152.632 L84.5631 -156.463"/>
<path d="M71.8176 -150.519 L71.8176 -150.519 L73.1117 -155.349 L76.3257 -159.179"/>
<path d="M71.8176 -150.519 L71.8176 -150.519"/>
<path d="M62.8016 -133.2 L62.8016 -133.2"/>
<path d="M11.8197 -109.426 L11.8197 -109.426 L13.1137 -114.256 L14.4078 -119.086 L18.9394 -121.199 L22.1533 -125.029 L23.4474 -129.859"/>
<path d="M14.4078 -119.086 L14.4078 -119.086 L13.5396 -124.01 L14.8337 -128.839"/>
<path d="M14.4078 -119.086 L14.4078 -119.086 L15.7019 -123.915 L16.996 -128.745 L21.5276 -130.858 L24.7415 -134.688 L26.0356 -139.518"/>
<path d="M16.996 -128.745 L16.996 -128.745 L16.1278 -133.669 L17.4219 -138.499"/>
<path d="M16.996 -128.745 L16.996 -128.745 L21.5276 -130.858 L26.0591 -132.971 L30.5906 -130.858 L35.5906 -130.858 L40.1222 -132.971"/>
<path d="M26.0591 -132.971 L26.0591 -132.971 L29.273 -136.801 L33.8046 -138.914"/>
<path d="M26.0591 -132.971 L26.0591 -132.971 L29.273 -136.801 L32.487 -140.632 L37.487 -140.632 L42.0185 -142.745 L45.2325 -146.575"/>
<path d="M32.487 -140.632 L32.487 -140.632 L33.7811 -145.461 L36.995 -149.291"/>
<path d="M32.487 -140.632 L32.487 -140.632 L33.7811 -145.461 L35.0752 -150.291 L39.6067 -152.404 L42.8207 -156.234 L44.1147 -161.064"/>
<path d="M35.0752 -150.291 L35.0752 -150.291 L34.2069 -155.215 L35.501 -160.044"/>
<path d="M35.0752 -150.291 L35.0752 -150.291"/>
<path d="M16.996 -128.745 L16.996 -128.745 L16.1278 -133.669 L15.2595 -138.593 L18.4735 -142.423 L19.7676 -147.253 L18.8993 -152.177"/>
<path d="M15.2595 -138.593 L15.2595 -138.593 L12.3917 -142.689 L11.5234 -147.613"/>
<path d="M15.2595 -138.593 L15.2595 -138.593 L16.5536 -143.423 L17.8477 -148.252 L22.3793 -150.365 L25.5932 -154.196 L26.8873 -159.025"/>
<path d="M17.8477 -148.252 L17.8477 -148.252 L16.9795 -153.176 L18.2736 -158.006"/>
<path d="M17.8477 -148.252 L17.8477 -148.252"/>
<path d="M16.996 -128.745 L16.996 -128.745 L20.21 -132.575 L23.4239 -136.405 L28.4239 -136.405 L32.9554 -138.518 L36.1694 -142.349"/>
<path d="M23.4239 -136.405 L23.4239 -136.405 L24.718 -141.235 L27.9319 -145.065"/>
<path d="M23.4239 -136.405 L23.4239 -136.405 L26.6378 -140.236 L29.8518 -144.066 L34.8518 -144.066 L39.3833 -146.179 L42.5973 -150.009"/>
<path d="M29.8518 -144.066 L29.8518 -144.066 L31.1459 -148.895 L34.3598 -152.726"/>
<path d="M29.8518 -144.066 L29.8518 -144.066 L34.8518 -144.066 L39.8518 -144.066 L43.0657 -140.236 L47.5973 -138.122 L52.5973 -138.122"/>
<path d="M39.8518 -144.066 L39.8518 -144.066 L44.3833 -146.179 L49.3833 -146.179"/>
<path d="M39.8518 -144.066 L39.8518 -144.066 L44.3833 -146.179 L48.9149 -148.292 L53.4464 -146.179 L58.4464 -146.179 L62.9779 -148.292"/>
<path d="M48.9149 -148.292 L48.9149 -148.292 L52.1288 -152.122 L56.6603 -154.235"/>
<path d="M48.9149 -148.292 L48.9149 -148.292 L52.1288 -152.122 L55.3427 -155.952 L60.3427 -155.952 L64.8743 -158.066 L68.0882 -161.896"/>
<path d="M55.3427 -155.952 L55.3427 -155.952 L56.6368 -160.782 L59.8508 -164.612"/>
<path d="M55.3427 -155.952 L55.3427 -155.952"/>
<path d="M29.8518 -144.066 L29.8518 -144.066 L31.1459 -148.895 L32.44 -153.725 L36.9715 -155.838 L40.1855 -159.668 L41.4795 -164.498"/>
<path d="M32.44 -153.725 L32.44 -153.725 L31.5717 -158.649 L32.8658 -163.479"/>
<path d="M32.44 -153.725 L32.44 -153.725 L35.6539 -157.555 L38.8678 -161.386 L43.8678 -161.386 L48.3994 -163.499 L51.6133 -167.329"/>
<path d="M38.8678 -161.386 L38.8678 -161.386 L40.1619 -166.215 L43.3759 -170.045"/>
<path d="M38.8678 -161.386 L38.8678 -161.386"/>
<path d="M29.8518 -144.066 L29.8518 -144.066"/>
<path d="M11.8197 -109.426 L11.8197 -109.426 L13.1137 -114.256 L14.4078 -119.086 L18.9394 -121.199 L22.1533 -125.029 L23.4474 -129.859"/>
<path d="M14.4078 -119.086 L14.4078 -119.086 L13.5396 -124.01 L14.8337 -128.839"/>
<path d="M14.4078 -119.086 L14.4078 -119.086 L15.7019 -123.915 L16.996 -128.745 L21.5276 -130.858 L24.7415 -134.688 L26.0356 -139.518"/>
<path d="M16.996 -128.745 L16.996 -128.745 L16.1278 -133.669 L17.4219 -138.499"/>
<path d="M16.996 -128.745 L16.996 -128.745 L21.5276 -130.858 L26.0591 -132.971 L30.5906 -130.858 L35.5906 -130.858 L40.1222 -132.971"/>
<path d="M26.0591 -132.971 L26.0591 -132.971 L29.273 -136.801 L33.8046 -138.914"/>
<path d="M26.0591 -132.971 L26.0591 -132.971 L29.273 -136.801 L32.487 -140.632 L37.487 -140.632 L42.0185 -142.745 L45.2325 -146.575"/>
<path d="M32.487 -140.632 L32.487 -140.632 L33.7811 -145.461 L36.995 -149.291"/>
<path d="M32.487 -140.632 L32.487 -140.632 L33.7811 -145.461 L35.0752 -150.291 L39.6067 -152.404 L42.8207 -156.234 L44.1147 -161.064"/>
<path d="M35.0752 -150.291 L35.0752 -150.291 L34.2069 -155.215 L35.501 -160.044"/>
<path d="M35.0752 -150.291 L35.0752 -150.291"/>
<path d="M16.996 -128.745 L16.996 -128.745 L16.1278 -133.669 L15.2595 -138.593 L18.4735 -142.423 L19.7676 -147.253 L18.8993 -152.177"/>
<path d="M15.2595 -138.593 L15.2595 -138.593 L12.3917 -142.689 L11.5234 -147.613"/>
<path d="M15.2595 -138.593 L15.2595 -138.593 L16.5536 -143.423 L17.8477 -148.252 L22.3793 -150.365 L25.5932 -154.196 L26.8873 -159.025"/>
<path d="M17.8477 -148.252 L17.8477 -148.252 L16.9795 -153.176 L18.2736 -158.006"/>
<path d="M17.8477 -148.252 L17.8477 -148.252"/>
<path d="M16.996 -128.745 L16.996 -128.745 L18.2901 -133.575 L19.5842 -138.404 L24.1158 -140.517 L27.3297 -144.347 L28.6238 -149.177"/>
<path d="M19.5842 -138.404 L19.5842 -138.404 L18.716 -143.328 L20.0101 -148.158"/>
<path d="M19.5842 -138.404 L19.5842 -138.404 L20.8783 -143.234 L22.1724 -148.063 L26.704 -150.177 L29.9179 -154.007 L31.212 -158.836"/>
<path d="M22.1724 -148.063 L22.1724 -148.063 L21.3042 -152.987 L22.5983 -157.817"/>
<path d="M22.1724 -148.063 L22.1724 -148.063 L26.704 -150.177 L31.2355 -152.29 L35.767 -150.177 L40.767 -150.177 L45.2986 -152.29"/>
<path d="M31.2355 -152.29 L31.2355 -152.29 L34.4494 -156.12 L38.981 -158.233"/>
<path d="M31.2355 -152.29 L31.2355 -152.29 L34.4494 -156.12 L37.6634 -159.95 L42.6634 -159.95 L47.1949 -162.063 L50.4088 -165.893"/>
<path d="M37.6634 -159.95 L37.6634 -159.95 L38.9575 -164.78 L42.1714 -168.61"/>
<path d="M37.6634 -159.95 L37.6634 -159.95 L38.9575 -164.78 L40.2516 -169.609 L44.7831 -171.722 L47.997 -175.553 L49.2911 -180.382"/>
<path d="M40.2516 -169.609 L40.2516 -169.609 L39.3833 -174.533 L40.6774 -179.363"/>
<path d="M40.2516 -169.609 L40.2516 -169.609"/>
<path d="M22.1724 -148.063 L22.1724 -148.063 L21.3042 -152.987 L20.4359 -157.912 L23.6499 -161.742 L24.944 -166.571 L24.0757 -171.495"/>
<path d="M20.4359 -157.912 L20.4359 -157.912 L17.568 -162.007 L16.6998 -166.931"/>
<path d="M20.4359 -157.912 L20.4359 -157.912 L21.73 -162.741 L23.0241 -167.571 L27.5557 -169.684 L30.7696 -173.514 L32.0637 -178.344"/>
<path d="M23.0241 -167.571 L23.0241 -167.571 L22.1559 -172.495 L23.45 -177.324"/>
<path d="M23.0241 -167.571 L23.0241 -167.571"/>
<path d="M22.1724 -148.063 L22.1724 -148.063 L26.704 -150.177 L31.2355 -152.29 L35.767 -150.177 L40.767 -150.177 L45.2986 -152.29"/>
<path d="M31.2355 -152.29 L31.2355 -152.29 L34.4494 -156.12 L38.981 -158.233"/>
<path d="M31.2355 -152.29 L31.2355 -152.29 L35.767 -154.403 L40.2986 -156.516 L44.8301 -154.403 L49.8301 -154.403 L54.3616 -156.516"/>
<path d="M40.2986 -156.516 L40.2986 -156.516 L43.5125 -160.346 L48.044 -162.459"/>
<path d="M40.2986 -156.516 L40.2986 -156.516 L44.8301 -154.403 L49.3616 -152.29 L50.6557 -147.46 L53.8697 -143.63 L58.4012 -141.517"/>
<path d="M49.3616 -152.29 L49.3616 -152.29 L54.3616 -152.29 L58.8932 -150.177"/>
<path d="M49.3616 -152.29 L49.3616 -152.29 L54.3616 -152.29 L59.3616 -152.29 L62.5756 -148.459 L67.1071 -146.346 L72.1071 -146.346"/>
<path d="M59.3616 -152.29 L59.3616 -152.29 L63.8932 -154.403 L68.8932 -154.403"/>
<path d="M59.3616 -152.29 L59.3616 -152.29 L63.8932 -154.403 L68.4247 -156.516 L72.9563 -154.403 L77.9563 -154.403 L82.4878 -156.516"/>
<path d="M68.4247 -156.516 L68.4247 -156.516 L71.6387 -160.346 L76.1702 -162.459"/>
<path d="M68.4247 -156.516 L68.4247 -156.516"/>
<path d="M40.2986 -156.516 L40.2986 -156.516 L43.5125 -160.346 L46.7264 -164.176 L51.7264 -164.176 L56.258 -166.289 L59.4719 -170.12"/>
<path d="M46.7264 -164.176 L46.7264 -164.176 L48.0205 -169.006 L51.2345 -172.836"/>
<path d="M46.7264 -164.176 L46.7264 -164.176 L51.258 -166.289 L55.7895 -168.402 L60.3211 -166.289 L65.3211 -166.289 L69.8526 -168.402"/>
<path d="M55.7895 -168.402 L55.7895 -168.402 L59.0035 -172.233 L63.535 -174.346"/>
<path d="M55.7895 -168.402 L55.7895 -168.402"/>
<path d="M40.2986 -156.516 L40.2986 -156.516 L43.5125 -160.346 L46.7264 -164.176 L51.7264 -164.176 L56.258 -166.289 L59.4719 -170.12"/>
<path d="M46.7264 -164.176 L46.7264 -164.176 L48.0205 -169.006 L51.2345 -172.836"/>
<path d="M46.7264 -164.176 L46.7264 -164.176 L49.9404 -168.006 L53.1543 -171.837 L58.1543 -171.837 L62.6859 -173.95 L65.8998 -177.78"/>
<path d="M53.1543 -171.837 L53.1543 -171.837 L54.4484 -176.666 L57.6624 -180.497"/>
<path d="M53.1543 -171.837 L53.1543 -171.837 L58.1543 -171.837 L63.1543 -171.837 L66.3683 -168.006 L70.8998 -165.893 L75.8998 -165.893"/>
<path d="M63.1543 -171.837 L63.1543 -171.837 L67.6859 -173.95 L72.6859 -173.95"/>
<path d="M63.1543 -171.837 L63.1543 -171.837 L67.6859 -173.95 L72.2174 -176.063 L76.7489 -173.95 L81.7489 -173.95 L86.2805 -176.063"/>
<path d="M72.2174 -176.063 L72.2174 -176.063 L75.4313 -179.893 L79.9629 -182.006"/>
<path d="M72.2174 -176.063 L72.2174 -176.063 L75.4313 -179.893 L78.6453 -183.723 L83.6453 -183.723 L88.1768 -185.836 L91.3908 -189.667"/>
<path d="M78.6453 -183.723 L78.6453 -183.723 L79.9394 -188.553 L83.1533 -192.383"/>
<path d="M78.6453 -183.723 L78.6453 -183.723"/>
<path d="M53.1543 -171.837 L53.1543 -171.837 L54.4484 -176.666 L55.7425 -181.496 L60.274 -183.609 L63.488 -187.439 L64.7821 -192.269"/>
<path d="M55.7425 -181.496 L55.7425 -181.496 L54.8743 -186.42 L56.1684 -191.25"/>
<path d="M55.7425 -181.496 L55.7425 -181.496 L58.9564 -185.326 L62.1704 -189.156 L67.1704 -189.156 L71.7019 -191.269 L74.9159 -195.1"/>
<path d="M62.1704 -189.156 L62.1704 -189.156 L63.4645 -193.986 L66.6784 -197.816"/>
<path d="M62.1704 -189.156 L62.1704 -189.156"/>
<path d="M53.1543 -171.837 L53.1543 -171.837 L54.4484 -176.666 L55.7425 -181.496 L60.274 -183.609 L63.488 -187.439 L64.7821 -192.269"/>
<path d="M55.7425 -181.496 L55.7425 -181.496 L54.8743 -186.42 L56.1684 -191.25"/>
<path d="M55.7425 -181.496 L55.7425 -181.496 L57.0366 -186.326 L58.3307 -191.155 L62.8622 -193.268 L66.0762 -197.099 L67.3703 -201.928"/>
<path d="M58.3307 -191.155 L58.3307 -191.155 L57.4625 -196.079 L58.7566 -200.909"/>
<path d="M58.3307 -191.155 L58.3307 -191.155 L62.8622 -193.268 L67.3938 -195.381 L71.9253 -193.268 L76.9253 -193.268 L81.4569 -195.381"/>
<path d="M67.3938 -195.381 L67.3938 -195.381 L70.6077 -199.212 L75.1393 -201.325"/>
<path d="M67.3938 -195.381 L67.3938 -195.381 L70.6077 -199.212 L73.8217 -203.042 L78.8217 -203.042 L83.3532 -205.155 L86.5671 -208.985"/>
<path d="M73.8217 -203.042 L73.8217 -203.042 L75.1158 -207.871 L78.3297 -211.702"/>
<path d="M73.8217 -203.042 L73.8217 -203.042 L75.1158 -207.871 L76.4098 -212.701 L80.9414 -214.814 L84.1553 -218.644 L85.4494 -223.474"/>
<path d="M76.4098 -212.701 L76.4098 -212.701 L75.5416 -217.625 L76.8357 -222.455"/>
<path d="M76.4098 -212.701 L76.4098 -212.701"/>
<path d="M58.3307 -191.155 L58.3307 -191.155 L57.4625 -196.079 L56.5942 -201.003 L59.8082 -204.834 L61.1023 -209.663 L60.234 -214.587"/>
<path d="M56.5942 -201.003 L56.5942 -201.003 L53.7263 -205.099 L52.8581 -210.023"/>
<path d="M56.5942 -201.003 L56.5942 -201.003 L57.8883 -205.833 L59.1824 -210.663 L63.7139 -212.776 L66.9279 -216.606 L68.222 -221.435"/>
<path d="M59.1824 -210.663 L59.1824 -210.663 L58.3142 -215.587 L59.6083 -220.416"/>
<path d="M59.1824 -210.663 L59.1824 -210.663"/>
<path d="M58.3307 -191.155 L58.3307 -191.155"/>
<path d="M22.1724 -148.063 L22.1724 -148.063 L21.3042 -152.987 L20.4359 -157.912 L23.6499 -161.742 L24.944 -166.571 L24.0757 -171.495"/>
<path d="M20.4359 -157.912 L20.4359 -157.912 L17.568 -162.007 L16.6998 -166.931"/>
<path d="M20.4359 -157.912 L20.4359 -157.912 L19.5677 -162.836 L18.6994 -167.76 L21.9134 -171.59 L23.2075 -176.419 L22.3392 -181.343"/>
<path d="M18.6994 -167.76 L18.6994 -167.76 L15.8316 -171.855 L14.9633 -176.779"/>
<path d="M18.6994 -167.76 L18.6994 -167.76 L21.9134 -171.59 L25.1273 -175.42 L30.1273 -175.42 L34.6589 -177.533 L37.8728 -181.363"/>
<path d="M25.1273 -175.42 L25.1273 -175.42 L26.4214 -180.25 L29.6354 -184.08"/>
<path d="M25.1273 -175.42 L25.1273 -175.42 L26.4214 -180.25 L27.7155 -185.079 L32.2471 -187.192 L35.461 -191.023 L36.7551 -195.852"/>
<path d="M27.7155 -185.079 L27.7155 -185.079 L26.8473 -190.003 L28.1414 -194.833"/>
<path d="M27.7155 -185.079 L27.7155 -185.079 L26.8473 -190.003 L25.979 -194.927 L29.193 -198.758 L30.4871 -203.587 L29.6188 -208.511"/>
<path d="M25.979 -194.927 L25.979 -194.927 L23.1112 -199.023 L22.2429 -203.947"/>
<path d="M25.979 -194.927 L25.979 -194.927"/>
<path d="M18.6994 -167.76 L18.6994 -167.76 L15.8316 -171.855 L12.9637 -175.951 L14.2578 -180.781 L13.3895 -185.705 L10.5217 -189.801"/>
<path d="M12.9637 -175.951 L12.9637 -175.951 L8.63356 -178.451 L5.76567 -182.547"/>
<path d="M12.9637 -175.951 L12.9637 -175.951 L12.0954 -180.875 L11.2272 -185.799 L14.4411 -189.629 L15.7352 -194.459 L14.867 -199.383"/>
<path d="M11.2272 -185.799 L11.2272 -185.799 L8.35932 -189.895 L7.49108 -194.819"/>
<path d="M11.2272 -185.799 L11.2272 -185.799"/>
<path d="M18.6994 -167.76 L18.6994 -167.76 L19.9935 -172.589 L21.2876 -177.419 L25.8192 -179.532 L29.0331 -183.362 L30.3272 -188.192"/>
<path d="M21.2876 -177.419 L21.2876 -177.419 L20.4194 -182.343 L21.7135 -187.173"/>
<path d="M21.2876 -177.419 L21.2876 -177.419 L22.5817 -182.248 L23.8758 -187.078 L28.4074 -189.191 L31.6213 -193.021 L32.9154 -197.851"/>
<path d="M23.8758 -187.078 L23.8758 -187.078 L23.0076 -192.002 L24.3017 -196.832"/>
<path d="M23.8758 -187.078 L23.8758 -187.078 L28.4074 -189.191 L32.9389 -191.304 L37.4704 -189.191 L42.4704 -189.191 L47.002 -191.304"/>
<path d="M32.9389 -191.304 L32.9389 -191.304 L36.1528 -195.135 L40.6844 -197.248"/>
<path d="M32.9389 -191.304 L32.9389 -191.304 L36.1528 -195.135 L39.3668 -198.965 L44.3668 -198.965 L48.8983 -201.078 L52.1123 -204.908"/>
<path d="M39.3668 -198.965 L39.3668 -198.965 L40.6609 -203.794 L43.8748 -207.625"/>
<path d="M39.3668 -198.965 L39.3668 -198.965 L40.6609 -203.794 L41.955 -208.624 L46.4865 -210.737 L49.7005 -214.567 L50.9945 -219.397"/>
<path d="M41.955 -208.624 L41.955 -208.624 L41.0867 -213.548 L42.3808 -218.378"/>
<path d="M41.955 -208.624 L41.955 -208.624"/>
<path d="M23.8758 -187.078 L23.8758 -187.078 L23.0076 -192.002 L22.1393 -196.926 L25.3533 -200.756 L26.6474 -205.586 L25.7791 -210.51"/>
<path d="M22.1393 -196.926 L22.1393 -196.926 L19.2715 -201.022 L18.4032 -205.946"/>
<path d="M22.1393 -196.926 L22.1393 -196.926 L23.4334 -201.756 L24.7275 -206.585 L29.2591 -208.699 L32.473 -212.529 L33.7671 -217.358"/>
<path d="M24.7275 -206.585 L24.7275 -206.585 L23.8593 -211.509 L25.1534 -216.339"/>
<path d="M24.7275 -206.585 L24.7275 -206.585"/>
<path d="M23.8758 -187.078 L23.8758 -187.078"/>
<path d="M22.1724 -148.063 L22.1724 -148.063 L21.3042 -152.987 L20.4359 -157.912 L23.6499 -161.742 L24.944 -166.571 L24.0757 -171.495"/>
<path d="M20.4359 -157.912 L20.4359 -157.912 L17.568 -162.007 L16.6998 -166.931"/>
<path d="M20.4359 -157.912 L20.4359 -157.912 L19.5677 -162.836 L18.6994 -167.76 L21.9134 -171.59 L23.2075 -176.419 L22.3392 -181.343"/>
<path d="M18.6994 -167.76 L18.6994 -167.76 L15.8316 -171.855 L14.9633 -176.779"/>
<path d="M18.6994 -167.76 L18.6994 -167.76 L21.9134 -171.59 L25.1273 -175.42 L30.1273 -175.42 L34.6589 -177.533 L37.8728 -181.363"/>
<path d="M25.1273 -175.42 L25.1273 -175.42 L26.4214 -180.25 L29.6354 -184.08"/>
<path d="M25.1273 -175.42 L25.1273 -175.42 L26.4214 -180.25 L27.7155 -185.079 L32.2471 -187.192 L35.461 -191.023 L36.7551 -195.852"/>
<path d="M27.7155 -185.079 L27.7155 -185.079 L26.8473 -190.003 L28.1414 -194.833"/>
<path d="M27.7155 -185.079 L27.7155 -185.079 L26.8473 -190.003 L25.979 -194.927 L29.193 -198.758 L30.4871 -203.587 L29.6188 -208.511"/>
<path d="M25.979 -194.927 L25.979 -194.927 L23.1112 -199.023 L22.2429 -203.947"/>
<path d="M25.979 -194.927 L25.979 -194.927"/>
<path d="M18.6994 -167.76 L18.6994 -167.76 L15.8316 -171.855 L12.9637 -175.951 L14.2578 -180.781 L13.3895 -185.705 L10.5217 -189.801"/>
<path d="M12.9637 -175.951 L12.9637 -175.951 L8.63356 -178.451 L5.76567 -182.547"/>
<path d="M12.9637 -175.951 L12.9637 -175.951 L12.0954 -180.875 L11.2272 -185.799 L14.4411 -189.629 L15.7352 -194.459 L14.867 -199.383"/>
<path d="M11.2272 -185.799 L11.2272 -185.799 L8.35932 -189.895 L7.49108 -194.819"/>
<path d="M11.2272 -185.799 L11.2272 -185.799"/>
<path d="M18.6994 -167.76 L18.6994 -167.76 L17.8312 -172.684 L16.963 -177.608 L20.1769 -181.438 L21.471 -186.268 L20.6028 -191.192"/>
<path d="M16.963 -177.608 L16.963 -177.608 L14.0951 -181.703 L13.2268 -186.627"/>
<path d="M16.963 -177.608 L16.963 -177.608 L16.0947 -182.532 L15.2265 -187.456 L18.4404 -191.286 L19.7345 -196.116 L18.8663 -201.04"/>
<path d="M15.2265 -187.456 L15.2265 -187.456 L12.3586 -191.552 L11.4904 -196.476"/>
<path d="M15.2265 -187.456 L15.2265 -187.456 L18.4404 -191.286 L21.6544 -195.116 L26.6544 -195.116 L31.1859 -197.229 L34.3998 -201.059"/>
<path d="M21.6544 -195.116 L21.6544 -195.116 L22.9485 -199.946 L26.1624 -203.776"/>
<path d="M21.6544 -195.116 L21.6544 -195.116 L22.9485 -199.946 L24.2426 -204.775 L28.7741 -206.889 L31.988 -210.719 L33.2821 -215.548"/>
<path d="M24.2426 -204.775 L24.2426 -204.775 L23.3743 -209.699 L24.6684 -214.529"/>
<path d="M24.2426 -204.775 L24.2426 -204.775 L23.3743 -209.699 L22.5061 -214.624 L25.72 -218.454 L27.0141 -223.283 L26.1459 -228.207"/>
<path d="M22.5061 -214.624 L22.5061 -214.624 L19.6382 -218.719 L18.7699 -223.643"/>
<path d="M22.5061 -214.624 L22.5061 -214.624"/>
<path d="M15.2265 -187.456 L15.2265 -187.456 L12.3586 -191.552 L9.49072 -195.647 L10.7848 -200.477 L9.91657 -205.401 L7.04869 -209.497"/>
<path d="M9.49072 -195.647 L9.49072 -195.647 L5.16059 -198.147 L2.29271 -202.243"/>
<path d="M9.49072 -195.647 L9.49072 -195.647 L8.62248 -200.571 L7.75424 -205.495 L10.9682 -209.326 L12.2623 -214.155 L11.394 -219.079"/>
<path d="M7.75424 -205.495 L7.75424 -205.495 L4.88636 -209.591 L4.01812 -214.515"/>
<path d="M7.75424 -205.495 L7.75424 -205.495"/>
<path d="M15.2265 -187.456 L15.2265 -187.456 L18.4404 -191.286 L21.6544 -195.116 L26.6544 -195.116 L31.1859 -197.229 L34.3998 -201.059"/>
<path d="M21.6544 -195.116 L21.6544 -195.116 L22.9485 -199.946 L26.1624 -203.776"/>
<path d="M21.6544 -195.116 L21.6544 -195.116 L24.8683 -198.946 L28.0822 -202.777 L33.0822 -202.777 L37.6138 -204.89 L40.8277 -208.72"/>
<path d="M28.0822 -202.777 L28.0822 -202.777 L29.3763 -207.606 L32.5903 -211.436"/>
<path d="M28.0822 -202.777 L28.0822 -202.777 L33.0822 -202.777 L38.0822 -202.777 L41.2962 -198.946 L45.8277 -196.833 L50.8277 -196.833"/>
<path d="M38.0822 -202.777 L38.0822 -202.777 L42.6138 -204.89 L47.6138 -204.89"/>
<path d="M38.0822 -202.777 L38.0822 -202.777 L42.6138 -204.89 L47.1453 -207.003 L51.6769 -204.89 L56.6769 -204.89 L61.2084 -207.003"/>
<path d="M47.1453 -207.003 L47.1453 -207.003 L50.3593 -210.833 L54.8908 -212.946"/>
<path d="M47.1453 -207.003 L47.1453 -207.003 L50.3593 -210.833 L53.5732 -214.663 L58.5732 -214.663 L63.1047 -216.776 L66.3187 -220.607"/>
<path d="M53.5732 -214.663 L53.5732 -214.663 L54.8673 -219.493 L58.0812 -223.323"/>
<path d="M53.5732 -214.663 L53.5732 -214.663"/>
<path d="M28.0822 -202.777 L28.0822 -202.777 L29.3763 -207.606 L30.6704 -212.436 L35.202 -214.549 L38.4159 -218.379 L39.71 -223.209"/>
<path d="M30.6704 -212.436 L30.6704 -212.436 L29.8022 -217.36 L31.0963 -222.19"/>
<path d="M30.6704 -212.436 L30.6704 -212.436 L33.8844 -216.266 L37.0983 -220.096 L42.0983 -220.096 L46.6298 -222.209 L49.8438 -226.04"/>
<path d="M37.0983 -220.096 L37.0983 -220.096 L38.3924 -224.926 L41.6063 -228.756"/>
<path d="M37.0983 -220.096 L37.0983 -220.096"/>
<path d="M28.0822 -202.777 L28.0822 -202.777 L29.3763 -207.606 L30.6704 -212.436 L35.202 -214.549 L38.4159 -218.379 L39.71 -223.209"/>
<path d="M30.6704 -212.436 L30.6704 -212.436 L29.8022 -217.36 L31.0963 -222.19"/>
<path d="M30.6704 -212.436 L30.6704 -212.436 L31.9645 -217.266 L33.2586 -222.095 L37.7902 -224.208 L41.0041 -228.038 L42.2982 -232.868"/>
<path d="M33.2586 -222.095 L33.2586 -222.095 L32.3904 -227.019 L33.6845 -231.849"/>
<path d="M33.2586 -222.095 L33.2586 -222.095 L37.7902 -224.208 L42.3217 -226.321 L46.8532 -224.208 L51.8532 -224.208 L56.3848 -226.321"/>
<path d="M42.3217 -226.321 L42.3217 -226.321 L45.5356 -230.152 L50.0672 -232.265"/>
<path d="M42.3217 -226.321 L42.3217 -226.321 L45.5356 -230.152 L48.7496 -233.982 L53.7496 -233.982 L58.2811 -236.095 L61.495 -239.925"/>
<path d="M48.7496 -233.982 L48.7496 -233.982 L50.0437 -238.811 L53.2576 -242.642"/>
<path d="M48.7496 -233.982 L48.7496 -233.982 L50.0437 -238.811 L51.3378 -243.641 L55.8693 -245.754 L59.0832 -249.584 L60.3773 -254.414"/>
<path d="M51.3378 -243.641 L51.3378 -243.641 L50.4695 -248.565 L51.7636 -253.395"/>
<path d="M51.3378 -243.641 L51.3378 -243.641"/>
<path d="M33.2586 -222.095 L33.2586 -222.095 L32.3904 -227.019 L31.5221 -231.943 L34.7361 -235.773 L36.0302 -240.603 L35.1619 -245.527"/>
<path d="M31.5221 -231.943 L31.5221 -231.943 L28.6543 -236.039 L27.786 -240.963"/>
<path d="M31.5221 -231.943 L31.5221 -231.943 L32.8162 -236.773 L34.1103 -241.602 L38.6419 -243.716 L41.8558 -247.546 L43.1499 -252.375"/>
<path d="M34.1103 -241.602 L34.1103 -241.602 L33.2421 -246.527 L34.5362 -251.356"/>
<path d="M34.1103 -241.602 L34.1103 -241.602"/>
<path d="M33.2586 -222.095 L33.2586 -222.095 L32.3904 -227.019 L31.5221 -231.943 L34.7361 -235.773 L36.0302 -240.603 L35.1619 -245.527"/>
<path d="M31.5221 -231.943 L31.5221 -231.943 L28.6543 -236.039 L27.786 -240.963"/>
<path d="M31.5221 -231.943 L31.5221 -231.943 L30.6539 -236.867 L29.7857 -241.791 L32.9996 -245.622 L34.2937 -250.451 L33.4254 -255.375"/>
<path d="M29.7857 -241.791 L29.7857 -241.791 L26.9178 -245.887 L26.0495 -250.811"/>
<path d="M29.7857 -241.791 L29.7857 -241.791 L32.9996 -245.622 L36.2135 -249.452 L41.2135 -249.452 L45.7451 -251.565 L48.959 -255.395"/>
<path d="M36.2135 -249.452 L36.2135 -249.452 L37.5076 -254.281 L40.7216 -258.112"/>
<path d="M36.2135 -249.452 L36.2135 -249.452 L37.5076 -254.281 L38.8017 -259.111 L43.3333 -261.224 L46.5472 -265.054 L47.8413 -269.884"/>
<path d="M38.8017 -259.111 L38.8017 -259.111 L37.9335 -264.035 L39.2276 -268.865"/>
<path d="M38.8017 -259.111 L38.8017 -259.111 L37.9335 -264.035 L37.0652 -268.959 L40.2792 -272.789 L41.5733 -277.619 L40.705 -282.543"/>
<path d="M37.0652 -268.959 L37.0652 -268.959 L34.1974 -273.055 L33.3291 -277.979"/>
<path d="M37.0652 -268.959 L37.0652 -268.959"/>
<path d="M29.7857 -241.791 L29.7857 -241.791 L26.9178 -245.887 L24.0499 -249.983 L25.344 -254.812 L24.4757 -259.736 L21.6079 -263.832"/>
<path d="M24.0499 -249.983 L24.0499 -249.983 L19.7198 -252.483 L16.8519 -256.579"/>
<path d="M24.0499 -249.983 L24.0499 -249.983 L23.1816 -254.907 L22.3134 -259.831 L25.5273 -263.661 L26.8214 -268.491 L25.9532 -273.415"/>
<path d="M22.3134 -259.831 L22.3134 -259.831 L19.4455 -263.927 L18.5773 -268.851"/>
<path d="M22.3134 -259.831 L22.3134 -259.831"/>
<path d="M29.7857 -241.791 L29.7857 -241.791"/>
<path d="M15.2265 -187.456 L15.2265 -187.456 L12.3586 -191.552 L9.49072 -195.647 L10.7848 -200.477 L9.91657 -205.401 L7.04869 -209.497"/>
<path d="M9.49072 -195.647 L9.49072 -195.647 L5.16059 -198.147 L2.29271 -202.243"/>
<path d="M9.49072 -195.647 L9.49072 -195.647 L6.62284 -199.743 L3.75496 -203.839 L5.04905 -208.668 L4.18081 -213.592 L1.31293 -217.688"/>
<path d="M3.75496 -203.839 L3.75496 -203.839 L-0.575171 -206.339 L-3.44305 -210.435"/>
<path d="M3.75496 -203.839 L3.75496 -203.839 L5.04905 -208.668 L6.34315 -213.498 L10.8747 -215.611 L14.0886 -219.441 L15.3827 -224.271"/>
<path d="M6.34315 -213.498 L6.34315 -213.498 L5.47491 -218.422 L6.769 -223.252"/>
<path d="M6.34315 -213.498 L6.34315 -213.498 L5.47491 -218.422 L4.60666 -223.346 L7.8206 -227.176 L9.1147 -232.006 L8.24646 -236.93"/>
<path d="M4.60666 -223.346 L4.60666 -223.346 L1.73878 -227.442 L0.870542 -232.366"/>
<path d="M4.60666 -223.346 L4.60666 -223.346 L1.73878 -227.442 L-1.1291 -231.538 L0.164996 -236.367 L-0.703245 -241.291 L-3.57113 -245.387"/>
<path d="M-1.1291 -231.538 L-1.1291 -231.538 L-5.45923 -234.038 L-8.32711 -238.133"/>
<path d="M-1.1291 -231.538 L-1.1291 -231.538"/>
<path d="M3.75496 -203.839 L3.75496 -203.839 L-0.575171 -206.339 L-4.9053 -208.839 L-5.77354 -213.763 L-8.64142 -217.859 L-12.9715 -220.359"/>
<path d="M-4.9053 -208.839 L-4.9053 -208.839 L-9.88627 -209.275 L-14.2164 -211.775"/>
<path d="M-4.9053 -208.839 L-4.9053 -208.839 L-7.77318 -212.935 L-10.6411 -217.03 L-9.34697 -221.86 L-10.2152 -226.784 L-13.0831 -230.88"/>
<path d="M-10.6411 -217.03 L-10.6411 -217.03 L-14.9712 -219.53 L-17.8391 -223.626"/>
<path d="M-10.6411 -217.03 L-10.6411 -217.03"/>
<path d="M3.75496 -203.839 L3.75496 -203.839 L2.88672 -208.763 L2.01847 -213.687 L5.23241 -217.517 L6.52651 -222.347 L5.65827 -227.271"/>
<path d="M2.01847 -213.687 L2.01847 -213.687 L-0.849408 -217.783 L-1.71765 -222.707"/>
<path d="M2.01847 -213.687 L2.01847 -213.687 L1.15023 -218.611 L0.281993 -223.535 L3.49593 -227.365 L4.79003 -232.195 L3.92178 -237.119"/>
<path d="M0.281993 -223.535 L0.281993 -223.535 L-2.58589 -227.631 L-3.45413 -232.555"/>
<path d="M0.281993 -223.535 L0.281993 -223.535 L3.49593 -227.365 L6.70987 -231.195 L11.7099 -231.195 L16.2414 -233.308 L19.4553 -237.139"/>
<path d="M6.70987 -231.195 L6.70987 -231.195 L8.00396 -236.025 L11.2179 -239.855"/>
<path d="M6.70987 -231.195 L6.70987 -231.195 L8.00396 -236.025 L9.29806 -240.855 L13.8296 -242.968 L17.0435 -246.798 L18.3376 -251.628"/>
<path d="M9.29806 -240.855 L9.29806 -240.855 L8.42982 -245.779 L9.72391 -250.608"/>
<path d="M9.29806 -240.855 L9.29806 -240.855 L8.42982 -245.779 L7.56158 -250.703 L10.7755 -254.533 L12.0696 -259.363 L11.2014 -264.287"/>
<path d="M7.56158 -250.703 L7.56158 -250.703 L4.6937 -254.798 L3.82545 -259.723"/>
<path d="M7.56158 -250.703 L7.56158 -250.703"/>
<path d="M0.281993 -223.535 L0.281993 -223.535 L-2.58589 -227.631 L-5.45377 -231.726 L-4.15968 -236.556 L-5.02792 -241.48 L-7.8958 -245.576"/>
<path d="M-5.45377 -231.726 L-5.45377 -231.726 L-9.7839 -234.226 L-12.6518 -238.322"/>
<path d="M-5.45377 -231.726 L-5.45377 -231.726 L-6.32201 -236.65 L-7.19025 -241.575 L-3.97632 -245.405 L-2.68222 -250.234 L-3.55046 -255.158"/>
<path d="M-7.19025 -241.575 L-7.19025 -241.575 L-10.0581 -245.67 L-10.9264 -250.594"/>
<path d="M-7.19025 -241.575 L-7.19025 -241.575"/>
<path d="M0.281993 -223.535 L0.281993 -223.535"/>
<path d="M15.2265 -187.456 L15.2265 -187.456"/>
<path d="M-13.8919 -78.7846 L-13.8919 -78.7846 L-16.7597 -82.8804 L-19.6276 -86.9761 L-18.3335 -91.8058 L-19.2018 -96.7298 L-22.0696 -100.826"/>
<path d="M-19.6276 -86.9761 L-19.6276 -86.9761 L-23.9577 -89.4761 L-26.8256 -93.5719"/>
<path d="M-19.6276 -86.9761 L-19.6276 -86.9761 L-22.4955 -91.0719 L-25.3634 -95.1677 L-24.0693 -99.9973 L-24.9375 -104.921 L-27.8054 -109.017"/>
<path d="M-25.3634 -95.1677 L-25.3634 -95.1677 L-29.6935 -97.6677 L-32.5614 -101.763"/>
<path d="M-25.3634 -95.1677 L-25.3634 -95.1677 L-24.0693 -99.9973 L-22.7752 -104.827 L-18.2437 -106.94 L-15.0297 -110.77 L-13.7356 -115.6"/>
<path d="M-22.7752 -104.827 L-22.7752 -104.827 L-23.6434 -109.751 L-22.3493 -114.581"/>
<path d="M-22.7752 -104.827 L-22.7752 -104.827 L-23.6434 -109.751 L-24.5117 -114.675 L-21.2977 -118.505 L-20.0036 -123.335 L-20.8719 -128.259"/>
<path d="M-24.5117 -114.675 L-24.5117 -114.675 L-27.3796 -118.771 L-28.2478 -123.695"/>
<path d="M-24.5117 -114.675 L-24.5117 -114.675 L-27.3796 -118.771 L-30.2474 -122.867 L-28.9533 -127.696 L-29.8216 -132.62 L-32.6895 -136.716"/>
<path d="M-30.2474 -122.867 L-30.2474 -122.867 L-34.5776 -125.367 L-37.4454 -129.462"/>
<path d="M-30.2474 -122.867 L-30.2474 -122.867"/>
<path d="M-25.3634 -95.1677 L-25.3634 -95.1677 L-29.6935 -97.6677 L-34.0236 -100.168 L-34.8919 -105.092 L-37.7598 -109.187 L-42.0899 -111.687"/>
<path d="M-34.0236 -100.168 L-34.0236 -100.168 L-39.0046 -100.603 L-43.3347 -103.103"/>
<path d="M-34.0236 -100.168 L-34.0236 -100.168 L-36.8915 -104.263 L-39.7594 -108.359 L-38.4653 -113.189 L-39.3335 -118.113 L-42.2014 -122.209"/>
<path d="M-39.7594 -108.359 L-39.7594 -108.359 L-44.0895 -110.859 L-46.9574 -114.955"/>
<path d="M-39.7594 -108.359 L-39.7594 -108.359"/>
<path d="M-25.3634 -95.1677 L-25.3634 -95.1677 L-28.2313 -99.2634 L-31.0991 -103.359 L-29.8051 -108.189 L-30.6733 -113.113 L-33.5412 -117.209"/>
<path d="M-31.0991 -103.359 L-31.0991 -103.359 L-35.4293 -105.859 L-38.2972 -109.955"/>
<path d="M-31.0991 -103.359 L-31.0991 -103.359 L-33.967 -107.455 L-36.8349 -111.551 L-35.5408 -116.38 L-36.4091 -121.304 L-39.2769 -125.4"/>
<path d="M-36.8349 -111.551 L-36.8349 -111.551 L-41.165 -114.051 L-44.0329 -118.146"/>
<path d="M-36.8349 -111.551 L-36.8349 -111.551 L-35.5408 -116.38 L-34.2467 -121.21 L-29.7152 -123.323 L-26.5012 -127.153 L-25.2071 -131.983"/>
<path d="M-34.2467 -121.21 L-34.2467 -121.21 L-35.115 -126.134 L-33.8209 -130.964"/>
<path d="M-34.2467 -121.21 L-34.2467 -121.21 L-35.115 -126.134 L-35.9832 -131.058 L-32.7693 -134.888 L-31.4752 -139.718 L-32.3434 -144.642"/>
<path d="M-35.9832 -131.058 L-35.9832 -131.058 L-38.8511 -135.154 L-39.7193 -140.078"/>
<path d="M-35.9832 -131.058 L-35.9832 -131.058 L-38.8511 -135.154 L-41.719 -139.25 L-40.4249 -144.079 L-41.2931 -149.003 L-44.161 -153.099"/>
<path d="M-41.719 -139.25 L-41.719 -139.25 L-46.0491 -141.75 L-48.917 -145.845"/>
<path d="M-41.719 -139.25 L-41.719 -139.25"/>
<path d="M-36.8349 -111.551 L-36.8349 -111.551 L-41.165 -114.051 L-45.4952 -116.551 L-46.3634 -121.475 L-49.2313 -125.571 L-53.5614 -128.071"/>
<path d="M-45.4952 -116.551 L-45.4952 -116.551 L-50.4761 -116.986 L-54.8063 -119.486"/>
<path d="M-45.4952 -116.551 L-45.4952 -116.551 L-48.363 -120.646 L-51.2309 -124.742 L-49.9368 -129.572 L-50.8051 -134.496 L-53.673 -138.592"/>
<path d="M-51.2309 -124.742 L-51.2309 -124.742 L-55.5611 -127.242 L-58.4289 -131.338"/>
<path d="M-51.2309 -124.742 L-51.2309 -124.742"/>
<path d="M-36.8349 -111.551 L-36.8349 -111.551 L-35.5408 -116.38 L-34.2467 -121.21 L-29.7152 -123.323 L-26.5012 -127.153 L-25.2071 -131.983"/>
<path d="M-34.2467 -121.21 L-34.2467 -121.21 L-35.115 -126.134 L-33.8209 -130.964"/>
<path d="M-34.2467 -121.21 L-34.2467 -121.21 L-32.9526 -126.04 L-31.6585 -130.869 L-27.127 -132.982 L-23.9131 -136.813 L-22.619 -141.642"/>
<path d="M-31.6585 -130.869 L-31.6585 -130.869 L-32.5268 -135.793 L-31.2327 -140.623"/>
<path d="M-31.6585 -130.869 L-31.6585 -130.869 L-27.127 -132.982 L-22.5955 -135.095 L-18.0639 -132.982 L-13.0639 -132.982 L-8.53238 -135.095"/>
<path d="M-22.5955 -135.095 L-22.5955 -135.095 L-19.3815 -138.926 L-14.85 -141.039"/>
<path d="M-22.5955 -135.095 L-22.5955 -135.095 L-19.3815 -138.926 L-16.1676 -142.756 L-11.1676 -142.756 L-6.63604 -144.869 L-3.4221 -148.699"/>
<path d="M-16.1676 -142.756 L-16.1676 -142.756 L-14.8735 -147.585 L-11.6595 -151.416"/>
<path d="M-16.1676 -142.756 L-16.1676 -142.756 L-14.8735 -147.585 L-13.5794 -152.415 L-9.04785 -154.528 L-5.83391 -158.358 L-4.53981 -163.188"/>
<path d="M-13.5794 -152.415 L-13.5794 -152.415 L-14.4476 -157.339 L-13.1535 -162.169"/>
<path d="M-13.5794 -152.415 L-13.5794 -152.415"/>
<path d="M-31.6585 -130.869 L-31.6585 -130.869 L-32.5268 -135.793 L-33.395 -140.717 L-30.1811 -144.548 L-28.887 -149.377 L-29.7552 -154.301"/>
<path d="M-33.395 -140.717 L-33.395 -140.717 L-36.2629 -144.813 L-37.1311 -149.737"/>
<path d="M-33.395 -140.717 L-33.395 -140.717 L-32.1009 -145.547 L-30.8068 -150.377 L-26.2753 -152.49 L-23.0613 -156.32 L-21.7672 -161.149"/>
<path d="M-30.8068 -150.377 L-30.8068 -150.377 L-31.6751 -155.301 L-30.381 -160.13"/>
<path d="M-30.8068 -150.377 L-30.8068 -150.377"/>
<path d="M-31.6585 -130.869 L-31.6585 -130.869 L-32.5268 -135.793 L-33.395 -140.717 L-30.1811 -144.548 L-28.887 -149.377 L-29.7552 -154.301"/>
<path d="M-33.395 -140.717 L-33.395 -140.717 L-36.2629 -144.813 L-37.1311 -149.737"/>
<path d="M-33.395 -140.717 L-33.395 -140.717 L-34.2633 -145.641 L-35.1315 -150.565 L-31.9176 -154.396 L-30.6235 -159.225 L-31.4917 -164.149"/>
<path d="M-35.1315 -150.565 L-35.1315 -150.565 L-37.9994 -154.661 L-38.8676 -159.585"/>
<path d="M-35.1315 -150.565 L-35.1315 -150.565 L-31.9176 -154.396 L-28.7036 -158.226 L-23.7036 -158.226 L-19.1721 -160.339 L-15.9581 -164.169"/>
<path d="M-28.7036 -158.226 L-28.7036 -158.226 L-27.4095 -163.055 L-24.1956 -166.886"/>
<path d="M-28.7036 -158.226 L-28.7036 -158.226 L-27.4095 -163.055 L-26.1154 -167.885 L-21.5839 -169.998 L-18.37 -173.828 L-17.0759 -178.658"/>
<path d="M-26.1154 -167.885 L-26.1154 -167.885 L-26.9837 -172.809 L-25.6896 -177.639"/>
<path d="M-26.1154 -167.885 L-26.1154 -167.885 L-26.9837 -172.809 L-27.8519 -177.733 L-24.638 -181.563 L-23.3439 -186.393 L-24.2121 -191.317"/>
<path d="M-27.8519 -177.733 L-27.8519 -177.733 L-30.7198 -181.829 L-31.588 -186.753"/>
<path d="M-27.8519 -177.733 L-27.8519 -177.733"/>
<path d="M-35.1315 -150.565 L-35.1315 -150.565 L-37.9994 -154.661 L-40.8673 -158.757 L-39.5732 -163.587 L-40.4414 -168.511 L-43.3093 -172.606"/>
<path d="M-40.8673 -158.757 L-40.8673 -158.757 L-45.1974 -161.257 L-48.0653 -165.353"/>
<path d="M-40.8673 -158.757 L-40.8673 -158.757 L-41.7355 -163.681 L-42.6037 -168.605 L-39.3898 -172.435 L-38.0957 -177.265 L-38.9639 -182.189"/>
<path d="M-42.6037 -168.605 L-42.6037 -168.605 L-45.4716 -172.701 L-46.3399 -177.625"/>
<path d="M-42.6037 -168.605 L-42.6037 -168.605"/>
<path d="M-35.1315 -150.565 L-35.1315 -150.565 L-37.9994 -154.661 L-40.8673 -158.757 L-39.5732 -163.587 L-40.4414 -168.511 L-43.3093 -172.606"/>
<path d="M-40.8673 -158.757 L-40.8673 -158.757 L-45.1974 -161.257 L-48.0653 -165.353"/>
<path d="M-40.8673 -158.757 L-40.8673 -158.757 L-43.7351 -162.853 L-46.603 -166.948 L-45.3089 -171.778 L-46.1772 -176.702 L-49.0451 -180.798"/>
<path d="M-46.603 -166.948 L-46.603 -166.948 L-50.9332 -169.448 L-53.801 -173.544"/>
<path d="M-46.603 -166.948 L-46.603 -166.948 L-45.3089 -171.778 L-44.0148 -176.608 L-39.4833 -178.721 L-36.2694 -182.551 L-34.9753 -187.381"/>
<path d="M-44.0148 -176.608 L-44.0148 -176.608 L-44.8831 -181.532 L-43.589 -186.361"/>
<path d="M-44.0148 -176.608 L-44.0148 -176.608 L-44.8831 -181.532 L-45.7513 -186.456 L-42.5374 -190.286 L-41.2433 -195.116 L-42.1115 -200.04"/>
<path d="M-45.7513 -186.456 L-45.7513 -186.456 L-48.6192 -190.552 L-49.4874 -195.476"/>
<path d="M-45.7513 -186.456 L-45.7513 -186.456 L-48.6192 -190.552 L-51.4871 -194.647 L-50.193 -199.477 L-51.0612 -204.401 L-53.9291 -208.497"/>
<path d="M-51.4871 -194.647 L-51.4871 -194.647 L-55.8172 -197.147 L-58.6851 -201.243"/>
<path d="M-51.4871 -194.647 L-51.4871 -194.647"/>
<path d="M-46.603 -166.948 L-46.603 -166.948 L-50.9332 -169.448 L-55.2633 -171.948 L-56.1315 -176.872 L-58.9994 -180.968 L-63.3295 -183.468"/>
<path d="M-55.2633 -171.948 L-55.2633 -171.948 L-60.2443 -172.384 L-64.5744 -174.884"/>
<path d="M-55.2633 -171.948 L-55.2633 -171.948 L-58.1312 -176.044 L-60.999 -180.14 L-59.7049 -184.97 L-60.5732 -189.894 L-63.4411 -193.989"/>
<path d="M-60.999 -180.14 L-60.999 -180.14 L-65.3292 -182.64 L-68.1971 -186.736"/>
<path d="M-60.999 -180.14 L-60.999 -180.14"/>
<path d="M-46.603 -166.948 L-46.603 -166.948"/>
<path d="M-36.8349 -111.551 L-36.8349 -111.551 L-41.165 -114.051 L-45.4952 -116.551 L-46.3634 -121.475 L-49.2313 -125.571 L-53.5614 -128.071"/>
<path d="M-45.4952 -116.551 L-45.4952 -116.551 L-50.4761 -116.986 L-54.8063 -119.486"/>
<path d="M-45.4952 -116.551 L-45.4952 -116.551 L-49.8253 -119.051 L-54.1554 -121.551 L-55.0237 -126.475 L-57.8915 -130.571 L-62.2217 -133.071"/>
<path d="M-54.1554 -121.551 L-54.1554 -121.551 L-59.1364 -121.986 L-63.4665 -124.486"/>
<path d="M-54.1554 -121.551 L-54.1554 -121.551 L-55.0237 -126.475 L-55.8919 -131.399 L-52.678 -135.229 L-51.3839 -140.059 L-52.2521 -144.983"/>
<path d="M-55.8919 -131.399 L-55.8919 -131.399 L-58.7598 -135.495 L-59.628 -140.419"/>
<path d="M-55.8919 -131.399 L-55.8919 -131.399 L-58.7598 -135.495 L-61.6277 -139.59 L-60.3336 -144.42 L-61.2018 -149.344 L-64.0697 -153.44"/>
<path d="M-61.6277 -139.59 L-61.6277 -139.59 L-65.9578 -142.09 L-68.8257 -146.186"/>
<path d="M-61.6277 -139.59 L-61.6277 -139.59 L-65.9578 -142.09 L-70.2879 -144.59 L-71.1562 -149.514 L-74.024 -153.61 L-78.3542 -156.11"/>
<path d="M-70.2879 -144.59 L-70.2879 -144.59 L-75.2689 -145.026 L-79.599 -147.526"/>
<path d="M-70.2879 -144.59 L-70.2879 -144.59"/>
<path d="M-54.1554 -121.551 L-54.1554 -121.551 L-59.1364 -121.986 L-64.1174 -122.422 L-66.9852 -126.518 L-71.3154 -129.018 L-76.2963 -129.454"/>
<path d="M-64.1174 -122.422 L-64.1174 -122.422 L-68.8158 -120.712 L-73.7968 -121.148"/>
<path d="M-64.1174 -122.422 L-64.1174 -122.422 L-68.4475 -124.922 L-72.7776 -127.422 L-73.6459 -132.346 L-76.5137 -136.442 L-80.8439 -138.942"/>
<path d="M-72.7776 -127.422 L-72.7776 -127.422 L-77.7586 -127.858 L-82.0887 -130.358"/>
<path d="M-72.7776 -127.422 L-72.7776 -127.422"/>
<path d="M-54.1554 -121.551 L-54.1554 -121.551 L-57.0233 -125.646 L-59.8912 -129.742 L-58.5971 -134.572 L-59.4653 -139.496 L-62.3332 -143.592"/>
<path d="M-59.8912 -129.742 L-59.8912 -129.742 L-64.2213 -132.242 L-67.0892 -136.338"/>
<path d="M-59.8912 -129.742 L-59.8912 -129.742 L-62.7591 -133.838 L-65.6269 -137.934 L-64.3329 -142.763 L-65.2011 -147.687 L-68.069 -151.783"/>
<path d="M-65.6269 -137.934 L-65.6269 -137.934 L-69.9571 -140.434 L-72.825 -144.53"/>
<path d="M-65.6269 -137.934 L-65.6269 -137.934 L-64.3329 -142.763 L-63.0388 -147.593 L-58.5072 -149.706 L-55.2933 -153.536 L-53.9992 -158.366"/>
<path d="M-63.0388 -147.593 L-63.0388 -147.593 L-63.907 -152.517 L-62.6129 -157.347"/>
<path d="M-63.0388 -147.593 L-63.0388 -147.593 L-63.907 -152.517 L-64.7752 -157.441 L-61.5613 -161.271 L-60.2672 -166.101 L-61.1354 -171.025"/>
<path d="M-64.7752 -157.441 L-64.7752 -157.441 L-67.6431 -161.537 L-68.5114 -166.461"/>
<path d="M-64.7752 -157.441 L-64.7752 -157.441 L-67.6431 -161.537 L-70.511 -165.633 L-69.2169 -170.462 L-70.0851 -175.386 L-72.953 -179.482"/>
<path d="M-70.511 -165.633 L-70.511 -165.633 L-74.8411 -168.133 L-77.709 -172.228"/>
<path d="M-70.511 -165.633 L-70.511 -165.633"/>
<path d="M-65.6269 -137.934 L-65.6269 -137.934 L-69.9571 -140.434 L-74.2872 -142.934 L-75.1554 -147.858 L-78.0233 -151.954 L-82.3535 -154.454"/>
<path d="M-74.2872 -142.934 L-74.2872 -142.934 L-79.2682 -143.37 L-83.5983 -145.87"/>
<path d="M-74.2872 -142.934 L-74.2872 -142.934 L-77.1551 -147.03 L-80.023 -151.125 L-78.7289 -155.955 L-79.5971 -160.879 L-82.465 -164.975"/>
<path d="M-80.023 -151.125 L-80.023 -151.125 L-84.3531 -153.625 L-87.221 -157.721"/>
<path d="M-80.023 -151.125 L-80.023 -151.125"/>
<path d="M-65.6269 -137.934 L-65.6269 -137.934"/>
<path d="M-36.8349 -111.551 L-36.8349 -111.551 L-37.7032 -116.475 L-38.5714 -121.399 L-35.3575 -125.229 L-34.0634 -130.059 L-34.9316 -134.983"/>
<path d="M-38.5714 -121.399 L-38.5714 -121.399 L-41.4393 -125.495 L-42.3075 -130.419"/>
<path d="M-38.5714 -121.399 L-38.5714 -121.399 L-39.4396 -126.323 L-40.3079 -131.247 L-37.0939 -135.077 L-35.7998 -139.907 L-36.6681 -144.831"/>
<path d="M-40.3079 -131.247 L-40.3079 -131.247 L-43.1758 -135.343 L-44.044 -140.267"/>
<path d="M-40.3079 -131.247 L-40.3079 -131.247 L-37.0939 -135.077 L-33.88 -138.907 L-28.88 -138.907 L-24.3485 -141.02 L-21.1345 -144.851"/>
<path d="M-33.88 -138.907 L-33.88 -138.907 L-32.5859 -143.737 L-29.372 -147.567"/>
<path d="M-33.88 -138.907 L-33.88 -138.907 L-32.5859 -143.737 L-31.2918 -148.567 L-26.7603 -150.68 L-23.5463 -154.51 L-22.2522 -159.34"/>
<path d="M-31.2918 -148.567 L-31.2918 -148.567 L-32.16 -153.491 L-30.866 -158.32"/>
<path d="M-31.2918 -148.567 L-31.2918 -148.567 L-32.16 -153.491 L-33.0283 -158.415 L-29.8144 -162.245 L-28.5203 -167.074 L-29.3885 -171.999"/>
<path d="M-33.0283 -158.415 L-33.0283 -158.415 L-35.8962 -162.51 L-36.7644 -167.434"/>
<path d="M-33.0283 -158.415 L-33.0283 -158.415"/>
<path d="M-40.3079 -131.247 L-40.3079 -131.247 L-43.1758 -135.343 L-46.0436 -139.438 L-44.7495 -144.268 L-45.6178 -149.192 L-48.4857 -153.288"/>
<path d="M-46.0436 -139.438 L-46.0436 -139.438 L-50.3738 -141.938 L-53.2416 -146.034"/>
<path d="M-46.0436 -139.438 L-46.0436 -139.438 L-46.9119 -144.362 L-47.7801 -149.286 L-44.5662 -153.117 L-43.2721 -157.946 L-44.1403 -162.87"/>
<path d="M-47.7801 -149.286 L-47.7801 -149.286 L-50.648 -153.382 L-51.5162 -158.306"/>
<path d="M-47.7801 -149.286 L-47.7801 -149.286"/>
<path d="M-40.3079 -131.247 L-40.3079 -131.247 L-41.1761 -136.171 L-42.0444 -141.095 L-38.8304 -144.925 L-37.5363 -149.755 L-38.4046 -154.679"/>
<path d="M-42.0444 -141.095 L-42.0444 -141.095 L-44.9122 -145.191 L-45.7805 -150.115"/>
<path d="M-42.0444 -141.095 L-42.0444 -141.095 L-42.9126 -146.019 L-43.7808 -150.943 L-40.5669 -154.773 L-39.2728 -159.603 L-40.141 -164.527"/>
<path d="M-43.7808 -150.943 L-43.7808 -150.943 L-46.6487 -155.039 L-47.517 -159.963"/>
<path d="M-43.7808 -150.943 L-43.7808 -150.943 L-40.5669 -154.773 L-37.353 -158.603 L-32.353 -158.603 L-27.8214 -160.717 L-24.6075 -164.547"/>
<path d="M-37.353 -158.603 L-37.353 -158.603 L-36.0589 -163.433 L-32.8449 -167.263"/>
<path d="M-37.353 -158.603 L-37.353 -158.603 L-36.0589 -163.433 L-34.7648 -168.263 L-30.2332 -170.376 L-27.0193 -174.206 L-25.7252 -179.036"/>
<path d="M-34.7648 -168.263 L-34.7648 -168.263 L-35.633 -173.187 L-34.3389 -178.016"/>
<path d="M-34.7648 -168.263 L-34.7648 -168.263 L-35.633 -173.187 L-36.5013 -178.111 L-33.2873 -181.941 L-31.9932 -186.771 L-32.8615 -191.695"/>
<path d="M-36.5013 -178.111 L-36.5013 -178.111 L-39.3691 -182.207 L-40.2374 -187.131"/>
<path d="M-36.5013 -178.111 L-36.5013 -178.111"/>
<path d="M-43.7808 -150.943 L-43.7808 -150.943 L-46.6487 -155.039 L-49.5166 -159.135 L-48.2225 -163.964 L-49.0907 -168.888 L-51.9586 -172.984"/>
<path d="M-49.5166 -159.135 L-49.5166 -159.135 L-53.8467 -161.635 L-56.7146 -165.73"/>
<path d="M-49.5166 -159.135 L-49.5166 -159.135 L-50.3848 -164.059 L-51.2531 -168.983 L-48.0391 -172.813 L-46.7451 -177.642 L-47.6133 -182.567"/>
<path d="M-51.2531 -168.983 L-51.2531 -168.983 L-54.121 -173.078 L-54.9892 -178.002"/>
<path d="M-51.2531 -168.983 L-51.2531 -168.983"/>
<path d="M-43.7808 -150.943 L-43.7808 -150.943 L-40.5669 -154.773 L-37.353 -158.603 L-32.353 -158.603 L-27.8214 -160.717 L-24.6075 -164.547"/>
<path d="M-37.353 -158.603 L-37.353 -158.603 L-36.0589 -163.433 L-32.8449 -167.263"/>
<path d="M-37.353 -158.603 L-37.353 -158.603 L-34.139 -162.434 L-30.9251 -166.264 L-25.9251 -166.264 L-21.3935 -168.377 L-18.1796 -172.207"/>
<path d="M-30.9251 -166.264 L-30.9251 -166.264 L-29.631 -171.094 L-26.4171 -174.924"/>
<path d="M-30.9251 -166.264 L-30.9251 -166.264 L-25.9251 -166.264 L-20.9251 -166.264 L-17.7111 -162.434 L-13.1796 -160.321 L-8.17961 -160.321"/>
<path d="M-20.9251 -166.264 L-20.9251 -166.264 L-16.3935 -168.377 L-11.3935 -168.377"/>
<path d="M-20.9251 -166.264 L-20.9251 -166.264 L-16.3935 -168.377 L-11.862 -170.49 L-7.33047 -168.377 L-2.33047 -168.377 L2.20107 -170.49"/>
<path d="M-11.862 -170.49 L-11.862 -170.49 L-8.64807 -174.32 L-4.11653 -176.433"/>
<path d="M-11.862 -170.49 L-11.862 -170.49 L-8.64807 -174.32 L-5.43413 -178.151 L-0.434133 -178.151 L4.09741 -180.264 L7.31134 -184.094"/>
<path d="M-5.43413 -178.151 L-5.43413 -178.151 L-4.14004 -182.98 L-0.926099 -186.81"/>
<path d="M-5.43413 -178.151 L-5.43413 -178.151"/>
<path d="M-30.9251 -166.264 L-30.9251 -166.264 L-29.631 -171.094 L-28.3369 -175.923 L-23.8054 -178.036 L-20.5914 -181.866 L-19.2973 -186.696"/>
<path d="M-28.3369 -175.923 L-28.3369 -175.923 L-29.2051 -180.847 L-27.911 -185.677"/>
<path d="M-28.3369 -175.923 L-28.3369 -175.923 L-25.123 -179.753 L-21.909 -183.584 L-16.909 -183.584 L-12.3775 -185.697 L-9.16354 -189.527"/>
<path d="M-21.909 -183.584 L-21.909 -183.584 L-20.6149 -188.413 L-17.401 -192.243"/>
<path d="M-21.909 -183.584 L-21.909 -183.584"/>
<path d="M-30.9251 -166.264 L-30.9251 -166.264 L-29.631 -171.094 L-28.3369 -175.923 L-23.8054 -178.036 L-20.5914 -181.866 L-19.2973 -186.696"/>
<path d="M-28.3369 -175.923 L-28.3369 -175.923 L-29.2051 -180.847 L-27.911 -185.677"/>
<path d="M-28.3369 -175.923 L-28.3369 -175.923 L-27.0428 -180.753 L-25.7487 -185.582 L-21.2172 -187.696 L-18.0032 -191.526 L-16.7091 -196.355"/>
<path d="M-25.7487 -185.582 L-25.7487 -185.582 L-26.6169 -190.506 L-25.3229 -195.336"/>
<path d="M-25.7487 -185.582 L-25.7487 -185.582 L-21.2172 -187.696 L-16.6856 -189.809 L-12.1541 -187.696 L-7.15409 -187.696 L-2.62255 -189.809"/>
<path d="M-16.6856 -189.809 L-16.6856 -189.809 L-13.4717 -193.639 L-8.94015 -195.752"/>
<path d="M-16.6856 -189.809 L-16.6856 -189.809 L-13.4717 -193.639 L-10.2578 -197.469 L-5.25775 -197.469 L-0.726213 -199.582 L2.48773 -203.412"/>
<path d="M-10.2578 -197.469 L-10.2578 -197.469 L-8.96366 -202.299 L-5.74972 -206.129"/>
<path d="M-10.2578 -197.469 L-10.2578 -197.469 L-8.96366 -202.299 L-7.66956 -207.128 L-3.13802 -209.241 L0.0759157 -213.072 L1.37001 -217.901"/>
<path d="M-7.66956 -207.128 L-7.66956 -207.128 L-8.5378 -212.052 L-7.24371 -216.882"/>
<path d="M-7.66956 -207.128 L-7.66956 -207.128"/>
<path d="M-25.7487 -185.582 L-25.7487 -185.582 L-26.6169 -190.506 L-27.4852 -195.43 L-24.2712 -199.261 L-22.9772 -204.09 L-23.8454 -209.014"/>
<path d="M-27.4852 -195.43 L-27.4852 -195.43 L-30.3531 -199.526 L-31.2213 -204.45"/>
<path d="M-27.4852 -195.43 L-27.4852 -195.43 L-26.1911 -200.26 L-24.897 -205.09 L-20.3655 -207.203 L-17.1515 -211.033 L-15.8574 -215.863"/>
<path d="M-24.897 -205.09 L-24.897 -205.09 L-25.7652 -210.014 L-24.4711 -214.843"/>
<path d="M-24.897 -205.09 L-24.897 -205.09"/>
<path d="M-25.7487 -185.582 L-25.7487 -185.582 L-26.6169 -190.506 L-27.4852 -195.43 L-24.2712 -199.261 L-22.9772 -204.09 L-23.8454 -209.014"/>
<path d="M-27.4852 -195.43 L-27.4852 -195.43 L-30.3531 -199.526 L-31.2213 -204.45"/>
<path d="M-27.4852 -195.43 L-27.4852 -195.43 L-28.3534 -200.355 L-29.2217 -205.279 L-26.0077 -209.109 L-24.7136 -213.938 L-25.5819 -218.862"/>
<path d="M-29.2217 -205.279 L-29.2217 -205.279 L-32.0896 -209.374 L-32.9578 -214.298"/>
<path d="M-29.2217 -205.279 L-29.2217 -205.279 L-26.0077 -209.109 L-22.7938 -212.939 L-17.7938 -212.939 L-13.2623 -215.052 L-10.0483 -218.882"/>
<path d="M-22.7938 -212.939 L-22.7938 -212.939 L-21.4997 -217.769 L-18.2858 -221.599"/>
<path d="M-22.7938 -212.939 L-22.7938 -212.939 L-21.4997 -217.769 L-20.2056 -222.598 L-15.6741 -224.711 L-12.4601 -228.542 L-11.166 -233.371"/>
<path d="M-20.2056 -222.598 L-20.2056 -222.598 L-21.0738 -227.522 L-19.7797 -232.352"/>
<path d="M-20.2056 -222.598 L-20.2056 -222.598 L-21.0738 -227.522 L-21.9421 -232.446 L-18.7281 -236.277 L-17.4341 -241.106 L-18.3023 -246.03"/>
<path d="M-21.9421 -232.446 L-21.9421 -232.446 L-24.81 -236.542 L-25.6782 -241.466"/>
<path d="M-21.9421 -232.446 L-21.9421 -232.446"/>
<path d="M-29.2217 -205.279 L-29.2217 -205.279 L-32.0896 -209.374 L-34.9574 -213.47 L-33.6633 -218.3 L-34.5316 -223.224 L-37.3995 -227.32"/>
<path d="M-34.9574 -213.47 L-34.9574 -213.47 L-39.2876 -215.97 L-42.1554 -220.066"/>
<path d="M-34.9574 -213.47 L-34.9574 -213.47 L-35.8257 -218.394 L-36.6939 -223.318 L-33.48 -227.148 L-32.1859 -231.978 L-33.0541 -236.902"/>
<path d="M-36.6939 -223.318 L-36.6939 -223.318 L-39.5618 -227.414 L-40.43 -232.338"/>
<path d="M-36.6939 -223.318 L-36.6939 -223.318"/>
<path d="M-29.2217 -205.279 L-29.2217 -205.279"/>
<path d="M-43.7808 -150.943 L-43.7808 -150.943 L-46.6487 -155.039 L-49.5166 -159.135 L-48.2225 -163.964 L-49.0907 -168.888 L-51.9586 -172.984"/>
<path d="M-49.5166 -159.135 L-49.5166 -159.135 L-53.8467 -161.635 L-56.7146 -165.73"/>
<path d="M-49.5166 -159.135 L-49.5166 -159.135 L-52.3845 -163.23 L-55.2524 -167.326 L-53.9583 -172.156 L-54.8265 -177.08 L-57.6944 -181.175"/>
<path d="M-55.2524 -167.326 L-55.2524 -167.326 L-59.5825 -169.826 L-62.4504 -173.922"/>
<path d="M-55.2524 -167.326 L-55.2524 -167.326 L-53.9583 -172.156 L-52.6642 -176.985 L-48.1326 -179.098 L-44.9187 -182.929 L-43.6246 -187.758"/>
<path d="M-52.6642 -176.985 L-52.6642 -176.985 L-53.5324 -181.909 L-52.2383 -186.739"/>
<path d="M-52.6642 -176.985 L-52.6642 -176.985 L-53.5324 -181.909 L-54.4007 -186.833 L-51.1867 -190.664 L-49.8926 -195.493 L-50.7609 -200.417"/>
<path d="M-54.4007 -186.833 L-54.4007 -186.833 L-57.2685 -190.929 L-58.1368 -195.853"/>
<path d="M-54.4007 -186.833 L-54.4007 -186.833 L-57.2685 -190.929 L-60.1364 -195.025 L-58.8423 -199.855 L-59.7106 -204.779 L-62.5785 -208.874"/>
<path d="M-60.1364 -195.025 L-60.1364 -195.025 L-64.4666 -197.525 L-67.3344 -201.621"/>
<path d="M-60.1364 -195.025 L-60.1364 -195.025"/>
<path d="M-55.2524 -167.326 L-55.2524 -167.326 L-59.5825 -169.826 L-63.9126 -172.326 L-64.7809 -177.25 L-67.6487 -181.346 L-71.9789 -183.846"/>
<path d="M-63.9126 -172.326 L-63.9126 -172.326 L-68.8936 -172.762 L-73.2237 -175.262"/>
<path d="M-63.9126 -172.326 L-63.9126 -172.326 L-66.7805 -176.422 L-69.6484 -180.518 L-68.3543 -185.347 L-69.2225 -190.271 L-72.0904 -194.367"/>
<path d="M-69.6484 -180.518 L-69.6484 -180.518 L-73.9785 -183.018 L-76.8464 -187.113"/>
<path d="M-69.6484 -180.518 L-69.6484 -180.518"/>
<path d="M-55.2524 -167.326 L-55.2524 -167.326 L-56.1206 -172.25 L-56.9888 -177.174 L-53.7749 -181.004 L-52.4808 -185.834 L-53.3491 -190.758"/>
<path d="M-56.9888 -177.174 L-56.9888 -177.174 L-59.8567 -181.27 L-60.725 -186.194"/>
<path d="M-56.9888 -177.174 L-56.9888 -177.174 L-57.8571 -182.098 L-58.7253 -187.022 L-55.5114 -190.852 L-54.2173 -195.682 L-55.0855 -200.606"/>
<path d="M-58.7253 -187.022 L-58.7253 -187.022 L-61.5932 -191.118 L-62.4615 -196.042"/>
<path d="M-58.7253 -187.022 L-58.7253 -187.022 L-55.5114 -190.852 L-52.2975 -194.683 L-47.2975 -194.683 L-42.7659 -196.796 L-39.552 -200.626"/>
<path d="M-52.2975 -194.683 L-52.2975 -194.683 L-51.0034 -199.512 L-47.7894 -203.343"/>
<path d="M-52.2975 -194.683 L-52.2975 -194.683 L-51.0034 -199.512 L-49.7093 -204.342 L-45.1777 -206.455 L-41.9638 -210.285 L-40.6697 -215.115"/>
<path d="M-49.7093 -204.342 L-49.7093 -204.342 L-50.5775 -209.266 L-49.2834 -214.096"/>
<path d="M-49.7093 -204.342 L-49.7093 -204.342 L-50.5775 -209.266 L-51.4457 -214.19 L-48.2318 -218.02 L-46.9377 -222.85 L-47.806 -227.774"/>
<path d="M-51.4457 -214.19 L-51.4457 -214.19 L-54.3136 -218.286 L-55.1819 -223.21"/>
<path d="M-51.4457 -214.19 L-51.4457 -214.19"/>
<path d="M-58.7253 -187.022 L-58.7253 -187.022 L-61.5932 -191.118 L-64.4611 -195.214 L-63.167 -200.043 L-64.0352 -204.967 L-66.9031 -209.063"/>
<path d="M-64.4611 -195.214 L-64.4611 -195.214 L-68.7912 -197.714 L-71.6591 -201.809"/>
<path d="M-64.4611 -195.214 L-64.4611 -195.214 L-65.3293 -200.138 L-66.1976 -205.062 L-62.9836 -208.892 L-61.6895 -213.722 L-62.5578 -218.646"/>
<path d="M-66.1976 -205.062 L-66.1976 -205.062 L-69.0655 -209.158 L-69.9337 -214.082"/>
<path d="M-66.1976 -205.062 L-66.1976 -205.062"/>
<path d="M-58.7253 -187.022 L-58.7253 -187.022"/>
<path d="M-43.7808 -150.943 L-43.7808 -150.943"/>
<path d="M-13.8919 -78.7846 L-13.8919 -78.7846"/>
</svg>
