<?xml version="1.0" encoding="UTF-8"?>
<svg xmlns="http://www.w3.org/2000/svg"
 version="1.1" baseProfile="basic"
 viewBox="-51 -145 106 155"
 width="1280px" height="1024px"
 stroke="white" stroke-width="1px"
 fill="black" fill-opacity="0">
<rect x="-51" y="-145" width="106" height="155" stroke-width="0px" fill-opacity="1"/>
<path d="M0 0 L0 0 L-0.868241 -4.92404 L-1.73648 -9.84808 L1.47746 -13.6783 L2.77155 -18.5079 L1.90331 -23.432"/>
<path d="M-1.73648 -9.84808 L-1.73648 -9.84808 L-4.60436 -13.9438 L-5.4726 -18.8679"/>
<path d="M-1.73648 -9.84808 L-1.73648 -9.84808 L-2.60472 -14.7721 L-3.47296 -19.6962 L-0.259026 -23.5264 L1.03507 -28.356 L0.166829 -33.28"/>
<path d="M-3.47296 -19.6962 L-3.47296 -19.6962 L-6.34085 -23.7919 L-7.20909 -28.716"/>
<path d="M-3.47296 -19.6962 L-3.47296 -19.6962 L-0.259026 -23.5264 L2.95491 -27.3566 L7.95491 -27.3566 L12.4865 -29.4697 L15.7004 -33.2999"/>
<path d="M2.95491 -27.3566 L2.95491 -27.3566 L4.24901 -32.1862 L7.46295 -36.0165"/>
<path d="M2.95491 -27.3566 L2.95491 -27.3566 L4.24901 -32.1862 L5.5431 -37.0159 L10.0746 -39.1289 L13.2886 -42.9592 L14.5827 -47.7888"/>
<path d="M5.5431 -37.0159 L5.5431 -37.0159 L4.67486 -41.9399 L5.96896 -46.7695"/>
<path d="M5.5431 -37.0159 L5.5431 -37.0159 L4.67486 -41.9399 L3.80662 -46.8639 L7.02056 -50.6942 L8.31465 -55.5238 L7.44641 -60.4478"/>
<path d="M3.80662 -46.8639 L3.80662 -46.8639 L0.938739 -50.9597 L0.0704981 -55.8837"/>
<path d="M3.80662 -46.8639 L3.80662 -46.8639"/>
<path d="M-3.47296 -19.6962 L-3.47296 -19.6962 L-6.34085 -23.7919 L-9.20873 -27.8877 L-7.91463 -32.7173 L-8.78287 -37.6413 L-11.6508 -41.7371"/>
<path d="M-9.20873 -27.8877 L-9.20873 -27.8877 L-13.5389 -30.3877 L-16.4067 -34.4834"/>
<path d="M-9.20873 -27.8877 L-9.20873 -27.8877 L-10.077 -32.8117 L-10.9452 -37.7358 L-7.73127 -41.566 L-6.43718 -46.3956 L-7.30542 -51.3196"/>
<path d="M-10.9452 -37.7358 L-10.9452 -37.7358 L-13.8131 -41.8315 L-14.6813 -46.7556"/>
<path d="M-10.9452 -37.7358 L-10.9452 -37.7358"/>
<path d="M-3.47296 -19.6962 L-3.47296 -19.6962 L-4.3412 -24.6202 L-5.20945 -29.5442 L-1.99551 -33.3745 L-0.701412 -38.2041 L-1.56965 -43.1281"/>
<path d="M-5.20945 -29.5442 L-5.20945 -29.5442 L-8.07733 -33.64 L-8.94557 -38.564"/>
<path d="M-5.20945 -29.5442 L-5.20945 -29.5442 L-6.07769 -34.4683 L-6.94593 -39.3923 L-3.73199 -43.2225 L-2.43789 -48.0522 L-3.30613 -52.9762"/>
<path d="M-6.94593 -39.3923 L-6.94593 -39.3923 L-9.81381 -43.4881 L-10.6821 -48.4121"/>
<path d="M-6.94593 -39.3923 L-6.94593 -39.3923 L-3.73199 -43.2225 L-0.518051 -47.0528 L4.48195 -47.0528 L9.01349 -49.1658 L12.2274 -52.9961"/>
<path d="M-0.518051 -47.0528 L-0.518051 -47.0528 L0.776044 -51.8824 L3.98998 -55.7126"/>
<path d="M-0.518051 -47.0528 L-0.518051 -47.0528 L0.776044 -51.8824 L2.07014 -56.712 L6.60168 -58.8251 L9.81562 -62.6553 L11.1097 -67.485"/>
<path d="M2.07014 -56.712 L2.07014 -56.712 L1.2019 -61.6361 L2.49599 -66.4657"/>
<path d="M2.07014 -56.712 L2.07014 -56.712 L1.2019 -61.6361 L0.333658 -66.5601 L3.5476 -70.3903 L4.84169 -75.2199 L3.97345 -80.144"/>
<path d="M0.333658 -66.5601 L0.333658 -66.5601 L-2.53422 -70.6559 L-3.40247 -75.5799"/>
<path d="M0.333658 -66.5601 L0.333658 -66.5601"/>
<path d="M-6.94593 -39.3923 L-6.94593 -39.3923 L-9.81381 -43.4881 L-12.6817 -47.5838 L-11.3876 -52.4135 L-12.2558 -57.3375 L-15.1237 -61.4333"/>
<path d="M-12.6817 -47.5838 L-12.6817 -47.5838 L-17.0118 -50.0838 L-19.8797 -54.1796"/>
<path d="M-12.6817 -47.5838 L-12.6817 -47.5838 L-13.5499 -52.5079 L-14.4182 -57.4319 L-11.2042 -61.2621 L-9.91014 -66.0918 L-10.7784 -71.0158"/>
<path d="M-14.4182 -57.4319 L-14.4182 -57.4319 L-17.2861 -61.5277 L-18.1543 -66.4517"/>
<path d="M-14.4182 -57.4319 L-14.4182 -57.4319"/>
<path d="M-6.94593 -39.3923 L-6.94593 -39.3923 L-3.73199 -43.2225 L-0.518051 -47.0528 L4.48195 -47.0528 L9.01349 -49.1658 L12.2274 -52.9961"/>
<path d="M-0.518051 -47.0528 L-0.518051 -47.0528 L0.776044 -51.8824 L3.98998 -55.7126"/>
<path d="M-0.518051 -47.0528 L-0.518051 -47.0528 L2.69589 -50.883 L5.90983 -54.7132 L10.9098 -54.7132 L15.4414 -56.8263 L18.6553 -60.6565"/>
<path d="M5.90983 -54.7132 L5.90983 -54.7132 L7.20392 -59.5428 L10.4179 -63.3731"/>
<path d="M5.90983 -54.7132 L5.90983 -54.7132 L10.9098 -54.7132 L15.9098 -54.7132 L19.1238 -50.883 L23.6553 -48.7699 L28.6553 -48.7699"/>
<path d="M15.9098 -54.7132 L15.9098 -54.7132 L20.4414 -56.8263 L25.4414 -56.8263"/>
<path d="M15.9098 -54.7132 L15.9098 -54.7132 L20.4414 -56.8263 L24.9729 -58.9394 L29.5044 -56.8263 L34.5044 -56.8263 L39.036 -58.9394"/>
<path d="M24.9729 -58.9394 L24.9729 -58.9394 L28.1868 -62.7696 L32.7184 -64.8827"/>
<path d="M24.9729 -58.9394 L24.9729 -58.9394 L28.1868 -62.7696 L31.4008 -66.5998 L36.4008 -66.5998 L40.9323 -68.7129 L44.1463 -72.5431"/>
<path d="M31.4008 -66.5998 L31.4008 -66.5998 L32.6949 -71.4295 L35.9088 -75.2597"/>
<path d="M31.4008 -66.5998 L31.4008 -66.5998"/>
<path d="M5.90983 -54.7132 L5.90983 -54.7132 L7.20392 -59.5428 L8.49802 -64.3725 L13.0296 -66.4855 L16.2435 -70.3158 L17.5376 -75.1454"/>
<path d="M8.49802 -64.3725 L8.49802 -64.3725 L7.62977 -69.2965 L8.92387 -74.1261"/>
<path d="M8.49802 -64.3725 L8.49802 -64.3725 L11.712 -68.2027 L14.9259 -72.0329 L19.9259 -72.0329 L24.4574 -74.146 L27.6714 -77.9762"/>
<path d="M14.9259 -72.0329 L14.9259 -72.0329 L16.22 -76.8625 L19.4339 -80.6928"/>
<path d="M14.9259 -72.0329 L14.9259 -72.0329"/>
<path d="M5.90983 -54.7132 L5.90983 -54.7132 L7.20392 -59.5428 L8.49802 -64.3725 L13.0296 -66.4855 L16.2435 -70.3158 L17.5376 -75.1454"/>
<path d="M8.49802 -64.3725 L8.49802 -64.3725 L7.62977 -69.2965 L8.92387 -74.1261"/>
<path d="M8.49802 -64.3725 L8.49802 -64.3725 L9.79211 -69.2021 L11.0862 -74.0317 L15.6177 -76.1448 L18.8317 -79.975 L20.1258 -84.8047"/>
<path d="M11.0862 -74.0317 L11.0862 -74.0317 L10.218 -78.9558 L11.5121 -83.7854"/>
<path d="M11.0862 -74.0317 L11.0862 -74.0317 L15.6177 -76.1448 L20.1493 -78.2579 L24.6808 -76.1448 L29.6808 -76.1448 L34.2124 -78.2579"/>
<path d="M20.1493 -78.2579 L20.1493 -78.2579 L23.3632 -82.0881 L27.8948 -84.2012"/>
<path d="M20.1493 -78.2579 L20.1493 -78.2579 L23.3632 -82.0881 L26.5772 -85.9183 L31.5772 -85.9183 L36.1087 -88.0314 L39.3226 -91.8617"/>
<path d="M26.5772 -85.9183 L26.5772 -85.9183 L27.8713 -90.748 L31.0852 -94.5782"/>
<path d="M26.5772 -85.9183 L26.5772 -85.9183 L27.8713 -90.748 L29.1654 -95.5776 L33.6969 -97.6907 L36.9108 -101.521 L38.2049 -106.351"/>
<path d="M29.1654 -95.5776 L29.1654 -95.5776 L28.2971 -100.502 L29.5912 -105.331"/>
<path d="M29.1654 -95.5776 L29.1654 -95.5776"/>
<path d="M11.0862 -74.0317 L11.0862 -74.0317 L10.218 -78.9558 L9.34972 -83.8798 L12.5637 -87.71 L13.8578 -92.5396 L12.9895 -97.4637"/>
<path d="M9.34972 -83.8798 L9.34972 -83.8798 L6.48184 -87.9756 L5.6136 -92.8996"/>
<path d="M9.34972 -83.8798 L9.34972 -83.8798 L10.6438 -88.7094 L11.9379 -93.5391 L16.4695 -95.6521 L19.6834 -99.4824 L20.9775 -104.312"/>
<path d="M11.9379 -93.5391 L11.9379 -93.5391 L11.0697 -98.4631 L12.3638 -103.293"/>
<path d="M11.9379 -93.5391 L11.9379 -93.5391"/>
<path d="M11.0862 -74.0317 L11.0862 -74.0317 L10.218 -78.9558 L9.34972 -83.8798 L12.5637 -87.71 L13.8578 -92.5396 L12.9895 -97.4637"/>
<path d="M9.34972 -83.8798 L9.34972 -83.8798 L6.48184 -87.9756 L5.6136 -92.8996"/>
<path d="M9.34972 -83.8798 L9.34972 -83.8798 L8.48148 -88.8038 L7.61324 -93.7279 L10.8272 -97.5581 L12.1213 -102.388 L11.253 -107.312"/>
<path d="M7.61324 -93.7279 L7.61324 -93.7279 L4.74536 -97.8236 L3.87712 -102.748"/>
<path d="M7.61324 -93.7279 L7.61324 -93.7279 L10.8272 -97.5581 L14.0411 -101.388 L19.0411 -101.388 L23.5727 -103.501 L26.7866 -107.332"/>
<path d="M14.0411 -101.388 L14.0411 -101.388 L15.3352 -106.218 L18.5492 -110.048"/>
<path d="M14.0411 -101.388 L14.0411 -101.388 L15.3352 -106.218 L16.6293 -111.048 L21.1608 -113.161 L24.3748 -116.991 L25.6689 -121.821"/>
<path d="M16.6293 -111.048 L16.6293 -111.048 L15.7611 -115.972 L17.0552 -120.801"/>
<path d="M16.6293 -111.048 L16.6293 -111.048 L15.7611 -115.972 L14.8928 -120.896 L18.1068 -124.726 L19.4009 -129.556 L18.5326 -134.48"/>
<path d="M14.8928 -120.896 L14.8928 -120.896 L12.0249 -124.991 L11.1567 -129.915"/>
<path d="M14.8928 -120.896 L14.8928 -120.896"/>
<path d="M7.61324 -93.7279 L7.61324 -93.7279 L4.74536 -97.8236 L1.87748 -101.919 L3.17157 -106.749 L2.30333 -111.673 L-0.56455 -115.769"/>
<path d="M1.87748 -101.919 L1.87748 -101.919 L-2.45265 -104.419 L-5.32053 -108.515"/>
<path d="M1.87748 -101.919 L1.87748 -101.919 L1.00924 -106.843 L0.140996 -111.767 L3.35493 -115.598 L4.64903 -120.427 L3.78079 -125.351"/>
<path d="M0.140996 -111.767 L0.140996 -111.767 L-2.72689 -115.863 L-3.59513 -120.787"/>
<path d="M0.140996 -111.767 L0.140996 -111.767"/>
<path d="M7.61324 -93.7279 L7.61324 -93.7279"/>
<path d="M-6.94593 -39.3923 L-6.94593 -39.3923 L-9.81381 -43.4881 L-12.6817 -47.5838 L-11.3876 -52.4135 L-12.2558 -57.3375 L-15.1237 -61.4333"/>
<path d="M-12.6817 -47.5838 L-12.6817 -47.5838 L-17.0118 -50.0838 L-19.8797 -54.1796"/>
<path d="M-12.6817 -47.5838 L-12.6817 -47.5838 L-15.5496 -51.6796 L-18.4175 -55.7754 L-17.1234 -60.605 L-17.9916 -65.529 L-20.8595 -69.6248"/>
<path d="M-18.4175 -55.7754 L-18.4175 -55.7754 L-22.7476 -58.2754 L-25.6155 -62.3711"/>
<path d="M-18.4175 -55.7754 L-18.4175 -55.7754 L-17.1234 -60.605 L-15.8293 -65.4346 L-11.2977 -67.5477 L-8.08379 -71.3779 L-6.78969 -76.2076"/>
<path d="M-15.8293 -65.4346 L-15.8293 -65.4346 L-16.6975 -70.3586 L-15.4034 -75.1883"/>
<path d="M-15.8293 -65.4346 L-15.8293 -65.4346 L-16.6975 -70.3586 L-17.5657 -75.2827 L-14.3518 -79.1129 L-13.0577 -83.9425 L-13.926 -88.8666"/>
<path d="M-17.5657 -75.2827 L-17.5657 -75.2827 L-20.4336 -79.3784 L-21.3019 -84.3025"/>
<path d="M-17.5657 -75.2827 L-17.5657 -75.2827 L-20.4336 -79.3784 L-23.3015 -83.4742 L-22.0074 -88.3038 L-22.8757 -93.2279 L-25.7435 -97.3236"/>
<path d="M-23.3015 -83.4742 L-23.3015 -83.4742 L-27.6316 -85.9742 L-30.4995 -90.07"/>
<path d="M-23.3015 -83.4742 L-23.3015 -83.4742"/>
<path d="M-18.4175 -55.7754 L-18.4175 -55.7754 L-22.7476 -58.2754 L-27.0777 -60.7754 L-27.946 -65.6994 L-30.8138 -69.7951 L-35.144 -72.2951"/>
<path d="M-27.0777 -60.7754 L-27.0777 -60.7754 L-32.0587 -61.2111 L-36.3888 -63.7111"/>
<path d="M-27.0777 -60.7754 L-27.0777 -60.7754 L-29.9456 -64.8711 L-32.8135 -68.9669 L-31.5194 -73.7965 L-32.3876 -78.7205 L-35.2555 -82.8163"/>
<path d="M-32.8135 -68.9669 L-32.8135 -68.9669 L-37.1436 -71.4669 L-40.0115 -75.5626"/>
<path d="M-32.8135 -68.9669 L-32.8135 -68.9669"/>
<path d="M-18.4175 -55.7754 L-18.4175 -55.7754 L-19.2857 -60.6994 L-20.1539 -65.6234 L-16.94 -69.4537 L-15.6459 -74.2833 L-16.5141 -79.2073"/>
<path d="M-20.1539 -65.6234 L-20.1539 -65.6234 L-23.0218 -69.7192 L-23.8901 -74.6432"/>
<path d="M-20.1539 -65.6234 L-20.1539 -65.6234 L-21.0222 -70.5475 L-21.8904 -75.4715 L-18.6765 -79.3017 L-17.3824 -84.1314 L-18.2506 -89.0554"/>
<path d="M-21.8904 -75.4715 L-21.8904 -75.4715 L-24.7583 -79.5673 L-25.6265 -84.4913"/>
<path d="M-21.8904 -75.4715 L-21.8904 -75.4715 L-18.6765 -79.3017 L-15.4625 -83.132 L-10.4625 -83.132 L-5.931 -85.245 L-2.71707 -89.0753"/>
<path d="M-15.4625 -83.132 L-15.4625 -83.132 L-14.1684 -87.9616 L-10.9545 -91.7918"/>
<path d="M-15.4625 -83.132 L-15.4625 -83.132 L-14.1684 -87.9616 L-12.8744 -92.7912 L-8.34281 -94.9043 L-5.12888 -98.7345 L-3.83478 -103.564"/>
<path d="M-12.8744 -92.7912 L-12.8744 -92.7912 L-13.7426 -97.7152 L-12.4485 -102.545"/>
<path d="M-12.8744 -92.7912 L-12.8744 -92.7912 L-13.7426 -97.7152 L-14.6108 -102.639 L-11.3969 -106.47 L-10.1028 -111.299 L-10.971 -116.223"/>
<path d="M-14.6108 -102.639 L-14.6108 -102.639 L-17.4787 -106.735 L-18.347 -111.659"/>
<path d="M-14.6108 -102.639 L-14.6108 -102.639"/>
<path d="M-21.8904 -75.4715 L-21.8904 -75.4715 L-24.7583 -79.5673 L-27.6262 -83.663 L-26.3321 -88.4927 L-27.2003 -93.4167 L-30.0682 -97.5125"/>
<path d="M-27.6262 -83.663 L-27.6262 -83.663 L-31.9563 -86.163 L-34.8242 -90.2588"/>
<path d="M-27.6262 -83.663 L-27.6262 -83.663 L-28.4944 -88.5871 L-29.3627 -93.5111 L-26.1487 -97.3413 L-24.8546 -102.171 L-25.7229 -107.095"/>
<path d="M-29.3627 -93.5111 L-29.3627 -93.5111 L-32.2305 -97.6069 L-33.0988 -102.531"/>
<path d="M-29.3627 -93.5111 L-29.3627 -93.5111"/>
<path d="M-21.8904 -75.4715 L-21.8904 -75.4715"/>
<path d="M-6.94593 -39.3923 L-6.94593 -39.3923"/>
</svg>
