<?xml version="1.0" encoding="UTF-8"?>
<svg xmlns="http://www.w3.org/2000/svg"
 version="1.1" baseProfile="basic"
 viewBox="-27 -71 53 81"
 width="1280px" height="1024px"
 stroke="white" stroke-width="1px"
 fill="black" fill-opacity="0">
<rect x="-27" y="-71" width="53" height="81" stroke-width="0px" fill-opacity="1"/>
<path d="M0 0 L0 0 L-0.868241 -4.92404 L-1.73648 -9.84808 L1.47746 -13.6783 L2.77155 -18.5079 L1.90331 -23.432"/>
<path d="M-1.73648 -9.84808 L-1.73648 -9.84808 L-4.60436 -13.9438 L-5.4726 -18.8679"/>
<path d="M-1.73648 -9.84808 L-1.73648 -9.84808 L-2.60472 -14.7721 L-3.47296 -19.6962 L-0.259026 -23.5264 L1.03507 -28.356 L0.166829 -33.28"/>
<path d="M-3.47296 -19.6962 L-3.47296 -19.6962 L-6.34085 -23.7919 L-7.20909 -28.716"/>
<path d="M-3.47296 -19.6962 L-3.47296 -19.6962 L-0.259026 -23.5264 L2.95491 -27.3566 L7.95491 -27.3566 L12.4865 -29.4697 L15.7004 -33.2999"/>
<path d="M2.95491 -27.3566 L2.95491 -27.3566 L4.24901 -32.1862 L7.46295 -36.0165"/>
<path d="M2.95491 -27.3566 L2.95491 -27.3566 L4.24901 -32.1862 L5.5431 -37.0159 L10.0746 -39.1289 L13.2886 -42.9592 L14.5827 -47.7888"/>
<path d="M5.5431 -37.0159 L5.5431 -37.0159 L4.67486 -41.9399 L5.96896 -46.7695"/>
<path d="M5.5431 -37.0159 L5.5431 -37.0159 L4.67486 -41.9399 L3.80662 -46.8639 L7.02056 -50.6942 L8.31465 -55.5238 L7.44641 -60.4478"/>
<path d="M3.80662 -46.8639 L3.80662 -46.8639 L0.938739 -50.9597 L0.0704981 -55.8837"/>
<path d="M3.80662 -46.8639 L3.80662 -46.8639"/>
<path d="M-3.47296 -19.6962 L-3.47296 -19.6962 L-6.34085 -23.7919 L-9.20873 -27.8877 L-7.91463 -32.7173 L-8.78287 -37.6413 L-11.6508 -41.7371"/>
<path d="M-9.20873 -27.8877 L-9.20873 -27.8877 L-13.5389 -30.3877 L-16.4067 -34.4834"/>
<path d="M-9.20873 -27.8877 L-9.20873 -27.8877 L-10.077 -32.8117 L-10.9452 -37.7358 L-7.73127 -41.566 L-6.43718 -46.3956 L-7.30542 -51.3196"/>
<path d="M-10.9452 -37.7358 L-10.9452 -37.7358 L-13.8131 -41.8315 L-14.6813 -46.7556"/>
<path d="M-10.9452 -37.7358 L-10.9452 -37.7358"/>
<path d="M-3.47296 -19.6962 L-3.47296 -19.6962"/>
</svg>
