<?xml version="1.0" encoding="UTF-8"?>
<svg xmlns="http://www.w3.org/2000/svg"
 version="1.1" baseProfile="basic"
 viewBox="-10 -75 155 150"
 width="1280px" height="1024px"
 stroke="white" stroke-width="1px"
 fill="black" fill-opacity="0">
<rect x="-10" y="-75" width="155" height="150" stroke-width="0px" fill-opacity="1"/>
<path d="M0 0 L0 0 L5 0 L5 5 L10 5 L10 0 L5 -6.12323e-16 L5 -5 L10 -5 L10 -8.88178e-16 L15 -8.88178e-16 L15 5 L10 5 L10 10 L15 10 L15 5 L20 5 L20 10 L15 10 L15 15 L20 15 L20 20 L25 20 L25 15 L20 15 L20 10 L25 10 L25 15 L30 15 L30 10 L35 10 L35 5 L30 5 L30 10 L25 10 L25 5 L30 5 L30 0 L25 -6.12323e-16 L25 -5 L20 -5 L20 -1.77636e-15 L25 -5.5171e-16 L25 5 L20 5 L20 -1.77636e-15 L15 -2.38868e-15 L15 -5 L20 -5 L20 -10 L15 -10 L15 -5 L10 -5 L10 -10 L15 -10 L15 -15 L20 -15 L20 -10 L25 -10 L25 -15 L20 -15 L20 -20 L25 -20 L25 -15 L30 -15 L30 -10 L25 -10 L25 -5 L30 -5 L30 -10 L35 -10 L35 -5 L30 -5 L30 -2.66454e-15 L35 -2.66454e-15 L35 5 L40 5 L40 -2.66454e-15 L35 -3.27686e-15 L35 -5 L40 -5 L40 -3.55271e-15 L45 -3.55271e-15 L45 5 L40 5 L40 10 L45 10 L45 5 L50 5 L50 10 L45 10 L45 15 L40 15 L40 10 L35 10 L35 15 L40 15 L40 20 L35 20 L35 15 L30 15 L30 20 L25 20 L25 25 L30 25 L30 20 L35 20 L35 25 L30 25 L30 30 L35 30 L35 35 L40 35 L40 30 L35 30 L35 25 L40 25 L40 30 L45 30 L45 25 L50 25 L50 20 L45 20 L45 25 L40 25 L40 20 L45 20 L45 15 L50 15 L50 20 L55 20 L55 15 L50 15 L50 10 L55 10 L55 15 L60 15 L60 20 L55 20 L55 25 L60 25 L60 20 L65 20 L65 25 L60 25 L60 30 L55 30 L55 25 L50 25 L50 30 L55 30 L55 35 L50 35 L50 30 L45 30 L45 35 L40 35 L40 40 L45 40 L45 35 L50 35 L50 40 L45 40 L45 45 L50 45 L50 50 L55 50 L55 45 L50 45 L50 40 L55 40 L55 45 L60 45 L60 50 L55 50 L55 55 L60 55 L60 50 L65 50 L65 55 L60 55 L60 60 L65 60 L65 65 L70 65 L70 60 L65 60 L65 55 L70 55 L70 60 L75 60 L75 55 L80 55 L80 50 L75 50 L75 55 L70 55 L70 50 L75 50 L75 45 L70 45 L70 40 L65 40 L65 45 L70 45 L70 50 L65 50 L65 45 L60 45 L60 40 L65 40 L65 35 L60 35 L60 40 L55 40 L55 35 L60 35 L60 30 L65 30 L65 35 L70 35 L70 30 L65 30 L65 25 L70 25 L70 30 L75 30 L75 35 L70 35 L70 40 L75 40 L75 35 L80 35 L80 40 L75 40 L75 45 L80 45 L80 50 L85 50 L85 45 L80 45 L80 40 L85 40 L85 45 L90 45 L90 40 L95 40 L95 35 L90 35 L90 40 L85 40 L85 35 L90 35 L90 30 L95 30 L95 35 L100 35 L100 30 L95 30 L95 25 L100 25 L100 30 L105 30 L105 25 L110 25 L110 20 L105 20 L105 25 L100 25 L100 20 L105 20 L105 15 L100 15 L100 10 L95 10 L95 15 L100 15 L100 20 L95 20 L95 15 L90 15 L90 20 L85 20 L85 25 L90 25 L90 20 L95 20 L95 25 L90 25 L90 30 L85 30 L85 25 L80 25 L80 30 L85 30 L85 35 L80 35 L80 30 L75 30 L75 25 L80 25 L80 20 L75 20 L75 25 L70 25 L70 20 L75 20 L75 15 L80 15 L80 20 L85 20 L85 15 L80 15 L80 10 L85 10 L85 15 L90 15 L90 10 L95 10 L95 5 L90 5 L90 10 L85 10 L85 5 L90 5 L90 0 L85 -6.12323e-16 L85 -5 L80 -5 L80 -1.77636e-15 L85 -5.5171e-16 L85 5 L80 5 L80 -1.77636e-15 L75 -2.38868e-15 L75 -5 L80 -5 L80 -10 L75 -10 L75 -5 L70 -5 L70 -10 L75 -10 L75 -15 L70 -15 L70 -20 L65 -20 L65 -15 L70 -15 L70 -10 L65 -10 L65 -15 L60 -15 L60 -10 L55 -10 L55 -5 L60 -5 L60 -10 L65 -10 L65 -5 L60 -5 L60 8.88178e-16 L65 2.11283e-15 L65 5 L70 5 L70 2.66454e-15 L65 8.27565e-16 L65 -5 L70 -5 L70 1.77636e-15 L75 3.001e-15 L75 5 L70 5 L70 10 L75 10 L75 5 L80 5 L80 10 L75 10 L75 15 L70 15 L70 10 L65 10 L65 15 L70 15 L70 20 L65 20 L65 15 L60 15 L60 10 L65 10 L65 5 L60 5 L60 10 L55 10 L55 5 L60 5 L60 7.10543e-15 L55 6.4931e-15 L55 -5 L50 -5 L50 5.32907e-15 L55 6.55372e-15 L55 5 L50 5 L50 5.32907e-15 L45 4.71675e-15 L45 -5 L50 -5 L50 -10 L45 -10 L45 -5 L40 -5 L40 -10 L45 -10 L45 -15 L50 -15 L50 -10 L55 -10 L55 -15 L50 -15 L50 -20 L55 -20 L55 -15 L60 -15 L60 -20 L65 -20 L65 -25 L60 -25 L60 -20 L55 -20 L55 -25 L60 -25 L60 -30 L55 -30 L55 -35 L50 -35 L50 -30 L55 -30 L55 -25 L50 -25 L50 -30 L45 -30 L45 -25 L40 -25 L40 -20 L45 -20 L45 -25 L50 -25 L50 -20 L45 -20 L45 -15 L40 -15 L40 -20 L35 -20 L35 -15 L40 -15 L40 -10 L35 -10 L35 -15 L30 -15 L30 -20 L35 -20 L35 -25 L30 -25 L30 -20 L25 -20 L25 -25 L30 -25 L30 -30 L35 -30 L35 -25 L40 -25 L40 -30 L35 -30 L35 -35 L40 -35 L40 -30 L45 -30 L45 -35 L50 -35 L50 -40 L45 -40 L45 -35 L40 -35 L40 -40 L45 -40 L45 -45 L50 -45 L50 -40 L55 -40 L55 -45 L50 -45 L50 -50 L55 -50 L55 -45 L60 -45 L60 -40 L55 -40 L55 -35 L60 -35 L60 -40 L65 -40 L65 -35 L60 -35 L60 -30 L65 -30 L65 -25 L70 -25 L70 -30 L65 -30 L65 -35 L70 -35 L70 -30 L75 -30 L75 -35 L80 -35 L80 -40 L75 -40 L75 -35 L70 -35 L70 -40 L75 -40 L75 -45 L70 -45 L70 -50 L65 -50 L65 -45 L70 -45 L70 -40 L65 -40 L65 -45 L60 -45 L60 -50 L65 -50 L65 -55 L60 -55 L60 -50 L55 -50 L55 -55 L60 -55 L60 -60 L65 -60 L65 -55 L70 -55 L70 -60 L65 -60 L65 -65 L70 -65 L70 -60 L75 -60 L75 -55 L70 -55 L70 -50 L75 -50 L75 -55 L80 -55 L80 -50 L75 -50 L75 -45 L80 -45 L80 -40 L85 -40 L85 -45 L80 -45 L80 -50 L85 -50 L85 -45 L90 -45 L90 -40 L85 -40 L85 -35 L90 -35 L90 -40 L95 -40 L95 -35 L90 -35 L90 -30 L85 -30 L85 -35 L80 -35 L80 -30 L85 -30 L85 -25 L80 -25 L80 -30 L75 -30 L75 -25 L70 -25 L70 -20 L75 -20 L75 -25 L80 -25 L80 -20 L75 -20 L75 -15 L80 -15 L80 -10 L85 -10 L85 -15 L80 -15 L80 -20 L85 -20 L85 -15 L90 -15 L90 -20 L95 -20 L95 -25 L90 -25 L90 -20 L85 -20 L85 -25 L90 -25 L90 -30 L95 -30 L95 -25 L100 -25 L100 -30 L95 -30 L95 -35 L100 -35 L100 -30 L105 -30 L105 -25 L100 -25 L100 -20 L105 -20 L105 -25 L110 -25 L110 -20 L105 -20 L105 -15 L100 -15 L100 -20 L95 -20 L95 -15 L100 -15 L100 -10 L95 -10 L95 -15 L90 -15 L90 -10 L85 -10 L85 -5 L90 -5 L90 -10 L95 -10 L95 -5 L90 -5 L90 8.88178e-16 L95 8.88178e-16 L95 5 L100 5 L100 8.88178e-16 L95 2.75855e-16 L95 -5 L100 -5 L100 0 L105 2.95823e-31 L105 5 L100 5 L100 10 L105 10 L105 5 L110 5 L110 10 L105 10 L105 15 L110 15 L110 20 L115 20 L115 15 L110 15 L110 10 L115 10 L115 15 L120 15 L120 10 L125 10 L125 5 L120 5 L120 10 L115 10 L115 5 L120 5 L120 0 L115 -6.12323e-16 L115 -5 L110 -5 L110 -1.77636e-15 L115 -5.5171e-16 L115 5 L110 5 L110 -1.77636e-15 L105 -2.38868e-15 L105 -5 L110 -5 L110 -10 L105 -10 L105 -5 L100 -5 L100 -10 L105 -10 L105 -15 L110 -15 L110 -10 L115 -10 L115 -15 L110 -15 L110 -20 L115 -20 L115 -15 L120 -15 L120 -10 L115 -10 L115 -5 L120 -5 L120 -10 L125 -10 L125 -5 L120 -5 L120 -2.66454e-15 L125 -2.66454e-15 L125 5 L130 5 L130 -2.66454e-15 L125 -3.27686e-15 L125 -5 L130 -5 L130 -3.55271e-15 L135 -3.55271e-15"/>
</svg>
