<?xml version="1.0" encoding="UTF-8"?>
<svg xmlns="http://www.w3.org/2000/svg"
 version="1.1" baseProfile="basic"
 viewBox="-10 -210 425 420"
 width="1280px" height="1024px"
 stroke="white" stroke-width="1px"
 fill="black" fill-opacity="0">
<rect x="-10" y="-210" width="425" height="420" stroke-width="0px" fill-opacity="1"/>
<path d="M0 0 L0 0 L5 0 L5 5 L10 5 L10 0 L5 -6.12323e-16 L5 -5 L10 -5 L10 -8.88178e-16 L15 -8.88178e-16 L15 5 L10 5 L10 10 L15 10 L15 5 L20 5 L20 10 L15 10 L15 15 L20 15 L20 20 L25 20 L25 15 L20 15 L20 10 L25 10 L25 15 L30 15 L30 10 L35 10 L35 5 L30 5 L30 10 L25 10 L25 5 L30 5 L30 0 L25 -6.12323e-16 L25 -5 L20 -5 L20 -1.77636e-15 L25 -5.5171e-16 L25 5 L20 5 L20 -1.77636e-15 L15 -2.38868e-15 L15 -5 L20 -5 L20 -10 L15 -10 L15 -5 L10 -5 L10 -10 L15 -10 L15 -15 L20 -15 L20 -10 L25 -10 L25 -15 L20 -15 L20 -20 L25 -20 L25 -15 L30 -15 L30 -10 L25 -10 L25 -5 L30 -5 L30 -10 L35 -10 L35 -5 L30 -5 L30 -2.66454e-15 L35 -2.66454e-15 L35 5 L40 5 L40 -2.66454e-15 L35 -3.27686e-15 L35 -5 L40 -5 L40 -3.55271e-15 L45 -3.55271e-15 L45 5 L40 5 L40 10 L45 10 L45 5 L50 5 L50 10 L45 10 L45 15 L40 15 L40 10 L35 10 L35 15 L40 15 L40 20 L35 20 L35 15 L30 15 L30 20 L25 20 L25 25 L30 25 L30 20 L35 20 L35 25 L30 25 L30 30 L35 30 L35 35 L40 35 L40 30 L35 30 L35 25 L40 25 L40 30 L45 30 L45 25 L50 25 L50 20 L45 20 L45 25 L40 25 L40 20 L45 20 L45 15 L50 15 L50 20 L55 20 L55 15 L50 15 L50 10 L55 10 L55 15 L60 15 L60 20 L55 20 L55 25 L60 25 L60 20 L65 20 L65 25 L60 25 L60 30 L55 30 L55 25 L50 25 L50 30 L55 30 L55 35 L50 35 L50 30 L45 30 L45 35 L40 35 L40 40 L45 40 L45 35 L50 35 L50 40 L45 40 L45 45 L50 45 L50 50 L55 50 L55 45 L50 45 L50 40 L55 40 L55 45 L60 45 L60 50 L55 50 L55 55 L60 55 L60 50 L65 50 L65 55 L60 55 L60 60 L65 60 L65 65 L70 65 L70 60 L65 60 L65 55 L70 55 L70 60 L75 60 L75 55 L80 55 L80 50 L75 50 L75 55 L70 55 L70 50 L75 50 L75 45 L70 45 L70 40 L65 40 L65 45 L70 45 L70 50 L65 50 L65 45 L60 45 L60 40 L65 40 L65 35 L60 35 L60 40 L55 40 L55 35 L60 35 L60 30 L65 30 L65 35 L70 35 L70 30 L65 30 L65 25 L70 25 L70 30 L75 30 L75 35 L70 35 L70 40 L75 40 L75 35 L80 35 L80 40 L75 40 L75 45 L80 45 L80 50 L85 50 L85 45 L80 45 L80 40 L85 40 L85 45 L90 45 L90 40 L95 40 L95 35 L90 35 L90 40 L85 40 L85 35 L90 35 L90 30 L95 30 L95 35 L100 35 L100 30 L95 30 L95 25 L100 25 L100 30 L105 30 L105 25 L110 25 L110 20 L105 20 L105 25 L100 25 L100 20 L105 20 L105 15 L100 15 L100 10 L95 10 L95 15 L100 15 L100 20 L95 20 L95 15 L90 15 L90 20 L85 20 L85 25 L90 25 L90 20 L95 20 L95 25 L90 25 L90 30 L85 30 L85 25 L80 25 L80 30 L85 30 L85 35 L80 35 L80 30 L75 30 L75 25 L80 25 L80 20 L75 20 L75 25 L70 25 L70 20 L75 20 L75 15 L80 15 L80 20 L85 20 L85 15 L80 15 L80 10 L85 10 L85 15 L90 15 L90 10 L95 10 L95 5 L90 5 L90 10 L85 10 L85 5 L90 5 L90 0 L85 -6.12323e-16 L85 -5 L80 -5 L80 -1.77636e-15 L85 -5.5171e-16 L85 5 L80 5 L80 -1.77636e-15 L75 -2.38868e-15 L75 -5 L80 -5 L80 -10 L75 -10 L75 -5 L70 -5 L70 -10 L75 -10 L75 -15 L70 -15 L70 -20 L65 -20 L65 -15 L70 -15 L70 -10 L65 -10 L65 -15 L60 -15 L60 -10 L55 -10 L55 -5 L60 -5 L60 -10 L65 -10 L65 -5 L60 -5 L60 8.88178e-16 L65 2.11283e-15 L65 5 L70 5 L70 2.66454e-15 L65 8.27565e-16 L65 -5 L70 -5 L70 1.77636e-15 L75 3.001e-15 L75 5 L70 5 L70 10 L75 10 L75 5 L80 5 L80 10 L75 10 L75 15 L70 15 L70 10 L65 10 L65 15 L70 15 L70 20 L65 20 L65 15 L60 15 L60 10 L65 10 L65 5 L60 5 L60 10 L55 10 L55 5 L60 5 L60 7.10543e-15 L55 6.4931e-15 L55 -5 L50 -5 L50 5.32907e-15 L55 6.55372e-15 L55 5 L50 5 L50 5.32907e-15 L45 4.71675e-15 L45 -5 L50 -5 L50 -10 L45 -10 L45 -5 L40 -5 L40 -10 L45 -10 L45 -15 L50 -15 L50 -10 L55 -10 L55 -15 L50 -15 L50 -20 L55 -20 L55 -15 L60 -15 L60 -20 L65 -20 L65 -25 L60 -25 L60 -20 L55 -20 L55 -25 L60 -25 L60 -30 L55 -30 L55 -35 L50 -35 L50 -30 L55 -30 L55 -25 L50 -25 L50 -30 L45 -30 L45 -25 L40 -25 L40 -20 L45 -20 L45 -25 L50 -25 L50 -20 L45 -20 L45 -15 L40 -15 L40 -20 L35 -20 L35 -15 L40 -15 L40 -10 L35 -10 L35 -15 L30 -15 L30 -20 L35 -20 L35 -25 L30 -25 L30 -20 L25 -20 L25 -25 L30 -25 L30 -30 L35 -30 L35 -25 L40 -25 L40 -30 L35 -30 L35 -35 L40 -35 L40 -30 L45 -30 L45 -35 L50 -35 L50 -40 L45 -40 L45 -35 L40 -35 L40 -40 L45 -40 L45 -45 L50 -45 L50 -40 L55 -40 L55 -45 L50 -45 L50 -50 L55 -50 L55 -45 L60 -45 L60 -40 L55 -40 L55 -35 L60 -35 L60 -40 L65 -40 L65 -35 L60 -35 L60 -30 L65 -30 L65 -25 L70 -25 L70 -30 L65 -30 L65 -35 L70 -35 L70 -30 L75 -30 L75 -35 L80 -35 L80 -40 L75 -40 L75 -35 L70 -35 L70 -40 L75 -40 L75 -45 L70 -45 L70 -50 L65 -50 L65 -45 L70 -45 L70 -40 L65 -40 L65 -45 L60 -45 L60 -50 L65 -50 L65 -55 L60 -55 L60 -50 L55 -50 L55 -55 L60 -55 L60 -60 L65 -60 L65 -55 L70 -55 L70 -60 L65 -60 L65 -65 L70 -65 L70 -60 L75 -60 L75 -55 L70 -55 L70 -50 L75 -50 L75 -55 L80 -55 L80 -50 L75 -50 L75 -45 L80 -45 L80 -40 L85 -40 L85 -45 L80 -45 L80 -50 L85 -50 L85 -45 L90 -45 L90 -40 L85 -40 L85 -35 L90 -35 L90 -40 L95 -40 L95 -35 L90 -35 L90 -30 L85 -30 L85 -35 L80 -35 L80 -30 L85 -30 L85 -25 L80 -25 L80 -30 L75 -30 L75 -25 L70 -25 L70 -20 L75 -20 L75 -25 L80 -25 L80 -20 L75 -20 L75 -15 L80 -15 L80 -10 L85 -10 L85 -15 L80 -15 L80 -20 L85 -20 L85 -15 L90 -15 L90 -20 L95 -20 L95 -25 L90 -25 L90 -20 L85 -20 L85 -25 L90 -25 L90 -30 L95 -30 L95 -25 L100 -25 L100 -30 L95 -30 L95 -35 L100 -35 L100 -30 L105 -30 L105 -25 L100 -25 L100 -20 L105 -20 L105 -25 L110 -25 L110 -20 L105 -20 L105 -15 L100 -15 L100 -20 L95 -20 L95 -15 L100 -15 L100 -10 L95 -10 L95 -15 L90 -15 L90 -10 L85 -10 L85 -5 L90 -5 L90 -10 L95 -10 L95 -5 L90 -5 L90 8.88178e-16 L95 8.88178e-16 L95 5 L100 5 L100 8.88178e-16 L95 2.75855e-16 L95 -5 L100 -5 L100 0 L105 2.95823e-31 L105 5 L100 5 L100 10 L105 10 L105 5 L110 5 L110 10 L105 10 L105 15 L110 15 L110 20 L115 20 L115 15 L110 15 L110 10 L115 10 L115 15 L120 15 L120 10 L125 10 L125 5 L120 5 L120 10 L115 10 L115 5 L120 5 L120 0 L115 -6.12323e-16 L115 -5 L110 -5 L110 -1.77636e-15 L115 -5.5171e-16 L115 5 L110 5 L110 -1.77636e-15 L105 -2.38868e-15 L105 -5 L110 -5 L110 -10 L105 -10 L105 -5 L100 -5 L100 -10 L105 -10 L105 -15 L110 -15 L110 -10 L115 -10 L115 -15 L110 -15 L110 -20 L115 -20 L115 -15 L120 -15 L120 -10 L115 -10 L115 -5 L120 -5 L120 -10 L125 -10 L125 -5 L120 -5 L120 -2.66454e-15 L125 -2.66454e-15 L125 5 L130 5 L130 -2.66454e-15 L125 -3.27686e-15 L125 -5 L130 -5 L130 -3.55271e-15 L135 -3.55271e-15 L135 5 L130 5 L130 10 L135 10 L135 5 L140 5 L140 10 L135 10 L135 15 L130 15 L130 10 L125 10 L125 15 L130 15 L130 20 L125 20 L125 15 L120 15 L120 20 L115 20 L115 25 L120 25 L120 20 L125 20 L125 25 L120 25 L120 30 L125 30 L125 35 L130 35 L130 30 L125 30 L125 25 L130 25 L130 30 L135 30 L135 25 L140 25 L140 20 L135 20 L135 25 L130 25 L130 20 L135 20 L135 15 L140 15 L140 20 L145 20 L145 15 L140 15 L140 10 L145 10 L145 15 L150 15 L150 20 L145 20 L145 25 L150 25 L150 20 L155 20 L155 25 L150 25 L150 30 L145 30 L145 25 L140 25 L140 30 L145 30 L145 35 L140 35 L140 30 L135 30 L135 35 L130 35 L130 40 L135 40 L135 35 L140 35 L140 40 L135 40 L135 45 L130 45 L130 40 L125 40 L125 45 L130 45 L130 50 L125 50 L125 45 L120 45 L120 40 L125 40 L125 35 L120 35 L120 40 L115 40 L115 35 L120 35 L120 30 L115 30 L115 25 L110 25 L110 30 L115 30 L115 35 L110 35 L110 30 L105 30 L105 35 L100 35 L100 40 L105 40 L105 35 L110 35 L110 40 L105 40 L105 45 L110 45 L110 50 L115 50 L115 45 L110 45 L110 40 L115 40 L115 45 L120 45 L120 50 L115 50 L115 55 L120 55 L120 50 L125 50 L125 55 L120 55 L120 60 L115 60 L115 55 L110 55 L110 60 L115 60 L115 65 L110 65 L110 60 L105 60 L105 55 L110 55 L110 50 L105 50 L105 55 L100 55 L100 50 L105 50 L105 45 L100 45 L100 40 L95 40 L95 45 L100 45 L100 50 L95 50 L95 45 L90 45 L90 50 L85 50 L85 55 L90 55 L90 50 L95 50 L95 55 L90 55 L90 60 L85 60 L85 55 L80 55 L80 60 L85 60 L85 65 L80 65 L80 60 L75 60 L75 65 L70 65 L70 70 L75 70 L75 65 L80 65 L80 70 L75 70 L75 75 L80 75 L80 80 L85 80 L85 75 L80 75 L80 70 L85 70 L85 75 L90 75 L90 70 L95 70 L95 65 L90 65 L90 70 L85 70 L85 65 L90 65 L90 60 L95 60 L95 65 L100 65 L100 60 L95 60 L95 55 L100 55 L100 60 L105 60 L105 65 L100 65 L100 70 L105 70 L105 65 L110 65 L110 70 L105 70 L105 75 L100 75 L100 70 L95 70 L95 75 L100 75 L100 80 L95 80 L95 75 L90 75 L90 80 L85 80 L85 85 L90 85 L90 80 L95 80 L95 85 L90 85 L90 90 L95 90 L95 95 L100 95 L100 90 L95 90 L95 85 L100 85 L100 90 L105 90 L105 95 L100 95 L100 100 L105 100 L105 95 L110 95 L110 100 L105 100 L105 105 L110 105 L110 110 L115 110 L115 105 L110 105 L110 100 L115 100 L115 105 L120 105 L120 100 L125 100 L125 95 L120 95 L120 100 L115 100 L115 95 L120 95 L120 90 L115 90 L115 85 L110 85 L110 90 L115 90 L115 95 L110 95 L110 90 L105 90 L105 85 L110 85 L110 80 L105 80 L105 85 L100 85 L100 80 L105 80 L105 75 L110 75 L110 80 L115 80 L115 75 L110 75 L110 70 L115 70 L115 75 L120 75 L120 80 L115 80 L115 85 L120 85 L120 80 L125 80 L125 85 L120 85 L120 90 L125 90 L125 95 L130 95 L130 90 L125 90 L125 85 L130 85 L130 90 L135 90 L135 85 L140 85 L140 80 L135 80 L135 85 L130 85 L130 80 L135 80 L135 75 L140 75 L140 80 L145 80 L145 75 L140 75 L140 70 L145 70 L145 75 L150 75 L150 70 L155 70 L155 65 L150 65 L150 70 L145 70 L145 65 L150 65 L150 60 L145 60 L145 55 L140 55 L140 60 L145 60 L145 65 L140 65 L140 60 L135 60 L135 65 L130 65 L130 70 L135 70 L135 65 L140 65 L140 70 L135 70 L135 75 L130 75 L130 70 L125 70 L125 75 L130 75 L130 80 L125 80 L125 75 L120 75 L120 70 L125 70 L125 65 L120 65 L120 70 L115 70 L115 65 L120 65 L120 60 L125 60 L125 65 L130 65 L130 60 L125 60 L125 55 L130 55 L130 60 L135 60 L135 55 L140 55 L140 50 L135 50 L135 55 L130 55 L130 50 L135 50 L135 45 L140 45 L140 50 L145 50 L145 45 L140 45 L140 40 L145 40 L145 45 L150 45 L150 50 L145 50 L145 55 L150 55 L150 50 L155 50 L155 55 L150 55 L150 60 L155 60 L155 65 L160 65 L160 60 L155 60 L155 55 L160 55 L160 60 L165 60 L165 55 L170 55 L170 50 L165 50 L165 55 L160 55 L160 50 L165 50 L165 45 L160 45 L160 40 L155 40 L155 45 L160 45 L160 50 L155 50 L155 45 L150 45 L150 40 L155 40 L155 35 L150 35 L150 40 L145 40 L145 35 L150 35 L150 30 L155 30 L155 35 L160 35 L160 30 L155 30 L155 25 L160 25 L160 30 L165 30 L165 35 L160 35 L160 40 L165 40 L165 35 L170 35 L170 40 L165 40 L165 45 L170 45 L170 50 L175 50 L175 45 L170 45 L170 40 L175 40 L175 45 L180 45 L180 50 L175 50 L175 55 L180 55 L180 50 L185 50 L185 55 L180 55 L180 60 L175 60 L175 55 L170 55 L170 60 L175 60 L175 65 L170 65 L170 60 L165 60 L165 65 L160 65 L160 70 L165 70 L165 65 L170 65 L170 70 L165 70 L165 75 L170 75 L170 80 L175 80 L175 75 L170 75 L170 70 L175 70 L175 75 L180 75 L180 70 L185 70 L185 65 L180 65 L180 70 L175 70 L175 65 L180 65 L180 60 L185 60 L185 65 L190 65 L190 60 L185 60 L185 55 L190 55 L190 60 L195 60 L195 65 L190 65 L190 70 L195 70 L195 65 L200 65 L200 70 L195 70 L195 75 L190 75 L190 70 L185 70 L185 75 L190 75 L190 80 L185 80 L185 75 L180 75 L180 80 L175 80 L175 85 L180 85 L180 80 L185 80 L185 85 L180 85 L180 90 L175 90 L175 85 L170 85 L170 90 L175 90 L175 95 L170 95 L170 90 L165 90 L165 85 L170 85 L170 80 L165 80 L165 85 L160 85 L160 80 L165 80 L165 75 L160 75 L160 70 L155 70 L155 75 L160 75 L160 80 L155 80 L155 75 L150 75 L150 80 L145 80 L145 85 L150 85 L150 80 L155 80 L155 85 L150 85 L150 90 L155 90 L155 95 L160 95 L160 90 L155 90 L155 85 L160 85 L160 90 L165 90 L165 95 L160 95 L160 100 L165 100 L165 95 L170 95 L170 100 L165 100 L165 105 L160 105 L160 100 L155 100 L155 105 L160 105 L160 110 L155 110 L155 105 L150 105 L150 100 L155 100 L155 95 L150 95 L150 100 L145 100 L145 95 L150 95 L150 90 L145 90 L145 85 L140 85 L140 90 L145 90 L145 95 L140 95 L140 90 L135 90 L135 95 L130 95 L130 100 L135 100 L135 95 L140 95 L140 100 L135 100 L135 105 L130 105 L130 100 L125 100 L125 105 L130 105 L130 110 L125 110 L125 105 L120 105 L120 110 L115 110 L115 115 L120 115 L120 110 L125 110 L125 115 L120 115 L120 120 L125 120 L125 125 L130 125 L130 120 L125 120 L125 115 L130 115 L130 120 L135 120 L135 115 L140 115 L140 110 L135 110 L135 115 L130 115 L130 110 L135 110 L135 105 L140 105 L140 110 L145 110 L145 105 L140 105 L140 100 L145 100 L145 105 L150 105 L150 110 L145 110 L145 115 L150 115 L150 110 L155 110 L155 115 L150 115 L150 120 L145 120 L145 115 L140 115 L140 120 L145 120 L145 125 L140 125 L140 120 L135 120 L135 125 L130 125 L130 130 L135 130 L135 125 L140 125 L140 130 L135 130 L135 135 L140 135 L140 140 L145 140 L145 135 L140 135 L140 130 L145 130 L145 135 L150 135 L150 140 L145 140 L145 145 L150 145 L150 140 L155 140 L155 145 L150 145 L150 150 L155 150 L155 155 L160 155 L160 150 L155 150 L155 145 L160 145 L160 150 L165 150 L165 145 L170 145 L170 140 L165 140 L165 145 L160 145 L160 140 L165 140 L165 135 L160 135 L160 130 L155 130 L155 135 L160 135 L160 140 L155 140 L155 135 L150 135 L150 130 L155 130 L155 125 L150 125 L150 130 L145 130 L145 125 L150 125 L150 120 L155 120 L155 125 L160 125 L160 120 L155 120 L155 115 L160 115 L160 120 L165 120 L165 125 L160 125 L160 130 L165 130 L165 125 L170 125 L170 130 L165 130 L165 135 L170 135 L170 140 L175 140 L175 135 L170 135 L170 130 L175 130 L175 135 L180 135 L180 140 L175 140 L175 145 L180 145 L180 140 L185 140 L185 145 L180 145 L180 150 L175 150 L175 145 L170 145 L170 150 L175 150 L175 155 L170 155 L170 150 L165 150 L165 155 L160 155 L160 160 L165 160 L165 155 L170 155 L170 160 L165 160 L165 165 L170 165 L170 170 L175 170 L175 165 L170 165 L170 160 L175 160 L175 165 L180 165 L180 160 L185 160 L185 155 L180 155 L180 160 L175 160 L175 155 L180 155 L180 150 L185 150 L185 155 L190 155 L190 150 L185 150 L185 145 L190 145 L190 150 L195 150 L195 155 L190 155 L190 160 L195 160 L195 155 L200 155 L200 160 L195 160 L195 165 L190 165 L190 160 L185 160 L185 165 L190 165 L190 170 L185 170 L185 165 L180 165 L180 170 L175 170 L175 175 L180 175 L180 170 L185 170 L185 175 L180 175 L180 180 L185 180 L185 185 L190 185 L190 180 L185 180 L185 175 L190 175 L190 180 L195 180 L195 185 L190 185 L190 190 L195 190 L195 185 L200 185 L200 190 L195 190 L195 195 L200 195 L200 200 L205 200 L205 195 L200 195 L200 190 L205 190 L205 195 L210 195 L210 190 L215 190 L215 185 L210 185 L210 190 L205 190 L205 185 L210 185 L210 180 L205 180 L205 175 L200 175 L200 180 L205 180 L205 185 L200 185 L200 180 L195 180 L195 175 L200 175 L200 170 L195 170 L195 175 L190 175 L190 170 L195 170 L195 165 L200 165 L200 170 L205 170 L205 165 L200 165 L200 160 L205 160 L205 165 L210 165 L210 170 L205 170 L205 175 L210 175 L210 170 L215 170 L215 175 L210 175 L210 180 L215 180 L215 185 L220 185 L220 180 L215 180 L215 175 L220 175 L220 180 L225 180 L225 175 L230 175 L230 170 L225 170 L225 175 L220 175 L220 170 L225 170 L225 165 L230 165 L230 170 L235 170 L235 165 L230 165 L230 160 L235 160 L235 165 L240 165 L240 160 L245 160 L245 155 L240 155 L240 160 L235 160 L235 155 L240 155 L240 150 L235 150 L235 145 L230 145 L230 150 L235 150 L235 155 L230 155 L230 150 L225 150 L225 155 L220 155 L220 160 L225 160 L225 155 L230 155 L230 160 L225 160 L225 165 L220 165 L220 160 L215 160 L215 165 L220 165 L220 170 L215 170 L215 165 L210 165 L210 160 L215 160 L215 155 L210 155 L210 160 L205 160 L205 155 L210 155 L210 150 L215 150 L215 155 L220 155 L220 150 L215 150 L215 145 L220 145 L220 150 L225 150 L225 145 L230 145 L230 140 L225 140 L225 145 L220 145 L220 140 L225 140 L225 135 L220 135 L220 130 L215 130 L215 135 L220 135 L220 140 L215 140 L215 135 L210 135 L210 130 L215 130 L215 125 L210 125 L210 130 L205 130 L205 125 L210 125 L210 120 L205 120 L205 115 L200 115 L200 120 L205 120 L205 125 L200 125 L200 120 L195 120 L195 125 L190 125 L190 130 L195 130 L195 125 L200 125 L200 130 L195 130 L195 135 L200 135 L200 140 L205 140 L205 135 L200 135 L200 130 L205 130 L205 135 L210 135 L210 140 L205 140 L205 145 L210 145 L210 140 L215 140 L215 145 L210 145 L210 150 L205 150 L205 145 L200 145 L200 150 L205 150 L205 155 L200 155 L200 150 L195 150 L195 145 L200 145 L200 140 L195 140 L195 145 L190 145 L190 140 L195 140 L195 135 L190 135 L190 130 L185 130 L185 135 L190 135 L190 140 L185 140 L185 135 L180 135 L180 130 L185 130 L185 125 L180 125 L180 130 L175 130 L175 125 L180 125 L180 120 L185 120 L185 125 L190 125 L190 120 L185 120 L185 115 L190 115 L190 120 L195 120 L195 115 L200 115 L200 110 L195 110 L195 115 L190 115 L190 110 L195 110 L195 105 L190 105 L190 100 L185 100 L185 105 L190 105 L190 110 L185 110 L185 105 L180 105 L180 110 L175 110 L175 115 L180 115 L180 110 L185 110 L185 115 L180 115 L180 120 L175 120 L175 115 L170 115 L170 120 L175 120 L175 125 L170 125 L170 120 L165 120 L165 115 L170 115 L170 110 L165 110 L165 115 L160 115 L160 110 L165 110 L165 105 L170 105 L170 110 L175 110 L175 105 L170 105 L170 100 L175 100 L175 105 L180 105 L180 100 L185 100 L185 95 L180 95 L180 100 L175 100 L175 95 L180 95 L180 90 L185 90 L185 95 L190 95 L190 90 L185 90 L185 85 L190 85 L190 90 L195 90 L195 95 L190 95 L190 100 L195 100 L195 95 L200 95 L200 100 L195 100 L195 105 L200 105 L200 110 L205 110 L205 105 L200 105 L200 100 L205 100 L205 105 L210 105 L210 100 L215 100 L215 95 L210 95 L210 100 L205 100 L205 95 L210 95 L210 90 L205 90 L205 85 L200 85 L200 90 L205 90 L205 95 L200 95 L200 90 L195 90 L195 85 L200 85 L200 80 L195 80 L195 85 L190 85 L190 80 L195 80 L195 75 L200 75 L200 80 L205 80 L205 75 L200 75 L200 70 L205 70 L205 75 L210 75 L210 80 L205 80 L205 85 L210 85 L210 80 L215 80 L215 85 L210 85 L210 90 L215 90 L215 95 L220 95 L220 90 L215 90 L215 85 L220 85 L220 90 L225 90 L225 95 L220 95 L220 100 L225 100 L225 95 L230 95 L230 100 L225 100 L225 105 L220 105 L220 100 L215 100 L215 105 L220 105 L220 110 L215 110 L215 105 L210 105 L210 110 L205 110 L205 115 L210 115 L210 110 L215 110 L215 115 L210 115 L210 120 L215 120 L215 125 L220 125 L220 120 L215 120 L215 115 L220 115 L220 120 L225 120 L225 115 L230 115 L230 110 L225 110 L225 115 L220 115 L220 110 L225 110 L225 105 L230 105 L230 110 L235 110 L235 105 L230 105 L230 100 L235 100 L235 105 L240 105 L240 110 L235 110 L235 115 L240 115 L240 110 L245 110 L245 115 L240 115 L240 120 L235 120 L235 115 L230 115 L230 120 L235 120 L235 125 L230 125 L230 120 L225 120 L225 125 L220 125 L220 130 L225 130 L225 125 L230 125 L230 130 L225 130 L225 135 L230 135 L230 140 L235 140 L235 135 L230 135 L230 130 L235 130 L235 135 L240 135 L240 140 L235 140 L235 145 L240 145 L240 140 L245 140 L245 145 L240 145 L240 150 L245 150 L245 155 L250 155 L250 150 L245 150 L245 145 L250 145 L250 150 L255 150 L255 145 L260 145 L260 140 L255 140 L255 145 L250 145 L250 140 L255 140 L255 135 L250 135 L250 130 L245 130 L245 135 L250 135 L250 140 L245 140 L245 135 L240 135 L240 130 L245 130 L245 125 L240 125 L240 130 L235 130 L235 125 L240 125 L240 120 L245 120 L245 125 L250 125 L250 120 L245 120 L245 115 L250 115 L250 120 L255 120 L255 125 L250 125 L250 130 L255 130 L255 125 L260 125 L260 130 L255 130 L255 135 L260 135 L260 140 L265 140 L265 135 L260 135 L260 130 L265 130 L265 135 L270 135 L270 130 L275 130 L275 125 L270 125 L270 130 L265 130 L265 125 L270 125 L270 120 L275 120 L275 125 L280 125 L280 120 L275 120 L275 115 L280 115 L280 120 L285 120 L285 115 L290 115 L290 110 L285 110 L285 115 L280 115 L280 110 L285 110 L285 105 L280 105 L280 100 L275 100 L275 105 L280 105 L280 110 L275 110 L275 105 L270 105 L270 110 L265 110 L265 115 L270 115 L270 110 L275 110 L275 115 L270 115 L270 120 L265 120 L265 115 L260 115 L260 120 L265 120 L265 125 L260 125 L260 120 L255 120 L255 115 L260 115 L260 110 L255 110 L255 115 L250 115 L250 110 L255 110 L255 105 L260 105 L260 110 L265 110 L265 105 L260 105 L260 100 L265 100 L265 105 L270 105 L270 100 L275 100 L275 95 L270 95 L270 100 L265 100 L265 95 L270 95 L270 90 L275 90 L275 95 L280 95 L280 90 L275 90 L275 85 L280 85 L280 90 L285 90 L285 95 L280 95 L280 100 L285 100 L285 95 L290 95 L290 100 L285 100 L285 105 L290 105 L290 110 L295 110 L295 105 L290 105 L290 100 L295 100 L295 105 L300 105 L300 100 L305 100 L305 95 L300 95 L300 100 L295 100 L295 95 L300 95 L300 90 L295 90 L295 85 L290 85 L290 90 L295 90 L295 95 L290 95 L290 90 L285 90 L285 85 L290 85 L290 80 L285 80 L285 85 L280 85 L280 80 L285 80 L285 75 L290 75 L290 80 L295 80 L295 75 L290 75 L290 70 L295 70 L295 75 L300 75 L300 80 L295 80 L295 85 L300 85 L300 80 L305 80 L305 85 L300 85 L300 90 L305 90 L305 95 L310 95 L310 90 L305 90 L305 85 L310 85 L310 90 L315 90 L315 85 L320 85 L320 80 L315 80 L315 85 L310 85 L310 80 L315 80 L315 75 L320 75 L320 80 L325 80 L325 75 L320 75 L320 70 L325 70 L325 75 L330 75 L330 70 L335 70 L335 65 L330 65 L330 70 L325 70 L325 65 L330 65 L330 60 L325 60 L325 55 L320 55 L320 60 L325 60 L325 65 L320 65 L320 60 L315 60 L315 65 L310 65 L310 70 L315 70 L315 65 L320 65 L320 70 L315 70 L315 75 L310 75 L310 70 L305 70 L305 75 L310 75 L310 80 L305 80 L305 75 L300 75 L300 70 L305 70 L305 65 L300 65 L300 70 L295 70 L295 65 L300 65 L300 60 L305 60 L305 65 L310 65 L310 60 L305 60 L305 55 L310 55 L310 60 L315 60 L315 55 L320 55 L320 50 L315 50 L315 55 L310 55 L310 50 L315 50 L315 45 L310 45 L310 40 L305 40 L305 45 L310 45 L310 50 L305 50 L305 45 L300 45 L300 40 L305 40 L305 35 L300 35 L300 40 L295 40 L295 35 L300 35 L300 30 L295 30 L295 25 L290 25 L290 30 L295 30 L295 35 L290 35 L290 30 L285 30 L285 35 L280 35 L280 40 L285 40 L285 35 L290 35 L290 40 L285 40 L285 45 L290 45 L290 50 L295 50 L295 45 L290 45 L290 40 L295 40 L295 45 L300 45 L300 50 L295 50 L295 55 L300 55 L300 50 L305 50 L305 55 L300 55 L300 60 L295 60 L295 55 L290 55 L290 60 L295 60 L295 65 L290 65 L290 60 L285 60 L285 55 L290 55 L290 50 L285 50 L285 55 L280 55 L280 50 L285 50 L285 45 L280 45 L280 40 L275 40 L275 45 L280 45 L280 50 L275 50 L275 45 L270 45 L270 50 L265 50 L265 55 L270 55 L270 50 L275 50 L275 55 L270 55 L270 60 L265 60 L265 55 L260 55 L260 60 L265 60 L265 65 L260 65 L260 60 L255 60 L255 65 L250 65 L250 70 L255 70 L255 65 L260 65 L260 70 L255 70 L255 75 L260 75 L260 80 L265 80 L265 75 L260 75 L260 70 L265 70 L265 75 L270 75 L270 70 L275 70 L275 65 L270 65 L270 70 L265 70 L265 65 L270 65 L270 60 L275 60 L275 65 L280 65 L280 60 L275 60 L275 55 L280 55 L280 60 L285 60 L285 65 L280 65 L280 70 L285 70 L285 65 L290 65 L290 70 L285 70 L285 75 L280 75 L280 70 L275 70 L275 75 L280 75 L280 80 L275 80 L275 75 L270 75 L270 80 L265 80 L265 85 L270 85 L270 80 L275 80 L275 85 L270 85 L270 90 L265 90 L265 85 L260 85 L260 90 L265 90 L265 95 L260 95 L260 90 L255 90 L255 85 L260 85 L260 80 L255 80 L255 85 L250 85 L250 80 L255 80 L255 75 L250 75 L250 70 L245 70 L245 75 L250 75 L250 80 L245 80 L245 75 L240 75 L240 80 L235 80 L235 85 L240 85 L240 80 L245 80 L245 85 L240 85 L240 90 L245 90 L245 95 L250 95 L250 90 L245 90 L245 85 L250 85 L250 90 L255 90 L255 95 L250 95 L250 100 L255 100 L255 95 L260 95 L260 100 L255 100 L255 105 L250 105 L250 100 L245 100 L245 105 L250 105 L250 110 L245 110 L245 105 L240 105 L240 100 L245 100 L245 95 L240 95 L240 100 L235 100 L235 95 L240 95 L240 90 L235 90 L235 85 L230 85 L230 90 L235 90 L235 95 L230 95 L230 90 L225 90 L225 85 L230 85 L230 80 L225 80 L225 85 L220 85 L220 80 L225 80 L225 75 L230 75 L230 80 L235 80 L235 75 L230 75 L230 70 L235 70 L235 75 L240 75 L240 70 L245 70 L245 65 L240 65 L240 70 L235 70 L235 65 L240 65 L240 60 L235 60 L235 55 L230 55 L230 60 L235 60 L235 65 L230 65 L230 60 L225 60 L225 65 L220 65 L220 70 L225 70 L225 65 L230 65 L230 70 L225 70 L225 75 L220 75 L220 70 L215 70 L215 75 L220 75 L220 80 L215 80 L215 75 L210 75 L210 70 L215 70 L215 65 L210 65 L210 70 L205 70 L205 65 L210 65 L210 60 L215 60 L215 65 L220 65 L220 60 L215 60 L215 55 L220 55 L220 60 L225 60 L225 55 L230 55 L230 50 L225 50 L225 55 L220 55 L220 50 L225 50 L225 45 L230 45 L230 50 L235 50 L235 45 L230 45 L230 40 L235 40 L235 45 L240 45 L240 50 L235 50 L235 55 L240 55 L240 50 L245 50 L245 55 L240 55 L240 60 L245 60 L245 65 L250 65 L250 60 L245 60 L245 55 L250 55 L250 60 L255 60 L255 55 L260 55 L260 50 L255 50 L255 55 L250 55 L250 50 L255 50 L255 45 L250 45 L250 40 L245 40 L245 45 L250 45 L250 50 L245 50 L245 45 L240 45 L240 40 L245 40 L245 35 L240 35 L240 40 L235 40 L235 35 L240 35 L240 30 L245 30 L245 35 L250 35 L250 30 L245 30 L245 25 L250 25 L250 30 L255 30 L255 35 L250 35 L250 40 L255 40 L255 35 L260 35 L260 40 L255 40 L255 45 L260 45 L260 50 L265 50 L265 45 L260 45 L260 40 L265 40 L265 45 L270 45 L270 40 L275 40 L275 35 L270 35 L270 40 L265 40 L265 35 L270 35 L270 30 L275 30 L275 35 L280 35 L280 30 L275 30 L275 25 L280 25 L280 30 L285 30 L285 25 L290 25 L290 20 L285 20 L285 25 L280 25 L280 20 L285 20 L285 15 L280 15 L280 10 L275 10 L275 15 L280 15 L280 20 L275 20 L275 15 L270 15 L270 20 L265 20 L265 25 L270 25 L270 20 L275 20 L275 25 L270 25 L270 30 L265 30 L265 25 L260 25 L260 30 L265 30 L265 35 L260 35 L260 30 L255 30 L255 25 L260 25 L260 20 L255 20 L255 25 L250 25 L250 20 L255 20 L255 15 L260 15 L260 20 L265 20 L265 15 L260 15 L260 10 L265 10 L265 15 L270 15 L270 10 L275 10 L275 5 L270 5 L270 10 L265 10 L265 5 L270 5 L270 0 L265 -6.12323e-16 L265 -5 L260 -5 L260 -1.77636e-15 L265 -5.5171e-16 L265 5 L260 5 L260 -1.77636e-15 L255 -2.38868e-15 L255 -5 L260 -5 L260 -10 L255 -10 L255 -5 L250 -5 L250 -10 L255 -10 L255 -15 L250 -15 L250 -20 L245 -20 L245 -15 L250 -15 L250 -10 L245 -10 L245 -15 L240 -15 L240 -10 L235 -10 L235 -5 L240 -5 L240 -10 L245 -10 L245 -5 L240 -5 L240 8.88178e-16 L245 2.11283e-15 L245 5 L250 5 L250 2.66454e-15 L245 8.27565e-16 L245 -5 L250 -5 L250 1.77636e-15 L255 3.001e-15 L255 5 L250 5 L250 10 L255 10 L255 5 L260 5 L260 10 L255 10 L255 15 L250 15 L250 10 L245 10 L245 15 L250 15 L250 20 L245 20 L245 15 L240 15 L240 10 L245 10 L245 5 L240 5 L240 10 L235 10 L235 5 L240 5 L240 7.10543e-15 L235 6.4931e-15 L235 -5 L230 -5 L230 5.32907e-15 L235 6.55372e-15 L235 5 L230 5 L230 5.32907e-15 L225 4.71675e-15 L225 -5 L230 -5 L230 -10 L225 -10 L225 -5 L220 -5 L220 -10 L225 -10 L225 -15 L230 -15 L230 -10 L235 -10 L235 -15 L230 -15 L230 -20 L235 -20 L235 -15 L240 -15 L240 -20 L245 -20 L245 -25 L240 -25 L240 -20 L235 -20 L235 -25 L240 -25 L240 -30 L235 -30 L235 -35 L230 -35 L230 -30 L235 -30 L235 -25 L230 -25 L230 -30 L225 -30 L225 -25 L220 -25 L220 -20 L225 -20 L225 -25 L230 -25 L230 -20 L225 -20 L225 -15 L220 -15 L220 -20 L215 -20 L215 -15 L220 -15 L220 -10 L215 -10 L215 -15 L210 -15 L210 -20 L215 -20 L215 -25 L210 -25 L210 -20 L205 -20 L205 -25 L210 -25 L210 -30 L215 -30 L215 -25 L220 -25 L220 -30 L215 -30 L215 -35 L220 -35 L220 -30 L225 -30 L225 -35 L230 -35 L230 -40 L225 -40 L225 -35 L220 -35 L220 -40 L225 -40 L225 -45 L220 -45 L220 -50 L215 -50 L215 -45 L220 -45 L220 -40 L215 -40 L215 -45 L210 -45 L210 -50 L215 -50 L215 -55 L210 -55 L210 -50 L205 -50 L205 -55 L210 -55 L210 -60 L205 -60 L205 -65 L200 -65 L200 -60 L205 -60 L205 -55 L200 -55 L200 -60 L195 -60 L195 -55 L190 -55 L190 -50 L195 -50 L195 -55 L200 -55 L200 -50 L195 -50 L195 -45 L200 -45 L200 -40 L205 -40 L205 -45 L200 -45 L200 -50 L205 -50 L205 -45 L210 -45 L210 -40 L205 -40 L205 -35 L210 -35 L210 -40 L215 -40 L215 -35 L210 -35 L210 -30 L205 -30 L205 -35 L200 -35 L200 -30 L205 -30 L205 -25 L200 -25 L200 -30 L195 -30 L195 -35 L200 -35 L200 -40 L195 -40 L195 -35 L190 -35 L190 -40 L195 -40 L195 -45 L190 -45 L190 -50 L185 -50 L185 -45 L190 -45 L190 -40 L185 -40 L185 -45 L180 -45 L180 -40 L175 -40 L175 -35 L180 -35 L180 -40 L185 -40 L185 -35 L180 -35 L180 -30 L175 -30 L175 -35 L170 -35 L170 -30 L175 -30 L175 -25 L170 -25 L170 -30 L165 -30 L165 -25 L160 -25 L160 -20 L165 -20 L165 -25 L170 -25 L170 -20 L165 -20 L165 -15 L170 -15 L170 -10 L175 -10 L175 -15 L170 -15 L170 -20 L175 -20 L175 -15 L180 -15 L180 -20 L185 -20 L185 -25 L180 -25 L180 -20 L175 -20 L175 -25 L180 -25 L180 -30 L185 -30 L185 -25 L190 -25 L190 -30 L185 -30 L185 -35 L190 -35 L190 -30 L195 -30 L195 -25 L190 -25 L190 -20 L195 -20 L195 -25 L200 -25 L200 -20 L195 -20 L195 -15 L190 -15 L190 -20 L185 -20 L185 -15 L190 -15 L190 -10 L185 -10 L185 -15 L180 -15 L180 -10 L175 -10 L175 -5 L180 -5 L180 -10 L185 -10 L185 -5 L180 -5 L180 -9.76996e-15 L185 -8.54532e-15 L185 5 L190 5 L190 -7.99361e-15 L185 -9.83058e-15 L185 -5 L190 -5 L190 -8.88178e-15 L195 -7.65714e-15 L195 5 L190 5 L190 10 L195 10 L195 5 L200 5 L200 10 L195 10 L195 15 L200 15 L200 20 L205 20 L205 15 L200 15 L200 10 L205 10 L205 15 L210 15 L210 10 L215 10 L215 5 L210 5 L210 10 L205 10 L205 5 L210 5 L210 -6.21725e-15 L205 -8.05422e-15 L205 -5 L200 -5 L200 -9.76996e-15 L205 -7.32067e-15 L205 5 L200 5 L200 -8.88178e-15 L195 -1.07188e-14 L195 -5 L200 -5 L200 -10 L195 -10 L195 -5 L190 -5 L190 -10 L195 -10 L195 -15 L200 -15 L200 -10 L205 -10 L205 -15 L200 -15 L200 -20 L205 -20 L205 -15 L210 -15 L210 -10 L205 -10 L205 -5 L210 -5 L210 -10 L215 -10 L215 -5 L210 -5 L210 -6.21725e-15 L215 -4.9926e-15 L215 5 L220 5 L220 -4.44089e-15 L215 -6.27786e-15 L215 -5 L220 -5 L220 -5.32907e-15 L225 -4.10442e-15 L225 5 L220 5 L220 10 L225 10 L225 5 L230 5 L230 10 L225 10 L225 15 L220 15 L220 10 L215 10 L215 15 L220 15 L220 20 L215 20 L215 15 L210 15 L210 20 L205 20 L205 25 L210 25 L210 20 L215 20 L215 25 L210 25 L210 30 L215 30 L215 35 L220 35 L220 30 L215 30 L215 25 L220 25 L220 30 L225 30 L225 25 L230 25 L230 20 L225 20 L225 25 L220 25 L220 20 L225 20 L225 15 L230 15 L230 20 L235 20 L235 15 L230 15 L230 10 L235 10 L235 15 L240 15 L240 20 L235 20 L235 25 L240 25 L240 20 L245 20 L245 25 L240 25 L240 30 L235 30 L235 25 L230 25 L230 30 L235 30 L235 35 L230 35 L230 30 L225 30 L225 35 L220 35 L220 40 L225 40 L225 35 L230 35 L230 40 L225 40 L225 45 L220 45 L220 40 L215 40 L215 45 L220 45 L220 50 L215 50 L215 45 L210 45 L210 40 L215 40 L215 35 L210 35 L210 40 L205 40 L205 35 L210 35 L210 30 L205 30 L205 25 L200 25 L200 30 L205 30 L205 35 L200 35 L200 30 L195 30 L195 35 L190 35 L190 40 L195 40 L195 35 L200 35 L200 40 L195 40 L195 45 L200 45 L200 50 L205 50 L205 45 L200 45 L200 40 L205 40 L205 45 L210 45 L210 50 L205 50 L205 55 L210 55 L210 50 L215 50 L215 55 L210 55 L210 60 L205 60 L205 55 L200 55 L200 60 L205 60 L205 65 L200 65 L200 60 L195 60 L195 55 L200 55 L200 50 L195 50 L195 55 L190 55 L190 50 L195 50 L195 45 L190 45 L190 40 L185 40 L185 45 L190 45 L190 50 L185 50 L185 45 L180 45 L180 40 L185 40 L185 35 L180 35 L180 40 L175 40 L175 35 L180 35 L180 30 L185 30 L185 35 L190 35 L190 30 L185 30 L185 25 L190 25 L190 30 L195 30 L195 25 L200 25 L200 20 L195 20 L195 25 L190 25 L190 20 L195 20 L195 15 L190 15 L190 10 L185 10 L185 15 L190 15 L190 20 L185 20 L185 15 L180 15 L180 20 L175 20 L175 25 L180 25 L180 20 L185 20 L185 25 L180 25 L180 30 L175 30 L175 25 L170 25 L170 30 L175 30 L175 35 L170 35 L170 30 L165 30 L165 25 L170 25 L170 20 L165 20 L165 25 L160 25 L160 20 L165 20 L165 15 L170 15 L170 20 L175 20 L175 15 L170 15 L170 10 L175 10 L175 15 L180 15 L180 10 L185 10 L185 5 L180 5 L180 10 L175 10 L175 5 L180 5 L180 0 L175 -6.12323e-16 L175 -5 L170 -5 L170 -1.77636e-15 L175 -5.5171e-16 L175 5 L170 5 L170 -1.77636e-15 L165 -2.38868e-15 L165 -5 L170 -5 L170 -10 L165 -10 L165 -5 L160 -5 L160 -10 L165 -10 L165 -15 L160 -15 L160 -20 L155 -20 L155 -15 L160 -15 L160 -10 L155 -10 L155 -15 L150 -15 L150 -10 L145 -10 L145 -5 L150 -5 L150 -10 L155 -10 L155 -5 L150 -5 L150 8.88178e-16 L155 2.11283e-15 L155 5 L160 5 L160 2.66454e-15 L155 8.27565e-16 L155 -5 L160 -5 L160 1.77636e-15 L165 3.001e-15 L165 5 L160 5 L160 10 L165 10 L165 5 L170 5 L170 10 L165 10 L165 15 L160 15 L160 10 L155 10 L155 15 L160 15 L160 20 L155 20 L155 15 L150 15 L150 10 L155 10 L155 5 L150 5 L150 10 L145 10 L145 5 L150 5 L150 7.10543e-15 L145 6.4931e-15 L145 -5 L140 -5 L140 5.32907e-15 L145 6.55372e-15 L145 5 L140 5 L140 5.32907e-15 L135 4.71675e-15 L135 -5 L140 -5 L140 -10 L135 -10 L135 -5 L130 -5 L130 -10 L135 -10 L135 -15 L140 -15 L140 -10 L145 -10 L145 -15 L140 -15 L140 -20 L145 -20 L145 -15 L150 -15 L150 -20 L155 -20 L155 -25 L150 -25 L150 -20 L145 -20 L145 -25 L150 -25 L150 -30 L145 -30 L145 -35 L140 -35 L140 -30 L145 -30 L145 -25 L140 -25 L140 -30 L135 -30 L135 -25 L130 -25 L130 -20 L135 -20 L135 -25 L140 -25 L140 -20 L135 -20 L135 -15 L130 -15 L130 -20 L125 -20 L125 -15 L130 -15 L130 -10 L125 -10 L125 -15 L120 -15 L120 -20 L125 -20 L125 -25 L120 -25 L120 -20 L115 -20 L115 -25 L120 -25 L120 -30 L125 -30 L125 -25 L130 -25 L130 -30 L125 -30 L125 -35 L130 -35 L130 -30 L135 -30 L135 -35 L140 -35 L140 -40 L135 -40 L135 -35 L130 -35 L130 -40 L135 -40 L135 -45 L140 -45 L140 -40 L145 -40 L145 -45 L140 -45 L140 -50 L145 -50 L145 -45 L150 -45 L150 -40 L145 -40 L145 -35 L150 -35 L150 -40 L155 -40 L155 -35 L150 -35 L150 -30 L155 -30 L155 -25 L160 -25 L160 -30 L155 -30 L155 -35 L160 -35 L160 -30 L165 -30 L165 -35 L170 -35 L170 -40 L165 -40 L165 -35 L160 -35 L160 -40 L165 -40 L165 -45 L160 -45 L160 -50 L155 -50 L155 -45 L160 -45 L160 -40 L155 -40 L155 -45 L150 -45 L150 -50 L155 -50 L155 -55 L150 -55 L150 -50 L145 -50 L145 -55 L150 -55 L150 -60 L155 -60 L155 -55 L160 -55 L160 -60 L155 -60 L155 -65 L160 -65 L160 -60 L165 -60 L165 -55 L160 -55 L160 -50 L165 -50 L165 -55 L170 -55 L170 -50 L165 -50 L165 -45 L170 -45 L170 -40 L175 -40 L175 -45 L170 -45 L170 -50 L175 -50 L175 -45 L180 -45 L180 -50 L185 -50 L185 -55 L180 -55 L180 -50 L175 -50 L175 -55 L180 -55 L180 -60 L185 -60 L185 -55 L190 -55 L190 -60 L185 -60 L185 -65 L190 -65 L190 -60 L195 -60 L195 -65 L200 -65 L200 -70 L195 -70 L195 -65 L190 -65 L190 -70 L195 -70 L195 -75 L190 -75 L190 -80 L185 -80 L185 -75 L190 -75 L190 -70 L185 -70 L185 -75 L180 -75 L180 -70 L175 -70 L175 -65 L180 -65 L180 -70 L185 -70 L185 -65 L180 -65 L180 -60 L175 -60 L175 -65 L170 -65 L170 -60 L175 -60 L175 -55 L170 -55 L170 -60 L165 -60 L165 -65 L170 -65 L170 -70 L165 -70 L165 -65 L160 -65 L160 -70 L165 -70 L165 -75 L170 -75 L170 -70 L175 -70 L175 -75 L170 -75 L170 -80 L175 -80 L175 -75 L180 -75 L180 -80 L185 -80 L185 -85 L180 -85 L180 -80 L175 -80 L175 -85 L180 -85 L180 -90 L175 -90 L175 -95 L170 -95 L170 -90 L175 -90 L175 -85 L170 -85 L170 -90 L165 -90 L165 -95 L170 -95 L170 -100 L165 -100 L165 -95 L160 -95 L160 -100 L165 -100 L165 -105 L160 -105 L160 -110 L155 -110 L155 -105 L160 -105 L160 -100 L155 -100 L155 -105 L150 -105 L150 -100 L145 -100 L145 -95 L150 -95 L150 -100 L155 -100 L155 -95 L150 -95 L150 -90 L155 -90 L155 -85 L160 -85 L160 -90 L155 -90 L155 -95 L160 -95 L160 -90 L165 -90 L165 -85 L160 -85 L160 -80 L165 -80 L165 -85 L170 -85 L170 -80 L165 -80 L165 -75 L160 -75 L160 -80 L155 -80 L155 -75 L160 -75 L160 -70 L155 -70 L155 -75 L150 -75 L150 -80 L155 -80 L155 -85 L150 -85 L150 -80 L145 -80 L145 -85 L150 -85 L150 -90 L145 -90 L145 -95 L140 -95 L140 -90 L145 -90 L145 -85 L140 -85 L140 -90 L135 -90 L135 -85 L130 -85 L130 -80 L135 -80 L135 -85 L140 -85 L140 -80 L135 -80 L135 -75 L130 -75 L130 -80 L125 -80 L125 -75 L130 -75 L130 -70 L125 -70 L125 -75 L120 -75 L120 -70 L115 -70 L115 -65 L120 -65 L120 -70 L125 -70 L125 -65 L120 -65 L120 -60 L125 -60 L125 -55 L130 -55 L130 -60 L125 -60 L125 -65 L130 -65 L130 -60 L135 -60 L135 -65 L140 -65 L140 -70 L135 -70 L135 -65 L130 -65 L130 -70 L135 -70 L135 -75 L140 -75 L140 -70 L145 -70 L145 -75 L140 -75 L140 -80 L145 -80 L145 -75 L150 -75 L150 -70 L145 -70 L145 -65 L150 -65 L150 -70 L155 -70 L155 -65 L150 -65 L150 -60 L145 -60 L145 -65 L140 -65 L140 -60 L145 -60 L145 -55 L140 -55 L140 -60 L135 -60 L135 -55 L130 -55 L130 -50 L135 -50 L135 -55 L140 -55 L140 -50 L135 -50 L135 -45 L130 -45 L130 -50 L125 -50 L125 -45 L130 -45 L130 -40 L125 -40 L125 -45 L120 -45 L120 -50 L125 -50 L125 -55 L120 -55 L120 -50 L115 -50 L115 -55 L120 -55 L120 -60 L115 -60 L115 -65 L110 -65 L110 -60 L115 -60 L115 -55 L110 -55 L110 -60 L105 -60 L105 -55 L100 -55 L100 -50 L105 -50 L105 -55 L110 -55 L110 -50 L105 -50 L105 -45 L110 -45 L110 -40 L115 -40 L115 -45 L110 -45 L110 -50 L115 -50 L115 -45 L120 -45 L120 -40 L115 -40 L115 -35 L120 -35 L120 -40 L125 -40 L125 -35 L120 -35 L120 -30 L115 -30 L115 -35 L110 -35 L110 -30 L115 -30 L115 -25 L110 -25 L110 -30 L105 -30 L105 -35 L110 -35 L110 -40 L105 -40 L105 -35 L100 -35 L100 -40 L105 -40 L105 -45 L100 -45 L100 -50 L95 -50 L95 -45 L100 -45 L100 -40 L95 -40 L95 -45 L90 -45 L90 -50 L95 -50 L95 -55 L90 -55 L90 -50 L85 -50 L85 -55 L90 -55 L90 -60 L95 -60 L95 -55 L100 -55 L100 -60 L95 -60 L95 -65 L100 -65 L100 -60 L105 -60 L105 -65 L110 -65 L110 -70 L105 -70 L105 -65 L100 -65 L100 -70 L105 -70 L105 -75 L100 -75 L100 -80 L95 -80 L95 -75 L100 -75 L100 -70 L95 -70 L95 -75 L90 -75 L90 -70 L85 -70 L85 -65 L90 -65 L90 -70 L95 -70 L95 -65 L90 -65 L90 -60 L85 -60 L85 -65 L80 -65 L80 -60 L85 -60 L85 -55 L80 -55 L80 -60 L75 -60 L75 -65 L80 -65 L80 -70 L75 -70 L75 -65 L70 -65 L70 -70 L75 -70 L75 -75 L80 -75 L80 -70 L85 -70 L85 -75 L80 -75 L80 -80 L85 -80 L85 -75 L90 -75 L90 -80 L95 -80 L95 -85 L90 -85 L90 -80 L85 -80 L85 -85 L90 -85 L90 -90 L95 -90 L95 -85 L100 -85 L100 -90 L95 -90 L95 -95 L100 -95 L100 -90 L105 -90 L105 -85 L100 -85 L100 -80 L105 -80 L105 -85 L110 -85 L110 -80 L105 -80 L105 -75 L110 -75 L110 -70 L115 -70 L115 -75 L110 -75 L110 -80 L115 -80 L115 -75 L120 -75 L120 -80 L125 -80 L125 -85 L120 -85 L120 -80 L115 -80 L115 -85 L120 -85 L120 -90 L115 -90 L115 -95 L110 -95 L110 -90 L115 -90 L115 -85 L110 -85 L110 -90 L105 -90 L105 -95 L110 -95 L110 -100 L105 -100 L105 -95 L100 -95 L100 -100 L105 -100 L105 -105 L110 -105 L110 -100 L115 -100 L115 -105 L110 -105 L110 -110 L115 -110 L115 -105 L120 -105 L120 -100 L115 -100 L115 -95 L120 -95 L120 -100 L125 -100 L125 -95 L120 -95 L120 -90 L125 -90 L125 -85 L130 -85 L130 -90 L125 -90 L125 -95 L130 -95 L130 -90 L135 -90 L135 -95 L140 -95 L140 -100 L135 -100 L135 -95 L130 -95 L130 -100 L135 -100 L135 -105 L140 -105 L140 -100 L145 -100 L145 -105 L140 -105 L140 -110 L145 -110 L145 -105 L150 -105 L150 -110 L155 -110 L155 -115 L150 -115 L150 -110 L145 -110 L145 -115 L150 -115 L150 -120 L145 -120 L145 -125 L140 -125 L140 -120 L145 -120 L145 -115 L140 -115 L140 -120 L135 -120 L135 -115 L130 -115 L130 -110 L135 -110 L135 -115 L140 -115 L140 -110 L135 -110 L135 -105 L130 -105 L130 -110 L125 -110 L125 -105 L130 -105 L130 -100 L125 -100 L125 -105 L120 -105 L120 -110 L125 -110 L125 -115 L120 -115 L120 -110 L115 -110 L115 -115 L120 -115 L120 -120 L125 -120 L125 -115 L130 -115 L130 -120 L125 -120 L125 -125 L130 -125 L130 -120 L135 -120 L135 -125 L140 -125 L140 -130 L135 -130 L135 -125 L130 -125 L130 -130 L135 -130 L135 -135 L140 -135 L140 -130 L145 -130 L145 -135 L140 -135 L140 -140 L145 -140 L145 -135 L150 -135 L150 -130 L145 -130 L145 -125 L150 -125 L150 -130 L155 -130 L155 -125 L150 -125 L150 -120 L155 -120 L155 -115 L160 -115 L160 -120 L155 -120 L155 -125 L160 -125 L160 -120 L165 -120 L165 -125 L170 -125 L170 -130 L165 -130 L165 -125 L160 -125 L160 -130 L165 -130 L165 -135 L160 -135 L160 -140 L155 -140 L155 -135 L160 -135 L160 -130 L155 -130 L155 -135 L150 -135 L150 -140 L155 -140 L155 -145 L150 -145 L150 -140 L145 -140 L145 -145 L150 -145 L150 -150 L155 -150 L155 -145 L160 -145 L160 -150 L155 -150 L155 -155 L160 -155 L160 -150 L165 -150 L165 -145 L160 -145 L160 -140 L165 -140 L165 -145 L170 -145 L170 -140 L165 -140 L165 -135 L170 -135 L170 -130 L175 -130 L175 -135 L170 -135 L170 -140 L175 -140 L175 -135 L180 -135 L180 -130 L175 -130 L175 -125 L180 -125 L180 -130 L185 -130 L185 -125 L180 -125 L180 -120 L175 -120 L175 -125 L170 -125 L170 -120 L175 -120 L175 -115 L170 -115 L170 -120 L165 -120 L165 -115 L160 -115 L160 -110 L165 -110 L165 -115 L170 -115 L170 -110 L165 -110 L165 -105 L170 -105 L170 -100 L175 -100 L175 -105 L170 -105 L170 -110 L175 -110 L175 -105 L180 -105 L180 -110 L185 -110 L185 -115 L180 -115 L180 -110 L175 -110 L175 -115 L180 -115 L180 -120 L185 -120 L185 -115 L190 -115 L190 -120 L185 -120 L185 -125 L190 -125 L190 -120 L195 -120 L195 -115 L190 -115 L190 -110 L195 -110 L195 -115 L200 -115 L200 -110 L195 -110 L195 -105 L190 -105 L190 -110 L185 -110 L185 -105 L190 -105 L190 -100 L185 -100 L185 -105 L180 -105 L180 -100 L175 -100 L175 -95 L180 -95 L180 -100 L185 -100 L185 -95 L180 -95 L180 -90 L185 -90 L185 -85 L190 -85 L190 -90 L185 -90 L185 -95 L190 -95 L190 -90 L195 -90 L195 -85 L190 -85 L190 -80 L195 -80 L195 -85 L200 -85 L200 -80 L195 -80 L195 -75 L200 -75 L200 -70 L205 -70 L205 -75 L200 -75 L200 -80 L205 -80 L205 -75 L210 -75 L210 -80 L215 -80 L215 -85 L210 -85 L210 -80 L205 -80 L205 -85 L210 -85 L210 -90 L205 -90 L205 -95 L200 -95 L200 -90 L205 -90 L205 -85 L200 -85 L200 -90 L195 -90 L195 -95 L200 -95 L200 -100 L195 -100 L195 -95 L190 -95 L190 -100 L195 -100 L195 -105 L200 -105 L200 -100 L205 -100 L205 -105 L200 -105 L200 -110 L205 -110 L205 -105 L210 -105 L210 -100 L205 -100 L205 -95 L210 -95 L210 -100 L215 -100 L215 -95 L210 -95 L210 -90 L215 -90 L215 -85 L220 -85 L220 -90 L215 -90 L215 -95 L220 -95 L220 -90 L225 -90 L225 -95 L230 -95 L230 -100 L225 -100 L225 -95 L220 -95 L220 -100 L225 -100 L225 -105 L230 -105 L230 -100 L235 -100 L235 -105 L230 -105 L230 -110 L235 -110 L235 -105 L240 -105 L240 -110 L245 -110 L245 -115 L240 -115 L240 -110 L235 -110 L235 -115 L240 -115 L240 -120 L235 -120 L235 -125 L230 -125 L230 -120 L235 -120 L235 -115 L230 -115 L230 -120 L225 -120 L225 -115 L220 -115 L220 -110 L225 -110 L225 -115 L230 -115 L230 -110 L225 -110 L225 -105 L220 -105 L220 -110 L215 -110 L215 -105 L220 -105 L220 -100 L215 -100 L215 -105 L210 -105 L210 -110 L215 -110 L215 -115 L210 -115 L210 -110 L205 -110 L205 -115 L210 -115 L210 -120 L215 -120 L215 -115 L220 -115 L220 -120 L215 -120 L215 -125 L220 -125 L220 -120 L225 -120 L225 -125 L230 -125 L230 -130 L225 -130 L225 -125 L220 -125 L220 -130 L225 -130 L225 -135 L220 -135 L220 -140 L215 -140 L215 -135 L220 -135 L220 -130 L215 -130 L215 -135 L210 -135 L210 -140 L215 -140 L215 -145 L210 -145 L210 -140 L205 -140 L205 -145 L210 -145 L210 -150 L205 -150 L205 -155 L200 -155 L200 -150 L205 -150 L205 -145 L200 -145 L200 -150 L195 -150 L195 -145 L190 -145 L190 -140 L195 -140 L195 -145 L200 -145 L200 -140 L195 -140 L195 -135 L200 -135 L200 -130 L205 -130 L205 -135 L200 -135 L200 -140 L205 -140 L205 -135 L210 -135 L210 -130 L205 -130 L205 -125 L210 -125 L210 -130 L215 -130 L215 -125 L210 -125 L210 -120 L205 -120 L205 -125 L200 -125 L200 -120 L205 -120 L205 -115 L200 -115 L200 -120 L195 -120 L195 -125 L200 -125 L200 -130 L195 -130 L195 -125 L190 -125 L190 -130 L195 -130 L195 -135 L190 -135 L190 -140 L185 -140 L185 -135 L190 -135 L190 -130 L185 -130 L185 -135 L180 -135 L180 -140 L185 -140 L185 -145 L180 -145 L180 -140 L175 -140 L175 -145 L180 -145 L180 -150 L185 -150 L185 -145 L190 -145 L190 -150 L185 -150 L185 -155 L190 -155 L190 -150 L195 -150 L195 -155 L200 -155 L200 -160 L195 -160 L195 -155 L190 -155 L190 -160 L195 -160 L195 -165 L190 -165 L190 -170 L185 -170 L185 -165 L190 -165 L190 -160 L185 -160 L185 -165 L180 -165 L180 -160 L175 -160 L175 -155 L180 -155 L180 -160 L185 -160 L185 -155 L180 -155 L180 -150 L175 -150 L175 -155 L170 -155 L170 -150 L175 -150 L175 -145 L170 -145 L170 -150 L165 -150 L165 -155 L170 -155 L170 -160 L165 -160 L165 -155 L160 -155 L160 -160 L165 -160 L165 -165 L170 -165 L170 -160 L175 -160 L175 -165 L170 -165 L170 -170 L175 -170 L175 -165 L180 -165 L180 -170 L185 -170 L185 -175 L180 -175 L180 -170 L175 -170 L175 -175 L180 -175 L180 -180 L185 -180 L185 -175 L190 -175 L190 -180 L185 -180 L185 -185 L190 -185 L190 -180 L195 -180 L195 -175 L190 -175 L190 -170 L195 -170 L195 -175 L200 -175 L200 -170 L195 -170 L195 -165 L200 -165 L200 -160 L205 -160 L205 -165 L200 -165 L200 -170 L205 -170 L205 -165 L210 -165 L210 -170 L215 -170 L215 -175 L210 -175 L210 -170 L205 -170 L205 -175 L210 -175 L210 -180 L205 -180 L205 -185 L200 -185 L200 -180 L205 -180 L205 -175 L200 -175 L200 -180 L195 -180 L195 -185 L200 -185 L200 -190 L195 -190 L195 -185 L190 -185 L190 -190 L195 -190 L195 -195 L200 -195 L200 -190 L205 -190 L205 -195 L200 -195 L200 -200 L205 -200 L205 -195 L210 -195 L210 -190 L205 -190 L205 -185 L210 -185 L210 -190 L215 -190 L215 -185 L210 -185 L210 -180 L215 -180 L215 -175 L220 -175 L220 -180 L215 -180 L215 -185 L220 -185 L220 -180 L225 -180 L225 -175 L220 -175 L220 -170 L225 -170 L225 -175 L230 -175 L230 -170 L225 -170 L225 -165 L220 -165 L220 -170 L215 -170 L215 -165 L220 -165 L220 -160 L215 -160 L215 -165 L210 -165 L210 -160 L205 -160 L205 -155 L210 -155 L210 -160 L215 -160 L215 -155 L210 -155 L210 -150 L215 -150 L215 -145 L220 -145 L220 -150 L215 -150 L215 -155 L220 -155 L220 -150 L225 -150 L225 -155 L230 -155 L230 -160 L225 -160 L225 -155 L220 -155 L220 -160 L225 -160 L225 -165 L230 -165 L230 -160 L235 -160 L235 -165 L230 -165 L230 -170 L235 -170 L235 -165 L240 -165 L240 -160 L235 -160 L235 -155 L240 -155 L240 -160 L245 -160 L245 -155 L240 -155 L240 -150 L235 -150 L235 -155 L230 -155 L230 -150 L235 -150 L235 -145 L230 -145 L230 -150 L225 -150 L225 -145 L220 -145 L220 -140 L225 -140 L225 -145 L230 -145 L230 -140 L225 -140 L225 -135 L230 -135 L230 -130 L235 -130 L235 -135 L230 -135 L230 -140 L235 -140 L235 -135 L240 -135 L240 -130 L235 -130 L235 -125 L240 -125 L240 -130 L245 -130 L245 -125 L240 -125 L240 -120 L245 -120 L245 -115 L250 -115 L250 -120 L245 -120 L245 -125 L250 -125 L250 -120 L255 -120 L255 -125 L260 -125 L260 -130 L255 -130 L255 -125 L250 -125 L250 -130 L255 -130 L255 -135 L250 -135 L250 -140 L245 -140 L245 -135 L250 -135 L250 -130 L245 -130 L245 -135 L240 -135 L240 -140 L245 -140 L245 -145 L240 -145 L240 -140 L235 -140 L235 -145 L240 -145 L240 -150 L245 -150 L245 -145 L250 -145 L250 -150 L245 -150 L245 -155 L250 -155 L250 -150 L255 -150 L255 -145 L250 -145 L250 -140 L255 -140 L255 -145 L260 -145 L260 -140 L255 -140 L255 -135 L260 -135 L260 -130 L265 -130 L265 -135 L260 -135 L260 -140 L265 -140 L265 -135 L270 -135 L270 -130 L265 -130 L265 -125 L270 -125 L270 -130 L275 -130 L275 -125 L270 -125 L270 -120 L265 -120 L265 -125 L260 -125 L260 -120 L265 -120 L265 -115 L260 -115 L260 -120 L255 -120 L255 -115 L250 -115 L250 -110 L255 -110 L255 -115 L260 -115 L260 -110 L255 -110 L255 -105 L260 -105 L260 -100 L265 -100 L265 -105 L260 -105 L260 -110 L265 -110 L265 -105 L270 -105 L270 -110 L275 -110 L275 -115 L270 -115 L270 -110 L265 -110 L265 -115 L270 -115 L270 -120 L275 -120 L275 -115 L280 -115 L280 -120 L275 -120 L275 -125 L280 -125 L280 -120 L285 -120 L285 -115 L280 -115 L280 -110 L285 -110 L285 -115 L290 -115 L290 -110 L285 -110 L285 -105 L280 -105 L280 -110 L275 -110 L275 -105 L280 -105 L280 -100 L275 -100 L275 -105 L270 -105 L270 -100 L265 -100 L265 -95 L270 -95 L270 -100 L275 -100 L275 -95 L270 -95 L270 -90 L265 -90 L265 -95 L260 -95 L260 -90 L265 -90 L265 -85 L260 -85 L260 -90 L255 -90 L255 -95 L260 -95 L260 -100 L255 -100 L255 -95 L250 -95 L250 -100 L255 -100 L255 -105 L250 -105 L250 -110 L245 -110 L245 -105 L250 -105 L250 -100 L245 -100 L245 -105 L240 -105 L240 -100 L235 -100 L235 -95 L240 -95 L240 -100 L245 -100 L245 -95 L240 -95 L240 -90 L245 -90 L245 -85 L250 -85 L250 -90 L245 -90 L245 -95 L250 -95 L250 -90 L255 -90 L255 -85 L250 -85 L250 -80 L255 -80 L255 -85 L260 -85 L260 -80 L255 -80 L255 -75 L250 -75 L250 -80 L245 -80 L245 -75 L250 -75 L250 -70 L245 -70 L245 -75 L240 -75 L240 -80 L245 -80 L245 -85 L240 -85 L240 -80 L235 -80 L235 -85 L240 -85 L240 -90 L235 -90 L235 -95 L230 -95 L230 -90 L235 -90 L235 -85 L230 -85 L230 -90 L225 -90 L225 -85 L220 -85 L220 -80 L225 -80 L225 -85 L230 -85 L230 -80 L225 -80 L225 -75 L220 -75 L220 -80 L215 -80 L215 -75 L220 -75 L220 -70 L215 -70 L215 -75 L210 -75 L210 -70 L205 -70 L205 -65 L210 -65 L210 -70 L215 -70 L215 -65 L210 -65 L210 -60 L215 -60 L215 -55 L220 -55 L220 -60 L215 -60 L215 -65 L220 -65 L220 -60 L225 -60 L225 -65 L230 -65 L230 -70 L225 -70 L225 -65 L220 -65 L220 -70 L225 -70 L225 -75 L230 -75 L230 -70 L235 -70 L235 -75 L230 -75 L230 -80 L235 -80 L235 -75 L240 -75 L240 -70 L235 -70 L235 -65 L240 -65 L240 -70 L245 -70 L245 -65 L240 -65 L240 -60 L235 -60 L235 -65 L230 -65 L230 -60 L235 -60 L235 -55 L230 -55 L230 -60 L225 -60 L225 -55 L220 -55 L220 -50 L225 -50 L225 -55 L230 -55 L230 -50 L225 -50 L225 -45 L230 -45 L230 -40 L235 -40 L235 -45 L230 -45 L230 -50 L235 -50 L235 -45 L240 -45 L240 -40 L235 -40 L235 -35 L240 -35 L240 -40 L245 -40 L245 -35 L240 -35 L240 -30 L245 -30 L245 -25 L250 -25 L250 -30 L245 -30 L245 -35 L250 -35 L250 -30 L255 -30 L255 -35 L260 -35 L260 -40 L255 -40 L255 -35 L250 -35 L250 -40 L255 -40 L255 -45 L250 -45 L250 -50 L245 -50 L245 -45 L250 -45 L250 -40 L245 -40 L245 -45 L240 -45 L240 -50 L245 -50 L245 -55 L240 -55 L240 -50 L235 -50 L235 -55 L240 -55 L240 -60 L245 -60 L245 -55 L250 -55 L250 -60 L245 -60 L245 -65 L250 -65 L250 -60 L255 -60 L255 -55 L250 -55 L250 -50 L255 -50 L255 -55 L260 -55 L260 -50 L255 -50 L255 -45 L260 -45 L260 -40 L265 -40 L265 -45 L260 -45 L260 -50 L265 -50 L265 -45 L270 -45 L270 -50 L275 -50 L275 -55 L270 -55 L270 -50 L265 -50 L265 -55 L270 -55 L270 -60 L275 -60 L275 -55 L280 -55 L280 -60 L275 -60 L275 -65 L280 -65 L280 -60 L285 -60 L285 -65 L290 -65 L290 -70 L285 -70 L285 -65 L280 -65 L280 -70 L285 -70 L285 -75 L280 -75 L280 -80 L275 -80 L275 -75 L280 -75 L280 -70 L275 -70 L275 -75 L270 -75 L270 -70 L265 -70 L265 -65 L270 -65 L270 -70 L275 -70 L275 -65 L270 -65 L270 -60 L265 -60 L265 -65 L260 -65 L260 -60 L265 -60 L265 -55 L260 -55 L260 -60 L255 -60 L255 -65 L260 -65 L260 -70 L255 -70 L255 -65 L250 -65 L250 -70 L255 -70 L255 -75 L260 -75 L260 -70 L265 -70 L265 -75 L260 -75 L260 -80 L265 -80 L265 -75 L270 -75 L270 -80 L275 -80 L275 -85 L270 -85 L270 -80 L265 -80 L265 -85 L270 -85 L270 -90 L275 -90 L275 -85 L280 -85 L280 -90 L275 -90 L275 -95 L280 -95 L280 -90 L285 -90 L285 -85 L280 -85 L280 -80 L285 -80 L285 -85 L290 -85 L290 -80 L285 -80 L285 -75 L290 -75 L290 -70 L295 -70 L295 -75 L290 -75 L290 -80 L295 -80 L295 -75 L300 -75 L300 -80 L305 -80 L305 -85 L300 -85 L300 -80 L295 -80 L295 -85 L300 -85 L300 -90 L295 -90 L295 -95 L290 -95 L290 -90 L295 -90 L295 -85 L290 -85 L290 -90 L285 -90 L285 -95 L290 -95 L290 -100 L285 -100 L285 -95 L280 -95 L280 -100 L285 -100 L285 -105 L290 -105 L290 -100 L295 -100 L295 -105 L290 -105 L290 -110 L295 -110 L295 -105 L300 -105 L300 -100 L295 -100 L295 -95 L300 -95 L300 -100 L305 -100 L305 -95 L300 -95 L300 -90 L305 -90 L305 -85 L310 -85 L310 -90 L305 -90 L305 -95 L310 -95 L310 -90 L315 -90 L315 -85 L310 -85 L310 -80 L315 -80 L315 -85 L320 -85 L320 -80 L315 -80 L315 -75 L310 -75 L310 -80 L305 -80 L305 -75 L310 -75 L310 -70 L305 -70 L305 -75 L300 -75 L300 -70 L295 -70 L295 -65 L300 -65 L300 -70 L305 -70 L305 -65 L300 -65 L300 -60 L305 -60 L305 -55 L310 -55 L310 -60 L305 -60 L305 -65 L310 -65 L310 -60 L315 -60 L315 -65 L320 -65 L320 -70 L315 -70 L315 -65 L310 -65 L310 -70 L315 -70 L315 -75 L320 -75 L320 -70 L325 -70 L325 -75 L320 -75 L320 -80 L325 -80 L325 -75 L330 -75 L330 -70 L325 -70 L325 -65 L330 -65 L330 -70 L335 -70 L335 -65 L330 -65 L330 -60 L325 -60 L325 -65 L320 -65 L320 -60 L325 -60 L325 -55 L320 -55 L320 -60 L315 -60 L315 -55 L310 -55 L310 -50 L315 -50 L315 -55 L320 -55 L320 -50 L315 -50 L315 -45 L310 -45 L310 -50 L305 -50 L305 -45 L310 -45 L310 -40 L305 -40 L305 -45 L300 -45 L300 -50 L305 -50 L305 -55 L300 -55 L300 -50 L295 -50 L295 -55 L300 -55 L300 -60 L295 -60 L295 -65 L290 -65 L290 -60 L295 -60 L295 -55 L290 -55 L290 -60 L285 -60 L285 -55 L280 -55 L280 -50 L285 -50 L285 -55 L290 -55 L290 -50 L285 -50 L285 -45 L290 -45 L290 -40 L295 -40 L295 -45 L290 -45 L290 -50 L295 -50 L295 -45 L300 -45 L300 -40 L295 -40 L295 -35 L300 -35 L300 -40 L305 -40 L305 -35 L300 -35 L300 -30 L295 -30 L295 -35 L290 -35 L290 -30 L295 -30 L295 -25 L290 -25 L290 -30 L285 -30 L285 -35 L290 -35 L290 -40 L285 -40 L285 -35 L280 -35 L280 -40 L285 -40 L285 -45 L280 -45 L280 -50 L275 -50 L275 -45 L280 -45 L280 -40 L275 -40 L275 -45 L270 -45 L270 -40 L265 -40 L265 -35 L270 -35 L270 -40 L275 -40 L275 -35 L270 -35 L270 -30 L265 -30 L265 -35 L260 -35 L260 -30 L265 -30 L265 -25 L260 -25 L260 -30 L255 -30 L255 -25 L250 -25 L250 -20 L255 -20 L255 -25 L260 -25 L260 -20 L255 -20 L255 -15 L260 -15 L260 -10 L265 -10 L265 -15 L260 -15 L260 -20 L265 -20 L265 -15 L270 -15 L270 -20 L275 -20 L275 -25 L270 -25 L270 -20 L265 -20 L265 -25 L270 -25 L270 -30 L275 -30 L275 -25 L280 -25 L280 -30 L275 -30 L275 -35 L280 -35 L280 -30 L285 -30 L285 -25 L280 -25 L280 -20 L285 -20 L285 -25 L290 -25 L290 -20 L285 -20 L285 -15 L280 -15 L280 -20 L275 -20 L275 -15 L280 -15 L280 -10 L275 -10 L275 -15 L270 -15 L270 -10 L265 -10 L265 -5 L270 -5 L270 -10 L275 -10 L275 -5 L270 -5 L270 8.88178e-16 L275 8.88178e-16 L275 5 L280 5 L280 8.88178e-16 L275 2.75855e-16 L275 -5 L280 -5 L280 0 L285 2.95823e-31 L285 5 L280 5 L280 10 L285 10 L285 5 L290 5 L290 10 L285 10 L285 15 L290 15 L290 20 L295 20 L295 15 L290 15 L290 10 L295 10 L295 15 L300 15 L300 10 L305 10 L305 5 L300 5 L300 10 L295 10 L295 5 L300 5 L300 0 L295 -6.12323e-16 L295 -5 L290 -5 L290 -1.77636e-15 L295 -5.5171e-16 L295 5 L290 5 L290 -1.77636e-15 L285 -2.38868e-15 L285 -5 L290 -5 L290 -10 L285 -10 L285 -5 L280 -5 L280 -10 L285 -10 L285 -15 L290 -15 L290 -10 L295 -10 L295 -15 L290 -15 L290 -20 L295 -20 L295 -15 L300 -15 L300 -10 L295 -10 L295 -5 L300 -5 L300 -10 L305 -10 L305 -5 L300 -5 L300 -2.66454e-15 L305 -2.66454e-15 L305 5 L310 5 L310 -2.66454e-15 L305 -3.27686e-15 L305 -5 L310 -5 L310 -3.55271e-15 L315 -3.55271e-15 L315 5 L310 5 L310 10 L315 10 L315 5 L320 5 L320 10 L315 10 L315 15 L310 15 L310 10 L305 10 L305 15 L310 15 L310 20 L305 20 L305 15 L300 15 L300 20 L295 20 L295 25 L300 25 L300 20 L305 20 L305 25 L300 25 L300 30 L305 30 L305 35 L310 35 L310 30 L305 30 L305 25 L310 25 L310 30 L315 30 L315 25 L320 25 L320 20 L315 20 L315 25 L310 25 L310 20 L315 20 L315 15 L320 15 L320 20 L325 20 L325 15 L320 15 L320 10 L325 10 L325 15 L330 15 L330 20 L325 20 L325 25 L330 25 L330 20 L335 20 L335 25 L330 25 L330 30 L325 30 L325 25 L320 25 L320 30 L325 30 L325 35 L320 35 L320 30 L315 30 L315 35 L310 35 L310 40 L315 40 L315 35 L320 35 L320 40 L315 40 L315 45 L320 45 L320 50 L325 50 L325 45 L320 45 L320 40 L325 40 L325 45 L330 45 L330 50 L325 50 L325 55 L330 55 L330 50 L335 50 L335 55 L330 55 L330 60 L335 60 L335 65 L340 65 L340 60 L335 60 L335 55 L340 55 L340 60 L345 60 L345 55 L350 55 L350 50 L345 50 L345 55 L340 55 L340 50 L345 50 L345 45 L340 45 L340 40 L335 40 L335 45 L340 45 L340 50 L335 50 L335 45 L330 45 L330 40 L335 40 L335 35 L330 35 L330 40 L325 40 L325 35 L330 35 L330 30 L335 30 L335 35 L340 35 L340 30 L335 30 L335 25 L340 25 L340 30 L345 30 L345 35 L340 35 L340 40 L345 40 L345 35 L350 35 L350 40 L345 40 L345 45 L350 45 L350 50 L355 50 L355 45 L350 45 L350 40 L355 40 L355 45 L360 45 L360 40 L365 40 L365 35 L360 35 L360 40 L355 40 L355 35 L360 35 L360 30 L365 30 L365 35 L370 35 L370 30 L365 30 L365 25 L370 25 L370 30 L375 30 L375 25 L380 25 L380 20 L375 20 L375 25 L370 25 L370 20 L375 20 L375 15 L370 15 L370 10 L365 10 L365 15 L370 15 L370 20 L365 20 L365 15 L360 15 L360 20 L355 20 L355 25 L360 25 L360 20 L365 20 L365 25 L360 25 L360 30 L355 30 L355 25 L350 25 L350 30 L355 30 L355 35 L350 35 L350 30 L345 30 L345 25 L350 25 L350 20 L345 20 L345 25 L340 25 L340 20 L345 20 L345 15 L350 15 L350 20 L355 20 L355 15 L350 15 L350 10 L355 10 L355 15 L360 15 L360 10 L365 10 L365 5 L360 5 L360 10 L355 10 L355 5 L360 5 L360 0 L355 -6.12323e-16 L355 -5 L350 -5 L350 -1.77636e-15 L355 -5.5171e-16 L355 5 L350 5 L350 -1.77636e-15 L345 -2.38868e-15 L345 -5 L350 -5 L350 -10 L345 -10 L345 -5 L340 -5 L340 -10 L345 -10 L345 -15 L340 -15 L340 -20 L335 -20 L335 -15 L340 -15 L340 -10 L335 -10 L335 -15 L330 -15 L330 -10 L325 -10 L325 -5 L330 -5 L330 -10 L335 -10 L335 -5 L330 -5 L330 8.88178e-16 L335 2.11283e-15 L335 5 L340 5 L340 2.66454e-15 L335 8.27565e-16 L335 -5 L340 -5 L340 1.77636e-15 L345 3.001e-15 L345 5 L340 5 L340 10 L345 10 L345 5 L350 5 L350 10 L345 10 L345 15 L340 15 L340 10 L335 10 L335 15 L340 15 L340 20 L335 20 L335 15 L330 15 L330 10 L335 10 L335 5 L330 5 L330 10 L325 10 L325 5 L330 5 L330 7.10543e-15 L325 6.4931e-15 L325 -5 L320 -5 L320 5.32907e-15 L325 6.55372e-15 L325 5 L320 5 L320 5.32907e-15 L315 4.71675e-15 L315 -5 L320 -5 L320 -10 L315 -10 L315 -5 L310 -5 L310 -10 L315 -10 L315 -15 L320 -15 L320 -10 L325 -10 L325 -15 L320 -15 L320 -20 L325 -20 L325 -15 L330 -15 L330 -20 L335 -20 L335 -25 L330 -25 L330 -20 L325 -20 L325 -25 L330 -25 L330 -30 L325 -30 L325 -35 L320 -35 L320 -30 L325 -30 L325 -25 L320 -25 L320 -30 L315 -30 L315 -25 L310 -25 L310 -20 L315 -20 L315 -25 L320 -25 L320 -20 L315 -20 L315 -15 L310 -15 L310 -20 L305 -20 L305 -15 L310 -15 L310 -10 L305 -10 L305 -15 L300 -15 L300 -20 L305 -20 L305 -25 L300 -25 L300 -20 L295 -20 L295 -25 L300 -25 L300 -30 L305 -30 L305 -25 L310 -25 L310 -30 L305 -30 L305 -35 L310 -35 L310 -30 L315 -30 L315 -35 L320 -35 L320 -40 L315 -40 L315 -35 L310 -35 L310 -40 L315 -40 L315 -45 L320 -45 L320 -40 L325 -40 L325 -45 L320 -45 L320 -50 L325 -50 L325 -45 L330 -45 L330 -40 L325 -40 L325 -35 L330 -35 L330 -40 L335 -40 L335 -35 L330 -35 L330 -30 L335 -30 L335 -25 L340 -25 L340 -30 L335 -30 L335 -35 L340 -35 L340 -30 L345 -30 L345 -35 L350 -35 L350 -40 L345 -40 L345 -35 L340 -35 L340 -40 L345 -40 L345 -45 L340 -45 L340 -50 L335 -50 L335 -45 L340 -45 L340 -40 L335 -40 L335 -45 L330 -45 L330 -50 L335 -50 L335 -55 L330 -55 L330 -50 L325 -50 L325 -55 L330 -55 L330 -60 L335 -60 L335 -55 L340 -55 L340 -60 L335 -60 L335 -65 L340 -65 L340 -60 L345 -60 L345 -55 L340 -55 L340 -50 L345 -50 L345 -55 L350 -55 L350 -50 L345 -50 L345 -45 L350 -45 L350 -40 L355 -40 L355 -45 L350 -45 L350 -50 L355 -50 L355 -45 L360 -45 L360 -40 L355 -40 L355 -35 L360 -35 L360 -40 L365 -40 L365 -35 L360 -35 L360 -30 L355 -30 L355 -35 L350 -35 L350 -30 L355 -30 L355 -25 L350 -25 L350 -30 L345 -30 L345 -25 L340 -25 L340 -20 L345 -20 L345 -25 L350 -25 L350 -20 L345 -20 L345 -15 L350 -15 L350 -10 L355 -10 L355 -15 L350 -15 L350 -20 L355 -20 L355 -15 L360 -15 L360 -20 L365 -20 L365 -25 L360 -25 L360 -20 L355 -20 L355 -25 L360 -25 L360 -30 L365 -30 L365 -25 L370 -25 L370 -30 L365 -30 L365 -35 L370 -35 L370 -30 L375 -30 L375 -25 L370 -25 L370 -20 L375 -20 L375 -25 L380 -25 L380 -20 L375 -20 L375 -15 L370 -15 L370 -20 L365 -20 L365 -15 L370 -15 L370 -10 L365 -10 L365 -15 L360 -15 L360 -10 L355 -10 L355 -5 L360 -5 L360 -10 L365 -10 L365 -5 L360 -5 L360 8.88178e-16 L365 8.88178e-16 L365 5 L370 5 L370 8.88178e-16 L365 2.75855e-16 L365 -5 L370 -5 L370 0 L375 2.95823e-31 L375 5 L370 5 L370 10 L375 10 L375 5 L380 5 L380 10 L375 10 L375 15 L380 15 L380 20 L385 20 L385 15 L380 15 L380 10 L385 10 L385 15 L390 15 L390 10 L395 10 L395 5 L390 5 L390 10 L385 10 L385 5 L390 5 L390 0 L385 -6.12323e-16 L385 -5 L380 -5 L380 -1.77636e-15 L385 -5.5171e-16 L385 5 L380 5 L380 -1.77636e-15 L375 -2.38868e-15 L375 -5 L380 -5 L380 -10 L375 -10 L375 -5 L370 -5 L370 -10 L375 -10 L375 -15 L380 -15 L380 -10 L385 -10 L385 -15 L380 -15 L380 -20 L385 -20 L385 -15 L390 -15 L390 -10 L385 -10 L385 -5 L390 -5 L390 -10 L395 -10 L395 -5 L390 -5 L390 -2.66454e-15 L395 -2.66454e-15 L395 5 L400 5 L400 -2.66454e-15 L395 -3.27686e-15 L395 -5 L400 -5 L400 -3.55271e-15 L405 -3.55271e-15"/>
</svg>
