<?xml version="1.0" encoding="UTF-8"?>
<svg xmlns="http://www.w3.org/2000/svg"
 version="1.1" baseProfile="basic"
 viewBox="-36 -61 256 176"
 width="1280px" height="1024px"
 stroke="white" stroke-width="1px"
 fill="black" fill-opacity="0">
<rect x="-36" y="-61" width="256" height="176" stroke-width="0px" fill-opacity="1"/>
<path d="M0 0 L0 0 L5 2.66454e-15 L5 5 L-1.77636e-15 5 L-3.55271e-15 10 L-5 10 L-5 5 L-10 5 L-10 10 L-15 10 L-15 5 L-10 5 L-10 -3.55271e-15 L-15 -4.88498e-15 L-15 -5 L-20 -5 L-20 -7.10543e-15 L-25 -8.43769e-15 L-25 -5 L-20 -5 L-20 -10 L-15 -10 L-15 -5 L-10 -5 L-10 -10 L-15 -10 L-15 -15 L-10 -15 L-10 -20 L-15 -20 L-15 -25 L-20 -25 L-20 -20 L-25 -20 L-25 -25 L-20 -25 L-20 -30 L-15 -30 L-15 -25 L-10 -25 L-10 -30 L-5 -30 L-5 -25 L-10 -25 L-10 -20 L-5 -20 L-5 -15 L-6.21725e-15 -15 L-5.32907e-15 -20 L-5 -20 L-5 -25 L-5.32907e-15 -25 L-4.44089e-15 -30 L5 -30 L5 -25 L10 -25 L10 -30 L5 -30 L5 -35 L10 -35 L10 -40 L5 -40 L5 -45 L-3.55271e-15 -45 L-5.32907e-15 -40 L-5 -40 L-5 -45 L-5.32907e-15 -45 L-4.44089e-15 -50 L5 -50 L5 -45 L10 -45 L10 -50 L15 -50 L15 -45 L10 -45 L10 -40 L15 -40 L15 -35 L20 -35 L20 -40 L25 -40 L25 -35 L20 -35 L20 -30 L15 -30 L15 -35 L10 -35 L10 -30 L15 -30 L15 -25 L10 -25 L10 -20 L15 -20 L15 -15 L20 -15 L20 -20 L15 -20 L15 -25 L20 -25 L20 -30 L25 -30 L25 -25 L30 -25 L30 -30 L35 -30 L35 -25 L30 -25 L30 -20 L35 -20 L35 -15 L40 -15 L40 -20 L35 -20 L35 -25 L40 -25 L40 -30 L45 -30 L45 -25 L50 -25 L50 -30 L45 -30 L45 -35 L50 -35 L50 -40 L45 -40 L45 -45 L40 -45 L40 -40 L35 -40 L35 -45 L40 -45 L40 -50 L45 -50 L45 -45 L50 -45 L50 -50 L55 -50 L55 -45 L50 -45 L50 -40 L55 -40 L55 -35 L60 -35 L60 -40 L65 -40 L65 -35 L60 -35 L60 -30 L55 -30 L55 -35 L50 -35 L50 -30 L55 -30 L55 -25 L50 -25 L50 -20 L55 -20 L55 -15 L60 -15 L60 -20 L65 -20 L65 -15 L60 -15 L60 -10 L55 -10 L55 -15 L50 -15 L50 -10 L45 -10 L45 -15 L50 -15 L50 -20 L45 -20 L45 -25 L40 -25 L40 -20 L45 -20 L45 -15 L40 -15 L40 -10 L35 -10 L35 -15 L30 -15 L30 -10 L35 -10 L35 -5 L30 -5 L30 -3.55271e-15 L35 -3.55271e-15 L35 5 L40 5 L40 -3.55271e-15 L35 -4.88498e-15 L35 -5 L40 -5 L40 -10 L45 -10 L45 -5 L50 -5 L50 -10 L55 -10 L55 -5 L50 -5 L50 -3.55271e-15 L55 -3.55271e-15 L55 5 L60 5 L60 -3.55271e-15 L65 -3.55271e-15 L65 5 L60 5 L60 10 L55 10 L55 5 L50 5 L50 10 L55 10 L55 15 L50 15 L50 20 L55 20 L55 25 L60 25 L60 20 L55 20 L55 15 L60 15 L60 10 L65 10 L65 15 L70 15 L70 10 L75 10 L75 15 L70 15 L70 20 L75 20 L75 25 L80 25 L80 20 L75 20 L75 15 L80 15 L80 10 L85 10 L85 15 L90 15 L90 10 L85 10 L85 5 L90 5 L90 5.32907e-15 L85 3.9968e-15 L85 -5 L80 -5 L80 1.77636e-15 L75 4.44089e-16 L75 -5 L80 -5 L80 -10 L85 -10 L85 -5 L90 -5 L90 -10 L95 -10 L95 -5 L90 -5 L90 1.77636e-15 L95 1.77636e-15 L95 5 L100 5 L100 1.77636e-15 L105 1.77636e-15 L105 5 L100 5 L100 10 L95 10 L95 5 L90 5 L90 10 L95 10 L95 15 L90 15 L90 20 L95 20 L95 25 L100 25 L100 20 L105 20 L105 25 L100 25 L100 30 L95 30 L95 25 L90 25 L90 30 L85 30 L85 25 L90 25 L90 20 L85 20 L85 15 L80 15 L80 20 L85 20 L85 25 L80 25 L80 30 L75 30 L75 25 L70 25 L70 30 L75 30 L75 35 L70 35 L70 40 L75 40 L75 45 L80 45 L80 40 L85 40 L85 45 L80 45 L80 50 L75 50 L75 45 L70 45 L70 50 L65 50 L65 45 L70 45 L70 40 L65 40 L65 35 L60 35 L60 40 L55 40 L55 35 L60 35 L60 30 L65 30 L65 35 L70 35 L70 30 L65 30 L65 25 L70 25 L70 20 L65 20 L65 15 L60 15 L60 20 L65 20 L65 25 L60 25 L60 30 L55 30 L55 25 L50 25 L50 30 L45 30 L45 25 L50 25 L50 20 L45 20 L45 15 L40 15 L40 20 L45 20 L45 25 L40 25 L40 30 L35 30 L35 25 L30 25 L30 30 L35 30 L35 35 L30 35 L30 40 L35 40 L35 45 L40 45 L40 40 L35 40 L35 35 L40 35 L40 30 L45 30 L45 35 L50 35 L50 30 L55 30 L55 35 L50 35 L50 40 L55 40 L55 45 L60 45 L60 40 L65 40 L65 45 L60 45 L60 50 L55 50 L55 45 L50 45 L50 50 L55 50 L55 55 L50 55 L50 60 L55 60 L55 65 L60 65 L60 60 L65 60 L65 65 L60 65 L60 70 L55 70 L55 65 L50 65 L50 70 L45 70 L45 65 L50 65 L50 60 L45 60 L45 55 L40 55 L40 60 L45 60 L45 65 L40 65 L40 70 L35 70 L35 65 L30 65 L30 70 L35 70 L35 75 L30 75 L30 80 L35 80 L35 85 L40 85 L40 80 L35 80 L35 75 L40 75 L40 70 L45 70 L45 75 L50 75 L50 70 L55 70 L55 75 L50 75 L50 80 L55 80 L55 85 L60 85 L60 80 L65 80 L65 85 L60 85 L60 90 L55 90 L55 85 L50 85 L50 90 L55 90 L55 95 L50 95 L50 100 L55 100 L55 105 L60 105 L60 100 L55 100 L55 95 L60 95 L60 90 L65 90 L65 95 L70 95 L70 90 L75 90 L75 95 L70 95 L70 100 L75 100 L75 105 L80 105 L80 100 L75 100 L75 95 L80 95 L80 90 L85 90 L85 95 L90 95 L90 90 L85 90 L85 85 L90 85 L90 80 L85 80 L85 75 L80 75 L80 80 L85 80 L85 85 L80 85 L80 90 L75 90 L75 85 L70 85 L70 90 L65 90 L65 85 L70 85 L70 80 L65 80 L65 75 L60 75 L60 80 L55 80 L55 75 L60 75 L60 70 L65 70 L65 75 L70 75 L70 70 L65 70 L65 65 L70 65 L70 60 L65 60 L65 55 L60 55 L60 60 L55 60 L55 55 L60 55 L60 50 L65 50 L65 55 L70 55 L70 50 L75 50 L75 55 L70 55 L70 60 L75 60 L75 65 L80 65 L80 60 L75 60 L75 55 L80 55 L80 50 L85 50 L85 55 L90 55 L90 50 L85 50 L85 45 L90 45 L90 40 L85 40 L85 35 L80 35 L80 40 L75 40 L75 35 L80 35 L80 30 L85 30 L85 35 L90 35 L90 30 L95 30 L95 35 L90 35 L90 40 L95 40 L95 45 L100 45 L100 40 L105 40 L105 45 L100 45 L100 50 L95 50 L95 45 L90 45 L90 50 L95 50 L95 55 L90 55 L90 60 L95 60 L95 65 L100 65 L100 60 L95 60 L95 55 L100 55 L100 50 L105 50 L105 55 L110 55 L110 50 L115 50 L115 55 L110 55 L110 60 L115 60 L115 65 L120 65 L120 60 L115 60 L115 55 L120 55 L120 50 L125 50 L125 55 L130 55 L130 50 L125 50 L125 45 L130 45 L130 40 L125 40 L125 35 L120 35 L120 40 L115 40 L115 35 L120 35 L120 30 L125 30 L125 35 L130 35 L130 30 L135 30 L135 35 L130 35 L130 40 L135 40 L135 45 L140 45 L140 40 L145 40 L145 45 L140 45 L140 50 L135 50 L135 45 L130 45 L130 50 L135 50 L135 55 L130 55 L130 60 L135 60 L135 65 L140 65 L140 60 L145 60 L145 65 L140 65 L140 70 L135 70 L135 65 L130 65 L130 70 L125 70 L125 65 L130 65 L130 60 L125 60 L125 55 L120 55 L120 60 L125 60 L125 65 L120 65 L120 70 L115 70 L115 65 L110 65 L110 70 L115 70 L115 75 L110 75 L110 80 L115 80 L115 85 L120 85 L120 80 L115 80 L115 75 L120 75 L120 70 L125 70 L125 75 L130 75 L130 70 L135 70 L135 75 L130 75 L130 80 L135 80 L135 85 L140 85 L140 80 L145 80 L145 85 L140 85 L140 90 L135 90 L135 85 L130 85 L130 90 L135 90 L135 95 L130 95 L130 100 L135 100 L135 105 L140 105 L140 100 L135 100 L135 95 L140 95 L140 90 L145 90 L145 95 L150 95 L150 90 L155 90 L155 95 L150 95 L150 100 L155 100 L155 105 L160 105 L160 100 L155 100 L155 95 L160 95 L160 90 L165 90 L165 95 L170 95 L170 90 L165 90 L165 85 L170 85 L170 80 L165 80 L165 75 L160 75 L160 80 L165 80 L165 85 L160 85 L160 90 L155 90 L155 85 L150 85 L150 90 L145 90 L145 85 L150 85 L150 80 L145 80 L145 75 L140 75 L140 80 L135 80 L135 75 L140 75 L140 70 L145 70 L145 75 L150 75 L150 70 L145 70 L145 65 L150 65 L150 60 L145 60 L145 55 L140 55 L140 60 L135 60 L135 55 L140 55 L140 50 L145 50 L145 55 L150 55 L150 50 L155 50 L155 55 L150 55 L150 60 L155 60 L155 65 L160 65 L160 60 L155 60 L155 55 L160 55 L160 50 L165 50 L165 55 L170 55 L170 50 L165 50 L165 45 L170 45 L170 40 L165 40 L165 35 L160 35 L160 40 L155 40 L155 35 L160 35 L160 30 L165 30 L165 35 L170 35 L170 30 L175 30 L175 35 L170 35 L170 40 L175 40 L175 45 L180 45 L180 40 L185 40 L185 45 L180 45 L180 50 L175 50 L175 45 L170 45 L170 50 L175 50 L175 55 L170 55 L170 60 L175 60 L175 65 L180 65 L180 60 L175 60 L175 55 L180 55 L180 50 L185 50 L185 55 L190 55 L190 50 L195 50 L195 55 L190 55 L190 60 L195 60 L195 65 L200 65 L200 60 L195 60 L195 55 L200 55 L200 50 L205 50 L205 55 L210 55 L210 50 L205 50 L205 45 L210 45 L210 40 L205 40 L205 35 L200 35 L200 40 L205 40 L205 45 L200 45 L200 50 L195 50 L195 45 L190 45 L190 50 L185 50 L185 45 L190 45 L190 40 L185 40 L185 35 L180 35 L180 40 L175 40 L175 35 L180 35 L180 30 L185 30 L185 35 L190 35 L190 30 L185 30 L185 25 L190 25 L190 20 L185 20 L185 15 L180 15 L180 20 L175 20 L175 15 L180 15 L180 10 L185 10 L185 15 L190 15 L190 10 L195 10 L195 15 L190 15 L190 20 L195 20 L195 25 L200 25 L200 20 L195 20 L195 15 L200 15 L200 10 L205 10 L205 15 L210 15 L210 10 L205 10 L205 5 L210 5 L210 -1.77636e-15 L205 -3.10862e-15 L205 -5 L200 -5 L200 -5.32907e-15 L205 -2.66454e-15 L205 5 L200 5 L200 10 L195 10 L195 5 L190 5 L190 10 L185 10 L185 5 L190 5 L190 -8.88178e-15 L185 -1.02141e-14 L185 -5 L180 -5 L180 -1.24345e-14 L175 -1.37668e-14 L175 -5 L180 -5 L180 -10 L185 -10 L185 -5 L190 -5 L190 -10 L185 -10 L185 -15 L190 -15 L190 -20 L185 -20 L185 -25 L180 -25 L180 -20 L185 -20 L185 -15 L180 -15 L180 -10 L175 -10 L175 -15 L170 -15 L170 -10 L165 -10 L165 -15 L170 -15 L170 -20 L165 -20 L165 -25 L160 -25 L160 -20 L165 -20 L165 -15 L160 -15 L160 -10 L155 -10 L155 -15 L150 -15 L150 -10 L155 -10 L155 -5 L150 -5 L150 -1.95399e-14 L155 -1.68754e-14 L155 5 L160 5 L160 -1.42109e-14"/>
</svg>
