<?xml version="1.0" encoding="UTF-8"?>
<svg xmlns="http://www.w3.org/2000/svg"
 version="1.1" baseProfile="basic"
 viewBox="-61 -116 496 336"
 width="1280px" height="1024px"
 stroke="white" stroke-width="1px"
 fill="black" fill-opacity="0">
<rect x="-61" y="-116" width="496" height="336" stroke-width="0px" fill-opacity="1"/>
<path d="M0 0 L0 0 L3.10862e-15 -5 L5 -5 L5 2.66454e-15 L10 5.32907e-15 L10 5 L5 5 L5 10 L10 10 L10 15 L5 15 L5 10 L-3.55271e-15 10 L-5.32907e-15 15 L-5 15 L-5 20 L-7.10543e-15 20 L-8.88178e-15 25 L-5 25 L-5 20 L-10 20 L-10 15 L-5 15 L-5 10 L-10 10 L-10 15 L-15 15 L-15 10 L-20 10 L-20 15 L-25 15 L-25 20 L-20 20 L-20 25 L-25 25 L-25 20 L-30 20 L-30 15 L-25 15 L-25 10 L-30 10 L-30 5 L-25 5 L-25 10 L-20 10 L-20 5 L-15 5 L-15 -1.77636e-15 L-20 -3.10862e-15 L-20 5 L-25 5 L-25 -5.32907e-15 L-30 -6.66134e-15 L-30 -5 L-25 -5 L-25 -10 L-30 -10 L-30 -5 L-35 -5 L-35 -10 L-40 -10 L-40 -5 L-45 -5 L-45 -1.42109e-14 L-40 -1.15463e-14 L-40 5 L-45 5 L-45 -1.24345e-14 L-50 -1.37668e-14 L-50 -5 L-45 -5 L-45 -10 L-50 -10 L-50 -15 L-45 -15 L-45 -10 L-40 -10 L-40 -15 L-35 -15 L-35 -20 L-40 -20 L-40 -25 L-35 -25 L-35 -20 L-30 -20 L-30 -15 L-35 -15 L-35 -10 L-30 -10 L-30 -15 L-25 -15 L-25 -10 L-20 -10 L-20 -15 L-15 -15 L-15 -20 L-20 -20 L-20 -15 L-25 -15 L-25 -20 L-30 -20 L-30 -25 L-25 -25 L-25 -30 L-30 -30 L-30 -35 L-25 -35 L-25 -30 L-20 -30 L-20 -35 L-15 -35 L-15 -40 L-20 -40 L-20 -35 L-25 -35 L-25 -40 L-30 -40 L-30 -45 L-25 -45 L-25 -50 L-30 -50 L-30 -45 L-35 -45 L-35 -50 L-40 -50 L-40 -45 L-45 -45 L-45 -40 L-40 -40 L-40 -35 L-45 -35 L-45 -40 L-50 -40 L-50 -45 L-45 -45 L-45 -50 L-50 -50 L-50 -55 L-45 -55 L-45 -50 L-40 -50 L-40 -55 L-35 -55 L-35 -60 L-40 -60 L-40 -65 L-35 -65 L-35 -60 L-30 -60 L-30 -55 L-35 -55 L-35 -50 L-30 -50 L-30 -55 L-25 -55 L-25 -50 L-20 -50 L-20 -55 L-15 -55 L-15 -60 L-20 -60 L-20 -65 L-15 -65 L-15 -60 L-10 -60 L-10 -55 L-15 -55 L-15 -50 L-10 -50 L-10 -45 L-15 -45 L-15 -50 L-20 -50 L-20 -45 L-25 -45 L-25 -40 L-20 -40 L-20 -45 L-15 -45 L-15 -40 L-10 -40 L-10 -35 L-15 -35 L-15 -30 L-10 -30 L-10 -35 L-5 -35 L-5 -30 L-6.21725e-15 -30 L-5.32907e-15 -35 L5 -35 L5 -40 L-5.32907e-15 -40 L-7.10543e-15 -35 L-5 -35 L-5 -40 L-10 -40 L-10 -45 L-5 -45 L-5 -50 L-10 -50 L-10 -55 L-5 -55 L-5 -50 L-6.21725e-15 -50 L-5.32907e-15 -55 L5 -55 L5 -60 L-5.32907e-15 -60 L-4.44089e-15 -65 L5 -65 L5 -60 L10 -60 L10 -55 L5 -55 L5 -50 L10 -50 L10 -55 L15 -55 L15 -50 L20 -50 L20 -55 L25 -55 L25 -60 L20 -60 L20 -55 L15 -55 L15 -60 L10 -60 L10 -65 L15 -65 L15 -70 L10 -70 L10 -75 L15 -75 L15 -70 L20 -70 L20 -75 L25 -75 L25 -80 L20 -80 L20 -75 L15 -75 L15 -80 L10 -80 L10 -85 L15 -85 L15 -90 L10 -90 L10 -85 L5 -85 L5 -90 L-8.88178e-15 -90 L-1.06581e-14 -85 L-5 -85 L-5 -80 L-1.24345e-14 -80 L-1.42109e-14 -75 L-5 -75 L-5 -80 L-10 -80 L-10 -85 L-5 -85 L-5 -90 L-10 -90 L-10 -95 L-5 -95 L-5 -90 L-1.33227e-14 -90 L-1.24345e-14 -95 L5 -95 L5 -100 L-1.24345e-14 -100 L-1.15463e-14 -105 L5 -105 L5 -100 L10 -100 L10 -95 L5 -95 L5 -90 L10 -90 L10 -95 L15 -95 L15 -90 L20 -90 L20 -95 L25 -95 L25 -100 L20 -100 L20 -105 L25 -105 L25 -100 L30 -100 L30 -95 L25 -95 L25 -90 L30 -90 L30 -85 L25 -85 L25 -90 L20 -90 L20 -85 L15 -85 L15 -80 L20 -80 L20 -85 L25 -85 L25 -80 L30 -80 L30 -75 L25 -75 L25 -70 L30 -70 L30 -75 L35 -75 L35 -70 L40 -70 L40 -75 L45 -75 L45 -80 L40 -80 L40 -85 L45 -85 L45 -80 L50 -80 L50 -75 L45 -75 L45 -70 L50 -70 L50 -65 L45 -65 L45 -70 L40 -70 L40 -65 L35 -65 L35 -60 L40 -60 L40 -55 L35 -55 L35 -60 L30 -60 L30 -65 L35 -65 L35 -70 L30 -70 L30 -65 L25 -65 L25 -70 L20 -70 L20 -65 L15 -65 L15 -60 L20 -60 L20 -65 L25 -65 L25 -60 L30 -60 L30 -55 L25 -55 L25 -50 L30 -50 L30 -45 L25 -45 L25 -50 L20 -50 L20 -45 L15 -45 L15 -40 L20 -40 L20 -45 L25 -45 L25 -40 L30 -40 L30 -35 L25 -35 L25 -30 L30 -30 L30 -35 L35 -35 L35 -30 L40 -30 L40 -35 L45 -35 L45 -40 L40 -40 L40 -35 L35 -35 L35 -40 L30 -40 L30 -45 L35 -45 L35 -50 L30 -50 L30 -55 L35 -55 L35 -50 L40 -50 L40 -55 L45 -55 L45 -60 L40 -60 L40 -65 L45 -65 L45 -60 L50 -60 L50 -55 L45 -55 L45 -50 L50 -50 L50 -55 L55 -55 L55 -50 L60 -50 L60 -55 L65 -55 L65 -60 L60 -60 L60 -65 L65 -65 L65 -60 L70 -60 L70 -55 L65 -55 L65 -50 L70 -50 L70 -45 L65 -45 L65 -50 L60 -50 L60 -45 L55 -45 L55 -40 L60 -40 L60 -45 L65 -45 L65 -40 L70 -40 L70 -35 L65 -35 L65 -30 L70 -30 L70 -35 L75 -35 L75 -30 L80 -30 L80 -35 L85 -35 L85 -40 L80 -40 L80 -35 L75 -35 L75 -40 L70 -40 L70 -45 L75 -45 L75 -50 L70 -50 L70 -55 L75 -55 L75 -50 L80 -50 L80 -55 L85 -55 L85 -60 L80 -60 L80 -65 L85 -65 L85 -60 L90 -60 L90 -55 L85 -55 L85 -50 L90 -50 L90 -55 L95 -55 L95 -50 L100 -50 L100 -55 L105 -55 L105 -60 L100 -60 L100 -55 L95 -55 L95 -60 L90 -60 L90 -65 L95 -65 L95 -70 L90 -70 L90 -75 L95 -75 L95 -70 L100 -70 L100 -75 L105 -75 L105 -80 L100 -80 L100 -75 L95 -75 L95 -80 L90 -80 L90 -85 L95 -85 L95 -90 L90 -90 L90 -85 L85 -85 L85 -90 L80 -90 L80 -85 L75 -85 L75 -80 L80 -80 L80 -75 L75 -75 L75 -80 L70 -80 L70 -85 L75 -85 L75 -90 L70 -90 L70 -95 L75 -95 L75 -90 L80 -90 L80 -95 L85 -95 L85 -100 L80 -100 L80 -105 L85 -105 L85 -100 L90 -100 L90 -95 L85 -95 L85 -90 L90 -90 L90 -95 L95 -95 L95 -90 L100 -90 L100 -95 L105 -95 L105 -100 L100 -100 L100 -105 L105 -105 L105 -100 L110 -100 L110 -95 L105 -95 L105 -90 L110 -90 L110 -85 L105 -85 L105 -90 L100 -90 L100 -85 L95 -85 L95 -80 L100 -80 L100 -85 L105 -85 L105 -80 L110 -80 L110 -75 L105 -75 L105 -70 L110 -70 L110 -75 L115 -75 L115 -70 L120 -70 L120 -75 L125 -75 L125 -80 L120 -80 L120 -85 L125 -85 L125 -80 L130 -80 L130 -75 L125 -75 L125 -70 L130 -70 L130 -65 L125 -65 L125 -70 L120 -70 L120 -65 L115 -65 L115 -60 L120 -60 L120 -55 L115 -55 L115 -60 L110 -60 L110 -65 L115 -65 L115 -70 L110 -70 L110 -65 L105 -65 L105 -70 L100 -70 L100 -65 L95 -65 L95 -60 L100 -60 L100 -65 L105 -65 L105 -60 L110 -60 L110 -55 L105 -55 L105 -50 L110 -50 L110 -45 L105 -45 L105 -50 L100 -50 L100 -45 L95 -45 L95 -40 L100 -40 L100 -45 L105 -45 L105 -40 L110 -40 L110 -35 L105 -35 L105 -30 L110 -30 L110 -35 L115 -35 L115 -30 L120 -30 L120 -35 L125 -35 L125 -40 L120 -40 L120 -45 L125 -45 L125 -40 L130 -40 L130 -35 L125 -35 L125 -30 L130 -30 L130 -25 L125 -25 L125 -30 L120 -30 L120 -25 L115 -25 L115 -20 L120 -20 L120 -15 L115 -15 L115 -20 L110 -20 L110 -25 L115 -25 L115 -30 L110 -30 L110 -25 L105 -25 L105 -30 L100 -30 L100 -25 L95 -25 L95 -20 L100 -20 L100 -15 L95 -15 L95 -20 L90 -20 L90 -25 L95 -25 L95 -30 L90 -30 L90 -35 L95 -35 L95 -30 L100 -30 L100 -35 L105 -35 L105 -40 L100 -40 L100 -35 L95 -35 L95 -40 L90 -40 L90 -45 L95 -45 L95 -50 L90 -50 L90 -45 L85 -45 L85 -50 L80 -50 L80 -45 L75 -45 L75 -40 L80 -40 L80 -45 L85 -45 L85 -40 L90 -40 L90 -35 L85 -35 L85 -30 L90 -30 L90 -25 L85 -25 L85 -30 L80 -30 L80 -25 L75 -25 L75 -20 L80 -20 L80 -15 L75 -15 L75 -20 L70 -20 L70 -25 L75 -25 L75 -30 L70 -30 L70 -25 L65 -25 L65 -30 L60 -30 L60 -25 L55 -25 L55 -20 L60 -20 L60 -25 L65 -25 L65 -20 L70 -20 L70 -15 L65 -15 L65 -10 L70 -10 L70 -5 L65 -5 L65 -10 L60 -10 L60 -5 L55 -5 L55 -1.06581e-14 L60 -1.06581e-14 L60 -5 L65 -5 L65 -1.06581e-14 L70 -1.06581e-14 L70 5 L65 5 L65 10 L70 10 L70 5 L75 5 L75 10 L80 10 L80 5 L85 5 L85 -8.88178e-15 L80 -1.02141e-14 L80 5 L75 5 L75 -1.24345e-14 L70 -1.37668e-14 L70 -5 L75 -5 L75 -10 L70 -10 L70 -15 L75 -15 L75 -10 L80 -10 L80 -15 L85 -15 L85 -20 L80 -20 L80 -25 L85 -25 L85 -20 L90 -20 L90 -15 L85 -15 L85 -10 L90 -10 L90 -15 L95 -15 L95 -10 L100 -10 L100 -15 L105 -15 L105 -20 L100 -20 L100 -25 L105 -25 L105 -20 L110 -20 L110 -15 L105 -15 L105 -10 L110 -10 L110 -5 L105 -5 L105 -10 L100 -10 L100 -5 L95 -5 L95 -7.10543e-15 L100 -7.10543e-15 L100 -5 L105 -5 L105 -7.10543e-15 L110 -7.10543e-15 L110 5 L105 5 L105 10 L110 10 L110 5 L115 5 L115 10 L120 10 L120 5 L125 5 L125 -5.32907e-15 L120 -6.66134e-15 L120 -5 L125 -5 L125 -7.10543e-15 L130 -7.10543e-15 L130 5 L125 5 L125 10 L130 10 L130 15 L125 15 L125 10 L120 10 L120 15 L115 15 L115 20 L120 20 L120 25 L115 25 L115 20 L110 20 L110 15 L115 15 L115 10 L110 10 L110 15 L105 15 L105 10 L100 10 L100 15 L95 15 L95 20 L100 20 L100 15 L105 15 L105 20 L110 20 L110 25 L105 25 L105 30 L110 30 L110 35 L105 35 L105 30 L100 30 L100 35 L95 35 L95 40 L100 40 L100 35 L105 35 L105 40 L110 40 L110 45 L105 45 L105 50 L110 50 L110 45 L115 45 L115 50 L120 50 L120 45 L125 45 L125 40 L120 40 L120 45 L115 45 L115 40 L110 40 L110 35 L115 35 L115 30 L110 30 L110 25 L115 25 L115 30 L120 30 L120 25 L125 25 L125 20 L120 20 L120 15 L125 15 L125 20 L130 20 L130 25 L125 25 L125 30 L130 30 L130 25 L135 25 L135 30 L140 30 L140 25 L145 25 L145 20 L140 20 L140 15 L145 15 L145 20 L150 20 L150 25 L145 25 L145 30 L150 30 L150 35 L145 35 L145 30 L140 30 L140 35 L135 35 L135 40 L140 40 L140 35 L145 35 L145 40 L150 40 L150 45 L145 45 L145 50 L150 50 L150 45 L155 45 L155 50 L160 50 L160 45 L165 45 L165 40 L160 40 L160 45 L155 45 L155 40 L150 40 L150 35 L155 35 L155 30 L150 30 L150 25 L155 25 L155 30 L160 30 L160 25 L165 25 L165 20 L160 20 L160 15 L165 15 L165 20 L170 20 L170 25 L165 25 L165 30 L170 30 L170 25 L175 25 L175 30 L180 30 L180 25 L185 25 L185 20 L180 20 L180 25 L175 25 L175 20 L170 20 L170 15 L175 15 L175 10 L170 10 L170 5 L175 5 L175 10 L180 10 L180 5 L185 5 L185 -1.77636e-15 L180 -3.10862e-15 L180 5 L175 5 L175 -5.32907e-15 L170 -6.66134e-15 L170 -5 L175 -5 L175 -10 L170 -10 L170 -5 L165 -5 L165 -10 L160 -10 L160 -5 L155 -5 L155 -1.42109e-14 L160 -1.15463e-14 L160 5 L155 5 L155 -1.24345e-14 L150 -1.37668e-14 L150 -5 L155 -5 L155 -10 L150 -10 L150 -15 L155 -15 L155 -10 L160 -10 L160 -15 L165 -15 L165 -20 L160 -20 L160 -25 L165 -25 L165 -20 L170 -20 L170 -15 L165 -15 L165 -10 L170 -10 L170 -15 L175 -15 L175 -10 L180 -10 L180 -15 L185 -15 L185 -20 L180 -20 L180 -25 L185 -25 L185 -20 L190 -20 L190 -15 L185 -15 L185 -10 L190 -10 L190 -5 L185 -5 L185 -10 L180 -10 L180 -5 L175 -5 L175 -7.10543e-15 L180 -7.10543e-15 L180 -5 L185 -5 L185 -7.10543e-15 L190 -7.10543e-15 L190 5 L185 5 L185 10 L190 10 L190 5 L195 5 L195 10 L200 10 L200 5 L205 5 L205 -5.32907e-15 L200 -6.66134e-15 L200 -5 L205 -5 L205 -7.10543e-15 L210 -7.10543e-15 L210 5 L205 5 L205 10 L210 10 L210 15 L205 15 L205 10 L200 10 L200 15 L195 15 L195 20 L200 20 L200 25 L195 25 L195 20 L190 20 L190 15 L195 15 L195 10 L190 10 L190 15 L185 15 L185 10 L180 10 L180 15 L175 15 L175 20 L180 20 L180 15 L185 15 L185 20 L190 20 L190 25 L185 25 L185 30 L190 30 L190 35 L185 35 L185 30 L180 30 L180 35 L175 35 L175 40 L180 40 L180 35 L185 35 L185 40 L190 40 L190 45 L185 45 L185 50 L190 50 L190 45 L195 45 L195 50 L200 50 L200 45 L205 45 L205 40 L200 40 L200 35 L205 35 L205 40 L210 40 L210 45 L205 45 L205 50 L210 50 L210 55 L205 55 L205 50 L200 50 L200 55 L195 55 L195 60 L200 60 L200 65 L195 65 L195 60 L190 60 L190 55 L195 55 L195 50 L190 50 L190 55 L185 55 L185 50 L180 50 L180 55 L175 55 L175 60 L180 60 L180 65 L175 65 L175 60 L170 60 L170 55 L175 55 L175 50 L170 50 L170 45 L175 45 L175 50 L180 50 L180 45 L185 45 L185 40 L180 40 L180 45 L175 45 L175 40 L170 40 L170 35 L175 35 L175 30 L170 30 L170 35 L165 35 L165 30 L160 30 L160 35 L155 35 L155 40 L160 40 L160 35 L165 35 L165 40 L170 40 L170 45 L165 45 L165 50 L170 50 L170 55 L165 55 L165 50 L160 50 L160 55 L155 55 L155 60 L160 60 L160 65 L155 65 L155 60 L150 60 L150 55 L155 55 L155 50 L150 50 L150 55 L145 55 L145 50 L140 50 L140 55 L135 55 L135 60 L140 60 L140 55 L145 55 L145 60 L150 60 L150 65 L145 65 L145 70 L150 70 L150 75 L145 75 L145 70 L140 70 L140 75 L135 75 L135 80 L140 80 L140 75 L145 75 L145 80 L150 80 L150 85 L145 85 L145 90 L150 90 L150 85 L155 85 L155 90 L160 90 L160 85 L165 85 L165 80 L160 80 L160 75 L165 75 L165 80 L170 80 L170 85 L165 85 L165 90 L170 90 L170 95 L165 95 L165 90 L160 90 L160 95 L155 95 L155 100 L160 100 L160 105 L155 105 L155 100 L150 100 L150 95 L155 95 L155 90 L150 90 L150 95 L145 95 L145 90 L140 90 L140 95 L135 95 L135 100 L140 100 L140 105 L135 105 L135 100 L130 100 L130 95 L135 95 L135 90 L130 90 L130 85 L135 85 L135 90 L140 90 L140 85 L145 85 L145 80 L140 80 L140 85 L135 85 L135 80 L130 80 L130 75 L135 75 L135 70 L130 70 L130 75 L125 75 L125 70 L120 70 L120 75 L115 75 L115 80 L120 80 L120 85 L115 85 L115 80 L110 80 L110 75 L115 75 L115 70 L110 70 L110 65 L115 65 L115 70 L120 70 L120 65 L125 65 L125 60 L120 60 L120 55 L125 55 L125 60 L130 60 L130 65 L125 65 L125 70 L130 70 L130 65 L135 65 L135 70 L140 70 L140 65 L145 65 L145 60 L140 60 L140 65 L135 65 L135 60 L130 60 L130 55 L135 55 L135 50 L130 50 L130 45 L135 45 L135 50 L140 50 L140 45 L145 45 L145 40 L140 40 L140 45 L135 45 L135 40 L130 40 L130 35 L135 35 L135 30 L130 30 L130 35 L125 35 L125 30 L120 30 L120 35 L115 35 L115 40 L120 40 L120 35 L125 35 L125 40 L130 40 L130 45 L125 45 L125 50 L130 50 L130 55 L125 55 L125 50 L120 50 L120 55 L115 55 L115 60 L120 60 L120 65 L115 65 L115 60 L110 60 L110 55 L115 55 L115 50 L110 50 L110 55 L105 55 L105 50 L100 50 L100 55 L95 55 L95 60 L100 60 L100 65 L95 65 L95 60 L90 60 L90 55 L95 55 L95 50 L90 50 L90 45 L95 45 L95 50 L100 50 L100 45 L105 45 L105 40 L100 40 L100 45 L95 45 L95 40 L90 40 L90 35 L95 35 L95 30 L90 30 L90 35 L85 35 L85 30 L80 30 L80 35 L75 35 L75 40 L80 40 L80 35 L85 35 L85 40 L90 40 L90 45 L85 45 L85 50 L90 50 L90 55 L85 55 L85 50 L80 50 L80 55 L75 55 L75 60 L80 60 L80 65 L75 65 L75 60 L70 60 L70 55 L75 55 L75 50 L70 50 L70 55 L65 55 L65 50 L60 50 L60 55 L55 55 L55 60 L60 60 L60 55 L65 55 L65 60 L70 60 L70 65 L65 65 L65 70 L70 70 L70 75 L65 75 L65 70 L60 70 L60 75 L55 75 L55 80 L60 80 L60 75 L65 75 L65 80 L70 80 L70 85 L65 85 L65 90 L70 90 L70 85 L75 85 L75 90 L80 90 L80 85 L85 85 L85 80 L80 80 L80 85 L75 85 L75 80 L70 80 L70 75 L75 75 L75 70 L70 70 L70 65 L75 65 L75 70 L80 70 L80 65 L85 65 L85 60 L80 60 L80 55 L85 55 L85 60 L90 60 L90 65 L85 65 L85 70 L90 70 L90 65 L95 65 L95 70 L100 70 L100 65 L105 65 L105 60 L100 60 L100 55 L105 55 L105 60 L110 60 L110 65 L105 65 L105 70 L110 70 L110 75 L105 75 L105 70 L100 70 L100 75 L95 75 L95 80 L100 80 L100 75 L105 75 L105 80 L110 80 L110 85 L105 85 L105 90 L110 90 L110 85 L115 85 L115 90 L120 90 L120 85 L125 85 L125 80 L120 80 L120 75 L125 75 L125 80 L130 80 L130 85 L125 85 L125 90 L130 90 L130 95 L125 95 L125 90 L120 90 L120 95 L115 95 L115 100 L120 100 L120 105 L115 105 L115 100 L110 100 L110 95 L115 95 L115 90 L110 90 L110 95 L105 95 L105 90 L100 90 L100 95 L95 95 L95 100 L100 100 L100 95 L105 95 L105 100 L110 100 L110 105 L105 105 L105 110 L110 110 L110 115 L105 115 L105 110 L100 110 L100 115 L95 115 L95 120 L100 120 L100 115 L105 115 L105 120 L110 120 L110 125 L105 125 L105 130 L110 130 L110 125 L115 125 L115 130 L120 130 L120 125 L125 125 L125 120 L120 120 L120 115 L125 115 L125 120 L130 120 L130 125 L125 125 L125 130 L130 130 L130 135 L125 135 L125 130 L120 130 L120 135 L115 135 L115 140 L120 140 L120 145 L115 145 L115 140 L110 140 L110 135 L115 135 L115 130 L110 130 L110 135 L105 135 L105 130 L100 130 L100 135 L95 135 L95 140 L100 140 L100 145 L95 145 L95 140 L90 140 L90 135 L95 135 L95 130 L90 130 L90 125 L95 125 L95 130 L100 130 L100 125 L105 125 L105 120 L100 120 L100 125 L95 125 L95 120 L90 120 L90 115 L95 115 L95 110 L90 110 L90 115 L85 115 L85 110 L80 110 L80 115 L75 115 L75 120 L80 120 L80 115 L85 115 L85 120 L90 120 L90 125 L85 125 L85 130 L90 130 L90 135 L85 135 L85 130 L80 130 L80 135 L75 135 L75 140 L80 140 L80 145 L75 145 L75 140 L70 140 L70 135 L75 135 L75 130 L70 130 L70 135 L65 135 L65 130 L60 130 L60 135 L55 135 L55 140 L60 140 L60 135 L65 135 L65 140 L70 140 L70 145 L65 145 L65 150 L70 150 L70 155 L65 155 L65 150 L60 150 L60 155 L55 155 L55 160 L60 160 L60 155 L65 155 L65 160 L70 160 L70 165 L65 165 L65 170 L70 170 L70 165 L75 165 L75 170 L80 170 L80 165 L85 165 L85 160 L80 160 L80 165 L75 165 L75 160 L70 160 L70 155 L75 155 L75 150 L70 150 L70 145 L75 145 L75 150 L80 150 L80 145 L85 145 L85 140 L80 140 L80 135 L85 135 L85 140 L90 140 L90 145 L85 145 L85 150 L90 150 L90 145 L95 145 L95 150 L100 150 L100 145 L105 145 L105 140 L100 140 L100 135 L105 135 L105 140 L110 140 L110 145 L105 145 L105 150 L110 150 L110 155 L105 155 L105 150 L100 150 L100 155 L95 155 L95 160 L100 160 L100 155 L105 155 L105 160 L110 160 L110 165 L105 165 L105 170 L110 170 L110 165 L115 165 L115 170 L120 170 L120 165 L125 165 L125 160 L120 160 L120 155 L125 155 L125 160 L130 160 L130 165 L125 165 L125 170 L130 170 L130 175 L125 175 L125 170 L120 170 L120 175 L115 175 L115 180 L120 180 L120 185 L115 185 L115 180 L110 180 L110 175 L115 175 L115 170 L110 170 L110 175 L105 175 L105 170 L100 170 L100 175 L95 175 L95 180 L100 180 L100 175 L105 175 L105 180 L110 180 L110 185 L105 185 L105 190 L110 190 L110 195 L105 195 L105 190 L100 190 L100 195 L95 195 L95 200 L100 200 L100 195 L105 195 L105 200 L110 200 L110 205 L105 205 L105 210 L110 210 L110 205 L115 205 L115 210 L120 210 L120 205 L125 205 L125 200 L120 200 L120 205 L115 205 L115 200 L110 200 L110 195 L115 195 L115 190 L110 190 L110 185 L115 185 L115 190 L120 190 L120 185 L125 185 L125 180 L120 180 L120 175 L125 175 L125 180 L130 180 L130 185 L125 185 L125 190 L130 190 L130 185 L135 185 L135 190 L140 190 L140 185 L145 185 L145 180 L140 180 L140 175 L145 175 L145 180 L150 180 L150 185 L145 185 L145 190 L150 190 L150 195 L145 195 L145 190 L140 190 L140 195 L135 195 L135 200 L140 200 L140 195 L145 195 L145 200 L150 200 L150 205 L145 205 L145 210 L150 210 L150 205 L155 205 L155 210 L160 210 L160 205 L165 205 L165 200 L160 200 L160 205 L155 205 L155 200 L150 200 L150 195 L155 195 L155 190 L150 190 L150 185 L155 185 L155 190 L160 190 L160 185 L165 185 L165 180 L160 180 L160 175 L165 175 L165 180 L170 180 L170 185 L165 185 L165 190 L170 190 L170 185 L175 185 L175 190 L180 190 L180 185 L185 185 L185 180 L180 180 L180 185 L175 185 L175 180 L170 180 L170 175 L175 175 L175 170 L170 170 L170 165 L175 165 L175 170 L180 170 L180 165 L185 165 L185 160 L180 160 L180 165 L175 165 L175 160 L170 160 L170 155 L175 155 L175 150 L170 150 L170 155 L165 155 L165 150 L160 150 L160 155 L155 155 L155 160 L160 160 L160 155 L165 155 L165 160 L170 160 L170 165 L165 165 L165 170 L170 170 L170 175 L165 175 L165 170 L160 170 L160 175 L155 175 L155 180 L160 180 L160 185 L155 185 L155 180 L150 180 L150 175 L155 175 L155 170 L150 170 L150 175 L145 175 L145 170 L140 170 L140 175 L135 175 L135 180 L140 180 L140 185 L135 185 L135 180 L130 180 L130 175 L135 175 L135 170 L130 170 L130 165 L135 165 L135 170 L140 170 L140 165 L145 165 L145 160 L140 160 L140 165 L135 165 L135 160 L130 160 L130 155 L135 155 L135 150 L130 150 L130 155 L125 155 L125 150 L120 150 L120 155 L115 155 L115 160 L120 160 L120 165 L115 165 L115 160 L110 160 L110 155 L115 155 L115 150 L110 150 L110 145 L115 145 L115 150 L120 150 L120 145 L125 145 L125 140 L120 140 L120 135 L125 135 L125 140 L130 140 L130 145 L125 145 L125 150 L130 150 L130 145 L135 145 L135 150 L140 150 L140 145 L145 145 L145 140 L140 140 L140 145 L135 145 L135 140 L130 140 L130 135 L135 135 L135 130 L130 130 L130 125 L135 125 L135 130 L140 130 L140 125 L145 125 L145 120 L140 120 L140 125 L135 125 L135 120 L130 120 L130 115 L135 115 L135 110 L130 110 L130 115 L125 115 L125 110 L120 110 L120 115 L115 115 L115 120 L120 120 L120 125 L115 125 L115 120 L110 120 L110 115 L115 115 L115 110 L110 110 L110 105 L115 105 L115 110 L120 110 L120 105 L125 105 L125 100 L120 100 L120 95 L125 95 L125 100 L130 100 L130 105 L125 105 L125 110 L130 110 L130 105 L135 105 L135 110 L140 110 L140 105 L145 105 L145 100 L140 100 L140 95 L145 95 L145 100 L150 100 L150 105 L145 105 L145 110 L150 110 L150 115 L145 115 L145 110 L140 110 L140 115 L135 115 L135 120 L140 120 L140 115 L145 115 L145 120 L150 120 L150 125 L145 125 L145 130 L150 130 L150 125 L155 125 L155 130 L160 130 L160 125 L165 125 L165 120 L160 120 L160 125 L155 125 L155 120 L150 120 L150 115 L155 115 L155 110 L150 110 L150 105 L155 105 L155 110 L160 110 L160 105 L165 105 L165 100 L160 100 L160 95 L165 95 L165 100 L170 100 L170 105 L165 105 L165 110 L170 110 L170 105 L175 105 L175 110 L180 110 L180 105 L185 105 L185 100 L180 100 L180 105 L175 105 L175 100 L170 100 L170 95 L175 95 L175 90 L170 90 L170 85 L175 85 L175 90 L180 90 L180 85 L185 85 L185 80 L180 80 L180 85 L175 85 L175 80 L170 80 L170 75 L175 75 L175 70 L170 70 L170 75 L165 75 L165 70 L160 70 L160 75 L155 75 L155 80 L160 80 L160 85 L155 85 L155 80 L150 80 L150 75 L155 75 L155 70 L150 70 L150 65 L155 65 L155 70 L160 70 L160 65 L165 65 L165 60 L160 60 L160 55 L165 55 L165 60 L170 60 L170 65 L165 65 L165 70 L170 70 L170 65 L175 65 L175 70 L180 70 L180 65 L185 65 L185 60 L180 60 L180 55 L185 55 L185 60 L190 60 L190 65 L185 65 L185 70 L190 70 L190 75 L185 75 L185 70 L180 70 L180 75 L175 75 L175 80 L180 80 L180 75 L185 75 L185 80 L190 80 L190 85 L185 85 L185 90 L190 90 L190 85 L195 85 L195 90 L200 90 L200 85 L205 85 L205 80 L200 80 L200 75 L205 75 L205 80 L210 80 L210 85 L205 85 L205 90 L210 90 L210 95 L205 95 L205 90 L200 90 L200 95 L195 95 L195 100 L200 100 L200 105 L195 105 L195 100 L190 100 L190 95 L195 95 L195 90 L190 90 L190 95 L185 95 L185 90 L180 90 L180 95 L175 95 L175 100 L180 100 L180 95 L185 95 L185 100 L190 100 L190 105 L185 105 L185 110 L190 110 L190 115 L185 115 L185 110 L180 110 L180 115 L175 115 L175 120 L180 120 L180 115 L185 115 L185 120 L190 120 L190 125 L185 125 L185 130 L190 130 L190 125 L195 125 L195 130 L200 130 L200 125 L205 125 L205 120 L200 120 L200 125 L195 125 L195 120 L190 120 L190 115 L195 115 L195 110 L190 110 L190 105 L195 105 L195 110 L200 110 L200 105 L205 105 L205 100 L200 100 L200 95 L205 95 L205 100 L210 100 L210 105 L205 105 L205 110 L210 110 L210 105 L215 105 L215 110 L220 110 L220 105 L225 105 L225 100 L220 100 L220 95 L225 95 L225 100 L230 100 L230 105 L225 105 L225 110 L230 110 L230 115 L225 115 L225 110 L220 110 L220 115 L215 115 L215 120 L220 120 L220 115 L225 115 L225 120 L230 120 L230 125 L225 125 L225 130 L230 130 L230 125 L235 125 L235 130 L240 130 L240 125 L245 125 L245 120 L240 120 L240 125 L235 125 L235 120 L230 120 L230 115 L235 115 L235 110 L230 110 L230 105 L235 105 L235 110 L240 110 L240 105 L245 105 L245 100 L240 100 L240 95 L245 95 L245 100 L250 100 L250 105 L245 105 L245 110 L250 110 L250 105 L255 105 L255 110 L260 110 L260 105 L265 105 L265 100 L260 100 L260 105 L255 105 L255 100 L250 100 L250 95 L255 95 L255 90 L250 90 L250 85 L255 85 L255 90 L260 90 L260 85 L265 85 L265 80 L260 80 L260 85 L255 85 L255 80 L250 80 L250 75 L255 75 L255 70 L250 70 L250 75 L245 75 L245 70 L240 70 L240 75 L235 75 L235 80 L240 80 L240 85 L235 85 L235 80 L230 80 L230 75 L235 75 L235 70 L230 70 L230 65 L235 65 L235 70 L240 70 L240 65 L245 65 L245 60 L240 60 L240 55 L245 55 L245 60 L250 60 L250 65 L245 65 L245 70 L250 70 L250 65 L255 65 L255 70 L260 70 L260 65 L265 65 L265 60 L260 60 L260 55 L265 55 L265 60 L270 60 L270 65 L265 65 L265 70 L270 70 L270 75 L265 75 L265 70 L260 70 L260 75 L255 75 L255 80 L260 80 L260 75 L265 75 L265 80 L270 80 L270 85 L265 85 L265 90 L270 90 L270 85 L275 85 L275 90 L280 90 L280 85 L285 85 L285 80 L280 80 L280 75 L285 75 L285 80 L290 80 L290 85 L285 85 L285 90 L290 90 L290 95 L285 95 L285 90 L280 90 L280 95 L275 95 L275 100 L280 100 L280 105 L275 105 L275 100 L270 100 L270 95 L275 95 L275 90 L270 90 L270 95 L265 95 L265 90 L260 90 L260 95 L255 95 L255 100 L260 100 L260 95 L265 95 L265 100 L270 100 L270 105 L265 105 L265 110 L270 110 L270 115 L265 115 L265 110 L260 110 L260 115 L255 115 L255 120 L260 120 L260 115 L265 115 L265 120 L270 120 L270 125 L265 125 L265 130 L270 130 L270 125 L275 125 L275 130 L280 130 L280 125 L285 125 L285 120 L280 120 L280 115 L285 115 L285 120 L290 120 L290 125 L285 125 L285 130 L290 130 L290 135 L285 135 L285 130 L280 130 L280 135 L275 135 L275 140 L280 140 L280 145 L275 145 L275 140 L270 140 L270 135 L275 135 L275 130 L270 130 L270 135 L265 135 L265 130 L260 130 L260 135 L255 135 L255 140 L260 140 L260 145 L255 145 L255 140 L250 140 L250 135 L255 135 L255 130 L250 130 L250 125 L255 125 L255 130 L260 130 L260 125 L265 125 L265 120 L260 120 L260 125 L255 125 L255 120 L250 120 L250 115 L255 115 L255 110 L250 110 L250 115 L245 115 L245 110 L240 110 L240 115 L235 115 L235 120 L240 120 L240 115 L245 115 L245 120 L250 120 L250 125 L245 125 L245 130 L250 130 L250 135 L245 135 L245 130 L240 130 L240 135 L235 135 L235 140 L240 140 L240 145 L235 145 L235 140 L230 140 L230 135 L235 135 L235 130 L230 130 L230 135 L225 135 L225 130 L220 130 L220 135 L215 135 L215 140 L220 140 L220 135 L225 135 L225 140 L230 140 L230 145 L225 145 L225 150 L230 150 L230 155 L225 155 L225 150 L220 150 L220 155 L215 155 L215 160 L220 160 L220 155 L225 155 L225 160 L230 160 L230 165 L225 165 L225 170 L230 170 L230 165 L235 165 L235 170 L240 170 L240 165 L245 165 L245 160 L240 160 L240 165 L235 165 L235 160 L230 160 L230 155 L235 155 L235 150 L230 150 L230 145 L235 145 L235 150 L240 150 L240 145 L245 145 L245 140 L240 140 L240 135 L245 135 L245 140 L250 140 L250 145 L245 145 L245 150 L250 150 L250 145 L255 145 L255 150 L260 150 L260 145 L265 145 L265 140 L260 140 L260 135 L265 135 L265 140 L270 140 L270 145 L265 145 L265 150 L270 150 L270 155 L265 155 L265 150 L260 150 L260 155 L255 155 L255 160 L260 160 L260 155 L265 155 L265 160 L270 160 L270 165 L265 165 L265 170 L270 170 L270 165 L275 165 L275 170 L280 170 L280 165 L285 165 L285 160 L280 160 L280 155 L285 155 L285 160 L290 160 L290 165 L285 165 L285 170 L290 170 L290 175 L285 175 L285 170 L280 170 L280 175 L275 175 L275 180 L280 180 L280 185 L275 185 L275 180 L270 180 L270 175 L275 175 L275 170 L270 170 L270 175 L265 175 L265 170 L260 170 L260 175 L255 175 L255 180 L260 180 L260 175 L265 175 L265 180 L270 180 L270 185 L265 185 L265 190 L270 190 L270 195 L265 195 L265 190 L260 190 L260 195 L255 195 L255 200 L260 200 L260 195 L265 195 L265 200 L270 200 L270 205 L265 205 L265 210 L270 210 L270 205 L275 205 L275 210 L280 210 L280 205 L285 205 L285 200 L280 200 L280 205 L275 205 L275 200 L270 200 L270 195 L275 195 L275 190 L270 190 L270 185 L275 185 L275 190 L280 190 L280 185 L285 185 L285 180 L280 180 L280 175 L285 175 L285 180 L290 180 L290 185 L285 185 L285 190 L290 190 L290 185 L295 185 L295 190 L300 190 L300 185 L305 185 L305 180 L300 180 L300 175 L305 175 L305 180 L310 180 L310 185 L305 185 L305 190 L310 190 L310 195 L305 195 L305 190 L300 190 L300 195 L295 195 L295 200 L300 200 L300 195 L305 195 L305 200 L310 200 L310 205 L305 205 L305 210 L310 210 L310 205 L315 205 L315 210 L320 210 L320 205 L325 205 L325 200 L320 200 L320 205 L315 205 L315 200 L310 200 L310 195 L315 195 L315 190 L310 190 L310 185 L315 185 L315 190 L320 190 L320 185 L325 185 L325 180 L320 180 L320 175 L325 175 L325 180 L330 180 L330 185 L325 185 L325 190 L330 190 L330 185 L335 185 L335 190 L340 190 L340 185 L345 185 L345 180 L340 180 L340 185 L335 185 L335 180 L330 180 L330 175 L335 175 L335 170 L330 170 L330 165 L335 165 L335 170 L340 170 L340 165 L345 165 L345 160 L340 160 L340 165 L335 165 L335 160 L330 160 L330 155 L335 155 L335 150 L330 150 L330 155 L325 155 L325 150 L320 150 L320 155 L315 155 L315 160 L320 160 L320 155 L325 155 L325 160 L330 160 L330 165 L325 165 L325 170 L330 170 L330 175 L325 175 L325 170 L320 170 L320 175 L315 175 L315 180 L320 180 L320 185 L315 185 L315 180 L310 180 L310 175 L315 175 L315 170 L310 170 L310 175 L305 175 L305 170 L300 170 L300 175 L295 175 L295 180 L300 180 L300 185 L295 185 L295 180 L290 180 L290 175 L295 175 L295 170 L290 170 L290 165 L295 165 L295 170 L300 170 L300 165 L305 165 L305 160 L300 160 L300 165 L295 165 L295 160 L290 160 L290 155 L295 155 L295 150 L290 150 L290 155 L285 155 L285 150 L280 150 L280 155 L275 155 L275 160 L280 160 L280 165 L275 165 L275 160 L270 160 L270 155 L275 155 L275 150 L270 150 L270 145 L275 145 L275 150 L280 150 L280 145 L285 145 L285 140 L280 140 L280 135 L285 135 L285 140 L290 140 L290 145 L285 145 L285 150 L290 150 L290 145 L295 145 L295 150 L300 150 L300 145 L305 145 L305 140 L300 140 L300 145 L295 145 L295 140 L290 140 L290 135 L295 135 L295 130 L290 130 L290 125 L295 125 L295 130 L300 130 L300 125 L305 125 L305 120 L300 120 L300 125 L295 125 L295 120 L290 120 L290 115 L295 115 L295 110 L290 110 L290 115 L285 115 L285 110 L280 110 L280 115 L275 115 L275 120 L280 120 L280 125 L275 125 L275 120 L270 120 L270 115 L275 115 L275 110 L270 110 L270 105 L275 105 L275 110 L280 110 L280 105 L285 105 L285 100 L280 100 L280 95 L285 95 L285 100 L290 100 L290 105 L285 105 L285 110 L290 110 L290 105 L295 105 L295 110 L300 110 L300 105 L305 105 L305 100 L300 100 L300 95 L305 95 L305 100 L310 100 L310 105 L305 105 L305 110 L310 110 L310 115 L305 115 L305 110 L300 110 L300 115 L295 115 L295 120 L300 120 L300 115 L305 115 L305 120 L310 120 L310 125 L305 125 L305 130 L310 130 L310 125 L315 125 L315 130 L320 130 L320 125 L325 125 L325 120 L320 120 L320 125 L315 125 L315 120 L310 120 L310 115 L315 115 L315 110 L310 110 L310 105 L315 105 L315 110 L320 110 L320 105 L325 105 L325 100 L320 100 L320 95 L325 95 L325 100 L330 100 L330 105 L325 105 L325 110 L330 110 L330 105 L335 105 L335 110 L340 110 L340 105 L345 105 L345 100 L340 100 L340 105 L335 105 L335 100 L330 100 L330 95 L335 95 L335 90 L330 90 L330 85 L335 85 L335 90 L340 90 L340 85 L345 85 L345 80 L340 80 L340 85 L335 85 L335 80 L330 80 L330 75 L335 75 L335 70 L330 70 L330 75 L325 75 L325 70 L320 70 L320 75 L315 75 L315 80 L320 80 L320 85 L315 85 L315 80 L310 80 L310 75 L315 75 L315 70 L310 70 L310 65 L315 65 L315 70 L320 70 L320 65 L325 65 L325 60 L320 60 L320 55 L325 55 L325 60 L330 60 L330 65 L325 65 L325 70 L330 70 L330 65 L335 65 L335 70 L340 70 L340 65 L345 65 L345 60 L340 60 L340 55 L345 55 L345 60 L350 60 L350 65 L345 65 L345 70 L350 70 L350 75 L345 75 L345 70 L340 70 L340 75 L335 75 L335 80 L340 80 L340 75 L345 75 L345 80 L350 80 L350 85 L345 85 L345 90 L350 90 L350 85 L355 85 L355 90 L360 90 L360 85 L365 85 L365 80 L360 80 L360 75 L365 75 L365 80 L370 80 L370 85 L365 85 L365 90 L370 90 L370 95 L365 95 L365 90 L360 90 L360 95 L355 95 L355 100 L360 100 L360 105 L355 105 L355 100 L350 100 L350 95 L355 95 L355 90 L350 90 L350 95 L345 95 L345 90 L340 90 L340 95 L335 95 L335 100 L340 100 L340 95 L345 95 L345 100 L350 100 L350 105 L345 105 L345 110 L350 110 L350 115 L345 115 L345 110 L340 110 L340 115 L335 115 L335 120 L340 120 L340 115 L345 115 L345 120 L350 120 L350 125 L345 125 L345 130 L350 130 L350 125 L355 125 L355 130 L360 130 L360 125 L365 125 L365 120 L360 120 L360 125 L355 125 L355 120 L350 120 L350 115 L355 115 L355 110 L350 110 L350 105 L355 105 L355 110 L360 110 L360 105 L365 105 L365 100 L360 100 L360 95 L365 95 L365 100 L370 100 L370 105 L365 105 L365 110 L370 110 L370 105 L375 105 L375 110 L380 110 L380 105 L385 105 L385 100 L380 100 L380 95 L385 95 L385 100 L390 100 L390 105 L385 105 L385 110 L390 110 L390 115 L385 115 L385 110 L380 110 L380 115 L375 115 L375 120 L380 120 L380 115 L385 115 L385 120 L390 120 L390 125 L385 125 L385 130 L390 130 L390 125 L395 125 L395 130 L400 130 L400 125 L405 125 L405 120 L400 120 L400 125 L395 125 L395 120 L390 120 L390 115 L395 115 L395 110 L390 110 L390 105 L395 105 L395 110 L400 110 L400 105 L405 105 L405 100 L400 100 L400 95 L405 95 L405 100 L410 100 L410 105 L405 105 L405 110 L410 110 L410 105 L415 105 L415 110 L420 110 L420 105 L425 105 L425 100 L420 100 L420 105 L415 105 L415 100 L410 100 L410 95 L415 95 L415 90 L410 90 L410 85 L415 85 L415 90 L420 90 L420 85 L425 85 L425 80 L420 80 L420 85 L415 85 L415 80 L410 80 L410 75 L415 75 L415 70 L410 70 L410 75 L405 75 L405 70 L400 70 L400 75 L395 75 L395 80 L400 80 L400 75 L405 75 L405 80 L410 80 L410 85 L405 85 L405 90 L410 90 L410 95 L405 95 L405 90 L400 90 L400 95 L395 95 L395 100 L400 100 L400 105 L395 105 L395 100 L390 100 L390 95 L395 95 L395 90 L390 90 L390 95 L385 95 L385 90 L380 90 L380 95 L375 95 L375 100 L380 100 L380 105 L375 105 L375 100 L370 100 L370 95 L375 95 L375 90 L370 90 L370 85 L375 85 L375 90 L380 90 L380 85 L385 85 L385 80 L380 80 L380 85 L375 85 L375 80 L370 80 L370 75 L375 75 L375 70 L370 70 L370 75 L365 75 L365 70 L360 70 L360 75 L355 75 L355 80 L360 80 L360 85 L355 85 L355 80 L350 80 L350 75 L355 75 L355 70 L350 70 L350 65 L355 65 L355 70 L360 70 L360 65 L365 65 L365 60 L360 60 L360 55 L365 55 L365 60 L370 60 L370 65 L365 65 L365 70 L370 70 L370 65 L375 65 L375 70 L380 70 L380 65 L385 65 L385 60 L380 60 L380 65 L375 65 L375 60 L370 60 L370 55 L375 55 L375 50 L370 50 L370 45 L375 45 L375 50 L380 50 L380 45 L385 45 L385 40 L380 40 L380 45 L375 45 L375 40 L370 40 L370 35 L375 35 L375 30 L370 30 L370 35 L365 35 L365 30 L360 30 L360 35 L355 35 L355 40 L360 40 L360 45 L355 45 L355 40 L350 40 L350 35 L355 35 L355 30 L350 30 L350 25 L355 25 L355 30 L360 30 L360 25 L365 25 L365 20 L360 20 L360 15 L365 15 L365 20 L370 20 L370 25 L365 25 L365 30 L370 30 L370 25 L375 25 L375 30 L380 30 L380 25 L385 25 L385 20 L380 20 L380 15 L385 15 L385 20 L390 20 L390 25 L385 25 L385 30 L390 30 L390 35 L385 35 L385 30 L380 30 L380 35 L375 35 L375 40 L380 40 L380 35 L385 35 L385 40 L390 40 L390 45 L385 45 L385 50 L390 50 L390 45 L395 45 L395 50 L400 50 L400 45 L405 45 L405 40 L400 40 L400 45 L395 45 L395 40 L390 40 L390 35 L395 35 L395 30 L390 30 L390 25 L395 25 L395 30 L400 30 L400 25 L405 25 L405 20 L400 20 L400 15 L405 15 L405 20 L410 20 L410 25 L405 25 L405 30 L410 30 L410 25 L415 25 L415 30 L420 30 L420 25 L425 25 L425 20 L420 20 L420 25 L415 25 L415 20 L410 20 L410 15 L415 15 L415 10 L410 10 L410 5 L415 5 L415 10 L420 10 L420 5 L425 5 L425 -1.77636e-15 L420 -3.10862e-15 L420 5 L415 5 L415 -5.32907e-15 L410 -6.66134e-15 L410 -5 L415 -5 L415 -10 L410 -10 L410 -5 L405 -5 L405 -10 L400 -10 L400 -5 L395 -5 L395 -1.42109e-14 L400 -1.15463e-14 L400 -5 L405 -5 L405 -8.88178e-15 L410 -6.21725e-15 L410 5 L405 5 L405 10 L410 10 L410 15 L405 15 L405 10 L400 10 L400 15 L395 15 L395 20 L400 20 L400 25 L395 25 L395 20 L390 20 L390 15 L395 15 L395 10 L390 10 L390 15 L385 15 L385 10 L380 10 L380 15 L375 15 L375 20 L380 20 L380 25 L375 25 L375 20 L370 20 L370 15 L375 15 L375 10 L370 10 L370 5 L375 5 L375 10 L380 10 L380 5 L385 5 L385 -8.88178e-15 L380 -1.02141e-14 L380 5 L375 5 L375 -1.24345e-14 L370 -1.37668e-14 L370 -5 L375 -5 L375 -10 L370 -10 L370 -5 L365 -5 L365 -10 L360 -10 L360 -5 L355 -5 L355 -2.13163e-14 L360 -1.86517e-14 L360 5 L355 5 L355 -1.95399e-14 L350 -2.08722e-14 L350 -5 L355 -5 L355 -10 L350 -10 L350 -15 L355 -15 L355 -10 L360 -10 L360 -15 L365 -15 L365 -20 L360 -20 L360 -25 L365 -25 L365 -20 L370 -20 L370 -15 L365 -15 L365 -10 L370 -10 L370 -15 L375 -15 L375 -10 L380 -10 L380 -15 L385 -15 L385 -20 L380 -20 L380 -15 L375 -15 L375 -20 L370 -20 L370 -25 L375 -25 L375 -30 L370 -30 L370 -35 L375 -35 L375 -30 L380 -30 L380 -35 L385 -35 L385 -40 L380 -40 L380 -35 L375 -35 L375 -40 L370 -40 L370 -45 L375 -45 L375 -50 L370 -50 L370 -45 L365 -45 L365 -50 L360 -50 L360 -45 L355 -45 L355 -40 L360 -40 L360 -45 L365 -45 L365 -40 L370 -40 L370 -35 L365 -35 L365 -30 L370 -30 L370 -25 L365 -25 L365 -30 L360 -30 L360 -25 L355 -25 L355 -20 L360 -20 L360 -15 L355 -15 L355 -20 L350 -20 L350 -25 L355 -25 L355 -30 L350 -30 L350 -25 L345 -25 L345 -30 L340 -30 L340 -25 L335 -25 L335 -20 L340 -20 L340 -15 L335 -15 L335 -20 L330 -20 L330 -25 L335 -25 L335 -30 L330 -30 L330 -35 L335 -35 L335 -30 L340 -30 L340 -35 L345 -35 L345 -40 L340 -40 L340 -35 L335 -35 L335 -40 L330 -40 L330 -45 L335 -45 L335 -50 L330 -50 L330 -45 L325 -45 L325 -50 L320 -50 L320 -45 L315 -45 L315 -40 L320 -40 L320 -45 L325 -45 L325 -40 L330 -40 L330 -35 L325 -35 L325 -30 L330 -30 L330 -25 L325 -25 L325 -30 L320 -30 L320 -25 L315 -25 L315 -20 L320 -20 L320 -15 L315 -15 L315 -20 L310 -20 L310 -25 L315 -25 L315 -30 L310 -30 L310 -25 L305 -25 L305 -30 L300 -30 L300 -25 L295 -25 L295 -20 L300 -20 L300 -25 L305 -25 L305 -20 L310 -20 L310 -15 L305 -15 L305 -10 L310 -10 L310 -5 L305 -5 L305 -10 L300 -10 L300 -5 L295 -5 L295 -1.77636e-15 L300 8.88178e-16 L300 -5 L305 -5 L305 3.55271e-15 L310 6.21725e-15 L310 5 L305 5 L305 10 L310 10 L310 5 L315 5 L315 10 L320 10 L320 5 L325 5 L325 1.68754e-14 L320 1.28786e-14"/>
</svg>
