<?xml version="1.0" encoding="UTF-8"?>
<svg xmlns="http://www.w3.org/2000/svg"
 version="1.1" baseProfile="basic"
 viewBox="-14 -18 60 46"
 width="1280px" height="1024px"
 stroke="white" stroke-width="1px"
 fill="black" fill-opacity="0">
<rect x="-14" y="-18" width="60" height="46" stroke-width="0px" fill-opacity="1"/>
<path d="M0 0 L0 0 L-3.53553 -3.53553 L8.88178e-16 -7.07107 L3.53553 -3.53553 L7.07107 -7.07107 L10.6066 -3.53553 L7.07107 0 L10.6066 3.53553 L14.1421 0 L17.6777 3.53553 L14.1421 7.07107 L10.6066 3.53553 L7.07107 7.07107 L10.6066 10.6066 L7.07107 14.1421 L10.6066 17.6777 L14.1421 14.1421 L10.6066 10.6066 L14.1421 7.07107 L17.6777 10.6066 L21.2132 7.07107 L24.7487 10.6066 L21.2132 14.1421 L24.7487 17.6777 L28.2843 14.1421 L24.7487 10.6066 L28.2843 7.07107 L31.8198 10.6066 L35.3553 7.07107 L31.8198 3.53553 L35.3553 0 L31.8198 -3.53553 L28.2843 -1.77636e-15"/>
</svg>
