<?xml version="1.0" encoding="UTF-8"?>
<svg xmlns="http://www.w3.org/2000/svg"
 version="1.1" baseProfile="basic"
 viewBox="-28 -46 187 131"
 width="1280px" height="1024px"
 stroke="white" stroke-width="1px"
 fill="black" fill-opacity="0">
<rect x="-28" y="-46" width="187" height="131" stroke-width="0px" fill-opacity="1"/>
<path d="M0 0 L0 0 L3.53553 3.53553 L-2.66454e-15 7.07107 L-3.53553 3.53553 L-7.07107 7.07107 L-10.6066 3.53553 L-7.07107 -1.77636e-15 L-10.6066 -3.53553 L-14.1421 -3.55271e-15 L-17.6777 -3.53553 L-14.1421 -7.07107 L-10.6066 -3.53553 L-7.07107 -7.07107 L-10.6066 -10.6066 L-7.07107 -14.1421 L-10.6066 -17.6777 L-14.1421 -14.1421 L-17.6777 -17.6777 L-14.1421 -21.2132 L-10.6066 -17.6777 L-7.07107 -21.2132 L-3.53553 -17.6777 L-7.07107 -14.1421 L-3.53553 -10.6066 L8.88178e-16 -14.1421 L-3.53553 -17.6777 L1.77636e-15 -21.2132 L3.53553 -17.6777 L7.07107 -21.2132 L3.53553 -24.7487 L7.07107 -28.2843 L3.53553 -31.8198 L2.66454e-15 -28.2843 L-3.53553 -31.8198 L3.55271e-15 -35.3553 L3.53553 -31.8198 L7.07107 -35.3553 L10.6066 -31.8198 L7.07107 -28.2843 L10.6066 -24.7487 L14.1421 -28.2843 L17.6777 -24.7487 L14.1421 -21.2132 L10.6066 -24.7487 L7.07107 -21.2132 L10.6066 -17.6777 L7.07107 -14.1421 L10.6066 -10.6066 L14.1421 -14.1421 L10.6066 -17.6777 L14.1421 -21.2132 L17.6777 -17.6777 L21.2132 -21.2132 L24.7487 -17.6777 L21.2132 -14.1421 L24.7487 -10.6066 L28.2843 -14.1421 L24.7487 -17.6777 L28.2843 -21.2132 L31.8198 -17.6777 L35.3553 -21.2132 L31.8198 -24.7487 L35.3553 -28.2843 L31.8198 -31.8198 L28.2843 -28.2843 L24.7487 -31.8198 L28.2843 -35.3553 L31.8198 -31.8198 L35.3553 -35.3553 L38.8909 -31.8198 L35.3553 -28.2843 L38.8909 -24.7487 L42.4264 -28.2843 L45.9619 -24.7487 L42.4264 -21.2132 L38.8909 -24.7487 L35.3553 -21.2132 L38.8909 -17.6777 L35.3553 -14.1421 L38.8909 -10.6066 L42.4264 -14.1421 L45.9619 -10.6066 L42.4264 -7.07107 L38.8909 -10.6066 L35.3553 -7.07107 L31.8198 -10.6066 L35.3553 -14.1421 L31.8198 -17.6777 L28.2843 -14.1421 L31.8198 -10.6066 L28.2843 -7.07107 L24.7487 -10.6066 L21.2132 -7.07107 L24.7487 -3.53553 L21.2132 -1.77636e-15 L24.7487 3.53553 L28.2843 -1.77636e-15 L24.7487 -3.53553 L28.2843 -7.07107 L31.8198 -3.53553 L35.3553 -7.07107 L38.8909 -3.53553 L35.3553 -1.77636e-15 L38.8909 3.53553 L42.4264 -1.77636e-15 L45.9619 3.53553 L42.4264 7.07107 L38.8909 3.53553 L35.3553 7.07107 L38.8909 10.6066 L35.3553 14.1421 L38.8909 17.6777 L42.4264 14.1421 L38.8909 10.6066 L42.4264 7.07107 L45.9619 10.6066 L49.4975 7.07107 L53.033 10.6066 L49.4975 14.1421 L53.033 17.6777 L56.5685 14.1421 L53.033 10.6066 L56.5685 7.07107 L60.1041 10.6066 L63.6396 7.07107 L60.1041 3.53553 L63.6396 0 L60.1041 -3.53553 L56.5685 -1.77636e-15 L53.033 -3.53553 L56.5685 -7.07107 L60.1041 -3.53553 L63.6396 -7.07107 L67.1751 -3.53553 L63.6396 -1.77636e-15 L67.1751 3.53553 L70.7107 -1.77636e-15 L74.2462 3.53553 L70.7107 7.07107 L67.1751 3.53553 L63.6396 7.07107 L67.1751 10.6066 L63.6396 14.1421 L67.1751 17.6777 L70.7107 14.1421 L74.2462 17.6777 L70.7107 21.2132 L67.1751 17.6777 L63.6396 21.2132 L60.1041 17.6777 L63.6396 14.1421 L60.1041 10.6066 L56.5685 14.1421 L60.1041 17.6777 L56.5685 21.2132 L53.033 17.6777 L49.4975 21.2132 L53.033 24.7487 L49.4975 28.2843 L53.033 31.8198 L56.5685 28.2843 L60.1041 31.8198 L56.5685 35.3553 L53.033 31.8198 L49.4975 35.3553 L45.9619 31.8198 L49.4975 28.2843 L45.9619 24.7487 L42.4264 28.2843 L38.8909 24.7487 L42.4264 21.2132 L45.9619 24.7487 L49.4975 21.2132 L45.9619 17.6777 L49.4975 14.1421 L45.9619 10.6066 L42.4264 14.1421 L45.9619 17.6777 L42.4264 21.2132 L38.8909 17.6777 L35.3553 21.2132 L31.8198 17.6777 L35.3553 14.1421 L31.8198 10.6066 L28.2843 14.1421 L31.8198 17.6777 L28.2843 21.2132 L24.7487 17.6777 L21.2132 21.2132 L24.7487 24.7487 L21.2132 28.2843 L24.7487 31.8198 L28.2843 28.2843 L24.7487 24.7487 L28.2843 21.2132 L31.8198 24.7487 L35.3553 21.2132 L38.8909 24.7487 L35.3553 28.2843 L38.8909 31.8198 L42.4264 28.2843 L45.9619 31.8198 L42.4264 35.3553 L38.8909 31.8198 L35.3553 35.3553 L38.8909 38.8909 L35.3553 42.4264 L38.8909 45.9619 L42.4264 42.4264 L45.9619 45.9619 L42.4264 49.4975 L38.8909 45.9619 L35.3553 49.4975 L31.8198 45.9619 L35.3553 42.4264 L31.8198 38.8909 L28.2843 42.4264 L31.8198 45.9619 L28.2843 49.4975 L24.7487 45.9619 L21.2132 49.4975 L24.7487 53.033 L21.2132 56.5685 L24.7487 60.1041 L28.2843 56.5685 L24.7487 53.033 L28.2843 49.4975 L31.8198 53.033 L35.3553 49.4975 L38.8909 53.033 L35.3553 56.5685 L38.8909 60.1041 L42.4264 56.5685 L45.9619 60.1041 L42.4264 63.6396 L38.8909 60.1041 L35.3553 63.6396 L38.8909 67.1751 L35.3553 70.7107 L38.8909 74.2462 L42.4264 70.7107 L38.8909 67.1751 L42.4264 63.6396 L45.9619 67.1751 L49.4975 63.6396 L53.033 67.1751 L49.4975 70.7107 L53.033 74.2462 L56.5685 70.7107 L53.033 67.1751 L56.5685 63.6396 L60.1041 67.1751 L63.6396 63.6396 L60.1041 60.1041 L63.6396 56.5685 L60.1041 53.033 L56.5685 56.5685 L60.1041 60.1041 L56.5685 63.6396 L53.033 60.1041 L49.4975 63.6396 L45.9619 60.1041 L49.4975 56.5685 L45.9619 53.033 L42.4264 56.5685 L38.8909 53.033 L42.4264 49.4975 L45.9619 53.033 L49.4975 49.4975 L45.9619 45.9619 L49.4975 42.4264 L45.9619 38.8909 L42.4264 42.4264 L38.8909 38.8909 L42.4264 35.3553 L45.9619 38.8909 L49.4975 35.3553 L53.033 38.8909 L49.4975 42.4264 L53.033 45.9619 L56.5685 42.4264 L53.033 38.8909 L56.5685 35.3553 L60.1041 38.8909 L63.6396 35.3553 L60.1041 31.8198 L63.6396 28.2843 L60.1041 24.7487 L56.5685 28.2843 L53.033 24.7487 L56.5685 21.2132 L60.1041 24.7487 L63.6396 21.2132 L67.1751 24.7487 L63.6396 28.2843 L67.1751 31.8198 L70.7107 28.2843 L74.2462 31.8198 L70.7107 35.3553 L67.1751 31.8198 L63.6396 35.3553 L67.1751 38.8909 L63.6396 42.4264 L67.1751 45.9619 L70.7107 42.4264 L67.1751 38.8909 L70.7107 35.3553 L74.2462 38.8909 L77.7817 35.3553 L81.3173 38.8909 L77.7817 42.4264 L81.3173 45.9619 L84.8528 42.4264 L81.3173 38.8909 L84.8528 35.3553 L88.3883 38.8909 L91.9239 35.3553 L88.3883 31.8198 L91.9239 28.2843 L88.3883 24.7487 L84.8528 28.2843 L81.3173 24.7487 L84.8528 21.2132 L88.3883 24.7487 L91.9239 21.2132 L95.4594 24.7487 L91.9239 28.2843 L95.4594 31.8198 L98.9949 28.2843 L102.53 31.8198 L98.9949 35.3553 L95.4594 31.8198 L91.9239 35.3553 L95.4594 38.8909 L91.9239 42.4264 L95.4594 45.9619 L98.9949 42.4264 L102.53 45.9619 L98.9949 49.4975 L95.4594 45.9619 L91.9239 49.4975 L88.3883 45.9619 L91.9239 42.4264 L88.3883 38.8909 L84.8528 42.4264 L88.3883 45.9619 L84.8528 49.4975 L81.3173 45.9619 L77.7817 49.4975 L81.3173 53.033 L77.7817 56.5685 L81.3173 60.1041 L84.8528 56.5685 L81.3173 53.033 L84.8528 49.4975 L88.3883 53.033 L91.9239 49.4975 L95.4594 53.033 L91.9239 56.5685 L95.4594 60.1041 L98.9949 56.5685 L102.53 60.1041 L98.9949 63.6396 L95.4594 60.1041 L91.9239 63.6396 L95.4594 67.1751 L91.9239 70.7107 L95.4594 74.2462 L98.9949 70.7107 L95.4594 67.1751 L98.9949 63.6396 L102.53 67.1751 L106.066 63.6396 L109.602 67.1751 L106.066 70.7107 L109.602 74.2462 L113.137 70.7107 L109.602 67.1751 L113.137 63.6396 L116.673 67.1751 L120.208 63.6396 L116.673 60.1041 L120.208 56.5685 L116.673 53.033 L113.137 56.5685 L116.673 60.1041 L113.137 63.6396 L109.602 60.1041 L106.066 63.6396 L102.53 60.1041 L106.066 56.5685 L102.53 53.033 L98.9949 56.5685 L95.4594 53.033 L98.9949 49.4975 L102.53 53.033 L106.066 49.4975 L102.53 45.9619 L106.066 42.4264 L102.53 38.8909 L98.9949 42.4264 L95.4594 38.8909 L98.9949 35.3553 L102.53 38.8909 L106.066 35.3553 L109.602 38.8909 L106.066 42.4264 L109.602 45.9619 L113.137 42.4264 L109.602 38.8909 L113.137 35.3553 L116.673 38.8909 L120.208 35.3553 L116.673 31.8198 L120.208 28.2843 L116.673 24.7487 L113.137 28.2843 L109.602 24.7487 L113.137 21.2132 L116.673 24.7487 L120.208 21.2132 L123.744 24.7487 L120.208 28.2843 L123.744 31.8198 L127.279 28.2843 L130.815 31.8198 L127.279 35.3553 L123.744 31.8198 L120.208 35.3553 L123.744 38.8909 L120.208 42.4264 L123.744 45.9619 L127.279 42.4264 L123.744 38.8909 L127.279 35.3553 L130.815 38.8909 L134.35 35.3553 L137.886 38.8909 L134.35 42.4264 L137.886 45.9619 L141.421 42.4264 L137.886 38.8909 L141.421 35.3553 L144.957 38.8909 L148.492 35.3553 L144.957 31.8198 L148.492 28.2843 L144.957 24.7487 L141.421 28.2843 L144.957 31.8198 L141.421 35.3553 L137.886 31.8198 L134.35 35.3553 L130.815 31.8198 L134.35 28.2843 L130.815 24.7487 L127.279 28.2843 L123.744 24.7487 L127.279 21.2132 L130.815 24.7487 L134.35 21.2132 L130.815 17.6777 L134.35 14.1421 L130.815 10.6066 L127.279 14.1421 L123.744 10.6066 L127.279 7.07107 L130.815 10.6066 L134.35 7.07107 L137.886 10.6066 L134.35 14.1421 L137.886 17.6777 L141.421 14.1421 L137.886 10.6066 L141.421 7.07107 L144.957 10.6066 L148.492 7.07107 L144.957 3.53553 L148.492 -3.55271e-15 L144.957 -3.53553 L141.421 -5.32907e-15 L144.957 3.53553 L141.421 7.07107 L137.886 3.53553 L134.35 7.07107 L130.815 3.53553 L134.35 -7.10543e-15 L130.815 -3.53553 L127.279 -8.88178e-15 L123.744 -3.53553 L127.279 -7.07107 L130.815 -3.53553 L134.35 -7.07107 L130.815 -10.6066 L134.35 -14.1421 L130.815 -17.6777 L127.279 -14.1421 L130.815 -10.6066 L127.279 -7.07107 L123.744 -10.6066 L120.208 -7.07107 L116.673 -10.6066 L120.208 -14.1421 L116.673 -17.6777 L113.137 -14.1421 L116.673 -10.6066 L113.137 -7.07107 L109.602 -10.6066 L106.066 -7.07107 L109.602 -3.53553 L106.066 -1.77636e-14 L109.602 3.53553 L113.137 -1.42109e-14"/>
</svg>
