<?xml version="1.0" encoding="UTF-8"?>
<svg xmlns="http://www.w3.org/2000/svg"
 version="1.1" baseProfile="basic"
 viewBox="-21 -36 136 97"
 width="1280px" height="1024px"
 stroke="white" stroke-width="1px"
 fill="black" fill-opacity="0">
<rect x="-21" y="-36" width="136" height="97" stroke-width="0px" fill-opacity="1"/>
<path d="M0 0 L0 0 L-1.77636e-15 5 L-5 5 L-5 -1.77636e-15 L-10 -3.10862e-15 L-10 -5 L-5 -5 L-5 -10 L-10 -10 L-10 -15 L-5 -15 L-5 -10 L8.88178e-16 -10 L1.77636e-15 -15 L5 -15 L5 -20 L1.77636e-15 -20 L2.66454e-15 -25 L5 -25 L5 -20 L10 -20 L10 -15 L5 -15 L5 -10 L10 -10 L10 -15 L15 -15 L15 -10 L20 -10 L20 -15 L25 -15 L25 -20 L20 -20 L20 -25 L25 -25 L25 -20 L30 -20 L30 -15 L25 -15 L25 -10 L30 -10 L30 -5 L25 -5 L25 -10 L20 -10 L20 -5 L15 -5 L15 0 L20 0 L20 -5 L25 -5 L25 0 L30 0 L30 5 L25 5 L25 10 L30 10 L30 5 L35 5 L35 10 L40 10 L40 5 L45 5 L45 1.77636e-15 L40 4.44089e-16 L40 -5 L45 -5 L45 0 L50 0 L50 5 L45 5 L45 10 L50 10 L50 15 L45 15 L45 10 L40 10 L40 15 L35 15 L35 20 L40 20 L40 25 L35 25 L35 20 L30 20 L30 15 L35 15 L35 10 L30 10 L30 15 L25 15 L25 10 L20 10 L20 15 L15 15 L15 20 L20 20 L20 15 L25 15 L25 20 L30 20 L30 25 L25 25 L25 30 L30 30 L30 35 L25 35 L25 30 L20 30 L20 35 L15 35 L15 40 L20 40 L20 35 L25 35 L25 40 L30 40 L30 45 L25 45 L25 50 L30 50 L30 45 L35 45 L35 50 L40 50 L40 45 L45 45 L45 40 L40 40 L40 45 L35 45 L35 40 L30 40 L30 35 L35 35 L35 30 L30 30 L30 25 L35 25 L35 30 L40 30 L40 25 L45 25 L45 20 L40 20 L40 15 L45 15 L45 20 L50 20 L50 25 L45 25 L45 30 L50 30 L50 25 L55 25 L55 30 L60 30 L60 25 L65 25 L65 20 L60 20 L60 15 L65 15 L65 20 L70 20 L70 25 L65 25 L65 30 L70 30 L70 35 L65 35 L65 30 L60 30 L60 35 L55 35 L55 40 L60 40 L60 35 L65 35 L65 40 L70 40 L70 45 L65 45 L65 50 L70 50 L70 45 L75 45 L75 50 L80 50 L80 45 L85 45 L85 40 L80 40 L80 45 L75 45 L75 40 L70 40 L70 35 L75 35 L75 30 L70 30 L70 25 L75 25 L75 30 L80 30 L80 25 L85 25 L85 20 L80 20 L80 15 L85 15 L85 20 L90 20 L90 25 L85 25 L85 30 L90 30 L90 25 L95 25 L95 30 L100 30 L100 25 L105 25 L105 20 L100 20 L100 25 L95 25 L95 20 L90 20 L90 15 L95 15 L95 10 L90 10 L90 5 L95 5 L95 10 L100 10 L100 5 L105 5 L105 1.24345e-14 L100 1.11022e-14 L100 5 L95 5 L95 8.88178e-15 L90 7.54952e-15 L90 -5 L95 -5 L95 -10 L90 -10 L90 -5 L85 -5 L85 -10 L80 -10 L80 -5 L75 -5 L75 0 L80 2.66454e-15"/>
</svg>
