<?xml version="1.0" encoding="UTF-8"?>
<svg xmlns="http://www.w3.org/2000/svg"
 version="1.1" baseProfile="basic"
 viewBox="-15 -21 75 57"
 width="1280px" height="1024px"
 stroke="white" stroke-width="1px"
 fill="black" fill-opacity="0">
<rect x="-15" y="-21" width="75" height="57" stroke-width="0px" fill-opacity="1"/>
<path d="M0 0 L0 0 L-5 -1.33227e-15 L-5 -5 L0 -5 L8.88178e-16 -10 L5 -10 L5 -5 L10 -5 L10 -10 L15 -10 L15 -5 L10 -5 L10 0 L15 0 L15 5 L20 5 L20 0 L25 0 L25 5 L20 5 L20 10 L15 10 L15 5 L10 5 L10 10 L15 10 L15 15 L10 15 L10 20 L15 20 L15 25 L20 25 L20 20 L15 20 L15 15 L20 15 L20 10 L25 10 L25 15 L30 15 L30 10 L35 10 L35 15 L30 15 L30 20 L35 20 L35 25 L40 25 L40 20 L35 20 L35 15 L40 15 L40 10 L45 10 L45 15 L50 15 L50 10 L45 10 L45 5 L50 5 L50 5.32907e-15 L45 3.9968e-15 L45 -5 L40 -5 L40 1.77636e-15"/>
</svg>
