<?xml version="1.0" encoding="UTF-8"?>
<svg xmlns="http://www.w3.org/2000/svg"
 version="1.1" baseProfile="basic"
 viewBox="-18 -28 103 74"
 width="1280px" height="1024px"
 stroke="white" stroke-width="1px"
 fill="black" fill-opacity="0">
<rect x="-18" y="-28" width="103" height="74" stroke-width="0px" fill-opacity="1"/>
<path d="M0 0 L0 0 L-3.53553 3.53553 L-7.07107 -1.77636e-15 L-3.53553 -3.53553 L-7.07107 -7.07107 L-3.53553 -10.6066 L8.88178e-16 -7.07107 L3.53553 -10.6066 L1.77636e-15 -14.1421 L3.53553 -17.6777 L7.07107 -14.1421 L3.53553 -10.6066 L7.07107 -7.07107 L10.6066 -10.6066 L14.1421 -7.07107 L17.6777 -10.6066 L14.1421 -14.1421 L17.6777 -17.6777 L21.2132 -14.1421 L17.6777 -10.6066 L21.2132 -7.07107 L17.6777 -3.53553 L14.1421 -7.07107 L10.6066 -3.53553 L14.1421 1.77636e-15 L17.6777 -3.53553 L21.2132 1.77636e-15 L17.6777 3.53553 L21.2132 7.07107 L24.7487 3.53553 L28.2843 7.07107 L31.8198 3.53553 L28.2843 1.77636e-15 L31.8198 -3.53553 L35.3553 1.77636e-15 L31.8198 3.53553 L35.3553 7.07107 L31.8198 10.6066 L28.2843 7.07107 L24.7487 10.6066 L28.2843 14.1421 L24.7487 17.6777 L21.2132 14.1421 L24.7487 10.6066 L21.2132 7.07107 L17.6777 10.6066 L14.1421 7.07107 L10.6066 10.6066 L14.1421 14.1421 L17.6777 10.6066 L21.2132 14.1421 L17.6777 17.6777 L21.2132 21.2132 L17.6777 24.7487 L14.1421 21.2132 L10.6066 24.7487 L14.1421 28.2843 L17.6777 24.7487 L21.2132 28.2843 L17.6777 31.8198 L21.2132 35.3553 L24.7487 31.8198 L28.2843 35.3553 L31.8198 31.8198 L28.2843 28.2843 L24.7487 31.8198 L21.2132 28.2843 L24.7487 24.7487 L21.2132 21.2132 L24.7487 17.6777 L28.2843 21.2132 L31.8198 17.6777 L28.2843 14.1421 L31.8198 10.6066 L35.3553 14.1421 L31.8198 17.6777 L35.3553 21.2132 L38.8909 17.6777 L42.4264 21.2132 L45.9619 17.6777 L42.4264 14.1421 L45.9619 10.6066 L49.4975 14.1421 L45.9619 17.6777 L49.4975 21.2132 L45.9619 24.7487 L42.4264 21.2132 L38.8909 24.7487 L42.4264 28.2843 L45.9619 24.7487 L49.4975 28.2843 L45.9619 31.8198 L49.4975 35.3553 L53.033 31.8198 L56.5685 35.3553 L60.1041 31.8198 L56.5685 28.2843 L53.033 31.8198 L49.4975 28.2843 L53.033 24.7487 L49.4975 21.2132 L53.033 17.6777 L56.5685 21.2132 L60.1041 17.6777 L56.5685 14.1421 L60.1041 10.6066 L63.6396 14.1421 L60.1041 17.6777 L63.6396 21.2132 L67.1751 17.6777 L70.7107 21.2132 L74.2462 17.6777 L70.7107 14.1421 L67.1751 17.6777 L63.6396 14.1421 L67.1751 10.6066 L63.6396 7.07107 L67.1751 3.53553 L70.7107 7.07107 L74.2462 3.53553 L70.7107 7.10543e-15 L67.1751 3.53553 L63.6396 5.32907e-15 L67.1751 -3.53553 L63.6396 -7.07107 L60.1041 -3.53553 L56.5685 -7.07107 L53.033 -3.53553 L56.5685 3.55271e-15"/>
</svg>
