<?xml version="1.0" encoding="UTF-8"?>
<svg xmlns="http://www.w3.org/2000/svg"
 version="1.1" baseProfile="basic"
 viewBox="-46 -85 357 244"
 width="1280px" height="1024px"
 stroke="white" stroke-width="1px"
 fill="black" fill-opacity="0">
<rect x="-46" y="-85" width="357" height="244" stroke-width="0px" fill-opacity="1"/>
<path d="M0 0 L0 0 L3.53553 -3.53553 L7.07107 3.55271e-15 L3.53553 3.53553 L7.07107 7.07107 L3.53553 10.6066 L-2.66454e-15 7.07107 L-3.53553 10.6066 L-5.32907e-15 14.1421 L-3.53553 17.6777 L-7.07107 14.1421 L-3.53553 10.6066 L-7.07107 7.07107 L-10.6066 10.6066 L-14.1421 7.07107 L-17.6777 10.6066 L-14.1421 14.1421 L-17.6777 17.6777 L-21.2132 14.1421 L-17.6777 10.6066 L-21.2132 7.07107 L-17.6777 3.53553 L-14.1421 7.07107 L-10.6066 3.53553 L-14.1421 -3.55271e-15 L-17.6777 3.53553 L-21.2132 -5.32907e-15 L-17.6777 -3.53553 L-21.2132 -7.07107 L-24.7487 -3.53553 L-28.2843 -7.07107 L-31.8198 -3.53553 L-28.2843 -7.10543e-15 L-31.8198 3.53553 L-35.3553 -8.88178e-15 L-31.8198 -3.53553 L-35.3553 -7.07107 L-31.8198 -10.6066 L-28.2843 -7.07107 L-24.7487 -10.6066 L-28.2843 -14.1421 L-24.7487 -17.6777 L-21.2132 -14.1421 L-24.7487 -10.6066 L-21.2132 -7.07107 L-17.6777 -10.6066 L-14.1421 -7.07107 L-10.6066 -10.6066 L-14.1421 -14.1421 L-17.6777 -10.6066 L-21.2132 -14.1421 L-17.6777 -17.6777 L-21.2132 -21.2132 L-17.6777 -24.7487 L-14.1421 -21.2132 L-10.6066 -24.7487 L-14.1421 -28.2843 L-17.6777 -24.7487 L-21.2132 -28.2843 L-17.6777 -31.8198 L-21.2132 -35.3553 L-24.7487 -31.8198 L-28.2843 -35.3553 L-31.8198 -31.8198 L-28.2843 -28.2843 L-31.8198 -24.7487 L-35.3553 -28.2843 L-31.8198 -31.8198 L-35.3553 -35.3553 L-31.8198 -38.8909 L-28.2843 -35.3553 L-24.7487 -38.8909 L-28.2843 -42.4264 L-24.7487 -45.9619 L-21.2132 -42.4264 L-24.7487 -38.8909 L-21.2132 -35.3553 L-17.6777 -38.8909 L-14.1421 -35.3553 L-10.6066 -38.8909 L-14.1421 -42.4264 L-10.6066 -45.9619 L-7.07107 -42.4264 L-10.6066 -38.8909 L-7.07107 -35.3553 L-10.6066 -31.8198 L-14.1421 -35.3553 L-17.6777 -31.8198 L-14.1421 -28.2843 L-10.6066 -31.8198 L-7.07107 -28.2843 L-10.6066 -24.7487 L-7.07107 -21.2132 L-3.53553 -24.7487 L-7.10543e-15 -21.2132 L3.53553 -24.7487 L-6.21725e-15 -28.2843 L-3.53553 -24.7487 L-7.07107 -28.2843 L-3.53553 -31.8198 L-7.07107 -35.3553 L-3.53553 -38.8909 L-5.32907e-15 -35.3553 L3.53553 -38.8909 L-4.44089e-15 -42.4264 L3.53553 -45.9619 L7.07107 -42.4264 L3.53553 -38.8909 L7.07107 -35.3553 L10.6066 -38.8909 L14.1421 -35.3553 L17.6777 -38.8909 L14.1421 -42.4264 L10.6066 -38.8909 L7.07107 -42.4264 L10.6066 -45.9619 L7.07107 -49.4975 L10.6066 -53.033 L14.1421 -49.4975 L17.6777 -53.033 L14.1421 -56.5685 L10.6066 -53.033 L7.07107 -56.5685 L10.6066 -60.1041 L7.07107 -63.6396 L3.53553 -60.1041 L-2.66454e-15 -63.6396 L-3.53553 -60.1041 L-5.32907e-15 -56.5685 L-3.53553 -53.033 L-7.07107 -56.5685 L-3.53553 -60.1041 L-7.07107 -63.6396 L-3.53553 -67.1751 L-4.44089e-15 -63.6396 L3.53553 -67.1751 L-3.55271e-15 -70.7107 L3.53553 -74.2462 L7.07107 -70.7107 L3.53553 -67.1751 L7.07107 -63.6396 L10.6066 -67.1751 L14.1421 -63.6396 L17.6777 -67.1751 L14.1421 -70.7107 L17.6777 -74.2462 L21.2132 -70.7107 L17.6777 -67.1751 L21.2132 -63.6396 L17.6777 -60.1041 L14.1421 -63.6396 L10.6066 -60.1041 L14.1421 -56.5685 L17.6777 -60.1041 L21.2132 -56.5685 L17.6777 -53.033 L21.2132 -49.4975 L24.7487 -53.033 L28.2843 -49.4975 L31.8198 -53.033 L28.2843 -56.5685 L31.8198 -60.1041 L35.3553 -56.5685 L31.8198 -53.033 L35.3553 -49.4975 L31.8198 -45.9619 L28.2843 -49.4975 L24.7487 -45.9619 L28.2843 -42.4264 L24.7487 -38.8909 L21.2132 -42.4264 L24.7487 -45.9619 L21.2132 -49.4975 L17.6777 -45.9619 L14.1421 -49.4975 L10.6066 -45.9619 L14.1421 -42.4264 L17.6777 -45.9619 L21.2132 -42.4264 L17.6777 -38.8909 L21.2132 -35.3553 L17.6777 -31.8198 L14.1421 -35.3553 L10.6066 -31.8198 L14.1421 -28.2843 L17.6777 -31.8198 L21.2132 -28.2843 L17.6777 -24.7487 L21.2132 -21.2132 L24.7487 -24.7487 L28.2843 -21.2132 L31.8198 -24.7487 L28.2843 -28.2843 L24.7487 -24.7487 L21.2132 -28.2843 L24.7487 -31.8198 L21.2132 -35.3553 L24.7487 -38.8909 L28.2843 -35.3553 L31.8198 -38.8909 L28.2843 -42.4264 L31.8198 -45.9619 L35.3553 -42.4264 L31.8198 -38.8909 L35.3553 -35.3553 L38.8909 -38.8909 L42.4264 -35.3553 L45.9619 -38.8909 L42.4264 -42.4264 L45.9619 -45.9619 L49.4975 -42.4264 L45.9619 -38.8909 L49.4975 -35.3553 L45.9619 -31.8198 L42.4264 -35.3553 L38.8909 -31.8198 L42.4264 -28.2843 L45.9619 -31.8198 L49.4975 -28.2843 L45.9619 -24.7487 L49.4975 -21.2132 L53.033 -24.7487 L56.5685 -21.2132 L60.1041 -24.7487 L56.5685 -28.2843 L53.033 -24.7487 L49.4975 -28.2843 L53.033 -31.8198 L49.4975 -35.3553 L53.033 -38.8909 L56.5685 -35.3553 L60.1041 -38.8909 L56.5685 -42.4264 L60.1041 -45.9619 L63.6396 -42.4264 L60.1041 -38.8909 L63.6396 -35.3553 L67.1751 -38.8909 L70.7107 -35.3553 L74.2462 -38.8909 L70.7107 -42.4264 L67.1751 -38.8909 L63.6396 -42.4264 L67.1751 -45.9619 L63.6396 -49.4975 L67.1751 -53.033 L70.7107 -49.4975 L74.2462 -53.033 L70.7107 -56.5685 L67.1751 -53.033 L63.6396 -56.5685 L67.1751 -60.1041 L63.6396 -63.6396 L60.1041 -60.1041 L56.5685 -63.6396 L53.033 -60.1041 L56.5685 -56.5685 L53.033 -53.033 L49.4975 -56.5685 L53.033 -60.1041 L49.4975 -63.6396 L53.033 -67.1751 L56.5685 -63.6396 L60.1041 -67.1751 L56.5685 -70.7107 L60.1041 -74.2462 L63.6396 -70.7107 L60.1041 -67.1751 L63.6396 -63.6396 L67.1751 -67.1751 L70.7107 -63.6396 L74.2462 -67.1751 L70.7107 -70.7107 L74.2462 -74.2462 L77.7817 -70.7107 L74.2462 -67.1751 L77.7817 -63.6396 L74.2462 -60.1041 L70.7107 -63.6396 L67.1751 -60.1041 L70.7107 -56.5685 L74.2462 -60.1041 L77.7817 -56.5685 L74.2462 -53.033 L77.7817 -49.4975 L81.3173 -53.033 L84.8528 -49.4975 L88.3883 -53.033 L84.8528 -56.5685 L88.3883 -60.1041 L91.9239 -56.5685 L88.3883 -53.033 L91.9239 -49.4975 L88.3883 -45.9619 L84.8528 -49.4975 L81.3173 -45.9619 L84.8528 -42.4264 L81.3173 -38.8909 L77.7817 -42.4264 L81.3173 -45.9619 L77.7817 -49.4975 L74.2462 -45.9619 L70.7107 -49.4975 L67.1751 -45.9619 L70.7107 -42.4264 L74.2462 -45.9619 L77.7817 -42.4264 L74.2462 -38.8909 L77.7817 -35.3553 L74.2462 -31.8198 L70.7107 -35.3553 L67.1751 -31.8198 L70.7107 -28.2843 L74.2462 -31.8198 L77.7817 -28.2843 L74.2462 -24.7487 L77.7817 -21.2132 L81.3173 -24.7487 L84.8528 -21.2132 L88.3883 -24.7487 L84.8528 -28.2843 L88.3883 -31.8198 L91.9239 -28.2843 L88.3883 -24.7487 L91.9239 -21.2132 L88.3883 -17.6777 L84.8528 -21.2132 L81.3173 -17.6777 L84.8528 -14.1421 L81.3173 -10.6066 L77.7817 -14.1421 L81.3173 -17.6777 L77.7817 -21.2132 L74.2462 -17.6777 L70.7107 -21.2132 L67.1751 -17.6777 L70.7107 -14.1421 L67.1751 -10.6066 L63.6396 -14.1421 L67.1751 -17.6777 L63.6396 -21.2132 L67.1751 -24.7487 L70.7107 -21.2132 L74.2462 -24.7487 L70.7107 -28.2843 L67.1751 -24.7487 L63.6396 -28.2843 L67.1751 -31.8198 L63.6396 -35.3553 L60.1041 -31.8198 L56.5685 -35.3553 L53.033 -31.8198 L56.5685 -28.2843 L60.1041 -31.8198 L63.6396 -28.2843 L60.1041 -24.7487 L63.6396 -21.2132 L60.1041 -17.6777 L56.5685 -21.2132 L53.033 -17.6777 L56.5685 -14.1421 L53.033 -10.6066 L49.4975 -14.1421 L53.033 -17.6777 L49.4975 -21.2132 L45.9619 -17.6777 L42.4264 -21.2132 L38.8909 -17.6777 L42.4264 -14.1421 L45.9619 -17.6777 L49.4975 -14.1421 L45.9619 -10.6066 L49.4975 -7.07107 L45.9619 -3.53553 L42.4264 -7.07107 L38.8909 -3.53553 L42.4264 1.77636e-15 L45.9619 -3.53553 L49.4975 1.77636e-15 L45.9619 3.53553 L49.4975 7.07107 L53.033 3.53553 L56.5685 7.07107 L60.1041 3.53553 L56.5685 1.77636e-15 L53.033 3.53553 L49.4975 0 L53.033 -3.53553 L49.4975 -7.07107 L53.033 -10.6066 L56.5685 -7.07107 L60.1041 -10.6066 L56.5685 -14.1421 L60.1041 -17.6777 L63.6396 -14.1421 L60.1041 -10.6066 L63.6396 -7.07107 L67.1751 -10.6066 L70.7107 -7.07107 L74.2462 -10.6066 L70.7107 -14.1421 L74.2462 -17.6777 L77.7817 -14.1421 L74.2462 -10.6066 L77.7817 -7.07107 L74.2462 -3.53553 L70.7107 -7.07107 L67.1751 -3.53553 L70.7107 1.77636e-15 L74.2462 -3.53553 L77.7817 1.77636e-15 L74.2462 3.53553 L77.7817 7.07107 L81.3173 3.53553 L84.8528 7.07107 L88.3883 3.53553 L84.8528 1.77636e-15 L88.3883 -3.53553 L91.9239 1.77636e-15 L88.3883 3.53553 L91.9239 7.07107 L88.3883 10.6066 L84.8528 7.07107 L81.3173 10.6066 L84.8528 14.1421 L81.3173 17.6777 L77.7817 14.1421 L81.3173 10.6066 L77.7817 7.07107 L74.2462 10.6066 L70.7107 7.07107 L67.1751 10.6066 L70.7107 14.1421 L74.2462 10.6066 L77.7817 14.1421 L74.2462 17.6777 L77.7817 21.2132 L74.2462 24.7487 L70.7107 21.2132 L67.1751 24.7487 L70.7107 28.2843 L74.2462 24.7487 L77.7817 28.2843 L74.2462 31.8198 L77.7817 35.3553 L81.3173 31.8198 L84.8528 35.3553 L88.3883 31.8198 L84.8528 28.2843 L81.3173 31.8198 L77.7817 28.2843 L81.3173 24.7487 L77.7817 21.2132 L81.3173 17.6777 L84.8528 21.2132 L88.3883 17.6777 L84.8528 14.1421 L88.3883 10.6066 L91.9239 14.1421 L88.3883 17.6777 L91.9239 21.2132 L95.4594 17.6777 L98.9949 21.2132 L102.53 17.6777 L98.9949 14.1421 L102.53 10.6066 L106.066 14.1421 L102.53 17.6777 L106.066 21.2132 L102.53 24.7487 L98.9949 21.2132 L95.4594 24.7487 L98.9949 28.2843 L102.53 24.7487 L106.066 28.2843 L102.53 31.8198 L106.066 35.3553 L109.602 31.8198 L113.137 35.3553 L116.673 31.8198 L113.137 28.2843 L109.602 31.8198 L106.066 28.2843 L109.602 24.7487 L106.066 21.2132 L109.602 17.6777 L113.137 21.2132 L116.673 17.6777 L113.137 14.1421 L116.673 10.6066 L120.208 14.1421 L116.673 17.6777 L120.208 21.2132 L123.744 17.6777 L127.279 21.2132 L130.815 17.6777 L127.279 14.1421 L123.744 17.6777 L120.208 14.1421 L123.744 10.6066 L120.208 7.07107 L123.744 3.53553 L127.279 7.07107 L130.815 3.53553 L127.279 7.10543e-15 L123.744 3.53553 L120.208 5.32907e-15 L123.744 -3.53553 L120.208 -7.07107 L116.673 -3.53553 L113.137 -7.07107 L109.602 -3.53553 L113.137 3.55271e-15 L109.602 3.53553 L106.066 1.77636e-15 L109.602 -3.53553 L106.066 -7.07107 L109.602 -10.6066 L113.137 -7.07107 L116.673 -10.6066 L113.137 -14.1421 L116.673 -17.6777 L120.208 -14.1421 L116.673 -10.6066 L120.208 -7.07107 L123.744 -10.6066 L127.279 -7.07107 L130.815 -10.6066 L127.279 -14.1421 L130.815 -17.6777 L134.35 -14.1421 L130.815 -10.6066 L134.35 -7.07107 L130.815 -3.53553 L127.279 -7.07107 L123.744 -3.53553 L127.279 5.32907e-15 L130.815 -3.53553 L134.35 5.32907e-15 L130.815 3.53553 L134.35 7.07107 L137.886 3.53553 L141.421 7.07107 L144.957 3.53553 L141.421 5.32907e-15 L144.957 -3.53553 L148.492 5.32907e-15 L144.957 3.53553 L148.492 7.07107 L144.957 10.6066 L141.421 7.07107 L137.886 10.6066 L141.421 14.1421 L137.886 17.6777 L134.35 14.1421 L137.886 10.6066 L134.35 7.07107 L130.815 10.6066 L127.279 7.07107 L123.744 10.6066 L127.279 14.1421 L130.815 10.6066 L134.35 14.1421 L130.815 17.6777 L134.35 21.2132 L130.815 24.7487 L127.279 21.2132 L123.744 24.7487 L127.279 28.2843 L130.815 24.7487 L134.35 28.2843 L130.815 31.8198 L134.35 35.3553 L137.886 31.8198 L141.421 35.3553 L144.957 31.8198 L141.421 28.2843 L144.957 24.7487 L148.492 28.2843 L144.957 31.8198 L148.492 35.3553 L144.957 38.8909 L141.421 35.3553 L137.886 38.8909 L141.421 42.4264 L137.886 45.9619 L134.35 42.4264 L137.886 38.8909 L134.35 35.3553 L130.815 38.8909 L127.279 35.3553 L123.744 38.8909 L127.279 42.4264 L123.744 45.9619 L120.208 42.4264 L123.744 38.8909 L120.208 35.3553 L123.744 31.8198 L127.279 35.3553 L130.815 31.8198 L127.279 28.2843 L123.744 31.8198 L120.208 28.2843 L123.744 24.7487 L120.208 21.2132 L116.673 24.7487 L113.137 21.2132 L109.602 24.7487 L113.137 28.2843 L116.673 24.7487 L120.208 28.2843 L116.673 31.8198 L120.208 35.3553 L116.673 38.8909 L113.137 35.3553 L109.602 38.8909 L113.137 42.4264 L109.602 45.9619 L106.066 42.4264 L109.602 38.8909 L106.066 35.3553 L102.53 38.8909 L98.9949 35.3553 L95.4594 38.8909 L98.9949 42.4264 L102.53 38.8909 L106.066 42.4264 L102.53 45.9619 L106.066 49.4975 L102.53 53.033 L98.9949 49.4975 L95.4594 53.033 L98.9949 56.5685 L102.53 53.033 L106.066 56.5685 L102.53 60.1041 L106.066 63.6396 L109.602 60.1041 L113.137 63.6396 L116.673 60.1041 L113.137 56.5685 L116.673 53.033 L120.208 56.5685 L116.673 60.1041 L120.208 63.6396 L116.673 67.1751 L113.137 63.6396 L109.602 67.1751 L113.137 70.7107 L109.602 74.2462 L106.066 70.7107 L109.602 67.1751 L106.066 63.6396 L102.53 67.1751 L98.9949 63.6396 L95.4594 67.1751 L98.9949 70.7107 L95.4594 74.2462 L91.9239 70.7107 L95.4594 67.1751 L91.9239 63.6396 L95.4594 60.1041 L98.9949 63.6396 L102.53 60.1041 L98.9949 56.5685 L95.4594 60.1041 L91.9239 56.5685 L95.4594 53.033 L91.9239 49.4975 L88.3883 53.033 L84.8528 49.4975 L81.3173 53.033 L84.8528 56.5685 L81.3173 60.1041 L77.7817 56.5685 L81.3173 53.033 L77.7817 49.4975 L81.3173 45.9619 L84.8528 49.4975 L88.3883 45.9619 L84.8528 42.4264 L88.3883 38.8909 L91.9239 42.4264 L88.3883 45.9619 L91.9239 49.4975 L95.4594 45.9619 L98.9949 49.4975 L102.53 45.9619 L98.9949 42.4264 L95.4594 45.9619 L91.9239 42.4264 L95.4594 38.8909 L91.9239 35.3553 L95.4594 31.8198 L98.9949 35.3553 L102.53 31.8198 L98.9949 28.2843 L95.4594 31.8198 L91.9239 28.2843 L95.4594 24.7487 L91.9239 21.2132 L88.3883 24.7487 L84.8528 21.2132 L81.3173 24.7487 L84.8528 28.2843 L88.3883 24.7487 L91.9239 28.2843 L88.3883 31.8198 L91.9239 35.3553 L88.3883 38.8909 L84.8528 35.3553 L81.3173 38.8909 L84.8528 42.4264 L81.3173 45.9619 L77.7817 42.4264 L81.3173 38.8909 L77.7817 35.3553 L74.2462 38.8909 L70.7107 35.3553 L67.1751 38.8909 L70.7107 42.4264 L67.1751 45.9619 L63.6396 42.4264 L67.1751 38.8909 L63.6396 35.3553 L67.1751 31.8198 L70.7107 35.3553 L74.2462 31.8198 L70.7107 28.2843 L67.1751 31.8198 L63.6396 28.2843 L67.1751 24.7487 L63.6396 21.2132 L60.1041 24.7487 L56.5685 21.2132 L53.033 24.7487 L56.5685 28.2843 L60.1041 24.7487 L63.6396 28.2843 L60.1041 31.8198 L63.6396 35.3553 L60.1041 38.8909 L56.5685 35.3553 L53.033 38.8909 L56.5685 42.4264 L53.033 45.9619 L49.4975 42.4264 L53.033 38.8909 L49.4975 35.3553 L45.9619 38.8909 L42.4264 35.3553 L38.8909 38.8909 L42.4264 42.4264 L45.9619 38.8909 L49.4975 42.4264 L45.9619 45.9619 L49.4975 49.4975 L45.9619 53.033 L42.4264 49.4975 L38.8909 53.033 L42.4264 56.5685 L45.9619 53.033 L49.4975 56.5685 L45.9619 60.1041 L49.4975 63.6396 L53.033 60.1041 L56.5685 63.6396 L60.1041 60.1041 L56.5685 56.5685 L53.033 60.1041 L49.4975 56.5685 L53.033 53.033 L49.4975 49.4975 L53.033 45.9619 L56.5685 49.4975 L60.1041 45.9619 L56.5685 42.4264 L60.1041 38.8909 L63.6396 42.4264 L60.1041 45.9619 L63.6396 49.4975 L67.1751 45.9619 L70.7107 49.4975 L74.2462 45.9619 L70.7107 42.4264 L74.2462 38.8909 L77.7817 42.4264 L74.2462 45.9619 L77.7817 49.4975 L74.2462 53.033 L70.7107 49.4975 L67.1751 53.033 L70.7107 56.5685 L74.2462 53.033 L77.7817 56.5685 L74.2462 60.1041 L77.7817 63.6396 L81.3173 60.1041 L84.8528 63.6396 L88.3883 60.1041 L84.8528 56.5685 L88.3883 53.033 L91.9239 56.5685 L88.3883 60.1041 L91.9239 63.6396 L88.3883 67.1751 L84.8528 63.6396 L81.3173 67.1751 L84.8528 70.7107 L81.3173 74.2462 L77.7817 70.7107 L81.3173 67.1751 L77.7817 63.6396 L74.2462 67.1751 L70.7107 63.6396 L67.1751 67.1751 L70.7107 70.7107 L74.2462 67.1751 L77.7817 70.7107 L74.2462 74.2462 L77.7817 77.7817 L74.2462 81.3173 L70.7107 77.7817 L67.1751 81.3173 L70.7107 84.8528 L74.2462 81.3173 L77.7817 84.8528 L74.2462 88.3883 L77.7817 91.9239 L81.3173 88.3883 L84.8528 91.9239 L88.3883 88.3883 L84.8528 84.8528 L88.3883 81.3173 L91.9239 84.8528 L88.3883 88.3883 L91.9239 91.9239 L88.3883 95.4594 L84.8528 91.9239 L81.3173 95.4594 L84.8528 98.9949 L81.3173 102.53 L77.7817 98.9949 L81.3173 95.4594 L77.7817 91.9239 L74.2462 95.4594 L70.7107 91.9239 L67.1751 95.4594 L70.7107 98.9949 L67.1751 102.53 L63.6396 98.9949 L67.1751 95.4594 L63.6396 91.9239 L67.1751 88.3883 L70.7107 91.9239 L74.2462 88.3883 L70.7107 84.8528 L67.1751 88.3883 L63.6396 84.8528 L67.1751 81.3173 L63.6396 77.7817 L60.1041 81.3173 L56.5685 77.7817 L53.033 81.3173 L56.5685 84.8528 L60.1041 81.3173 L63.6396 84.8528 L60.1041 88.3883 L63.6396 91.9239 L60.1041 95.4594 L56.5685 91.9239 L53.033 95.4594 L56.5685 98.9949 L53.033 102.53 L49.4975 98.9949 L53.033 95.4594 L49.4975 91.9239 L45.9619 95.4594 L42.4264 91.9239 L38.8909 95.4594 L42.4264 98.9949 L45.9619 95.4594 L49.4975 98.9949 L45.9619 102.53 L49.4975 106.066 L45.9619 109.602 L42.4264 106.066 L38.8909 109.602 L42.4264 113.137 L45.9619 109.602 L49.4975 113.137 L45.9619 116.673 L49.4975 120.208 L53.033 116.673 L56.5685 120.208 L60.1041 116.673 L56.5685 113.137 L53.033 116.673 L49.4975 113.137 L53.033 109.602 L49.4975 106.066 L53.033 102.53 L56.5685 106.066 L60.1041 102.53 L56.5685 98.9949 L60.1041 95.4594 L63.6396 98.9949 L60.1041 102.53 L63.6396 106.066 L67.1751 102.53 L70.7107 106.066 L74.2462 102.53 L70.7107 98.9949 L74.2462 95.4594 L77.7817 98.9949 L74.2462 102.53 L77.7817 106.066 L74.2462 109.602 L70.7107 106.066 L67.1751 109.602 L70.7107 113.137 L74.2462 109.602 L77.7817 113.137 L74.2462 116.673 L77.7817 120.208 L81.3173 116.673 L84.8528 120.208 L88.3883 116.673 L84.8528 113.137 L88.3883 109.602 L91.9239 113.137 L88.3883 116.673 L91.9239 120.208 L88.3883 123.744 L84.8528 120.208 L81.3173 123.744 L84.8528 127.279 L81.3173 130.815 L77.7817 127.279 L81.3173 123.744 L77.7817 120.208 L74.2462 123.744 L70.7107 120.208 L67.1751 123.744 L70.7107 127.279 L74.2462 123.744 L77.7817 127.279 L74.2462 130.815 L77.7817 134.35 L74.2462 137.886 L70.7107 134.35 L67.1751 137.886 L70.7107 141.421 L74.2462 137.886 L77.7817 141.421 L74.2462 144.957 L77.7817 148.492 L81.3173 144.957 L84.8528 148.492 L88.3883 144.957 L84.8528 141.421 L81.3173 144.957 L77.7817 141.421 L81.3173 137.886 L77.7817 134.35 L81.3173 130.815 L84.8528 134.35 L88.3883 130.815 L84.8528 127.279 L88.3883 123.744 L91.9239 127.279 L88.3883 130.815 L91.9239 134.35 L95.4594 130.815 L98.9949 134.35 L102.53 130.815 L98.9949 127.279 L102.53 123.744 L106.066 127.279 L102.53 130.815 L106.066 134.35 L102.53 137.886 L98.9949 134.35 L95.4594 137.886 L98.9949 141.421 L102.53 137.886 L106.066 141.421 L102.53 144.957 L106.066 148.492 L109.602 144.957 L113.137 148.492 L116.673 144.957 L113.137 141.421 L109.602 144.957 L106.066 141.421 L109.602 137.886 L106.066 134.35 L109.602 130.815 L113.137 134.35 L116.673 130.815 L113.137 127.279 L116.673 123.744 L120.208 127.279 L116.673 130.815 L120.208 134.35 L123.744 130.815 L127.279 134.35 L130.815 130.815 L127.279 127.279 L123.744 130.815 L120.208 127.279 L123.744 123.744 L120.208 120.208 L123.744 116.673 L127.279 120.208 L130.815 116.673 L127.279 113.137 L123.744 116.673 L120.208 113.137 L123.744 109.602 L120.208 106.066 L116.673 109.602 L113.137 106.066 L109.602 109.602 L113.137 113.137 L116.673 109.602 L120.208 113.137 L116.673 116.673 L120.208 120.208 L116.673 123.744 L113.137 120.208 L109.602 123.744 L113.137 127.279 L109.602 130.815 L106.066 127.279 L109.602 123.744 L106.066 120.208 L102.53 123.744 L98.9949 120.208 L95.4594 123.744 L98.9949 127.279 L95.4594 130.815 L91.9239 127.279 L95.4594 123.744 L91.9239 120.208 L95.4594 116.673 L98.9949 120.208 L102.53 116.673 L98.9949 113.137 L95.4594 116.673 L91.9239 113.137 L95.4594 109.602 L91.9239 106.066 L88.3883 109.602 L84.8528 106.066 L81.3173 109.602 L84.8528 113.137 L81.3173 116.673 L77.7817 113.137 L81.3173 109.602 L77.7817 106.066 L81.3173 102.53 L84.8528 106.066 L88.3883 102.53 L84.8528 98.9949 L88.3883 95.4594 L91.9239 98.9949 L88.3883 102.53 L91.9239 106.066 L95.4594 102.53 L98.9949 106.066 L102.53 102.53 L98.9949 98.9949 L95.4594 102.53 L91.9239 98.9949 L95.4594 95.4594 L91.9239 91.9239 L95.4594 88.3883 L98.9949 91.9239 L102.53 88.3883 L98.9949 84.8528 L95.4594 88.3883 L91.9239 84.8528 L95.4594 81.3173 L91.9239 77.7817 L88.3883 81.3173 L84.8528 77.7817 L81.3173 81.3173 L84.8528 84.8528 L81.3173 88.3883 L77.7817 84.8528 L81.3173 81.3173 L77.7817 77.7817 L81.3173 74.2462 L84.8528 77.7817 L88.3883 74.2462 L84.8528 70.7107 L88.3883 67.1751 L91.9239 70.7107 L88.3883 74.2462 L91.9239 77.7817 L95.4594 74.2462 L98.9949 77.7817 L102.53 74.2462 L98.9949 70.7107 L102.53 67.1751 L106.066 70.7107 L102.53 74.2462 L106.066 77.7817 L102.53 81.3173 L98.9949 77.7817 L95.4594 81.3173 L98.9949 84.8528 L102.53 81.3173 L106.066 84.8528 L102.53 88.3883 L106.066 91.9239 L109.602 88.3883 L113.137 91.9239 L116.673 88.3883 L113.137 84.8528 L109.602 88.3883 L106.066 84.8528 L109.602 81.3173 L106.066 77.7817 L109.602 74.2462 L113.137 77.7817 L116.673 74.2462 L113.137 70.7107 L116.673 67.1751 L120.208 70.7107 L116.673 74.2462 L120.208 77.7817 L123.744 74.2462 L127.279 77.7817 L130.815 74.2462 L127.279 70.7107 L123.744 74.2462 L120.208 70.7107 L123.744 67.1751 L120.208 63.6396 L123.744 60.1041 L127.279 63.6396 L130.815 60.1041 L127.279 56.5685 L123.744 60.1041 L120.208 56.5685 L123.744 53.033 L120.208 49.4975 L116.673 53.033 L113.137 49.4975 L109.602 53.033 L113.137 56.5685 L109.602 60.1041 L106.066 56.5685 L109.602 53.033 L106.066 49.4975 L109.602 45.9619 L113.137 49.4975 L116.673 45.9619 L113.137 42.4264 L116.673 38.8909 L120.208 42.4264 L116.673 45.9619 L120.208 49.4975 L123.744 45.9619 L127.279 49.4975 L130.815 45.9619 L127.279 42.4264 L130.815 38.8909 L134.35 42.4264 L130.815 45.9619 L134.35 49.4975 L130.815 53.033 L127.279 49.4975 L123.744 53.033 L127.279 56.5685 L130.815 53.033 L134.35 56.5685 L130.815 60.1041 L134.35 63.6396 L137.886 60.1041 L141.421 63.6396 L144.957 60.1041 L141.421 56.5685 L144.957 53.033 L148.492 56.5685 L144.957 60.1041 L148.492 63.6396 L144.957 67.1751 L141.421 63.6396 L137.886 67.1751 L141.421 70.7107 L137.886 74.2462 L134.35 70.7107 L137.886 67.1751 L134.35 63.6396 L130.815 67.1751 L127.279 63.6396 L123.744 67.1751 L127.279 70.7107 L130.815 67.1751 L134.35 70.7107 L130.815 74.2462 L134.35 77.7817 L130.815 81.3173 L127.279 77.7817 L123.744 81.3173 L127.279 84.8528 L130.815 81.3173 L134.35 84.8528 L130.815 88.3883 L134.35 91.9239 L137.886 88.3883 L141.421 91.9239 L144.957 88.3883 L141.421 84.8528 L137.886 88.3883 L134.35 84.8528 L137.886 81.3173 L134.35 77.7817 L137.886 74.2462 L141.421 77.7817 L144.957 74.2462 L141.421 70.7107 L144.957 67.1751 L148.492 70.7107 L144.957 74.2462 L148.492 77.7817 L152.028 74.2462 L155.563 77.7817 L159.099 74.2462 L155.563 70.7107 L159.099 67.1751 L162.635 70.7107 L159.099 74.2462 L162.635 77.7817 L159.099 81.3173 L155.563 77.7817 L152.028 81.3173 L155.563 84.8528 L159.099 81.3173 L162.635 84.8528 L159.099 88.3883 L162.635 91.9239 L166.17 88.3883 L169.706 91.9239 L173.241 88.3883 L169.706 84.8528 L166.17 88.3883 L162.635 84.8528 L166.17 81.3173 L162.635 77.7817 L166.17 74.2462 L169.706 77.7817 L173.241 74.2462 L169.706 70.7107 L173.241 67.1751 L176.777 70.7107 L173.241 74.2462 L176.777 77.7817 L180.312 74.2462 L183.848 77.7817 L187.383 74.2462 L183.848 70.7107 L180.312 74.2462 L176.777 70.7107 L180.312 67.1751 L176.777 63.6396 L180.312 60.1041 L183.848 63.6396 L187.383 60.1041 L183.848 56.5685 L180.312 60.1041 L176.777 56.5685 L180.312 53.033 L176.777 49.4975 L173.241 53.033 L169.706 49.4975 L166.17 53.033 L169.706 56.5685 L166.17 60.1041 L162.635 56.5685 L166.17 53.033 L162.635 49.4975 L166.17 45.9619 L169.706 49.4975 L173.241 45.9619 L169.706 42.4264 L173.241 38.8909 L176.777 42.4264 L173.241 45.9619 L176.777 49.4975 L180.312 45.9619 L183.848 49.4975 L187.383 45.9619 L183.848 42.4264 L187.383 38.8909 L190.919 42.4264 L187.383 45.9619 L190.919 49.4975 L187.383 53.033 L183.848 49.4975 L180.312 53.033 L183.848 56.5685 L187.383 53.033 L190.919 56.5685 L187.383 60.1041 L190.919 63.6396 L194.454 60.1041 L197.99 63.6396 L201.525 60.1041 L197.99 56.5685 L201.525 53.033 L205.061 56.5685 L201.525 60.1041 L205.061 63.6396 L201.525 67.1751 L197.99 63.6396 L194.454 67.1751 L197.99 70.7107 L194.454 74.2462 L190.919 70.7107 L194.454 67.1751 L190.919 63.6396 L187.383 67.1751 L183.848 63.6396 L180.312 67.1751 L183.848 70.7107 L187.383 67.1751 L190.919 70.7107 L187.383 74.2462 L190.919 77.7817 L187.383 81.3173 L183.848 77.7817 L180.312 81.3173 L183.848 84.8528 L187.383 81.3173 L190.919 84.8528 L187.383 88.3883 L190.919 91.9239 L194.454 88.3883 L197.99 91.9239 L201.525 88.3883 L197.99 84.8528 L201.525 81.3173 L205.061 84.8528 L201.525 88.3883 L205.061 91.9239 L201.525 95.4594 L197.99 91.9239 L194.454 95.4594 L197.99 98.9949 L194.454 102.53 L190.919 98.9949 L194.454 95.4594 L190.919 91.9239 L187.383 95.4594 L183.848 91.9239 L180.312 95.4594 L183.848 98.9949 L180.312 102.53 L176.777 98.9949 L180.312 95.4594 L176.777 91.9239 L180.312 88.3883 L183.848 91.9239 L187.383 88.3883 L183.848 84.8528 L180.312 88.3883 L176.777 84.8528 L180.312 81.3173 L176.777 77.7817 L173.241 81.3173 L169.706 77.7817 L166.17 81.3173 L169.706 84.8528 L173.241 81.3173 L176.777 84.8528 L173.241 88.3883 L176.777 91.9239 L173.241 95.4594 L169.706 91.9239 L166.17 95.4594 L169.706 98.9949 L166.17 102.53 L162.635 98.9949 L166.17 95.4594 L162.635 91.9239 L159.099 95.4594 L155.563 91.9239 L152.028 95.4594 L155.563 98.9949 L159.099 95.4594 L162.635 98.9949 L159.099 102.53 L162.635 106.066 L159.099 109.602 L155.563 106.066 L152.028 109.602 L155.563 113.137 L159.099 109.602 L162.635 113.137 L159.099 116.673 L162.635 120.208 L166.17 116.673 L169.706 120.208 L173.241 116.673 L169.706 113.137 L166.17 116.673 L162.635 113.137 L166.17 109.602 L162.635 106.066 L166.17 102.53 L169.706 106.066 L173.241 102.53 L169.706 98.9949 L173.241 95.4594 L176.777 98.9949 L173.241 102.53 L176.777 106.066 L180.312 102.53 L183.848 106.066 L187.383 102.53 L183.848 98.9949 L187.383 95.4594 L190.919 98.9949 L187.383 102.53 L190.919 106.066 L187.383 109.602 L183.848 106.066 L180.312 109.602 L183.848 113.137 L187.383 109.602 L190.919 113.137 L187.383 116.673 L190.919 120.208 L194.454 116.673 L197.99 120.208 L201.525 116.673 L197.99 113.137 L201.525 109.602 L205.061 113.137 L201.525 116.673 L205.061 120.208 L201.525 123.744 L197.99 120.208 L194.454 123.744 L197.99 127.279 L194.454 130.815 L190.919 127.279 L194.454 123.744 L190.919 120.208 L187.383 123.744 L183.848 120.208 L180.312 123.744 L183.848 127.279 L187.383 123.744 L190.919 127.279 L187.383 130.815 L190.919 134.35 L187.383 137.886 L183.848 134.35 L180.312 137.886 L183.848 141.421 L187.383 137.886 L190.919 141.421 L187.383 144.957 L190.919 148.492 L194.454 144.957 L197.99 148.492 L201.525 144.957 L197.99 141.421 L194.454 144.957 L190.919 141.421 L194.454 137.886 L190.919 134.35 L194.454 130.815 L197.99 134.35 L201.525 130.815 L197.99 127.279 L201.525 123.744 L205.061 127.279 L201.525 130.815 L205.061 134.35 L208.597 130.815 L212.132 134.35 L215.668 130.815 L212.132 127.279 L215.668 123.744 L219.203 127.279 L215.668 130.815 L219.203 134.35 L215.668 137.886 L212.132 134.35 L208.597 137.886 L212.132 141.421 L215.668 137.886 L219.203 141.421 L215.668 144.957 L219.203 148.492 L222.739 144.957 L226.274 148.492 L229.81 144.957 L226.274 141.421 L222.739 144.957 L219.203 141.421 L222.739 137.886 L219.203 134.35 L222.739 130.815 L226.274 134.35 L229.81 130.815 L226.274 127.279 L229.81 123.744 L233.345 127.279 L229.81 130.815 L233.345 134.35 L236.881 130.815 L240.416 134.35 L243.952 130.815 L240.416 127.279 L236.881 130.815 L233.345 127.279 L236.881 123.744 L233.345 120.208 L236.881 116.673 L240.416 120.208 L243.952 116.673 L240.416 113.137 L236.881 116.673 L233.345 113.137 L236.881 109.602 L233.345 106.066 L229.81 109.602 L226.274 106.066 L222.739 109.602 L226.274 113.137 L229.81 109.602 L233.345 113.137 L229.81 116.673 L233.345 120.208 L229.81 123.744 L226.274 120.208 L222.739 123.744 L226.274 127.279 L222.739 130.815 L219.203 127.279 L222.739 123.744 L219.203 120.208 L215.668 123.744 L212.132 120.208 L208.597 123.744 L212.132 127.279 L208.597 130.815 L205.061 127.279 L208.597 123.744 L205.061 120.208 L208.597 116.673 L212.132 120.208 L215.668 116.673 L212.132 113.137 L208.597 116.673 L205.061 113.137 L208.597 109.602 L205.061 106.066 L201.525 109.602 L197.99 106.066 L194.454 109.602 L197.99 113.137 L194.454 116.673 L190.919 113.137 L194.454 109.602 L190.919 106.066 L194.454 102.53 L197.99 106.066 L201.525 102.53 L197.99 98.9949 L201.525 95.4594 L205.061 98.9949 L201.525 102.53 L205.061 106.066 L208.597 102.53 L212.132 106.066 L215.668 102.53 L212.132 98.9949 L208.597 102.53 L205.061 98.9949 L208.597 95.4594 L205.061 91.9239 L208.597 88.3883 L212.132 91.9239 L215.668 88.3883 L212.132 84.8528 L208.597 88.3883 L205.061 84.8528 L208.597 81.3173 L205.061 77.7817 L201.525 81.3173 L197.99 77.7817 L194.454 81.3173 L197.99 84.8528 L194.454 88.3883 L190.919 84.8528 L194.454 81.3173 L190.919 77.7817 L194.454 74.2462 L197.99 77.7817 L201.525 74.2462 L197.99 70.7107 L201.525 67.1751 L205.061 70.7107 L201.525 74.2462 L205.061 77.7817 L208.597 74.2462 L212.132 77.7817 L215.668 74.2462 L212.132 70.7107 L215.668 67.1751 L219.203 70.7107 L215.668 74.2462 L219.203 77.7817 L215.668 81.3173 L212.132 77.7817 L208.597 81.3173 L212.132 84.8528 L215.668 81.3173 L219.203 84.8528 L215.668 88.3883 L219.203 91.9239 L222.739 88.3883 L226.274 91.9239 L229.81 88.3883 L226.274 84.8528 L222.739 88.3883 L219.203 84.8528 L222.739 81.3173 L219.203 77.7817 L222.739 74.2462 L226.274 77.7817 L229.81 74.2462 L226.274 70.7107 L229.81 67.1751 L233.345 70.7107 L229.81 74.2462 L233.345 77.7817 L236.881 74.2462 L240.416 77.7817 L243.952 74.2462 L240.416 70.7107 L236.881 74.2462 L233.345 70.7107 L236.881 67.1751 L233.345 63.6396 L236.881 60.1041 L240.416 63.6396 L243.952 60.1041 L240.416 56.5685 L236.881 60.1041 L233.345 56.5685 L236.881 53.033 L233.345 49.4975 L229.81 53.033 L226.274 49.4975 L222.739 53.033 L226.274 56.5685 L222.739 60.1041 L219.203 56.5685 L222.739 53.033 L219.203 49.4975 L222.739 45.9619 L226.274 49.4975 L229.81 45.9619 L226.274 42.4264 L229.81 38.8909 L233.345 42.4264 L229.81 45.9619 L233.345 49.4975 L236.881 45.9619 L240.416 49.4975 L243.952 45.9619 L240.416 42.4264 L243.952 38.8909 L247.487 42.4264 L243.952 45.9619 L247.487 49.4975 L243.952 53.033 L240.416 49.4975 L236.881 53.033 L240.416 56.5685 L243.952 53.033 L247.487 56.5685 L243.952 60.1041 L247.487 63.6396 L251.023 60.1041 L254.558 63.6396 L258.094 60.1041 L254.558 56.5685 L258.094 53.033 L261.63 56.5685 L258.094 60.1041 L261.63 63.6396 L258.094 67.1751 L254.558 63.6396 L251.023 67.1751 L254.558 70.7107 L251.023 74.2462 L247.487 70.7107 L251.023 67.1751 L247.487 63.6396 L243.952 67.1751 L240.416 63.6396 L236.881 67.1751 L240.416 70.7107 L243.952 67.1751 L247.487 70.7107 L243.952 74.2462 L247.487 77.7817 L243.952 81.3173 L240.416 77.7817 L236.881 81.3173 L240.416 84.8528 L243.952 81.3173 L247.487 84.8528 L243.952 88.3883 L247.487 91.9239 L251.023 88.3883 L254.558 91.9239 L258.094 88.3883 L254.558 84.8528 L251.023 88.3883 L247.487 84.8528 L251.023 81.3173 L247.487 77.7817 L251.023 74.2462 L254.558 77.7817 L258.094 74.2462 L254.558 70.7107 L258.094 67.1751 L261.63 70.7107 L258.094 74.2462 L261.63 77.7817 L265.165 74.2462 L268.701 77.7817 L272.236 74.2462 L268.701 70.7107 L272.236 67.1751 L275.772 70.7107 L272.236 74.2462 L275.772 77.7817 L272.236 81.3173 L268.701 77.7817 L265.165 81.3173 L268.701 84.8528 L272.236 81.3173 L275.772 84.8528 L272.236 88.3883 L275.772 91.9239 L279.307 88.3883 L282.843 91.9239 L286.378 88.3883 L282.843 84.8528 L279.307 88.3883 L275.772 84.8528 L279.307 81.3173 L275.772 77.7817 L279.307 74.2462 L282.843 77.7817 L286.378 74.2462 L282.843 70.7107 L286.378 67.1751 L289.914 70.7107 L286.378 74.2462 L289.914 77.7817 L293.449 74.2462 L296.985 77.7817 L300.52 74.2462 L296.985 70.7107 L293.449 74.2462 L289.914 70.7107 L293.449 67.1751 L289.914 63.6396 L293.449 60.1041 L296.985 63.6396 L300.52 60.1041 L296.985 56.5685 L293.449 60.1041 L289.914 56.5685 L293.449 53.033 L289.914 49.4975 L286.378 53.033 L282.843 49.4975 L279.307 53.033 L282.843 56.5685 L286.378 53.033 L289.914 56.5685 L286.378 60.1041 L289.914 63.6396 L286.378 67.1751 L282.843 63.6396 L279.307 67.1751 L282.843 70.7107 L279.307 74.2462 L275.772 70.7107 L279.307 67.1751 L275.772 63.6396 L272.236 67.1751 L268.701 63.6396 L265.165 67.1751 L268.701 70.7107 L265.165 74.2462 L261.63 70.7107 L265.165 67.1751 L261.63 63.6396 L265.165 60.1041 L268.701 63.6396 L272.236 60.1041 L268.701 56.5685 L265.165 60.1041 L261.63 56.5685 L265.165 53.033 L261.63 49.4975 L258.094 53.033 L254.558 49.4975 L251.023 53.033 L254.558 56.5685 L251.023 60.1041 L247.487 56.5685 L251.023 53.033 L247.487 49.4975 L251.023 45.9619 L254.558 49.4975 L258.094 45.9619 L254.558 42.4264 L258.094 38.8909 L261.63 42.4264 L258.094 45.9619 L261.63 49.4975 L265.165 45.9619 L268.701 49.4975 L272.236 45.9619 L268.701 42.4264 L265.165 45.9619 L261.63 42.4264 L265.165 38.8909 L261.63 35.3553 L265.165 31.8198 L268.701 35.3553 L272.236 31.8198 L268.701 28.2843 L265.165 31.8198 L261.63 28.2843 L265.165 24.7487 L261.63 21.2132 L258.094 24.7487 L254.558 21.2132 L251.023 24.7487 L254.558 28.2843 L251.023 31.8198 L247.487 28.2843 L251.023 24.7487 L247.487 21.2132 L251.023 17.6777 L254.558 21.2132 L258.094 17.6777 L254.558 14.1421 L258.094 10.6066 L261.63 14.1421 L258.094 17.6777 L261.63 21.2132 L265.165 17.6777 L268.701 21.2132 L272.236 17.6777 L268.701 14.1421 L272.236 10.6066 L275.772 14.1421 L272.236 17.6777 L275.772 21.2132 L272.236 24.7487 L268.701 21.2132 L265.165 24.7487 L268.701 28.2843 L272.236 24.7487 L275.772 28.2843 L272.236 31.8198 L275.772 35.3553 L279.307 31.8198 L282.843 35.3553 L286.378 31.8198 L282.843 28.2843 L279.307 31.8198 L275.772 28.2843 L279.307 24.7487 L275.772 21.2132 L279.307 17.6777 L282.843 21.2132 L286.378 17.6777 L282.843 14.1421 L286.378 10.6066 L289.914 14.1421 L286.378 17.6777 L289.914 21.2132 L293.449 17.6777 L296.985 21.2132 L300.52 17.6777 L296.985 14.1421 L293.449 17.6777 L289.914 14.1421 L293.449 10.6066 L289.914 7.07107 L293.449 3.53553 L296.985 7.07107 L300.52 3.53553 L296.985 2.84217e-14 L293.449 3.53553 L289.914 2.66454e-14 L293.449 -3.53553 L289.914 -7.07107 L286.378 -3.53553 L282.843 -7.07107 L279.307 -3.53553 L282.843 2.4869e-14 L286.378 -3.53553 L289.914 2.84217e-14 L286.378 3.53553 L289.914 7.07107 L286.378 10.6066 L282.843 7.07107 L279.307 10.6066 L282.843 14.1421 L279.307 17.6777 L275.772 14.1421 L279.307 10.6066 L275.772 7.07107 L272.236 10.6066 L268.701 7.07107 L265.165 10.6066 L268.701 14.1421 L265.165 17.6777 L261.63 14.1421 L265.165 10.6066 L261.63 7.07107 L265.165 3.53553 L268.701 7.07107 L272.236 3.53553 L268.701 2.13163e-14 L265.165 3.53553 L261.63 1.95399e-14 L265.165 -3.53553 L261.63 -7.07107 L258.094 -3.53553 L254.558 -7.07107 L251.023 -3.53553 L254.558 1.77636e-14 L251.023 3.53553 L247.487 1.59872e-14 L251.023 -3.53553 L247.487 -7.07107 L251.023 -10.6066 L254.558 -7.07107 L258.094 -10.6066 L254.558 -14.1421 L258.094 -17.6777 L261.63 -14.1421 L258.094 -10.6066 L261.63 -7.07107 L265.165 -10.6066 L268.701 -7.07107 L272.236 -10.6066 L268.701 -14.1421 L265.165 -10.6066 L261.63 -14.1421 L265.165 -17.6777 L261.63 -21.2132 L265.165 -24.7487 L268.701 -21.2132 L272.236 -24.7487 L268.701 -28.2843 L265.165 -24.7487 L261.63 -28.2843 L265.165 -31.8198 L261.63 -35.3553 L258.094 -31.8198 L254.558 -35.3553 L251.023 -31.8198 L254.558 -28.2843 L258.094 -31.8198 L261.63 -28.2843 L258.094 -24.7487 L261.63 -21.2132 L258.094 -17.6777 L254.558 -21.2132 L251.023 -17.6777 L254.558 -14.1421 L251.023 -10.6066 L247.487 -14.1421 L251.023 -17.6777 L247.487 -21.2132 L243.952 -17.6777 L240.416 -21.2132 L236.881 -17.6777 L240.416 -14.1421 L236.881 -10.6066 L233.345 -14.1421 L236.881 -17.6777 L233.345 -21.2132 L236.881 -24.7487 L240.416 -21.2132 L243.952 -24.7487 L240.416 -28.2843 L236.881 -24.7487 L233.345 -28.2843 L236.881 -31.8198 L233.345 -35.3553 L229.81 -31.8198 L226.274 -35.3553 L222.739 -31.8198 L226.274 -28.2843 L229.81 -31.8198 L233.345 -28.2843 L229.81 -24.7487 L233.345 -21.2132 L229.81 -17.6777 L226.274 -21.2132 L222.739 -17.6777 L226.274 -14.1421 L222.739 -10.6066 L219.203 -14.1421 L222.739 -17.6777 L219.203 -21.2132 L215.668 -17.6777 L212.132 -21.2132 L208.597 -17.6777 L212.132 -14.1421 L215.668 -17.6777 L219.203 -14.1421 L215.668 -10.6066 L219.203 -7.07107 L215.668 -3.53553 L212.132 -7.07107 L208.597 -3.53553 L212.132 2.13163e-14 L215.668 -3.53553 L219.203 2.4869e-14 L215.668 3.53553 L219.203 7.07107 L222.739 3.53553 L226.274 7.07107 L229.81 3.53553 L226.274 2.84217e-14"/>
</svg>
