<?xml version="1.0" encoding="UTF-8"?>
<svg xmlns="http://www.w3.org/2000/svg"
 version="1.1" baseProfile="basic"
 viewBox="-56 -249 306 290"
 width="1280px" height="1024px"
 stroke="white" stroke-width="1px"
 fill="black" fill-opacity="0">
<rect x="-56" y="-249" width="306" height="290" stroke-width="0px" fill-opacity="1"/>
<path d="M0 0 L0 0 L2.5 4.33013 L7.5 4.33013 L5 -8.88178e-16 L7.5 -4.33013 L10 -8.88178e-16 L12.5 4.33013 L10 8.66025 L12.5 12.9904 L17.5 12.9904 L22.5 12.9904 L20 8.66025 L15 8.66025 L17.5 4.33013 L22.5 4.33013 L25 -3.55271e-15 L22.5 -4.33013 L20 -8.66025 L17.5 -4.33013 L20 -4.44089e-15 L15 -6.21725e-15 L12.5 -4.33013 L15 -8.66025 L12.5 -12.9904 L10 -8.66025 L5 -8.66025 L7.5 -12.9904 L10 -17.3205 L15 -17.3205 L17.5 -12.9904 L22.5 -12.9904 L20 -17.3205 L22.5 -21.6506 L25 -17.3205 L27.5 -12.9904 L25 -8.66025 L27.5 -4.33013 L32.5 -4.33013 L30 -8.66025 L32.5 -12.9904 L35 -8.66025 L37.5 -4.33013 L35 -7.99361e-15 L30 -6.21725e-15 L27.5 4.33013 L25 8.66025 L30 8.66025 L32.5 4.33013 L35 8.66025 L32.5 12.9904 L35 17.3205 L40 17.3205 L37.5 12.9904 L40 8.66025 L42.5 12.9904 L45 17.3205 L42.5 21.6506 L45 25.9808 L50 25.9808 L55 25.9808 L52.5 21.6506 L47.5 21.6506 L50 17.3205 L55 17.3205 L57.5 21.6506 L62.5 21.6506 L67.5 21.6506 L65 17.3205 L60 17.3205 L62.5 12.9904 L67.5 12.9904 L70 8.66025 L67.5 4.33013 L65 -1.42109e-14 L62.5 4.33013 L65 8.66025 L60 8.66025 L57.5 4.33013 L52.5 4.33013 L50 8.66025 L55 8.66025 L57.5 12.9904 L52.5 12.9904 L47.5 12.9904 L45 8.66025 L47.5 4.33013 L45 -1.68754e-14 L42.5 4.33013 L37.5 4.33013 L40 -1.95399e-14 L42.5 -4.33013 L47.5 -4.33013 L50 -1.95399e-14 L55 -1.95399e-14 L60 -1.95399e-14 L57.5 -4.33013 L52.5 -4.33013 L55 -8.66025 L60 -8.66025 L62.5 -12.9904 L60 -17.3205 L57.5 -12.9904 L52.5 -12.9904 L55 -17.3205 L57.5 -21.6506 L62.5 -21.6506 L65 -25.9808 L62.5 -30.3109 L60 -34.641 L57.5 -30.3109 L60 -25.9808 L55 -25.9808 L52.5 -30.3109 L55 -34.641 L52.5 -38.9711 L50 -43.3013 L47.5 -38.9711 L50 -34.641 L45 -34.641 L42.5 -38.9711 L37.5 -38.9711 L35 -34.641 L32.5 -30.3109 L37.5 -30.3109 L40 -34.641 L42.5 -30.3109 L40 -25.9808 L42.5 -21.6506 L47.5 -21.6506 L45 -25.9808 L47.5 -30.3109 L50 -25.9808 L52.5 -21.6506 L50 -17.3205 L45 -17.3205 L42.5 -12.9904 L47.5 -12.9904 L50 -8.66025 L45 -8.66025 L40 -8.66025 L37.5 -12.9904 L40 -17.3205 L37.5 -21.6506 L35 -25.9808 L32.5 -21.6506 L35 -17.3205 L30 -17.3205 L27.5 -21.6506 L30 -25.9808 L27.5 -30.3109 L25 -25.9808 L20 -25.9808 L22.5 -30.3109 L25 -34.641 L30 -34.641 L32.5 -38.9711 L30 -43.3013 L27.5 -47.6314 L25 -43.3013 L27.5 -38.9711 L22.5 -38.9711 L20 -43.3013 L15 -43.3013 L12.5 -38.9711 L10 -34.641 L15 -34.641 L17.5 -38.9711 L20 -34.641 L17.5 -30.3109 L12.5 -30.3109 L10 -25.9808 L15 -25.9808 L17.5 -21.6506 L12.5 -21.6506 L7.5 -21.6506 L5 -25.9808 L7.5 -30.3109 L5 -34.641 L2.5 -30.3109 L-2.5 -30.3109 L-7.54952e-15 -34.641 L2.5 -38.9711 L7.5 -38.9711 L10 -43.3013 L7.5 -47.6314 L5 -43.3013 L-6.21725e-15 -43.3013 L2.5 -47.6314 L5 -51.9615 L10 -51.9615 L12.5 -47.6314 L17.5 -47.6314 L22.5 -47.6314 L20 -51.9615 L15 -51.9615 L17.5 -56.2917 L22.5 -56.2917 L25 -51.9615 L30 -51.9615 L27.5 -56.2917 L30 -60.6218 L32.5 -56.2917 L35 -51.9615 L32.5 -47.6314 L35 -43.3013 L40 -43.3013 L45 -43.3013 L42.5 -47.6314 L37.5 -47.6314 L40 -51.9615 L45 -51.9615 L47.5 -56.2917 L45 -60.6218 L42.5 -64.9519 L40 -60.6218 L42.5 -56.2917 L37.5 -56.2917 L35 -60.6218 L37.5 -64.9519 L35 -69.282 L32.5 -64.9519 L27.5 -64.9519 L30 -69.282 L32.5 -73.6122 L37.5 -73.6122 L40 -69.282 L45 -69.282 L42.5 -73.6122 L45 -77.9423 L47.5 -73.6122 L50 -69.282 L47.5 -64.9519 L50 -60.6218 L55 -60.6218 L52.5 -64.9519 L55 -69.282 L57.5 -64.9519 L60 -60.6218 L57.5 -56.2917 L52.5 -56.2917 L50 -51.9615 L47.5 -47.6314 L52.5 -47.6314 L55 -51.9615 L57.5 -47.6314 L55 -43.3013 L57.5 -38.9711 L62.5 -38.9711 L60 -43.3013 L62.5 -47.6314 L65 -43.3013 L67.5 -38.9711 L65 -34.641 L67.5 -30.3109 L72.5 -30.3109 L77.5 -30.3109 L75 -34.641 L70 -34.641 L72.5 -38.9711 L77.5 -38.9711 L80 -43.3013 L77.5 -47.6314 L75 -51.9615 L72.5 -47.6314 L75 -43.3013 L70 -43.3013 L67.5 -47.6314 L70 -51.9615 L67.5 -56.2917 L65 -51.9615 L60 -51.9615 L62.5 -56.2917 L65 -60.6218 L70 -60.6218 L72.5 -56.2917 L77.5 -56.2917 L75 -60.6218 L77.5 -64.9519 L80 -60.6218 L82.5 -56.2917 L80 -51.9615 L82.5 -47.6314 L87.5 -47.6314 L85 -51.9615 L87.5 -56.2917 L90 -51.9615 L92.5 -47.6314 L90 -43.3013 L85 -43.3013 L82.5 -38.9711 L80 -34.641 L85 -34.641 L87.5 -38.9711 L90 -34.641 L87.5 -30.3109 L82.5 -30.3109 L80 -25.9808 L85 -25.9808 L87.5 -21.6506 L82.5 -21.6506 L77.5 -21.6506 L75 -25.9808 L70 -25.9808 L67.5 -21.6506 L65 -17.3205 L70 -17.3205 L72.5 -21.6506 L75 -17.3205 L72.5 -12.9904 L67.5 -12.9904 L65 -8.66025 L62.5 -4.33013 L67.5 -4.33013 L70 -8.66025 L72.5 -4.33013 L70 -4.70735e-14 L72.5 4.33013 L77.5 4.33013 L82.5 4.33013 L80 -4.79616e-14 L75 -4.9738e-14 L77.5 -4.33013 L82.5 -4.33013 L85 -8.66025 L82.5 -12.9904 L80 -8.66025 L75 -8.66025 L77.5 -12.9904 L80 -17.3205 L85 -17.3205 L87.5 -12.9904 L92.5 -12.9904 L90 -17.3205 L92.5 -21.6506 L95 -17.3205 L97.5 -12.9904 L95 -8.66025 L90 -8.66025 L87.5 -4.33013 L85 -4.79616e-14 L90 -4.79616e-14 L92.5 -4.33013 L95 -4.79616e-14 L92.5 4.33013 L95 8.66025 L100 8.66025 L97.5 4.33013 L100 -4.88498e-14 L102.5 4.33013 L105 8.66025 L102.5 12.9904 L105 17.3205 L110 17.3205 L115 17.3205 L112.5 12.9904 L107.5 12.9904 L110 8.66025 L115 8.66025 L117.5 4.33013 L115 -4.88498e-14 L112.5 -4.33013 L110 -5.06262e-14 L112.5 4.33013 L107.5 4.33013 L105 -5.15143e-14 L107.5 -4.33013 L105 -8.66025 L102.5 -4.33013 L97.5 -4.33013 L100 -8.66025 L102.5 -12.9904 L107.5 -12.9904 L110 -8.66025 L115 -8.66025 L112.5 -12.9904 L115 -17.3205 L117.5 -12.9904 L120 -8.66025 L117.5 -4.33013 L120 -5.41789e-14 L125 -5.41789e-14 L122.5 -4.33013 L125 -8.66025 L127.5 -4.33013 L130 -5.50671e-14 L127.5 4.33013 L122.5 4.33013 L120 8.66025 L117.5 12.9904 L122.5 12.9904 L125 8.66025 L127.5 12.9904 L125 17.3205 L127.5 21.6506 L132.5 21.6506 L130 17.3205 L132.5 12.9904 L135 17.3205 L137.5 21.6506 L135 25.9808 L137.5 30.3109 L142.5 30.3109 L147.5 30.3109 L145 25.9808 L140 25.9808 L142.5 21.6506 L147.5 21.6506 L150 25.9808 L155 25.9808 L160 25.9808 L157.5 21.6506 L152.5 21.6506 L155 17.3205 L160 17.3205 L162.5 12.9904 L160 8.66025 L157.5 4.33013 L155 8.66025 L157.5 12.9904 L152.5 12.9904 L150 8.66025 L145 8.66025 L142.5 12.9904 L147.5 12.9904 L150 17.3205 L145 17.3205 L140 17.3205 L137.5 12.9904 L140 8.66025 L137.5 4.33013 L135 8.66025 L130 8.66025 L132.5 4.33013 L135 -6.57252e-14 L140 -6.57252e-14 L142.5 4.33013 L147.5 4.33013 L152.5 4.33013 L150 -6.66134e-14 L145 -6.83897e-14 L147.5 -4.33013 L152.5 -4.33013 L155 -6.83897e-14 L160 -6.83897e-14 L157.5 -4.33013 L160 -8.66025 L162.5 -4.33013 L165 -6.92779e-14 L162.5 4.33013 L165 8.66025 L170 8.66025 L175 8.66025 L172.5 4.33013 L167.5 4.33013 L170 -7.19425e-14 L175 -7.19425e-14 L177.5 4.33013 L182.5 4.33013 L187.5 4.33013 L185 -7.28306e-14 L180 -7.4607e-14 L182.5 -4.33013 L187.5 -4.33013 L190 -8.66025 L187.5 -12.9904 L185 -17.3205 L182.5 -12.9904 L185 -8.66025 L180 -8.66025 L177.5 -12.9904 L172.5 -12.9904 L170 -8.66025 L175 -8.66025 L177.5 -4.33013 L172.5 -4.33013 L167.5 -4.33013 L165 -8.66025 L167.5 -12.9904 L165 -17.3205 L162.5 -12.9904 L157.5 -12.9904 L160 -17.3205 L162.5 -21.6506 L167.5 -21.6506 L170 -17.3205 L175 -17.3205 L180 -17.3205 L177.5 -21.6506 L172.5 -21.6506 L175 -25.9808 L180 -25.9808 L182.5 -30.3109 L180 -34.641 L177.5 -30.3109 L172.5 -30.3109 L175 -34.641 L177.5 -38.9711 L182.5 -38.9711 L185 -43.3013 L182.5 -47.6314 L180 -51.9615 L177.5 -47.6314 L180 -43.3013 L175 -43.3013 L172.5 -47.6314 L175 -51.9615 L172.5 -56.2917 L170 -60.6218 L167.5 -56.2917 L170 -51.9615 L165 -51.9615 L162.5 -56.2917 L157.5 -56.2917 L155 -51.9615 L152.5 -47.6314 L157.5 -47.6314 L160 -51.9615 L162.5 -47.6314 L160 -43.3013 L162.5 -38.9711 L167.5 -38.9711 L165 -43.3013 L167.5 -47.6314 L170 -43.3013 L172.5 -38.9711 L170 -34.641 L165 -34.641 L162.5 -30.3109 L167.5 -30.3109 L170 -25.9808 L165 -25.9808 L160 -25.9808 L157.5 -30.3109 L160 -34.641 L157.5 -38.9711 L155 -43.3013 L152.5 -38.9711 L155 -34.641 L150 -34.641 L147.5 -38.9711 L142.5 -38.9711 L140 -34.641 L145 -34.641 L147.5 -30.3109 L142.5 -30.3109 L137.5 -30.3109 L135 -34.641 L130 -34.641 L127.5 -30.3109 L125 -25.9808 L130 -25.9808 L132.5 -30.3109 L135 -25.9808 L132.5 -21.6506 L135 -17.3205 L140 -17.3205 L145 -17.3205 L142.5 -21.6506 L137.5 -21.6506 L140 -25.9808 L145 -25.9808 L147.5 -21.6506 L152.5 -21.6506 L150 -25.9808 L152.5 -30.3109 L155 -25.9808 L157.5 -21.6506 L155 -17.3205 L150 -17.3205 L147.5 -12.9904 L152.5 -12.9904 L155 -8.66025 L150 -8.66025 L145 -8.66025 L142.5 -12.9904 L137.5 -12.9904 L135 -8.66025 L140 -8.66025 L142.5 -4.33013 L137.5 -4.33013 L132.5 -4.33013 L130 -8.66025 L132.5 -12.9904 L130 -17.3205 L127.5 -21.6506 L125 -17.3205 L127.5 -12.9904 L122.5 -12.9904 L120 -17.3205 L122.5 -21.6506 L120 -25.9808 L117.5 -21.6506 L112.5 -21.6506 L115 -25.9808 L117.5 -30.3109 L122.5 -30.3109 L125 -34.641 L122.5 -38.9711 L120 -43.3013 L117.5 -38.9711 L120 -34.641 L115 -34.641 L112.5 -38.9711 L107.5 -38.9711 L105 -34.641 L102.5 -30.3109 L107.5 -30.3109 L110 -34.641 L112.5 -30.3109 L110 -25.9808 L105 -25.9808 L102.5 -21.6506 L107.5 -21.6506 L110 -17.3205 L105 -17.3205 L100 -17.3205 L97.5 -21.6506 L100 -25.9808 L97.5 -30.3109 L95 -25.9808 L90 -25.9808 L92.5 -30.3109 L95 -34.641 L100 -34.641 L102.5 -38.9711 L100 -43.3013 L97.5 -38.9711 L92.5 -38.9711 L95 -43.3013 L97.5 -47.6314 L102.5 -47.6314 L105 -43.3013 L110 -43.3013 L115 -43.3013 L112.5 -47.6314 L107.5 -47.6314 L110 -51.9615 L115 -51.9615 L117.5 -47.6314 L122.5 -47.6314 L120 -51.9615 L122.5 -56.2917 L125 -51.9615 L127.5 -47.6314 L125 -43.3013 L127.5 -38.9711 L132.5 -38.9711 L137.5 -38.9711 L135 -43.3013 L130 -43.3013 L132.5 -47.6314 L137.5 -47.6314 L140 -43.3013 L145 -43.3013 L150 -43.3013 L147.5 -47.6314 L142.5 -47.6314 L145 -51.9615 L150 -51.9615 L152.5 -56.2917 L150 -60.6218 L147.5 -64.9519 L145 -60.6218 L147.5 -56.2917 L142.5 -56.2917 L140 -60.6218 L135 -60.6218 L132.5 -56.2917 L137.5 -56.2917 L140 -51.9615 L135 -51.9615 L130 -51.9615 L127.5 -56.2917 L130 -60.6218 L127.5 -64.9519 L125 -60.6218 L120 -60.6218 L122.5 -64.9519 L125 -69.282 L130 -69.282 L132.5 -64.9519 L137.5 -64.9519 L142.5 -64.9519 L140 -69.282 L135 -69.282 L137.5 -73.6122 L142.5 -73.6122 L145 -69.282 L150 -69.282 L147.5 -73.6122 L150 -77.9423 L152.5 -73.6122 L155 -69.282 L152.5 -64.9519 L155 -60.6218 L160 -60.6218 L165 -60.6218 L162.5 -64.9519 L157.5 -64.9519 L160 -69.282 L165 -69.282 L167.5 -73.6122 L165 -77.9423 L162.5 -82.2724 L160 -77.9423 L162.5 -73.6122 L157.5 -73.6122 L155 -77.9423 L157.5 -82.2724 L155 -86.6025 L152.5 -82.2724 L147.5 -82.2724 L150 -86.6025 L152.5 -90.9327 L157.5 -90.9327 L160 -86.6025 L165 -86.6025 L162.5 -90.9327 L165 -95.2628 L167.5 -90.9327 L170 -86.6025 L167.5 -82.2724 L170 -77.9423 L175 -77.9423 L172.5 -82.2724 L175 -86.6025 L177.5 -82.2724 L180 -77.9423 L177.5 -73.6122 L172.5 -73.6122 L170 -69.282 L167.5 -64.9519 L172.5 -64.9519 L175 -69.282 L177.5 -64.9519 L175 -60.6218 L177.5 -56.2917 L182.5 -56.2917 L180 -60.6218 L182.5 -64.9519 L185 -60.6218 L187.5 -56.2917 L185 -51.9615 L187.5 -47.6314 L192.5 -47.6314 L197.5 -47.6314 L195 -51.9615 L190 -51.9615 L192.5 -56.2917 L197.5 -56.2917 L200 -51.9615 L205 -51.9615 L210 -51.9615 L207.5 -56.2917 L202.5 -56.2917 L205 -60.6218 L210 -60.6218 L212.5 -64.9519 L210 -69.282 L207.5 -73.6122 L205 -69.282 L207.5 -64.9519 L202.5 -64.9519 L200 -69.282 L195 -69.282 L192.5 -64.9519 L197.5 -64.9519 L200 -60.6218 L195 -60.6218 L190 -60.6218 L187.5 -64.9519 L190 -69.282 L187.5 -73.6122 L185 -69.282 L180 -69.282 L182.5 -73.6122 L185 -77.9423 L190 -77.9423 L192.5 -73.6122 L197.5 -73.6122 L202.5 -73.6122 L200 -77.9423 L195 -77.9423 L197.5 -82.2724 L202.5 -82.2724 L205 -77.9423 L210 -77.9423 L207.5 -82.2724 L210 -86.6025 L212.5 -82.2724 L215 -77.9423 L212.5 -73.6122 L215 -69.282 L220 -69.282 L225 -69.282 L222.5 -73.6122 L217.5 -73.6122 L220 -77.9423 L225 -77.9423 L227.5 -73.6122 L232.5 -73.6122 L237.5 -73.6122 L235 -77.9423 L230 -77.9423 L232.5 -82.2724 L237.5 -82.2724 L240 -86.6025 L237.5 -90.9327 L235 -95.2628 L232.5 -90.9327 L235 -86.6025 L230 -86.6025 L227.5 -90.9327 L222.5 -90.9327 L220 -86.6025 L225 -86.6025 L227.5 -82.2724 L222.5 -82.2724 L217.5 -82.2724 L215 -86.6025 L217.5 -90.9327 L215 -95.2628 L212.5 -90.9327 L207.5 -90.9327 L210 -95.2628 L212.5 -99.5929 L217.5 -99.5929 L220 -95.2628 L225 -95.2628 L230 -95.2628 L227.5 -99.5929 L222.5 -99.5929 L225 -103.923 L230 -103.923 L232.5 -108.253 L230 -112.583 L227.5 -108.253 L222.5 -108.253 L225 -112.583 L227.5 -116.913 L232.5 -116.913 L235 -121.244 L232.5 -125.574 L230 -129.904 L227.5 -125.574 L230 -121.244 L225 -121.244 L222.5 -125.574 L225 -129.904 L222.5 -134.234 L220 -138.564 L217.5 -134.234 L220 -129.904 L215 -129.904 L212.5 -134.234 L207.5 -134.234 L205 -129.904 L202.5 -125.574 L207.5 -125.574 L210 -129.904 L212.5 -125.574 L210 -121.244 L212.5 -116.913 L217.5 -116.913 L215 -121.244 L217.5 -125.574 L220 -121.244 L222.5 -116.913 L220 -112.583 L215 -112.583 L212.5 -108.253 L217.5 -108.253 L220 -103.923 L215 -103.923 L210 -103.923 L207.5 -108.253 L210 -112.583 L207.5 -116.913 L205 -121.244 L202.5 -116.913 L205 -112.583 L200 -112.583 L197.5 -116.913 L192.5 -116.913 L190 -112.583 L195 -112.583 L197.5 -108.253 L192.5 -108.253 L187.5 -108.253 L185 -112.583 L180 -112.583 L177.5 -108.253 L175 -103.923 L180 -103.923 L182.5 -108.253 L185 -103.923 L182.5 -99.5929 L185 -95.2628 L190 -95.2628 L195 -95.2628 L192.5 -99.5929 L187.5 -99.5929 L190 -103.923 L195 -103.923 L197.5 -99.5929 L202.5 -99.5929 L200 -103.923 L202.5 -108.253 L205 -103.923 L207.5 -99.5929 L205 -95.2628 L200 -95.2628 L197.5 -90.9327 L202.5 -90.9327 L205 -86.6025 L200 -86.6025 L195 -86.6025 L192.5 -90.9327 L187.5 -90.9327 L185 -86.6025 L190 -86.6025 L192.5 -82.2724 L187.5 -82.2724 L182.5 -82.2724 L180 -86.6025 L182.5 -90.9327 L180 -95.2628 L177.5 -99.5929 L175 -95.2628 L177.5 -90.9327 L172.5 -90.9327 L170 -95.2628 L172.5 -99.5929 L170 -103.923 L167.5 -99.5929 L162.5 -99.5929 L165 -103.923 L167.5 -108.253 L172.5 -108.253 L175 -112.583 L172.5 -116.913 L170 -121.244 L167.5 -116.913 L170 -112.583 L165 -112.583 L162.5 -116.913 L157.5 -116.913 L155 -112.583 L152.5 -108.253 L157.5 -108.253 L160 -112.583 L162.5 -108.253 L160 -103.923 L155 -103.923 L152.5 -99.5929 L157.5 -99.5929 L160 -95.2628 L155 -95.2628 L150 -95.2628 L147.5 -99.5929 L150 -103.923 L147.5 -108.253 L145 -103.923 L140 -103.923 L142.5 -108.253 L145 -112.583 L150 -112.583 L152.5 -116.913 L150 -121.244 L147.5 -116.913 L142.5 -116.913 L145 -121.244 L147.5 -125.574 L152.5 -125.574 L155 -121.244 L160 -121.244 L165 -121.244 L162.5 -125.574 L157.5 -125.574 L160 -129.904 L165 -129.904 L167.5 -125.574 L172.5 -125.574 L170 -129.904 L172.5 -134.234 L175 -129.904 L177.5 -125.574 L175 -121.244 L177.5 -116.913 L182.5 -116.913 L187.5 -116.913 L185 -121.244 L180 -121.244 L182.5 -125.574 L187.5 -125.574 L190 -121.244 L195 -121.244 L200 -121.244 L197.5 -125.574 L192.5 -125.574 L195 -129.904 L200 -129.904 L202.5 -134.234 L200 -138.564 L197.5 -142.894 L195 -138.564 L197.5 -134.234 L192.5 -134.234 L190 -138.564 L185 -138.564 L182.5 -134.234 L187.5 -134.234 L190 -129.904 L185 -129.904 L180 -129.904 L177.5 -134.234 L180 -138.564 L177.5 -142.894 L175 -138.564 L170 -138.564 L172.5 -142.894 L175 -147.224 L180 -147.224 L182.5 -142.894 L187.5 -142.894 L192.5 -142.894 L190 -147.224 L185 -147.224 L187.5 -151.554 L192.5 -151.554 L195 -155.885 L192.5 -160.215 L190 -155.885 L185 -155.885 L187.5 -160.215 L190 -164.545 L195 -164.545 L197.5 -168.875 L195 -173.205 L192.5 -177.535 L190 -173.205 L192.5 -168.875 L187.5 -168.875 L185 -173.205 L180 -173.205 L177.5 -168.875 L175 -164.545 L180 -164.545 L182.5 -168.875 L185 -164.545 L182.5 -160.215 L177.5 -160.215 L175 -155.885 L180 -155.885 L182.5 -151.554 L177.5 -151.554 L172.5 -151.554 L170 -155.885 L172.5 -160.215 L170 -164.545 L167.5 -160.215 L162.5 -160.215 L165 -164.545 L167.5 -168.875 L172.5 -168.875 L175 -173.205 L172.5 -177.535 L170 -173.205 L165 -173.205 L167.5 -177.535 L170 -181.865 L175 -181.865 L177.5 -177.535 L182.5 -177.535 L187.5 -177.535 L185 -181.865 L180 -181.865 L182.5 -186.195 L187.5 -186.195 L190 -190.526 L187.5 -194.856 L185 -190.526 L180 -190.526 L182.5 -194.856 L185 -199.186 L190 -199.186 L192.5 -203.516 L190 -207.846 L187.5 -212.176 L185 -207.846 L187.5 -203.516 L182.5 -203.516 L180 -207.846 L182.5 -212.176 L180 -216.506 L177.5 -220.836 L175 -216.506 L177.5 -212.176 L172.5 -212.176 L170 -216.506 L165 -216.506 L162.5 -212.176 L160 -207.846 L165 -207.846 L167.5 -212.176 L170 -207.846 L167.5 -203.516 L170 -199.186 L175 -199.186 L172.5 -203.516 L175 -207.846 L177.5 -203.516 L180 -199.186 L177.5 -194.856 L172.5 -194.856 L170 -190.526 L175 -190.526 L177.5 -186.195 L172.5 -186.195 L167.5 -186.195 L165 -190.526 L167.5 -194.856 L165 -199.186 L162.5 -203.516 L160 -199.186 L162.5 -194.856 L157.5 -194.856 L155 -199.186 L157.5 -203.516 L155 -207.846 L152.5 -203.516 L147.5 -203.516 L150 -207.846 L152.5 -212.176 L157.5 -212.176 L160 -216.506 L157.5 -220.836 L155 -225.167 L152.5 -220.836 L155 -216.506 L150 -216.506 L147.5 -220.836 L150 -225.167 L147.5 -229.497 L145 -233.827 L142.5 -229.497 L145 -225.167 L140 -225.167 L137.5 -229.497 L132.5 -229.497 L130 -225.167 L127.5 -220.836 L132.5 -220.836 L135 -225.167 L137.5 -220.836 L135 -216.506 L137.5 -212.176 L142.5 -212.176 L140 -216.506 L142.5 -220.836 L145 -216.506 L147.5 -212.176 L145 -207.846 L140 -207.846 L137.5 -203.516 L142.5 -203.516 L145 -199.186 L140 -199.186 L135 -199.186 L132.5 -203.516 L135 -207.846 L132.5 -212.176 L130 -216.506 L127.5 -212.176 L130 -207.846 L125 -207.846 L122.5 -212.176 L117.5 -212.176 L115 -207.846 L120 -207.846 L122.5 -203.516 L117.5 -203.516 L112.5 -203.516 L110 -207.846 L105 -207.846 L102.5 -203.516 L100 -199.186 L105 -199.186 L107.5 -203.516 L110 -199.186 L107.5 -194.856 L102.5 -194.856 L100 -190.526 L97.5 -186.195 L102.5 -186.195 L105 -190.526 L107.5 -186.195 L105 -181.865 L107.5 -177.535 L112.5 -177.535 L117.5 -177.535 L115 -181.865 L110 -181.865 L112.5 -186.195 L117.5 -186.195 L120 -190.526 L117.5 -194.856 L115 -190.526 L110 -190.526 L112.5 -194.856 L115 -199.186 L120 -199.186 L122.5 -194.856 L127.5 -194.856 L125 -199.186 L127.5 -203.516 L130 -199.186 L132.5 -194.856 L130 -190.526 L125 -190.526 L122.5 -186.195 L120 -181.865 L125 -181.865 L127.5 -186.195 L130 -181.865 L127.5 -177.535 L130 -173.205 L135 -173.205 L132.5 -177.535 L135 -181.865 L137.5 -177.535 L140 -173.205 L137.5 -168.875 L140 -164.545 L145 -164.545 L150 -164.545 L147.5 -168.875 L142.5 -168.875 L145 -173.205 L150 -173.205 L152.5 -177.535 L150 -181.865 L147.5 -186.195 L145 -181.865 L147.5 -177.535 L142.5 -177.535 L140 -181.865 L142.5 -186.195 L140 -190.526 L137.5 -186.195 L132.5 -186.195 L135 -190.526 L137.5 -194.856 L142.5 -194.856 L145 -190.526 L150 -190.526 L147.5 -194.856 L150 -199.186 L152.5 -194.856 L155 -190.526 L152.5 -186.195 L155 -181.865 L160 -181.865 L157.5 -186.195 L160 -190.526 L162.5 -186.195 L165 -181.865 L162.5 -177.535 L157.5 -177.535 L155 -173.205 L152.5 -168.875 L157.5 -168.875 L160 -173.205 L162.5 -168.875 L160 -164.545 L155 -164.545 L152.5 -160.215 L157.5 -160.215 L160 -155.885 L155 -155.885 L150 -155.885 L147.5 -160.215 L142.5 -160.215 L140 -155.885 L137.5 -151.554 L142.5 -151.554 L145 -155.885 L147.5 -151.554 L145 -147.224 L147.5 -142.894 L152.5 -142.894 L157.5 -142.894 L155 -147.224 L150 -147.224 L152.5 -151.554 L157.5 -151.554 L160 -147.224 L165 -147.224 L162.5 -151.554 L165 -155.885 L167.5 -151.554 L170 -147.224 L167.5 -142.894 L162.5 -142.894 L160 -138.564 L165 -138.564 L167.5 -134.234 L162.5 -134.234 L157.5 -134.234 L155 -138.564 L150 -138.564 L147.5 -134.234 L152.5 -134.234 L155 -129.904 L150 -129.904 L145 -129.904 L142.5 -134.234 L145 -138.564 L142.5 -142.894 L140 -147.224 L137.5 -142.894 L140 -138.564 L135 -138.564 L132.5 -142.894 L135 -147.224 L132.5 -151.554 L130 -147.224 L125 -147.224 L127.5 -151.554 L130 -155.885 L135 -155.885 L137.5 -160.215 L135 -164.545 L132.5 -168.875 L130 -164.545 L132.5 -160.215 L127.5 -160.215 L125 -164.545 L127.5 -168.875 L125 -173.205 L122.5 -177.535 L120 -173.205 L122.5 -168.875 L117.5 -168.875 L115 -173.205 L110 -173.205 L107.5 -168.875 L105 -164.545 L110 -164.545 L112.5 -168.875 L115 -164.545 L112.5 -160.215 L115 -155.885 L120 -155.885 L117.5 -160.215 L120 -164.545 L122.5 -160.215 L125 -155.885 L122.5 -151.554 L117.5 -151.554 L115 -147.224 L120 -147.224 L122.5 -142.894 L117.5 -142.894 L112.5 -142.894 L110 -147.224 L112.5 -151.554 L110 -155.885 L107.5 -160.215 L105 -155.885 L107.5 -151.554 L102.5 -151.554 L100 -155.885 L95 -155.885 L92.5 -151.554 L97.5 -151.554 L100 -147.224 L95 -147.224 L90 -147.224 L87.5 -151.554 L82.5 -151.554 L80 -147.224 L77.5 -142.894 L82.5 -142.894 L85 -147.224 L87.5 -142.894 L85 -138.564 L87.5 -134.234 L92.5 -134.234 L97.5 -134.234 L95 -138.564 L90 -138.564 L92.5 -142.894 L97.5 -142.894 L100 -138.564 L105 -138.564 L102.5 -142.894 L105 -147.224 L107.5 -142.894 L110 -138.564 L107.5 -134.234 L102.5 -134.234 L100 -129.904 L105 -129.904 L107.5 -125.574 L102.5 -125.574 L97.5 -125.574 L95 -129.904 L90 -129.904 L87.5 -125.574 L92.5 -125.574 L95 -121.244 L90 -121.244 L85 -121.244 L82.5 -125.574 L85 -129.904 L82.5 -134.234 L80 -138.564 L77.5 -134.234 L80 -129.904 L75 -129.904 L72.5 -134.234 L67.5 -134.234 L65 -129.904 L70 -129.904 L72.5 -125.574 L67.5 -125.574 L62.5 -125.574 L60 -129.904 L55 -129.904 L52.5 -125.574 L50 -121.244 L55 -121.244 L57.5 -125.574 L60 -121.244 L57.5 -116.913 L52.5 -116.913 L50 -112.583 L47.5 -108.253 L52.5 -108.253 L55 -112.583 L57.5 -108.253 L55 -103.923 L57.5 -99.5929 L62.5 -99.5929 L67.5 -99.5929 L65 -103.923 L60 -103.923 L62.5 -108.253 L67.5 -108.253 L70 -112.583 L67.5 -116.913 L65 -112.583 L60 -112.583 L62.5 -116.913 L65 -121.244 L70 -121.244 L72.5 -116.913 L77.5 -116.913 L75 -121.244 L77.5 -125.574 L80 -121.244 L82.5 -116.913 L80 -112.583 L75 -112.583 L72.5 -108.253 L70 -103.923 L75 -103.923 L77.5 -108.253 L80 -103.923 L77.5 -99.5929 L80 -95.2628 L85 -95.2628 L82.5 -99.5929 L85 -103.923 L87.5 -99.5929 L90 -95.2628 L87.5 -90.9327 L90 -86.6025 L95 -86.6025 L100 -86.6025 L97.5 -90.9327 L92.5 -90.9327 L95 -95.2628 L100 -95.2628 L102.5 -90.9327 L107.5 -90.9327 L112.5 -90.9327 L110 -95.2628 L105 -95.2628 L107.5 -99.5929 L112.5 -99.5929 L115 -103.923 L112.5 -108.253 L110 -112.583 L107.5 -108.253 L110 -103.923 L105 -103.923 L102.5 -108.253 L97.5 -108.253 L95 -103.923 L100 -103.923 L102.5 -99.5929 L97.5 -99.5929 L92.5 -99.5929 L90 -103.923 L92.5 -108.253 L90 -112.583 L87.5 -108.253 L82.5 -108.253 L85 -112.583 L87.5 -116.913 L92.5 -116.913 L95 -112.583 L100 -112.583 L105 -112.583 L102.5 -116.913 L97.5 -116.913 L100 -121.244 L105 -121.244 L107.5 -116.913 L112.5 -116.913 L110 -121.244 L112.5 -125.574 L115 -121.244 L117.5 -116.913 L115 -112.583 L117.5 -108.253 L122.5 -108.253 L127.5 -108.253 L125 -112.583 L120 -112.583 L122.5 -116.913 L127.5 -116.913 L130 -121.244 L127.5 -125.574 L125 -129.904 L122.5 -125.574 L125 -121.244 L120 -121.244 L117.5 -125.574 L120 -129.904 L117.5 -134.234 L115 -129.904 L110 -129.904 L112.5 -134.234 L115 -138.564 L120 -138.564 L122.5 -134.234 L127.5 -134.234 L125 -138.564 L127.5 -142.894 L130 -138.564 L132.5 -134.234 L130 -129.904 L132.5 -125.574 L137.5 -125.574 L135 -129.904 L137.5 -134.234 L140 -129.904 L142.5 -125.574 L140 -121.244 L135 -121.244 L132.5 -116.913 L130 -112.583 L135 -112.583 L137.5 -116.913 L140 -112.583 L137.5 -108.253 L132.5 -108.253 L130 -103.923 L135 -103.923 L137.5 -99.5929 L132.5 -99.5929 L127.5 -99.5929 L125 -103.923 L120 -103.923 L117.5 -99.5929 L115 -95.2628 L120 -95.2628 L122.5 -99.5929 L125 -95.2628 L122.5 -90.9327 L125 -86.6025 L130 -86.6025 L135 -86.6025 L132.5 -90.9327 L127.5 -90.9327 L130 -95.2628 L135 -95.2628 L137.5 -90.9327 L142.5 -90.9327 L140 -95.2628 L142.5 -99.5929 L145 -95.2628 L147.5 -90.9327 L145 -86.6025 L140 -86.6025 L137.5 -82.2724 L142.5 -82.2724 L145 -77.9423 L140 -77.9423 L135 -77.9423 L132.5 -82.2724 L127.5 -82.2724 L125 -77.9423 L130 -77.9423 L132.5 -73.6122 L127.5 -73.6122 L122.5 -73.6122 L120 -77.9423 L122.5 -82.2724 L120 -86.6025 L117.5 -90.9327 L115 -86.6025 L117.5 -82.2724 L112.5 -82.2724 L110 -86.6025 L105 -86.6025 L102.5 -82.2724 L107.5 -82.2724 L110 -77.9423 L105 -77.9423 L100 -77.9423 L97.5 -82.2724 L92.5 -82.2724 L90 -77.9423 L87.5 -73.6122 L92.5 -73.6122 L95 -77.9423 L97.5 -73.6122 L95 -69.282 L97.5 -64.9519 L102.5 -64.9519 L107.5 -64.9519 L105 -69.282 L100 -69.282 L102.5 -73.6122 L107.5 -73.6122 L110 -69.282 L115 -69.282 L112.5 -73.6122 L115 -77.9423 L117.5 -73.6122 L120 -69.282 L117.5 -64.9519 L112.5 -64.9519 L110 -60.6218 L115 -60.6218 L117.5 -56.2917 L112.5 -56.2917 L107.5 -56.2917 L105 -60.6218 L100 -60.6218 L97.5 -56.2917 L102.5 -56.2917 L105 -51.9615 L100 -51.9615 L95 -51.9615 L92.5 -56.2917 L95 -60.6218 L92.5 -64.9519 L90 -69.282 L87.5 -64.9519 L90 -60.6218 L85 -60.6218 L82.5 -64.9519 L85 -69.282 L82.5 -73.6122 L80 -69.282 L75 -69.282 L77.5 -73.6122 L80 -77.9423 L85 -77.9423 L87.5 -82.2724 L85 -86.6025 L82.5 -90.9327 L80 -86.6025 L82.5 -82.2724 L77.5 -82.2724 L75 -86.6025 L77.5 -90.9327 L75 -95.2628 L72.5 -99.5929 L70 -95.2628 L72.5 -90.9327 L67.5 -90.9327 L65 -95.2628 L60 -95.2628 L57.5 -90.9327 L55 -86.6025 L60 -86.6025 L62.5 -90.9327 L65 -86.6025 L62.5 -82.2724 L65 -77.9423 L70 -77.9423 L67.5 -82.2724 L70 -86.6025 L72.5 -82.2724 L75 -77.9423 L72.5 -73.6122 L67.5 -73.6122 L65 -69.282 L70 -69.282 L72.5 -64.9519 L67.5 -64.9519 L62.5 -64.9519 L60 -69.282 L62.5 -73.6122 L60 -77.9423 L57.5 -82.2724 L55 -77.9423 L57.5 -73.6122 L52.5 -73.6122 L50 -77.9423 L52.5 -82.2724 L50 -86.6025 L47.5 -82.2724 L42.5 -82.2724 L45 -86.6025 L47.5 -90.9327 L52.5 -90.9327 L55 -95.2628 L52.5 -99.5929 L50 -103.923 L47.5 -99.5929 L50 -95.2628 L45 -95.2628 L42.5 -99.5929 L37.5 -99.5929 L35 -95.2628 L32.5 -90.9327 L37.5 -90.9327 L40 -95.2628 L42.5 -90.9327 L40 -86.6025 L35 -86.6025 L32.5 -82.2724 L37.5 -82.2724 L40 -77.9423 L35 -77.9423 L30 -77.9423 L27.5 -82.2724 L30 -86.6025 L27.5 -90.9327 L25 -86.6025 L20 -86.6025 L22.5 -90.9327 L25 -95.2628 L30 -95.2628 L32.5 -99.5929 L30 -103.923 L27.5 -99.5929 L22.5 -99.5929 L25 -103.923 L27.5 -108.253 L32.5 -108.253 L35 -103.923 L40 -103.923 L45 -103.923 L42.5 -108.253 L37.5 -108.253 L40 -112.583 L45 -112.583 L47.5 -116.913 L45 -121.244 L42.5 -116.913 L37.5 -116.913 L40 -121.244 L42.5 -125.574 L47.5 -125.574 L50 -129.904 L47.5 -134.234 L45 -138.564 L42.5 -134.234 L45 -129.904 L40 -129.904 L37.5 -134.234 L40 -138.564 L37.5 -142.894 L35 -147.224 L32.5 -142.894 L35 -138.564 L30 -138.564 L27.5 -142.894 L22.5 -142.894 L20 -138.564 L17.5 -134.234 L22.5 -134.234 L25 -138.564 L27.5 -134.234 L25 -129.904 L27.5 -125.574 L32.5 -125.574 L30 -129.904 L32.5 -134.234 L35 -129.904 L37.5 -125.574 L35 -121.244 L30 -121.244 L27.5 -116.913 L32.5 -116.913 L35 -112.583 L30 -112.583 L25 -112.583 L22.5 -116.913 L25 -121.244 L22.5 -125.574 L20 -129.904 L17.5 -125.574 L20 -121.244 L15 -121.244 L12.5 -125.574 L7.5 -125.574 L5 -121.244 L10 -121.244 L12.5 -116.913 L7.5 -116.913 L2.5 -116.913 L7.54952e-15 -121.244 L-5 -121.244 L-7.5 -116.913 L-10 -112.583 L-5 -112.583 L-2.5 -116.913 L6.21725e-15 -112.583 L-2.5 -108.253 L-7.5 -108.253 L-10 -103.923 L-12.5 -99.5929 L-7.5 -99.5929 L-5 -103.923 L-2.5 -99.5929 L-5 -95.2628 L-2.5 -90.9327 L2.5 -90.9327 L7.5 -90.9327 L5 -95.2628 L8.88178e-16 -95.2628 L2.5 -99.5929 L7.5 -99.5929 L10 -103.923 L7.5 -108.253 L5 -103.923 L7.99361e-15 -103.923 L2.5 -108.253 L5 -112.583 L10 -112.583 L12.5 -108.253 L17.5 -108.253 L15 -112.583 L17.5 -116.913 L20 -112.583 L22.5 -108.253 L20 -103.923 L15 -103.923 L12.5 -99.5929 L10 -95.2628 L15 -95.2628 L17.5 -99.5929 L20 -95.2628 L17.5 -90.9327 L12.5 -90.9327 L10 -86.6025 L15 -86.6025 L17.5 -82.2724 L12.5 -82.2724 L7.5 -82.2724 L5 -86.6025 L-8.88178e-16 -86.6025 L-2.5 -82.2724 L-5 -77.9423 L-4.44089e-15 -77.9423 L2.5 -82.2724 L5 -77.9423 L2.5 -73.6122 L5 -69.282 L10 -69.282 L15 -69.282 L12.5 -73.6122 L7.5 -73.6122 L10 -77.9423 L15 -77.9423 L17.5 -73.6122 L22.5 -73.6122 L20 -77.9423 L22.5 -82.2724 L25 -77.9423 L27.5 -73.6122 L25 -69.282 L20 -69.282 L17.5 -64.9519 L22.5 -64.9519 L25 -60.6218 L20 -60.6218 L15 -60.6218 L12.5 -64.9519 L7.5 -64.9519 L5 -60.6218 L10 -60.6218 L12.5 -56.2917 L7.5 -56.2917 L2.5 -56.2917 L-2.08722e-14 -60.6218 L2.5 -64.9519 L-1.90958e-14 -69.282 L-2.5 -73.6122 L-5 -69.282 L-2.5 -64.9519 L-7.5 -64.9519 L-10 -69.282 L-7.5 -73.6122 L-10 -77.9423 L-12.5 -73.6122 L-17.5 -73.6122 L-15 -77.9423 L-12.5 -82.2724 L-7.5 -82.2724 L-5 -86.6025 L-7.5 -90.9327 L-10 -95.2628 L-12.5 -90.9327 L-10 -86.6025 L-15 -86.6025 L-17.5 -90.9327 L-22.5 -90.9327 L-25 -86.6025 L-27.5 -82.2724 L-22.5 -82.2724 L-20 -86.6025 L-17.5 -82.2724 L-20 -77.9423 L-25 -77.9423 L-27.5 -73.6122 L-22.5 -73.6122 L-20 -69.282 L-25 -69.282 L-30 -69.282 L-32.5 -73.6122 L-30 -77.9423 L-32.5 -82.2724 L-35 -77.9423 L-40 -77.9423 L-37.5 -82.2724 L-35 -86.6025 L-30 -86.6025 L-27.5 -90.9327 L-30 -95.2628 L-32.5 -90.9327 L-37.5 -90.9327 L-35 -95.2628 L-32.5 -99.5929 L-27.5 -99.5929 L-25 -95.2628 L-20 -95.2628 L-15 -95.2628 L-17.5 -99.5929 L-22.5 -99.5929 L-20 -103.923 L-15 -103.923 L-12.5 -108.253 L-15 -112.583 L-17.5 -108.253 L-22.5 -108.253 L-20 -112.583 L-17.5 -116.913 L-12.5 -116.913 L-10 -121.244 L-12.5 -125.574 L-15 -129.904 L-17.5 -125.574 L-15 -121.244 L-20 -121.244 L-22.5 -125.574 L-27.5 -125.574 L-30 -121.244 L-32.5 -116.913 L-27.5 -116.913 L-25 -121.244 L-22.5 -116.913 L-25 -112.583 L-30 -112.583 L-32.5 -108.253 L-27.5 -108.253 L-25 -103.923 L-30 -103.923 L-35 -103.923 L-37.5 -108.253 L-35 -112.583 L-37.5 -116.913 L-40 -112.583 L-45 -112.583 L-42.5 -116.913 L-40 -121.244 L-35 -121.244 L-32.5 -125.574 L-35 -129.904 L-37.5 -125.574 L-42.5 -125.574 L-40 -129.904 L-37.5 -134.234 L-32.5 -134.234 L-30 -129.904 L-25 -129.904 L-20 -129.904 L-22.5 -134.234 L-27.5 -134.234 L-25 -138.564 L-20 -138.564 L-17.5 -134.234 L-12.5 -134.234 L-15 -138.564 L-12.5 -142.894 L-10 -138.564 L-7.5 -134.234 L-10 -129.904 L-7.5 -125.574 L-2.5 -125.574 L2.5 -125.574 L-5.15143e-14 -129.904 L-5 -129.904 L-2.5 -134.234 L2.5 -134.234 L5 -129.904 L10 -129.904 L15 -129.904 L12.5 -134.234 L7.5 -134.234 L10 -138.564 L15 -138.564 L17.5 -142.894 L15 -147.224 L12.5 -151.554 L10 -147.224 L12.5 -142.894 L7.5 -142.894 L5 -147.224 L-5.41789e-14 -147.224 L-2.5 -142.894 L2.5 -142.894 L5 -138.564 L-5.77316e-14 -138.564 L-5 -138.564 L-7.5 -142.894 L-5 -147.224 L-7.5 -151.554 L-10 -147.224 L-15 -147.224 L-12.5 -151.554 L-10 -155.885 L-5 -155.885 L-2.5 -151.554 L2.5 -151.554 L7.5 -151.554 L5 -155.885 L-5.68434e-14 -155.885 L2.5 -160.215 L7.5 -160.215 L10 -155.885 L15 -155.885 L12.5 -160.215 L15 -164.545 L17.5 -160.215 L20 -155.885 L17.5 -151.554 L20 -147.224 L25 -147.224 L30 -147.224 L27.5 -151.554 L22.5 -151.554 L25 -155.885 L30 -155.885 L32.5 -160.215 L30 -164.545 L27.5 -168.875 L25 -164.545 L27.5 -160.215 L22.5 -160.215 L20 -164.545 L22.5 -168.875 L20 -173.205 L17.5 -168.875 L12.5 -168.875 L15 -173.205 L17.5 -177.535 L22.5 -177.535 L25 -173.205 L30 -173.205 L27.5 -177.535 L30 -181.865 L32.5 -177.535 L35 -173.205 L32.5 -168.875 L35 -164.545 L40 -164.545 L37.5 -168.875 L40 -173.205 L42.5 -168.875 L45 -164.545 L42.5 -160.215 L37.5 -160.215 L35 -155.885 L32.5 -151.554 L37.5 -151.554 L40 -155.885 L42.5 -151.554 L40 -147.224 L42.5 -142.894 L47.5 -142.894 L45 -147.224 L47.5 -151.554 L50 -147.224 L52.5 -142.894 L50 -138.564 L52.5 -134.234 L57.5 -134.234 L62.5 -134.234 L60 -138.564 L55 -138.564 L57.5 -142.894 L62.5 -142.894 L65 -138.564 L70 -138.564 L75 -138.564 L72.5 -142.894 L67.5 -142.894 L70 -147.224 L75 -147.224 L77.5 -151.554 L75 -155.885 L72.5 -160.215 L70 -155.885 L72.5 -151.554 L67.5 -151.554 L65 -155.885 L60 -155.885 L57.5 -151.554 L62.5 -151.554 L65 -147.224 L60 -147.224 L55 -147.224 L52.5 -151.554 L55 -155.885 L52.5 -160.215 L50 -155.885 L45 -155.885 L47.5 -160.215 L50 -164.545 L55 -164.545 L57.5 -160.215 L62.5 -160.215 L67.5 -160.215 L65 -164.545 L60 -164.545 L62.5 -168.875 L67.5 -168.875 L70 -164.545 L75 -164.545 L72.5 -168.875 L75 -173.205 L77.5 -168.875 L80 -164.545 L77.5 -160.215 L80 -155.885 L85 -155.885 L90 -155.885 L87.5 -160.215 L82.5 -160.215 L85 -164.545 L90 -164.545 L92.5 -160.215 L97.5 -160.215 L102.5 -160.215 L100 -164.545 L95 -164.545 L97.5 -168.875 L102.5 -168.875 L105 -173.205 L102.5 -177.535 L100 -181.865 L97.5 -177.535 L100 -173.205 L95 -173.205 L92.5 -177.535 L87.5 -177.535 L85 -173.205 L90 -173.205 L92.5 -168.875 L87.5 -168.875 L82.5 -168.875 L80 -173.205 L82.5 -177.535 L80 -181.865 L77.5 -177.535 L72.5 -177.535 L75 -181.865 L77.5 -186.195 L82.5 -186.195 L85 -181.865 L90 -181.865 L95 -181.865 L92.5 -186.195 L87.5 -186.195 L90 -190.526 L95 -190.526 L97.5 -194.856 L95 -199.186 L92.5 -194.856 L87.5 -194.856 L90 -199.186 L92.5 -203.516 L97.5 -203.516 L100 -207.846 L97.5 -212.176 L95 -216.506 L92.5 -212.176 L95 -207.846 L90 -207.846 L87.5 -212.176 L90 -216.506 L87.5 -220.836 L85 -225.167 L82.5 -220.836 L85 -216.506 L80 -216.506 L77.5 -220.836 L72.5 -220.836 L70 -216.506 L67.5 -212.176 L72.5 -212.176 L75 -216.506 L77.5 -212.176 L75 -207.846 L77.5 -203.516 L82.5 -203.516 L80 -207.846 L82.5 -212.176 L85 -207.846 L87.5 -203.516 L85 -199.186 L80 -199.186 L77.5 -194.856 L82.5 -194.856 L85 -190.526 L80 -190.526 L75 -190.526 L72.5 -194.856 L75 -199.186 L72.5 -203.516 L70 -207.846 L67.5 -203.516 L70 -199.186 L65 -199.186 L62.5 -203.516 L57.5 -203.516 L55 -199.186 L60 -199.186 L62.5 -194.856 L57.5 -194.856 L52.5 -194.856 L50 -199.186 L45 -199.186 L42.5 -194.856 L40 -190.526 L45 -190.526 L47.5 -194.856 L50 -190.526 L47.5 -186.195 L50 -181.865 L55 -181.865 L60 -181.865 L57.5 -186.195 L52.5 -186.195 L55 -190.526 L60 -190.526 L62.5 -186.195 L67.5 -186.195 L65 -190.526 L67.5 -194.856 L70 -190.526 L72.5 -186.195 L70 -181.865 L65 -181.865 L62.5 -177.535 L67.5 -177.535 L70 -173.205 L65 -173.205 L60 -173.205 L57.5 -177.535 L52.5 -177.535 L50 -173.205 L55 -173.205 L57.5 -168.875 L52.5 -168.875 L47.5 -168.875 L45 -173.205 L47.5 -177.535 L45 -181.865 L42.5 -186.195 L40 -181.865 L42.5 -177.535 L37.5 -177.535 L35 -181.865 L37.5 -186.195 L35 -190.526 L32.5 -186.195 L27.5 -186.195 L30 -190.526 L32.5 -194.856 L37.5 -194.856 L40 -199.186 L37.5 -203.516 L35 -207.846 L32.5 -203.516 L35 -199.186 L30 -199.186 L27.5 -203.516 L22.5 -203.516 L20 -199.186 L17.5 -194.856 L22.5 -194.856 L25 -199.186 L27.5 -194.856 L25 -190.526 L20 -190.526 L17.5 -186.195 L22.5 -186.195 L25 -181.865 L20 -181.865 L15 -181.865 L12.5 -186.195 L15 -190.526 L12.5 -194.856 L10 -190.526 L5 -190.526 L7.5 -194.856 L10 -199.186 L15 -199.186 L17.5 -203.516 L15 -207.846 L12.5 -203.516 L7.5 -203.516 L10 -207.846 L12.5 -212.176 L17.5 -212.176 L20 -207.846 L25 -207.846 L30 -207.846 L27.5 -212.176 L22.5 -212.176 L25 -216.506 L30 -216.506 L32.5 -212.176 L37.5 -212.176 L35 -216.506 L37.5 -220.836 L40 -216.506 L42.5 -212.176 L40 -207.846 L42.5 -203.516 L47.5 -203.516 L52.5 -203.516 L50 -207.846 L45 -207.846 L47.5 -212.176 L52.5 -212.176 L55 -207.846 L60 -207.846 L65 -207.846 L62.5 -212.176 L57.5 -212.176 L60 -216.506 L65 -216.506 L67.5 -220.836 L65 -225.167 L62.5 -229.497 L60 -225.167 L62.5 -220.836 L57.5 -220.836 L55 -225.167 L50 -225.167 L47.5 -220.836 L52.5 -220.836 L55 -216.506 L50 -216.506 L45 -216.506 L42.5 -220.836 L45 -225.167 L42.5 -229.497 L40 -225.167 L35 -225.167 L37.5 -229.497 L40 -233.827 L45 -233.827 L47.5 -229.497 L52.5 -229.497 L57.5 -229.497 L55 -233.827 L50 -233.827 L52.5 -238.157 L57.5 -238.157"/>
</svg>
