<?xml version="1.0" encoding="UTF-8"?>
<svg xmlns="http://www.w3.org/2000/svg"
 version="1.1" baseProfile="basic"
 viewBox="-10 -32 58 55"
 width="1280px" height="1024px"
 stroke="white" stroke-width="1px"
 fill="black" fill-opacity="0">
<rect x="-10" y="-32" width="58" height="55" stroke-width="0px" fill-opacity="1"/>
<path d="M0 0 L0 0 L2.5 4.33013 L7.5 4.33013 L5 -8.88178e-16 L7.5 -4.33013 L10 -8.88178e-16 L12.5 4.33013 L10 8.66025 L12.5 12.9904 L17.5 12.9904 L22.5 12.9904 L20 8.66025 L15 8.66025 L17.5 4.33013 L22.5 4.33013 L25 8.66025 L30 8.66025 L35 8.66025 L32.5 4.33013 L27.5 4.33013 L30 -6.21725e-15 L35 -6.21725e-15 L37.5 -4.33013 L35 -8.66025 L32.5 -12.9904 L30 -8.66025 L32.5 -4.33013 L27.5 -4.33013 L25 -8.66025 L20 -8.66025 L17.5 -4.33013 L22.5 -4.33013 L25 -6.21725e-15 L20 -7.99361e-15 L15 -9.76996e-15 L12.5 -4.33013 L15 -8.66025 L12.5 -12.9904 L10 -8.66025 L5 -8.66025 L7.5 -12.9904 L10 -17.3205 L15 -17.3205 L17.5 -12.9904 L22.5 -12.9904 L27.5 -12.9904 L25 -17.3205 L20 -17.3205 L22.5 -21.6506 L27.5 -21.6506"/>
</svg>
