<?xml version="1.0" encoding="UTF-8"?>
<svg xmlns="http://www.w3.org/2000/svg"
 version="1.1" baseProfile="basic"
 viewBox="-13 -88 121 124"
 width="1280px" height="1024px"
 stroke="white" stroke-width="1px"
 fill="black" fill-opacity="0">
<rect x="-13" y="-88" width="121" height="124" stroke-width="0px" fill-opacity="1"/>
<path d="M0 0 L0 0 L2.5 4.33013 L7.5 4.33013 L5 -8.88178e-16 L7.5 -4.33013 L10 -8.88178e-16 L12.5 4.33013 L10 8.66025 L12.5 12.9904 L17.5 12.9904 L22.5 12.9904 L20 8.66025 L15 8.66025 L17.5 4.33013 L22.5 4.33013 L25 -3.55271e-15 L22.5 -4.33013 L20 -8.66025 L17.5 -4.33013 L20 -4.44089e-15 L15 -6.21725e-15 L12.5 -4.33013 L15 -8.66025 L12.5 -12.9904 L10 -8.66025 L5 -8.66025 L7.5 -12.9904 L10 -17.3205 L15 -17.3205 L17.5 -12.9904 L22.5 -12.9904 L20 -17.3205 L22.5 -21.6506 L25 -17.3205 L27.5 -12.9904 L25 -8.66025 L27.5 -4.33013 L32.5 -4.33013 L30 -8.66025 L32.5 -12.9904 L35 -8.66025 L37.5 -4.33013 L35 -7.99361e-15 L30 -6.21725e-15 L27.5 4.33013 L25 8.66025 L30 8.66025 L32.5 4.33013 L35 8.66025 L32.5 12.9904 L35 17.3205 L40 17.3205 L37.5 12.9904 L40 8.66025 L42.5 12.9904 L45 17.3205 L42.5 21.6506 L45 25.9808 L50 25.9808 L55 25.9808 L52.5 21.6506 L47.5 21.6506 L50 17.3205 L55 17.3205 L57.5 21.6506 L62.5 21.6506 L67.5 21.6506 L65 17.3205 L60 17.3205 L62.5 12.9904 L67.5 12.9904 L70 8.66025 L67.5 4.33013 L65 -1.42109e-14 L62.5 4.33013 L65 8.66025 L60 8.66025 L57.5 4.33013 L52.5 4.33013 L50 8.66025 L55 8.66025 L57.5 12.9904 L52.5 12.9904 L47.5 12.9904 L45 8.66025 L47.5 4.33013 L45 -1.68754e-14 L42.5 4.33013 L37.5 4.33013 L40 -1.95399e-14 L42.5 -4.33013 L47.5 -4.33013 L50 -1.95399e-14 L55 -1.95399e-14 L60 -1.95399e-14 L57.5 -4.33013 L52.5 -4.33013 L55 -8.66025 L60 -8.66025 L62.5 -4.33013 L67.5 -4.33013 L65 -8.66025 L67.5 -12.9904 L70 -8.66025 L72.5 -4.33013 L70 -2.22045e-14 L72.5 4.33013 L77.5 4.33013 L82.5 4.33013 L80 -2.30926e-14 L75 -2.4869e-14 L77.5 -4.33013 L82.5 -4.33013 L85 -2.4869e-14 L90 -2.4869e-14 L95 -2.4869e-14 L92.5 -4.33013 L87.5 -4.33013 L90 -8.66025 L95 -8.66025 L97.5 -12.9904 L95 -17.3205 L92.5 -21.6506 L90 -17.3205 L92.5 -12.9904 L87.5 -12.9904 L85 -17.3205 L80 -17.3205 L77.5 -12.9904 L82.5 -12.9904 L85 -8.66025 L80 -8.66025 L75 -8.66025 L72.5 -12.9904 L75 -17.3205 L72.5 -21.6506 L70 -17.3205 L65 -17.3205 L67.5 -21.6506 L70 -25.9808 L75 -25.9808 L77.5 -21.6506 L82.5 -21.6506 L87.5 -21.6506 L85 -25.9808 L80 -25.9808 L82.5 -30.3109 L87.5 -30.3109 L90 -34.641 L87.5 -38.9711 L85 -34.641 L80 -34.641 L82.5 -38.9711 L85 -43.3013 L90 -43.3013 L92.5 -47.6314 L90 -51.9615 L87.5 -56.2917 L85 -51.9615 L87.5 -47.6314 L82.5 -47.6314 L80 -51.9615 L82.5 -56.2917 L80 -60.6218 L77.5 -64.9519 L75 -60.6218 L77.5 -56.2917 L72.5 -56.2917 L70 -60.6218 L65 -60.6218 L62.5 -56.2917 L60 -51.9615 L65 -51.9615 L67.5 -56.2917 L70 -51.9615 L67.5 -47.6314 L70 -43.3013 L75 -43.3013 L72.5 -47.6314 L75 -51.9615 L77.5 -47.6314 L80 -43.3013 L77.5 -38.9711 L72.5 -38.9711 L70 -34.641 L75 -34.641 L77.5 -30.3109 L72.5 -30.3109 L67.5 -30.3109 L65 -34.641 L67.5 -38.9711 L65 -43.3013 L62.5 -47.6314 L60 -43.3013 L62.5 -38.9711 L57.5 -38.9711 L55 -43.3013 L50 -43.3013 L47.5 -38.9711 L52.5 -38.9711 L55 -34.641 L50 -34.641 L45 -34.641 L42.5 -38.9711 L37.5 -38.9711 L35 -34.641 L32.5 -30.3109 L37.5 -30.3109 L40 -34.641 L42.5 -30.3109 L40 -25.9808 L42.5 -21.6506 L47.5 -21.6506 L52.5 -21.6506 L50 -25.9808 L45 -25.9808 L47.5 -30.3109 L52.5 -30.3109 L55 -25.9808 L60 -25.9808 L57.5 -30.3109 L60 -34.641 L62.5 -30.3109 L65 -25.9808 L62.5 -21.6506 L57.5 -21.6506 L55 -17.3205 L60 -17.3205 L62.5 -12.9904 L57.5 -12.9904 L52.5 -12.9904 L50 -17.3205 L45 -17.3205 L42.5 -12.9904 L47.5 -12.9904 L50 -8.66025 L45 -8.66025 L40 -8.66025 L37.5 -12.9904 L40 -17.3205 L37.5 -21.6506 L35 -25.9808 L32.5 -21.6506 L35 -17.3205 L30 -17.3205 L27.5 -21.6506 L30 -25.9808 L27.5 -30.3109 L25 -25.9808 L20 -25.9808 L22.5 -30.3109 L25 -34.641 L30 -34.641 L32.5 -38.9711 L30 -43.3013 L27.5 -47.6314 L25 -43.3013 L27.5 -38.9711 L22.5 -38.9711 L20 -43.3013 L15 -43.3013 L12.5 -38.9711 L10 -34.641 L15 -34.641 L17.5 -38.9711 L20 -34.641 L17.5 -30.3109 L12.5 -30.3109 L10 -25.9808 L15 -25.9808 L17.5 -21.6506 L12.5 -21.6506 L7.5 -21.6506 L5 -25.9808 L7.5 -30.3109 L5 -34.641 L2.5 -30.3109 L-2.5 -30.3109 L-4.44089e-16 -34.641 L2.5 -38.9711 L7.5 -38.9711 L10 -43.3013 L7.5 -47.6314 L5 -43.3013 L8.88178e-16 -43.3013 L2.5 -47.6314 L5 -51.9615 L10 -51.9615 L12.5 -47.6314 L17.5 -47.6314 L22.5 -47.6314 L20 -51.9615 L15 -51.9615 L17.5 -56.2917 L22.5 -56.2917 L25 -51.9615 L30 -51.9615 L27.5 -56.2917 L30 -60.6218 L32.5 -56.2917 L35 -51.9615 L32.5 -47.6314 L35 -43.3013 L40 -43.3013 L45 -43.3013 L42.5 -47.6314 L37.5 -47.6314 L40 -51.9615 L45 -51.9615 L47.5 -47.6314 L52.5 -47.6314 L57.5 -47.6314 L55 -51.9615 L50 -51.9615 L52.5 -56.2917 L57.5 -56.2917 L60 -60.6218 L57.5 -64.9519 L55 -69.282 L52.5 -64.9519 L55 -60.6218 L50 -60.6218 L47.5 -64.9519 L42.5 -64.9519 L40 -60.6218 L45 -60.6218 L47.5 -56.2917 L42.5 -56.2917 L37.5 -56.2917 L35 -60.6218 L37.5 -64.9519 L35 -69.282 L32.5 -64.9519 L27.5 -64.9519 L30 -69.282 L32.5 -73.6122 L37.5 -73.6122 L40 -69.282 L45 -69.282 L50 -69.282 L47.5 -73.6122 L42.5 -73.6122 L45 -77.9423 L50 -77.9423"/>
</svg>
