<?xml version="1.0" encoding="UTF-8"?>
<svg xmlns="http://www.w3.org/2000/svg"
 version="1.1" baseProfile="basic"
 viewBox="-11 -80 96 91"
 width="1280px" height="1024px"
 stroke="white" stroke-width="1px"
 fill="black" fill-opacity="0">
<rect x="-11" y="-80" width="96" height="91" stroke-width="0px" fill-opacity="1"/>
<path d="M0 0 L0 0 L3.06162e-16 -5 L6.12323e-16 -10 L5 -10 L10 -10 L15 -10 L15 -5 L15 0 L20 0 L25 0 L30 0 L30 -5 L30 -10 L30 -15 L25 -15 L20 -15 L20 -20 L25 -20 L30 -20 L30 -25 L30 -30 L30 -35 L25 -35 L20 -35 L15 -35 L15 -30 L15 -25 L10 -25 L5 -25 L-3.55271e-15 -25 L-3.24655e-15 -30 L-2.94039e-15 -35 L-2.63423e-15 -40 L5 -40 L10 -40 L10 -45 L10 -50 L10 -55 L5 -55 L-3.55271e-15 -55 L-3.24655e-15 -60 L-2.94039e-15 -65 L-2.63423e-15 -70 L5 -70 L10 -70 L15 -70 L15 -65 L15 -60 L20 -60 L20 -65 L20 -70 L25 -70 L30 -70 L35 -70 L35 -65 L35 -60 L35 -55 L30 -55 L25 -55 L25 -50 L25 -45 L25 -40 L30 -40 L35 -40 L40 -40 L45 -40 L50 -40 L50 -45 L50 -50 L50 -55 L45 -55 L40 -55 L40 -60 L40 -65 L40 -70 L45 -70 L50 -70 L55 -70 L55 -65 L55 -60 L60 -60 L60 -65 L60 -70 L65 -70 L70 -70 L75 -70 L75 -65 L75 -60 L75 -55 L70 -55 L65 -55 L65 -50 L65 -45 L65 -40 L70 -40 L75 -40 L75 -35 L75 -30 L75 -25 L70 -25 L65 -25 L60 -25 L60 -30 L60 -35 L55 -35 L50 -35 L45 -35 L45 -30 L45 -25 L45 -20 L50 -20 L55 -20 L55 -15 L50 -15 L45 -15 L45 -10 L45 -5 L45 0 L50 9.86076e-32 L55 1.97215e-31 L60 2.95823e-31 L60 -5 L60 -10 L65 -10 L70 -10 L75 -10 L75 -5 L75 0"/>
</svg>
