<?xml version="1.0" encoding="UTF-8"?>
<svg xmlns="http://www.w3.org/2000/svg"
 version="1.1" baseProfile="basic"
 viewBox="-11 -320 336 331"
 width="1280px" height="1024px"
 stroke="white" stroke-width="1px"
 fill="black" fill-opacity="0">
<rect x="-11" y="-320" width="336" height="331" stroke-width="0px" fill-opacity="1"/>
<path d="M0 0 L0 0 L3.06162e-16 -5 L6.12323e-16 -10 L5 -10 L10 -10 L15 -10 L15 -5 L15 0 L20 0 L25 0 L30 0 L30 -5 L30 -10 L30 -15 L25 -15 L20 -15 L20 -20 L25 -20 L30 -20 L30 -25 L30 -30 L30 -35 L25 -35 L20 -35 L15 -35 L15 -30 L15 -25 L10 -25 L5 -25 L-3.55271e-15 -25 L-3.24655e-15 -30 L-2.94039e-15 -35 L-2.63423e-15 -40 L5 -40 L10 -40 L10 -45 L10 -50 L10 -55 L5 -55 L-3.55271e-15 -55 L-3.24655e-15 -60 L-2.94039e-15 -65 L-2.63423e-15 -70 L5 -70 L10 -70 L15 -70 L15 -65 L15 -60 L20 -60 L20 -65 L20 -70 L25 -70 L30 -70 L35 -70 L35 -65 L35 -60 L35 -55 L30 -55 L25 -55 L25 -50 L25 -45 L25 -40 L30 -40 L35 -40 L40 -40 L45 -40 L50 -40 L50 -45 L50 -50 L50 -55 L45 -55 L40 -55 L40 -60 L40 -65 L40 -70 L45 -70 L50 -70 L55 -70 L55 -65 L55 -60 L60 -60 L60 -65 L60 -70 L65 -70 L70 -70 L75 -70 L75 -65 L75 -60 L75 -55 L70 -55 L65 -55 L65 -50 L65 -45 L65 -40 L70 -40 L75 -40 L75 -35 L75 -30 L75 -25 L70 -25 L65 -25 L60 -25 L60 -30 L60 -35 L55 -35 L50 -35 L45 -35 L45 -30 L45 -25 L45 -20 L50 -20 L55 -20 L55 -15 L50 -15 L45 -15 L45 -10 L45 -5 L45 0 L50 9.86076e-32 L55 1.97215e-31 L60 2.95823e-31 L60 -5 L60 -10 L65 -10 L70 -10 L75 -10 L75 -5 L75 0 L80 9.86076e-32 L85 1.97215e-31 L90 2.95823e-31 L90 -5 L90 -10 L90 -15 L85 -15 L80 -15 L80 -20 L80 -25 L80 -30 L85 -30 L90 -30 L95 -30 L95 -25 L95 -20 L100 -20 L100 -25 L100 -30 L105 -30 L110 -30 L115 -30 L115 -25 L115 -20 L115 -15 L110 -15 L105 -15 L105 -10 L105 -5 L105 0 L110 9.86076e-32 L115 1.97215e-31 L120 2.95823e-31 L120 -5 L120 -10 L125 -10 L130 -10 L135 -10 L135 -5 L135 0 L140 9.86076e-32 L145 1.97215e-31 L150 2.95823e-31 L150 -5 L150 -10 L150 -15 L145 -15 L140 -15 L140 -20 L145 -20 L150 -20 L150 -25 L150 -30 L150 -35 L145 -35 L140 -35 L135 -35 L135 -30 L135 -25 L130 -25 L125 -25 L120 -25 L120 -30 L120 -35 L120 -40 L120 -45 L120 -50 L125 -50 L130 -50 L135 -50 L135 -45 L135 -40 L140 -40 L145 -40 L150 -40 L150 -45 L150 -50 L150 -55 L145 -55 L140 -55 L140 -60 L145 -60 L150 -60 L150 -65 L150 -70 L150 -75 L145 -75 L140 -75 L135 -75 L135 -70 L135 -65 L130 -65 L125 -65 L120 -65 L120 -70 L120 -75 L115 -75 L110 -75 L105 -75 L105 -70 L105 -65 L105 -60 L110 -60 L115 -60 L115 -55 L115 -50 L115 -45 L110 -45 L105 -45 L100 -45 L100 -50 L100 -55 L95 -55 L95 -50 L95 -45 L90 -45 L85 -45 L80 -45 L80 -50 L80 -55 L80 -60 L85 -60 L90 -60 L90 -65 L90 -70 L90 -75 L85 -75 L80 -75 L80 -80 L85 -80 L90 -80 L90 -85 L90 -90 L90 -95 L85 -95 L80 -95 L80 -100 L80 -105 L80 -110 L85 -110 L90 -110 L95 -110 L95 -105 L95 -100 L100 -100 L100 -105 L100 -110 L105 -110 L110 -110 L115 -110 L115 -105 L115 -100 L115 -95 L110 -95 L105 -95 L105 -90 L105 -85 L105 -80 L110 -80 L115 -80 L120 -80 L120 -85 L120 -90 L125 -90 L130 -90 L135 -90 L135 -85 L135 -80 L140 -80 L145 -80 L150 -80 L150 -85 L150 -90 L150 -95 L145 -95 L140 -95 L140 -100 L145 -100 L150 -100 L150 -105 L150 -110 L150 -115 L145 -115 L140 -115 L135 -115 L135 -110 L135 -105 L130 -105 L125 -105 L120 -105 L120 -110 L120 -115 L120 -120 L120 -125 L120 -130 L125 -130 L130 -130 L135 -130 L135 -125 L135 -120 L140 -120 L145 -120 L150 -120 L150 -125 L150 -130 L150 -135 L145 -135 L140 -135 L140 -140 L145 -140 L150 -140 L150 -145 L150 -150 L150 -155 L145 -155 L140 -155 L135 -155 L135 -150 L135 -145 L130 -145 L125 -145 L120 -145 L120 -150 L120 -155 L115 -155 L110 -155 L105 -155 L105 -150 L105 -145 L105 -140 L110 -140 L115 -140 L115 -135 L115 -130 L115 -125 L110 -125 L105 -125 L100 -125 L100 -130 L100 -135 L95 -135 L95 -130 L95 -125 L90 -125 L85 -125 L80 -125 L80 -130 L80 -135 L80 -140 L85 -140 L90 -140 L90 -145 L90 -150 L90 -155 L85 -155 L80 -155 L75 -155 L75 -150 L75 -145 L70 -145 L65 -145 L60 -145 L60 -150 L60 -155 L55 -155 L50 -155 L45 -155 L45 -150 L45 -145 L45 -140 L50 -140 L55 -140 L55 -135 L50 -135 L45 -135 L45 -130 L45 -125 L45 -120 L50 -120 L55 -120 L60 -120 L60 -125 L60 -130 L65 -130 L70 -130 L75 -130 L75 -125 L75 -120 L75 -115 L70 -115 L65 -115 L65 -110 L65 -105 L65 -100 L70 -100 L75 -100 L75 -95 L75 -90 L75 -85 L70 -85 L65 -85 L60 -85 L60 -90 L60 -95 L55 -95 L55 -90 L55 -85 L50 -85 L45 -85 L40 -85 L40 -90 L40 -95 L40 -100 L45 -100 L50 -100 L50 -105 L50 -110 L50 -115 L45 -115 L40 -115 L35 -115 L30 -115 L25 -115 L25 -110 L25 -105 L25 -100 L30 -100 L35 -100 L35 -95 L35 -90 L35 -85 L30 -85 L25 -85 L20 -85 L20 -90 L20 -95 L15 -95 L15 -90 L15 -85 L10 -85 L5 -85 L-3.55271e-15 -85 L-3.24655e-15 -90 L-2.94039e-15 -95 L-2.63423e-15 -100 L5 -100 L10 -100 L10 -105 L10 -110 L10 -115 L5 -115 L-3.55271e-15 -115 L-3.24655e-15 -120 L-2.94039e-15 -125 L-2.63423e-15 -130 L5 -130 L10 -130 L15 -130 L15 -125 L15 -120 L20 -120 L25 -120 L30 -120 L30 -125 L30 -130 L30 -135 L25 -135 L20 -135 L20 -140 L25 -140 L30 -140 L30 -145 L30 -150 L30 -155 L25 -155 L20 -155 L15 -155 L15 -150 L15 -145 L10 -145 L5 -145 L-7.10543e-15 -145 L-6.79927e-15 -150 L-6.4931e-15 -155 L-6.18694e-15 -160 L5 -160 L10 -160 L10 -165 L10 -170 L10 -175 L5 -175 L-7.10543e-15 -175 L-6.79927e-15 -180 L-6.4931e-15 -185 L-6.18694e-15 -190 L5 -190 L10 -190 L15 -190 L15 -185 L15 -180 L20 -180 L20 -185 L20 -190 L25 -190 L30 -190 L35 -190 L35 -185 L35 -180 L35 -175 L30 -175 L25 -175 L25 -170 L25 -165 L25 -160 L30 -160 L35 -160 L40 -160 L40 -165 L40 -170 L45 -170 L50 -170 L55 -170 L55 -165 L55 -160 L60 -160 L65 -160 L70 -160 L70 -165 L70 -170 L70 -175 L65 -175 L60 -175 L60 -180 L65 -180 L70 -180 L70 -185 L70 -190 L70 -195 L65 -195 L60 -195 L55 -195 L55 -190 L55 -185 L50 -185 L45 -185 L40 -185 L40 -190 L40 -195 L40 -200 L40 -205 L40 -210 L45 -210 L50 -210 L55 -210 L55 -205 L55 -200 L60 -200 L65 -200 L70 -200 L70 -205 L70 -210 L70 -215 L65 -215 L60 -215 L60 -220 L65 -220 L70 -220 L70 -225 L70 -230 L70 -235 L65 -235 L60 -235 L55 -235 L55 -230 L55 -225 L50 -225 L45 -225 L40 -225 L40 -230 L40 -235 L35 -235 L30 -235 L25 -235 L25 -230 L25 -225 L25 -220 L30 -220 L35 -220 L35 -215 L35 -210 L35 -205 L30 -205 L25 -205 L20 -205 L20 -210 L20 -215 L15 -215 L15 -210 L15 -205 L10 -205 L5 -205 L-3.55271e-15 -205 L-3.24655e-15 -210 L-2.94039e-15 -215 L-2.63423e-15 -220 L5 -220 L10 -220 L10 -225 L10 -230 L10 -235 L5 -235 L-3.55271e-15 -235 L-3.24655e-15 -240 L-2.94039e-15 -245 L-2.63423e-15 -250 L5 -250 L10 -250 L15 -250 L15 -245 L15 -240 L20 -240 L25 -240 L30 -240 L30 -245 L30 -250 L30 -255 L25 -255 L20 -255 L20 -260 L25 -260 L30 -260 L30 -265 L30 -270 L30 -275 L25 -275 L20 -275 L15 -275 L15 -270 L15 -265 L10 -265 L5 -265 L-7.10543e-15 -265 L-6.79927e-15 -270 L-6.4931e-15 -275 L-6.18694e-15 -280 L5 -280 L10 -280 L10 -285 L10 -290 L10 -295 L5 -295 L-7.10543e-15 -295 L-6.79927e-15 -300 L-6.4931e-15 -305 L-6.18694e-15 -310 L5 -310 L10 -310 L15 -310 L15 -305 L15 -300 L20 -300 L20 -305 L20 -310 L25 -310 L30 -310 L35 -310 L35 -305 L35 -300 L35 -295 L30 -295 L25 -295 L25 -290 L25 -285 L25 -280 L30 -280 L35 -280 L40 -280 L45 -280 L50 -280 L50 -285 L50 -290 L50 -295 L45 -295 L40 -295 L40 -300 L40 -305 L40 -310 L45 -310 L50 -310 L55 -310 L55 -305 L55 -300 L60 -300 L60 -305 L60 -310 L65 -310 L70 -310 L75 -310 L75 -305 L75 -300 L75 -295 L70 -295 L65 -295 L65 -290 L65 -285 L65 -280 L70 -280 L75 -280 L75 -275 L75 -270 L75 -265 L70 -265 L65 -265 L60 -265 L60 -270 L60 -275 L55 -275 L50 -275 L45 -275 L45 -270 L45 -265 L45 -260 L50 -260 L55 -260 L55 -255 L50 -255 L45 -255 L45 -250 L45 -245 L45 -240 L50 -240 L55 -240 L60 -240 L60 -245 L60 -250 L65 -250 L70 -250 L75 -250 L75 -245 L75 -240 L80 -240 L80 -245 L80 -250 L85 -250 L90 -250 L95 -250 L95 -245 L95 -240 L100 -240 L105 -240 L110 -240 L110 -245 L110 -250 L110 -255 L105 -255 L100 -255 L100 -260 L105 -260 L110 -260 L110 -265 L110 -270 L110 -275 L105 -275 L100 -275 L95 -275 L95 -270 L95 -265 L90 -265 L85 -265 L80 -265 L80 -270 L80 -275 L80 -280 L85 -280 L90 -280 L90 -285 L90 -290 L90 -295 L85 -295 L80 -295 L80 -300 L80 -305 L80 -310 L85 -310 L90 -310 L95 -310 L95 -305 L95 -300 L100 -300 L100 -305 L100 -310 L105 -310 L110 -310 L115 -310 L115 -305 L115 -300 L115 -295 L110 -295 L105 -295 L105 -290 L105 -285 L105 -280 L110 -280 L115 -280 L120 -280 L125 -280 L130 -280 L130 -285 L130 -290 L130 -295 L125 -295 L120 -295 L120 -300 L120 -305 L120 -310 L125 -310 L130 -310 L135 -310 L135 -305 L135 -300 L140 -300 L140 -305 L140 -310 L145 -310 L150 -310 L155 -310 L155 -305 L155 -300 L155 -295 L150 -295 L145 -295 L145 -290 L145 -285 L145 -280 L150 -280 L155 -280 L155 -275 L155 -270 L155 -265 L150 -265 L145 -265 L140 -265 L140 -270 L140 -275 L135 -275 L130 -275 L125 -275 L125 -270 L125 -265 L125 -260 L130 -260 L135 -260 L135 -255 L130 -255 L125 -255 L125 -250 L125 -245 L125 -240 L130 -240 L135 -240 L140 -240 L140 -245 L140 -250 L145 -250 L150 -250 L155 -250 L155 -245 L155 -240 L155 -235 L150 -235 L145 -235 L145 -230 L145 -225 L145 -220 L150 -220 L155 -220 L155 -215 L155 -210 L155 -205 L150 -205 L145 -205 L140 -205 L140 -210 L140 -215 L135 -215 L135 -210 L135 -205 L130 -205 L125 -205 L120 -205 L120 -210 L120 -215 L120 -220 L125 -220 L130 -220 L130 -225 L130 -230 L130 -235 L125 -235 L120 -235 L115 -235 L115 -230 L115 -225 L110 -225 L105 -225 L100 -225 L100 -230 L100 -235 L95 -235 L90 -235 L85 -235 L85 -230 L85 -225 L85 -220 L90 -220 L95 -220 L95 -215 L90 -215 L85 -215 L85 -210 L85 -205 L85 -200 L90 -200 L95 -200 L100 -200 L100 -205 L100 -210 L105 -210 L110 -210 L115 -210 L115 -205 L115 -200 L115 -195 L115 -190 L115 -185 L110 -185 L105 -185 L100 -185 L100 -190 L100 -195 L95 -195 L90 -195 L85 -195 L85 -190 L85 -185 L85 -180 L90 -180 L95 -180 L95 -175 L90 -175 L85 -175 L85 -170 L85 -165 L85 -160 L90 -160 L95 -160 L100 -160 L100 -165 L100 -170 L105 -170 L110 -170 L115 -170 L115 -165 L115 -160 L120 -160 L125 -160 L130 -160 L130 -165 L130 -170 L130 -175 L125 -175 L120 -175 L120 -180 L120 -185 L120 -190 L125 -190 L130 -190 L135 -190 L135 -185 L135 -180 L140 -180 L140 -185 L140 -190 L145 -190 L150 -190 L155 -190 L155 -185 L155 -180 L155 -175 L150 -175 L145 -175 L145 -170 L145 -165 L145 -160 L150 -160 L155 -160 L160 -160 L165 -160 L170 -160 L170 -165 L170 -170 L170 -175 L165 -175 L160 -175 L160 -180 L160 -185 L160 -190 L165 -190 L170 -190 L175 -190 L175 -185 L175 -180 L180 -180 L180 -185 L180 -190 L185 -190 L190 -190 L195 -190 L195 -185 L195 -180 L195 -175 L190 -175 L185 -175 L185 -170 L185 -165 L185 -160 L190 -160 L195 -160 L200 -160 L200 -165 L200 -170 L205 -170 L210 -170 L215 -170 L215 -165 L215 -160 L220 -160 L225 -160 L230 -160 L230 -165 L230 -170 L230 -175 L225 -175 L220 -175 L220 -180 L225 -180 L230 -180 L230 -185 L230 -190 L230 -195 L225 -195 L220 -195 L215 -195 L215 -190 L215 -185 L210 -185 L205 -185 L200 -185 L200 -190 L200 -195 L200 -200 L200 -205 L200 -210 L205 -210 L210 -210 L215 -210 L215 -205 L215 -200 L220 -200 L225 -200 L230 -200 L230 -205 L230 -210 L230 -215 L225 -215 L220 -215 L220 -220 L225 -220 L230 -220 L230 -225 L230 -230 L230 -235 L225 -235 L220 -235 L215 -235 L215 -230 L215 -225 L210 -225 L205 -225 L200 -225 L200 -230 L200 -235 L195 -235 L190 -235 L185 -235 L185 -230 L185 -225 L185 -220 L190 -220 L195 -220 L195 -215 L195 -210 L195 -205 L190 -205 L185 -205 L180 -205 L180 -210 L180 -215 L175 -215 L175 -210 L175 -205 L170 -205 L165 -205 L160 -205 L160 -210 L160 -215 L160 -220 L165 -220 L170 -220 L170 -225 L170 -230 L170 -235 L165 -235 L160 -235 L160 -240 L160 -245 L160 -250 L165 -250 L170 -250 L175 -250 L175 -245 L175 -240 L180 -240 L185 -240 L190 -240 L190 -245 L190 -250 L190 -255 L185 -255 L180 -255 L180 -260 L185 -260 L190 -260 L190 -265 L190 -270 L190 -275 L185 -275 L180 -275 L175 -275 L175 -270 L175 -265 L170 -265 L165 -265 L160 -265 L160 -270 L160 -275 L160 -280 L165 -280 L170 -280 L170 -285 L170 -290 L170 -295 L165 -295 L160 -295 L160 -300 L160 -305 L160 -310 L165 -310 L170 -310 L175 -310 L175 -305 L175 -300 L180 -300 L180 -305 L180 -310 L185 -310 L190 -310 L195 -310 L195 -305 L195 -300 L195 -295 L190 -295 L185 -295 L185 -290 L185 -285 L185 -280 L190 -280 L195 -280 L200 -280 L205 -280 L210 -280 L210 -285 L210 -290 L210 -295 L205 -295 L200 -295 L200 -300 L200 -305 L200 -310 L205 -310 L210 -310 L215 -310 L215 -305 L215 -300 L220 -300 L220 -305 L220 -310 L225 -310 L230 -310 L235 -310 L235 -305 L235 -300 L235 -295 L230 -295 L225 -295 L225 -290 L225 -285 L225 -280 L230 -280 L235 -280 L235 -275 L235 -270 L235 -265 L230 -265 L225 -265 L220 -265 L220 -270 L220 -275 L215 -275 L210 -275 L205 -275 L205 -270 L205 -265 L205 -260 L210 -260 L215 -260 L215 -255 L210 -255 L205 -255 L205 -250 L205 -245 L205 -240 L210 -240 L215 -240 L220 -240 L220 -245 L220 -250 L225 -250 L230 -250 L235 -250 L235 -245 L235 -240 L240 -240 L240 -245 L240 -250 L245 -250 L250 -250 L255 -250 L255 -245 L255 -240 L260 -240 L265 -240 L270 -240 L270 -245 L270 -250 L270 -255 L265 -255 L260 -255 L260 -260 L265 -260 L270 -260 L270 -265 L270 -270 L270 -275 L265 -275 L260 -275 L255 -275 L255 -270 L255 -265 L250 -265 L245 -265 L240 -265 L240 -270 L240 -275 L240 -280 L245 -280 L250 -280 L250 -285 L250 -290 L250 -295 L245 -295 L240 -295 L240 -300 L240 -305 L240 -310 L245 -310 L250 -310 L255 -310 L255 -305 L255 -300 L260 -300 L260 -305 L260 -310 L265 -310 L270 -310 L275 -310 L275 -305 L275 -300 L275 -295 L270 -295 L265 -295 L265 -290 L265 -285 L265 -280 L270 -280 L275 -280 L280 -280 L285 -280 L290 -280 L290 -285 L290 -290 L290 -295 L285 -295 L280 -295 L280 -300 L280 -305 L280 -310 L285 -310 L290 -310 L295 -310 L295 -305 L295 -300 L300 -300 L300 -305 L300 -310 L305 -310 L310 -310 L315 -310 L315 -305 L315 -300 L315 -295 L310 -295 L305 -295 L305 -290 L305 -285 L305 -280 L310 -280 L315 -280 L315 -275 L315 -270 L315 -265 L310 -265 L305 -265 L300 -265 L300 -270 L300 -275 L295 -275 L290 -275 L285 -275 L285 -270 L285 -265 L285 -260 L290 -260 L295 -260 L295 -255 L290 -255 L285 -255 L285 -250 L285 -245 L285 -240 L290 -240 L295 -240 L300 -240 L300 -245 L300 -250 L305 -250 L310 -250 L315 -250 L315 -245 L315 -240 L315 -235 L310 -235 L305 -235 L305 -230 L305 -225 L305 -220 L310 -220 L315 -220 L315 -215 L315 -210 L315 -205 L310 -205 L305 -205 L300 -205 L300 -210 L300 -215 L295 -215 L295 -210 L295 -205 L290 -205 L285 -205 L280 -205 L280 -210 L280 -215 L280 -220 L285 -220 L290 -220 L290 -225 L290 -230 L290 -235 L285 -235 L280 -235 L275 -235 L275 -230 L275 -225 L270 -225 L265 -225 L260 -225 L260 -230 L260 -235 L255 -235 L250 -235 L245 -235 L245 -230 L245 -225 L245 -220 L250 -220 L255 -220 L255 -215 L250 -215 L245 -215 L245 -210 L245 -205 L245 -200 L250 -200 L255 -200 L260 -200 L260 -205 L260 -210 L265 -210 L270 -210 L275 -210 L275 -205 L275 -200 L275 -195 L275 -190 L275 -185 L270 -185 L265 -185 L260 -185 L260 -190 L260 -195 L255 -195 L250 -195 L245 -195 L245 -190 L245 -185 L245 -180 L250 -180 L255 -180 L255 -175 L250 -175 L245 -175 L245 -170 L245 -165 L245 -160 L250 -160 L255 -160 L260 -160 L260 -165 L260 -170 L265 -170 L270 -170 L275 -170 L275 -165 L275 -160 L280 -160 L285 -160 L290 -160 L290 -165 L290 -170 L290 -175 L285 -175 L280 -175 L280 -180 L280 -185 L280 -190 L285 -190 L290 -190 L295 -190 L295 -185 L295 -180 L300 -180 L300 -185 L300 -190 L305 -190 L310 -190 L315 -190 L315 -185 L315 -180 L315 -175 L310 -175 L305 -175 L305 -170 L305 -165 L305 -160 L310 -160 L315 -160 L315 -155 L315 -150 L315 -145 L310 -145 L305 -145 L300 -145 L300 -150 L300 -155 L295 -155 L290 -155 L285 -155 L285 -150 L285 -145 L285 -140 L290 -140 L295 -140 L295 -135 L290 -135 L285 -135 L285 -130 L285 -125 L285 -120 L290 -120 L295 -120 L300 -120 L300 -125 L300 -130 L305 -130 L310 -130 L315 -130 L315 -125 L315 -120 L315 -115 L310 -115 L305 -115 L305 -110 L305 -105 L305 -100 L310 -100 L315 -100 L315 -95 L315 -90 L315 -85 L310 -85 L305 -85 L300 -85 L300 -90 L300 -95 L295 -95 L295 -90 L295 -85 L290 -85 L285 -85 L280 -85 L280 -90 L280 -95 L280 -100 L285 -100 L290 -100 L290 -105 L290 -110 L290 -115 L285 -115 L280 -115 L275 -115 L270 -115 L265 -115 L265 -110 L265 -105 L265 -100 L270 -100 L275 -100 L275 -95 L275 -90 L275 -85 L270 -85 L265 -85 L260 -85 L260 -90 L260 -95 L255 -95 L255 -90 L255 -85 L250 -85 L245 -85 L240 -85 L240 -90 L240 -95 L240 -100 L245 -100 L250 -100 L250 -105 L250 -110 L250 -115 L245 -115 L240 -115 L240 -120 L240 -125 L240 -130 L245 -130 L250 -130 L255 -130 L255 -125 L255 -120 L260 -120 L265 -120 L270 -120 L270 -125 L270 -130 L270 -135 L265 -135 L260 -135 L260 -140 L265 -140 L270 -140 L270 -145 L270 -150 L270 -155 L265 -155 L260 -155 L255 -155 L255 -150 L255 -145 L250 -145 L245 -145 L240 -145 L240 -150 L240 -155 L235 -155 L230 -155 L225 -155 L225 -150 L225 -145 L225 -140 L230 -140 L235 -140 L235 -135 L235 -130 L235 -125 L230 -125 L225 -125 L220 -125 L220 -130 L220 -135 L215 -135 L215 -130 L215 -125 L210 -125 L205 -125 L200 -125 L200 -130 L200 -135 L200 -140 L205 -140 L210 -140 L210 -145 L210 -150 L210 -155 L205 -155 L200 -155 L195 -155 L195 -150 L195 -145 L190 -145 L185 -145 L180 -145 L180 -150 L180 -155 L175 -155 L170 -155 L165 -155 L165 -150 L165 -145 L165 -140 L170 -140 L175 -140 L175 -135 L170 -135 L165 -135 L165 -130 L165 -125 L165 -120 L170 -120 L175 -120 L180 -120 L180 -125 L180 -130 L185 -130 L190 -130 L195 -130 L195 -125 L195 -120 L195 -115 L195 -110 L195 -105 L190 -105 L185 -105 L180 -105 L180 -110 L180 -115 L175 -115 L170 -115 L165 -115 L165 -110 L165 -105 L165 -100 L170 -100 L175 -100 L175 -95 L170 -95 L165 -95 L165 -90 L165 -85 L165 -80 L170 -80 L175 -80 L180 -80 L180 -85 L180 -90 L185 -90 L190 -90 L195 -90 L195 -85 L195 -80 L200 -80 L205 -80 L210 -80 L210 -85 L210 -90 L210 -95 L205 -95 L200 -95 L200 -100 L200 -105 L200 -110 L205 -110 L210 -110 L215 -110 L215 -105 L215 -100 L220 -100 L220 -105 L220 -110 L225 -110 L230 -110 L235 -110 L235 -105 L235 -100 L235 -95 L230 -95 L225 -95 L225 -90 L225 -85 L225 -80 L230 -80 L235 -80 L235 -75 L230 -75 L225 -75 L225 -70 L225 -65 L225 -60 L230 -60 L235 -60 L235 -55 L235 -50 L235 -45 L230 -45 L225 -45 L220 -45 L220 -50 L220 -55 L215 -55 L215 -50 L215 -45 L210 -45 L205 -45 L200 -45 L200 -50 L200 -55 L200 -60 L205 -60 L210 -60 L210 -65 L210 -70 L210 -75 L205 -75 L200 -75 L195 -75 L195 -70 L195 -65 L190 -65 L185 -65 L180 -65 L180 -70 L180 -75 L175 -75 L170 -75 L165 -75 L165 -70 L165 -65 L165 -60 L170 -60 L175 -60 L175 -55 L170 -55 L165 -55 L165 -50 L165 -45 L165 -40 L170 -40 L175 -40 L180 -40 L180 -45 L180 -50 L185 -50 L190 -50 L195 -50 L195 -45 L195 -40 L195 -35 L195 -30 L195 -25 L190 -25 L185 -25 L180 -25 L180 -30 L180 -35 L175 -35 L170 -35 L165 -35 L165 -30 L165 -25 L165 -20 L170 -20 L175 -20 L175 -15 L170 -15 L165 -15 L165 -10 L165 -5 L165 0 L170 9.86076e-32 L175 1.97215e-31 L180 2.95823e-31 L180 -5 L180 -10 L185 -10 L190 -10 L195 -10 L195 -5 L195 0 L200 9.86076e-32 L205 1.97215e-31 L210 2.95823e-31 L210 -5 L210 -10 L210 -15 L205 -15 L200 -15 L200 -20 L200 -25 L200 -30 L205 -30 L210 -30 L215 -30 L215 -25 L215 -20 L220 -20 L220 -25 L220 -30 L225 -30 L230 -30 L235 -30 L235 -25 L235 -20 L235 -15 L230 -15 L225 -15 L225 -10 L225 -5 L225 0 L230 9.86076e-32 L235 1.97215e-31 L240 2.95823e-31 L240 -5 L240 -10 L245 -10 L250 -10 L255 -10 L255 -5 L255 0 L260 9.86076e-32 L265 1.97215e-31 L270 2.95823e-31 L270 -5 L270 -10 L270 -15 L265 -15 L260 -15 L260 -20 L265 -20 L270 -20 L270 -25 L270 -30 L270 -35 L265 -35 L260 -35 L255 -35 L255 -30 L255 -25 L250 -25 L245 -25 L240 -25 L240 -30 L240 -35 L240 -40 L245 -40 L250 -40 L250 -45 L250 -50 L250 -55 L245 -55 L240 -55 L240 -60 L240 -65 L240 -70 L245 -70 L250 -70 L255 -70 L255 -65 L255 -60 L260 -60 L260 -65 L260 -70 L265 -70 L270 -70 L275 -70 L275 -65 L275 -60 L275 -55 L270 -55 L265 -55 L265 -50 L265 -45 L265 -40 L270 -40 L275 -40 L280 -40 L285 -40 L290 -40 L290 -45 L290 -50 L290 -55 L285 -55 L280 -55 L280 -60 L280 -65 L280 -70 L285 -70 L290 -70 L295 -70 L295 -65 L295 -60 L300 -60 L300 -65 L300 -70 L305 -70 L310 -70 L315 -70 L315 -65 L315 -60 L315 -55 L310 -55 L305 -55 L305 -50 L305 -45 L305 -40 L310 -40 L315 -40 L315 -35 L315 -30 L315 -25 L310 -25 L305 -25 L300 -25 L300 -30 L300 -35 L295 -35 L290 -35 L285 -35 L285 -30 L285 -25 L285 -20 L290 -20 L295 -20 L295 -15 L290 -15 L285 -15 L285 -10 L285 -5 L285 0 L290 9.86076e-32 L295 1.97215e-31 L300 2.95823e-31 L300 -5 L300 -10 L305 -10 L310 -10 L315 -10 L315 -5 L315 0"/>
</svg>
