<?xml version="1.0" encoding="UTF-8"?>
<svg xmlns="http://www.w3.org/2000/svg"
 version="1.1" baseProfile="basic"
 viewBox="-11 -640 656 651"
 width="1280px" height="1024px"
 stroke="white" stroke-width="1px"
 fill="black" fill-opacity="0">
<rect x="-11" y="-640" width="656" height="651" stroke-width="0px" fill-opacity="1"/>
<path d="M0 0 L0 0 L5 0 L10 0 L10 -5 L10 -10 L10 -15 L5 -15 L0 -15 L3.06162e-16 -20 L6.12323e-16 -25 L9.18485e-16 -30 L5 -30 L10 -30 L15 -30 L15 -25 L15 -20 L20 -20 L20 -25 L20 -30 L25 -30 L30 -30 L35 -30 L35 -25 L35 -20 L35 -15 L30 -15 L25 -15 L25 -10 L25 -5 L25 0 L30 0 L35 0 L40 0 L40 -5 L40 -10 L45 -10 L50 -10 L55 -10 L55 -5 L55 0 L60 0 L65 0 L70 0 L70 -5 L70 -10 L70 -15 L65 -15 L60 -15 L60 -20 L65 -20 L70 -20 L70 -25 L70 -30 L70 -35 L65 -35 L60 -35 L55 -35 L55 -30 L55 -25 L50 -25 L45 -25 L40 -25 L40 -30 L40 -35 L40 -40 L40 -45 L40 -50 L45 -50 L50 -50 L55 -50 L55 -45 L55 -40 L60 -40 L65 -40 L70 -40 L70 -45 L70 -50 L70 -55 L65 -55 L60 -55 L60 -60 L65 -60 L70 -60 L70 -65 L70 -70 L70 -75 L65 -75 L60 -75 L55 -75 L55 -70 L55 -65 L50 -65 L45 -65 L40 -65 L40 -70 L40 -75 L35 -75 L30 -75 L25 -75 L25 -70 L25 -65 L25 -60 L30 -60 L35 -60 L35 -55 L35 -50 L35 -45 L30 -45 L25 -45 L20 -45 L20 -50 L20 -55 L15 -55 L15 -50 L15 -45 L10 -45 L5 -45 L-3.55271e-15 -45 L-3.24655e-15 -50 L-2.94039e-15 -55 L-2.63423e-15 -60 L5 -60 L10 -60 L10 -65 L10 -70 L10 -75 L5 -75 L-3.55271e-15 -75 L-3.24655e-15 -80 L-2.94039e-15 -85 L-2.63423e-15 -90 L5 -90 L10 -90 L15 -90 L15 -85 L15 -80 L20 -80 L25 -80 L30 -80 L30 -85 L30 -90 L30 -95 L25 -95 L20 -95 L20 -100 L25 -100 L30 -100 L30 -105 L30 -110 L30 -115 L25 -115 L20 -115 L15 -115 L15 -110 L15 -105 L10 -105 L5 -105 L-7.10543e-15 -105 L-6.79927e-15 -110 L-6.4931e-15 -115 L-6.18694e-15 -120 L5 -120 L10 -120 L10 -125 L10 -130 L10 -135 L5 -135 L-7.10543e-15 -135 L-6.79927e-15 -140 L-6.4931e-15 -145 L-6.18694e-15 -150 L5 -150 L10 -150 L15 -150 L15 -145 L15 -140 L20 -140 L20 -145 L20 -150 L25 -150 L30 -150 L35 -150 L35 -145 L35 -140 L35 -135 L30 -135 L25 -135 L25 -130 L25 -125 L25 -120 L30 -120 L35 -120 L40 -120 L45 -120 L50 -120 L50 -125 L50 -130 L50 -135 L45 -135 L40 -135 L40 -140 L40 -145 L40 -150 L45 -150 L50 -150 L55 -150 L55 -145 L55 -140 L60 -140 L60 -145 L60 -150 L65 -150 L70 -150 L75 -150 L75 -145 L75 -140 L75 -135 L70 -135 L65 -135 L65 -130 L65 -125 L65 -120 L70 -120 L75 -120 L75 -115 L75 -110 L75 -105 L70 -105 L65 -105 L60 -105 L60 -110 L60 -115 L55 -115 L50 -115 L45 -115 L45 -110 L45 -105 L45 -100 L50 -100 L55 -100 L55 -95 L50 -95 L45 -95 L45 -90 L45 -85 L45 -80 L50 -80 L55 -80 L60 -80 L60 -85 L60 -90 L65 -90 L70 -90 L75 -90 L75 -85 L75 -80 L80 -80 L80 -85 L80 -90 L85 -90 L90 -90 L95 -90 L95 -85 L95 -80 L100 -80 L105 -80 L110 -80 L110 -85 L110 -90 L110 -95 L105 -95 L100 -95 L100 -100 L105 -100 L110 -100 L110 -105 L110 -110 L110 -115 L105 -115 L100 -115 L95 -115 L95 -110 L95 -105 L90 -105 L85 -105 L80 -105 L80 -110 L80 -115 L80 -120 L85 -120 L90 -120 L90 -125 L90 -130 L90 -135 L85 -135 L80 -135 L80 -140 L80 -145 L80 -150 L85 -150 L90 -150 L95 -150 L95 -145 L95 -140 L100 -140 L100 -145 L100 -150 L105 -150 L110 -150 L115 -150 L115 -145 L115 -140 L115 -135 L110 -135 L105 -135 L105 -130 L105 -125 L105 -120 L110 -120 L115 -120 L120 -120 L125 -120 L130 -120 L130 -125 L130 -130 L130 -135 L125 -135 L120 -135 L120 -140 L120 -145 L120 -150 L125 -150 L130 -150 L135 -150 L135 -145 L135 -140 L140 -140 L140 -145 L140 -150 L145 -150 L150 -150 L155 -150 L155 -145 L155 -140 L155 -135 L150 -135 L145 -135 L145 -130 L145 -125 L145 -120 L150 -120 L155 -120 L155 -115 L155 -110 L155 -105 L150 -105 L145 -105 L140 -105 L140 -110 L140 -115 L135 -115 L130 -115 L125 -115 L125 -110 L125 -105 L125 -100 L130 -100 L135 -100 L135 -95 L130 -95 L125 -95 L125 -90 L125 -85 L125 -80 L130 -80 L135 -80 L140 -80 L140 -85 L140 -90 L145 -90 L150 -90 L155 -90 L155 -85 L155 -80 L155 -75 L150 -75 L145 -75 L145 -70 L145 -65 L145 -60 L150 -60 L155 -60 L155 -55 L155 -50 L155 -45 L150 -45 L145 -45 L140 -45 L140 -50 L140 -55 L135 -55 L135 -50 L135 -45 L130 -45 L125 -45 L120 -45 L120 -50 L120 -55 L120 -60 L125 -60 L130 -60 L130 -65 L130 -70 L130 -75 L125 -75 L120 -75 L115 -75 L115 -70 L115 -65 L110 -65 L105 -65 L100 -65 L100 -70 L100 -75 L95 -75 L90 -75 L85 -75 L85 -70 L85 -65 L85 -60 L90 -60 L95 -60 L95 -55 L90 -55 L85 -55 L85 -50 L85 -45 L85 -40 L90 -40 L95 -40 L100 -40 L100 -45 L100 -50 L105 -50 L110 -50 L115 -50 L115 -45 L115 -40 L115 -35 L115 -30 L115 -25 L110 -25 L105 -25 L100 -25 L100 -30 L100 -35 L95 -35 L90 -35 L85 -35 L85 -30 L85 -25 L85 -20 L90 -20 L95 -20 L95 -15 L90 -15 L85 -15 L85 -10 L85 -5 L85 0 L90 9.86076e-32 L95 1.97215e-31 L100 2.95823e-31 L100 -5 L100 -10 L105 -10 L110 -10 L115 -10 L115 -5 L115 0 L120 9.86076e-32 L125 1.97215e-31 L130 2.95823e-31 L130 -5 L130 -10 L130 -15 L125 -15 L120 -15 L120 -20 L120 -25 L120 -30 L125 -30 L130 -30 L135 -30 L135 -25 L135 -20 L140 -20 L140 -25 L140 -30 L145 -30 L150 -30 L155 -30 L155 -25 L155 -20 L155 -15 L150 -15 L145 -15 L145 -10 L145 -5 L145 0 L150 9.86076e-32 L155 1.97215e-31 L160 2.95823e-31 L160 -5 L160 -10 L165 -10 L170 -10 L175 -10 L175 -5 L175 0 L180 9.86076e-32 L185 1.97215e-31 L190 2.95823e-31 L190 -5 L190 -10 L190 -15 L185 -15 L180 -15 L180 -20 L185 -20 L190 -20 L190 -25 L190 -30 L190 -35 L185 -35 L180 -35 L175 -35 L175 -30 L175 -25 L170 -25 L165 -25 L160 -25 L160 -30 L160 -35 L160 -40 L165 -40 L170 -40 L170 -45 L170 -50 L170 -55 L165 -55 L160 -55 L160 -60 L160 -65 L160 -70 L165 -70 L170 -70 L175 -70 L175 -65 L175 -60 L180 -60 L180 -65 L180 -70 L185 -70 L190 -70 L195 -70 L195 -65 L195 -60 L195 -55 L190 -55 L185 -55 L185 -50 L185 -45 L185 -40 L190 -40 L195 -40 L200 -40 L205 -40 L210 -40 L210 -45 L210 -50 L210 -55 L205 -55 L200 -55 L200 -60 L200 -65 L200 -70 L205 -70 L210 -70 L215 -70 L215 -65 L215 -60 L220 -60 L220 -65 L220 -70 L225 -70 L230 -70 L235 -70 L235 -65 L235 -60 L235 -55 L230 -55 L225 -55 L225 -50 L225 -45 L225 -40 L230 -40 L235 -40 L235 -35 L235 -30 L235 -25 L230 -25 L225 -25 L220 -25 L220 -30 L220 -35 L215 -35 L210 -35 L205 -35 L205 -30 L205 -25 L205 -20 L210 -20 L215 -20 L215 -15 L210 -15 L205 -15 L205 -10 L205 -5 L205 0 L210 9.86076e-32 L215 1.97215e-31 L220 2.95823e-31 L220 -5 L220 -10 L225 -10 L230 -10 L235 -10 L235 -5 L235 0 L240 9.86076e-32 L245 1.97215e-31 L250 2.95823e-31 L250 -5 L250 -10 L250 -15 L245 -15 L240 -15 L240 -20 L240 -25 L240 -30 L245 -30 L250 -30 L255 -30 L255 -25 L255 -20 L260 -20 L260 -25 L260 -30 L265 -30 L270 -30 L275 -30 L275 -25 L275 -20 L275 -15 L270 -15 L265 -15 L265 -10 L265 -5 L265 0 L270 9.86076e-32 L275 1.97215e-31 L280 2.95823e-31 L280 -5 L280 -10 L285 -10 L290 -10 L295 -10 L295 -5 L295 0 L300 9.86076e-32 L305 1.97215e-31 L310 2.95823e-31 L310 -5 L310 -10 L310 -15 L305 -15 L300 -15 L300 -20 L305 -20 L310 -20 L310 -25 L310 -30 L310 -35 L305 -35 L300 -35 L295 -35 L295 -30 L295 -25 L290 -25 L285 -25 L280 -25 L280 -30 L280 -35 L280 -40 L280 -45 L280 -50 L285 -50 L290 -50 L295 -50 L295 -45 L295 -40 L300 -40 L305 -40 L310 -40 L310 -45 L310 -50 L310 -55 L305 -55 L300 -55 L300 -60 L305 -60 L310 -60 L310 -65 L310 -70 L310 -75 L305 -75 L300 -75 L295 -75 L295 -70 L295 -65 L290 -65 L285 -65 L280 -65 L280 -70 L280 -75 L275 -75 L270 -75 L265 -75 L265 -70 L265 -65 L265 -60 L270 -60 L275 -60 L275 -55 L275 -50 L275 -45 L270 -45 L265 -45 L260 -45 L260 -50 L260 -55 L255 -55 L255 -50 L255 -45 L250 -45 L245 -45 L240 -45 L240 -50 L240 -55 L240 -60 L245 -60 L250 -60 L250 -65 L250 -70 L250 -75 L245 -75 L240 -75 L240 -80 L245 -80 L250 -80 L250 -85 L250 -90 L250 -95 L245 -95 L240 -95 L240 -100 L240 -105 L240 -110 L245 -110 L250 -110 L255 -110 L255 -105 L255 -100 L260 -100 L260 -105 L260 -110 L265 -110 L270 -110 L275 -110 L275 -105 L275 -100 L275 -95 L270 -95 L265 -95 L265 -90 L265 -85 L265 -80 L270 -80 L275 -80 L280 -80 L280 -85 L280 -90 L285 -90 L290 -90 L295 -90 L295 -85 L295 -80 L300 -80 L305 -80 L310 -80 L310 -85 L310 -90 L310 -95 L305 -95 L300 -95 L300 -100 L305 -100 L310 -100 L310 -105 L310 -110 L310 -115 L305 -115 L300 -115 L295 -115 L295 -110 L295 -105 L290 -105 L285 -105 L280 -105 L280 -110 L280 -115 L280 -120 L280 -125 L280 -130 L285 -130 L290 -130 L295 -130 L295 -125 L295 -120 L300 -120 L305 -120 L310 -120 L310 -125 L310 -130 L310 -135 L305 -135 L300 -135 L300 -140 L305 -140 L310 -140 L310 -145 L310 -150 L310 -155 L305 -155 L300 -155 L295 -155 L295 -150 L295 -145 L290 -145 L285 -145 L280 -145 L280 -150 L280 -155 L275 -155 L270 -155 L265 -155 L265 -150 L265 -145 L265 -140 L270 -140 L275 -140 L275 -135 L275 -130 L275 -125 L270 -125 L265 -125 L260 -125 L260 -130 L260 -135 L255 -135 L255 -130 L255 -125 L250 -125 L245 -125 L240 -125 L240 -130 L240 -135 L240 -140 L245 -140 L250 -140 L250 -145 L250 -150 L250 -155 L245 -155 L240 -155 L235 -155 L235 -150 L235 -145 L230 -145 L225 -145 L220 -145 L220 -150 L220 -155 L215 -155 L210 -155 L205 -155 L205 -150 L205 -145 L205 -140 L210 -140 L215 -140 L215 -135 L210 -135 L205 -135 L205 -130 L205 -125 L205 -120 L210 -120 L215 -120 L220 -120 L220 -125 L220 -130 L225 -130 L230 -130 L235 -130 L235 -125 L235 -120 L235 -115 L230 -115 L225 -115 L225 -110 L225 -105 L225 -100 L230 -100 L235 -100 L235 -95 L235 -90 L235 -85 L230 -85 L225 -85 L220 -85 L220 -90 L220 -95 L215 -95 L215 -90 L215 -85 L210 -85 L205 -85 L200 -85 L200 -90 L200 -95 L200 -100 L205 -100 L210 -100 L210 -105 L210 -110 L210 -115 L205 -115 L200 -115 L195 -115 L190 -115 L185 -115 L185 -110 L185 -105 L185 -100 L190 -100 L195 -100 L195 -95 L195 -90 L195 -85 L190 -85 L185 -85 L180 -85 L180 -90 L180 -95 L175 -95 L175 -90 L175 -85 L170 -85 L165 -85 L160 -85 L160 -90 L160 -95 L160 -100 L165 -100 L170 -100 L170 -105 L170 -110 L170 -115 L165 -115 L160 -115 L160 -120 L160 -125 L160 -130 L165 -130 L170 -130 L175 -130 L175 -125 L175 -120 L180 -120 L185 -120 L190 -120 L190 -125 L190 -130 L190 -135 L185 -135 L180 -135 L180 -140 L185 -140 L190 -140 L190 -145 L190 -150 L190 -155 L185 -155 L180 -155 L175 -155 L175 -150 L175 -145 L170 -145 L165 -145 L160 -145 L160 -150 L160 -155 L160 -160 L160 -165 L160 -170 L165 -170 L170 -170 L175 -170 L175 -165 L175 -160 L180 -160 L185 -160 L190 -160 L190 -165 L190 -170 L190 -175 L185 -175 L180 -175 L180 -180 L185 -180 L190 -180 L190 -185 L190 -190 L190 -195 L185 -195 L180 -195 L175 -195 L175 -190 L175 -185 L170 -185 L165 -185 L160 -185 L160 -190 L160 -195 L160 -200 L165 -200 L170 -200 L170 -205 L170 -210 L170 -215 L165 -215 L160 -215 L160 -220 L160 -225 L160 -230 L165 -230 L170 -230 L175 -230 L175 -225 L175 -220 L180 -220 L180 -225 L180 -230 L185 -230 L190 -230 L195 -230 L195 -225 L195 -220 L195 -215 L190 -215 L185 -215 L185 -210 L185 -205 L185 -200 L190 -200 L195 -200 L200 -200 L205 -200 L210 -200 L210 -205 L210 -210 L210 -215 L205 -215 L200 -215 L200 -220 L200 -225 L200 -230 L205 -230 L210 -230 L215 -230 L215 -225 L215 -220 L220 -220 L220 -225 L220 -230 L225 -230 L230 -230 L235 -230 L235 -225 L235 -220 L235 -215 L230 -215 L225 -215 L225 -210 L225 -205 L225 -200 L230 -200 L235 -200 L235 -195 L235 -190 L235 -185 L230 -185 L225 -185 L220 -185 L220 -190 L220 -195 L215 -195 L210 -195 L205 -195 L205 -190 L205 -185 L205 -180 L210 -180 L215 -180 L215 -175 L210 -175 L205 -175 L205 -170 L205 -165 L205 -160 L210 -160 L215 -160 L220 -160 L220 -165 L220 -170 L225 -170 L230 -170 L235 -170 L235 -165 L235 -160 L240 -160 L245 -160 L250 -160 L250 -165 L250 -170 L250 -175 L245 -175 L240 -175 L240 -180 L240 -185 L240 -190 L245 -190 L250 -190 L255 -190 L255 -185 L255 -180 L260 -180 L260 -185 L260 -190 L265 -190 L270 -190 L275 -190 L275 -185 L275 -180 L275 -175 L270 -175 L265 -175 L265 -170 L265 -165 L265 -160 L270 -160 L275 -160 L280 -160 L280 -165 L280 -170 L285 -170 L290 -170 L295 -170 L295 -165 L295 -160 L300 -160 L305 -160 L310 -160 L310 -165 L310 -170 L310 -175 L305 -175 L300 -175 L300 -180 L305 -180 L310 -180 L310 -185 L310 -190 L310 -195 L305 -195 L300 -195 L295 -195 L295 -190 L295 -185 L290 -185 L285 -185 L280 -185 L280 -190 L280 -195 L280 -200 L280 -205 L280 -210 L285 -210 L290 -210 L295 -210 L295 -205 L295 -200 L300 -200 L305 -200 L310 -200 L310 -205 L310 -210 L310 -215 L305 -215 L300 -215 L300 -220 L305 -220 L310 -220 L310 -225 L310 -230 L310 -235 L305 -235 L300 -235 L295 -235 L295 -230 L295 -225 L290 -225 L285 -225 L280 -225 L280 -230 L280 -235 L275 -235 L270 -235 L265 -235 L265 -230 L265 -225 L265 -220 L270 -220 L275 -220 L275 -215 L275 -210 L275 -205 L270 -205 L265 -205 L260 -205 L260 -210 L260 -215 L255 -215 L255 -210 L255 -205 L250 -205 L245 -205 L240 -205 L240 -210 L240 -215 L240 -220 L245 -220 L250 -220 L250 -225 L250 -230 L250 -235 L245 -235 L240 -235 L240 -240 L245 -240 L250 -240 L250 -245 L250 -250 L250 -255 L245 -255 L240 -255 L240 -260 L240 -265 L240 -270 L245 -270 L250 -270 L255 -270 L255 -265 L255 -260 L260 -260 L260 -265 L260 -270 L265 -270 L270 -270 L275 -270 L275 -265 L275 -260 L275 -255 L270 -255 L265 -255 L265 -250 L265 -245 L265 -240 L270 -240 L275 -240 L280 -240 L280 -245 L280 -250 L285 -250 L290 -250 L295 -250 L295 -245 L295 -240 L300 -240 L305 -240 L310 -240 L310 -245 L310 -250 L310 -255 L305 -255 L300 -255 L300 -260 L305 -260 L310 -260 L310 -265 L310 -270 L310 -275 L305 -275 L300 -275 L295 -275 L295 -270 L295 -265 L290 -265 L285 -265 L280 -265 L280 -270 L280 -275 L280 -280 L280 -285 L280 -290 L285 -290 L290 -290 L295 -290 L295 -285 L295 -280 L300 -280 L305 -280 L310 -280 L310 -285 L310 -290 L310 -295 L305 -295 L300 -295 L300 -300 L305 -300 L310 -300 L310 -305 L310 -310 L310 -315 L305 -315 L300 -315 L295 -315 L295 -310 L295 -305 L290 -305 L285 -305 L280 -305 L280 -310 L280 -315 L275 -315 L270 -315 L265 -315 L265 -310 L265 -305 L265 -300 L270 -300 L275 -300 L275 -295 L275 -290 L275 -285 L270 -285 L265 -285 L260 -285 L260 -290 L260 -295 L255 -295 L255 -290 L255 -285 L250 -285 L245 -285 L240 -285 L240 -290 L240 -295 L240 -300 L245 -300 L250 -300 L250 -305 L250 -310 L250 -315 L245 -315 L240 -315 L235 -315 L235 -310 L235 -305 L230 -305 L225 -305 L220 -305 L220 -310 L220 -315 L215 -315 L210 -315 L205 -315 L205 -310 L205 -305 L205 -300 L210 -300 L215 -300 L215 -295 L210 -295 L205 -295 L205 -290 L205 -285 L205 -280 L210 -280 L215 -280 L220 -280 L220 -285 L220 -290 L225 -290 L230 -290 L235 -290 L235 -285 L235 -280 L235 -275 L230 -275 L225 -275 L225 -270 L225 -265 L225 -260 L230 -260 L235 -260 L235 -255 L235 -250 L235 -245 L230 -245 L225 -245 L220 -245 L220 -250 L220 -255 L215 -255 L215 -250 L215 -245 L210 -245 L205 -245 L200 -245 L200 -250 L200 -255 L200 -260 L205 -260 L210 -260 L210 -265 L210 -270 L210 -275 L205 -275 L200 -275 L195 -275 L190 -275 L185 -275 L185 -270 L185 -265 L185 -260 L190 -260 L195 -260 L195 -255 L195 -250 L195 -245 L190 -245 L185 -245 L180 -245 L180 -250 L180 -255 L175 -255 L175 -250 L175 -245 L170 -245 L165 -245 L160 -245 L160 -250 L160 -255 L160 -260 L165 -260 L170 -260 L170 -265 L170 -270 L170 -275 L165 -275 L160 -275 L160 -280 L160 -285 L160 -290 L165 -290 L170 -290 L175 -290 L175 -285 L175 -280 L180 -280 L185 -280 L190 -280 L190 -285 L190 -290 L190 -295 L185 -295 L180 -295 L180 -300 L185 -300 L190 -300 L190 -305 L190 -310 L190 -315 L185 -315 L180 -315 L175 -315 L175 -310 L175 -305 L170 -305 L165 -305 L160 -305 L160 -310 L160 -315 L155 -315 L150 -315 L145 -315 L145 -310 L145 -305 L145 -300 L150 -300 L155 -300 L155 -295 L155 -290 L155 -285 L150 -285 L145 -285 L140 -285 L140 -290 L140 -295 L135 -295 L135 -290 L135 -285 L130 -285 L125 -285 L120 -285 L120 -290 L120 -295 L120 -300 L125 -300 L130 -300 L130 -305 L130 -310 L130 -315 L125 -315 L120 -315 L115 -315 L115 -310 L115 -305 L110 -305 L105 -305 L100 -305 L100 -310 L100 -315 L95 -315 L90 -315 L85 -315 L85 -310 L85 -305 L85 -300 L90 -300 L95 -300 L95 -295 L90 -295 L85 -295 L85 -290 L85 -285 L85 -280 L90 -280 L95 -280 L100 -280 L100 -285 L100 -290 L105 -290 L110 -290 L115 -290 L115 -285 L115 -280 L115 -275 L115 -270 L115 -265 L110 -265 L105 -265 L100 -265 L100 -270 L100 -275 L95 -275 L90 -275 L85 -275 L85 -270 L85 -265 L85 -260 L90 -260 L95 -260 L95 -255 L90 -255 L85 -255 L85 -250 L85 -245 L85 -240 L90 -240 L95 -240 L100 -240 L100 -245 L100 -250 L105 -250 L110 -250 L115 -250 L115 -245 L115 -240 L120 -240 L125 -240 L130 -240 L130 -245 L130 -250 L130 -255 L125 -255 L120 -255 L120 -260 L120 -265 L120 -270 L125 -270 L130 -270 L135 -270 L135 -265 L135 -260 L140 -260 L140 -265 L140 -270 L145 -270 L150 -270 L155 -270 L155 -265 L155 -260 L155 -255 L150 -255 L145 -255 L145 -250 L145 -245 L145 -240 L150 -240 L155 -240 L155 -235 L155 -230 L155 -225 L150 -225 L145 -225 L140 -225 L140 -230 L140 -235 L135 -235 L130 -235 L125 -235 L125 -230 L125 -225 L125 -220 L130 -220 L135 -220 L135 -215 L130 -215 L125 -215 L125 -210 L125 -205 L125 -200 L130 -200 L135 -200 L140 -200 L140 -205 L140 -210 L145 -210 L150 -210 L155 -210 L155 -205 L155 -200 L155 -195 L150 -195 L145 -195 L145 -190 L145 -185 L145 -180 L150 -180 L155 -180 L155 -175 L155 -170 L155 -165 L150 -165 L145 -165 L140 -165 L140 -170 L140 -175 L135 -175 L135 -170 L135 -165 L130 -165 L125 -165 L120 -165 L120 -170 L120 -175 L120 -180 L125 -180 L130 -180 L130 -185 L130 -190 L130 -195 L125 -195 L120 -195 L115 -195 L110 -195 L105 -195 L105 -190 L105 -185 L105 -180 L110 -180 L115 -180 L115 -175 L115 -170 L115 -165 L110 -165 L105 -165 L100 -165 L100 -170 L100 -175 L95 -175 L95 -170 L95 -165 L90 -165 L85 -165 L80 -165 L80 -170 L80 -175 L80 -180 L85 -180 L90 -180 L90 -185 L90 -190 L90 -195 L85 -195 L80 -195 L80 -200 L80 -205 L80 -210 L85 -210 L90 -210 L95 -210 L95 -205 L95 -200 L100 -200 L105 -200 L110 -200 L110 -205 L110 -210 L110 -215 L105 -215 L100 -215 L100 -220 L105 -220 L110 -220 L110 -225 L110 -230 L110 -235 L105 -235 L100 -235 L95 -235 L95 -230 L95 -225 L90 -225 L85 -225 L80 -225 L80 -230 L80 -235 L75 -235 L75 -230 L75 -225 L70 -225 L65 -225 L60 -225 L60 -230 L60 -235 L55 -235 L50 -235 L45 -235 L45 -230 L45 -225 L45 -220 L50 -220 L55 -220 L55 -215 L50 -215 L45 -215 L45 -210 L45 -205 L45 -200 L50 -200 L55 -200 L60 -200 L60 -205 L60 -210 L65 -210 L70 -210 L75 -210 L75 -205 L75 -200 L75 -195 L70 -195 L65 -195 L65 -190 L65 -185 L65 -180 L70 -180 L75 -180 L75 -175 L75 -170 L75 -165 L70 -165 L65 -165 L60 -165 L60 -170 L60 -175 L55 -175 L55 -170 L55 -165 L50 -165 L45 -165 L40 -165 L40 -170 L40 -175 L40 -180 L45 -180 L50 -180 L50 -185 L50 -190 L50 -195 L45 -195 L40 -195 L35 -195 L30 -195 L25 -195 L25 -190 L25 -185 L25 -180 L30 -180 L35 -180 L35 -175 L35 -170 L35 -165 L30 -165 L25 -165 L20 -165 L20 -170 L20 -175 L15 -175 L15 -170 L15 -165 L10 -165 L5 -165 L-3.55271e-15 -165 L-3.24655e-15 -170 L-2.94039e-15 -175 L-2.63423e-15 -180 L5 -180 L10 -180 L10 -185 L10 -190 L10 -195 L5 -195 L-3.55271e-15 -195 L-3.24655e-15 -200 L-2.94039e-15 -205 L-2.63423e-15 -210 L5 -210 L10 -210 L15 -210 L15 -205 L15 -200 L20 -200 L25 -200 L30 -200 L30 -205 L30 -210 L30 -215 L25 -215 L20 -215 L20 -220 L25 -220 L30 -220 L30 -225 L30 -230 L30 -235 L25 -235 L20 -235 L15 -235 L15 -230 L15 -225 L10 -225 L5 -225 L-7.10543e-15 -225 L-6.79927e-15 -230 L-6.4931e-15 -235 L-6.18694e-15 -240 L5 -240 L10 -240 L10 -245 L10 -250 L10 -255 L5 -255 L-7.10543e-15 -255 L-6.79927e-15 -260 L-6.4931e-15 -265 L-6.18694e-15 -270 L5 -270 L10 -270 L15 -270 L15 -265 L15 -260 L20 -260 L20 -265 L20 -270 L25 -270 L30 -270 L35 -270 L35 -265 L35 -260 L35 -255 L30 -255 L25 -255 L25 -250 L25 -245 L25 -240 L30 -240 L35 -240 L40 -240 L40 -245 L40 -250 L45 -250 L50 -250 L55 -250 L55 -245 L55 -240 L60 -240 L65 -240 L70 -240 L70 -245 L70 -250 L70 -255 L65 -255 L60 -255 L60 -260 L65 -260 L70 -260 L70 -265 L70 -270 L70 -275 L65 -275 L60 -275 L55 -275 L55 -270 L55 -265 L50 -265 L45 -265 L40 -265 L40 -270 L40 -275 L40 -280 L40 -285 L40 -290 L45 -290 L50 -290 L55 -290 L55 -285 L55 -280 L60 -280 L65 -280 L70 -280 L70 -285 L70 -290 L70 -295 L65 -295 L60 -295 L60 -300 L65 -300 L70 -300 L70 -305 L70 -310 L70 -315 L65 -315 L60 -315 L55 -315 L55 -310 L55 -305 L50 -305 L45 -305 L40 -305 L40 -310 L40 -315 L35 -315 L30 -315 L25 -315 L25 -310 L25 -305 L25 -300 L30 -300 L35 -300 L35 -295 L35 -290 L35 -285 L30 -285 L25 -285 L20 -285 L20 -290 L20 -295 L15 -295 L15 -290 L15 -285 L10 -285 L5 -285 L-3.55271e-15 -285 L-3.24655e-15 -290 L-2.94039e-15 -295 L-2.63423e-15 -300 L5 -300 L10 -300 L10 -305 L10 -310 L10 -315 L5 -315 L-3.55271e-15 -315 L-3.24655e-15 -320 L-2.94039e-15 -325 L-2.63423e-15 -330 L5 -330 L10 -330 L15 -330 L15 -325 L15 -320 L20 -320 L25 -320 L30 -320 L30 -325 L30 -330 L30 -335 L25 -335 L20 -335 L20 -340 L25 -340 L30 -340 L30 -345 L30 -350 L30 -355 L25 -355 L20 -355 L15 -355 L15 -350 L15 -345 L10 -345 L5 -345 L-7.10543e-15 -345 L-6.79927e-15 -350 L-6.4931e-15 -355 L-6.18694e-15 -360 L5 -360 L10 -360 L10 -365 L10 -370 L10 -375 L5 -375 L-7.10543e-15 -375 L-6.79927e-15 -380 L-6.4931e-15 -385 L-6.18694e-15 -390 L5 -390 L10 -390 L15 -390 L15 -385 L15 -380 L20 -380 L20 -385 L20 -390 L25 -390 L30 -390 L35 -390 L35 -385 L35 -380 L35 -375 L30 -375 L25 -375 L25 -370 L25 -365 L25 -360 L30 -360 L35 -360 L40 -360 L45 -360 L50 -360 L50 -365 L50 -370 L50 -375 L45 -375 L40 -375 L40 -380 L40 -385 L40 -390 L45 -390 L50 -390 L55 -390 L55 -385 L55 -380 L60 -380 L60 -385 L60 -390 L65 -390 L70 -390 L75 -390 L75 -385 L75 -380 L75 -375 L70 -375 L65 -375 L65 -370 L65 -365 L65 -360 L70 -360 L75 -360 L75 -355 L75 -350 L75 -345 L70 -345 L65 -345 L60 -345 L60 -350 L60 -355 L55 -355 L50 -355 L45 -355 L45 -350 L45 -345 L45 -340 L50 -340 L55 -340 L55 -335 L50 -335 L45 -335 L45 -330 L45 -325 L45 -320 L50 -320 L55 -320 L60 -320 L60 -325 L60 -330 L65 -330 L70 -330 L75 -330 L75 -325 L75 -320 L80 -320 L85 -320 L90 -320 L90 -325 L90 -330 L90 -335 L85 -335 L80 -335 L80 -340 L80 -345 L80 -350 L85 -350 L90 -350 L95 -350 L95 -345 L95 -340 L100 -340 L100 -345 L100 -350 L105 -350 L110 -350 L115 -350 L115 -345 L115 -340 L115 -335 L110 -335 L105 -335 L105 -330 L105 -325 L105 -320 L110 -320 L115 -320 L120 -320 L120 -325 L120 -330 L125 -330 L130 -330 L135 -330 L135 -325 L135 -320 L140 -320 L145 -320 L150 -320 L150 -325 L150 -330 L150 -335 L145 -335 L140 -335 L140 -340 L145 -340 L150 -340 L150 -345 L150 -350 L150 -355 L145 -355 L140 -355 L135 -355 L135 -350 L135 -345 L130 -345 L125 -345 L120 -345 L120 -350 L120 -355 L120 -360 L120 -365 L120 -370 L125 -370 L130 -370 L135 -370 L135 -365 L135 -360 L140 -360 L145 -360 L150 -360 L150 -365 L150 -370 L150 -375 L145 -375 L140 -375 L140 -380 L145 -380 L150 -380 L150 -385 L150 -390 L150 -395 L145 -395 L140 -395 L135 -395 L135 -390 L135 -385 L130 -385 L125 -385 L120 -385 L120 -390 L120 -395 L115 -395 L110 -395 L105 -395 L105 -390 L105 -385 L105 -380 L110 -380 L115 -380 L115 -375 L115 -370 L115 -365 L110 -365 L105 -365 L100 -365 L100 -370 L100 -375 L95 -375 L95 -370 L95 -365 L90 -365 L85 -365 L80 -365 L80 -370 L80 -375 L80 -380 L85 -380 L90 -380 L90 -385 L90 -390 L90 -395 L85 -395 L80 -395 L80 -400 L85 -400 L90 -400 L90 -405 L90 -410 L90 -415 L85 -415 L80 -415 L80 -420 L80 -425 L80 -430 L85 -430 L90 -430 L95 -430 L95 -425 L95 -420 L100 -420 L100 -425 L100 -430 L105 -430 L110 -430 L115 -430 L115 -425 L115 -420 L115 -415 L110 -415 L105 -415 L105 -410 L105 -405 L105 -400 L110 -400 L115 -400 L120 -400 L120 -405 L120 -410 L125 -410 L130 -410 L135 -410 L135 -405 L135 -400 L140 -400 L145 -400 L150 -400 L150 -405 L150 -410 L150 -415 L145 -415 L140 -415 L140 -420 L145 -420 L150 -420 L150 -425 L150 -430 L150 -435 L145 -435 L140 -435 L135 -435 L135 -430 L135 -425 L130 -425 L125 -425 L120 -425 L120 -430 L120 -435 L120 -440 L120 -445 L120 -450 L125 -450 L130 -450 L135 -450 L135 -445 L135 -440 L140 -440 L145 -440 L150 -440 L150 -445 L150 -450 L150 -455 L145 -455 L140 -455 L140 -460 L145 -460 L150 -460 L150 -465 L150 -470 L150 -475 L145 -475 L140 -475 L135 -475 L135 -470 L135 -465 L130 -465 L125 -465 L120 -465 L120 -470 L120 -475 L115 -475 L110 -475 L105 -475 L105 -470 L105 -465 L105 -460 L110 -460 L115 -460 L115 -455 L115 -450 L115 -445 L110 -445 L105 -445 L100 -445 L100 -450 L100 -455 L95 -455 L95 -450 L95 -445 L90 -445 L85 -445 L80 -445 L80 -450 L80 -455 L80 -460 L85 -460 L90 -460 L90 -465 L90 -470 L90 -475 L85 -475 L80 -475 L75 -475 L75 -470 L75 -465 L70 -465 L65 -465 L60 -465 L60 -470 L60 -475 L55 -475 L50 -475 L45 -475 L45 -470 L45 -465 L45 -460 L50 -460 L55 -460 L55 -455 L50 -455 L45 -455 L45 -450 L45 -445 L45 -440 L50 -440 L55 -440 L60 -440 L60 -445 L60 -450 L65 -450 L70 -450 L75 -450 L75 -445 L75 -440 L75 -435 L70 -435 L65 -435 L65 -430 L65 -425 L65 -420 L70 -420 L75 -420 L75 -415 L75 -410 L75 -405 L70 -405 L65 -405 L60 -405 L60 -410 L60 -415 L55 -415 L55 -410 L55 -405 L50 -405 L45 -405 L40 -405 L40 -410 L40 -415 L40 -420 L45 -420 L50 -420 L50 -425 L50 -430 L50 -435 L45 -435 L40 -435 L35 -435 L30 -435 L25 -435 L25 -430 L25 -425 L25 -420 L30 -420 L35 -420 L35 -415 L35 -410 L35 -405 L30 -405 L25 -405 L20 -405 L20 -410 L20 -415 L15 -415 L15 -410 L15 -405 L10 -405 L5 -405 L-3.55271e-15 -405 L-3.24655e-15 -410 L-2.94039e-15 -415 L-2.63423e-15 -420 L5 -420 L10 -420 L10 -425 L10 -430 L10 -435 L5 -435 L-3.55271e-15 -435 L-3.24655e-15 -440 L-2.94039e-15 -445 L-2.63423e-15 -450 L5 -450 L10 -450 L15 -450 L15 -445 L15 -440 L20 -440 L25 -440 L30 -440 L30 -445 L30 -450 L30 -455 L25 -455 L20 -455 L20 -460 L25 -460 L30 -460 L30 -465 L30 -470 L30 -475 L25 -475 L20 -475 L15 -475 L15 -470 L15 -465 L10 -465 L5 -465 L-7.10543e-15 -465 L-6.79927e-15 -470 L-6.4931e-15 -475 L-6.18694e-15 -480 L5 -480 L10 -480 L10 -485 L10 -490 L10 -495 L5 -495 L-7.10543e-15 -495 L-6.79927e-15 -500 L-6.4931e-15 -505 L-6.18694e-15 -510 L5 -510 L10 -510 L15 -510 L15 -505 L15 -500 L20 -500 L20 -505 L20 -510 L25 -510 L30 -510 L35 -510 L35 -505 L35 -500 L35 -495 L30 -495 L25 -495 L25 -490 L25 -485 L25 -480 L30 -480 L35 -480 L40 -480 L40 -485 L40 -490 L45 -490 L50 -490 L55 -490 L55 -485 L55 -480 L60 -480 L65 -480 L70 -480 L70 -485 L70 -490 L70 -495 L65 -495 L60 -495 L60 -500 L65 -500 L70 -500 L70 -505 L70 -510 L70 -515 L65 -515 L60 -515 L55 -515 L55 -510 L55 -505 L50 -505 L45 -505 L40 -505 L40 -510 L40 -515 L40 -520 L40 -525 L40 -530 L45 -530 L50 -530 L55 -530 L55 -525 L55 -520 L60 -520 L65 -520 L70 -520 L70 -525 L70 -530 L70 -535 L65 -535 L60 -535 L60 -540 L65 -540 L70 -540 L70 -545 L70 -550 L70 -555 L65 -555 L60 -555 L55 -555 L55 -550 L55 -545 L50 -545 L45 -545 L40 -545 L40 -550 L40 -555 L35 -555 L30 -555 L25 -555 L25 -550 L25 -545 L25 -540 L30 -540 L35 -540 L35 -535 L35 -530 L35 -525 L30 -525 L25 -525 L20 -525 L20 -530 L20 -535 L15 -535 L15 -530 L15 -525 L10 -525 L5 -525 L-3.55271e-15 -525 L-3.24655e-15 -530 L-2.94039e-15 -535 L-2.63423e-15 -540 L5 -540 L10 -540 L10 -545 L10 -550 L10 -555 L5 -555 L-3.55271e-15 -555 L-3.24655e-15 -560 L-2.94039e-15 -565 L-2.63423e-15 -570 L5 -570 L10 -570 L15 -570 L15 -565 L15 -560 L20 -560 L25 -560 L30 -560 L30 -565 L30 -570 L30 -575 L25 -575 L20 -575 L20 -580 L25 -580 L30 -580 L30 -585 L30 -590 L30 -595 L25 -595 L20 -595 L15 -595 L15 -590 L15 -585 L10 -585 L5 -585 L-7.10543e-15 -585 L-6.79927e-15 -590 L-6.4931e-15 -595 L-6.18694e-15 -600 L5 -600 L10 -600 L10 -605 L10 -610 L10 -615 L5 -615 L-7.10543e-15 -615 L-6.79927e-15 -620 L-6.4931e-15 -625 L-6.18694e-15 -630 L5 -630 L10 -630 L15 -630 L15 -625 L15 -620 L20 -620 L20 -625 L20 -630 L25 -630 L30 -630 L35 -630 L35 -625 L35 -620 L35 -615 L30 -615 L25 -615 L25 -610 L25 -605 L25 -600 L30 -600 L35 -600 L40 -600 L45 -600 L50 -600 L50 -605 L50 -610 L50 -615 L45 -615 L40 -615 L40 -620 L40 -625 L40 -630 L45 -630 L50 -630 L55 -630 L55 -625 L55 -620 L60 -620 L60 -625 L60 -630 L65 -630 L70 -630 L75 -630 L75 -625 L75 -620 L75 -615 L70 -615 L65 -615 L65 -610 L65 -605 L65 -600 L70 -600 L75 -600 L75 -595 L75 -590 L75 -585 L70 -585 L65 -585 L60 -585 L60 -590 L60 -595 L55 -595 L50 -595 L45 -595 L45 -590 L45 -585 L45 -580 L50 -580 L55 -580 L55 -575 L50 -575 L45 -575 L45 -570 L45 -565 L45 -560 L50 -560 L55 -560 L60 -560 L60 -565 L60 -570 L65 -570 L70 -570 L75 -570 L75 -565 L75 -560 L80 -560 L80 -565 L80 -570 L85 -570 L90 -570 L95 -570 L95 -565 L95 -560 L100 -560 L105 -560 L110 -560 L110 -565 L110 -570 L110 -575 L105 -575 L100 -575 L100 -580 L105 -580 L110 -580 L110 -585 L110 -590 L110 -595 L105 -595 L100 -595 L95 -595 L95 -590 L95 -585 L90 -585 L85 -585 L80 -585 L80 -590 L80 -595 L80 -600 L85 -600 L90 -600 L90 -605 L90 -610 L90 -615 L85 -615 L80 -615 L80 -620 L80 -625 L80 -630 L85 -630 L90 -630 L95 -630 L95 -625 L95 -620 L100 -620 L100 -625 L100 -630 L105 -630 L110 -630 L115 -630 L115 -625 L115 -620 L115 -615 L110 -615 L105 -615 L105 -610 L105 -605 L105 -600 L110 -600 L115 -600 L120 -600 L125 -600 L130 -600 L130 -605 L130 -610 L130 -615 L125 -615 L120 -615 L120 -620 L120 -625 L120 -630 L125 -630 L130 -630 L135 -630 L135 -625 L135 -620 L140 -620 L140 -625 L140 -630 L145 -630 L150 -630 L155 -630 L155 -625 L155 -620 L155 -615 L150 -615 L145 -615 L145 -610 L145 -605 L145 -600 L150 -600 L155 -600 L155 -595 L155 -590 L155 -585 L150 -585 L145 -585 L140 -585 L140 -590 L140 -595 L135 -595 L130 -595 L125 -595 L125 -590 L125 -585 L125 -580 L130 -580 L135 -580 L135 -575 L130 -575 L125 -575 L125 -570 L125 -565 L125 -560 L130 -560 L135 -560 L140 -560 L140 -565 L140 -570 L145 -570 L150 -570 L155 -570 L155 -565 L155 -560 L155 -555 L150 -555 L145 -555 L145 -550 L145 -545 L145 -540 L150 -540 L155 -540 L155 -535 L155 -530 L155 -525 L150 -525 L145 -525 L140 -525 L140 -530 L140 -535 L135 -535 L135 -530 L135 -525 L130 -525 L125 -525 L120 -525 L120 -530 L120 -535 L120 -540 L125 -540 L130 -540 L130 -545 L130 -550 L130 -555 L125 -555 L120 -555 L115 -555 L115 -550 L115 -545 L110 -545 L105 -545 L100 -545 L100 -550 L100 -555 L95 -555 L90 -555 L85 -555 L85 -550 L85 -545 L85 -540 L90 -540 L95 -540 L95 -535 L90 -535 L85 -535 L85 -530 L85 -525 L85 -520 L90 -520 L95 -520 L100 -520 L100 -525 L100 -530 L105 -530 L110 -530 L115 -530 L115 -525 L115 -520 L115 -515 L115 -510 L115 -505 L110 -505 L105 -505 L100 -505 L100 -510 L100 -515 L95 -515 L90 -515 L85 -515 L85 -510 L85 -505 L85 -500 L90 -500 L95 -500 L95 -495 L90 -495 L85 -495 L85 -490 L85 -485 L85 -480 L90 -480 L95 -480 L100 -480 L100 -485 L100 -490 L105 -490 L110 -490 L115 -490 L115 -485 L115 -480 L120 -480 L125 -480 L130 -480 L130 -485 L130 -490 L130 -495 L125 -495 L120 -495 L120 -500 L120 -505 L120 -510 L125 -510 L130 -510 L135 -510 L135 -505 L135 -500 L140 -500 L140 -505 L140 -510 L145 -510 L150 -510 L155 -510 L155 -505 L155 -500 L155 -495 L150 -495 L145 -495 L145 -490 L145 -485 L145 -480 L150 -480 L155 -480 L160 -480 L165 -480 L170 -480 L170 -485 L170 -490 L170 -495 L165 -495 L160 -495 L160 -500 L160 -505 L160 -510 L165 -510 L170 -510 L175 -510 L175 -505 L175 -500 L180 -500 L180 -505 L180 -510 L185 -510 L190 -510 L195 -510 L195 -505 L195 -500 L195 -495 L190 -495 L185 -495 L185 -490 L185 -485 L185 -480 L190 -480 L195 -480 L200 -480 L200 -485 L200 -490 L205 -490 L210 -490 L215 -490 L215 -485 L215 -480 L220 -480 L225 -480 L230 -480 L230 -485 L230 -490 L230 -495 L225 -495 L220 -495 L220 -500 L225 -500 L230 -500 L230 -505 L230 -510 L230 -515 L225 -515 L220 -515 L215 -515 L215 -510 L215 -505 L210 -505 L205 -505 L200 -505 L200 -510 L200 -515 L200 -520 L200 -525 L200 -530 L205 -530 L210 -530 L215 -530 L215 -525 L215 -520 L220 -520 L225 -520 L230 -520 L230 -525 L230 -530 L230 -535 L225 -535 L220 -535 L220 -540 L225 -540 L230 -540 L230 -545 L230 -550 L230 -555 L225 -555 L220 -555 L215 -555 L215 -550 L215 -545 L210 -545 L205 -545 L200 -545 L200 -550 L200 -555 L195 -555 L190 -555 L185 -555 L185 -550 L185 -545 L185 -540 L190 -540 L195 -540 L195 -535 L195 -530 L195 -525 L190 -525 L185 -525 L180 -525 L180 -530 L180 -535 L175 -535 L175 -530 L175 -525 L170 -525 L165 -525 L160 -525 L160 -530 L160 -535 L160 -540 L165 -540 L170 -540 L170 -545 L170 -550 L170 -555 L165 -555 L160 -555 L160 -560 L160 -565 L160 -570 L165 -570 L170 -570 L175 -570 L175 -565 L175 -560 L180 -560 L185 -560 L190 -560 L190 -565 L190 -570 L190 -575 L185 -575 L180 -575 L180 -580 L185 -580 L190 -580 L190 -585 L190 -590 L190 -595 L185 -595 L180 -595 L175 -595 L175 -590 L175 -585 L170 -585 L165 -585 L160 -585 L160 -590 L160 -595 L160 -600 L165 -600 L170 -600 L170 -605 L170 -610 L170 -615 L165 -615 L160 -615 L160 -620 L160 -625 L160 -630 L165 -630 L170 -630 L175 -630 L175 -625 L175 -620 L180 -620 L180 -625 L180 -630 L185 -630 L190 -630 L195 -630 L195 -625 L195 -620 L195 -615 L190 -615 L185 -615 L185 -610 L185 -605 L185 -600 L190 -600 L195 -600 L200 -600 L205 -600 L210 -600 L210 -605 L210 -610 L210 -615 L205 -615 L200 -615 L200 -620 L200 -625 L200 -630 L205 -630 L210 -630 L215 -630 L215 -625 L215 -620 L220 -620 L220 -625 L220 -630 L225 -630 L230 -630 L235 -630 L235 -625 L235 -620 L235 -615 L230 -615 L225 -615 L225 -610 L225 -605 L225 -600 L230 -600 L235 -600 L235 -595 L235 -590 L235 -585 L230 -585 L225 -585 L220 -585 L220 -590 L220 -595 L215 -595 L210 -595 L205 -595 L205 -590 L205 -585 L205 -580 L210 -580 L215 -580 L215 -575 L210 -575 L205 -575 L205 -570 L205 -565 L205 -560 L210 -560 L215 -560 L220 -560 L220 -565 L220 -570 L225 -570 L230 -570 L235 -570 L235 -565 L235 -560 L240 -560 L240 -565 L240 -570 L245 -570 L250 -570 L255 -570 L255 -565 L255 -560 L260 -560 L265 -560 L270 -560 L270 -565 L270 -570 L270 -575 L265 -575 L260 -575 L260 -580 L265 -580 L270 -580 L270 -585 L270 -590 L270 -595 L265 -595 L260 -595 L255 -595 L255 -590 L255 -585 L250 -585 L245 -585 L240 -585 L240 -590 L240 -595 L240 -600 L245 -600 L250 -600 L250 -605 L250 -610 L250 -615 L245 -615 L240 -615 L240 -620 L240 -625 L240 -630 L245 -630 L250 -630 L255 -630 L255 -625 L255 -620 L260 -620 L260 -625 L260 -630 L265 -630 L270 -630 L275 -630 L275 -625 L275 -620 L275 -615 L270 -615 L265 -615 L265 -610 L265 -605 L265 -600 L270 -600 L275 -600 L280 -600 L285 -600 L290 -600 L290 -605 L290 -610 L290 -615 L285 -615 L280 -615 L280 -620 L280 -625 L280 -630 L285 -630 L290 -630 L295 -630 L295 -625 L295 -620 L300 -620 L300 -625 L300 -630 L305 -630 L310 -630 L315 -630 L315 -625 L315 -620 L315 -615 L310 -615 L305 -615 L305 -610 L305 -605 L305 -600 L310 -600 L315 -600 L315 -595 L315 -590 L315 -585 L310 -585 L305 -585 L300 -585 L300 -590 L300 -595 L295 -595 L290 -595 L285 -595 L285 -590 L285 -585 L285 -580 L290 -580 L295 -580 L295 -575 L290 -575 L285 -575 L285 -570 L285 -565 L285 -560 L290 -560 L295 -560 L300 -560 L300 -565 L300 -570 L305 -570 L310 -570 L315 -570 L315 -565 L315 -560 L315 -555 L310 -555 L305 -555 L305 -550 L305 -545 L305 -540 L310 -540 L315 -540 L315 -535 L315 -530 L315 -525 L310 -525 L305 -525 L300 -525 L300 -530 L300 -535 L295 -535 L295 -530 L295 -525 L290 -525 L285 -525 L280 -525 L280 -530 L280 -535 L280 -540 L285 -540 L290 -540 L290 -545 L290 -550 L290 -555 L285 -555 L280 -555 L275 -555 L275 -550 L275 -545 L270 -545 L265 -545 L260 -545 L260 -550 L260 -555 L255 -555 L250 -555 L245 -555 L245 -550 L245 -545 L245 -540 L250 -540 L255 -540 L255 -535 L250 -535 L245 -535 L245 -530 L245 -525 L245 -520 L250 -520 L255 -520 L260 -520 L260 -525 L260 -530 L265 -530 L270 -530 L275 -530 L275 -525 L275 -520 L275 -515 L275 -510 L275 -505 L270 -505 L265 -505 L260 -505 L260 -510 L260 -515 L255 -515 L250 -515 L245 -515 L245 -510 L245 -505 L245 -500 L250 -500 L255 -500 L255 -495 L250 -495 L245 -495 L245 -490 L245 -485 L245 -480 L250 -480 L255 -480 L260 -480 L260 -485 L260 -490 L265 -490 L270 -490 L275 -490 L275 -485 L275 -480 L280 -480 L285 -480 L290 -480 L290 -485 L290 -490 L290 -495 L285 -495 L280 -495 L280 -500 L280 -505 L280 -510 L285 -510 L290 -510 L295 -510 L295 -505 L295 -500 L300 -500 L300 -505 L300 -510 L305 -510 L310 -510 L315 -510 L315 -505 L315 -500 L315 -495 L310 -495 L305 -495 L305 -490 L305 -485 L305 -480 L310 -480 L315 -480 L315 -475 L315 -470 L315 -465 L310 -465 L305 -465 L300 -465 L300 -470 L300 -475 L295 -475 L290 -475 L285 -475 L285 -470 L285 -465 L285 -460 L290 -460 L295 -460 L295 -455 L290 -455 L285 -455 L285 -450 L285 -445 L285 -440 L290 -440 L295 -440 L300 -440 L300 -445 L300 -450 L305 -450 L310 -450 L315 -450 L315 -445 L315 -440 L315 -435 L310 -435 L305 -435 L305 -430 L305 -425 L305 -420 L310 -420 L315 -420 L315 -415 L315 -410 L315 -405 L310 -405 L305 -405 L300 -405 L300 -410 L300 -415 L295 -415 L295 -410 L295 -405 L290 -405 L285 -405 L280 -405 L280 -410 L280 -415 L280 -420 L285 -420 L290 -420 L290 -425 L290 -430 L290 -435 L285 -435 L280 -435 L275 -435 L270 -435 L265 -435 L265 -430 L265 -425 L265 -420 L270 -420 L275 -420 L275 -415 L275 -410 L275 -405 L270 -405 L265 -405 L260 -405 L260 -410 L260 -415 L255 -415 L255 -410 L255 -405 L250 -405 L245 -405 L240 -405 L240 -410 L240 -415 L240 -420 L245 -420 L250 -420 L250 -425 L250 -430 L250 -435 L245 -435 L240 -435 L240 -440 L240 -445 L240 -450 L245 -450 L250 -450 L255 -450 L255 -445 L255 -440 L260 -440 L265 -440 L270 -440 L270 -445 L270 -450 L270 -455 L265 -455 L260 -455 L260 -460 L265 -460 L270 -460 L270 -465 L270 -470 L270 -475 L265 -475 L260 -475 L255 -475 L255 -470 L255 -465 L250 -465 L245 -465 L240 -465 L240 -470 L240 -475 L235 -475 L230 -475 L225 -475 L225 -470 L225 -465 L225 -460 L230 -460 L235 -460 L235 -455 L235 -450 L235 -445 L230 -445 L225 -445 L220 -445 L220 -450 L220 -455 L215 -455 L215 -450 L215 -445 L210 -445 L205 -445 L200 -445 L200 -450 L200 -455 L200 -460 L205 -460 L210 -460 L210 -465 L210 -470 L210 -475 L205 -475 L200 -475 L195 -475 L195 -470 L195 -465 L190 -465 L185 -465 L180 -465 L180 -470 L180 -475 L175 -475 L170 -475 L165 -475 L165 -470 L165 -465 L165 -460 L170 -460 L175 -460 L175 -455 L170 -455 L165 -455 L165 -450 L165 -445 L165 -440 L170 -440 L175 -440 L180 -440 L180 -445 L180 -450 L185 -450 L190 -450 L195 -450 L195 -445 L195 -440 L195 -435 L195 -430 L195 -425 L190 -425 L185 -425 L180 -425 L180 -430 L180 -435 L175 -435 L170 -435 L165 -435 L165 -430 L165 -425 L165 -420 L170 -420 L175 -420 L175 -415 L170 -415 L165 -415 L165 -410 L165 -405 L165 -400 L170 -400 L175 -400 L180 -400 L180 -405 L180 -410 L185 -410 L190 -410 L195 -410 L195 -405 L195 -400 L200 -400 L205 -400 L210 -400 L210 -405 L210 -410 L210 -415 L205 -415 L200 -415 L200 -420 L200 -425 L200 -430 L205 -430 L210 -430 L215 -430 L215 -425 L215 -420 L220 -420 L220 -425 L220 -430 L225 -430 L230 -430 L235 -430 L235 -425 L235 -420 L235 -415 L230 -415 L225 -415 L225 -410 L225 -405 L225 -400 L230 -400 L235 -400 L235 -395 L230 -395 L225 -395 L225 -390 L225 -385 L225 -380 L230 -380 L235 -380 L235 -375 L235 -370 L235 -365 L230 -365 L225 -365 L220 -365 L220 -370 L220 -375 L215 -375 L215 -370 L215 -365 L210 -365 L205 -365 L200 -365 L200 -370 L200 -375 L200 -380 L205 -380 L210 -380 L210 -385 L210 -390 L210 -395 L205 -395 L200 -395 L195 -395 L195 -390 L195 -385 L190 -385 L185 -385 L180 -385 L180 -390 L180 -395 L175 -395 L170 -395 L165 -395 L165 -390 L165 -385 L165 -380 L170 -380 L175 -380 L175 -375 L170 -375 L165 -375 L165 -370 L165 -365 L165 -360 L170 -360 L175 -360 L180 -360 L180 -365 L180 -370 L185 -370 L190 -370 L195 -370 L195 -365 L195 -360 L195 -355 L195 -350 L195 -345 L190 -345 L185 -345 L180 -345 L180 -350 L180 -355 L175 -355 L170 -355 L165 -355 L165 -350 L165 -345 L165 -340 L170 -340 L175 -340 L175 -335 L170 -335 L165 -335 L165 -330 L165 -325 L165 -320 L170 -320 L175 -320 L180 -320 L180 -325 L180 -330 L185 -330 L190 -330 L195 -330 L195 -325 L195 -320 L200 -320 L205 -320 L210 -320 L210 -325 L210 -330 L210 -335 L205 -335 L200 -335 L200 -340 L200 -345 L200 -350 L205 -350 L210 -350 L215 -350 L215 -345 L215 -340 L220 -340 L220 -345 L220 -350 L225 -350 L230 -350 L235 -350 L235 -345 L235 -340 L235 -335 L230 -335 L225 -335 L225 -330 L225 -325 L225 -320 L230 -320 L235 -320 L240 -320 L240 -325 L240 -330 L245 -330 L250 -330 L255 -330 L255 -325 L255 -320 L260 -320 L265 -320 L270 -320 L270 -325 L270 -330 L270 -335 L265 -335 L260 -335 L260 -340 L265 -340 L270 -340 L270 -345 L270 -350 L270 -355 L265 -355 L260 -355 L255 -355 L255 -350 L255 -345 L250 -345 L245 -345 L240 -345 L240 -350 L240 -355 L240 -360 L245 -360 L250 -360 L250 -365 L250 -370 L250 -375 L245 -375 L240 -375 L240 -380 L240 -385 L240 -390 L245 -390 L250 -390 L255 -390 L255 -385 L255 -380 L260 -380 L260 -385 L260 -390 L265 -390 L270 -390 L275 -390 L275 -385 L275 -380 L275 -375 L270 -375 L265 -375 L265 -370 L265 -365 L265 -360 L270 -360 L275 -360 L280 -360 L285 -360 L290 -360 L290 -365 L290 -370 L290 -375 L285 -375 L280 -375 L280 -380 L280 -385 L280 -390 L285 -390 L290 -390 L295 -390 L295 -385 L295 -380 L300 -380 L300 -385 L300 -390 L305 -390 L310 -390 L315 -390 L315 -385 L315 -380 L315 -375 L310 -375 L305 -375 L305 -370 L305 -365 L305 -360 L310 -360 L315 -360 L315 -355 L315 -350 L315 -345 L310 -345 L305 -345 L300 -345 L300 -350 L300 -355 L295 -355 L290 -355 L285 -355 L285 -350 L285 -345 L285 -340 L290 -340 L295 -340 L295 -335 L290 -335 L285 -335 L285 -330 L285 -325 L285 -320 L290 -320 L295 -320 L300 -320 L300 -325 L300 -330 L305 -330 L310 -330 L315 -330 L315 -325 L315 -320 L320 -320 L320 -325 L320 -330 L325 -330 L330 -330 L335 -330 L335 -325 L335 -320 L340 -320 L345 -320 L350 -320 L350 -325 L350 -330 L350 -335 L345 -335 L340 -335 L340 -340 L345 -340 L350 -340 L350 -345 L350 -350 L350 -355 L345 -355 L340 -355 L335 -355 L335 -350 L335 -345 L330 -345 L325 -345 L320 -345 L320 -350 L320 -355 L320 -360 L325 -360 L330 -360 L330 -365 L330 -370 L330 -375 L325 -375 L320 -375 L320 -380 L320 -385 L320 -390 L325 -390 L330 -390 L335 -390 L335 -385 L335 -380 L340 -380 L340 -385 L340 -390 L345 -390 L350 -390 L355 -390 L355 -385 L355 -380 L355 -375 L350 -375 L345 -375 L345 -370 L345 -365 L345 -360 L350 -360 L355 -360 L360 -360 L365 -360 L370 -360 L370 -365 L370 -370 L370 -375 L365 -375 L360 -375 L360 -380 L360 -385 L360 -390 L365 -390 L370 -390 L375 -390 L375 -385 L375 -380 L380 -380 L380 -385 L380 -390 L385 -390 L390 -390 L395 -390 L395 -385 L395 -380 L395 -375 L390 -375 L385 -375 L385 -370 L385 -365 L385 -360 L390 -360 L395 -360 L395 -355 L395 -350 L395 -345 L390 -345 L385 -345 L380 -345 L380 -350 L380 -355 L375 -355 L370 -355 L365 -355 L365 -350 L365 -345 L365 -340 L370 -340 L375 -340 L375 -335 L370 -335 L365 -335 L365 -330 L365 -325 L365 -320 L370 -320 L375 -320 L380 -320 L380 -325 L380 -330 L385 -330 L390 -330 L395 -330 L395 -325 L395 -320 L400 -320 L405 -320 L410 -320 L410 -325 L410 -330 L410 -335 L405 -335 L400 -335 L400 -340 L400 -345 L400 -350 L405 -350 L410 -350 L415 -350 L415 -345 L415 -340 L420 -340 L420 -345 L420 -350 L425 -350 L430 -350 L435 -350 L435 -345 L435 -340 L435 -335 L430 -335 L425 -335 L425 -330 L425 -325 L425 -320 L430 -320 L435 -320 L440 -320 L440 -325 L440 -330 L445 -330 L450 -330 L455 -330 L455 -325 L455 -320 L460 -320 L465 -320 L470 -320 L470 -325 L470 -330 L470 -335 L465 -335 L460 -335 L460 -340 L465 -340 L470 -340 L470 -345 L470 -350 L470 -355 L465 -355 L460 -355 L455 -355 L455 -350 L455 -345 L450 -345 L445 -345 L440 -345 L440 -350 L440 -355 L440 -360 L440 -365 L440 -370 L445 -370 L450 -370 L455 -370 L455 -365 L455 -360 L460 -360 L465 -360 L470 -360 L470 -365 L470 -370 L470 -375 L465 -375 L460 -375 L460 -380 L465 -380 L470 -380 L470 -385 L470 -390 L470 -395 L465 -395 L460 -395 L455 -395 L455 -390 L455 -385 L450 -385 L445 -385 L440 -385 L440 -390 L440 -395 L435 -395 L430 -395 L425 -395 L425 -390 L425 -385 L425 -380 L430 -380 L435 -380 L435 -375 L435 -370 L435 -365 L430 -365 L425 -365 L420 -365 L420 -370 L420 -375 L415 -375 L415 -370 L415 -365 L410 -365 L405 -365 L400 -365 L400 -370 L400 -375 L400 -380 L405 -380 L410 -380 L410 -385 L410 -390 L410 -395 L405 -395 L400 -395 L400 -400 L405 -400 L410 -400 L410 -405 L410 -410 L410 -415 L405 -415 L400 -415 L400 -420 L400 -425 L400 -430 L405 -430 L410 -430 L415 -430 L415 -425 L415 -420 L420 -420 L420 -425 L420 -430 L425 -430 L430 -430 L435 -430 L435 -425 L435 -420 L435 -415 L430 -415 L425 -415 L425 -410 L425 -405 L425 -400 L430 -400 L435 -400 L440 -400 L440 -405 L440 -410 L445 -410 L450 -410 L455 -410 L455 -405 L455 -400 L460 -400 L465 -400 L470 -400 L470 -405 L470 -410 L470 -415 L465 -415 L460 -415 L460 -420 L465 -420 L470 -420 L470 -425 L470 -430 L470 -435 L465 -435 L460 -435 L455 -435 L455 -430 L455 -425 L450 -425 L445 -425 L440 -425 L440 -430 L440 -435 L440 -440 L440 -445 L440 -450 L445 -450 L450 -450 L455 -450 L455 -445 L455 -440 L460 -440 L465 -440 L470 -440 L470 -445 L470 -450 L470 -455 L465 -455 L460 -455 L460 -460 L465 -460 L470 -460 L470 -465 L470 -470 L470 -475 L465 -475 L460 -475 L455 -475 L455 -470 L455 -465 L450 -465 L445 -465 L440 -465 L440 -470 L440 -475 L435 -475 L430 -475 L425 -475 L425 -470 L425 -465 L425 -460 L430 -460 L435 -460 L435 -455 L435 -450 L435 -445 L430 -445 L425 -445 L420 -445 L420 -450 L420 -455 L415 -455 L415 -450 L415 -445 L410 -445 L405 -445 L400 -445 L400 -450 L400 -455 L400 -460 L405 -460 L410 -460 L410 -465 L410 -470 L410 -475 L405 -475 L400 -475 L395 -475 L395 -470 L395 -465 L390 -465 L385 -465 L380 -465 L380 -470 L380 -475 L375 -475 L370 -475 L365 -475 L365 -470 L365 -465 L365 -460 L370 -460 L375 -460 L375 -455 L370 -455 L365 -455 L365 -450 L365 -445 L365 -440 L370 -440 L375 -440 L380 -440 L380 -445 L380 -450 L385 -450 L390 -450 L395 -450 L395 -445 L395 -440 L395 -435 L390 -435 L385 -435 L385 -430 L385 -425 L385 -420 L390 -420 L395 -420 L395 -415 L395 -410 L395 -405 L390 -405 L385 -405 L380 -405 L380 -410 L380 -415 L375 -415 L375 -410 L375 -405 L370 -405 L365 -405 L360 -405 L360 -410 L360 -415 L360 -420 L365 -420 L370 -420 L370 -425 L370 -430 L370 -435 L365 -435 L360 -435 L355 -435 L350 -435 L345 -435 L345 -430 L345 -425 L345 -420 L350 -420 L355 -420 L355 -415 L355 -410 L355 -405 L350 -405 L345 -405 L340 -405 L340 -410 L340 -415 L335 -415 L335 -410 L335 -405 L330 -405 L325 -405 L320 -405 L320 -410 L320 -415 L320 -420 L325 -420 L330 -420 L330 -425 L330 -430 L330 -435 L325 -435 L320 -435 L320 -440 L320 -445 L320 -450 L325 -450 L330 -450 L335 -450 L335 -445 L335 -440 L340 -440 L345 -440 L350 -440 L350 -445 L350 -450 L350 -455 L345 -455 L340 -455 L340 -460 L345 -460 L350 -460 L350 -465 L350 -470 L350 -475 L345 -475 L340 -475 L335 -475 L335 -470 L335 -465 L330 -465 L325 -465 L320 -465 L320 -470 L320 -475 L320 -480 L325 -480 L330 -480 L330 -485 L330 -490 L330 -495 L325 -495 L320 -495 L320 -500 L320 -505 L320 -510 L325 -510 L330 -510 L335 -510 L335 -505 L335 -500 L340 -500 L340 -505 L340 -510 L345 -510 L350 -510 L355 -510 L355 -505 L355 -500 L355 -495 L350 -495 L345 -495 L345 -490 L345 -485 L345 -480 L350 -480 L355 -480 L360 -480 L360 -485 L360 -490 L365 -490 L370 -490 L375 -490 L375 -485 L375 -480 L380 -480 L385 -480 L390 -480 L390 -485 L390 -490 L390 -495 L385 -495 L380 -495 L380 -500 L385 -500 L390 -500 L390 -505 L390 -510 L390 -515 L385 -515 L380 -515 L375 -515 L375 -510 L375 -505 L370 -505 L365 -505 L360 -505 L360 -510 L360 -515 L360 -520 L360 -525 L360 -530 L365 -530 L370 -530 L375 -530 L375 -525 L375 -520 L380 -520 L385 -520 L390 -520 L390 -525 L390 -530 L390 -535 L385 -535 L380 -535 L380 -540 L385 -540 L390 -540 L390 -545 L390 -550 L390 -555 L385 -555 L380 -555 L375 -555 L375 -550 L375 -545 L370 -545 L365 -545 L360 -545 L360 -550 L360 -555 L355 -555 L350 -555 L345 -555 L345 -550 L345 -545 L345 -540 L350 -540 L355 -540 L355 -535 L355 -530 L355 -525 L350 -525 L345 -525 L340 -525 L340 -530 L340 -535 L335 -535 L335 -530 L335 -525 L330 -525 L325 -525 L320 -525 L320 -530 L320 -535 L320 -540 L325 -540 L330 -540 L330 -545 L330 -550 L330 -555 L325 -555 L320 -555 L320 -560 L320 -565 L320 -570 L325 -570 L330 -570 L335 -570 L335 -565 L335 -560 L340 -560 L345 -560 L350 -560 L350 -565 L350 -570 L350 -575 L345 -575 L340 -575 L340 -580 L345 -580 L350 -580 L350 -585 L350 -590 L350 -595 L345 -595 L340 -595 L335 -595 L335 -590 L335 -585 L330 -585 L325 -585 L320 -585 L320 -590 L320 -595 L320 -600 L325 -600 L330 -600 L330 -605 L330 -610 L330 -615 L325 -615 L320 -615 L320 -620 L320 -625 L320 -630 L325 -630 L330 -630 L335 -630 L335 -625 L335 -620 L340 -620 L340 -625 L340 -630 L345 -630 L350 -630 L355 -630 L355 -625 L355 -620 L355 -615 L350 -615 L345 -615 L345 -610 L345 -605 L345 -600 L350 -600 L355 -600 L360 -600 L365 -600 L370 -600 L370 -605 L370 -610 L370 -615 L365 -615 L360 -615 L360 -620 L360 -625 L360 -630 L365 -630 L370 -630 L375 -630 L375 -625 L375 -620 L380 -620 L380 -625 L380 -630 L385 -630 L390 -630 L395 -630 L395 -625 L395 -620 L395 -615 L390 -615 L385 -615 L385 -610 L385 -605 L385 -600 L390 -600 L395 -600 L395 -595 L395 -590 L395 -585 L390 -585 L385 -585 L380 -585 L380 -590 L380 -595 L375 -595 L370 -595 L365 -595 L365 -590 L365 -585 L365 -580 L370 -580 L375 -580 L375 -575 L370 -575 L365 -575 L365 -570 L365 -565 L365 -560 L370 -560 L375 -560 L380 -560 L380 -565 L380 -570 L385 -570 L390 -570 L395 -570 L395 -565 L395 -560 L400 -560 L400 -565 L400 -570 L405 -570 L410 -570 L415 -570 L415 -565 L415 -560 L420 -560 L425 -560 L430 -560 L430 -565 L430 -570 L430 -575 L425 -575 L420 -575 L420 -580 L425 -580 L430 -580 L430 -585 L430 -590 L430 -595 L425 -595 L420 -595 L415 -595 L415 -590 L415 -585 L410 -585 L405 -585 L400 -585 L400 -590 L400 -595 L400 -600 L405 -600 L410 -600 L410 -605 L410 -610 L410 -615 L405 -615 L400 -615 L400 -620 L400 -625 L400 -630 L405 -630 L410 -630 L415 -630 L415 -625 L415 -620 L420 -620 L420 -625 L420 -630 L425 -630 L430 -630 L435 -630 L435 -625 L435 -620 L435 -615 L430 -615 L425 -615 L425 -610 L425 -605 L425 -600 L430 -600 L435 -600 L440 -600 L445 -600 L450 -600 L450 -605 L450 -610 L450 -615 L445 -615 L440 -615 L440 -620 L440 -625 L440 -630 L445 -630 L450 -630 L455 -630 L455 -625 L455 -620 L460 -620 L460 -625 L460 -630 L465 -630 L470 -630 L475 -630 L475 -625 L475 -620 L475 -615 L470 -615 L465 -615 L465 -610 L465 -605 L465 -600 L470 -600 L475 -600 L475 -595 L475 -590 L475 -585 L470 -585 L465 -585 L460 -585 L460 -590 L460 -595 L455 -595 L450 -595 L445 -595 L445 -590 L445 -585 L445 -580 L450 -580 L455 -580 L455 -575 L450 -575 L445 -575 L445 -570 L445 -565 L445 -560 L450 -560 L455 -560 L460 -560 L460 -565 L460 -570 L465 -570 L470 -570 L475 -570 L475 -565 L475 -560 L475 -555 L470 -555 L465 -555 L465 -550 L465 -545 L465 -540 L470 -540 L475 -540 L475 -535 L475 -530 L475 -525 L470 -525 L465 -525 L460 -525 L460 -530 L460 -535 L455 -535 L455 -530 L455 -525 L450 -525 L445 -525 L440 -525 L440 -530 L440 -535 L440 -540 L445 -540 L450 -540 L450 -545 L450 -550 L450 -555 L445 -555 L440 -555 L435 -555 L435 -550 L435 -545 L430 -545 L425 -545 L420 -545 L420 -550 L420 -555 L415 -555 L410 -555 L405 -555 L405 -550 L405 -545 L405 -540 L410 -540 L415 -540 L415 -535 L410 -535 L405 -535 L405 -530 L405 -525 L405 -520 L410 -520 L415 -520 L420 -520 L420 -525 L420 -530 L425 -530 L430 -530 L435 -530 L435 -525 L435 -520 L435 -515 L435 -510 L435 -505 L430 -505 L425 -505 L420 -505 L420 -510 L420 -515 L415 -515 L410 -515 L405 -515 L405 -510 L405 -505 L405 -500 L410 -500 L415 -500 L415 -495 L410 -495 L405 -495 L405 -490 L405 -485 L405 -480 L410 -480 L415 -480 L420 -480 L420 -485 L420 -490 L425 -490 L430 -490 L435 -490 L435 -485 L435 -480 L440 -480 L445 -480 L450 -480 L450 -485 L450 -490 L450 -495 L445 -495 L440 -495 L440 -500 L440 -505 L440 -510 L445 -510 L450 -510 L455 -510 L455 -505 L455 -500 L460 -500 L460 -505 L460 -510 L465 -510 L470 -510 L475 -510 L475 -505 L475 -500 L475 -495 L470 -495 L465 -495 L465 -490 L465 -485 L465 -480 L470 -480 L475 -480 L480 -480 L485 -480 L490 -480 L490 -485 L490 -490 L490 -495 L485 -495 L480 -495 L480 -500 L480 -505 L480 -510 L485 -510 L490 -510 L495 -510 L495 -505 L495 -500 L500 -500 L500 -505 L500 -510 L505 -510 L510 -510 L515 -510 L515 -505 L515 -500 L515 -495 L510 -495 L505 -495 L505 -490 L505 -485 L505 -480 L510 -480 L515 -480 L520 -480 L520 -485 L520 -490 L525 -490 L530 -490 L535 -490 L535 -485 L535 -480 L540 -480 L545 -480 L550 -480 L550 -485 L550 -490 L550 -495 L545 -495 L540 -495 L540 -500 L545 -500 L550 -500 L550 -505 L550 -510 L550 -515 L545 -515 L540 -515 L535 -515 L535 -510 L535 -505 L530 -505 L525 -505 L520 -505 L520 -510 L520 -515 L520 -520 L520 -525 L520 -530 L525 -530 L530 -530 L535 -530 L535 -525 L535 -520 L540 -520 L545 -520 L550 -520 L550 -525 L550 -530 L550 -535 L545 -535 L540 -535 L540 -540 L545 -540 L550 -540 L550 -545 L550 -550 L550 -555 L545 -555 L540 -555 L535 -555 L535 -550 L535 -545 L530 -545 L525 -545 L520 -545 L520 -550 L520 -555 L515 -555 L510 -555 L505 -555 L505 -550 L505 -545 L505 -540 L510 -540 L515 -540 L515 -535 L515 -530 L515 -525 L510 -525 L505 -525 L500 -525 L500 -530 L500 -535 L495 -535 L495 -530 L495 -525 L490 -525 L485 -525 L480 -525 L480 -530 L480 -535 L480 -540 L485 -540 L490 -540 L490 -545 L490 -550 L490 -555 L485 -555 L480 -555 L480 -560 L480 -565 L480 -570 L485 -570 L490 -570 L495 -570 L495 -565 L495 -560 L500 -560 L505 -560 L510 -560 L510 -565 L510 -570 L510 -575 L505 -575 L500 -575 L500 -580 L505 -580 L510 -580 L510 -585 L510 -590 L510 -595 L505 -595 L500 -595 L495 -595 L495 -590 L495 -585 L490 -585 L485 -585 L480 -585 L480 -590 L480 -595 L480 -600 L485 -600 L490 -600 L490 -605 L490 -610 L490 -615 L485 -615 L480 -615 L480 -620 L480 -625 L480 -630 L485 -630 L490 -630 L495 -630 L495 -625 L495 -620 L500 -620 L500 -625 L500 -630 L505 -630 L510 -630 L515 -630 L515 -625 L515 -620 L515 -615 L510 -615 L505 -615 L505 -610 L505 -605 L505 -600 L510 -600 L515 -600 L520 -600 L525 -600 L530 -600 L530 -605 L530 -610 L530 -615 L525 -615 L520 -615 L520 -620 L520 -625 L520 -630 L525 -630 L530 -630 L535 -630 L535 -625 L535 -620 L540 -620 L540 -625 L540 -630 L545 -630 L550 -630 L555 -630 L555 -625 L555 -620 L555 -615 L550 -615 L545 -615 L545 -610 L545 -605 L545 -600 L550 -600 L555 -600 L555 -595 L555 -590 L555 -585 L550 -585 L545 -585 L540 -585 L540 -590 L540 -595 L535 -595 L530 -595 L525 -595 L525 -590 L525 -585 L525 -580 L530 -580 L535 -580 L535 -575 L530 -575 L525 -575 L525 -570 L525 -565 L525 -560 L530 -560 L535 -560 L540 -560 L540 -565 L540 -570 L545 -570 L550 -570 L555 -570 L555 -565 L555 -560 L560 -560 L560 -565 L560 -570 L565 -570 L570 -570 L575 -570 L575 -565 L575 -560 L580 -560 L585 -560 L590 -560 L590 -565 L590 -570 L590 -575 L585 -575 L580 -575 L580 -580 L585 -580 L590 -580 L590 -585 L590 -590 L590 -595 L585 -595 L580 -595 L575 -595 L575 -590 L575 -585 L570 -585 L565 -585 L560 -585 L560 -590 L560 -595 L560 -600 L565 -600 L570 -600 L570 -605 L570 -610 L570 -615 L565 -615 L560 -615 L560 -620 L560 -625 L560 -630 L565 -630 L570 -630 L575 -630 L575 -625 L575 -620 L580 -620 L580 -625 L580 -630 L585 -630 L590 -630 L595 -630 L595 -625 L595 -620 L595 -615 L590 -615 L585 -615 L585 -610 L585 -605 L585 -600 L590 -600 L595 -600 L600 -600 L605 -600 L610 -600 L610 -605 L610 -610 L610 -615 L605 -615 L600 -615 L600 -620 L600 -625 L600 -630 L605 -630 L610 -630 L615 -630 L615 -625 L615 -620 L620 -620 L620 -625 L620 -630 L625 -630 L630 -630 L635 -630 L635 -625 L635 -620 L635 -615 L630 -615 L625 -615 L625 -610 L625 -605 L625 -600 L630 -600 L635 -600 L635 -595 L635 -590 L635 -585 L630 -585 L625 -585 L620 -585 L620 -590 L620 -595 L615 -595 L610 -595 L605 -595 L605 -590 L605 -585 L605 -580 L610 -580 L615 -580 L615 -575 L610 -575 L605 -575 L605 -570 L605 -565 L605 -560 L610 -560 L615 -560 L620 -560 L620 -565 L620 -570 L625 -570 L630 -570 L635 -570 L635 -565 L635 -560 L635 -555 L630 -555 L625 -555 L625 -550 L625 -545 L625 -540 L630 -540 L635 -540 L635 -535 L635 -530 L635 -525 L630 -525 L625 -525 L620 -525 L620 -530 L620 -535 L615 -535 L615 -530 L615 -525 L610 -525 L605 -525 L600 -525 L600 -530 L600 -535 L600 -540 L605 -540 L610 -540 L610 -545 L610 -550 L610 -555 L605 -555 L600 -555 L595 -555 L595 -550 L595 -545 L590 -545 L585 -545 L580 -545 L580 -550 L580 -555 L575 -555 L570 -555 L565 -555 L565 -550 L565 -545 L565 -540 L570 -540 L575 -540 L575 -535 L570 -535 L565 -535 L565 -530 L565 -525 L565 -520 L570 -520 L575 -520 L580 -520 L580 -525 L580 -530 L585 -530 L590 -530 L595 -530 L595 -525 L595 -520 L595 -515 L595 -510 L595 -505 L590 -505 L585 -505 L580 -505 L580 -510 L580 -515 L575 -515 L570 -515 L565 -515 L565 -510 L565 -505 L565 -500 L570 -500 L575 -500 L575 -495 L570 -495 L565 -495 L565 -490 L565 -485 L565 -480 L570 -480 L575 -480 L580 -480 L580 -485 L580 -490 L585 -490 L590 -490 L595 -490 L595 -485 L595 -480 L600 -480 L605 -480 L610 -480 L610 -485 L610 -490 L610 -495 L605 -495 L600 -495 L600 -500 L600 -505 L600 -510 L605 -510 L610 -510 L615 -510 L615 -505 L615 -500 L620 -500 L620 -505 L620 -510 L625 -510 L630 -510 L635 -510 L635 -505 L635 -500 L635 -495 L630 -495 L625 -495 L625 -490 L625 -485 L625 -480 L630 -480 L635 -480 L635 -475 L635 -470 L635 -465 L630 -465 L625 -465 L620 -465 L620 -470 L620 -475 L615 -475 L610 -475 L605 -475 L605 -470 L605 -465 L605 -460 L610 -460 L615 -460 L615 -455 L610 -455 L605 -455 L605 -450 L605 -445 L605 -440 L610 -440 L615 -440 L620 -440 L620 -445 L620 -450 L625 -450 L630 -450 L635 -450 L635 -445 L635 -440 L635 -435 L630 -435 L625 -435 L625 -430 L625 -425 L625 -420 L630 -420 L635 -420 L635 -415 L635 -410 L635 -405 L630 -405 L625 -405 L620 -405 L620 -410 L620 -415 L615 -415 L615 -410 L615 -405 L610 -405 L605 -405 L600 -405 L600 -410 L600 -415 L600 -420 L605 -420 L610 -420 L610 -425 L610 -430 L610 -435 L605 -435 L600 -435 L595 -435 L590 -435 L585 -435 L585 -430 L585 -425 L585 -420 L590 -420 L595 -420 L595 -415 L595 -410 L595 -405 L590 -405 L585 -405 L580 -405 L580 -410 L580 -415 L575 -415 L575 -410 L575 -405 L570 -405 L565 -405 L560 -405 L560 -410 L560 -415 L560 -420 L565 -420 L570 -420 L570 -425 L570 -430 L570 -435 L565 -435 L560 -435 L560 -440 L560 -445 L560 -450 L565 -450 L570 -450 L575 -450 L575 -445 L575 -440 L580 -440 L585 -440 L590 -440 L590 -445 L590 -450 L590 -455 L585 -455 L580 -455 L580 -460 L585 -460 L590 -460 L590 -465 L590 -470 L590 -475 L585 -475 L580 -475 L575 -475 L575 -470 L575 -465 L570 -465 L565 -465 L560 -465 L560 -470 L560 -475 L555 -475 L550 -475 L545 -475 L545 -470 L545 -465 L545 -460 L550 -460 L555 -460 L555 -455 L555 -450 L555 -445 L550 -445 L545 -445 L540 -445 L540 -450 L540 -455 L535 -455 L535 -450 L535 -445 L530 -445 L525 -445 L520 -445 L520 -450 L520 -455 L520 -460 L525 -460 L530 -460 L530 -465 L530 -470 L530 -475 L525 -475 L520 -475 L515 -475 L515 -470 L515 -465 L510 -465 L505 -465 L500 -465 L500 -470 L500 -475 L495 -475 L490 -475 L485 -475 L485 -470 L485 -465 L485 -460 L490 -460 L495 -460 L495 -455 L490 -455 L485 -455 L485 -450 L485 -445 L485 -440 L490 -440 L495 -440 L500 -440 L500 -445 L500 -450 L505 -450 L510 -450 L515 -450 L515 -445 L515 -440 L515 -435 L515 -430 L515 -425 L510 -425 L505 -425 L500 -425 L500 -430 L500 -435 L495 -435 L490 -435 L485 -435 L485 -430 L485 -425 L485 -420 L490 -420 L495 -420 L495 -415 L490 -415 L485 -415 L485 -410 L485 -405 L485 -400 L490 -400 L495 -400 L500 -400 L500 -405 L500 -410 L505 -410 L510 -410 L515 -410 L515 -405 L515 -400 L520 -400 L525 -400 L530 -400 L530 -405 L530 -410 L530 -415 L525 -415 L520 -415 L520 -420 L520 -425 L520 -430 L525 -430 L530 -430 L535 -430 L535 -425 L535 -420 L540 -420 L540 -425 L540 -430 L545 -430 L550 -430 L555 -430 L555 -425 L555 -420 L555 -415 L550 -415 L545 -415 L545 -410 L545 -405 L545 -400 L550 -400 L555 -400 L555 -395 L550 -395 L545 -395 L545 -390 L545 -385 L545 -380 L550 -380 L555 -380 L555 -375 L555 -370 L555 -365 L550 -365 L545 -365 L540 -365 L540 -370 L540 -375 L535 -375 L535 -370 L535 -365 L530 -365 L525 -365 L520 -365 L520 -370 L520 -375 L520 -380 L525 -380 L530 -380 L530 -385 L530 -390 L530 -395 L525 -395 L520 -395 L515 -395 L515 -390 L515 -385 L510 -385 L505 -385 L500 -385 L500 -390 L500 -395 L495 -395 L490 -395 L485 -395 L485 -390 L485 -385 L485 -380 L490 -380 L495 -380 L495 -375 L490 -375 L485 -375 L485 -370 L485 -365 L485 -360 L490 -360 L495 -360 L500 -360 L500 -365 L500 -370 L505 -370 L510 -370 L515 -370 L515 -365 L515 -360 L515 -355 L515 -350 L515 -345 L510 -345 L505 -345 L500 -345 L500 -350 L500 -355 L495 -355 L490 -355 L485 -355 L485 -350 L485 -345 L485 -340 L490 -340 L495 -340 L495 -335 L490 -335 L485 -335 L485 -330 L485 -325 L485 -320 L490 -320 L495 -320 L500 -320 L500 -325 L500 -330 L505 -330 L510 -330 L515 -330 L515 -325 L515 -320 L520 -320 L525 -320 L530 -320 L530 -325 L530 -330 L530 -335 L525 -335 L520 -335 L520 -340 L520 -345 L520 -350 L525 -350 L530 -350 L535 -350 L535 -345 L535 -340 L540 -340 L540 -345 L540 -350 L545 -350 L550 -350 L555 -350 L555 -345 L555 -340 L555 -335 L550 -335 L545 -335 L545 -330 L545 -325 L545 -320 L550 -320 L555 -320 L560 -320 L560 -325 L560 -330 L565 -330 L570 -330 L575 -330 L575 -325 L575 -320 L580 -320 L585 -320 L590 -320 L590 -325 L590 -330 L590 -335 L585 -335 L580 -335 L580 -340 L585 -340 L590 -340 L590 -345 L590 -350 L590 -355 L585 -355 L580 -355 L575 -355 L575 -350 L575 -345 L570 -345 L565 -345 L560 -345 L560 -350 L560 -355 L560 -360 L565 -360 L570 -360 L570 -365 L570 -370 L570 -375 L565 -375 L560 -375 L560 -380 L560 -385 L560 -390 L565 -390 L570 -390 L575 -390 L575 -385 L575 -380 L580 -380 L580 -385 L580 -390 L585 -390 L590 -390 L595 -390 L595 -385 L595 -380 L595 -375 L590 -375 L585 -375 L585 -370 L585 -365 L585 -360 L590 -360 L595 -360 L600 -360 L605 -360 L610 -360 L610 -365 L610 -370 L610 -375 L605 -375 L600 -375 L600 -380 L600 -385 L600 -390 L605 -390 L610 -390 L615 -390 L615 -385 L615 -380 L620 -380 L620 -385 L620 -390 L625 -390 L630 -390 L635 -390 L635 -385 L635 -380 L635 -375 L630 -375 L625 -375 L625 -370 L625 -365 L625 -360 L630 -360 L635 -360 L635 -355 L635 -350 L635 -345 L630 -345 L625 -345 L620 -345 L620 -350 L620 -355 L615 -355 L610 -355 L605 -355 L605 -350 L605 -345 L605 -340 L610 -340 L615 -340 L615 -335 L610 -335 L605 -335 L605 -330 L605 -325 L605 -320 L610 -320 L615 -320 L620 -320 L620 -325 L620 -330 L625 -330 L630 -330 L635 -330 L635 -325 L635 -320 L635 -315 L630 -315 L625 -315 L625 -310 L625 -305 L625 -300 L630 -300 L635 -300 L635 -295 L635 -290 L635 -285 L630 -285 L625 -285 L620 -285 L620 -290 L620 -295 L615 -295 L615 -290 L615 -285 L610 -285 L605 -285 L600 -285 L600 -290 L600 -295 L600 -300 L605 -300 L610 -300 L610 -305 L610 -310 L610 -315 L605 -315 L600 -315 L595 -315 L595 -310 L595 -305 L590 -305 L585 -305 L580 -305 L580 -310 L580 -315 L575 -315 L570 -315 L565 -315 L565 -310 L565 -305 L565 -300 L570 -300 L575 -300 L575 -295 L570 -295 L565 -295 L565 -290 L565 -285 L565 -280 L570 -280 L575 -280 L580 -280 L580 -285 L580 -290 L585 -290 L590 -290 L595 -290 L595 -285 L595 -280 L595 -275 L595 -270 L595 -265 L590 -265 L585 -265 L580 -265 L580 -270 L580 -275 L575 -275 L570 -275 L565 -275 L565 -270 L565 -265 L565 -260 L570 -260 L575 -260 L575 -255 L570 -255 L565 -255 L565 -250 L565 -245 L565 -240 L570 -240 L575 -240 L580 -240 L580 -245 L580 -250 L585 -250 L590 -250 L595 -250 L595 -245 L595 -240 L600 -240 L605 -240 L610 -240 L610 -245 L610 -250 L610 -255 L605 -255 L600 -255 L600 -260 L600 -265 L600 -270 L605 -270 L610 -270 L615 -270 L615 -265 L615 -260 L620 -260 L620 -265 L620 -270 L625 -270 L630 -270 L635 -270 L635 -265 L635 -260 L635 -255 L630 -255 L625 -255 L625 -250 L625 -245 L625 -240 L630 -240 L635 -240 L635 -235 L635 -230 L635 -225 L630 -225 L625 -225 L620 -225 L620 -230 L620 -235 L615 -235 L610 -235 L605 -235 L605 -230 L605 -225 L605 -220 L610 -220 L615 -220 L615 -215 L610 -215 L605 -215 L605 -210 L605 -205 L605 -200 L610 -200 L615 -200 L620 -200 L620 -205 L620 -210 L625 -210 L630 -210 L635 -210 L635 -205 L635 -200 L635 -195 L630 -195 L625 -195 L625 -190 L625 -185 L625 -180 L630 -180 L635 -180 L635 -175 L635 -170 L635 -165 L630 -165 L625 -165 L620 -165 L620 -170 L620 -175 L615 -175 L615 -170 L615 -165 L610 -165 L605 -165 L600 -165 L600 -170 L600 -175 L600 -180 L605 -180 L610 -180 L610 -185 L610 -190 L610 -195 L605 -195 L600 -195 L595 -195 L590 -195 L585 -195 L585 -190 L585 -185 L585 -180 L590 -180 L595 -180 L595 -175 L595 -170 L595 -165 L590 -165 L585 -165 L580 -165 L580 -170 L580 -175 L575 -175 L575 -170 L575 -165 L570 -165 L565 -165 L560 -165 L560 -170 L560 -175 L560 -180 L565 -180 L570 -180 L570 -185 L570 -190 L570 -195 L565 -195 L560 -195 L560 -200 L560 -205 L560 -210 L565 -210 L570 -210 L575 -210 L575 -205 L575 -200 L580 -200 L585 -200 L590 -200 L590 -205 L590 -210 L590 -215 L585 -215 L580 -215 L580 -220 L585 -220 L590 -220 L590 -225 L590 -230 L590 -235 L585 -235 L580 -235 L575 -235 L575 -230 L575 -225 L570 -225 L565 -225 L560 -225 L560 -230 L560 -235 L555 -235 L555 -230 L555 -225 L550 -225 L545 -225 L540 -225 L540 -230 L540 -235 L535 -235 L530 -235 L525 -235 L525 -230 L525 -225 L525 -220 L530 -220 L535 -220 L535 -215 L530 -215 L525 -215 L525 -210 L525 -205 L525 -200 L530 -200 L535 -200 L540 -200 L540 -205 L540 -210 L545 -210 L550 -210 L555 -210 L555 -205 L555 -200 L555 -195 L550 -195 L545 -195 L545 -190 L545 -185 L545 -180 L550 -180 L555 -180 L555 -175 L555 -170 L555 -165 L550 -165 L545 -165 L540 -165 L540 -170 L540 -175 L535 -175 L535 -170 L535 -165 L530 -165 L525 -165 L520 -165 L520 -170 L520 -175 L520 -180 L525 -180 L530 -180 L530 -185 L530 -190 L530 -195 L525 -195 L520 -195 L515 -195 L510 -195 L505 -195 L505 -190 L505 -185 L505 -180 L510 -180 L515 -180 L515 -175 L515 -170 L515 -165 L510 -165 L505 -165 L500 -165 L500 -170 L500 -175 L495 -175 L495 -170 L495 -165 L490 -165 L485 -165 L480 -165 L480 -170 L480 -175 L480 -180 L485 -180 L490 -180 L490 -185 L490 -190 L490 -195 L485 -195 L480 -195 L480 -200 L480 -205 L480 -210 L485 -210 L490 -210 L495 -210 L495 -205 L495 -200 L500 -200 L505 -200 L510 -200 L510 -205 L510 -210 L510 -215 L505 -215 L500 -215 L500 -220 L505 -220 L510 -220 L510 -225 L510 -230 L510 -235 L505 -235 L500 -235 L495 -235 L495 -230 L495 -225 L490 -225 L485 -225 L480 -225 L480 -230 L480 -235 L480 -240 L485 -240 L490 -240 L490 -245 L490 -250 L490 -255 L485 -255 L480 -255 L480 -260 L480 -265 L480 -270 L485 -270 L490 -270 L495 -270 L495 -265 L495 -260 L500 -260 L500 -265 L500 -270 L505 -270 L510 -270 L515 -270 L515 -265 L515 -260 L515 -255 L510 -255 L505 -255 L505 -250 L505 -245 L505 -240 L510 -240 L515 -240 L520 -240 L520 -245 L520 -250 L525 -250 L530 -250 L535 -250 L535 -245 L535 -240 L540 -240 L545 -240 L550 -240 L550 -245 L550 -250 L550 -255 L545 -255 L540 -255 L540 -260 L545 -260 L550 -260 L550 -265 L550 -270 L550 -275 L545 -275 L540 -275 L535 -275 L535 -270 L535 -265 L530 -265 L525 -265 L520 -265 L520 -270 L520 -275 L520 -280 L520 -285 L520 -290 L525 -290 L530 -290 L535 -290 L535 -285 L535 -280 L540 -280 L545 -280 L550 -280 L550 -285 L550 -290 L550 -295 L545 -295 L540 -295 L540 -300 L545 -300 L550 -300 L550 -305 L550 -310 L550 -315 L545 -315 L540 -315 L535 -315 L535 -310 L535 -305 L530 -305 L525 -305 L520 -305 L520 -310 L520 -315 L515 -315 L510 -315 L505 -315 L505 -310 L505 -305 L505 -300 L510 -300 L515 -300 L515 -295 L515 -290 L515 -285 L510 -285 L505 -285 L500 -285 L500 -290 L500 -295 L495 -295 L495 -290 L495 -285 L490 -285 L485 -285 L480 -285 L480 -290 L480 -295 L480 -300 L485 -300 L490 -300 L490 -305 L490 -310 L490 -315 L485 -315 L480 -315 L475 -315 L475 -310 L475 -305 L470 -305 L465 -305 L460 -305 L460 -310 L460 -315 L455 -315 L450 -315 L445 -315 L445 -310 L445 -305 L445 -300 L450 -300 L455 -300 L455 -295 L450 -295 L445 -295 L445 -290 L445 -285 L445 -280 L450 -280 L455 -280 L460 -280 L460 -285 L460 -290 L465 -290 L470 -290 L475 -290 L475 -285 L475 -280 L475 -275 L470 -275 L465 -275 L465 -270 L465 -265 L465 -260 L470 -260 L475 -260 L475 -255 L475 -250 L475 -245 L470 -245 L465 -245 L460 -245 L460 -250 L460 -255 L455 -255 L455 -250 L455 -245 L450 -245 L445 -245 L440 -245 L440 -250 L440 -255 L440 -260 L445 -260 L450 -260 L450 -265 L450 -270 L450 -275 L445 -275 L440 -275 L435 -275 L430 -275 L425 -275 L425 -270 L425 -265 L425 -260 L430 -260 L435 -260 L435 -255 L435 -250 L435 -245 L430 -245 L425 -245 L420 -245 L420 -250 L420 -255 L415 -255 L415 -250 L415 -245 L410 -245 L405 -245 L400 -245 L400 -250 L400 -255 L400 -260 L405 -260 L410 -260 L410 -265 L410 -270 L410 -275 L405 -275 L400 -275 L400 -280 L400 -285 L400 -290 L405 -290 L410 -290 L415 -290 L415 -285 L415 -280 L420 -280 L425 -280 L430 -280 L430 -285 L430 -290 L430 -295 L425 -295 L420 -295 L420 -300 L425 -300 L430 -300 L430 -305 L430 -310 L430 -315 L425 -315 L420 -315 L415 -315 L415 -310 L415 -305 L410 -305 L405 -305 L400 -305 L400 -310 L400 -315 L395 -315 L390 -315 L385 -315 L385 -310 L385 -305 L385 -300 L390 -300 L395 -300 L395 -295 L395 -290 L395 -285 L390 -285 L385 -285 L380 -285 L380 -290 L380 -295 L375 -295 L375 -290 L375 -285 L370 -285 L365 -285 L360 -285 L360 -290 L360 -295 L360 -300 L365 -300 L370 -300 L370 -305 L370 -310 L370 -315 L365 -315 L360 -315 L355 -315 L355 -310 L355 -305 L350 -305 L345 -305 L340 -305 L340 -310 L340 -315 L335 -315 L330 -315 L325 -315 L325 -310 L325 -305 L325 -300 L330 -300 L335 -300 L335 -295 L330 -295 L325 -295 L325 -290 L325 -285 L325 -280 L330 -280 L335 -280 L340 -280 L340 -285 L340 -290 L345 -290 L350 -290 L355 -290 L355 -285 L355 -280 L355 -275 L355 -270 L355 -265 L350 -265 L345 -265 L340 -265 L340 -270 L340 -275 L335 -275 L330 -275 L325 -275 L325 -270 L325 -265 L325 -260 L330 -260 L335 -260 L335 -255 L330 -255 L325 -255 L325 -250 L325 -245 L325 -240 L330 -240 L335 -240 L340 -240 L340 -245 L340 -250 L345 -250 L350 -250 L355 -250 L355 -245 L355 -240 L360 -240 L365 -240 L370 -240 L370 -245 L370 -250 L370 -255 L365 -255 L360 -255 L360 -260 L360 -265 L360 -270 L365 -270 L370 -270 L375 -270 L375 -265 L375 -260 L380 -260 L380 -265 L380 -270 L385 -270 L390 -270 L395 -270 L395 -265 L395 -260 L395 -255 L390 -255 L385 -255 L385 -250 L385 -245 L385 -240 L390 -240 L395 -240 L395 -235 L390 -235 L385 -235 L385 -230 L385 -225 L385 -220 L390 -220 L395 -220 L395 -215 L395 -210 L395 -205 L390 -205 L385 -205 L380 -205 L380 -210 L380 -215 L375 -215 L375 -210 L375 -205 L370 -205 L365 -205 L360 -205 L360 -210 L360 -215 L360 -220 L365 -220 L370 -220 L370 -225 L370 -230 L370 -235 L365 -235 L360 -235 L355 -235 L355 -230 L355 -225 L350 -225 L345 -225 L340 -225 L340 -230 L340 -235 L335 -235 L330 -235 L325 -235 L325 -230 L325 -225 L325 -220 L330 -220 L335 -220 L335 -215 L330 -215 L325 -215 L325 -210 L325 -205 L325 -200 L330 -200 L335 -200 L340 -200 L340 -205 L340 -210 L345 -210 L350 -210 L355 -210 L355 -205 L355 -200 L355 -195 L355 -190 L355 -185 L350 -185 L345 -185 L340 -185 L340 -190 L340 -195 L335 -195 L330 -195 L325 -195 L325 -190 L325 -185 L325 -180 L330 -180 L335 -180 L335 -175 L330 -175 L325 -175 L325 -170 L325 -165 L325 -160 L330 -160 L335 -160 L340 -160 L340 -165 L340 -170 L345 -170 L350 -170 L355 -170 L355 -165 L355 -160 L360 -160 L365 -160 L370 -160 L370 -165 L370 -170 L370 -175 L365 -175 L360 -175 L360 -180 L360 -185 L360 -190 L365 -190 L370 -190 L375 -190 L375 -185 L375 -180 L380 -180 L380 -185 L380 -190 L385 -190 L390 -190 L395 -190 L395 -185 L395 -180 L395 -175 L390 -175 L385 -175 L385 -170 L385 -165 L385 -160 L390 -160 L395 -160 L400 -160 L400 -165 L400 -170 L405 -170 L410 -170 L415 -170 L415 -165 L415 -160 L420 -160 L425 -160 L430 -160 L430 -165 L430 -170 L430 -175 L425 -175 L420 -175 L420 -180 L425 -180 L430 -180 L430 -185 L430 -190 L430 -195 L425 -195 L420 -195 L415 -195 L415 -190 L415 -185 L410 -185 L405 -185 L400 -185 L400 -190 L400 -195 L400 -200 L405 -200 L410 -200 L410 -205 L410 -210 L410 -215 L405 -215 L400 -215 L400 -220 L400 -225 L400 -230 L405 -230 L410 -230 L415 -230 L415 -225 L415 -220 L420 -220 L420 -225 L420 -230 L425 -230 L430 -230 L435 -230 L435 -225 L435 -220 L435 -215 L430 -215 L425 -215 L425 -210 L425 -205 L425 -200 L430 -200 L435 -200 L440 -200 L445 -200 L450 -200 L450 -205 L450 -210 L450 -215 L445 -215 L440 -215 L440 -220 L440 -225 L440 -230 L445 -230 L450 -230 L455 -230 L455 -225 L455 -220 L460 -220 L460 -225 L460 -230 L465 -230 L470 -230 L475 -230 L475 -225 L475 -220 L475 -215 L470 -215 L465 -215 L465 -210 L465 -205 L465 -200 L470 -200 L475 -200 L475 -195 L475 -190 L475 -185 L470 -185 L465 -185 L460 -185 L460 -190 L460 -195 L455 -195 L450 -195 L445 -195 L445 -190 L445 -185 L445 -180 L450 -180 L455 -180 L455 -175 L450 -175 L445 -175 L445 -170 L445 -165 L445 -160 L450 -160 L455 -160 L460 -160 L460 -165 L460 -170 L465 -170 L470 -170 L475 -170 L475 -165 L475 -160 L475 -155 L475 -150 L475 -145 L470 -145 L465 -145 L460 -145 L460 -150 L460 -155 L455 -155 L450 -155 L445 -155 L445 -150 L445 -145 L445 -140 L450 -140 L455 -140 L455 -135 L450 -135 L445 -135 L445 -130 L445 -125 L445 -120 L450 -120 L455 -120 L460 -120 L460 -125 L460 -130 L465 -130 L470 -130 L475 -130 L475 -125 L475 -120 L475 -115 L470 -115 L465 -115 L465 -110 L465 -105 L465 -100 L470 -100 L475 -100 L475 -95 L475 -90 L475 -85 L470 -85 L465 -85 L460 -85 L460 -90 L460 -95 L455 -95 L455 -90 L455 -85 L450 -85 L445 -85 L440 -85 L440 -90 L440 -95 L440 -100 L445 -100 L450 -100 L450 -105 L450 -110 L450 -115 L445 -115 L440 -115 L435 -115 L430 -115 L425 -115 L425 -110 L425 -105 L425 -100 L430 -100 L435 -100 L435 -95 L435 -90 L435 -85 L430 -85 L425 -85 L420 -85 L420 -90 L420 -95 L415 -95 L415 -90 L415 -85 L410 -85 L405 -85 L400 -85 L400 -90 L400 -95 L400 -100 L405 -100 L410 -100 L410 -105 L410 -110 L410 -115 L405 -115 L400 -115 L400 -120 L400 -125 L400 -130 L405 -130 L410 -130 L415 -130 L415 -125 L415 -120 L420 -120 L425 -120 L430 -120 L430 -125 L430 -130 L430 -135 L425 -135 L420 -135 L420 -140 L425 -140 L430 -140 L430 -145 L430 -150 L430 -155 L425 -155 L420 -155 L415 -155 L415 -150 L415 -145 L410 -145 L405 -145 L400 -145 L400 -150 L400 -155 L395 -155 L390 -155 L385 -155 L385 -150 L385 -145 L385 -140 L390 -140 L395 -140 L395 -135 L395 -130 L395 -125 L390 -125 L385 -125 L380 -125 L380 -130 L380 -135 L375 -135 L375 -130 L375 -125 L370 -125 L365 -125 L360 -125 L360 -130 L360 -135 L360 -140 L365 -140 L370 -140 L370 -145 L370 -150 L370 -155 L365 -155 L360 -155 L355 -155 L355 -150 L355 -145 L350 -145 L345 -145 L340 -145 L340 -150 L340 -155 L335 -155 L330 -155 L325 -155 L325 -150 L325 -145 L325 -140 L330 -140 L335 -140 L335 -135 L330 -135 L325 -135 L325 -130 L325 -125 L325 -120 L330 -120 L335 -120 L340 -120 L340 -125 L340 -130 L345 -130 L350 -130 L355 -130 L355 -125 L355 -120 L355 -115 L355 -110 L355 -105 L350 -105 L345 -105 L340 -105 L340 -110 L340 -115 L335 -115 L330 -115 L325 -115 L325 -110 L325 -105 L325 -100 L330 -100 L335 -100 L335 -95 L330 -95 L325 -95 L325 -90 L325 -85 L325 -80 L330 -80 L335 -80 L340 -80 L340 -85 L340 -90 L345 -90 L350 -90 L355 -90 L355 -85 L355 -80 L360 -80 L365 -80 L370 -80 L370 -85 L370 -90 L370 -95 L365 -95 L360 -95 L360 -100 L360 -105 L360 -110 L365 -110 L370 -110 L375 -110 L375 -105 L375 -100 L380 -100 L380 -105 L380 -110 L385 -110 L390 -110 L395 -110 L395 -105 L395 -100 L395 -95 L390 -95 L385 -95 L385 -90 L385 -85 L385 -80 L390 -80 L395 -80 L395 -75 L390 -75 L385 -75 L385 -70 L385 -65 L385 -60 L390 -60 L395 -60 L395 -55 L395 -50 L395 -45 L390 -45 L385 -45 L380 -45 L380 -50 L380 -55 L375 -55 L375 -50 L375 -45 L370 -45 L365 -45 L360 -45 L360 -50 L360 -55 L360 -60 L365 -60 L370 -60 L370 -65 L370 -70 L370 -75 L365 -75 L360 -75 L355 -75 L355 -70 L355 -65 L350 -65 L345 -65 L340 -65 L340 -70 L340 -75 L335 -75 L330 -75 L325 -75 L325 -70 L325 -65 L325 -60 L330 -60 L335 -60 L335 -55 L330 -55 L325 -55 L325 -50 L325 -45 L325 -40 L330 -40 L335 -40 L340 -40 L340 -45 L340 -50 L345 -50 L350 -50 L355 -50 L355 -45 L355 -40 L355 -35 L355 -30 L355 -25 L350 -25 L345 -25 L340 -25 L340 -30 L340 -35 L335 -35 L330 -35 L325 -35 L325 -30 L325 -25 L325 -20 L330 -20 L335 -20 L335 -15 L330 -15 L325 -15 L325 -10 L325 -5 L325 0 L330 9.86076e-32 L335 1.97215e-31 L340 2.95823e-31 L340 -5 L340 -10 L345 -10 L350 -10 L355 -10 L355 -5 L355 0 L360 9.86076e-32 L365 1.97215e-31 L370 2.95823e-31 L370 -5 L370 -10 L370 -15 L365 -15 L360 -15 L360 -20 L360 -25 L360 -30 L365 -30 L370 -30 L375 -30 L375 -25 L375 -20 L380 -20 L380 -25 L380 -30 L385 -30 L390 -30 L395 -30 L395 -25 L395 -20 L395 -15 L390 -15 L385 -15 L385 -10 L385 -5 L385 0 L390 9.86076e-32 L395 1.97215e-31 L400 2.95823e-31 L400 -5 L400 -10 L405 -10 L410 -10 L415 -10 L415 -5 L415 0 L420 9.86076e-32 L425 1.97215e-31 L430 2.95823e-31 L430 -5 L430 -10 L430 -15 L425 -15 L420 -15 L420 -20 L425 -20 L430 -20 L430 -25 L430 -30 L430 -35 L425 -35 L420 -35 L415 -35 L415 -30 L415 -25 L410 -25 L405 -25 L400 -25 L400 -30 L400 -35 L400 -40 L405 -40 L410 -40 L410 -45 L410 -50 L410 -55 L405 -55 L400 -55 L400 -60 L400 -65 L400 -70 L405 -70 L410 -70 L415 -70 L415 -65 L415 -60 L420 -60 L420 -65 L420 -70 L425 -70 L430 -70 L435 -70 L435 -65 L435 -60 L435 -55 L430 -55 L425 -55 L425 -50 L425 -45 L425 -40 L430 -40 L435 -40 L440 -40 L445 -40 L450 -40 L450 -45 L450 -50 L450 -55 L445 -55 L440 -55 L440 -60 L440 -65 L440 -70 L445 -70 L450 -70 L455 -70 L455 -65 L455 -60 L460 -60 L460 -65 L460 -70 L465 -70 L470 -70 L475 -70 L475 -65 L475 -60 L475 -55 L470 -55 L465 -55 L465 -50 L465 -45 L465 -40 L470 -40 L475 -40 L475 -35 L475 -30 L475 -25 L470 -25 L465 -25 L460 -25 L460 -30 L460 -35 L455 -35 L450 -35 L445 -35 L445 -30 L445 -25 L445 -20 L450 -20 L455 -20 L455 -15 L450 -15 L445 -15 L445 -10 L445 -5 L445 0 L450 9.86076e-32 L455 1.97215e-31 L460 2.95823e-31 L460 -5 L460 -10 L465 -10 L470 -10 L475 -10 L475 -5 L475 0 L480 9.86076e-32 L485 1.97215e-31 L490 2.95823e-31 L490 -5 L490 -10 L490 -15 L485 -15 L480 -15 L480 -20 L480 -25 L480 -30 L485 -30 L490 -30 L495 -30 L495 -25 L495 -20 L500 -20 L500 -25 L500 -30 L505 -30 L510 -30 L515 -30 L515 -25 L515 -20 L515 -15 L510 -15 L505 -15 L505 -10 L505 -5 L505 0 L510 9.86076e-32 L515 1.97215e-31 L520 2.95823e-31 L520 -5 L520 -10 L525 -10 L530 -10 L535 -10 L535 -5 L535 0 L540 9.86076e-32 L545 1.97215e-31 L550 2.95823e-31 L550 -5 L550 -10 L550 -15 L545 -15 L540 -15 L540 -20 L545 -20 L550 -20 L550 -25 L550 -30 L550 -35 L545 -35 L540 -35 L535 -35 L535 -30 L535 -25 L530 -25 L525 -25 L520 -25 L520 -30 L520 -35 L520 -40 L520 -45 L520 -50 L525 -50 L530 -50 L535 -50 L535 -45 L535 -40 L540 -40 L545 -40 L550 -40 L550 -45 L550 -50 L550 -55 L545 -55 L540 -55 L540 -60 L545 -60 L550 -60 L550 -65 L550 -70 L550 -75 L545 -75 L540 -75 L535 -75 L535 -70 L535 -65 L530 -65 L525 -65 L520 -65 L520 -70 L520 -75 L515 -75 L510 -75 L505 -75 L505 -70 L505 -65 L505 -60 L510 -60 L515 -60 L515 -55 L515 -50 L515 -45 L510 -45 L505 -45 L500 -45 L500 -50 L500 -55 L495 -55 L495 -50 L495 -45 L490 -45 L485 -45 L480 -45 L480 -50 L480 -55 L480 -60 L485 -60 L490 -60 L490 -65 L490 -70 L490 -75 L485 -75 L480 -75 L480 -80 L480 -85 L480 -90 L485 -90 L490 -90 L495 -90 L495 -85 L495 -80 L500 -80 L505 -80 L510 -80 L510 -85 L510 -90 L510 -95 L505 -95 L500 -95 L500 -100 L505 -100 L510 -100 L510 -105 L510 -110 L510 -115 L505 -115 L500 -115 L495 -115 L495 -110 L495 -105 L490 -105 L485 -105 L480 -105 L480 -110 L480 -115 L480 -120 L485 -120 L490 -120 L490 -125 L490 -130 L490 -135 L485 -135 L480 -135 L480 -140 L480 -145 L480 -150 L485 -150 L490 -150 L495 -150 L495 -145 L495 -140 L500 -140 L500 -145 L500 -150 L505 -150 L510 -150 L515 -150 L515 -145 L515 -140 L515 -135 L510 -135 L505 -135 L505 -130 L505 -125 L505 -120 L510 -120 L515 -120 L520 -120 L525 -120 L530 -120 L530 -125 L530 -130 L530 -135 L525 -135 L520 -135 L520 -140 L520 -145 L520 -150 L525 -150 L530 -150 L535 -150 L535 -145 L535 -140 L540 -140 L540 -145 L540 -150 L545 -150 L550 -150 L555 -150 L555 -145 L555 -140 L555 -135 L550 -135 L545 -135 L545 -130 L545 -125 L545 -120 L550 -120 L555 -120 L555 -115 L555 -110 L555 -105 L550 -105 L545 -105 L540 -105 L540 -110 L540 -115 L535 -115 L530 -115 L525 -115 L525 -110 L525 -105 L525 -100 L530 -100 L535 -100 L535 -95 L530 -95 L525 -95 L525 -90 L525 -85 L525 -80 L530 -80 L535 -80 L540 -80 L540 -85 L540 -90 L545 -90 L550 -90 L555 -90 L555 -85 L555 -80 L560 -80 L560 -85 L560 -90 L565 -90 L570 -90 L575 -90 L575 -85 L575 -80 L580 -80 L585 -80 L590 -80 L590 -85 L590 -90 L590 -95 L585 -95 L580 -95 L580 -100 L585 -100 L590 -100 L590 -105 L590 -110 L590 -115 L585 -115 L580 -115 L575 -115 L575 -110 L575 -105 L570 -105 L565 -105 L560 -105 L560 -110 L560 -115 L560 -120 L565 -120 L570 -120 L570 -125 L570 -130 L570 -135 L565 -135 L560 -135 L560 -140 L560 -145 L560 -150 L565 -150 L570 -150 L575 -150 L575 -145 L575 -140 L580 -140 L580 -145 L580 -150 L585 -150 L590 -150 L595 -150 L595 -145 L595 -140 L595 -135 L590 -135 L585 -135 L585 -130 L585 -125 L585 -120 L590 -120 L595 -120 L600 -120 L605 -120 L610 -120 L610 -125 L610 -130 L610 -135 L605 -135 L600 -135 L600 -140 L600 -145 L600 -150 L605 -150 L610 -150 L615 -150 L615 -145 L615 -140 L620 -140 L620 -145 L620 -150 L625 -150 L630 -150 L635 -150 L635 -145 L635 -140 L635 -135 L630 -135 L625 -135 L625 -130 L625 -125 L625 -120 L630 -120 L635 -120 L635 -115 L635 -110 L635 -105 L630 -105 L625 -105 L620 -105 L620 -110 L620 -115 L615 -115 L610 -115 L605 -115 L605 -110 L605 -105 L605 -100 L610 -100 L615 -100 L615 -95 L610 -95 L605 -95 L605 -90 L605 -85 L605 -80 L610 -80 L615 -80 L620 -80 L620 -85 L620 -90 L625 -90 L630 -90 L635 -90 L635 -85 L635 -80 L635 -75 L630 -75 L625 -75 L625 -70 L625 -65 L625 -60 L630 -60 L635 -60 L635 -55 L635 -50 L635 -45 L630 -45 L625 -45 L620 -45 L620 -50 L620 -55 L615 -55 L615 -50 L615 -45 L610 -45 L605 -45 L600 -45 L600 -50 L600 -55 L600 -60 L605 -60 L610 -60 L610 -65 L610 -70 L610 -75 L605 -75 L600 -75 L595 -75 L595 -70 L595 -65 L590 -65 L585 -65 L580 -65 L580 -70 L580 -75 L575 -75 L570 -75 L565 -75 L565 -70 L565 -65 L565 -60 L570 -60 L575 -60 L575 -55 L570 -55 L565 -55 L565 -50 L565 -45 L565 -40 L570 -40 L575 -40 L580 -40 L580 -45 L580 -50 L585 -50 L590 -50 L595 -50 L595 -45 L595 -40 L595 -35 L595 -30 L595 -25 L590 -25 L585 -25 L580 -25 L580 -30 L580 -35 L575 -35 L570 -35 L565 -35 L565 -30 L565 -25 L565 -20 L570 -20 L575 -20 L575 -15 L570 -15 L565 -15 L565 -10 L565 -5 L565 0 L570 9.86076e-32 L575 1.97215e-31 L580 2.95823e-31 L580 -5 L580 -10 L585 -10 L590 -10 L595 -10 L595 -5 L595 0 L600 9.86076e-32 L605 1.97215e-31 L610 2.95823e-31 L610 -5 L610 -10 L610 -15 L605 -15 L600 -15 L600 -20 L600 -25 L600 -30 L605 -30 L610 -30 L615 -30 L615 -25 L615 -20 L620 -20 L620 -25 L620 -30 L625 -30 L630 -30 L635 -30 L635 -25 L635 -20 L635 -15 L630 -15 L625 -15 L625 -10 L625 -5 L625 0 L630 9.86076e-32 L635 1.97215e-31"/>
</svg>
