<?xml version="1.0" encoding="UTF-8"?>
<svg xmlns="http://www.w3.org/2000/svg"
 version="1.1" baseProfile="basic"
 viewBox="-11 -160 176 171"
 width="1280px" height="1024px"
 stroke="white" stroke-width="1px"
 fill="black" fill-opacity="0">
<rect x="-11" y="-160" width="176" height="171" stroke-width="0px" fill-opacity="1"/>
<path d="M0 0 L0 0 L5 0 L10 0 L10 -5 L10 -10 L10 -15 L5 -15 L0 -15 L3.06162e-16 -20 L6.12323e-16 -25 L9.18485e-16 -30 L5 -30 L10 -30 L15 -30 L15 -25 L15 -20 L20 -20 L20 -25 L20 -30 L25 -30 L30 -30 L35 -30 L35 -25 L35 -20 L35 -15 L30 -15 L25 -15 L25 -10 L25 -5 L25 0 L30 0 L35 0 L40 0 L40 -5 L40 -10 L45 -10 L50 -10 L55 -10 L55 -5 L55 0 L60 0 L65 0 L70 0 L70 -5 L70 -10 L70 -15 L65 -15 L60 -15 L60 -20 L65 -20 L70 -20 L70 -25 L70 -30 L70 -35 L65 -35 L60 -35 L55 -35 L55 -30 L55 -25 L50 -25 L45 -25 L40 -25 L40 -30 L40 -35 L40 -40 L40 -45 L40 -50 L45 -50 L50 -50 L55 -50 L55 -45 L55 -40 L60 -40 L65 -40 L70 -40 L70 -45 L70 -50 L70 -55 L65 -55 L60 -55 L60 -60 L65 -60 L70 -60 L70 -65 L70 -70 L70 -75 L65 -75 L60 -75 L55 -75 L55 -70 L55 -65 L50 -65 L45 -65 L40 -65 L40 -70 L40 -75 L35 -75 L30 -75 L25 -75 L25 -70 L25 -65 L25 -60 L30 -60 L35 -60 L35 -55 L35 -50 L35 -45 L30 -45 L25 -45 L20 -45 L20 -50 L20 -55 L15 -55 L15 -50 L15 -45 L10 -45 L5 -45 L-3.55271e-15 -45 L-3.24655e-15 -50 L-2.94039e-15 -55 L-2.63423e-15 -60 L5 -60 L10 -60 L10 -65 L10 -70 L10 -75 L5 -75 L-3.55271e-15 -75 L-3.24655e-15 -80 L-2.94039e-15 -85 L-2.63423e-15 -90 L5 -90 L10 -90 L15 -90 L15 -85 L15 -80 L20 -80 L25 -80 L30 -80 L30 -85 L30 -90 L30 -95 L25 -95 L20 -95 L20 -100 L25 -100 L30 -100 L30 -105 L30 -110 L30 -115 L25 -115 L20 -115 L15 -115 L15 -110 L15 -105 L10 -105 L5 -105 L-7.10543e-15 -105 L-6.79927e-15 -110 L-6.4931e-15 -115 L-6.18694e-15 -120 L5 -120 L10 -120 L10 -125 L10 -130 L10 -135 L5 -135 L-7.10543e-15 -135 L-6.79927e-15 -140 L-6.4931e-15 -145 L-6.18694e-15 -150 L5 -150 L10 -150 L15 -150 L15 -145 L15 -140 L20 -140 L20 -145 L20 -150 L25 -150 L30 -150 L35 -150 L35 -145 L35 -140 L35 -135 L30 -135 L25 -135 L25 -130 L25 -125 L25 -120 L30 -120 L35 -120 L40 -120 L45 -120 L50 -120 L50 -125 L50 -130 L50 -135 L45 -135 L40 -135 L40 -140 L40 -145 L40 -150 L45 -150 L50 -150 L55 -150 L55 -145 L55 -140 L60 -140 L60 -145 L60 -150 L65 -150 L70 -150 L75 -150 L75 -145 L75 -140 L75 -135 L70 -135 L65 -135 L65 -130 L65 -125 L65 -120 L70 -120 L75 -120 L75 -115 L75 -110 L75 -105 L70 -105 L65 -105 L60 -105 L60 -110 L60 -115 L55 -115 L50 -115 L45 -115 L45 -110 L45 -105 L45 -100 L50 -100 L55 -100 L55 -95 L50 -95 L45 -95 L45 -90 L45 -85 L45 -80 L50 -80 L55 -80 L60 -80 L60 -85 L60 -90 L65 -90 L70 -90 L75 -90 L75 -85 L75 -80 L80 -80 L80 -85 L80 -90 L85 -90 L90 -90 L95 -90 L95 -85 L95 -80 L100 -80 L105 -80 L110 -80 L110 -85 L110 -90 L110 -95 L105 -95 L100 -95 L100 -100 L105 -100 L110 -100 L110 -105 L110 -110 L110 -115 L105 -115 L100 -115 L95 -115 L95 -110 L95 -105 L90 -105 L85 -105 L80 -105 L80 -110 L80 -115 L80 -120 L85 -120 L90 -120 L90 -125 L90 -130 L90 -135 L85 -135 L80 -135 L80 -140 L80 -145 L80 -150 L85 -150 L90 -150 L95 -150 L95 -145 L95 -140 L100 -140 L100 -145 L100 -150 L105 -150 L110 -150 L115 -150 L115 -145 L115 -140 L115 -135 L110 -135 L105 -135 L105 -130 L105 -125 L105 -120 L110 -120 L115 -120 L120 -120 L125 -120 L130 -120 L130 -125 L130 -130 L130 -135 L125 -135 L120 -135 L120 -140 L120 -145 L120 -150 L125 -150 L130 -150 L135 -150 L135 -145 L135 -140 L140 -140 L140 -145 L140 -150 L145 -150 L150 -150 L155 -150 L155 -145 L155 -140 L155 -135 L150 -135 L145 -135 L145 -130 L145 -125 L145 -120 L150 -120 L155 -120 L155 -115 L155 -110 L155 -105 L150 -105 L145 -105 L140 -105 L140 -110 L140 -115 L135 -115 L130 -115 L125 -115 L125 -110 L125 -105 L125 -100 L130 -100 L135 -100 L135 -95 L130 -95 L125 -95 L125 -90 L125 -85 L125 -80 L130 -80 L135 -80 L140 -80 L140 -85 L140 -90 L145 -90 L150 -90 L155 -90 L155 -85 L155 -80 L155 -75 L150 -75 L145 -75 L145 -70 L145 -65 L145 -60 L150 -60 L155 -60 L155 -55 L155 -50 L155 -45 L150 -45 L145 -45 L140 -45 L140 -50 L140 -55 L135 -55 L135 -50 L135 -45 L130 -45 L125 -45 L120 -45 L120 -50 L120 -55 L120 -60 L125 -60 L130 -60 L130 -65 L130 -70 L130 -75 L125 -75 L120 -75 L115 -75 L115 -70 L115 -65 L110 -65 L105 -65 L100 -65 L100 -70 L100 -75 L95 -75 L90 -75 L85 -75 L85 -70 L85 -65 L85 -60 L90 -60 L95 -60 L95 -55 L90 -55 L85 -55 L85 -50 L85 -45 L85 -40 L90 -40 L95 -40 L100 -40 L100 -45 L100 -50 L105 -50 L110 -50 L115 -50 L115 -45 L115 -40 L115 -35 L115 -30 L115 -25 L110 -25 L105 -25 L100 -25 L100 -30 L100 -35 L95 -35 L90 -35 L85 -35 L85 -30 L85 -25 L85 -20 L90 -20 L95 -20 L95 -15 L90 -15 L85 -15 L85 -10 L85 -5 L85 0 L90 9.86076e-32 L95 1.97215e-31 L100 2.95823e-31 L100 -5 L100 -10 L105 -10 L110 -10 L115 -10 L115 -5 L115 0 L120 9.86076e-32 L125 1.97215e-31 L130 2.95823e-31 L130 -5 L130 -10 L130 -15 L125 -15 L120 -15 L120 -20 L120 -25 L120 -30 L125 -30 L130 -30 L135 -30 L135 -25 L135 -20 L140 -20 L140 -25 L140 -30 L145 -30 L150 -30 L155 -30 L155 -25 L155 -20 L155 -15 L150 -15 L145 -15 L145 -10 L145 -5 L145 0 L150 9.86076e-32 L155 1.97215e-31"/>
</svg>
