<?xml version="1.0" encoding="UTF-8"?>
<svg xmlns="http://www.w3.org/2000/svg"
 version="1.1" baseProfile="basic"
 viewBox="-11 -127 426 488"
 width="1280px" height="1024px"
 stroke="white" stroke-width="1px"
 fill="black" fill-opacity="0">
<rect x="-11" y="-127" width="426" height="488" stroke-width="0px" fill-opacity="1"/>
<path d="M0 0 L0 0 L5 0 L7.5 -4.33013 L10 0 L15 0 L17.5 -4.33013 L15 -8.66025 L20 -8.66025 L22.5 -12.9904 L25 -8.66025 L30 -8.66025 L27.5 -4.33013 L30 2.66454e-15 L35 2.66454e-15 L37.5 -4.33013 L40 2.66454e-15 L45 2.66454e-15 L47.5 -4.33013 L45 -8.66025 L50 -8.66025 L52.5 -12.9904 L50 -17.3205 L45 -17.3205 L47.5 -21.6506 L45 -25.9808 L50 -25.9808 L52.5 -30.3109 L55 -25.9808 L60 -25.9808 L62.5 -30.3109 L60 -34.641 L65 -34.641 L67.5 -38.9711 L70 -34.641 L75 -34.641 L72.5 -30.3109 L75 -25.9808 L80 -25.9808 L82.5 -30.3109 L85 -25.9808 L90 -25.9808 L87.5 -21.6506 L90 -17.3205 L85 -17.3205 L82.5 -12.9904 L85 -8.66025 L90 -8.66025 L87.5 -4.33013 L90 -8.88178e-16 L95 -8.88178e-16 L97.5 -4.33013 L100 -8.88178e-16 L105 -8.88178e-16 L107.5 -4.33013 L105 -8.66025 L110 -8.66025 L112.5 -12.9904 L115 -8.66025 L120 -8.66025 L117.5 -4.33013 L120 -8.88178e-16 L125 -8.88178e-16 L127.5 -4.33013 L130 -8.88178e-16 L135 -8.88178e-16 L137.5 -4.33013 L135 -8.66025 L140 -8.66025 L142.5 -12.9904 L140 -17.3205 L135 -17.3205 L137.5 -21.6506 L135 -25.9808 L140 -25.9808 L142.5 -30.3109 L145 -25.9808 L150 -25.9808 L152.5 -30.3109 L150 -34.641 L155 -34.641 L157.5 -38.9711 L155 -43.3013 L150 -43.3013 L152.5 -47.6314 L150 -51.9615 L145 -51.9615 L142.5 -47.6314 L140 -51.9615 L135 -51.9615 L137.5 -56.2917 L135 -60.6218 L140 -60.6218 L142.5 -64.9519 L140 -69.282 L135 -69.282 L137.5 -73.6122 L135 -77.9423 L140 -77.9423 L142.5 -82.2724 L145 -77.9423 L150 -77.9423 L152.5 -82.2724 L150 -86.6025 L155 -86.6025 L157.5 -90.9327 L160 -86.6025 L165 -86.6025 L162.5 -82.2724 L165 -77.9423 L170 -77.9423 L172.5 -82.2724 L175 -77.9423 L180 -77.9423 L182.5 -82.2724 L180 -86.6025 L185 -86.6025 L187.5 -90.9327 L185 -95.2628 L180 -95.2628 L182.5 -99.5929 L180 -103.923 L185 -103.923 L187.5 -108.253 L190 -103.923 L195 -103.923 L197.5 -108.253 L195 -112.583 L200 -112.583 L202.5 -116.913 L205 -112.583 L210 -112.583 L207.5 -108.253 L210 -103.923 L215 -103.923 L217.5 -108.253 L220 -103.923 L225 -103.923 L222.5 -99.5929 L225 -95.2628 L220 -95.2628 L217.5 -90.9327 L220 -86.6025 L225 -86.6025 L222.5 -82.2724 L225 -77.9423 L230 -77.9423 L232.5 -82.2724 L235 -77.9423 L240 -77.9423 L242.5 -82.2724 L240 -86.6025 L245 -86.6025 L247.5 -90.9327 L250 -86.6025 L255 -86.6025 L252.5 -82.2724 L255 -77.9423 L260 -77.9423 L262.5 -82.2724 L265 -77.9423 L270 -77.9423 L267.5 -73.6122 L270 -69.282 L265 -69.282 L262.5 -64.9519 L265 -60.6218 L270 -60.6218 L267.5 -56.2917 L270 -51.9615 L265 -51.9615 L262.5 -47.6314 L260 -51.9615 L255 -51.9615 L252.5 -47.6314 L255 -43.3013 L250 -43.3013 L247.5 -38.9711 L250 -34.641 L255 -34.641 L252.5 -30.3109 L255 -25.9808 L260 -25.9808 L262.5 -30.3109 L265 -25.9808 L270 -25.9808 L267.5 -21.6506 L270 -17.3205 L265 -17.3205 L262.5 -12.9904 L265 -8.66025 L270 -8.66025 L267.5 -4.33013 L270 -7.99361e-15 L275 -7.99361e-15 L277.5 -4.33013 L280 -7.99361e-15 L285 -7.99361e-15 L287.5 -4.33013 L285 -8.66025 L290 -8.66025 L292.5 -12.9904 L295 -8.66025 L300 -8.66025 L297.5 -4.33013 L300 -7.99361e-15 L305 -7.99361e-15 L307.5 -4.33013 L310 -7.99361e-15 L315 -7.99361e-15 L317.5 -4.33013 L315 -8.66025 L320 -8.66025 L322.5 -12.9904 L320 -17.3205 L315 -17.3205 L317.5 -21.6506 L315 -25.9808 L320 -25.9808 L322.5 -30.3109 L325 -25.9808 L330 -25.9808 L332.5 -30.3109 L330 -34.641 L335 -34.641 L337.5 -38.9711 L340 -34.641 L345 -34.641 L342.5 -30.3109 L345 -25.9808 L350 -25.9808 L352.5 -30.3109 L355 -25.9808 L360 -25.9808 L357.5 -21.6506 L360 -17.3205 L355 -17.3205 L352.5 -12.9904 L355 -8.66025 L360 -8.66025 L357.5 -4.33013 L360 -7.99361e-15 L365 -7.99361e-15 L367.5 -4.33013 L370 -7.99361e-15 L375 -7.99361e-15 L377.5 -4.33013 L375 -8.66025 L380 -8.66025 L382.5 -12.9904 L385 -8.66025 L390 -8.66025 L387.5 -4.33013 L390 -7.99361e-15 L395 -7.99361e-15 L397.5 -4.33013 L400 -7.99361e-15 L405 -7.99361e-15 L402.5 4.33013 L405 8.66025 L400 8.66025 L397.5 12.9904 L400 17.3205 L405 17.3205 L402.5 21.6506 L405 25.9808 L400 25.9808 L397.5 30.3109 L395 25.9808 L390 25.9808 L387.5 30.3109 L390 34.641 L385 34.641 L382.5 38.9711 L385 43.3013 L390 43.3013 L387.5 47.6314 L390 51.9615 L395 51.9615 L397.5 47.6314 L400 51.9615 L405 51.9615 L402.5 56.2917 L405 60.6218 L400 60.6218 L397.5 64.9519 L400 69.282 L405 69.282 L402.5 73.6122 L405 77.9423 L400 77.9423 L397.5 82.2724 L395 77.9423 L390 77.9423 L387.5 82.2724 L390 86.6025 L385 86.6025 L382.5 90.9327 L380 86.6025 L375 86.6025 L377.5 82.2724 L375 77.9423 L370 77.9423 L367.5 82.2724 L365 77.9423 L360 77.9423 L357.5 82.2724 L360 86.6025 L355 86.6025 L352.5 90.9327 L355 95.2628 L360 95.2628 L357.5 99.5929 L360 103.923 L355 103.923 L352.5 108.253 L350 103.923 L345 103.923 L342.5 108.253 L345 112.583 L340 112.583 L337.5 116.913 L340 121.244 L345 121.244 L342.5 125.574 L345 129.904 L350 129.904 L352.5 125.574 L355 129.904 L360 129.904 L357.5 134.234 L360 138.564 L355 138.564 L352.5 142.894 L355 147.224 L360 147.224 L357.5 151.554 L360 155.885 L365 155.885 L367.5 151.554 L370 155.885 L375 155.885 L377.5 151.554 L375 147.224 L380 147.224 L382.5 142.894 L385 147.224 L390 147.224 L387.5 151.554 L390 155.885 L395 155.885 L397.5 151.554 L400 155.885 L405 155.885 L402.5 160.215 L405 164.545 L400 164.545 L397.5 168.875 L400 173.205 L405 173.205 L402.5 177.535 L405 181.865 L400 181.865 L397.5 186.195 L395 181.865 L390 181.865 L387.5 186.195 L390 190.526 L385 190.526 L382.5 194.856 L385 199.186 L390 199.186 L387.5 203.516 L390 207.846 L395 207.846 L397.5 203.516 L400 207.846 L405 207.846 L402.5 212.176 L405 216.506 L400 216.506 L397.5 220.836 L400 225.167 L405 225.167 L402.5 229.497 L405 233.827 L400 233.827 L397.5 238.157 L395 233.827 L390 233.827 L387.5 238.157 L390 242.487 L385 242.487 L382.5 246.817 L380 242.487 L375 242.487 L377.5 238.157 L375 233.827 L370 233.827 L367.5 238.157 L365 233.827 L360 233.827 L357.5 238.157 L360 242.487 L355 242.487 L352.5 246.817 L355 251.147 L360 251.147 L357.5 255.477 L360 259.808 L355 259.808 L352.5 264.138 L350 259.808 L345 259.808 L342.5 264.138 L345 268.468 L340 268.468 L337.5 272.798 L335 268.468 L330 268.468 L332.5 264.138 L330 259.808 L325 259.808 L322.5 264.138 L320 259.808 L315 259.808 L317.5 255.477 L315 251.147 L320 251.147 L322.5 246.817 L320 242.487 L315 242.487 L317.5 238.157 L315 233.827 L310 233.827 L307.5 238.157 L305 233.827 L300 233.827 L297.5 238.157 L300 242.487 L295 242.487 L292.5 246.817 L290 242.487 L285 242.487 L287.5 238.157 L285 233.827 L280 233.827 L277.5 238.157 L275 233.827 L270 233.827 L267.5 238.157 L270 242.487 L265 242.487 L262.5 246.817 L265 251.147 L270 251.147 L267.5 255.477 L270 259.808 L265 259.808 L262.5 264.138 L260 259.808 L255 259.808 L252.5 264.138 L255 268.468 L250 268.468 L247.5 272.798 L250 277.128 L255 277.128 L252.5 281.458 L255 285.788 L260 285.788 L262.5 281.458 L265 285.788 L270 285.788 L267.5 290.119 L270 294.449 L265 294.449 L262.5 298.779 L265 303.109 L270 303.109 L267.5 307.439 L270 311.769 L265 311.769 L262.5 316.099 L260 311.769 L255 311.769 L252.5 316.099 L255 320.429 L250 320.429 L247.5 324.76 L245 320.429 L240 320.429 L242.5 316.099 L240 311.769 L235 311.769 L232.5 316.099 L230 311.769 L225 311.769 L222.5 316.099 L225 320.429 L220 320.429 L217.5 324.76 L220 329.09 L225 329.09 L222.5 333.42 L225 337.75 L220 337.75 L217.5 342.08 L215 337.75 L210 337.75 L207.5 342.08 L210 346.41 L205 346.41 L202.5 350.74 L200 346.41 L195 346.41 L197.5 342.08 L195 337.75 L190 337.75 L187.5 342.08 L185 337.75 L180 337.75 L182.5 333.42 L180 329.09 L185 329.09 L187.5 324.76 L185 320.429 L180 320.429 L182.5 316.099 L180 311.769 L175 311.769 L172.5 316.099 L170 311.769 L165 311.769 L162.5 316.099 L165 320.429 L160 320.429 L157.5 324.76 L155 320.429 L150 320.429 L152.5 316.099 L150 311.769 L145 311.769 L142.5 316.099 L140 311.769 L135 311.769 L137.5 307.439 L135 303.109 L140 303.109 L142.5 298.779 L140 294.449 L135 294.449 L137.5 290.119 L135 285.788 L140 285.788 L142.5 281.458 L145 285.788 L150 285.788 L152.5 281.458 L150 277.128 L155 277.128 L157.5 272.798 L155 268.468 L150 268.468 L152.5 264.138 L150 259.808 L145 259.808 L142.5 264.138 L140 259.808 L135 259.808 L137.5 255.477 L135 251.147 L140 251.147 L142.5 246.817 L140 242.487 L135 242.487 L137.5 238.157 L135 233.827 L130 233.827 L127.5 238.157 L125 233.827 L120 233.827 L117.5 238.157 L120 242.487 L115 242.487 L112.5 246.817 L110 242.487 L105 242.487 L107.5 238.157 L105 233.827 L100 233.827 L97.5 238.157 L95 233.827 L90 233.827 L87.5 238.157 L90 242.487 L85 242.487 L82.5 246.817 L85 251.147 L90 251.147 L87.5 255.477 L90 259.808 L85 259.808 L82.5 264.138 L80 259.808 L75 259.808 L72.5 264.138 L75 268.468 L70 268.468 L67.5 272.798 L65 268.468 L60 268.468 L62.5 264.138 L60 259.808 L55 259.808 L52.5 264.138 L50 259.808 L45 259.808 L47.5 255.477 L45 251.147 L50 251.147 L52.5 246.817 L50 242.487 L45 242.487 L47.5 238.157 L45 233.827 L40 233.827 L37.5 238.157 L35 233.827 L30 233.827 L27.5 238.157 L30 242.487 L25 242.487 L22.5 246.817 L20 242.487 L15 242.487 L17.5 238.157 L15 233.827 L10 233.827 L7.5 238.157 L5 233.827 L-1.33227e-14 233.827 L2.5 229.497 L-1.77636e-14 225.167 L5 225.167 L7.5 220.836 L5 216.506 L-2.22045e-14 216.506 L2.5 212.176 L-2.66454e-14 207.846 L5 207.846 L7.5 203.516 L10 207.846 L15 207.846 L17.5 203.516 L15 199.186 L20 199.186 L22.5 194.856 L20 190.526 L15 190.526 L17.5 186.195 L15 181.865 L10 181.865 L7.5 186.195 L5 181.865 L-4.88498e-14 181.865 L2.5 177.535 L-5.32907e-14 173.205 L5 173.205 L7.5 168.875 L5 164.545 L-5.77316e-14 164.545 L2.5 160.215 L-6.21725e-14 155.885 L5 155.885 L7.5 151.554 L10 155.885 L15 155.885 L17.5 151.554 L15 147.224 L20 147.224 L22.5 142.894 L25 147.224 L30 147.224 L27.5 151.554 L30 155.885 L35 155.885 L37.5 151.554 L40 155.885 L45 155.885 L47.5 151.554 L45 147.224 L50 147.224 L52.5 142.894 L50 138.564 L45 138.564 L47.5 134.234 L45 129.904 L50 129.904 L52.5 125.574 L55 129.904 L60 129.904 L62.5 125.574 L60 121.244 L65 121.244 L67.5 116.913 L65 112.583 L60 112.583 L62.5 108.253 L60 103.923 L55 103.923 L52.5 108.253 L50 103.923 L45 103.923 L47.5 99.5929 L45 95.2628 L50 95.2628 L52.5 90.9327 L50 86.6025 L45 86.6025 L47.5 82.2724 L45 77.9423 L40 77.9423 L37.5 82.2724 L35 77.9423 L30 77.9423 L27.5 82.2724 L30 86.6025 L25 86.6025 L22.5 90.9327 L20 86.6025 L15 86.6025 L17.5 82.2724 L15 77.9423 L10 77.9423 L7.5 82.2724 L5 77.9423 L-5.59552e-14 77.9423 L2.5 73.6122 L-6.03961e-14 69.282 L5 69.282 L7.5 64.9519 L5 60.6218 L-6.4837e-14 60.6218 L2.5 56.2917 L-6.92779e-14 51.9615 L5 51.9615 L7.5 47.6314 L10 51.9615 L15 51.9615 L17.5 47.6314 L15 43.3013 L20 43.3013 L22.5 38.9711 L20 34.641 L15 34.641 L17.5 30.3109 L15 25.9808 L10 25.9808 L7.5 30.3109 L5 25.9808 L-9.14824e-14 25.9808 L2.5 21.6506 L-9.59233e-14 17.3205 L5 17.3205 L7.5 12.9904 L5 8.66025 L-1.00364e-13 8.66025 L2.5 4.33013 L-1.04805e-13 -3.4639e-14"/>
</svg>
