<?xml version="1.0" encoding="UTF-8"?>
<svg xmlns="http://www.w3.org/2000/svg"
 version="1.1" baseProfile="basic"
 viewBox="-10 -127 425 138"
 width="1280px" height="1024px"
 stroke="white" stroke-width="1px"
 fill="black" fill-opacity="0">
<rect x="-10" y="-127" width="425" height="138" stroke-width="0px" fill-opacity="1"/>
<path d="M0 0 L0 0 L5 0 L7.5 -4.33013 L10 0 L15 0 L17.5 -4.33013 L15 -8.66025 L20 -8.66025 L22.5 -12.9904 L25 -8.66025 L30 -8.66025 L27.5 -4.33013 L30 2.66454e-15 L35 2.66454e-15 L37.5 -4.33013 L40 2.66454e-15 L45 2.66454e-15 L47.5 -4.33013 L45 -8.66025 L50 -8.66025 L52.5 -12.9904 L50 -17.3205 L45 -17.3205 L47.5 -21.6506 L45 -25.9808 L50 -25.9808 L52.5 -30.3109 L55 -25.9808 L60 -25.9808 L62.5 -30.3109 L60 -34.641 L65 -34.641 L67.5 -38.9711 L70 -34.641 L75 -34.641 L72.5 -30.3109 L75 -25.9808 L80 -25.9808 L82.5 -30.3109 L85 -25.9808 L90 -25.9808 L87.5 -21.6506 L90 -17.3205 L85 -17.3205 L82.5 -12.9904 L85 -8.66025 L90 -8.66025 L87.5 -4.33013 L90 -8.88178e-16 L95 -8.88178e-16 L97.5 -4.33013 L100 -8.88178e-16 L105 -8.88178e-16 L107.5 -4.33013 L105 -8.66025 L110 -8.66025 L112.5 -12.9904 L115 -8.66025 L120 -8.66025 L117.5 -4.33013 L120 -8.88178e-16 L125 -8.88178e-16 L127.5 -4.33013 L130 -8.88178e-16 L135 -8.88178e-16 L137.5 -4.33013 L135 -8.66025 L140 -8.66025 L142.5 -12.9904 L140 -17.3205 L135 -17.3205 L137.5 -21.6506 L135 -25.9808 L140 -25.9808 L142.5 -30.3109 L145 -25.9808 L150 -25.9808 L152.5 -30.3109 L150 -34.641 L155 -34.641 L157.5 -38.9711 L155 -43.3013 L150 -43.3013 L152.5 -47.6314 L150 -51.9615 L145 -51.9615 L142.5 -47.6314 L140 -51.9615 L135 -51.9615 L137.5 -56.2917 L135 -60.6218 L140 -60.6218 L142.5 -64.9519 L140 -69.282 L135 -69.282 L137.5 -73.6122 L135 -77.9423 L140 -77.9423 L142.5 -82.2724 L145 -77.9423 L150 -77.9423 L152.5 -82.2724 L150 -86.6025 L155 -86.6025 L157.5 -90.9327 L160 -86.6025 L165 -86.6025 L162.5 -82.2724 L165 -77.9423 L170 -77.9423 L172.5 -82.2724 L175 -77.9423 L180 -77.9423 L182.5 -82.2724 L180 -86.6025 L185 -86.6025 L187.5 -90.9327 L185 -95.2628 L180 -95.2628 L182.5 -99.5929 L180 -103.923 L185 -103.923 L187.5 -108.253 L190 -103.923 L195 -103.923 L197.5 -108.253 L195 -112.583 L200 -112.583 L202.5 -116.913 L205 -112.583 L210 -112.583 L207.5 -108.253 L210 -103.923 L215 -103.923 L217.5 -108.253 L220 -103.923 L225 -103.923 L222.5 -99.5929 L225 -95.2628 L220 -95.2628 L217.5 -90.9327 L220 -86.6025 L225 -86.6025 L222.5 -82.2724 L225 -77.9423 L230 -77.9423 L232.5 -82.2724 L235 -77.9423 L240 -77.9423 L242.5 -82.2724 L240 -86.6025 L245 -86.6025 L247.5 -90.9327 L250 -86.6025 L255 -86.6025 L252.5 -82.2724 L255 -77.9423 L260 -77.9423 L262.5 -82.2724 L265 -77.9423 L270 -77.9423 L267.5 -73.6122 L270 -69.282 L265 -69.282 L262.5 -64.9519 L265 -60.6218 L270 -60.6218 L267.5 -56.2917 L270 -51.9615 L265 -51.9615 L262.5 -47.6314 L260 -51.9615 L255 -51.9615 L252.5 -47.6314 L255 -43.3013 L250 -43.3013 L247.5 -38.9711 L250 -34.641 L255 -34.641 L252.5 -30.3109 L255 -25.9808 L260 -25.9808 L262.5 -30.3109 L265 -25.9808 L270 -25.9808 L267.5 -21.6506 L270 -17.3205 L265 -17.3205 L262.5 -12.9904 L265 -8.66025 L270 -8.66025 L267.5 -4.33013 L270 -7.99361e-15 L275 -7.99361e-15 L277.5 -4.33013 L280 -7.99361e-15 L285 -7.99361e-15 L287.5 -4.33013 L285 -8.66025 L290 -8.66025 L292.5 -12.9904 L295 -8.66025 L300 -8.66025 L297.5 -4.33013 L300 -7.99361e-15 L305 -7.99361e-15 L307.5 -4.33013 L310 -7.99361e-15 L315 -7.99361e-15 L317.5 -4.33013 L315 -8.66025 L320 -8.66025 L322.5 -12.9904 L320 -17.3205 L315 -17.3205 L317.5 -21.6506 L315 -25.9808 L320 -25.9808 L322.5 -30.3109 L325 -25.9808 L330 -25.9808 L332.5 -30.3109 L330 -34.641 L335 -34.641 L337.5 -38.9711 L340 -34.641 L345 -34.641 L342.5 -30.3109 L345 -25.9808 L350 -25.9808 L352.5 -30.3109 L355 -25.9808 L360 -25.9808 L357.5 -21.6506 L360 -17.3205 L355 -17.3205 L352.5 -12.9904 L355 -8.66025 L360 -8.66025 L357.5 -4.33013 L360 -7.99361e-15 L365 -7.99361e-15 L367.5 -4.33013 L370 -7.99361e-15 L375 -7.99361e-15 L377.5 -4.33013 L375 -8.66025 L380 -8.66025 L382.5 -12.9904 L385 -8.66025 L390 -8.66025 L387.5 -4.33013 L390 -7.99361e-15 L395 -7.99361e-15 L397.5 -4.33013 L400 -7.99361e-15 L405 -7.99361e-15"/>
</svg>
