<?xml version="1.0" encoding="UTF-8"?>
<svg xmlns="http://www.w3.org/2000/svg"
 version="1.1" baseProfile="basic"
 viewBox="-11 -49 156 176"
 width="1280px" height="1024px"
 stroke="white" stroke-width="1px"
 fill="black" fill-opacity="0">
<rect x="-11" y="-49" width="156" height="176" stroke-width="0px" fill-opacity="1"/>
<path d="M0 0 L0 0 L5 0 L7.5 -4.33013 L10 0 L15 0 L17.5 -4.33013 L15 -8.66025 L20 -8.66025 L22.5 -12.9904 L25 -8.66025 L30 -8.66025 L27.5 -4.33013 L30 2.66454e-15 L35 2.66454e-15 L37.5 -4.33013 L40 2.66454e-15 L45 2.66454e-15 L47.5 -4.33013 L45 -8.66025 L50 -8.66025 L52.5 -12.9904 L50 -17.3205 L45 -17.3205 L47.5 -21.6506 L45 -25.9808 L50 -25.9808 L52.5 -30.3109 L55 -25.9808 L60 -25.9808 L62.5 -30.3109 L60 -34.641 L65 -34.641 L67.5 -38.9711 L70 -34.641 L75 -34.641 L72.5 -30.3109 L75 -25.9808 L80 -25.9808 L82.5 -30.3109 L85 -25.9808 L90 -25.9808 L87.5 -21.6506 L90 -17.3205 L85 -17.3205 L82.5 -12.9904 L85 -8.66025 L90 -8.66025 L87.5 -4.33013 L90 -8.88178e-16 L95 -8.88178e-16 L97.5 -4.33013 L100 -8.88178e-16 L105 -8.88178e-16 L107.5 -4.33013 L105 -8.66025 L110 -8.66025 L112.5 -12.9904 L115 -8.66025 L120 -8.66025 L117.5 -4.33013 L120 -8.88178e-16 L125 -8.88178e-16 L127.5 -4.33013 L130 -8.88178e-16 L135 -8.88178e-16 L132.5 4.33013 L135 8.66025 L130 8.66025 L127.5 12.9904 L130 17.3205 L135 17.3205 L132.5 21.6506 L135 25.9808 L130 25.9808 L127.5 30.3109 L125 25.9808 L120 25.9808 L117.5 30.3109 L120 34.641 L115 34.641 L112.5 38.9711 L115 43.3013 L120 43.3013 L117.5 47.6314 L120 51.9615 L125 51.9615 L127.5 47.6314 L130 51.9615 L135 51.9615 L132.5 56.2917 L135 60.6218 L130 60.6218 L127.5 64.9519 L130 69.282 L135 69.282 L132.5 73.6122 L135 77.9423 L130 77.9423 L127.5 82.2724 L125 77.9423 L120 77.9423 L117.5 82.2724 L120 86.6025 L115 86.6025 L112.5 90.9327 L110 86.6025 L105 86.6025 L107.5 82.2724 L105 77.9423 L100 77.9423 L97.5 82.2724 L95 77.9423 L90 77.9423 L87.5 82.2724 L90 86.6025 L85 86.6025 L82.5 90.9327 L85 95.2628 L90 95.2628 L87.5 99.5929 L90 103.923 L85 103.923 L82.5 108.253 L80 103.923 L75 103.923 L72.5 108.253 L75 112.583 L70 112.583 L67.5 116.913 L65 112.583 L60 112.583 L62.5 108.253 L60 103.923 L55 103.923 L52.5 108.253 L50 103.923 L45 103.923 L47.5 99.5929 L45 95.2628 L50 95.2628 L52.5 90.9327 L50 86.6025 L45 86.6025 L47.5 82.2724 L45 77.9423 L40 77.9423 L37.5 82.2724 L35 77.9423 L30 77.9423 L27.5 82.2724 L30 86.6025 L25 86.6025 L22.5 90.9327 L20 86.6025 L15 86.6025 L17.5 82.2724 L15 77.9423 L10 77.9423 L7.5 82.2724 L5 77.9423 L-1.33227e-14 77.9423 L2.5 73.6122 L-1.77636e-14 69.282 L5 69.282 L7.5 64.9519 L5 60.6218 L-2.22045e-14 60.6218 L2.5 56.2917 L-2.66454e-14 51.9615 L5 51.9615 L7.5 47.6314 L10 51.9615 L15 51.9615 L17.5 47.6314 L15 43.3013 L20 43.3013 L22.5 38.9711 L20 34.641 L15 34.641 L17.5 30.3109 L15 25.9808 L10 25.9808 L7.5 30.3109 L5 25.9808 L-4.88498e-14 25.9808 L2.5 21.6506 L-5.32907e-14 17.3205 L5 17.3205 L7.5 12.9904 L5 8.66025 L-5.77316e-14 8.66025 L2.5 4.33013 L-6.21725e-14 -2.04281e-14"/>
</svg>
