<?xml version="1.0" encoding="UTF-8"?>
<svg xmlns="http://www.w3.org/2000/svg"
 version="1.1" baseProfile="basic"
 viewBox="-11 -361 1236 1424"
 width="1280px" height="1024px"
 stroke="white" stroke-width="1px"
 fill="black" fill-opacity="0">
<rect x="-11" y="-361" width="1236" height="1424" stroke-width="0px" fill-opacity="1"/>
<path d="M0 0 L0 0 L5 0 L7.5 -4.33013 L10 0 L15 0 L17.5 -4.33013 L15 -8.66025 L20 -8.66025 L22.5 -12.9904 L25 -8.66025 L30 -8.66025 L27.5 -4.33013 L30 2.66454e-15 L35 2.66454e-15 L37.5 -4.33013 L40 2.66454e-15 L45 2.66454e-15 L47.5 -4.33013 L45 -8.66025 L50 -8.66025 L52.5 -12.9904 L50 -17.3205 L45 -17.3205 L47.5 -21.6506 L45 -25.9808 L50 -25.9808 L52.5 -30.3109 L55 -25.9808 L60 -25.9808 L62.5 -30.3109 L60 -34.641 L65 -34.641 L67.5 -38.9711 L70 -34.641 L75 -34.641 L72.5 -30.3109 L75 -25.9808 L80 -25.9808 L82.5 -30.3109 L85 -25.9808 L90 -25.9808 L87.5 -21.6506 L90 -17.3205 L85 -17.3205 L82.5 -12.9904 L85 -8.66025 L90 -8.66025 L87.5 -4.33013 L90 -8.88178e-16 L95 -8.88178e-16 L97.5 -4.33013 L100 -8.88178e-16 L105 -8.88178e-16 L107.5 -4.33013 L105 -8.66025 L110 -8.66025 L112.5 -12.9904 L115 -8.66025 L120 -8.66025 L117.5 -4.33013 L120 -8.88178e-16 L125 -8.88178e-16 L127.5 -4.33013 L130 -8.88178e-16 L135 -8.88178e-16 L137.5 -4.33013 L135 -8.66025 L140 -8.66025 L142.5 -12.9904 L140 -17.3205 L135 -17.3205 L137.5 -21.6506 L135 -25.9808 L140 -25.9808 L142.5 -30.3109 L145 -25.9808 L150 -25.9808 L152.5 -30.3109 L150 -34.641 L155 -34.641 L157.5 -38.9711 L155 -43.3013 L150 -43.3013 L152.5 -47.6314 L150 -51.9615 L145 -51.9615 L142.5 -47.6314 L140 -51.9615 L135 -51.9615 L137.5 -56.2917 L135 -60.6218 L140 -60.6218 L142.5 -64.9519 L140 -69.282 L135 -69.282 L137.5 -73.6122 L135 -77.9423 L140 -77.9423 L142.5 -82.2724 L145 -77.9423 L150 -77.9423 L152.5 -82.2724 L150 -86.6025 L155 -86.6025 L157.5 -90.9327 L160 -86.6025 L165 -86.6025 L162.5 -82.2724 L165 -77.9423 L170 -77.9423 L172.5 -82.2724 L175 -77.9423 L180 -77.9423 L182.5 -82.2724 L180 -86.6025 L185 -86.6025 L187.5 -90.9327 L185 -95.2628 L180 -95.2628 L182.5 -99.5929 L180 -103.923 L185 -103.923 L187.5 -108.253 L190 -103.923 L195 -103.923 L197.5 -108.253 L195 -112.583 L200 -112.583 L202.5 -116.913 L205 -112.583 L210 -112.583 L207.5 -108.253 L210 -103.923 L215 -103.923 L217.5 -108.253 L220 -103.923 L225 -103.923 L222.5 -99.5929 L225 -95.2628 L220 -95.2628 L217.5 -90.9327 L220 -86.6025 L225 -86.6025 L222.5 -82.2724 L225 -77.9423 L230 -77.9423 L232.5 -82.2724 L235 -77.9423 L240 -77.9423 L242.5 -82.2724 L240 -86.6025 L245 -86.6025 L247.5 -90.9327 L250 -86.6025 L255 -86.6025 L252.5 -82.2724 L255 -77.9423 L260 -77.9423 L262.5 -82.2724 L265 -77.9423 L270 -77.9423 L267.5 -73.6122 L270 -69.282 L265 -69.282 L262.5 -64.9519 L265 -60.6218 L270 -60.6218 L267.5 -56.2917 L270 -51.9615 L265 -51.9615 L262.5 -47.6314 L260 -51.9615 L255 -51.9615 L252.5 -47.6314 L255 -43.3013 L250 -43.3013 L247.5 -38.9711 L250 -34.641 L255 -34.641 L252.5 -30.3109 L255 -25.9808 L260 -25.9808 L262.5 -30.3109 L265 -25.9808 L270 -25.9808 L267.5 -21.6506 L270 -17.3205 L265 -17.3205 L262.5 -12.9904 L265 -8.66025 L270 -8.66025 L267.5 -4.33013 L270 -7.99361e-15 L275 -7.99361e-15 L277.5 -4.33013 L280 -7.99361e-15 L285 -7.99361e-15 L287.5 -4.33013 L285 -8.66025 L290 -8.66025 L292.5 -12.9904 L295 -8.66025 L300 -8.66025 L297.5 -4.33013 L300 -7.99361e-15 L305 -7.99361e-15 L307.5 -4.33013 L310 -7.99361e-15 L315 -7.99361e-15 L317.5 -4.33013 L315 -8.66025 L320 -8.66025 L322.5 -12.9904 L320 -17.3205 L315 -17.3205 L317.5 -21.6506 L315 -25.9808 L320 -25.9808 L322.5 -30.3109 L325 -25.9808 L330 -25.9808 L332.5 -30.3109 L330 -34.641 L335 -34.641 L337.5 -38.9711 L340 -34.641 L345 -34.641 L342.5 -30.3109 L345 -25.9808 L350 -25.9808 L352.5 -30.3109 L355 -25.9808 L360 -25.9808 L357.5 -21.6506 L360 -17.3205 L355 -17.3205 L352.5 -12.9904 L355 -8.66025 L360 -8.66025 L357.5 -4.33013 L360 -7.99361e-15 L365 -7.99361e-15 L367.5 -4.33013 L370 -7.99361e-15 L375 -7.99361e-15 L377.5 -4.33013 L375 -8.66025 L380 -8.66025 L382.5 -12.9904 L385 -8.66025 L390 -8.66025 L387.5 -4.33013 L390 -7.99361e-15 L395 -7.99361e-15 L397.5 -4.33013 L400 -7.99361e-15 L405 -7.99361e-15 L407.5 -4.33013 L405 -8.66025 L410 -8.66025 L412.5 -12.9904 L410 -17.3205 L405 -17.3205 L407.5 -21.6506 L405 -25.9808 L410 -25.9808 L412.5 -30.3109 L415 -25.9808 L420 -25.9808 L422.5 -30.3109 L420 -34.641 L425 -34.641 L427.5 -38.9711 L425 -43.3013 L420 -43.3013 L422.5 -47.6314 L420 -51.9615 L415 -51.9615 L412.5 -47.6314 L410 -51.9615 L405 -51.9615 L407.5 -56.2917 L405 -60.6218 L410 -60.6218 L412.5 -64.9519 L410 -69.282 L405 -69.282 L407.5 -73.6122 L405 -77.9423 L410 -77.9423 L412.5 -82.2724 L415 -77.9423 L420 -77.9423 L422.5 -82.2724 L420 -86.6025 L425 -86.6025 L427.5 -90.9327 L430 -86.6025 L435 -86.6025 L432.5 -82.2724 L435 -77.9423 L440 -77.9423 L442.5 -82.2724 L445 -77.9423 L450 -77.9423 L452.5 -82.2724 L450 -86.6025 L455 -86.6025 L457.5 -90.9327 L455 -95.2628 L450 -95.2628 L452.5 -99.5929 L450 -103.923 L455 -103.923 L457.5 -108.253 L460 -103.923 L465 -103.923 L467.5 -108.253 L465 -112.583 L470 -112.583 L472.5 -116.913 L470 -121.244 L465 -121.244 L467.5 -125.574 L465 -129.904 L460 -129.904 L457.5 -125.574 L455 -129.904 L450 -129.904 L452.5 -134.234 L450 -138.564 L455 -138.564 L457.5 -142.894 L455 -147.224 L450 -147.224 L452.5 -151.554 L450 -155.885 L445 -155.885 L442.5 -151.554 L440 -155.885 L435 -155.885 L432.5 -151.554 L435 -147.224 L430 -147.224 L427.5 -142.894 L425 -147.224 L420 -147.224 L422.5 -151.554 L420 -155.885 L415 -155.885 L412.5 -151.554 L410 -155.885 L405 -155.885 L407.5 -160.215 L405 -164.545 L410 -164.545 L412.5 -168.875 L410 -173.205 L405 -173.205 L407.5 -177.535 L405 -181.865 L410 -181.865 L412.5 -186.195 L415 -181.865 L420 -181.865 L422.5 -186.195 L420 -190.526 L425 -190.526 L427.5 -194.856 L425 -199.186 L420 -199.186 L422.5 -203.516 L420 -207.846 L415 -207.846 L412.5 -203.516 L410 -207.846 L405 -207.846 L407.5 -212.176 L405 -216.506 L410 -216.506 L412.5 -220.836 L410 -225.167 L405 -225.167 L407.5 -229.497 L405 -233.827 L410 -233.827 L412.5 -238.157 L415 -233.827 L420 -233.827 L422.5 -238.157 L420 -242.487 L425 -242.487 L427.5 -246.817 L430 -242.487 L435 -242.487 L432.5 -238.157 L435 -233.827 L440 -233.827 L442.5 -238.157 L445 -233.827 L450 -233.827 L452.5 -238.157 L450 -242.487 L455 -242.487 L457.5 -246.817 L455 -251.147 L450 -251.147 L452.5 -255.477 L450 -259.808 L455 -259.808 L457.5 -264.138 L460 -259.808 L465 -259.808 L467.5 -264.138 L465 -268.468 L470 -268.468 L472.5 -272.798 L475 -268.468 L480 -268.468 L477.5 -264.138 L480 -259.808 L485 -259.808 L487.5 -264.138 L490 -259.808 L495 -259.808 L492.5 -255.477 L495 -251.147 L490 -251.147 L487.5 -246.817 L490 -242.487 L495 -242.487 L492.5 -238.157 L495 -233.827 L500 -233.827 L502.5 -238.157 L505 -233.827 L510 -233.827 L512.5 -238.157 L510 -242.487 L515 -242.487 L517.5 -246.817 L520 -242.487 L525 -242.487 L522.5 -238.157 L525 -233.827 L530 -233.827 L532.5 -238.157 L535 -233.827 L540 -233.827 L542.5 -238.157 L540 -242.487 L545 -242.487 L547.5 -246.817 L545 -251.147 L540 -251.147 L542.5 -255.477 L540 -259.808 L545 -259.808 L547.5 -264.138 L550 -259.808 L555 -259.808 L557.5 -264.138 L555 -268.468 L560 -268.468 L562.5 -272.798 L560 -277.128 L555 -277.128 L557.5 -281.458 L555 -285.788 L550 -285.788 L547.5 -281.458 L545 -285.788 L540 -285.788 L542.5 -290.119 L540 -294.449 L545 -294.449 L547.5 -298.779 L545 -303.109 L540 -303.109 L542.5 -307.439 L540 -311.769 L545 -311.769 L547.5 -316.099 L550 -311.769 L555 -311.769 L557.5 -316.099 L555 -320.429 L560 -320.429 L562.5 -324.76 L565 -320.429 L570 -320.429 L567.5 -316.099 L570 -311.769 L575 -311.769 L577.5 -316.099 L580 -311.769 L585 -311.769 L587.5 -316.099 L585 -320.429 L590 -320.429 L592.5 -324.76 L590 -329.09 L585 -329.09 L587.5 -333.42 L585 -337.75 L590 -337.75 L592.5 -342.08 L595 -337.75 L600 -337.75 L602.5 -342.08 L600 -346.41 L605 -346.41 L607.5 -350.74 L610 -346.41 L615 -346.41 L612.5 -342.08 L615 -337.75 L620 -337.75 L622.5 -342.08 L625 -337.75 L630 -337.75 L627.5 -333.42 L630 -329.09 L625 -329.09 L622.5 -324.76 L625 -320.429 L630 -320.429 L627.5 -316.099 L630 -311.769 L635 -311.769 L637.5 -316.099 L640 -311.769 L645 -311.769 L647.5 -316.099 L645 -320.429 L650 -320.429 L652.5 -324.76 L655 -320.429 L660 -320.429 L657.5 -316.099 L660 -311.769 L665 -311.769 L667.5 -316.099 L670 -311.769 L675 -311.769 L672.5 -307.439 L675 -303.109 L670 -303.109 L667.5 -298.779 L670 -294.449 L675 -294.449 L672.5 -290.119 L675 -285.788 L670 -285.788 L667.5 -281.458 L665 -285.788 L660 -285.788 L657.5 -281.458 L660 -277.128 L655 -277.128 L652.5 -272.798 L655 -268.468 L660 -268.468 L657.5 -264.138 L660 -259.808 L665 -259.808 L667.5 -264.138 L670 -259.808 L675 -259.808 L672.5 -255.477 L675 -251.147 L670 -251.147 L667.5 -246.817 L670 -242.487 L675 -242.487 L672.5 -238.157 L675 -233.827 L680 -233.827 L682.5 -238.157 L685 -233.827 L690 -233.827 L692.5 -238.157 L690 -242.487 L695 -242.487 L697.5 -246.817 L700 -242.487 L705 -242.487 L702.5 -238.157 L705 -233.827 L710 -233.827 L712.5 -238.157 L715 -233.827 L720 -233.827 L722.5 -238.157 L720 -242.487 L725 -242.487 L727.5 -246.817 L725 -251.147 L720 -251.147 L722.5 -255.477 L720 -259.808 L725 -259.808 L727.5 -264.138 L730 -259.808 L735 -259.808 L737.5 -264.138 L735 -268.468 L740 -268.468 L742.5 -272.798 L745 -268.468 L750 -268.468 L747.5 -264.138 L750 -259.808 L755 -259.808 L757.5 -264.138 L760 -259.808 L765 -259.808 L762.5 -255.477 L765 -251.147 L760 -251.147 L757.5 -246.817 L760 -242.487 L765 -242.487 L762.5 -238.157 L765 -233.827 L770 -233.827 L772.5 -238.157 L775 -233.827 L780 -233.827 L782.5 -238.157 L780 -242.487 L785 -242.487 L787.5 -246.817 L790 -242.487 L795 -242.487 L792.5 -238.157 L795 -233.827 L800 -233.827 L802.5 -238.157 L805 -233.827 L810 -233.827 L807.5 -229.497 L810 -225.167 L805 -225.167 L802.5 -220.836 L805 -216.506 L810 -216.506 L807.5 -212.176 L810 -207.846 L805 -207.846 L802.5 -203.516 L800 -207.846 L795 -207.846 L792.5 -203.516 L795 -199.186 L790 -199.186 L787.5 -194.856 L790 -190.526 L795 -190.526 L792.5 -186.195 L795 -181.865 L800 -181.865 L802.5 -186.195 L805 -181.865 L810 -181.865 L807.5 -177.535 L810 -173.205 L805 -173.205 L802.5 -168.875 L805 -164.545 L810 -164.545 L807.5 -160.215 L810 -155.885 L805 -155.885 L802.5 -151.554 L800 -155.885 L795 -155.885 L792.5 -151.554 L795 -147.224 L790 -147.224 L787.5 -142.894 L785 -147.224 L780 -147.224 L782.5 -151.554 L780 -155.885 L775 -155.885 L772.5 -151.554 L770 -155.885 L765 -155.885 L762.5 -151.554 L765 -147.224 L760 -147.224 L757.5 -142.894 L760 -138.564 L765 -138.564 L762.5 -134.234 L765 -129.904 L760 -129.904 L757.5 -125.574 L755 -129.904 L750 -129.904 L747.5 -125.574 L750 -121.244 L745 -121.244 L742.5 -116.913 L745 -112.583 L750 -112.583 L747.5 -108.253 L750 -103.923 L755 -103.923 L757.5 -108.253 L760 -103.923 L765 -103.923 L762.5 -99.5929 L765 -95.2628 L760 -95.2628 L757.5 -90.9327 L760 -86.6025 L765 -86.6025 L762.5 -82.2724 L765 -77.9423 L770 -77.9423 L772.5 -82.2724 L775 -77.9423 L780 -77.9423 L782.5 -82.2724 L780 -86.6025 L785 -86.6025 L787.5 -90.9327 L790 -86.6025 L795 -86.6025 L792.5 -82.2724 L795 -77.9423 L800 -77.9423 L802.5 -82.2724 L805 -77.9423 L810 -77.9423 L807.5 -73.6122 L810 -69.282 L805 -69.282 L802.5 -64.9519 L805 -60.6218 L810 -60.6218 L807.5 -56.2917 L810 -51.9615 L805 -51.9615 L802.5 -47.6314 L800 -51.9615 L795 -51.9615 L792.5 -47.6314 L795 -43.3013 L790 -43.3013 L787.5 -38.9711 L790 -34.641 L795 -34.641 L792.5 -30.3109 L795 -25.9808 L800 -25.9808 L802.5 -30.3109 L805 -25.9808 L810 -25.9808 L807.5 -21.6506 L810 -17.3205 L805 -17.3205 L802.5 -12.9904 L805 -8.66025 L810 -8.66025 L807.5 -4.33013 L810 -5.06262e-14 L815 -5.06262e-14 L817.5 -4.33013 L820 -5.06262e-14 L825 -5.06262e-14 L827.5 -4.33013 L825 -8.66025 L830 -8.66025 L832.5 -12.9904 L835 -8.66025 L840 -8.66025 L837.5 -4.33013 L840 -5.06262e-14 L845 -5.06262e-14 L847.5 -4.33013 L850 -5.06262e-14 L855 -5.06262e-14 L857.5 -4.33013 L855 -8.66025 L860 -8.66025 L862.5 -12.9904 L860 -17.3205 L855 -17.3205 L857.5 -21.6506 L855 -25.9808 L860 -25.9808 L862.5 -30.3109 L865 -25.9808 L870 -25.9808 L872.5 -30.3109 L870 -34.641 L875 -34.641 L877.5 -38.9711 L880 -34.641 L885 -34.641 L882.5 -30.3109 L885 -25.9808 L890 -25.9808 L892.5 -30.3109 L895 -25.9808 L900 -25.9808 L897.5 -21.6506 L900 -17.3205 L895 -17.3205 L892.5 -12.9904 L895 -8.66025 L900 -8.66025 L897.5 -4.33013 L900 -5.06262e-14 L905 -5.06262e-14 L907.5 -4.33013 L910 -5.06262e-14 L915 -5.06262e-14 L917.5 -4.33013 L915 -8.66025 L920 -8.66025 L922.5 -12.9904 L925 -8.66025 L930 -8.66025 L927.5 -4.33013 L930 -5.06262e-14 L935 -5.06262e-14 L937.5 -4.33013 L940 -5.06262e-14 L945 -5.06262e-14 L947.5 -4.33013 L945 -8.66025 L950 -8.66025 L952.5 -12.9904 L950 -17.3205 L945 -17.3205 L947.5 -21.6506 L945 -25.9808 L950 -25.9808 L952.5 -30.3109 L955 -25.9808 L960 -25.9808 L962.5 -30.3109 L960 -34.641 L965 -34.641 L967.5 -38.9711 L965 -43.3013 L960 -43.3013 L962.5 -47.6314 L960 -51.9615 L955 -51.9615 L952.5 -47.6314 L950 -51.9615 L945 -51.9615 L947.5 -56.2917 L945 -60.6218 L950 -60.6218 L952.5 -64.9519 L950 -69.282 L945 -69.282 L947.5 -73.6122 L945 -77.9423 L950 -77.9423 L952.5 -82.2724 L955 -77.9423 L960 -77.9423 L962.5 -82.2724 L960 -86.6025 L965 -86.6025 L967.5 -90.9327 L970 -86.6025 L975 -86.6025 L972.5 -82.2724 L975 -77.9423 L980 -77.9423 L982.5 -82.2724 L985 -77.9423 L990 -77.9423 L992.5 -82.2724 L990 -86.6025 L995 -86.6025 L997.5 -90.9327 L995 -95.2628 L990 -95.2628 L992.5 -99.5929 L990 -103.923 L995 -103.923 L997.5 -108.253 L1000 -103.923 L1005 -103.923 L1007.5 -108.253 L1005 -112.583 L1010 -112.583 L1012.5 -116.913 L1015 -112.583 L1020 -112.583 L1017.5 -108.253 L1020 -103.923 L1025 -103.923 L1027.5 -108.253 L1030 -103.923 L1035 -103.923 L1032.5 -99.5929 L1035 -95.2628 L1030 -95.2628 L1027.5 -90.9327 L1030 -86.6025 L1035 -86.6025 L1032.5 -82.2724 L1035 -77.9423 L1040 -77.9423 L1042.5 -82.2724 L1045 -77.9423 L1050 -77.9423 L1052.5 -82.2724 L1050 -86.6025 L1055 -86.6025 L1057.5 -90.9327 L1060 -86.6025 L1065 -86.6025 L1062.5 -82.2724 L1065 -77.9423 L1070 -77.9423 L1072.5 -82.2724 L1075 -77.9423 L1080 -77.9423 L1077.5 -73.6122 L1080 -69.282 L1075 -69.282 L1072.5 -64.9519 L1075 -60.6218 L1080 -60.6218 L1077.5 -56.2917 L1080 -51.9615 L1075 -51.9615 L1072.5 -47.6314 L1070 -51.9615 L1065 -51.9615 L1062.5 -47.6314 L1065 -43.3013 L1060 -43.3013 L1057.5 -38.9711 L1060 -34.641 L1065 -34.641 L1062.5 -30.3109 L1065 -25.9808 L1070 -25.9808 L1072.5 -30.3109 L1075 -25.9808 L1080 -25.9808 L1077.5 -21.6506 L1080 -17.3205 L1075 -17.3205 L1072.5 -12.9904 L1075 -8.66025 L1080 -8.66025 L1077.5 -4.33013 L1080 -6.4837e-14 L1085 -6.4837e-14 L1087.5 -4.33013 L1090 -6.4837e-14 L1095 -6.4837e-14 L1097.5 -4.33013 L1095 -8.66025 L1100 -8.66025 L1102.5 -12.9904 L1105 -8.66025 L1110 -8.66025 L1107.5 -4.33013 L1110 -6.4837e-14 L1115 -6.4837e-14 L1117.5 -4.33013 L1120 -6.4837e-14 L1125 -6.4837e-14 L1127.5 -4.33013 L1125 -8.66025 L1130 -8.66025 L1132.5 -12.9904 L1130 -17.3205 L1125 -17.3205 L1127.5 -21.6506 L1125 -25.9808 L1130 -25.9808 L1132.5 -30.3109 L1135 -25.9808 L1140 -25.9808 L1142.5 -30.3109 L1140 -34.641 L1145 -34.641 L1147.5 -38.9711 L1150 -34.641 L1155 -34.641 L1152.5 -30.3109 L1155 -25.9808 L1160 -25.9808 L1162.5 -30.3109 L1165 -25.9808 L1170 -25.9808 L1167.5 -21.6506 L1170 -17.3205 L1165 -17.3205 L1162.5 -12.9904 L1165 -8.66025 L1170 -8.66025 L1167.5 -4.33013 L1170 -6.4837e-14 L1175 -6.4837e-14 L1177.5 -4.33013 L1180 -6.4837e-14 L1185 -6.4837e-14 L1187.5 -4.33013 L1185 -8.66025 L1190 -8.66025 L1192.5 -12.9904 L1195 -8.66025 L1200 -8.66025 L1197.5 -4.33013 L1200 -6.4837e-14 L1205 -6.4837e-14 L1207.5 -4.33013 L1210 -6.4837e-14 L1215 -6.4837e-14 L1212.5 4.33013 L1215 8.66025 L1210 8.66025 L1207.5 12.9904 L1210 17.3205 L1215 17.3205 L1212.5 21.6506 L1215 25.9808 L1210 25.9808 L1207.5 30.3109 L1205 25.9808 L1200 25.9808 L1197.5 30.3109 L1200 34.641 L1195 34.641 L1192.5 38.9711 L1195 43.3013 L1200 43.3013 L1197.5 47.6314 L1200 51.9615 L1205 51.9615 L1207.5 47.6314 L1210 51.9615 L1215 51.9615 L1212.5 56.2917 L1215 60.6218 L1210 60.6218 L1207.5 64.9519 L1210 69.282 L1215 69.282 L1212.5 73.6122 L1215 77.9423 L1210 77.9423 L1207.5 82.2724 L1205 77.9423 L1200 77.9423 L1197.5 82.2724 L1200 86.6025 L1195 86.6025 L1192.5 90.9327 L1190 86.6025 L1185 86.6025 L1187.5 82.2724 L1185 77.9423 L1180 77.9423 L1177.5 82.2724 L1175 77.9423 L1170 77.9423 L1167.5 82.2724 L1170 86.6025 L1165 86.6025 L1162.5 90.9327 L1165 95.2628 L1170 95.2628 L1167.5 99.5929 L1170 103.923 L1165 103.923 L1162.5 108.253 L1160 103.923 L1155 103.923 L1152.5 108.253 L1155 112.583 L1150 112.583 L1147.5 116.913 L1150 121.244 L1155 121.244 L1152.5 125.574 L1155 129.904 L1160 129.904 L1162.5 125.574 L1165 129.904 L1170 129.904 L1167.5 134.234 L1170 138.564 L1165 138.564 L1162.5 142.894 L1165 147.224 L1170 147.224 L1167.5 151.554 L1170 155.885 L1175 155.885 L1177.5 151.554 L1180 155.885 L1185 155.885 L1187.5 151.554 L1185 147.224 L1190 147.224 L1192.5 142.894 L1195 147.224 L1200 147.224 L1197.5 151.554 L1200 155.885 L1205 155.885 L1207.5 151.554 L1210 155.885 L1215 155.885 L1212.5 160.215 L1215 164.545 L1210 164.545 L1207.5 168.875 L1210 173.205 L1215 173.205 L1212.5 177.535 L1215 181.865 L1210 181.865 L1207.5 186.195 L1205 181.865 L1200 181.865 L1197.5 186.195 L1200 190.526 L1195 190.526 L1192.5 194.856 L1195 199.186 L1200 199.186 L1197.5 203.516 L1200 207.846 L1205 207.846 L1207.5 203.516 L1210 207.846 L1215 207.846 L1212.5 212.176 L1215 216.506 L1210 216.506 L1207.5 220.836 L1210 225.167 L1215 225.167 L1212.5 229.497 L1215 233.827 L1210 233.827 L1207.5 238.157 L1205 233.827 L1200 233.827 L1197.5 238.157 L1200 242.487 L1195 242.487 L1192.5 246.817 L1190 242.487 L1185 242.487 L1187.5 238.157 L1185 233.827 L1180 233.827 L1177.5 238.157 L1175 233.827 L1170 233.827 L1167.5 238.157 L1170 242.487 L1165 242.487 L1162.5 246.817 L1165 251.147 L1170 251.147 L1167.5 255.477 L1170 259.808 L1165 259.808 L1162.5 264.138 L1160 259.808 L1155 259.808 L1152.5 264.138 L1155 268.468 L1150 268.468 L1147.5 272.798 L1145 268.468 L1140 268.468 L1142.5 264.138 L1140 259.808 L1135 259.808 L1132.5 264.138 L1130 259.808 L1125 259.808 L1127.5 255.477 L1125 251.147 L1130 251.147 L1132.5 246.817 L1130 242.487 L1125 242.487 L1127.5 238.157 L1125 233.827 L1120 233.827 L1117.5 238.157 L1115 233.827 L1110 233.827 L1107.5 238.157 L1110 242.487 L1105 242.487 L1102.5 246.817 L1100 242.487 L1095 242.487 L1097.5 238.157 L1095 233.827 L1090 233.827 L1087.5 238.157 L1085 233.827 L1080 233.827 L1077.5 238.157 L1080 242.487 L1075 242.487 L1072.5 246.817 L1075 251.147 L1080 251.147 L1077.5 255.477 L1080 259.808 L1075 259.808 L1072.5 264.138 L1070 259.808 L1065 259.808 L1062.5 264.138 L1065 268.468 L1060 268.468 L1057.5 272.798 L1060 277.128 L1065 277.128 L1062.5 281.458 L1065 285.788 L1070 285.788 L1072.5 281.458 L1075 285.788 L1080 285.788 L1077.5 290.119 L1080 294.449 L1075 294.449 L1072.5 298.779 L1075 303.109 L1080 303.109 L1077.5 307.439 L1080 311.769 L1075 311.769 L1072.5 316.099 L1070 311.769 L1065 311.769 L1062.5 316.099 L1065 320.429 L1060 320.429 L1057.5 324.76 L1055 320.429 L1050 320.429 L1052.5 316.099 L1050 311.769 L1045 311.769 L1042.5 316.099 L1040 311.769 L1035 311.769 L1032.5 316.099 L1035 320.429 L1030 320.429 L1027.5 324.76 L1030 329.09 L1035 329.09 L1032.5 333.42 L1035 337.75 L1030 337.75 L1027.5 342.08 L1025 337.75 L1020 337.75 L1017.5 342.08 L1020 346.41 L1015 346.41 L1012.5 350.74 L1015 355.07 L1020 355.07 L1017.5 359.401 L1020 363.731 L1025 363.731 L1027.5 359.401 L1030 363.731 L1035 363.731 L1032.5 368.061 L1035 372.391 L1030 372.391 L1027.5 376.721 L1030 381.051 L1035 381.051 L1032.5 385.381 L1035 389.711 L1040 389.711 L1042.5 385.381 L1045 389.711 L1050 389.711 L1052.5 385.381 L1050 381.051 L1055 381.051 L1057.5 376.721 L1060 381.051 L1065 381.051 L1062.5 385.381 L1065 389.711 L1070 389.711 L1072.5 385.381 L1075 389.711 L1080 389.711 L1077.5 394.042 L1080 398.372 L1075 398.372 L1072.5 402.702 L1075 407.032 L1080 407.032 L1077.5 411.362 L1080 415.692 L1075 415.692 L1072.5 420.022 L1070 415.692 L1065 415.692 L1062.5 420.022 L1065 424.352 L1060 424.352 L1057.5 428.683 L1060 433.013 L1065 433.013 L1062.5 437.343 L1065 441.673 L1070 441.673 L1072.5 437.343 L1075 441.673 L1080 441.673 L1077.5 446.003 L1080 450.333 L1075 450.333 L1072.5 454.663 L1075 458.993 L1080 458.993 L1077.5 463.324 L1080 467.654 L1085 467.654 L1087.5 463.324 L1090 467.654 L1095 467.654 L1097.5 463.324 L1095 458.993 L1100 458.993 L1102.5 454.663 L1105 458.993 L1110 458.993 L1107.5 463.324 L1110 467.654 L1115 467.654 L1117.5 463.324 L1120 467.654 L1125 467.654 L1127.5 463.324 L1125 458.993 L1130 458.993 L1132.5 454.663 L1130 450.333 L1125 450.333 L1127.5 446.003 L1125 441.673 L1130 441.673 L1132.5 437.343 L1135 441.673 L1140 441.673 L1142.5 437.343 L1140 433.013 L1145 433.013 L1147.5 428.683 L1150 433.013 L1155 433.013 L1152.5 437.343 L1155 441.673 L1160 441.673 L1162.5 437.343 L1165 441.673 L1170 441.673 L1167.5 446.003 L1170 450.333 L1165 450.333 L1162.5 454.663 L1165 458.993 L1170 458.993 L1167.5 463.324 L1170 467.654 L1175 467.654 L1177.5 463.324 L1180 467.654 L1185 467.654 L1187.5 463.324 L1185 458.993 L1190 458.993 L1192.5 454.663 L1195 458.993 L1200 458.993 L1197.5 463.324 L1200 467.654 L1205 467.654 L1207.5 463.324 L1210 467.654 L1215 467.654 L1212.5 471.984 L1215 476.314 L1210 476.314 L1207.5 480.644 L1210 484.974 L1215 484.974 L1212.5 489.304 L1215 493.634 L1210 493.634 L1207.5 497.965 L1205 493.634 L1200 493.634 L1197.5 497.965 L1200 502.295 L1195 502.295 L1192.5 506.625 L1195 510.955 L1200 510.955 L1197.5 515.285 L1200 519.615 L1205 519.615 L1207.5 515.285 L1210 519.615 L1215 519.615 L1212.5 523.945 L1215 528.275 L1210 528.275 L1207.5 532.606 L1210 536.936 L1215 536.936 L1212.5 541.266 L1215 545.596 L1210 545.596 L1207.5 549.926 L1205 545.596 L1200 545.596 L1197.5 549.926 L1200 554.256 L1195 554.256 L1192.5 558.586 L1190 554.256 L1185 554.256 L1187.5 549.926 L1185 545.596 L1180 545.596 L1177.5 549.926 L1175 545.596 L1170 545.596 L1167.5 549.926 L1170 554.256 L1165 554.256 L1162.5 558.586 L1165 562.917 L1170 562.917 L1167.5 567.247 L1170 571.577 L1165 571.577 L1162.5 575.907 L1160 571.577 L1155 571.577 L1152.5 575.907 L1155 580.237 L1150 580.237 L1147.5 584.567 L1150 588.897 L1155 588.897 L1152.5 593.227 L1155 597.558 L1160 597.558 L1162.5 593.227 L1165 597.558 L1170 597.558 L1167.5 601.888 L1170 606.218 L1165 606.218 L1162.5 610.548 L1165 614.878 L1170 614.878 L1167.5 619.208 L1170 623.538 L1175 623.538 L1177.5 619.208 L1180 623.538 L1185 623.538 L1187.5 619.208 L1185 614.878 L1190 614.878 L1192.5 610.548 L1195 614.878 L1200 614.878 L1197.5 619.208 L1200 623.538 L1205 623.538 L1207.5 619.208 L1210 623.538 L1215 623.538 L1212.5 627.868 L1215 632.199 L1210 632.199 L1207.5 636.529 L1210 640.859 L1215 640.859 L1212.5 645.189 L1215 649.519 L1210 649.519 L1207.5 653.849 L1205 649.519 L1200 649.519 L1197.5 653.849 L1200 658.179 L1195 658.179 L1192.5 662.509 L1195 666.84 L1200 666.84 L1197.5 671.17 L1200 675.5 L1205 675.5 L1207.5 671.17 L1210 675.5 L1215 675.5 L1212.5 679.83 L1215 684.16 L1210 684.16 L1207.5 688.49 L1210 692.82 L1215 692.82 L1212.5 697.15 L1215 701.481 L1210 701.481 L1207.5 705.811 L1205 701.481 L1200 701.481 L1197.5 705.811 L1200 710.141 L1195 710.141 L1192.5 714.471 L1190 710.141 L1185 710.141 L1187.5 705.811 L1185 701.481 L1180 701.481 L1177.5 705.811 L1175 701.481 L1170 701.481 L1167.5 705.811 L1170 710.141 L1165 710.141 L1162.5 714.471 L1165 718.801 L1170 718.801 L1167.5 723.131 L1170 727.461 L1165 727.461 L1162.5 731.791 L1160 727.461 L1155 727.461 L1152.5 731.791 L1155 736.122 L1150 736.122 L1147.5 740.452 L1145 736.122 L1140 736.122 L1142.5 731.791 L1140 727.461 L1135 727.461 L1132.5 731.791 L1130 727.461 L1125 727.461 L1127.5 723.131 L1125 718.801 L1130 718.801 L1132.5 714.471 L1130 710.141 L1125 710.141 L1127.5 705.811 L1125 701.481 L1120 701.481 L1117.5 705.811 L1115 701.481 L1110 701.481 L1107.5 705.811 L1110 710.141 L1105 710.141 L1102.5 714.471 L1100 710.141 L1095 710.141 L1097.5 705.811 L1095 701.481 L1090 701.481 L1087.5 705.811 L1085 701.481 L1080 701.481 L1077.5 705.811 L1080 710.141 L1075 710.141 L1072.5 714.471 L1075 718.801 L1080 718.801 L1077.5 723.131 L1080 727.461 L1075 727.461 L1072.5 731.791 L1070 727.461 L1065 727.461 L1062.5 731.791 L1065 736.122 L1060 736.122 L1057.5 740.452 L1060 744.782 L1065 744.782 L1062.5 749.112 L1065 753.442 L1070 753.442 L1072.5 749.112 L1075 753.442 L1080 753.442 L1077.5 757.772 L1080 762.102 L1075 762.102 L1072.5 766.432 L1075 770.763 L1080 770.763 L1077.5 775.093 L1080 779.423 L1075 779.423 L1072.5 783.753 L1070 779.423 L1065 779.423 L1062.5 783.753 L1065 788.083 L1060 788.083 L1057.5 792.413 L1055 788.083 L1050 788.083 L1052.5 783.753 L1050 779.423 L1045 779.423 L1042.5 783.753 L1040 779.423 L1035 779.423 L1032.5 783.753 L1035 788.083 L1030 788.083 L1027.5 792.413 L1030 796.743 L1035 796.743 L1032.5 801.073 L1035 805.404 L1030 805.404 L1027.5 809.734 L1025 805.404 L1020 805.404 L1017.5 809.734 L1020 814.064 L1015 814.064 L1012.5 818.394 L1010 814.064 L1005 814.064 L1007.5 809.734 L1005 805.404 L1000 805.404 L997.5 809.734 L995 805.404 L990 805.404 L992.5 801.073 L990 796.743 L995 796.743 L997.5 792.413 L995 788.083 L990 788.083 L992.5 783.753 L990 779.423 L985 779.423 L982.5 783.753 L980 779.423 L975 779.423 L972.5 783.753 L975 788.083 L970 788.083 L967.5 792.413 L965 788.083 L960 788.083 L962.5 783.753 L960 779.423 L955 779.423 L952.5 783.753 L950 779.423 L945 779.423 L947.5 775.093 L945 770.763 L950 770.763 L952.5 766.432 L950 762.102 L945 762.102 L947.5 757.772 L945 753.442 L950 753.442 L952.5 749.112 L955 753.442 L960 753.442 L962.5 749.112 L960 744.782 L965 744.782 L967.5 740.452 L965 736.122 L960 736.122 L962.5 731.791 L960 727.461 L955 727.461 L952.5 731.791 L950 727.461 L945 727.461 L947.5 723.131 L945 718.801 L950 718.801 L952.5 714.471 L950 710.141 L945 710.141 L947.5 705.811 L945 701.481 L940 701.481 L937.5 705.811 L935 701.481 L930 701.481 L927.5 705.811 L930 710.141 L925 710.141 L922.5 714.471 L920 710.141 L915 710.141 L917.5 705.811 L915 701.481 L910 701.481 L907.5 705.811 L905 701.481 L900 701.481 L897.5 705.811 L900 710.141 L895 710.141 L892.5 714.471 L895 718.801 L900 718.801 L897.5 723.131 L900 727.461 L895 727.461 L892.5 731.791 L890 727.461 L885 727.461 L882.5 731.791 L885 736.122 L880 736.122 L877.5 740.452 L875 736.122 L870 736.122 L872.5 731.791 L870 727.461 L865 727.461 L862.5 731.791 L860 727.461 L855 727.461 L857.5 723.131 L855 718.801 L860 718.801 L862.5 714.471 L860 710.141 L855 710.141 L857.5 705.811 L855 701.481 L850 701.481 L847.5 705.811 L845 701.481 L840 701.481 L837.5 705.811 L840 710.141 L835 710.141 L832.5 714.471 L830 710.141 L825 710.141 L827.5 705.811 L825 701.481 L820 701.481 L817.5 705.811 L815 701.481 L810 701.481 L807.5 705.811 L810 710.141 L805 710.141 L802.5 714.471 L805 718.801 L810 718.801 L807.5 723.131 L810 727.461 L805 727.461 L802.5 731.791 L800 727.461 L795 727.461 L792.5 731.791 L795 736.122 L790 736.122 L787.5 740.452 L790 744.782 L795 744.782 L792.5 749.112 L795 753.442 L800 753.442 L802.5 749.112 L805 753.442 L810 753.442 L807.5 757.772 L810 762.102 L805 762.102 L802.5 766.432 L805 770.763 L810 770.763 L807.5 775.093 L810 779.423 L805 779.423 L802.5 783.753 L800 779.423 L795 779.423 L792.5 783.753 L795 788.083 L790 788.083 L787.5 792.413 L785 788.083 L780 788.083 L782.5 783.753 L780 779.423 L775 779.423 L772.5 783.753 L770 779.423 L765 779.423 L762.5 783.753 L765 788.083 L760 788.083 L757.5 792.413 L760 796.743 L765 796.743 L762.5 801.073 L765 805.404 L760 805.404 L757.5 809.734 L755 805.404 L750 805.404 L747.5 809.734 L750 814.064 L745 814.064 L742.5 818.394 L745 822.724 L750 822.724 L747.5 827.054 L750 831.384 L755 831.384 L757.5 827.054 L760 831.384 L765 831.384 L762.5 835.715 L765 840.045 L760 840.045 L757.5 844.375 L760 848.705 L765 848.705 L762.5 853.035 L765 857.365 L770 857.365 L772.5 853.035 L775 857.365 L780 857.365 L782.5 853.035 L780 848.705 L785 848.705 L787.5 844.375 L790 848.705 L795 848.705 L792.5 853.035 L795 857.365 L800 857.365 L802.5 853.035 L805 857.365 L810 857.365 L807.5 861.695 L810 866.025 L805 866.025 L802.5 870.356 L805 874.686 L810 874.686 L807.5 879.016 L810 883.346 L805 883.346 L802.5 887.676 L800 883.346 L795 883.346 L792.5 887.676 L795 892.006 L790 892.006 L787.5 896.336 L790 900.666 L795 900.666 L792.5 904.997 L795 909.327 L800 909.327 L802.5 904.997 L805 909.327 L810 909.327 L807.5 913.657 L810 917.987 L805 917.987 L802.5 922.317 L805 926.647 L810 926.647 L807.5 930.977 L810 935.307 L805 935.307 L802.5 939.638 L800 935.307 L795 935.307 L792.5 939.638 L795 943.968 L790 943.968 L787.5 948.298 L785 943.968 L780 943.968 L782.5 939.638 L780 935.307 L775 935.307 L772.5 939.638 L770 935.307 L765 935.307 L762.5 939.638 L765 943.968 L760 943.968 L757.5 948.298 L760 952.628 L765 952.628 L762.5 956.958 L765 961.288 L760 961.288 L757.5 965.618 L755 961.288 L750 961.288 L747.5 965.618 L750 969.948 L745 969.948 L742.5 974.279 L740 969.948 L735 969.948 L737.5 965.618 L735 961.288 L730 961.288 L727.5 965.618 L725 961.288 L720 961.288 L722.5 956.958 L720 952.628 L725 952.628 L727.5 948.298 L725 943.968 L720 943.968 L722.5 939.638 L720 935.307 L715 935.307 L712.5 939.638 L710 935.307 L705 935.307 L702.5 939.638 L705 943.968 L700 943.968 L697.5 948.298 L695 943.968 L690 943.968 L692.5 939.638 L690 935.307 L685 935.307 L682.5 939.638 L680 935.307 L675 935.307 L672.5 939.638 L675 943.968 L670 943.968 L667.5 948.298 L670 952.628 L675 952.628 L672.5 956.958 L675 961.288 L670 961.288 L667.5 965.618 L665 961.288 L660 961.288 L657.5 965.618 L660 969.948 L655 969.948 L652.5 974.279 L655 978.609 L660 978.609 L657.5 982.939 L660 987.269 L665 987.269 L667.5 982.939 L670 987.269 L675 987.269 L672.5 991.599 L675 995.929 L670 995.929 L667.5 1000.26 L670 1004.59 L675 1004.59 L672.5 1008.92 L675 1013.25 L670 1013.25 L667.5 1017.58 L665 1013.25 L660 1013.25 L657.5 1017.58 L660 1021.91 L655 1021.91 L652.5 1026.24 L650 1021.91 L645 1021.91 L647.5 1017.58 L645 1013.25 L640 1013.25 L637.5 1017.58 L635 1013.25 L630 1013.25 L627.5 1017.58 L630 1021.91 L625 1021.91 L622.5 1026.24 L625 1030.57 L630 1030.57 L627.5 1034.9 L630 1039.23 L625 1039.23 L622.5 1043.56 L620 1039.23 L615 1039.23 L612.5 1043.56 L615 1047.89 L610 1047.89 L607.5 1052.22 L605 1047.89 L600 1047.89 L602.5 1043.56 L600 1039.23 L595 1039.23 L592.5 1043.56 L590 1039.23 L585 1039.23 L587.5 1034.9 L585 1030.57 L590 1030.57 L592.5 1026.24 L590 1021.91 L585 1021.91 L587.5 1017.58 L585 1013.25 L580 1013.25 L577.5 1017.58 L575 1013.25 L570 1013.25 L567.5 1017.58 L570 1021.91 L565 1021.91 L562.5 1026.24 L560 1021.91 L555 1021.91 L557.5 1017.58 L555 1013.25 L550 1013.25 L547.5 1017.58 L545 1013.25 L540 1013.25 L542.5 1008.92 L540 1004.59 L545 1004.59 L547.5 1000.26 L545 995.929 L540 995.929 L542.5 991.599 L540 987.269 L545 987.269 L547.5 982.939 L550 987.269 L555 987.269 L557.5 982.939 L555 978.609 L560 978.609 L562.5 974.279 L560 969.948 L555 969.948 L557.5 965.618 L555 961.288 L550 961.288 L547.5 965.618 L545 961.288 L540 961.288 L542.5 956.958 L540 952.628 L545 952.628 L547.5 948.298 L545 943.968 L540 943.968 L542.5 939.638 L540 935.307 L535 935.307 L532.5 939.638 L530 935.307 L525 935.307 L522.5 939.638 L525 943.968 L520 943.968 L517.5 948.298 L515 943.968 L510 943.968 L512.5 939.638 L510 935.307 L505 935.307 L502.5 939.638 L500 935.307 L495 935.307 L492.5 939.638 L495 943.968 L490 943.968 L487.5 948.298 L490 952.628 L495 952.628 L492.5 956.958 L495 961.288 L490 961.288 L487.5 965.618 L485 961.288 L480 961.288 L477.5 965.618 L480 969.948 L475 969.948 L472.5 974.279 L470 969.948 L465 969.948 L467.5 965.618 L465 961.288 L460 961.288 L457.5 965.618 L455 961.288 L450 961.288 L452.5 956.958 L450 952.628 L455 952.628 L457.5 948.298 L455 943.968 L450 943.968 L452.5 939.638 L450 935.307 L445 935.307 L442.5 939.638 L440 935.307 L435 935.307 L432.5 939.638 L435 943.968 L430 943.968 L427.5 948.298 L425 943.968 L420 943.968 L422.5 939.638 L420 935.307 L415 935.307 L412.5 939.638 L410 935.307 L405 935.307 L407.5 930.977 L405 926.647 L410 926.647 L412.5 922.317 L410 917.987 L405 917.987 L407.5 913.657 L405 909.327 L410 909.327 L412.5 904.997 L415 909.327 L420 909.327 L422.5 904.997 L420 900.666 L425 900.666 L427.5 896.336 L425 892.006 L420 892.006 L422.5 887.676 L420 883.346 L415 883.346 L412.5 887.676 L410 883.346 L405 883.346 L407.5 879.016 L405 874.686 L410 874.686 L412.5 870.356 L410 866.025 L405 866.025 L407.5 861.695 L405 857.365 L410 857.365 L412.5 853.035 L415 857.365 L420 857.365 L422.5 853.035 L420 848.705 L425 848.705 L427.5 844.375 L430 848.705 L435 848.705 L432.5 853.035 L435 857.365 L440 857.365 L442.5 853.035 L445 857.365 L450 857.365 L452.5 853.035 L450 848.705 L455 848.705 L457.5 844.375 L455 840.045 L450 840.045 L452.5 835.715 L450 831.384 L455 831.384 L457.5 827.054 L460 831.384 L465 831.384 L467.5 827.054 L465 822.724 L470 822.724 L472.5 818.394 L470 814.064 L465 814.064 L467.5 809.734 L465 805.404 L460 805.404 L457.5 809.734 L455 805.404 L450 805.404 L452.5 801.073 L450 796.743 L455 796.743 L457.5 792.413 L455 788.083 L450 788.083 L452.5 783.753 L450 779.423 L445 779.423 L442.5 783.753 L440 779.423 L435 779.423 L432.5 783.753 L435 788.083 L430 788.083 L427.5 792.413 L425 788.083 L420 788.083 L422.5 783.753 L420 779.423 L415 779.423 L412.5 783.753 L410 779.423 L405 779.423 L407.5 775.093 L405 770.763 L410 770.763 L412.5 766.432 L410 762.102 L405 762.102 L407.5 757.772 L405 753.442 L410 753.442 L412.5 749.112 L415 753.442 L420 753.442 L422.5 749.112 L420 744.782 L425 744.782 L427.5 740.452 L425 736.122 L420 736.122 L422.5 731.791 L420 727.461 L415 727.461 L412.5 731.791 L410 727.461 L405 727.461 L407.5 723.131 L405 718.801 L410 718.801 L412.5 714.471 L410 710.141 L405 710.141 L407.5 705.811 L405 701.481 L400 701.481 L397.5 705.811 L395 701.481 L390 701.481 L387.5 705.811 L390 710.141 L385 710.141 L382.5 714.471 L380 710.141 L375 710.141 L377.5 705.811 L375 701.481 L370 701.481 L367.5 705.811 L365 701.481 L360 701.481 L357.5 705.811 L360 710.141 L355 710.141 L352.5 714.471 L355 718.801 L360 718.801 L357.5 723.131 L360 727.461 L355 727.461 L352.5 731.791 L350 727.461 L345 727.461 L342.5 731.791 L345 736.122 L340 736.122 L337.5 740.452 L335 736.122 L330 736.122 L332.5 731.791 L330 727.461 L325 727.461 L322.5 731.791 L320 727.461 L315 727.461 L317.5 723.131 L315 718.801 L320 718.801 L322.5 714.471 L320 710.141 L315 710.141 L317.5 705.811 L315 701.481 L310 701.481 L307.5 705.811 L305 701.481 L300 701.481 L297.5 705.811 L300 710.141 L295 710.141 L292.5 714.471 L290 710.141 L285 710.141 L287.5 705.811 L285 701.481 L280 701.481 L277.5 705.811 L275 701.481 L270 701.481 L267.5 705.811 L270 710.141 L265 710.141 L262.5 714.471 L265 718.801 L270 718.801 L267.5 723.131 L270 727.461 L265 727.461 L262.5 731.791 L260 727.461 L255 727.461 L252.5 731.791 L255 736.122 L250 736.122 L247.5 740.452 L250 744.782 L255 744.782 L252.5 749.112 L255 753.442 L260 753.442 L262.5 749.112 L265 753.442 L270 753.442 L267.5 757.772 L270 762.102 L265 762.102 L262.5 766.432 L265 770.763 L270 770.763 L267.5 775.093 L270 779.423 L265 779.423 L262.5 783.753 L260 779.423 L255 779.423 L252.5 783.753 L255 788.083 L250 788.083 L247.5 792.413 L245 788.083 L240 788.083 L242.5 783.753 L240 779.423 L235 779.423 L232.5 783.753 L230 779.423 L225 779.423 L222.5 783.753 L225 788.083 L220 788.083 L217.5 792.413 L220 796.743 L225 796.743 L222.5 801.073 L225 805.404 L220 805.404 L217.5 809.734 L215 805.404 L210 805.404 L207.5 809.734 L210 814.064 L205 814.064 L202.5 818.394 L200 814.064 L195 814.064 L197.5 809.734 L195 805.404 L190 805.404 L187.5 809.734 L185 805.404 L180 805.404 L182.5 801.073 L180 796.743 L185 796.743 L187.5 792.413 L185 788.083 L180 788.083 L182.5 783.753 L180 779.423 L175 779.423 L172.5 783.753 L170 779.423 L165 779.423 L162.5 783.753 L165 788.083 L160 788.083 L157.5 792.413 L155 788.083 L150 788.083 L152.5 783.753 L150 779.423 L145 779.423 L142.5 783.753 L140 779.423 L135 779.423 L137.5 775.093 L135 770.763 L140 770.763 L142.5 766.432 L140 762.102 L135 762.102 L137.5 757.772 L135 753.442 L140 753.442 L142.5 749.112 L145 753.442 L150 753.442 L152.5 749.112 L150 744.782 L155 744.782 L157.5 740.452 L155 736.122 L150 736.122 L152.5 731.791 L150 727.461 L145 727.461 L142.5 731.791 L140 727.461 L135 727.461 L137.5 723.131 L135 718.801 L140 718.801 L142.5 714.471 L140 710.141 L135 710.141 L137.5 705.811 L135 701.481 L130 701.481 L127.5 705.811 L125 701.481 L120 701.481 L117.5 705.811 L120 710.141 L115 710.141 L112.5 714.471 L110 710.141 L105 710.141 L107.5 705.811 L105 701.481 L100 701.481 L97.5 705.811 L95 701.481 L90 701.481 L87.5 705.811 L90 710.141 L85 710.141 L82.5 714.471 L85 718.801 L90 718.801 L87.5 723.131 L90 727.461 L85 727.461 L82.5 731.791 L80 727.461 L75 727.461 L72.5 731.791 L75 736.122 L70 736.122 L67.5 740.452 L65 736.122 L60 736.122 L62.5 731.791 L60 727.461 L55 727.461 L52.5 731.791 L50 727.461 L45 727.461 L47.5 723.131 L45 718.801 L50 718.801 L52.5 714.471 L50 710.141 L45 710.141 L47.5 705.811 L45 701.481 L40 701.481 L37.5 705.811 L35 701.481 L30 701.481 L27.5 705.811 L30 710.141 L25 710.141 L22.5 714.471 L20 710.141 L15 710.141 L17.5 705.811 L15 701.481 L10 701.481 L7.5 705.811 L5 701.481 L-1.33227e-14 701.481 L2.5 697.15 L-1.77636e-14 692.82 L5 692.82 L7.5 688.49 L5 684.16 L-2.22045e-14 684.16 L2.5 679.83 L-2.66454e-14 675.5 L5 675.5 L7.5 671.17 L10 675.5 L15 675.5 L17.5 671.17 L15 666.84 L20 666.84 L22.5 662.509 L20 658.179 L15 658.179 L17.5 653.849 L15 649.519 L10 649.519 L7.5 653.849 L5 649.519 L-4.88498e-14 649.519 L2.5 645.189 L-5.32907e-14 640.859 L5 640.859 L7.5 636.529 L5 632.199 L-5.77316e-14 632.199 L2.5 627.868 L-6.21725e-14 623.538 L5 623.538 L7.5 619.208 L10 623.538 L15 623.538 L17.5 619.208 L15 614.878 L20 614.878 L22.5 610.548 L25 614.878 L30 614.878 L27.5 619.208 L30 623.538 L35 623.538 L37.5 619.208 L40 623.538 L45 623.538 L47.5 619.208 L45 614.878 L50 614.878 L52.5 610.548 L50 606.218 L45 606.218 L47.5 601.888 L45 597.558 L50 597.558 L52.5 593.227 L55 597.558 L60 597.558 L62.5 593.227 L60 588.897 L65 588.897 L67.5 584.567 L65 580.237 L60 580.237 L62.5 575.907 L60 571.577 L55 571.577 L52.5 575.907 L50 571.577 L45 571.577 L47.5 567.247 L45 562.917 L50 562.917 L52.5 558.586 L50 554.256 L45 554.256 L47.5 549.926 L45 545.596 L40 545.596 L37.5 549.926 L35 545.596 L30 545.596 L27.5 549.926 L30 554.256 L25 554.256 L22.5 558.586 L20 554.256 L15 554.256 L17.5 549.926 L15 545.596 L10 545.596 L7.5 549.926 L5 545.596 L-5.59552e-14 545.596 L2.5 541.266 L-6.03961e-14 536.936 L5 536.936 L7.5 532.606 L5 528.275 L-6.4837e-14 528.275 L2.5 523.945 L-6.92779e-14 519.615 L5 519.615 L7.5 515.285 L10 519.615 L15 519.615 L17.5 515.285 L15 510.955 L20 510.955 L22.5 506.625 L20 502.295 L15 502.295 L17.5 497.965 L15 493.634 L10 493.634 L7.5 497.965 L5 493.634 L-9.14824e-14 493.634 L2.5 489.304 L-9.59233e-14 484.974 L5 484.974 L7.5 480.644 L5 476.314 L-1.00364e-13 476.314 L2.5 471.984 L-1.04805e-13 467.654 L5 467.654 L7.5 463.324 L10 467.654 L15 467.654 L17.5 463.324 L15 458.993 L20 458.993 L22.5 454.663 L25 458.993 L30 458.993 L27.5 463.324 L30 467.654 L35 467.654 L37.5 463.324 L40 467.654 L45 467.654 L47.5 463.324 L45 458.993 L50 458.993 L52.5 454.663 L50 450.333 L45 450.333 L47.5 446.003 L45 441.673 L50 441.673 L52.5 437.343 L55 441.673 L60 441.673 L62.5 437.343 L60 433.013 L65 433.013 L67.5 428.683 L70 433.013 L75 433.013 L72.5 437.343 L75 441.673 L80 441.673 L82.5 437.343 L85 441.673 L90 441.673 L87.5 446.003 L90 450.333 L85 450.333 L82.5 454.663 L85 458.993 L90 458.993 L87.5 463.324 L90 467.654 L95 467.654 L97.5 463.324 L100 467.654 L105 467.654 L107.5 463.324 L105 458.993 L110 458.993 L112.5 454.663 L115 458.993 L120 458.993 L117.5 463.324 L120 467.654 L125 467.654 L127.5 463.324 L130 467.654 L135 467.654 L137.5 463.324 L135 458.993 L140 458.993 L142.5 454.663 L140 450.333 L135 450.333 L137.5 446.003 L135 441.673 L140 441.673 L142.5 437.343 L145 441.673 L150 441.673 L152.5 437.343 L150 433.013 L155 433.013 L157.5 428.683 L155 424.352 L150 424.352 L152.5 420.022 L150 415.692 L145 415.692 L142.5 420.022 L140 415.692 L135 415.692 L137.5 411.362 L135 407.032 L140 407.032 L142.5 402.702 L140 398.372 L135 398.372 L137.5 394.042 L135 389.711 L140 389.711 L142.5 385.381 L145 389.711 L150 389.711 L152.5 385.381 L150 381.051 L155 381.051 L157.5 376.721 L160 381.051 L165 381.051 L162.5 385.381 L165 389.711 L170 389.711 L172.5 385.381 L175 389.711 L180 389.711 L182.5 385.381 L180 381.051 L185 381.051 L187.5 376.721 L185 372.391 L180 372.391 L182.5 368.061 L180 363.731 L185 363.731 L187.5 359.401 L190 363.731 L195 363.731 L197.5 359.401 L195 355.07 L200 355.07 L202.5 350.74 L200 346.41 L195 346.41 L197.5 342.08 L195 337.75 L190 337.75 L187.5 342.08 L185 337.75 L180 337.75 L182.5 333.42 L180 329.09 L185 329.09 L187.5 324.76 L185 320.429 L180 320.429 L182.5 316.099 L180 311.769 L175 311.769 L172.5 316.099 L170 311.769 L165 311.769 L162.5 316.099 L165 320.429 L160 320.429 L157.5 324.76 L155 320.429 L150 320.429 L152.5 316.099 L150 311.769 L145 311.769 L142.5 316.099 L140 311.769 L135 311.769 L137.5 307.439 L135 303.109 L140 303.109 L142.5 298.779 L140 294.449 L135 294.449 L137.5 290.119 L135 285.788 L140 285.788 L142.5 281.458 L145 285.788 L150 285.788 L152.5 281.458 L150 277.128 L155 277.128 L157.5 272.798 L155 268.468 L150 268.468 L152.5 264.138 L150 259.808 L145 259.808 L142.5 264.138 L140 259.808 L135 259.808 L137.5 255.477 L135 251.147 L140 251.147 L142.5 246.817 L140 242.487 L135 242.487 L137.5 238.157 L135 233.827 L130 233.827 L127.5 238.157 L125 233.827 L120 233.827 L117.5 238.157 L120 242.487 L115 242.487 L112.5 246.817 L110 242.487 L105 242.487 L107.5 238.157 L105 233.827 L100 233.827 L97.5 238.157 L95 233.827 L90 233.827 L87.5 238.157 L90 242.487 L85 242.487 L82.5 246.817 L85 251.147 L90 251.147 L87.5 255.477 L90 259.808 L85 259.808 L82.5 264.138 L80 259.808 L75 259.808 L72.5 264.138 L75 268.468 L70 268.468 L67.5 272.798 L65 268.468 L60 268.468 L62.5 264.138 L60 259.808 L55 259.808 L52.5 264.138 L50 259.808 L45 259.808 L47.5 255.477 L45 251.147 L50 251.147 L52.5 246.817 L50 242.487 L45 242.487 L47.5 238.157 L45 233.827 L40 233.827 L37.5 238.157 L35 233.827 L30 233.827 L27.5 238.157 L30 242.487 L25 242.487 L22.5 246.817 L20 242.487 L15 242.487 L17.5 238.157 L15 233.827 L10 233.827 L7.5 238.157 L5 233.827 L-9.85878e-14 233.827 L2.5 229.497 L-1.03029e-13 225.167 L5 225.167 L7.5 220.836 L5 216.506 L-1.0747e-13 216.506 L2.5 212.176 L-1.1191e-13 207.846 L5 207.846 L7.5 203.516 L10 207.846 L15 207.846 L17.5 203.516 L15 199.186 L20 199.186 L22.5 194.856 L20 190.526 L15 190.526 L17.5 186.195 L15 181.865 L10 181.865 L7.5 186.195 L5 181.865 L-1.34115e-13 181.865 L2.5 177.535 L-1.38556e-13 173.205 L5 173.205 L7.5 168.875 L5 164.545 L-1.42997e-13 164.545 L2.5 160.215 L-1.47438e-13 155.885 L5 155.885 L7.5 151.554 L10 155.885 L15 155.885 L17.5 151.554 L15 147.224 L20 147.224 L22.5 142.894 L25 147.224 L30 147.224 L27.5 151.554 L30 155.885 L35 155.885 L37.5 151.554 L40 155.885 L45 155.885 L47.5 151.554 L45 147.224 L50 147.224 L52.5 142.894 L50 138.564 L45 138.564 L47.5 134.234 L45 129.904 L50 129.904 L52.5 125.574 L55 129.904 L60 129.904 L62.5 125.574 L60 121.244 L65 121.244 L67.5 116.913 L65 112.583 L60 112.583 L62.5 108.253 L60 103.923 L55 103.923 L52.5 108.253 L50 103.923 L45 103.923 L47.5 99.5929 L45 95.2628 L50 95.2628 L52.5 90.9327 L50 86.6025 L45 86.6025 L47.5 82.2724 L45 77.9423 L40 77.9423 L37.5 82.2724 L35 77.9423 L30 77.9423 L27.5 82.2724 L30 86.6025 L25 86.6025 L22.5 90.9327 L20 86.6025 L15 86.6025 L17.5 82.2724 L15 77.9423 L10 77.9423 L7.5 82.2724 L5 77.9423 L-1.4122e-13 77.9423 L2.5 73.6122 L-1.45661e-13 69.282 L5 69.282 L7.5 64.9519 L5 60.6218 L-1.50102e-13 60.6218 L2.5 56.2917 L-1.54543e-13 51.9615 L5 51.9615 L7.5 47.6314 L10 51.9615 L15 51.9615 L17.5 47.6314 L15 43.3013 L20 43.3013 L22.5 38.9711 L20 34.641 L15 34.641 L17.5 30.3109 L15 25.9808 L10 25.9808 L7.5 30.3109 L5 25.9808 L-1.76748e-13 25.9808 L2.5 21.6506 L-1.81188e-13 17.3205 L5 17.3205 L7.5 12.9904 L5 8.66025 L-1.85629e-13 8.66025 L2.5 4.33013 L-1.9007e-13 -2.62013e-13"/>
</svg>
