<?xml version="1.0" encoding="UTF-8"?>
<svg xmlns="http://www.w3.org/2000/svg"
 version="1.1" baseProfile="basic"
 viewBox="-10 -361 1235 372"
 width="1280px" height="1024px"
 stroke="white" stroke-width="1px"
 fill="black" fill-opacity="0">
<rect x="-10" y="-361" width="1235" height="372" stroke-width="0px" fill-opacity="1"/>
<path d="M0 0 L0 0 L5 0 L7.5 -4.33013 L10 0 L15 0 L17.5 -4.33013 L15 -8.66025 L20 -8.66025 L22.5 -12.9904 L25 -8.66025 L30 -8.66025 L27.5 -4.33013 L30 2.66454e-15 L35 2.66454e-15 L37.5 -4.33013 L40 2.66454e-15 L45 2.66454e-15 L47.5 -4.33013 L45 -8.66025 L50 -8.66025 L52.5 -12.9904 L50 -17.3205 L45 -17.3205 L47.5 -21.6506 L45 -25.9808 L50 -25.9808 L52.5 -30.3109 L55 -25.9808 L60 -25.9808 L62.5 -30.3109 L60 -34.641 L65 -34.641 L67.5 -38.9711 L70 -34.641 L75 -34.641 L72.5 -30.3109 L75 -25.9808 L80 -25.9808 L82.5 -30.3109 L85 -25.9808 L90 -25.9808 L87.5 -21.6506 L90 -17.3205 L85 -17.3205 L82.5 -12.9904 L85 -8.66025 L90 -8.66025 L87.5 -4.33013 L90 -8.88178e-16 L95 -8.88178e-16 L97.5 -4.33013 L100 -8.88178e-16 L105 -8.88178e-16 L107.5 -4.33013 L105 -8.66025 L110 -8.66025 L112.5 -12.9904 L115 -8.66025 L120 -8.66025 L117.5 -4.33013 L120 -8.88178e-16 L125 -8.88178e-16 L127.5 -4.33013 L130 -8.88178e-16 L135 -8.88178e-16 L137.5 -4.33013 L135 -8.66025 L140 -8.66025 L142.5 -12.9904 L140 -17.3205 L135 -17.3205 L137.5 -21.6506 L135 -25.9808 L140 -25.9808 L142.5 -30.3109 L145 -25.9808 L150 -25.9808 L152.5 -30.3109 L150 -34.641 L155 -34.641 L157.5 -38.9711 L155 -43.3013 L150 -43.3013 L152.5 -47.6314 L150 -51.9615 L145 -51.9615 L142.5 -47.6314 L140 -51.9615 L135 -51.9615 L137.5 -56.2917 L135 -60.6218 L140 -60.6218 L142.5 -64.9519 L140 -69.282 L135 -69.282 L137.5 -73.6122 L135 -77.9423 L140 -77.9423 L142.5 -82.2724 L145 -77.9423 L150 -77.9423 L152.5 -82.2724 L150 -86.6025 L155 -86.6025 L157.5 -90.9327 L160 -86.6025 L165 -86.6025 L162.5 -82.2724 L165 -77.9423 L170 -77.9423 L172.5 -82.2724 L175 -77.9423 L180 -77.9423 L182.5 -82.2724 L180 -86.6025 L185 -86.6025 L187.5 -90.9327 L185 -95.2628 L180 -95.2628 L182.5 -99.5929 L180 -103.923 L185 -103.923 L187.5 -108.253 L190 -103.923 L195 -103.923 L197.5 -108.253 L195 -112.583 L200 -112.583 L202.5 -116.913 L205 -112.583 L210 -112.583 L207.5 -108.253 L210 -103.923 L215 -103.923 L217.5 -108.253 L220 -103.923 L225 -103.923 L222.5 -99.5929 L225 -95.2628 L220 -95.2628 L217.5 -90.9327 L220 -86.6025 L225 -86.6025 L222.5 -82.2724 L225 -77.9423 L230 -77.9423 L232.5 -82.2724 L235 -77.9423 L240 -77.9423 L242.5 -82.2724 L240 -86.6025 L245 -86.6025 L247.5 -90.9327 L250 -86.6025 L255 -86.6025 L252.5 -82.2724 L255 -77.9423 L260 -77.9423 L262.5 -82.2724 L265 -77.9423 L270 -77.9423 L267.5 -73.6122 L270 -69.282 L265 -69.282 L262.5 -64.9519 L265 -60.6218 L270 -60.6218 L267.5 -56.2917 L270 -51.9615 L265 -51.9615 L262.5 -47.6314 L260 -51.9615 L255 -51.9615 L252.5 -47.6314 L255 -43.3013 L250 -43.3013 L247.5 -38.9711 L250 -34.641 L255 -34.641 L252.5 -30.3109 L255 -25.9808 L260 -25.9808 L262.5 -30.3109 L265 -25.9808 L270 -25.9808 L267.5 -21.6506 L270 -17.3205 L265 -17.3205 L262.5 -12.9904 L265 -8.66025 L270 -8.66025 L267.5 -4.33013 L270 -7.99361e-15 L275 -7.99361e-15 L277.5 -4.33013 L280 -7.99361e-15 L285 -7.99361e-15 L287.5 -4.33013 L285 -8.66025 L290 -8.66025 L292.5 -12.9904 L295 -8.66025 L300 -8.66025 L297.5 -4.33013 L300 -7.99361e-15 L305 -7.99361e-15 L307.5 -4.33013 L310 -7.99361e-15 L315 -7.99361e-15 L317.5 -4.33013 L315 -8.66025 L320 -8.66025 L322.5 -12.9904 L320 -17.3205 L315 -17.3205 L317.5 -21.6506 L315 -25.9808 L320 -25.9808 L322.5 -30.3109 L325 -25.9808 L330 -25.9808 L332.5 -30.3109 L330 -34.641 L335 -34.641 L337.5 -38.9711 L340 -34.641 L345 -34.641 L342.5 -30.3109 L345 -25.9808 L350 -25.9808 L352.5 -30.3109 L355 -25.9808 L360 -25.9808 L357.5 -21.6506 L360 -17.3205 L355 -17.3205 L352.5 -12.9904 L355 -8.66025 L360 -8.66025 L357.5 -4.33013 L360 -7.99361e-15 L365 -7.99361e-15 L367.5 -4.33013 L370 -7.99361e-15 L375 -7.99361e-15 L377.5 -4.33013 L375 -8.66025 L380 -8.66025 L382.5 -12.9904 L385 -8.66025 L390 -8.66025 L387.5 -4.33013 L390 -7.99361e-15 L395 -7.99361e-15 L397.5 -4.33013 L400 -7.99361e-15 L405 -7.99361e-15 L407.5 -4.33013 L405 -8.66025 L410 -8.66025 L412.5 -12.9904 L410 -17.3205 L405 -17.3205 L407.5 -21.6506 L405 -25.9808 L410 -25.9808 L412.5 -30.3109 L415 -25.9808 L420 -25.9808 L422.5 -30.3109 L420 -34.641 L425 -34.641 L427.5 -38.9711 L425 -43.3013 L420 -43.3013 L422.5 -47.6314 L420 -51.9615 L415 -51.9615 L412.5 -47.6314 L410 -51.9615 L405 -51.9615 L407.5 -56.2917 L405 -60.6218 L410 -60.6218 L412.5 -64.9519 L410 -69.282 L405 -69.282 L407.5 -73.6122 L405 -77.9423 L410 -77.9423 L412.5 -82.2724 L415 -77.9423 L420 -77.9423 L422.5 -82.2724 L420 -86.6025 L425 -86.6025 L427.5 -90.9327 L430 -86.6025 L435 -86.6025 L432.5 -82.2724 L435 -77.9423 L440 -77.9423 L442.5 -82.2724 L445 -77.9423 L450 -77.9423 L452.5 -82.2724 L450 -86.6025 L455 -86.6025 L457.5 -90.9327 L455 -95.2628 L450 -95.2628 L452.5 -99.5929 L450 -103.923 L455 -103.923 L457.5 -108.253 L460 -103.923 L465 -103.923 L467.5 -108.253 L465 -112.583 L470 -112.583 L472.5 -116.913 L470 -121.244 L465 -121.244 L467.5 -125.574 L465 -129.904 L460 -129.904 L457.5 -125.574 L455 -129.904 L450 -129.904 L452.5 -134.234 L450 -138.564 L455 -138.564 L457.5 -142.894 L455 -147.224 L450 -147.224 L452.5 -151.554 L450 -155.885 L445 -155.885 L442.5 -151.554 L440 -155.885 L435 -155.885 L432.5 -151.554 L435 -147.224 L430 -147.224 L427.5 -142.894 L425 -147.224 L420 -147.224 L422.5 -151.554 L420 -155.885 L415 -155.885 L412.5 -151.554 L410 -155.885 L405 -155.885 L407.5 -160.215 L405 -164.545 L410 -164.545 L412.5 -168.875 L410 -173.205 L405 -173.205 L407.5 -177.535 L405 -181.865 L410 -181.865 L412.5 -186.195 L415 -181.865 L420 -181.865 L422.5 -186.195 L420 -190.526 L425 -190.526 L427.5 -194.856 L425 -199.186 L420 -199.186 L422.5 -203.516 L420 -207.846 L415 -207.846 L412.5 -203.516 L410 -207.846 L405 -207.846 L407.5 -212.176 L405 -216.506 L410 -216.506 L412.5 -220.836 L410 -225.167 L405 -225.167 L407.5 -229.497 L405 -233.827 L410 -233.827 L412.5 -238.157 L415 -233.827 L420 -233.827 L422.5 -238.157 L420 -242.487 L425 -242.487 L427.5 -246.817 L430 -242.487 L435 -242.487 L432.5 -238.157 L435 -233.827 L440 -233.827 L442.5 -238.157 L445 -233.827 L450 -233.827 L452.5 -238.157 L450 -242.487 L455 -242.487 L457.5 -246.817 L455 -251.147 L450 -251.147 L452.5 -255.477 L450 -259.808 L455 -259.808 L457.5 -264.138 L460 -259.808 L465 -259.808 L467.5 -264.138 L465 -268.468 L470 -268.468 L472.5 -272.798 L475 -268.468 L480 -268.468 L477.5 -264.138 L480 -259.808 L485 -259.808 L487.5 -264.138 L490 -259.808 L495 -259.808 L492.5 -255.477 L495 -251.147 L490 -251.147 L487.5 -246.817 L490 -242.487 L495 -242.487 L492.5 -238.157 L495 -233.827 L500 -233.827 L502.5 -238.157 L505 -233.827 L510 -233.827 L512.5 -238.157 L510 -242.487 L515 -242.487 L517.5 -246.817 L520 -242.487 L525 -242.487 L522.5 -238.157 L525 -233.827 L530 -233.827 L532.5 -238.157 L535 -233.827 L540 -233.827 L542.5 -238.157 L540 -242.487 L545 -242.487 L547.5 -246.817 L545 -251.147 L540 -251.147 L542.5 -255.477 L540 -259.808 L545 -259.808 L547.5 -264.138 L550 -259.808 L555 -259.808 L557.5 -264.138 L555 -268.468 L560 -268.468 L562.5 -272.798 L560 -277.128 L555 -277.128 L557.5 -281.458 L555 -285.788 L550 -285.788 L547.5 -281.458 L545 -285.788 L540 -285.788 L542.5 -290.119 L540 -294.449 L545 -294.449 L547.5 -298.779 L545 -303.109 L540 -303.109 L542.5 -307.439 L540 -311.769 L545 -311.769 L547.5 -316.099 L550 -311.769 L555 -311.769 L557.5 -316.099 L555 -320.429 L560 -320.429 L562.5 -324.76 L565 -320.429 L570 -320.429 L567.5 -316.099 L570 -311.769 L575 -311.769 L577.5 -316.099 L580 -311.769 L585 -311.769 L587.5 -316.099 L585 -320.429 L590 -320.429 L592.5 -324.76 L590 -329.09 L585 -329.09 L587.5 -333.42 L585 -337.75 L590 -337.75 L592.5 -342.08 L595 -337.75 L600 -337.75 L602.5 -342.08 L600 -346.41 L605 -346.41 L607.5 -350.74 L610 -346.41 L615 -346.41 L612.5 -342.08 L615 -337.75 L620 -337.75 L622.5 -342.08 L625 -337.75 L630 -337.75 L627.5 -333.42 L630 -329.09 L625 -329.09 L622.5 -324.76 L625 -320.429 L630 -320.429 L627.5 -316.099 L630 -311.769 L635 -311.769 L637.5 -316.099 L640 -311.769 L645 -311.769 L647.5 -316.099 L645 -320.429 L650 -320.429 L652.5 -324.76 L655 -320.429 L660 -320.429 L657.5 -316.099 L660 -311.769 L665 -311.769 L667.5 -316.099 L670 -311.769 L675 -311.769 L672.5 -307.439 L675 -303.109 L670 -303.109 L667.5 -298.779 L670 -294.449 L675 -294.449 L672.5 -290.119 L675 -285.788 L670 -285.788 L667.5 -281.458 L665 -285.788 L660 -285.788 L657.5 -281.458 L660 -277.128 L655 -277.128 L652.5 -272.798 L655 -268.468 L660 -268.468 L657.5 -264.138 L660 -259.808 L665 -259.808 L667.5 -264.138 L670 -259.808 L675 -259.808 L672.5 -255.477 L675 -251.147 L670 -251.147 L667.5 -246.817 L670 -242.487 L675 -242.487 L672.5 -238.157 L675 -233.827 L680 -233.827 L682.5 -238.157 L685 -233.827 L690 -233.827 L692.5 -238.157 L690 -242.487 L695 -242.487 L697.5 -246.817 L700 -242.487 L705 -242.487 L702.5 -238.157 L705 -233.827 L710 -233.827 L712.5 -238.157 L715 -233.827 L720 -233.827 L722.5 -238.157 L720 -242.487 L725 -242.487 L727.5 -246.817 L725 -251.147 L720 -251.147 L722.5 -255.477 L720 -259.808 L725 -259.808 L727.5 -264.138 L730 -259.808 L735 -259.808 L737.5 -264.138 L735 -268.468 L740 -268.468 L742.5 -272.798 L745 -268.468 L750 -268.468 L747.5 -264.138 L750 -259.808 L755 -259.808 L757.5 -264.138 L760 -259.808 L765 -259.808 L762.5 -255.477 L765 -251.147 L760 -251.147 L757.5 -246.817 L760 -242.487 L765 -242.487 L762.5 -238.157 L765 -233.827 L770 -233.827 L772.5 -238.157 L775 -233.827 L780 -233.827 L782.5 -238.157 L780 -242.487 L785 -242.487 L787.5 -246.817 L790 -242.487 L795 -242.487 L792.5 -238.157 L795 -233.827 L800 -233.827 L802.5 -238.157 L805 -233.827 L810 -233.827 L807.5 -229.497 L810 -225.167 L805 -225.167 L802.5 -220.836 L805 -216.506 L810 -216.506 L807.5 -212.176 L810 -207.846 L805 -207.846 L802.5 -203.516 L800 -207.846 L795 -207.846 L792.5 -203.516 L795 -199.186 L790 -199.186 L787.5 -194.856 L790 -190.526 L795 -190.526 L792.5 -186.195 L795 -181.865 L800 -181.865 L802.5 -186.195 L805 -181.865 L810 -181.865 L807.5 -177.535 L810 -173.205 L805 -173.205 L802.5 -168.875 L805 -164.545 L810 -164.545 L807.5 -160.215 L810 -155.885 L805 -155.885 L802.5 -151.554 L800 -155.885 L795 -155.885 L792.5 -151.554 L795 -147.224 L790 -147.224 L787.5 -142.894 L785 -147.224 L780 -147.224 L782.5 -151.554 L780 -155.885 L775 -155.885 L772.5 -151.554 L770 -155.885 L765 -155.885 L762.5 -151.554 L765 -147.224 L760 -147.224 L757.5 -142.894 L760 -138.564 L765 -138.564 L762.5 -134.234 L765 -129.904 L760 -129.904 L757.5 -125.574 L755 -129.904 L750 -129.904 L747.5 -125.574 L750 -121.244 L745 -121.244 L742.5 -116.913 L745 -112.583 L750 -112.583 L747.5 -108.253 L750 -103.923 L755 -103.923 L757.5 -108.253 L760 -103.923 L765 -103.923 L762.5 -99.5929 L765 -95.2628 L760 -95.2628 L757.5 -90.9327 L760 -86.6025 L765 -86.6025 L762.5 -82.2724 L765 -77.9423 L770 -77.9423 L772.5 -82.2724 L775 -77.9423 L780 -77.9423 L782.5 -82.2724 L780 -86.6025 L785 -86.6025 L787.5 -90.9327 L790 -86.6025 L795 -86.6025 L792.5 -82.2724 L795 -77.9423 L800 -77.9423 L802.5 -82.2724 L805 -77.9423 L810 -77.9423 L807.5 -73.6122 L810 -69.282 L805 -69.282 L802.5 -64.9519 L805 -60.6218 L810 -60.6218 L807.5 -56.2917 L810 -51.9615 L805 -51.9615 L802.5 -47.6314 L800 -51.9615 L795 -51.9615 L792.5 -47.6314 L795 -43.3013 L790 -43.3013 L787.5 -38.9711 L790 -34.641 L795 -34.641 L792.5 -30.3109 L795 -25.9808 L800 -25.9808 L802.5 -30.3109 L805 -25.9808 L810 -25.9808 L807.5 -21.6506 L810 -17.3205 L805 -17.3205 L802.5 -12.9904 L805 -8.66025 L810 -8.66025 L807.5 -4.33013 L810 -5.06262e-14 L815 -5.06262e-14 L817.5 -4.33013 L820 -5.06262e-14 L825 -5.06262e-14 L827.5 -4.33013 L825 -8.66025 L830 -8.66025 L832.5 -12.9904 L835 -8.66025 L840 -8.66025 L837.5 -4.33013 L840 -5.06262e-14 L845 -5.06262e-14 L847.5 -4.33013 L850 -5.06262e-14 L855 -5.06262e-14 L857.5 -4.33013 L855 -8.66025 L860 -8.66025 L862.5 -12.9904 L860 -17.3205 L855 -17.3205 L857.5 -21.6506 L855 -25.9808 L860 -25.9808 L862.5 -30.3109 L865 -25.9808 L870 -25.9808 L872.5 -30.3109 L870 -34.641 L875 -34.641 L877.5 -38.9711 L880 -34.641 L885 -34.641 L882.5 -30.3109 L885 -25.9808 L890 -25.9808 L892.5 -30.3109 L895 -25.9808 L900 -25.9808 L897.5 -21.6506 L900 -17.3205 L895 -17.3205 L892.5 -12.9904 L895 -8.66025 L900 -8.66025 L897.5 -4.33013 L900 -5.06262e-14 L905 -5.06262e-14 L907.5 -4.33013 L910 -5.06262e-14 L915 -5.06262e-14 L917.5 -4.33013 L915 -8.66025 L920 -8.66025 L922.5 -12.9904 L925 -8.66025 L930 -8.66025 L927.5 -4.33013 L930 -5.06262e-14 L935 -5.06262e-14 L937.5 -4.33013 L940 -5.06262e-14 L945 -5.06262e-14 L947.5 -4.33013 L945 -8.66025 L950 -8.66025 L952.5 -12.9904 L950 -17.3205 L945 -17.3205 L947.5 -21.6506 L945 -25.9808 L950 -25.9808 L952.5 -30.3109 L955 -25.9808 L960 -25.9808 L962.5 -30.3109 L960 -34.641 L965 -34.641 L967.5 -38.9711 L965 -43.3013 L960 -43.3013 L962.5 -47.6314 L960 -51.9615 L955 -51.9615 L952.5 -47.6314 L950 -51.9615 L945 -51.9615 L947.5 -56.2917 L945 -60.6218 L950 -60.6218 L952.5 -64.9519 L950 -69.282 L945 -69.282 L947.5 -73.6122 L945 -77.9423 L950 -77.9423 L952.5 -82.2724 L955 -77.9423 L960 -77.9423 L962.5 -82.2724 L960 -86.6025 L965 -86.6025 L967.5 -90.9327 L970 -86.6025 L975 -86.6025 L972.5 -82.2724 L975 -77.9423 L980 -77.9423 L982.5 -82.2724 L985 -77.9423 L990 -77.9423 L992.5 -82.2724 L990 -86.6025 L995 -86.6025 L997.5 -90.9327 L995 -95.2628 L990 -95.2628 L992.5 -99.5929 L990 -103.923 L995 -103.923 L997.5 -108.253 L1000 -103.923 L1005 -103.923 L1007.5 -108.253 L1005 -112.583 L1010 -112.583 L1012.5 -116.913 L1015 -112.583 L1020 -112.583 L1017.5 -108.253 L1020 -103.923 L1025 -103.923 L1027.5 -108.253 L1030 -103.923 L1035 -103.923 L1032.5 -99.5929 L1035 -95.2628 L1030 -95.2628 L1027.5 -90.9327 L1030 -86.6025 L1035 -86.6025 L1032.5 -82.2724 L1035 -77.9423 L1040 -77.9423 L1042.5 -82.2724 L1045 -77.9423 L1050 -77.9423 L1052.5 -82.2724 L1050 -86.6025 L1055 -86.6025 L1057.5 -90.9327 L1060 -86.6025 L1065 -86.6025 L1062.5 -82.2724 L1065 -77.9423 L1070 -77.9423 L1072.5 -82.2724 L1075 -77.9423 L1080 -77.9423 L1077.5 -73.6122 L1080 -69.282 L1075 -69.282 L1072.5 -64.9519 L1075 -60.6218 L1080 -60.6218 L1077.5 -56.2917 L1080 -51.9615 L1075 -51.9615 L1072.5 -47.6314 L1070 -51.9615 L1065 -51.9615 L1062.5 -47.6314 L1065 -43.3013 L1060 -43.3013 L1057.5 -38.9711 L1060 -34.641 L1065 -34.641 L1062.5 -30.3109 L1065 -25.9808 L1070 -25.9808 L1072.5 -30.3109 L1075 -25.9808 L1080 -25.9808 L1077.5 -21.6506 L1080 -17.3205 L1075 -17.3205 L1072.5 -12.9904 L1075 -8.66025 L1080 -8.66025 L1077.5 -4.33013 L1080 -6.4837e-14 L1085 -6.4837e-14 L1087.5 -4.33013 L1090 -6.4837e-14 L1095 -6.4837e-14 L1097.5 -4.33013 L1095 -8.66025 L1100 -8.66025 L1102.5 -12.9904 L1105 -8.66025 L1110 -8.66025 L1107.5 -4.33013 L1110 -6.4837e-14 L1115 -6.4837e-14 L1117.5 -4.33013 L1120 -6.4837e-14 L1125 -6.4837e-14 L1127.5 -4.33013 L1125 -8.66025 L1130 -8.66025 L1132.5 -12.9904 L1130 -17.3205 L1125 -17.3205 L1127.5 -21.6506 L1125 -25.9808 L1130 -25.9808 L1132.5 -30.3109 L1135 -25.9808 L1140 -25.9808 L1142.5 -30.3109 L1140 -34.641 L1145 -34.641 L1147.5 -38.9711 L1150 -34.641 L1155 -34.641 L1152.5 -30.3109 L1155 -25.9808 L1160 -25.9808 L1162.5 -30.3109 L1165 -25.9808 L1170 -25.9808 L1167.5 -21.6506 L1170 -17.3205 L1165 -17.3205 L1162.5 -12.9904 L1165 -8.66025 L1170 -8.66025 L1167.5 -4.33013 L1170 -6.4837e-14 L1175 -6.4837e-14 L1177.5 -4.33013 L1180 -6.4837e-14 L1185 -6.4837e-14 L1187.5 -4.33013 L1185 -8.66025 L1190 -8.66025 L1192.5 -12.9904 L1195 -8.66025 L1200 -8.66025 L1197.5 -4.33013 L1200 -6.4837e-14 L1205 -6.4837e-14 L1207.5 -4.33013 L1210 -6.4837e-14 L1215 -6.4837e-14"/>
</svg>
