<?xml version="1.0" encoding="UTF-8"?>
<svg xmlns="http://www.w3.org/2000/svg"
 version="1.1" baseProfile="basic"
 viewBox="-10 -1063 3665 1074"
 width="1280px" height="1024px"
 stroke="white" stroke-width="1px"
 fill="black" fill-opacity="0">
<rect x="-10" y="-1063" width="3665" height="1074" stroke-width="0px" fill-opacity="1"/>
<path d="M0 0 L0 0 L5 0 L7.5 -4.33013 L10 0 L15 0 L17.5 -4.33013 L15 -8.66025 L20 -8.66025 L22.5 -12.9904 L25 -8.66025 L30 -8.66025 L27.5 -4.33013 L30 2.66454e-15 L35 2.66454e-15 L37.5 -4.33013 L40 2.66454e-15 L45 2.66454e-15 L47.5 -4.33013 L45 -8.66025 L50 -8.66025 L52.5 -12.9904 L50 -17.3205 L45 -17.3205 L47.5 -21.6506 L45 -25.9808 L50 -25.9808 L52.5 -30.3109 L55 -25.9808 L60 -25.9808 L62.5 -30.3109 L60 -34.641 L65 -34.641 L67.5 -38.9711 L70 -34.641 L75 -34.641 L72.5 -30.3109 L75 -25.9808 L80 -25.9808 L82.5 -30.3109 L85 -25.9808 L90 -25.9808 L87.5 -21.6506 L90 -17.3205 L85 -17.3205 L82.5 -12.9904 L85 -8.66025 L90 -8.66025 L87.5 -4.33013 L90 -8.88178e-16 L95 -8.88178e-16 L97.5 -4.33013 L100 -8.88178e-16 L105 -8.88178e-16 L107.5 -4.33013 L105 -8.66025 L110 -8.66025 L112.5 -12.9904 L115 -8.66025 L120 -8.66025 L117.5 -4.33013 L120 -8.88178e-16 L125 -8.88178e-16 L127.5 -4.33013 L130 -8.88178e-16 L135 -8.88178e-16 L137.5 -4.33013 L135 -8.66025 L140 -8.66025 L142.5 -12.9904 L140 -17.3205 L135 -17.3205 L137.5 -21.6506 L135 -25.9808 L140 -25.9808 L142.5 -30.3109 L145 -25.9808 L150 -25.9808 L152.5 -30.3109 L150 -34.641 L155 -34.641 L157.5 -38.9711 L155 -43.3013 L150 -43.3013 L152.5 -47.6314 L150 -51.9615 L145 -51.9615 L142.5 -47.6314 L140 -51.9615 L135 -51.9615 L137.5 -56.2917 L135 -60.6218 L140 -60.6218 L142.5 -64.9519 L140 -69.282 L135 -69.282 L137.5 -73.6122 L135 -77.9423 L140 -77.9423 L142.5 -82.2724 L145 -77.9423 L150 -77.9423 L152.5 -82.2724 L150 -86.6025 L155 -86.6025 L157.5 -90.9327 L160 -86.6025 L165 -86.6025 L162.5 -82.2724 L165 -77.9423 L170 -77.9423 L172.5 -82.2724 L175 -77.9423 L180 -77.9423 L182.5 -82.2724 L180 -86.6025 L185 -86.6025 L187.5 -90.9327 L185 -95.2628 L180 -95.2628 L182.5 -99.5929 L180 -103.923 L185 -103.923 L187.5 -108.253 L190 -103.923 L195 -103.923 L197.5 -108.253 L195 -112.583 L200 -112.583 L202.5 -116.913 L205 -112.583 L210 -112.583 L207.5 -108.253 L210 -103.923 L215 -103.923 L217.5 -108.253 L220 -103.923 L225 -103.923 L222.5 -99.5929 L225 -95.2628 L220 -95.2628 L217.5 -90.9327 L220 -86.6025 L225 -86.6025 L222.5 -82.2724 L225 -77.9423 L230 -77.9423 L232.5 -82.2724 L235 -77.9423 L240 -77.9423 L242.5 -82.2724 L240 -86.6025 L245 -86.6025 L247.5 -90.9327 L250 -86.6025 L255 -86.6025 L252.5 -82.2724 L255 -77.9423 L260 -77.9423 L262.5 -82.2724 L265 -77.9423 L270 -77.9423 L267.5 -73.6122 L270 -69.282 L265 -69.282 L262.5 -64.9519 L265 -60.6218 L270 -60.6218 L267.5 -56.2917 L270 -51.9615 L265 -51.9615 L262.5 -47.6314 L260 -51.9615 L255 -51.9615 L252.5 -47.6314 L255 -43.3013 L250 -43.3013 L247.5 -38.9711 L250 -34.641 L255 -34.641 L252.5 -30.3109 L255 -25.9808 L260 -25.9808 L262.5 -30.3109 L265 -25.9808 L270 -25.9808 L267.5 -21.6506 L270 -17.3205 L265 -17.3205 L262.5 -12.9904 L265 -8.66025 L270 -8.66025 L267.5 -4.33013 L270 -7.99361e-15 L275 -7.99361e-15 L277.5 -4.33013 L280 -7.99361e-15 L285 -7.99361e-15 L287.5 -4.33013 L285 -8.66025 L290 -8.66025 L292.5 -12.9904 L295 -8.66025 L300 -8.66025 L297.5 -4.33013 L300 -7.99361e-15 L305 -7.99361e-15 L307.5 -4.33013 L310 -7.99361e-15 L315 -7.99361e-15 L317.5 -4.33013 L315 -8.66025 L320 -8.66025 L322.5 -12.9904 L320 -17.3205 L315 -17.3205 L317.5 -21.6506 L315 -25.9808 L320 -25.9808 L322.5 -30.3109 L325 -25.9808 L330 -25.9808 L332.5 -30.3109 L330 -34.641 L335 -34.641 L337.5 -38.9711 L340 -34.641 L345 -34.641 L342.5 -30.3109 L345 -25.9808 L350 -25.9808 L352.5 -30.3109 L355 -25.9808 L360 -25.9808 L357.5 -21.6506 L360 -17.3205 L355 -17.3205 L352.5 -12.9904 L355 -8.66025 L360 -8.66025 L357.5 -4.33013 L360 -7.99361e-15 L365 -7.99361e-15 L367.5 -4.33013 L370 -7.99361e-15 L375 -7.99361e-15 L377.5 -4.33013 L375 -8.66025 L380 -8.66025 L382.5 -12.9904 L385 -8.66025 L390 -8.66025 L387.5 -4.33013 L390 -7.99361e-15 L395 -7.99361e-15 L397.5 -4.33013 L400 -7.99361e-15 L405 -7.99361e-15 L407.5 -4.33013 L405 -8.66025 L410 -8.66025 L412.5 -12.9904 L410 -17.3205 L405 -17.3205 L407.5 -21.6506 L405 -25.9808 L410 -25.9808 L412.5 -30.3109 L415 -25.9808 L420 -25.9808 L422.5 -30.3109 L420 -34.641 L425 -34.641 L427.5 -38.9711 L425 -43.3013 L420 -43.3013 L422.5 -47.6314 L420 -51.9615 L415 -51.9615 L412.5 -47.6314 L410 -51.9615 L405 -51.9615 L407.5 -56.2917 L405 -60.6218 L410 -60.6218 L412.5 -64.9519 L410 -69.282 L405 -69.282 L407.5 -73.6122 L405 -77.9423 L410 -77.9423 L412.5 -82.2724 L415 -77.9423 L420 -77.9423 L422.5 -82.2724 L420 -86.6025 L425 -86.6025 L427.5 -90.9327 L430 -86.6025 L435 -86.6025 L432.5 -82.2724 L435 -77.9423 L440 -77.9423 L442.5 -82.2724 L445 -77.9423 L450 -77.9423 L452.5 -82.2724 L450 -86.6025 L455 -86.6025 L457.5 -90.9327 L455 -95.2628 L450 -95.2628 L452.5 -99.5929 L450 -103.923 L455 -103.923 L457.5 -108.253 L460 -103.923 L465 -103.923 L467.5 -108.253 L465 -112.583 L470 -112.583 L472.5 -116.913 L470 -121.244 L465 -121.244 L467.5 -125.574 L465 -129.904 L460 -129.904 L457.5 -125.574 L455 -129.904 L450 -129.904 L452.5 -134.234 L450 -138.564 L455 -138.564 L457.5 -142.894 L455 -147.224 L450 -147.224 L452.5 -151.554 L450 -155.885 L445 -155.885 L442.5 -151.554 L440 -155.885 L435 -155.885 L432.5 -151.554 L435 -147.224 L430 -147.224 L427.5 -142.894 L425 -147.224 L420 -147.224 L422.5 -151.554 L420 -155.885 L415 -155.885 L412.5 -151.554 L410 -155.885 L405 -155.885 L407.5 -160.215 L405 -164.545 L410 -164.545 L412.5 -168.875 L410 -173.205 L405 -173.205 L407.5 -177.535 L405 -181.865 L410 -181.865 L412.5 -186.195 L415 -181.865 L420 -181.865 L422.5 -186.195 L420 -190.526 L425 -190.526 L427.5 -194.856 L425 -199.186 L420 -199.186 L422.5 -203.516 L420 -207.846 L415 -207.846 L412.5 -203.516 L410 -207.846 L405 -207.846 L407.5 -212.176 L405 -216.506 L410 -216.506 L412.5 -220.836 L410 -225.167 L405 -225.167 L407.5 -229.497 L405 -233.827 L410 -233.827 L412.5 -238.157 L415 -233.827 L420 -233.827 L422.5 -238.157 L420 -242.487 L425 -242.487 L427.5 -246.817 L430 -242.487 L435 -242.487 L432.5 -238.157 L435 -233.827 L440 -233.827 L442.5 -238.157 L445 -233.827 L450 -233.827 L452.5 -238.157 L450 -242.487 L455 -242.487 L457.5 -246.817 L455 -251.147 L450 -251.147 L452.5 -255.477 L450 -259.808 L455 -259.808 L457.5 -264.138 L460 -259.808 L465 -259.808 L467.5 -264.138 L465 -268.468 L470 -268.468 L472.5 -272.798 L475 -268.468 L480 -268.468 L477.5 -264.138 L480 -259.808 L485 -259.808 L487.5 -264.138 L490 -259.808 L495 -259.808 L492.5 -255.477 L495 -251.147 L490 -251.147 L487.5 -246.817 L490 -242.487 L495 -242.487 L492.5 -238.157 L495 -233.827 L500 -233.827 L502.5 -238.157 L505 -233.827 L510 -233.827 L512.5 -238.157 L510 -242.487 L515 -242.487 L517.5 -246.817 L520 -242.487 L525 -242.487 L522.5 -238.157 L525 -233.827 L530 -233.827 L532.5 -238.157 L535 -233.827 L540 -233.827 L542.5 -238.157 L540 -242.487 L545 -242.487 L547.5 -246.817 L545 -251.147 L540 -251.147 L542.5 -255.477 L540 -259.808 L545 -259.808 L547.5 -264.138 L550 -259.808 L555 -259.808 L557.5 -264.138 L555 -268.468 L560 -268.468 L562.5 -272.798 L560 -277.128 L555 -277.128 L557.5 -281.458 L555 -285.788 L550 -285.788 L547.5 -281.458 L545 -285.788 L540 -285.788 L542.5 -290.119 L540 -294.449 L545 -294.449 L547.5 -298.779 L545 -303.109 L540 -303.109 L542.5 -307.439 L540 -311.769 L545 -311.769 L547.5 -316.099 L550 -311.769 L555 -311.769 L557.5 -316.099 L555 -320.429 L560 -320.429 L562.5 -324.76 L565 -320.429 L570 -320.429 L567.5 -316.099 L570 -311.769 L575 -311.769 L577.5 -316.099 L580 -311.769 L585 -311.769 L587.5 -316.099 L585 -320.429 L590 -320.429 L592.5 -324.76 L590 -329.09 L585 -329.09 L587.5 -333.42 L585 -337.75 L590 -337.75 L592.5 -342.08 L595 -337.75 L600 -337.75 L602.5 -342.08 L600 -346.41 L605 -346.41 L607.5 -350.74 L610 -346.41 L615 -346.41 L612.5 -342.08 L615 -337.75 L620 -337.75 L622.5 -342.08 L625 -337.75 L630 -337.75 L627.5 -333.42 L630 -329.09 L625 -329.09 L622.5 -324.76 L625 -320.429 L630 -320.429 L627.5 -316.099 L630 -311.769 L635 -311.769 L637.5 -316.099 L640 -311.769 L645 -311.769 L647.5 -316.099 L645 -320.429 L650 -320.429 L652.5 -324.76 L655 -320.429 L660 -320.429 L657.5 -316.099 L660 -311.769 L665 -311.769 L667.5 -316.099 L670 -311.769 L675 -311.769 L672.5 -307.439 L675 -303.109 L670 -303.109 L667.5 -298.779 L670 -294.449 L675 -294.449 L672.5 -290.119 L675 -285.788 L670 -285.788 L667.5 -281.458 L665 -285.788 L660 -285.788 L657.5 -281.458 L660 -277.128 L655 -277.128 L652.5 -272.798 L655 -268.468 L660 -268.468 L657.5 -264.138 L660 -259.808 L665 -259.808 L667.5 -264.138 L670 -259.808 L675 -259.808 L672.5 -255.477 L675 -251.147 L670 -251.147 L667.5 -246.817 L670 -242.487 L675 -242.487 L672.5 -238.157 L675 -233.827 L680 -233.827 L682.5 -238.157 L685 -233.827 L690 -233.827 L692.5 -238.157 L690 -242.487 L695 -242.487 L697.5 -246.817 L700 -242.487 L705 -242.487 L702.5 -238.157 L705 -233.827 L710 -233.827 L712.5 -238.157 L715 -233.827 L720 -233.827 L722.5 -238.157 L720 -242.487 L725 -242.487 L727.5 -246.817 L725 -251.147 L720 -251.147 L722.5 -255.477 L720 -259.808 L725 -259.808 L727.5 -264.138 L730 -259.808 L735 -259.808 L737.5 -264.138 L735 -268.468 L740 -268.468 L742.5 -272.798 L745 -268.468 L750 -268.468 L747.5 -264.138 L750 -259.808 L755 -259.808 L757.5 -264.138 L760 -259.808 L765 -259.808 L762.5 -255.477 L765 -251.147 L760 -251.147 L757.5 -246.817 L760 -242.487 L765 -242.487 L762.5 -238.157 L765 -233.827 L770 -233.827 L772.5 -238.157 L775 -233.827 L780 -233.827 L782.5 -238.157 L780 -242.487 L785 -242.487 L787.5 -246.817 L790 -242.487 L795 -242.487 L792.5 -238.157 L795 -233.827 L800 -233.827 L802.5 -238.157 L805 -233.827 L810 -233.827 L807.5 -229.497 L810 -225.167 L805 -225.167 L802.5 -220.836 L805 -216.506 L810 -216.506 L807.5 -212.176 L810 -207.846 L805 -207.846 L802.5 -203.516 L800 -207.846 L795 -207.846 L792.5 -203.516 L795 -199.186 L790 -199.186 L787.5 -194.856 L790 -190.526 L795 -190.526 L792.5 -186.195 L795 -181.865 L800 -181.865 L802.5 -186.195 L805 -181.865 L810 -181.865 L807.5 -177.535 L810 -173.205 L805 -173.205 L802.5 -168.875 L805 -164.545 L810 -164.545 L807.5 -160.215 L810 -155.885 L805 -155.885 L802.5 -151.554 L800 -155.885 L795 -155.885 L792.5 -151.554 L795 -147.224 L790 -147.224 L787.5 -142.894 L785 -147.224 L780 -147.224 L782.5 -151.554 L780 -155.885 L775 -155.885 L772.5 -151.554 L770 -155.885 L765 -155.885 L762.5 -151.554 L765 -147.224 L760 -147.224 L757.5 -142.894 L760 -138.564 L765 -138.564 L762.5 -134.234 L765 -129.904 L760 -129.904 L757.5 -125.574 L755 -129.904 L750 -129.904 L747.5 -125.574 L750 -121.244 L745 -121.244 L742.5 -116.913 L745 -112.583 L750 -112.583 L747.5 -108.253 L750 -103.923 L755 -103.923 L757.5 -108.253 L760 -103.923 L765 -103.923 L762.5 -99.5929 L765 -95.2628 L760 -95.2628 L757.5 -90.9327 L760 -86.6025 L765 -86.6025 L762.5 -82.2724 L765 -77.9423 L770 -77.9423 L772.5 -82.2724 L775 -77.9423 L780 -77.9423 L782.5 -82.2724 L780 -86.6025 L785 -86.6025 L787.5 -90.9327 L790 -86.6025 L795 -86.6025 L792.5 -82.2724 L795 -77.9423 L800 -77.9423 L802.5 -82.2724 L805 -77.9423 L810 -77.9423 L807.5 -73.6122 L810 -69.282 L805 -69.282 L802.5 -64.9519 L805 -60.6218 L810 -60.6218 L807.5 -56.2917 L810 -51.9615 L805 -51.9615 L802.5 -47.6314 L800 -51.9615 L795 -51.9615 L792.5 -47.6314 L795 -43.3013 L790 -43.3013 L787.5 -38.9711 L790 -34.641 L795 -34.641 L792.5 -30.3109 L795 -25.9808 L800 -25.9808 L802.5 -30.3109 L805 -25.9808 L810 -25.9808 L807.5 -21.6506 L810 -17.3205 L805 -17.3205 L802.5 -12.9904 L805 -8.66025 L810 -8.66025 L807.5 -4.33013 L810 -5.06262e-14 L815 -5.06262e-14 L817.5 -4.33013 L820 -5.06262e-14 L825 -5.06262e-14 L827.5 -4.33013 L825 -8.66025 L830 -8.66025 L832.5 -12.9904 L835 -8.66025 L840 -8.66025 L837.5 -4.33013 L840 -5.06262e-14 L845 -5.06262e-14 L847.5 -4.33013 L850 -5.06262e-14 L855 -5.06262e-14 L857.5 -4.33013 L855 -8.66025 L860 -8.66025 L862.5 -12.9904 L860 -17.3205 L855 -17.3205 L857.5 -21.6506 L855 -25.9808 L860 -25.9808 L862.5 -30.3109 L865 -25.9808 L870 -25.9808 L872.5 -30.3109 L870 -34.641 L875 -34.641 L877.5 -38.9711 L880 -34.641 L885 -34.641 L882.5 -30.3109 L885 -25.9808 L890 -25.9808 L892.5 -30.3109 L895 -25.9808 L900 -25.9808 L897.5 -21.6506 L900 -17.3205 L895 -17.3205 L892.5 -12.9904 L895 -8.66025 L900 -8.66025 L897.5 -4.33013 L900 -5.06262e-14 L905 -5.06262e-14 L907.5 -4.33013 L910 -5.06262e-14 L915 -5.06262e-14 L917.5 -4.33013 L915 -8.66025 L920 -8.66025 L922.5 -12.9904 L925 -8.66025 L930 -8.66025 L927.5 -4.33013 L930 -5.06262e-14 L935 -5.06262e-14 L937.5 -4.33013 L940 -5.06262e-14 L945 -5.06262e-14 L947.5 -4.33013 L945 -8.66025 L950 -8.66025 L952.5 -12.9904 L950 -17.3205 L945 -17.3205 L947.5 -21.6506 L945 -25.9808 L950 -25.9808 L952.5 -30.3109 L955 -25.9808 L960 -25.9808 L962.5 -30.3109 L960 -34.641 L965 -34.641 L967.5 -38.9711 L965 -43.3013 L960 -43.3013 L962.5 -47.6314 L960 -51.9615 L955 -51.9615 L952.5 -47.6314 L950 -51.9615 L945 -51.9615 L947.5 -56.2917 L945 -60.6218 L950 -60.6218 L952.5 -64.9519 L950 -69.282 L945 -69.282 L947.5 -73.6122 L945 -77.9423 L950 -77.9423 L952.5 -82.2724 L955 -77.9423 L960 -77.9423 L962.5 -82.2724 L960 -86.6025 L965 -86.6025 L967.5 -90.9327 L970 -86.6025 L975 -86.6025 L972.5 -82.2724 L975 -77.9423 L980 -77.9423 L982.5 -82.2724 L985 -77.9423 L990 -77.9423 L992.5 -82.2724 L990 -86.6025 L995 -86.6025 L997.5 -90.9327 L995 -95.2628 L990 -95.2628 L992.5 -99.5929 L990 -103.923 L995 -103.923 L997.5 -108.253 L1000 -103.923 L1005 -103.923 L1007.5 -108.253 L1005 -112.583 L1010 -112.583 L1012.5 -116.913 L1015 -112.583 L1020 -112.583 L1017.5 -108.253 L1020 -103.923 L1025 -103.923 L1027.5 -108.253 L1030 -103.923 L1035 -103.923 L1032.5 -99.5929 L1035 -95.2628 L1030 -95.2628 L1027.5 -90.9327 L1030 -86.6025 L1035 -86.6025 L1032.5 -82.2724 L1035 -77.9423 L1040 -77.9423 L1042.5 -82.2724 L1045 -77.9423 L1050 -77.9423 L1052.5 -82.2724 L1050 -86.6025 L1055 -86.6025 L1057.5 -90.9327 L1060 -86.6025 L1065 -86.6025 L1062.5 -82.2724 L1065 -77.9423 L1070 -77.9423 L1072.5 -82.2724 L1075 -77.9423 L1080 -77.9423 L1077.5 -73.6122 L1080 -69.282 L1075 -69.282 L1072.5 -64.9519 L1075 -60.6218 L1080 -60.6218 L1077.5 -56.2917 L1080 -51.9615 L1075 -51.9615 L1072.5 -47.6314 L1070 -51.9615 L1065 -51.9615 L1062.5 -47.6314 L1065 -43.3013 L1060 -43.3013 L1057.5 -38.9711 L1060 -34.641 L1065 -34.641 L1062.5 -30.3109 L1065 -25.9808 L1070 -25.9808 L1072.5 -30.3109 L1075 -25.9808 L1080 -25.9808 L1077.5 -21.6506 L1080 -17.3205 L1075 -17.3205 L1072.5 -12.9904 L1075 -8.66025 L1080 -8.66025 L1077.5 -4.33013 L1080 -6.4837e-14 L1085 -6.4837e-14 L1087.5 -4.33013 L1090 -6.4837e-14 L1095 -6.4837e-14 L1097.5 -4.33013 L1095 -8.66025 L1100 -8.66025 L1102.5 -12.9904 L1105 -8.66025 L1110 -8.66025 L1107.5 -4.33013 L1110 -6.4837e-14 L1115 -6.4837e-14 L1117.5 -4.33013 L1120 -6.4837e-14 L1125 -6.4837e-14 L1127.5 -4.33013 L1125 -8.66025 L1130 -8.66025 L1132.5 -12.9904 L1130 -17.3205 L1125 -17.3205 L1127.5 -21.6506 L1125 -25.9808 L1130 -25.9808 L1132.5 -30.3109 L1135 -25.9808 L1140 -25.9808 L1142.5 -30.3109 L1140 -34.641 L1145 -34.641 L1147.5 -38.9711 L1150 -34.641 L1155 -34.641 L1152.5 -30.3109 L1155 -25.9808 L1160 -25.9808 L1162.5 -30.3109 L1165 -25.9808 L1170 -25.9808 L1167.5 -21.6506 L1170 -17.3205 L1165 -17.3205 L1162.5 -12.9904 L1165 -8.66025 L1170 -8.66025 L1167.5 -4.33013 L1170 -6.4837e-14 L1175 -6.4837e-14 L1177.5 -4.33013 L1180 -6.4837e-14 L1185 -6.4837e-14 L1187.5 -4.33013 L1185 -8.66025 L1190 -8.66025 L1192.5 -12.9904 L1195 -8.66025 L1200 -8.66025 L1197.5 -4.33013 L1200 -6.4837e-14 L1205 -6.4837e-14 L1207.5 -4.33013 L1210 -6.4837e-14 L1215 -6.4837e-14 L1217.5 -4.33013 L1215 -8.66025 L1220 -8.66025 L1222.5 -12.9904 L1220 -17.3205 L1215 -17.3205 L1217.5 -21.6506 L1215 -25.9808 L1220 -25.9808 L1222.5 -30.3109 L1225 -25.9808 L1230 -25.9808 L1232.5 -30.3109 L1230 -34.641 L1235 -34.641 L1237.5 -38.9711 L1235 -43.3013 L1230 -43.3013 L1232.5 -47.6314 L1230 -51.9615 L1225 -51.9615 L1222.5 -47.6314 L1220 -51.9615 L1215 -51.9615 L1217.5 -56.2917 L1215 -60.6218 L1220 -60.6218 L1222.5 -64.9519 L1220 -69.282 L1215 -69.282 L1217.5 -73.6122 L1215 -77.9423 L1220 -77.9423 L1222.5 -82.2724 L1225 -77.9423 L1230 -77.9423 L1232.5 -82.2724 L1230 -86.6025 L1235 -86.6025 L1237.5 -90.9327 L1240 -86.6025 L1245 -86.6025 L1242.5 -82.2724 L1245 -77.9423 L1250 -77.9423 L1252.5 -82.2724 L1255 -77.9423 L1260 -77.9423 L1262.5 -82.2724 L1260 -86.6025 L1265 -86.6025 L1267.5 -90.9327 L1265 -95.2628 L1260 -95.2628 L1262.5 -99.5929 L1260 -103.923 L1265 -103.923 L1267.5 -108.253 L1270 -103.923 L1275 -103.923 L1277.5 -108.253 L1275 -112.583 L1280 -112.583 L1282.5 -116.913 L1280 -121.244 L1275 -121.244 L1277.5 -125.574 L1275 -129.904 L1270 -129.904 L1267.5 -125.574 L1265 -129.904 L1260 -129.904 L1262.5 -134.234 L1260 -138.564 L1265 -138.564 L1267.5 -142.894 L1265 -147.224 L1260 -147.224 L1262.5 -151.554 L1260 -155.885 L1255 -155.885 L1252.5 -151.554 L1250 -155.885 L1245 -155.885 L1242.5 -151.554 L1245 -147.224 L1240 -147.224 L1237.5 -142.894 L1235 -147.224 L1230 -147.224 L1232.5 -151.554 L1230 -155.885 L1225 -155.885 L1222.5 -151.554 L1220 -155.885 L1215 -155.885 L1217.5 -160.215 L1215 -164.545 L1220 -164.545 L1222.5 -168.875 L1220 -173.205 L1215 -173.205 L1217.5 -177.535 L1215 -181.865 L1220 -181.865 L1222.5 -186.195 L1225 -181.865 L1230 -181.865 L1232.5 -186.195 L1230 -190.526 L1235 -190.526 L1237.5 -194.856 L1235 -199.186 L1230 -199.186 L1232.5 -203.516 L1230 -207.846 L1225 -207.846 L1222.5 -203.516 L1220 -207.846 L1215 -207.846 L1217.5 -212.176 L1215 -216.506 L1220 -216.506 L1222.5 -220.836 L1220 -225.167 L1215 -225.167 L1217.5 -229.497 L1215 -233.827 L1220 -233.827 L1222.5 -238.157 L1225 -233.827 L1230 -233.827 L1232.5 -238.157 L1230 -242.487 L1235 -242.487 L1237.5 -246.817 L1240 -242.487 L1245 -242.487 L1242.5 -238.157 L1245 -233.827 L1250 -233.827 L1252.5 -238.157 L1255 -233.827 L1260 -233.827 L1262.5 -238.157 L1260 -242.487 L1265 -242.487 L1267.5 -246.817 L1265 -251.147 L1260 -251.147 L1262.5 -255.477 L1260 -259.808 L1265 -259.808 L1267.5 -264.138 L1270 -259.808 L1275 -259.808 L1277.5 -264.138 L1275 -268.468 L1280 -268.468 L1282.5 -272.798 L1285 -268.468 L1290 -268.468 L1287.5 -264.138 L1290 -259.808 L1295 -259.808 L1297.5 -264.138 L1300 -259.808 L1305 -259.808 L1302.5 -255.477 L1305 -251.147 L1300 -251.147 L1297.5 -246.817 L1300 -242.487 L1305 -242.487 L1302.5 -238.157 L1305 -233.827 L1310 -233.827 L1312.5 -238.157 L1315 -233.827 L1320 -233.827 L1322.5 -238.157 L1320 -242.487 L1325 -242.487 L1327.5 -246.817 L1330 -242.487 L1335 -242.487 L1332.5 -238.157 L1335 -233.827 L1340 -233.827 L1342.5 -238.157 L1345 -233.827 L1350 -233.827 L1352.5 -238.157 L1350 -242.487 L1355 -242.487 L1357.5 -246.817 L1355 -251.147 L1350 -251.147 L1352.5 -255.477 L1350 -259.808 L1355 -259.808 L1357.5 -264.138 L1360 -259.808 L1365 -259.808 L1367.5 -264.138 L1365 -268.468 L1370 -268.468 L1372.5 -272.798 L1370 -277.128 L1365 -277.128 L1367.5 -281.458 L1365 -285.788 L1360 -285.788 L1357.5 -281.458 L1355 -285.788 L1350 -285.788 L1352.5 -290.119 L1350 -294.449 L1355 -294.449 L1357.5 -298.779 L1355 -303.109 L1350 -303.109 L1352.5 -307.439 L1350 -311.769 L1355 -311.769 L1357.5 -316.099 L1360 -311.769 L1365 -311.769 L1367.5 -316.099 L1365 -320.429 L1370 -320.429 L1372.5 -324.76 L1375 -320.429 L1380 -320.429 L1377.5 -316.099 L1380 -311.769 L1385 -311.769 L1387.5 -316.099 L1390 -311.769 L1395 -311.769 L1397.5 -316.099 L1395 -320.429 L1400 -320.429 L1402.5 -324.76 L1400 -329.09 L1395 -329.09 L1397.5 -333.42 L1395 -337.75 L1400 -337.75 L1402.5 -342.08 L1405 -337.75 L1410 -337.75 L1412.5 -342.08 L1410 -346.41 L1415 -346.41 L1417.5 -350.74 L1415 -355.07 L1410 -355.07 L1412.5 -359.401 L1410 -363.731 L1405 -363.731 L1402.5 -359.401 L1400 -363.731 L1395 -363.731 L1397.5 -368.061 L1395 -372.391 L1400 -372.391 L1402.5 -376.721 L1400 -381.051 L1395 -381.051 L1397.5 -385.381 L1395 -389.711 L1390 -389.711 L1387.5 -385.381 L1385 -389.711 L1380 -389.711 L1377.5 -385.381 L1380 -381.051 L1375 -381.051 L1372.5 -376.721 L1370 -381.051 L1365 -381.051 L1367.5 -385.381 L1365 -389.711 L1360 -389.711 L1357.5 -385.381 L1355 -389.711 L1350 -389.711 L1352.5 -394.042 L1350 -398.372 L1355 -398.372 L1357.5 -402.702 L1355 -407.032 L1350 -407.032 L1352.5 -411.362 L1350 -415.692 L1355 -415.692 L1357.5 -420.022 L1360 -415.692 L1365 -415.692 L1367.5 -420.022 L1365 -424.352 L1370 -424.352 L1372.5 -428.683 L1370 -433.013 L1365 -433.013 L1367.5 -437.343 L1365 -441.673 L1360 -441.673 L1357.5 -437.343 L1355 -441.673 L1350 -441.673 L1352.5 -446.003 L1350 -450.333 L1355 -450.333 L1357.5 -454.663 L1355 -458.993 L1350 -458.993 L1352.5 -463.324 L1350 -467.654 L1345 -467.654 L1342.5 -463.324 L1340 -467.654 L1335 -467.654 L1332.5 -463.324 L1335 -458.993 L1330 -458.993 L1327.5 -454.663 L1325 -458.993 L1320 -458.993 L1322.5 -463.324 L1320 -467.654 L1315 -467.654 L1312.5 -463.324 L1310 -467.654 L1305 -467.654 L1302.5 -463.324 L1305 -458.993 L1300 -458.993 L1297.5 -454.663 L1300 -450.333 L1305 -450.333 L1302.5 -446.003 L1305 -441.673 L1300 -441.673 L1297.5 -437.343 L1295 -441.673 L1290 -441.673 L1287.5 -437.343 L1290 -433.013 L1285 -433.013 L1282.5 -428.683 L1280 -433.013 L1275 -433.013 L1277.5 -437.343 L1275 -441.673 L1270 -441.673 L1267.5 -437.343 L1265 -441.673 L1260 -441.673 L1262.5 -446.003 L1260 -450.333 L1265 -450.333 L1267.5 -454.663 L1265 -458.993 L1260 -458.993 L1262.5 -463.324 L1260 -467.654 L1255 -467.654 L1252.5 -463.324 L1250 -467.654 L1245 -467.654 L1242.5 -463.324 L1245 -458.993 L1240 -458.993 L1237.5 -454.663 L1235 -458.993 L1230 -458.993 L1232.5 -463.324 L1230 -467.654 L1225 -467.654 L1222.5 -463.324 L1220 -467.654 L1215 -467.654 L1217.5 -471.984 L1215 -476.314 L1220 -476.314 L1222.5 -480.644 L1220 -484.974 L1215 -484.974 L1217.5 -489.304 L1215 -493.634 L1220 -493.634 L1222.5 -497.965 L1225 -493.634 L1230 -493.634 L1232.5 -497.965 L1230 -502.295 L1235 -502.295 L1237.5 -506.625 L1235 -510.955 L1230 -510.955 L1232.5 -515.285 L1230 -519.615 L1225 -519.615 L1222.5 -515.285 L1220 -519.615 L1215 -519.615 L1217.5 -523.945 L1215 -528.275 L1220 -528.275 L1222.5 -532.606 L1220 -536.936 L1215 -536.936 L1217.5 -541.266 L1215 -545.596 L1220 -545.596 L1222.5 -549.926 L1225 -545.596 L1230 -545.596 L1232.5 -549.926 L1230 -554.256 L1235 -554.256 L1237.5 -558.586 L1240 -554.256 L1245 -554.256 L1242.5 -549.926 L1245 -545.596 L1250 -545.596 L1252.5 -549.926 L1255 -545.596 L1260 -545.596 L1262.5 -549.926 L1260 -554.256 L1265 -554.256 L1267.5 -558.586 L1265 -562.917 L1260 -562.917 L1262.5 -567.247 L1260 -571.577 L1265 -571.577 L1267.5 -575.907 L1270 -571.577 L1275 -571.577 L1277.5 -575.907 L1275 -580.237 L1280 -580.237 L1282.5 -584.567 L1280 -588.897 L1275 -588.897 L1277.5 -593.227 L1275 -597.558 L1270 -597.558 L1267.5 -593.227 L1265 -597.558 L1260 -597.558 L1262.5 -601.888 L1260 -606.218 L1265 -606.218 L1267.5 -610.548 L1265 -614.878 L1260 -614.878 L1262.5 -619.208 L1260 -623.538 L1255 -623.538 L1252.5 -619.208 L1250 -623.538 L1245 -623.538 L1242.5 -619.208 L1245 -614.878 L1240 -614.878 L1237.5 -610.548 L1235 -614.878 L1230 -614.878 L1232.5 -619.208 L1230 -623.538 L1225 -623.538 L1222.5 -619.208 L1220 -623.538 L1215 -623.538 L1217.5 -627.868 L1215 -632.199 L1220 -632.199 L1222.5 -636.529 L1220 -640.859 L1215 -640.859 L1217.5 -645.189 L1215 -649.519 L1220 -649.519 L1222.5 -653.849 L1225 -649.519 L1230 -649.519 L1232.5 -653.849 L1230 -658.179 L1235 -658.179 L1237.5 -662.509 L1235 -666.84 L1230 -666.84 L1232.5 -671.17 L1230 -675.5 L1225 -675.5 L1222.5 -671.17 L1220 -675.5 L1215 -675.5 L1217.5 -679.83 L1215 -684.16 L1220 -684.16 L1222.5 -688.49 L1220 -692.82 L1215 -692.82 L1217.5 -697.15 L1215 -701.481 L1220 -701.481 L1222.5 -705.811 L1225 -701.481 L1230 -701.481 L1232.5 -705.811 L1230 -710.141 L1235 -710.141 L1237.5 -714.471 L1240 -710.141 L1245 -710.141 L1242.5 -705.811 L1245 -701.481 L1250 -701.481 L1252.5 -705.811 L1255 -701.481 L1260 -701.481 L1262.5 -705.811 L1260 -710.141 L1265 -710.141 L1267.5 -714.471 L1265 -718.801 L1260 -718.801 L1262.5 -723.131 L1260 -727.461 L1265 -727.461 L1267.5 -731.791 L1270 -727.461 L1275 -727.461 L1277.5 -731.791 L1275 -736.122 L1280 -736.122 L1282.5 -740.452 L1285 -736.122 L1290 -736.122 L1287.5 -731.791 L1290 -727.461 L1295 -727.461 L1297.5 -731.791 L1300 -727.461 L1305 -727.461 L1302.5 -723.131 L1305 -718.801 L1300 -718.801 L1297.5 -714.471 L1300 -710.141 L1305 -710.141 L1302.5 -705.811 L1305 -701.481 L1310 -701.481 L1312.5 -705.811 L1315 -701.481 L1320 -701.481 L1322.5 -705.811 L1320 -710.141 L1325 -710.141 L1327.5 -714.471 L1330 -710.141 L1335 -710.141 L1332.5 -705.811 L1335 -701.481 L1340 -701.481 L1342.5 -705.811 L1345 -701.481 L1350 -701.481 L1352.5 -705.811 L1350 -710.141 L1355 -710.141 L1357.5 -714.471 L1355 -718.801 L1350 -718.801 L1352.5 -723.131 L1350 -727.461 L1355 -727.461 L1357.5 -731.791 L1360 -727.461 L1365 -727.461 L1367.5 -731.791 L1365 -736.122 L1370 -736.122 L1372.5 -740.452 L1370 -744.782 L1365 -744.782 L1367.5 -749.112 L1365 -753.442 L1360 -753.442 L1357.5 -749.112 L1355 -753.442 L1350 -753.442 L1352.5 -757.772 L1350 -762.102 L1355 -762.102 L1357.5 -766.432 L1355 -770.763 L1350 -770.763 L1352.5 -775.093 L1350 -779.423 L1355 -779.423 L1357.5 -783.753 L1360 -779.423 L1365 -779.423 L1367.5 -783.753 L1365 -788.083 L1370 -788.083 L1372.5 -792.413 L1375 -788.083 L1380 -788.083 L1377.5 -783.753 L1380 -779.423 L1385 -779.423 L1387.5 -783.753 L1390 -779.423 L1395 -779.423 L1397.5 -783.753 L1395 -788.083 L1400 -788.083 L1402.5 -792.413 L1400 -796.743 L1395 -796.743 L1397.5 -801.073 L1395 -805.404 L1400 -805.404 L1402.5 -809.734 L1405 -805.404 L1410 -805.404 L1412.5 -809.734 L1410 -814.064 L1415 -814.064 L1417.5 -818.394 L1420 -814.064 L1425 -814.064 L1422.5 -809.734 L1425 -805.404 L1430 -805.404 L1432.5 -809.734 L1435 -805.404 L1440 -805.404 L1437.5 -801.073 L1440 -796.743 L1435 -796.743 L1432.5 -792.413 L1435 -788.083 L1440 -788.083 L1437.5 -783.753 L1440 -779.423 L1445 -779.423 L1447.5 -783.753 L1450 -779.423 L1455 -779.423 L1457.5 -783.753 L1455 -788.083 L1460 -788.083 L1462.5 -792.413 L1465 -788.083 L1470 -788.083 L1467.5 -783.753 L1470 -779.423 L1475 -779.423 L1477.5 -783.753 L1480 -779.423 L1485 -779.423 L1482.5 -775.093 L1485 -770.763 L1480 -770.763 L1477.5 -766.432 L1480 -762.102 L1485 -762.102 L1482.5 -757.772 L1485 -753.442 L1480 -753.442 L1477.5 -749.112 L1475 -753.442 L1470 -753.442 L1467.5 -749.112 L1470 -744.782 L1465 -744.782 L1462.5 -740.452 L1465 -736.122 L1470 -736.122 L1467.5 -731.791 L1470 -727.461 L1475 -727.461 L1477.5 -731.791 L1480 -727.461 L1485 -727.461 L1482.5 -723.131 L1485 -718.801 L1480 -718.801 L1477.5 -714.471 L1480 -710.141 L1485 -710.141 L1482.5 -705.811 L1485 -701.481 L1490 -701.481 L1492.5 -705.811 L1495 -701.481 L1500 -701.481 L1502.5 -705.811 L1500 -710.141 L1505 -710.141 L1507.5 -714.471 L1510 -710.141 L1515 -710.141 L1512.5 -705.811 L1515 -701.481 L1520 -701.481 L1522.5 -705.811 L1525 -701.481 L1530 -701.481 L1532.5 -705.811 L1530 -710.141 L1535 -710.141 L1537.5 -714.471 L1535 -718.801 L1530 -718.801 L1532.5 -723.131 L1530 -727.461 L1535 -727.461 L1537.5 -731.791 L1540 -727.461 L1545 -727.461 L1547.5 -731.791 L1545 -736.122 L1550 -736.122 L1552.5 -740.452 L1555 -736.122 L1560 -736.122 L1557.5 -731.791 L1560 -727.461 L1565 -727.461 L1567.5 -731.791 L1570 -727.461 L1575 -727.461 L1572.5 -723.131 L1575 -718.801 L1570 -718.801 L1567.5 -714.471 L1570 -710.141 L1575 -710.141 L1572.5 -705.811 L1575 -701.481 L1580 -701.481 L1582.5 -705.811 L1585 -701.481 L1590 -701.481 L1592.5 -705.811 L1590 -710.141 L1595 -710.141 L1597.5 -714.471 L1600 -710.141 L1605 -710.141 L1602.5 -705.811 L1605 -701.481 L1610 -701.481 L1612.5 -705.811 L1615 -701.481 L1620 -701.481 L1622.5 -705.811 L1620 -710.141 L1625 -710.141 L1627.5 -714.471 L1625 -718.801 L1620 -718.801 L1622.5 -723.131 L1620 -727.461 L1625 -727.461 L1627.5 -731.791 L1630 -727.461 L1635 -727.461 L1637.5 -731.791 L1635 -736.122 L1640 -736.122 L1642.5 -740.452 L1640 -744.782 L1635 -744.782 L1637.5 -749.112 L1635 -753.442 L1630 -753.442 L1627.5 -749.112 L1625 -753.442 L1620 -753.442 L1622.5 -757.772 L1620 -762.102 L1625 -762.102 L1627.5 -766.432 L1625 -770.763 L1620 -770.763 L1622.5 -775.093 L1620 -779.423 L1625 -779.423 L1627.5 -783.753 L1630 -779.423 L1635 -779.423 L1637.5 -783.753 L1635 -788.083 L1640 -788.083 L1642.5 -792.413 L1645 -788.083 L1650 -788.083 L1647.5 -783.753 L1650 -779.423 L1655 -779.423 L1657.5 -783.753 L1660 -779.423 L1665 -779.423 L1667.5 -783.753 L1665 -788.083 L1670 -788.083 L1672.5 -792.413 L1670 -796.743 L1665 -796.743 L1667.5 -801.073 L1665 -805.404 L1670 -805.404 L1672.5 -809.734 L1675 -805.404 L1680 -805.404 L1682.5 -809.734 L1680 -814.064 L1685 -814.064 L1687.5 -818.394 L1685 -822.724 L1680 -822.724 L1682.5 -827.054 L1680 -831.384 L1675 -831.384 L1672.5 -827.054 L1670 -831.384 L1665 -831.384 L1667.5 -835.715 L1665 -840.045 L1670 -840.045 L1672.5 -844.375 L1670 -848.705 L1665 -848.705 L1667.5 -853.035 L1665 -857.365 L1660 -857.365 L1657.5 -853.035 L1655 -857.365 L1650 -857.365 L1647.5 -853.035 L1650 -848.705 L1645 -848.705 L1642.5 -844.375 L1640 -848.705 L1635 -848.705 L1637.5 -853.035 L1635 -857.365 L1630 -857.365 L1627.5 -853.035 L1625 -857.365 L1620 -857.365 L1622.5 -861.695 L1620 -866.025 L1625 -866.025 L1627.5 -870.356 L1625 -874.686 L1620 -874.686 L1622.5 -879.016 L1620 -883.346 L1625 -883.346 L1627.5 -887.676 L1630 -883.346 L1635 -883.346 L1637.5 -887.676 L1635 -892.006 L1640 -892.006 L1642.5 -896.336 L1640 -900.666 L1635 -900.666 L1637.5 -904.997 L1635 -909.327 L1630 -909.327 L1627.5 -904.997 L1625 -909.327 L1620 -909.327 L1622.5 -913.657 L1620 -917.987 L1625 -917.987 L1627.5 -922.317 L1625 -926.647 L1620 -926.647 L1622.5 -930.977 L1620 -935.307 L1625 -935.307 L1627.5 -939.638 L1630 -935.307 L1635 -935.307 L1637.5 -939.638 L1635 -943.968 L1640 -943.968 L1642.5 -948.298 L1645 -943.968 L1650 -943.968 L1647.5 -939.638 L1650 -935.307 L1655 -935.307 L1657.5 -939.638 L1660 -935.307 L1665 -935.307 L1667.5 -939.638 L1665 -943.968 L1670 -943.968 L1672.5 -948.298 L1670 -952.628 L1665 -952.628 L1667.5 -956.958 L1665 -961.288 L1670 -961.288 L1672.5 -965.618 L1675 -961.288 L1680 -961.288 L1682.5 -965.618 L1680 -969.948 L1685 -969.948 L1687.5 -974.279 L1690 -969.948 L1695 -969.948 L1692.5 -965.618 L1695 -961.288 L1700 -961.288 L1702.5 -965.618 L1705 -961.288 L1710 -961.288 L1707.5 -956.958 L1710 -952.628 L1705 -952.628 L1702.5 -948.298 L1705 -943.968 L1710 -943.968 L1707.5 -939.638 L1710 -935.307 L1715 -935.307 L1717.5 -939.638 L1720 -935.307 L1725 -935.307 L1727.5 -939.638 L1725 -943.968 L1730 -943.968 L1732.5 -948.298 L1735 -943.968 L1740 -943.968 L1737.5 -939.638 L1740 -935.307 L1745 -935.307 L1747.5 -939.638 L1750 -935.307 L1755 -935.307 L1757.5 -939.638 L1755 -943.968 L1760 -943.968 L1762.5 -948.298 L1760 -952.628 L1755 -952.628 L1757.5 -956.958 L1755 -961.288 L1760 -961.288 L1762.5 -965.618 L1765 -961.288 L1770 -961.288 L1772.5 -965.618 L1770 -969.948 L1775 -969.948 L1777.5 -974.279 L1775 -978.609 L1770 -978.609 L1772.5 -982.939 L1770 -987.269 L1765 -987.269 L1762.5 -982.939 L1760 -987.269 L1755 -987.269 L1757.5 -991.599 L1755 -995.929 L1760 -995.929 L1762.5 -1000.26 L1760 -1004.59 L1755 -1004.59 L1757.5 -1008.92 L1755 -1013.25 L1760 -1013.25 L1762.5 -1017.58 L1765 -1013.25 L1770 -1013.25 L1772.5 -1017.58 L1770 -1021.91 L1775 -1021.91 L1777.5 -1026.24 L1780 -1021.91 L1785 -1021.91 L1782.5 -1017.58 L1785 -1013.25 L1790 -1013.25 L1792.5 -1017.58 L1795 -1013.25 L1800 -1013.25 L1802.5 -1017.58 L1800 -1021.91 L1805 -1021.91 L1807.5 -1026.24 L1805 -1030.57 L1800 -1030.57 L1802.5 -1034.9 L1800 -1039.23 L1805 -1039.23 L1807.5 -1043.56 L1810 -1039.23 L1815 -1039.23 L1817.5 -1043.56 L1815 -1047.89 L1820 -1047.89 L1822.5 -1052.22 L1825 -1047.89 L1830 -1047.89 L1827.5 -1043.56 L1830 -1039.23 L1835 -1039.23 L1837.5 -1043.56 L1840 -1039.23 L1845 -1039.23 L1842.5 -1034.9 L1845 -1030.57 L1840 -1030.57 L1837.5 -1026.24 L1840 -1021.91 L1845 -1021.91 L1842.5 -1017.58 L1845 -1013.25 L1850 -1013.25 L1852.5 -1017.58 L1855 -1013.25 L1860 -1013.25 L1862.5 -1017.58 L1860 -1021.91 L1865 -1021.91 L1867.5 -1026.24 L1870 -1021.91 L1875 -1021.91 L1872.5 -1017.58 L1875 -1013.25 L1880 -1013.25 L1882.5 -1017.58 L1885 -1013.25 L1890 -1013.25 L1887.5 -1008.92 L1890 -1004.59 L1885 -1004.59 L1882.5 -1000.26 L1885 -995.929 L1890 -995.929 L1887.5 -991.599 L1890 -987.269 L1885 -987.269 L1882.5 -982.939 L1880 -987.269 L1875 -987.269 L1872.5 -982.939 L1875 -978.609 L1870 -978.609 L1867.5 -974.279 L1870 -969.948 L1875 -969.948 L1872.5 -965.618 L1875 -961.288 L1880 -961.288 L1882.5 -965.618 L1885 -961.288 L1890 -961.288 L1887.5 -956.958 L1890 -952.628 L1885 -952.628 L1882.5 -948.298 L1885 -943.968 L1890 -943.968 L1887.5 -939.638 L1890 -935.307 L1895 -935.307 L1897.5 -939.638 L1900 -935.307 L1905 -935.307 L1907.5 -939.638 L1905 -943.968 L1910 -943.968 L1912.5 -948.298 L1915 -943.968 L1920 -943.968 L1917.5 -939.638 L1920 -935.307 L1925 -935.307 L1927.5 -939.638 L1930 -935.307 L1935 -935.307 L1937.5 -939.638 L1935 -943.968 L1940 -943.968 L1942.5 -948.298 L1940 -952.628 L1935 -952.628 L1937.5 -956.958 L1935 -961.288 L1940 -961.288 L1942.5 -965.618 L1945 -961.288 L1950 -961.288 L1952.5 -965.618 L1950 -969.948 L1955 -969.948 L1957.5 -974.279 L1960 -969.948 L1965 -969.948 L1962.5 -965.618 L1965 -961.288 L1970 -961.288 L1972.5 -965.618 L1975 -961.288 L1980 -961.288 L1977.5 -956.958 L1980 -952.628 L1975 -952.628 L1972.5 -948.298 L1975 -943.968 L1980 -943.968 L1977.5 -939.638 L1980 -935.307 L1985 -935.307 L1987.5 -939.638 L1990 -935.307 L1995 -935.307 L1997.5 -939.638 L1995 -943.968 L2000 -943.968 L2002.5 -948.298 L2005 -943.968 L2010 -943.968 L2007.5 -939.638 L2010 -935.307 L2015 -935.307 L2017.5 -939.638 L2020 -935.307 L2025 -935.307 L2022.5 -930.977 L2025 -926.647 L2020 -926.647 L2017.5 -922.317 L2020 -917.987 L2025 -917.987 L2022.5 -913.657 L2025 -909.327 L2020 -909.327 L2017.5 -904.997 L2015 -909.327 L2010 -909.327 L2007.5 -904.997 L2010 -900.666 L2005 -900.666 L2002.5 -896.336 L2005 -892.006 L2010 -892.006 L2007.5 -887.676 L2010 -883.346 L2015 -883.346 L2017.5 -887.676 L2020 -883.346 L2025 -883.346 L2022.5 -879.016 L2025 -874.686 L2020 -874.686 L2017.5 -870.356 L2020 -866.025 L2025 -866.025 L2022.5 -861.695 L2025 -857.365 L2020 -857.365 L2017.5 -853.035 L2015 -857.365 L2010 -857.365 L2007.5 -853.035 L2010 -848.705 L2005 -848.705 L2002.5 -844.375 L2000 -848.705 L1995 -848.705 L1997.5 -853.035 L1995 -857.365 L1990 -857.365 L1987.5 -853.035 L1985 -857.365 L1980 -857.365 L1977.5 -853.035 L1980 -848.705 L1975 -848.705 L1972.5 -844.375 L1975 -840.045 L1980 -840.045 L1977.5 -835.715 L1980 -831.384 L1975 -831.384 L1972.5 -827.054 L1970 -831.384 L1965 -831.384 L1962.5 -827.054 L1965 -822.724 L1960 -822.724 L1957.5 -818.394 L1960 -814.064 L1965 -814.064 L1962.5 -809.734 L1965 -805.404 L1970 -805.404 L1972.5 -809.734 L1975 -805.404 L1980 -805.404 L1977.5 -801.073 L1980 -796.743 L1975 -796.743 L1972.5 -792.413 L1975 -788.083 L1980 -788.083 L1977.5 -783.753 L1980 -779.423 L1985 -779.423 L1987.5 -783.753 L1990 -779.423 L1995 -779.423 L1997.5 -783.753 L1995 -788.083 L2000 -788.083 L2002.5 -792.413 L2005 -788.083 L2010 -788.083 L2007.5 -783.753 L2010 -779.423 L2015 -779.423 L2017.5 -783.753 L2020 -779.423 L2025 -779.423 L2022.5 -775.093 L2025 -770.763 L2020 -770.763 L2017.5 -766.432 L2020 -762.102 L2025 -762.102 L2022.5 -757.772 L2025 -753.442 L2020 -753.442 L2017.5 -749.112 L2015 -753.442 L2010 -753.442 L2007.5 -749.112 L2010 -744.782 L2005 -744.782 L2002.5 -740.452 L2005 -736.122 L2010 -736.122 L2007.5 -731.791 L2010 -727.461 L2015 -727.461 L2017.5 -731.791 L2020 -727.461 L2025 -727.461 L2022.5 -723.131 L2025 -718.801 L2020 -718.801 L2017.5 -714.471 L2020 -710.141 L2025 -710.141 L2022.5 -705.811 L2025 -701.481 L2030 -701.481 L2032.5 -705.811 L2035 -701.481 L2040 -701.481 L2042.5 -705.811 L2040 -710.141 L2045 -710.141 L2047.5 -714.471 L2050 -710.141 L2055 -710.141 L2052.5 -705.811 L2055 -701.481 L2060 -701.481 L2062.5 -705.811 L2065 -701.481 L2070 -701.481 L2072.5 -705.811 L2070 -710.141 L2075 -710.141 L2077.5 -714.471 L2075 -718.801 L2070 -718.801 L2072.5 -723.131 L2070 -727.461 L2075 -727.461 L2077.5 -731.791 L2080 -727.461 L2085 -727.461 L2087.5 -731.791 L2085 -736.122 L2090 -736.122 L2092.5 -740.452 L2095 -736.122 L2100 -736.122 L2097.5 -731.791 L2100 -727.461 L2105 -727.461 L2107.5 -731.791 L2110 -727.461 L2115 -727.461 L2112.5 -723.131 L2115 -718.801 L2110 -718.801 L2107.5 -714.471 L2110 -710.141 L2115 -710.141 L2112.5 -705.811 L2115 -701.481 L2120 -701.481 L2122.5 -705.811 L2125 -701.481 L2130 -701.481 L2132.5 -705.811 L2130 -710.141 L2135 -710.141 L2137.5 -714.471 L2140 -710.141 L2145 -710.141 L2142.5 -705.811 L2145 -701.481 L2150 -701.481 L2152.5 -705.811 L2155 -701.481 L2160 -701.481 L2162.5 -705.811 L2160 -710.141 L2165 -710.141 L2167.5 -714.471 L2165 -718.801 L2160 -718.801 L2162.5 -723.131 L2160 -727.461 L2165 -727.461 L2167.5 -731.791 L2170 -727.461 L2175 -727.461 L2177.5 -731.791 L2175 -736.122 L2180 -736.122 L2182.5 -740.452 L2180 -744.782 L2175 -744.782 L2177.5 -749.112 L2175 -753.442 L2170 -753.442 L2167.5 -749.112 L2165 -753.442 L2160 -753.442 L2162.5 -757.772 L2160 -762.102 L2165 -762.102 L2167.5 -766.432 L2165 -770.763 L2160 -770.763 L2162.5 -775.093 L2160 -779.423 L2165 -779.423 L2167.5 -783.753 L2170 -779.423 L2175 -779.423 L2177.5 -783.753 L2175 -788.083 L2180 -788.083 L2182.5 -792.413 L2185 -788.083 L2190 -788.083 L2187.5 -783.753 L2190 -779.423 L2195 -779.423 L2197.5 -783.753 L2200 -779.423 L2205 -779.423 L2207.5 -783.753 L2205 -788.083 L2210 -788.083 L2212.5 -792.413 L2210 -796.743 L2205 -796.743 L2207.5 -801.073 L2205 -805.404 L2210 -805.404 L2212.5 -809.734 L2215 -805.404 L2220 -805.404 L2222.5 -809.734 L2220 -814.064 L2225 -814.064 L2227.5 -818.394 L2230 -814.064 L2235 -814.064 L2232.5 -809.734 L2235 -805.404 L2240 -805.404 L2242.5 -809.734 L2245 -805.404 L2250 -805.404 L2247.5 -801.073 L2250 -796.743 L2245 -796.743 L2242.5 -792.413 L2245 -788.083 L2250 -788.083 L2247.5 -783.753 L2250 -779.423 L2255 -779.423 L2257.5 -783.753 L2260 -779.423 L2265 -779.423 L2267.5 -783.753 L2265 -788.083 L2270 -788.083 L2272.5 -792.413 L2275 -788.083 L2280 -788.083 L2277.5 -783.753 L2280 -779.423 L2285 -779.423 L2287.5 -783.753 L2290 -779.423 L2295 -779.423 L2292.5 -775.093 L2295 -770.763 L2290 -770.763 L2287.5 -766.432 L2290 -762.102 L2295 -762.102 L2292.5 -757.772 L2295 -753.442 L2290 -753.442 L2287.5 -749.112 L2285 -753.442 L2280 -753.442 L2277.5 -749.112 L2280 -744.782 L2275 -744.782 L2272.5 -740.452 L2275 -736.122 L2280 -736.122 L2277.5 -731.791 L2280 -727.461 L2285 -727.461 L2287.5 -731.791 L2290 -727.461 L2295 -727.461 L2292.5 -723.131 L2295 -718.801 L2290 -718.801 L2287.5 -714.471 L2290 -710.141 L2295 -710.141 L2292.5 -705.811 L2295 -701.481 L2300 -701.481 L2302.5 -705.811 L2305 -701.481 L2310 -701.481 L2312.5 -705.811 L2310 -710.141 L2315 -710.141 L2317.5 -714.471 L2320 -710.141 L2325 -710.141 L2322.5 -705.811 L2325 -701.481 L2330 -701.481 L2332.5 -705.811 L2335 -701.481 L2340 -701.481 L2342.5 -705.811 L2340 -710.141 L2345 -710.141 L2347.5 -714.471 L2345 -718.801 L2340 -718.801 L2342.5 -723.131 L2340 -727.461 L2345 -727.461 L2347.5 -731.791 L2350 -727.461 L2355 -727.461 L2357.5 -731.791 L2355 -736.122 L2360 -736.122 L2362.5 -740.452 L2365 -736.122 L2370 -736.122 L2367.5 -731.791 L2370 -727.461 L2375 -727.461 L2377.5 -731.791 L2380 -727.461 L2385 -727.461 L2382.5 -723.131 L2385 -718.801 L2380 -718.801 L2377.5 -714.471 L2380 -710.141 L2385 -710.141 L2382.5 -705.811 L2385 -701.481 L2390 -701.481 L2392.5 -705.811 L2395 -701.481 L2400 -701.481 L2402.5 -705.811 L2400 -710.141 L2405 -710.141 L2407.5 -714.471 L2410 -710.141 L2415 -710.141 L2412.5 -705.811 L2415 -701.481 L2420 -701.481 L2422.5 -705.811 L2425 -701.481 L2430 -701.481 L2427.5 -697.15 L2430 -692.82 L2425 -692.82 L2422.5 -688.49 L2425 -684.16 L2430 -684.16 L2427.5 -679.83 L2430 -675.5 L2425 -675.5 L2422.5 -671.17 L2420 -675.5 L2415 -675.5 L2412.5 -671.17 L2415 -666.84 L2410 -666.84 L2407.5 -662.509 L2410 -658.179 L2415 -658.179 L2412.5 -653.849 L2415 -649.519 L2420 -649.519 L2422.5 -653.849 L2425 -649.519 L2430 -649.519 L2427.5 -645.189 L2430 -640.859 L2425 -640.859 L2422.5 -636.529 L2425 -632.199 L2430 -632.199 L2427.5 -627.868 L2430 -623.538 L2425 -623.538 L2422.5 -619.208 L2420 -623.538 L2415 -623.538 L2412.5 -619.208 L2415 -614.878 L2410 -614.878 L2407.5 -610.548 L2405 -614.878 L2400 -614.878 L2402.5 -619.208 L2400 -623.538 L2395 -623.538 L2392.5 -619.208 L2390 -623.538 L2385 -623.538 L2382.5 -619.208 L2385 -614.878 L2380 -614.878 L2377.5 -610.548 L2380 -606.218 L2385 -606.218 L2382.5 -601.888 L2385 -597.558 L2380 -597.558 L2377.5 -593.227 L2375 -597.558 L2370 -597.558 L2367.5 -593.227 L2370 -588.897 L2365 -588.897 L2362.5 -584.567 L2365 -580.237 L2370 -580.237 L2367.5 -575.907 L2370 -571.577 L2375 -571.577 L2377.5 -575.907 L2380 -571.577 L2385 -571.577 L2382.5 -567.247 L2385 -562.917 L2380 -562.917 L2377.5 -558.586 L2380 -554.256 L2385 -554.256 L2382.5 -549.926 L2385 -545.596 L2390 -545.596 L2392.5 -549.926 L2395 -545.596 L2400 -545.596 L2402.5 -549.926 L2400 -554.256 L2405 -554.256 L2407.5 -558.586 L2410 -554.256 L2415 -554.256 L2412.5 -549.926 L2415 -545.596 L2420 -545.596 L2422.5 -549.926 L2425 -545.596 L2430 -545.596 L2427.5 -541.266 L2430 -536.936 L2425 -536.936 L2422.5 -532.606 L2425 -528.275 L2430 -528.275 L2427.5 -523.945 L2430 -519.615 L2425 -519.615 L2422.5 -515.285 L2420 -519.615 L2415 -519.615 L2412.5 -515.285 L2415 -510.955 L2410 -510.955 L2407.5 -506.625 L2410 -502.295 L2415 -502.295 L2412.5 -497.965 L2415 -493.634 L2420 -493.634 L2422.5 -497.965 L2425 -493.634 L2430 -493.634 L2427.5 -489.304 L2430 -484.974 L2425 -484.974 L2422.5 -480.644 L2425 -476.314 L2430 -476.314 L2427.5 -471.984 L2430 -467.654 L2425 -467.654 L2422.5 -463.324 L2420 -467.654 L2415 -467.654 L2412.5 -463.324 L2415 -458.993 L2410 -458.993 L2407.5 -454.663 L2405 -458.993 L2400 -458.993 L2402.5 -463.324 L2400 -467.654 L2395 -467.654 L2392.5 -463.324 L2390 -467.654 L2385 -467.654 L2382.5 -463.324 L2385 -458.993 L2380 -458.993 L2377.5 -454.663 L2380 -450.333 L2385 -450.333 L2382.5 -446.003 L2385 -441.673 L2380 -441.673 L2377.5 -437.343 L2375 -441.673 L2370 -441.673 L2367.5 -437.343 L2370 -433.013 L2365 -433.013 L2362.5 -428.683 L2360 -433.013 L2355 -433.013 L2357.5 -437.343 L2355 -441.673 L2350 -441.673 L2347.5 -437.343 L2345 -441.673 L2340 -441.673 L2342.5 -446.003 L2340 -450.333 L2345 -450.333 L2347.5 -454.663 L2345 -458.993 L2340 -458.993 L2342.5 -463.324 L2340 -467.654 L2335 -467.654 L2332.5 -463.324 L2330 -467.654 L2325 -467.654 L2322.5 -463.324 L2325 -458.993 L2320 -458.993 L2317.5 -454.663 L2315 -458.993 L2310 -458.993 L2312.5 -463.324 L2310 -467.654 L2305 -467.654 L2302.5 -463.324 L2300 -467.654 L2295 -467.654 L2292.5 -463.324 L2295 -458.993 L2290 -458.993 L2287.5 -454.663 L2290 -450.333 L2295 -450.333 L2292.5 -446.003 L2295 -441.673 L2290 -441.673 L2287.5 -437.343 L2285 -441.673 L2280 -441.673 L2277.5 -437.343 L2280 -433.013 L2275 -433.013 L2272.5 -428.683 L2275 -424.352 L2280 -424.352 L2277.5 -420.022 L2280 -415.692 L2285 -415.692 L2287.5 -420.022 L2290 -415.692 L2295 -415.692 L2292.5 -411.362 L2295 -407.032 L2290 -407.032 L2287.5 -402.702 L2290 -398.372 L2295 -398.372 L2292.5 -394.042 L2295 -389.711 L2290 -389.711 L2287.5 -385.381 L2285 -389.711 L2280 -389.711 L2277.5 -385.381 L2280 -381.051 L2275 -381.051 L2272.5 -376.721 L2270 -381.051 L2265 -381.051 L2267.5 -385.381 L2265 -389.711 L2260 -389.711 L2257.5 -385.381 L2255 -389.711 L2250 -389.711 L2247.5 -385.381 L2250 -381.051 L2245 -381.051 L2242.5 -376.721 L2245 -372.391 L2250 -372.391 L2247.5 -368.061 L2250 -363.731 L2245 -363.731 L2242.5 -359.401 L2240 -363.731 L2235 -363.731 L2232.5 -359.401 L2235 -355.07 L2230 -355.07 L2227.5 -350.74 L2230 -346.41 L2235 -346.41 L2232.5 -342.08 L2235 -337.75 L2240 -337.75 L2242.5 -342.08 L2245 -337.75 L2250 -337.75 L2247.5 -333.42 L2250 -329.09 L2245 -329.09 L2242.5 -324.76 L2245 -320.429 L2250 -320.429 L2247.5 -316.099 L2250 -311.769 L2255 -311.769 L2257.5 -316.099 L2260 -311.769 L2265 -311.769 L2267.5 -316.099 L2265 -320.429 L2270 -320.429 L2272.5 -324.76 L2275 -320.429 L2280 -320.429 L2277.5 -316.099 L2280 -311.769 L2285 -311.769 L2287.5 -316.099 L2290 -311.769 L2295 -311.769 L2292.5 -307.439 L2295 -303.109 L2290 -303.109 L2287.5 -298.779 L2290 -294.449 L2295 -294.449 L2292.5 -290.119 L2295 -285.788 L2290 -285.788 L2287.5 -281.458 L2285 -285.788 L2280 -285.788 L2277.5 -281.458 L2280 -277.128 L2275 -277.128 L2272.5 -272.798 L2275 -268.468 L2280 -268.468 L2277.5 -264.138 L2280 -259.808 L2285 -259.808 L2287.5 -264.138 L2290 -259.808 L2295 -259.808 L2292.5 -255.477 L2295 -251.147 L2290 -251.147 L2287.5 -246.817 L2290 -242.487 L2295 -242.487 L2292.5 -238.157 L2295 -233.827 L2300 -233.827 L2302.5 -238.157 L2305 -233.827 L2310 -233.827 L2312.5 -238.157 L2310 -242.487 L2315 -242.487 L2317.5 -246.817 L2320 -242.487 L2325 -242.487 L2322.5 -238.157 L2325 -233.827 L2330 -233.827 L2332.5 -238.157 L2335 -233.827 L2340 -233.827 L2342.5 -238.157 L2340 -242.487 L2345 -242.487 L2347.5 -246.817 L2345 -251.147 L2340 -251.147 L2342.5 -255.477 L2340 -259.808 L2345 -259.808 L2347.5 -264.138 L2350 -259.808 L2355 -259.808 L2357.5 -264.138 L2355 -268.468 L2360 -268.468 L2362.5 -272.798 L2365 -268.468 L2370 -268.468 L2367.5 -264.138 L2370 -259.808 L2375 -259.808 L2377.5 -264.138 L2380 -259.808 L2385 -259.808 L2382.5 -255.477 L2385 -251.147 L2380 -251.147 L2377.5 -246.817 L2380 -242.487 L2385 -242.487 L2382.5 -238.157 L2385 -233.827 L2390 -233.827 L2392.5 -238.157 L2395 -233.827 L2400 -233.827 L2402.5 -238.157 L2400 -242.487 L2405 -242.487 L2407.5 -246.817 L2410 -242.487 L2415 -242.487 L2412.5 -238.157 L2415 -233.827 L2420 -233.827 L2422.5 -238.157 L2425 -233.827 L2430 -233.827 L2427.5 -229.497 L2430 -225.167 L2425 -225.167 L2422.5 -220.836 L2425 -216.506 L2430 -216.506 L2427.5 -212.176 L2430 -207.846 L2425 -207.846 L2422.5 -203.516 L2420 -207.846 L2415 -207.846 L2412.5 -203.516 L2415 -199.186 L2410 -199.186 L2407.5 -194.856 L2410 -190.526 L2415 -190.526 L2412.5 -186.195 L2415 -181.865 L2420 -181.865 L2422.5 -186.195 L2425 -181.865 L2430 -181.865 L2427.5 -177.535 L2430 -173.205 L2425 -173.205 L2422.5 -168.875 L2425 -164.545 L2430 -164.545 L2427.5 -160.215 L2430 -155.885 L2425 -155.885 L2422.5 -151.554 L2420 -155.885 L2415 -155.885 L2412.5 -151.554 L2415 -147.224 L2410 -147.224 L2407.5 -142.894 L2405 -147.224 L2400 -147.224 L2402.5 -151.554 L2400 -155.885 L2395 -155.885 L2392.5 -151.554 L2390 -155.885 L2385 -155.885 L2382.5 -151.554 L2385 -147.224 L2380 -147.224 L2377.5 -142.894 L2380 -138.564 L2385 -138.564 L2382.5 -134.234 L2385 -129.904 L2380 -129.904 L2377.5 -125.574 L2375 -129.904 L2370 -129.904 L2367.5 -125.574 L2370 -121.244 L2365 -121.244 L2362.5 -116.913 L2365 -112.583 L2370 -112.583 L2367.5 -108.253 L2370 -103.923 L2375 -103.923 L2377.5 -108.253 L2380 -103.923 L2385 -103.923 L2382.5 -99.5929 L2385 -95.2628 L2380 -95.2628 L2377.5 -90.9327 L2380 -86.6025 L2385 -86.6025 L2382.5 -82.2724 L2385 -77.9423 L2390 -77.9423 L2392.5 -82.2724 L2395 -77.9423 L2400 -77.9423 L2402.5 -82.2724 L2400 -86.6025 L2405 -86.6025 L2407.5 -90.9327 L2410 -86.6025 L2415 -86.6025 L2412.5 -82.2724 L2415 -77.9423 L2420 -77.9423 L2422.5 -82.2724 L2425 -77.9423 L2430 -77.9423 L2427.5 -73.6122 L2430 -69.282 L2425 -69.282 L2422.5 -64.9519 L2425 -60.6218 L2430 -60.6218 L2427.5 -56.2917 L2430 -51.9615 L2425 -51.9615 L2422.5 -47.6314 L2420 -51.9615 L2415 -51.9615 L2412.5 -47.6314 L2415 -43.3013 L2410 -43.3013 L2407.5 -38.9711 L2410 -34.641 L2415 -34.641 L2412.5 -30.3109 L2415 -25.9808 L2420 -25.9808 L2422.5 -30.3109 L2425 -25.9808 L2430 -25.9808 L2427.5 -21.6506 L2430 -17.3205 L2425 -17.3205 L2422.5 -12.9904 L2425 -8.66025 L2430 -8.66025 L2427.5 -4.33013 L2430 6.21725e-15 L2435 6.21725e-15 L2437.5 -4.33013 L2440 6.21725e-15 L2445 6.21725e-15 L2447.5 -4.33013 L2445 -8.66025 L2450 -8.66025 L2452.5 -12.9904 L2455 -8.66025 L2460 -8.66025 L2457.5 -4.33013 L2460 6.21725e-15 L2465 6.21725e-15 L2467.5 -4.33013 L2470 6.21725e-15 L2475 6.21725e-15 L2477.5 -4.33013 L2475 -8.66025 L2480 -8.66025 L2482.5 -12.9904 L2480 -17.3205 L2475 -17.3205 L2477.5 -21.6506 L2475 -25.9808 L2480 -25.9808 L2482.5 -30.3109 L2485 -25.9808 L2490 -25.9808 L2492.5 -30.3109 L2490 -34.641 L2495 -34.641 L2497.5 -38.9711 L2500 -34.641 L2505 -34.641 L2502.5 -30.3109 L2505 -25.9808 L2510 -25.9808 L2512.5 -30.3109 L2515 -25.9808 L2520 -25.9808 L2517.5 -21.6506 L2520 -17.3205 L2515 -17.3205 L2512.5 -12.9904 L2515 -8.66025 L2520 -8.66025 L2517.5 -4.33013 L2520 6.21725e-15 L2525 6.21725e-15 L2527.5 -4.33013 L2530 6.21725e-15 L2535 6.21725e-15 L2537.5 -4.33013 L2535 -8.66025 L2540 -8.66025 L2542.5 -12.9904 L2545 -8.66025 L2550 -8.66025 L2547.5 -4.33013 L2550 6.21725e-15 L2555 6.21725e-15 L2557.5 -4.33013 L2560 6.21725e-15 L2565 6.21725e-15 L2567.5 -4.33013 L2565 -8.66025 L2570 -8.66025 L2572.5 -12.9904 L2570 -17.3205 L2565 -17.3205 L2567.5 -21.6506 L2565 -25.9808 L2570 -25.9808 L2572.5 -30.3109 L2575 -25.9808 L2580 -25.9808 L2582.5 -30.3109 L2580 -34.641 L2585 -34.641 L2587.5 -38.9711 L2585 -43.3013 L2580 -43.3013 L2582.5 -47.6314 L2580 -51.9615 L2575 -51.9615 L2572.5 -47.6314 L2570 -51.9615 L2565 -51.9615 L2567.5 -56.2917 L2565 -60.6218 L2570 -60.6218 L2572.5 -64.9519 L2570 -69.282 L2565 -69.282 L2567.5 -73.6122 L2565 -77.9423 L2570 -77.9423 L2572.5 -82.2724 L2575 -77.9423 L2580 -77.9423 L2582.5 -82.2724 L2580 -86.6025 L2585 -86.6025 L2587.5 -90.9327 L2590 -86.6025 L2595 -86.6025 L2592.5 -82.2724 L2595 -77.9423 L2600 -77.9423 L2602.5 -82.2724 L2605 -77.9423 L2610 -77.9423 L2612.5 -82.2724 L2610 -86.6025 L2615 -86.6025 L2617.5 -90.9327 L2615 -95.2628 L2610 -95.2628 L2612.5 -99.5929 L2610 -103.923 L2615 -103.923 L2617.5 -108.253 L2620 -103.923 L2625 -103.923 L2627.5 -108.253 L2625 -112.583 L2630 -112.583 L2632.5 -116.913 L2635 -112.583 L2640 -112.583 L2637.5 -108.253 L2640 -103.923 L2645 -103.923 L2647.5 -108.253 L2650 -103.923 L2655 -103.923 L2652.5 -99.5929 L2655 -95.2628 L2650 -95.2628 L2647.5 -90.9327 L2650 -86.6025 L2655 -86.6025 L2652.5 -82.2724 L2655 -77.9423 L2660 -77.9423 L2662.5 -82.2724 L2665 -77.9423 L2670 -77.9423 L2672.5 -82.2724 L2670 -86.6025 L2675 -86.6025 L2677.5 -90.9327 L2680 -86.6025 L2685 -86.6025 L2682.5 -82.2724 L2685 -77.9423 L2690 -77.9423 L2692.5 -82.2724 L2695 -77.9423 L2700 -77.9423 L2697.5 -73.6122 L2700 -69.282 L2695 -69.282 L2692.5 -64.9519 L2695 -60.6218 L2700 -60.6218 L2697.5 -56.2917 L2700 -51.9615 L2695 -51.9615 L2692.5 -47.6314 L2690 -51.9615 L2685 -51.9615 L2682.5 -47.6314 L2685 -43.3013 L2680 -43.3013 L2677.5 -38.9711 L2680 -34.641 L2685 -34.641 L2682.5 -30.3109 L2685 -25.9808 L2690 -25.9808 L2692.5 -30.3109 L2695 -25.9808 L2700 -25.9808 L2697.5 -21.6506 L2700 -17.3205 L2695 -17.3205 L2692.5 -12.9904 L2695 -8.66025 L2700 -8.66025 L2697.5 -4.33013 L2700 -7.99361e-15 L2705 -7.99361e-15 L2707.5 -4.33013 L2710 -7.99361e-15 L2715 -7.99361e-15 L2717.5 -4.33013 L2715 -8.66025 L2720 -8.66025 L2722.5 -12.9904 L2725 -8.66025 L2730 -8.66025 L2727.5 -4.33013 L2730 -7.99361e-15 L2735 -7.99361e-15 L2737.5 -4.33013 L2740 -7.99361e-15 L2745 -7.99361e-15 L2747.5 -4.33013 L2745 -8.66025 L2750 -8.66025 L2752.5 -12.9904 L2750 -17.3205 L2745 -17.3205 L2747.5 -21.6506 L2745 -25.9808 L2750 -25.9808 L2752.5 -30.3109 L2755 -25.9808 L2760 -25.9808 L2762.5 -30.3109 L2760 -34.641 L2765 -34.641 L2767.5 -38.9711 L2770 -34.641 L2775 -34.641 L2772.5 -30.3109 L2775 -25.9808 L2780 -25.9808 L2782.5 -30.3109 L2785 -25.9808 L2790 -25.9808 L2787.5 -21.6506 L2790 -17.3205 L2785 -17.3205 L2782.5 -12.9904 L2785 -8.66025 L2790 -8.66025 L2787.5 -4.33013 L2790 -7.99361e-15 L2795 -7.99361e-15 L2797.5 -4.33013 L2800 -7.99361e-15 L2805 -7.99361e-15 L2807.5 -4.33013 L2805 -8.66025 L2810 -8.66025 L2812.5 -12.9904 L2815 -8.66025 L2820 -8.66025 L2817.5 -4.33013 L2820 -7.99361e-15 L2825 -7.99361e-15 L2827.5 -4.33013 L2830 -7.99361e-15 L2835 -7.99361e-15 L2837.5 -4.33013 L2835 -8.66025 L2840 -8.66025 L2842.5 -12.9904 L2840 -17.3205 L2835 -17.3205 L2837.5 -21.6506 L2835 -25.9808 L2840 -25.9808 L2842.5 -30.3109 L2845 -25.9808 L2850 -25.9808 L2852.5 -30.3109 L2850 -34.641 L2855 -34.641 L2857.5 -38.9711 L2855 -43.3013 L2850 -43.3013 L2852.5 -47.6314 L2850 -51.9615 L2845 -51.9615 L2842.5 -47.6314 L2840 -51.9615 L2835 -51.9615 L2837.5 -56.2917 L2835 -60.6218 L2840 -60.6218 L2842.5 -64.9519 L2840 -69.282 L2835 -69.282 L2837.5 -73.6122 L2835 -77.9423 L2840 -77.9423 L2842.5 -82.2724 L2845 -77.9423 L2850 -77.9423 L2852.5 -82.2724 L2850 -86.6025 L2855 -86.6025 L2857.5 -90.9327 L2860 -86.6025 L2865 -86.6025 L2862.5 -82.2724 L2865 -77.9423 L2870 -77.9423 L2872.5 -82.2724 L2875 -77.9423 L2880 -77.9423 L2882.5 -82.2724 L2880 -86.6025 L2885 -86.6025 L2887.5 -90.9327 L2885 -95.2628 L2880 -95.2628 L2882.5 -99.5929 L2880 -103.923 L2885 -103.923 L2887.5 -108.253 L2890 -103.923 L2895 -103.923 L2897.5 -108.253 L2895 -112.583 L2900 -112.583 L2902.5 -116.913 L2900 -121.244 L2895 -121.244 L2897.5 -125.574 L2895 -129.904 L2890 -129.904 L2887.5 -125.574 L2885 -129.904 L2880 -129.904 L2882.5 -134.234 L2880 -138.564 L2885 -138.564 L2887.5 -142.894 L2885 -147.224 L2880 -147.224 L2882.5 -151.554 L2880 -155.885 L2875 -155.885 L2872.5 -151.554 L2870 -155.885 L2865 -155.885 L2862.5 -151.554 L2865 -147.224 L2860 -147.224 L2857.5 -142.894 L2855 -147.224 L2850 -147.224 L2852.5 -151.554 L2850 -155.885 L2845 -155.885 L2842.5 -151.554 L2840 -155.885 L2835 -155.885 L2837.5 -160.215 L2835 -164.545 L2840 -164.545 L2842.5 -168.875 L2840 -173.205 L2835 -173.205 L2837.5 -177.535 L2835 -181.865 L2840 -181.865 L2842.5 -186.195 L2845 -181.865 L2850 -181.865 L2852.5 -186.195 L2850 -190.526 L2855 -190.526 L2857.5 -194.856 L2855 -199.186 L2850 -199.186 L2852.5 -203.516 L2850 -207.846 L2845 -207.846 L2842.5 -203.516 L2840 -207.846 L2835 -207.846 L2837.5 -212.176 L2835 -216.506 L2840 -216.506 L2842.5 -220.836 L2840 -225.167 L2835 -225.167 L2837.5 -229.497 L2835 -233.827 L2840 -233.827 L2842.5 -238.157 L2845 -233.827 L2850 -233.827 L2852.5 -238.157 L2850 -242.487 L2855 -242.487 L2857.5 -246.817 L2860 -242.487 L2865 -242.487 L2862.5 -238.157 L2865 -233.827 L2870 -233.827 L2872.5 -238.157 L2875 -233.827 L2880 -233.827 L2882.5 -238.157 L2880 -242.487 L2885 -242.487 L2887.5 -246.817 L2885 -251.147 L2880 -251.147 L2882.5 -255.477 L2880 -259.808 L2885 -259.808 L2887.5 -264.138 L2890 -259.808 L2895 -259.808 L2897.5 -264.138 L2895 -268.468 L2900 -268.468 L2902.5 -272.798 L2905 -268.468 L2910 -268.468 L2907.5 -264.138 L2910 -259.808 L2915 -259.808 L2917.5 -264.138 L2920 -259.808 L2925 -259.808 L2922.5 -255.477 L2925 -251.147 L2920 -251.147 L2917.5 -246.817 L2920 -242.487 L2925 -242.487 L2922.5 -238.157 L2925 -233.827 L2930 -233.827 L2932.5 -238.157 L2935 -233.827 L2940 -233.827 L2942.5 -238.157 L2940 -242.487 L2945 -242.487 L2947.5 -246.817 L2950 -242.487 L2955 -242.487 L2952.5 -238.157 L2955 -233.827 L2960 -233.827 L2962.5 -238.157 L2965 -233.827 L2970 -233.827 L2972.5 -238.157 L2970 -242.487 L2975 -242.487 L2977.5 -246.817 L2975 -251.147 L2970 -251.147 L2972.5 -255.477 L2970 -259.808 L2975 -259.808 L2977.5 -264.138 L2980 -259.808 L2985 -259.808 L2987.5 -264.138 L2985 -268.468 L2990 -268.468 L2992.5 -272.798 L2990 -277.128 L2985 -277.128 L2987.5 -281.458 L2985 -285.788 L2980 -285.788 L2977.5 -281.458 L2975 -285.788 L2970 -285.788 L2972.5 -290.119 L2970 -294.449 L2975 -294.449 L2977.5 -298.779 L2975 -303.109 L2970 -303.109 L2972.5 -307.439 L2970 -311.769 L2975 -311.769 L2977.5 -316.099 L2980 -311.769 L2985 -311.769 L2987.5 -316.099 L2985 -320.429 L2990 -320.429 L2992.5 -324.76 L2995 -320.429 L3000 -320.429 L2997.5 -316.099 L3000 -311.769 L3005 -311.769 L3007.5 -316.099 L3010 -311.769 L3015 -311.769 L3017.5 -316.099 L3015 -320.429 L3020 -320.429 L3022.5 -324.76 L3020 -329.09 L3015 -329.09 L3017.5 -333.42 L3015 -337.75 L3020 -337.75 L3022.5 -342.08 L3025 -337.75 L3030 -337.75 L3032.5 -342.08 L3030 -346.41 L3035 -346.41 L3037.5 -350.74 L3040 -346.41 L3045 -346.41 L3042.5 -342.08 L3045 -337.75 L3050 -337.75 L3052.5 -342.08 L3055 -337.75 L3060 -337.75 L3057.5 -333.42 L3060 -329.09 L3055 -329.09 L3052.5 -324.76 L3055 -320.429 L3060 -320.429 L3057.5 -316.099 L3060 -311.769 L3065 -311.769 L3067.5 -316.099 L3070 -311.769 L3075 -311.769 L3077.5 -316.099 L3075 -320.429 L3080 -320.429 L3082.5 -324.76 L3085 -320.429 L3090 -320.429 L3087.5 -316.099 L3090 -311.769 L3095 -311.769 L3097.5 -316.099 L3100 -311.769 L3105 -311.769 L3102.5 -307.439 L3105 -303.109 L3100 -303.109 L3097.5 -298.779 L3100 -294.449 L3105 -294.449 L3102.5 -290.119 L3105 -285.788 L3100 -285.788 L3097.5 -281.458 L3095 -285.788 L3090 -285.788 L3087.5 -281.458 L3090 -277.128 L3085 -277.128 L3082.5 -272.798 L3085 -268.468 L3090 -268.468 L3087.5 -264.138 L3090 -259.808 L3095 -259.808 L3097.5 -264.138 L3100 -259.808 L3105 -259.808 L3102.5 -255.477 L3105 -251.147 L3100 -251.147 L3097.5 -246.817 L3100 -242.487 L3105 -242.487 L3102.5 -238.157 L3105 -233.827 L3110 -233.827 L3112.5 -238.157 L3115 -233.827 L3120 -233.827 L3122.5 -238.157 L3120 -242.487 L3125 -242.487 L3127.5 -246.817 L3130 -242.487 L3135 -242.487 L3132.5 -238.157 L3135 -233.827 L3140 -233.827 L3142.5 -238.157 L3145 -233.827 L3150 -233.827 L3152.5 -238.157 L3150 -242.487 L3155 -242.487 L3157.5 -246.817 L3155 -251.147 L3150 -251.147 L3152.5 -255.477 L3150 -259.808 L3155 -259.808 L3157.5 -264.138 L3160 -259.808 L3165 -259.808 L3167.5 -264.138 L3165 -268.468 L3170 -268.468 L3172.5 -272.798 L3175 -268.468 L3180 -268.468 L3177.5 -264.138 L3180 -259.808 L3185 -259.808 L3187.5 -264.138 L3190 -259.808 L3195 -259.808 L3192.5 -255.477 L3195 -251.147 L3190 -251.147 L3187.5 -246.817 L3190 -242.487 L3195 -242.487 L3192.5 -238.157 L3195 -233.827 L3200 -233.827 L3202.5 -238.157 L3205 -233.827 L3210 -233.827 L3212.5 -238.157 L3210 -242.487 L3215 -242.487 L3217.5 -246.817 L3220 -242.487 L3225 -242.487 L3222.5 -238.157 L3225 -233.827 L3230 -233.827 L3232.5 -238.157 L3235 -233.827 L3240 -233.827 L3237.5 -229.497 L3240 -225.167 L3235 -225.167 L3232.5 -220.836 L3235 -216.506 L3240 -216.506 L3237.5 -212.176 L3240 -207.846 L3235 -207.846 L3232.5 -203.516 L3230 -207.846 L3225 -207.846 L3222.5 -203.516 L3225 -199.186 L3220 -199.186 L3217.5 -194.856 L3220 -190.526 L3225 -190.526 L3222.5 -186.195 L3225 -181.865 L3230 -181.865 L3232.5 -186.195 L3235 -181.865 L3240 -181.865 L3237.5 -177.535 L3240 -173.205 L3235 -173.205 L3232.5 -168.875 L3235 -164.545 L3240 -164.545 L3237.5 -160.215 L3240 -155.885 L3235 -155.885 L3232.5 -151.554 L3230 -155.885 L3225 -155.885 L3222.5 -151.554 L3225 -147.224 L3220 -147.224 L3217.5 -142.894 L3215 -147.224 L3210 -147.224 L3212.5 -151.554 L3210 -155.885 L3205 -155.885 L3202.5 -151.554 L3200 -155.885 L3195 -155.885 L3192.5 -151.554 L3195 -147.224 L3190 -147.224 L3187.5 -142.894 L3190 -138.564 L3195 -138.564 L3192.5 -134.234 L3195 -129.904 L3190 -129.904 L3187.5 -125.574 L3185 -129.904 L3180 -129.904 L3177.5 -125.574 L3180 -121.244 L3175 -121.244 L3172.5 -116.913 L3175 -112.583 L3180 -112.583 L3177.5 -108.253 L3180 -103.923 L3185 -103.923 L3187.5 -108.253 L3190 -103.923 L3195 -103.923 L3192.5 -99.5929 L3195 -95.2628 L3190 -95.2628 L3187.5 -90.9327 L3190 -86.6025 L3195 -86.6025 L3192.5 -82.2724 L3195 -77.9423 L3200 -77.9423 L3202.5 -82.2724 L3205 -77.9423 L3210 -77.9423 L3212.5 -82.2724 L3210 -86.6025 L3215 -86.6025 L3217.5 -90.9327 L3220 -86.6025 L3225 -86.6025 L3222.5 -82.2724 L3225 -77.9423 L3230 -77.9423 L3232.5 -82.2724 L3235 -77.9423 L3240 -77.9423 L3237.5 -73.6122 L3240 -69.282 L3235 -69.282 L3232.5 -64.9519 L3235 -60.6218 L3240 -60.6218 L3237.5 -56.2917 L3240 -51.9615 L3235 -51.9615 L3232.5 -47.6314 L3230 -51.9615 L3225 -51.9615 L3222.5 -47.6314 L3225 -43.3013 L3220 -43.3013 L3217.5 -38.9711 L3220 -34.641 L3225 -34.641 L3222.5 -30.3109 L3225 -25.9808 L3230 -25.9808 L3232.5 -30.3109 L3235 -25.9808 L3240 -25.9808 L3237.5 -21.6506 L3240 -17.3205 L3235 -17.3205 L3232.5 -12.9904 L3235 -8.66025 L3240 -8.66025 L3237.5 -4.33013 L3240 -5.06262e-14 L3245 -5.06262e-14 L3247.5 -4.33013 L3250 -5.06262e-14 L3255 -5.06262e-14 L3257.5 -4.33013 L3255 -8.66025 L3260 -8.66025 L3262.5 -12.9904 L3265 -8.66025 L3270 -8.66025 L3267.5 -4.33013 L3270 -5.06262e-14 L3275 -5.06262e-14 L3277.5 -4.33013 L3280 -5.06262e-14 L3285 -5.06262e-14 L3287.5 -4.33013 L3285 -8.66025 L3290 -8.66025 L3292.5 -12.9904 L3290 -17.3205 L3285 -17.3205 L3287.5 -21.6506 L3285 -25.9808 L3290 -25.9808 L3292.5 -30.3109 L3295 -25.9808 L3300 -25.9808 L3302.5 -30.3109 L3300 -34.641 L3305 -34.641 L3307.5 -38.9711 L3310 -34.641 L3315 -34.641 L3312.5 -30.3109 L3315 -25.9808 L3320 -25.9808 L3322.5 -30.3109 L3325 -25.9808 L3330 -25.9808 L3327.5 -21.6506 L3330 -17.3205 L3325 -17.3205 L3322.5 -12.9904 L3325 -8.66025 L3330 -8.66025 L3327.5 -4.33013 L3330 -5.06262e-14 L3335 -5.06262e-14 L3337.5 -4.33013 L3340 -5.06262e-14 L3345 -5.06262e-14 L3347.5 -4.33013 L3345 -8.66025 L3350 -8.66025 L3352.5 -12.9904 L3355 -8.66025 L3360 -8.66025 L3357.5 -4.33013 L3360 -5.06262e-14 L3365 -5.06262e-14 L3367.5 -4.33013 L3370 -5.06262e-14 L3375 -5.06262e-14 L3377.5 -4.33013 L3375 -8.66025 L3380 -8.66025 L3382.5 -12.9904 L3380 -17.3205 L3375 -17.3205 L3377.5 -21.6506 L3375 -25.9808 L3380 -25.9808 L3382.5 -30.3109 L3385 -25.9808 L3390 -25.9808 L3392.5 -30.3109 L3390 -34.641 L3395 -34.641 L3397.5 -38.9711 L3395 -43.3013 L3390 -43.3013 L3392.5 -47.6314 L3390 -51.9615 L3385 -51.9615 L3382.5 -47.6314 L3380 -51.9615 L3375 -51.9615 L3377.5 -56.2917 L3375 -60.6218 L3380 -60.6218 L3382.5 -64.9519 L3380 -69.282 L3375 -69.282 L3377.5 -73.6122 L3375 -77.9423 L3380 -77.9423 L3382.5 -82.2724 L3385 -77.9423 L3390 -77.9423 L3392.5 -82.2724 L3390 -86.6025 L3395 -86.6025 L3397.5 -90.9327 L3400 -86.6025 L3405 -86.6025 L3402.5 -82.2724 L3405 -77.9423 L3410 -77.9423 L3412.5 -82.2724 L3415 -77.9423 L3420 -77.9423 L3422.5 -82.2724 L3420 -86.6025 L3425 -86.6025 L3427.5 -90.9327 L3425 -95.2628 L3420 -95.2628 L3422.5 -99.5929 L3420 -103.923 L3425 -103.923 L3427.5 -108.253 L3430 -103.923 L3435 -103.923 L3437.5 -108.253 L3435 -112.583 L3440 -112.583 L3442.5 -116.913 L3445 -112.583 L3450 -112.583 L3447.5 -108.253 L3450 -103.923 L3455 -103.923 L3457.5 -108.253 L3460 -103.923 L3465 -103.923 L3462.5 -99.5929 L3465 -95.2628 L3460 -95.2628 L3457.5 -90.9327 L3460 -86.6025 L3465 -86.6025 L3462.5 -82.2724 L3465 -77.9423 L3470 -77.9423 L3472.5 -82.2724 L3475 -77.9423 L3480 -77.9423 L3482.5 -82.2724 L3480 -86.6025 L3485 -86.6025 L3487.5 -90.9327 L3490 -86.6025 L3495 -86.6025 L3492.5 -82.2724 L3495 -77.9423 L3500 -77.9423 L3502.5 -82.2724 L3505 -77.9423 L3510 -77.9423 L3507.5 -73.6122 L3510 -69.282 L3505 -69.282 L3502.5 -64.9519 L3505 -60.6218 L3510 -60.6218 L3507.5 -56.2917 L3510 -51.9615 L3505 -51.9615 L3502.5 -47.6314 L3500 -51.9615 L3495 -51.9615 L3492.5 -47.6314 L3495 -43.3013 L3490 -43.3013 L3487.5 -38.9711 L3490 -34.641 L3495 -34.641 L3492.5 -30.3109 L3495 -25.9808 L3500 -25.9808 L3502.5 -30.3109 L3505 -25.9808 L3510 -25.9808 L3507.5 -21.6506 L3510 -17.3205 L3505 -17.3205 L3502.5 -12.9904 L3505 -8.66025 L3510 -8.66025 L3507.5 -4.33013 L3510 -6.4837e-14 L3515 -6.4837e-14 L3517.5 -4.33013 L3520 -6.4837e-14 L3525 -6.4837e-14 L3527.5 -4.33013 L3525 -8.66025 L3530 -8.66025 L3532.5 -12.9904 L3535 -8.66025 L3540 -8.66025 L3537.5 -4.33013 L3540 -6.4837e-14 L3545 -6.4837e-14 L3547.5 -4.33013 L3550 -6.4837e-14 L3555 -6.4837e-14 L3557.5 -4.33013 L3555 -8.66025 L3560 -8.66025 L3562.5 -12.9904 L3560 -17.3205 L3555 -17.3205 L3557.5 -21.6506 L3555 -25.9808 L3560 -25.9808 L3562.5 -30.3109 L3565 -25.9808 L3570 -25.9808 L3572.5 -30.3109 L3570 -34.641 L3575 -34.641 L3577.5 -38.9711 L3580 -34.641 L3585 -34.641 L3582.5 -30.3109 L3585 -25.9808 L3590 -25.9808 L3592.5 -30.3109 L3595 -25.9808 L3600 -25.9808 L3597.5 -21.6506 L3600 -17.3205 L3595 -17.3205 L3592.5 -12.9904 L3595 -8.66025 L3600 -8.66025 L3597.5 -4.33013 L3600 -6.4837e-14 L3605 -6.4837e-14 L3607.5 -4.33013 L3610 -6.4837e-14 L3615 -6.4837e-14 L3617.5 -4.33013 L3615 -8.66025 L3620 -8.66025 L3622.5 -12.9904 L3625 -8.66025 L3630 -8.66025 L3627.5 -4.33013 L3630 -6.4837e-14 L3635 -6.4837e-14 L3637.5 -4.33013 L3640 -6.4837e-14 L3645 -6.4837e-14"/>
</svg>
