<?xml version="1.0" encoding="UTF-8"?>
<svg xmlns="http://www.w3.org/2000/svg"
 version="1.1" baseProfile="basic"
 viewBox="-10 -49 155 60"
 width="1280px" height="1024px"
 stroke="white" stroke-width="1px"
 fill="black" fill-opacity="0">
<rect x="-10" y="-49" width="155" height="60" stroke-width="0px" fill-opacity="1"/>
<path d="M0 0 L0 0 L5 0 L7.5 -4.33013 L10 0 L15 0 L17.5 -4.33013 L15 -8.66025 L20 -8.66025 L22.5 -12.9904 L25 -8.66025 L30 -8.66025 L27.5 -4.33013 L30 2.66454e-15 L35 2.66454e-15 L37.5 -4.33013 L40 2.66454e-15 L45 2.66454e-15 L47.5 -4.33013 L45 -8.66025 L50 -8.66025 L52.5 -12.9904 L50 -17.3205 L45 -17.3205 L47.5 -21.6506 L45 -25.9808 L50 -25.9808 L52.5 -30.3109 L55 -25.9808 L60 -25.9808 L62.5 -30.3109 L60 -34.641 L65 -34.641 L67.5 -38.9711 L70 -34.641 L75 -34.641 L72.5 -30.3109 L75 -25.9808 L80 -25.9808 L82.5 -30.3109 L85 -25.9808 L90 -25.9808 L87.5 -21.6506 L90 -17.3205 L85 -17.3205 L82.5 -12.9904 L85 -8.66025 L90 -8.66025 L87.5 -4.33013 L90 -8.88178e-16 L95 -8.88178e-16 L97.5 -4.33013 L100 -8.88178e-16 L105 -8.88178e-16 L107.5 -4.33013 L105 -8.66025 L110 -8.66025 L112.5 -12.9904 L115 -8.66025 L120 -8.66025 L117.5 -4.33013 L120 -8.88178e-16 L125 -8.88178e-16 L127.5 -4.33013 L130 -8.88178e-16 L135 -8.88178e-16"/>
</svg>
