<?xml version="1.0" encoding="UTF-8"?>
<svg xmlns="http://www.w3.org/2000/svg"
 version="1.1" baseProfile="basic"
 viewBox="-11 -23 66 72"
 width="1280px" height="1024px"
 stroke="white" stroke-width="1px"
 fill="black" fill-opacity="0">
<rect x="-11" y="-23" width="66" height="72" stroke-width="0px" fill-opacity="1"/>
<path d="M0 0 L0 0 L5 0 L7.5 -4.33013 L10 0 L15 0 L17.5 -4.33013 L15 -8.66025 L20 -8.66025 L22.5 -12.9904 L25 -8.66025 L30 -8.66025 L27.5 -4.33013 L30 2.66454e-15 L35 2.66454e-15 L37.5 -4.33013 L40 2.66454e-15 L45 2.66454e-15 L42.5 4.33013 L45 8.66025 L40 8.66025 L37.5 12.9904 L40 17.3205 L45 17.3205 L42.5 21.6506 L45 25.9808 L40 25.9808 L37.5 30.3109 L35 25.9808 L30 25.9808 L27.5 30.3109 L30 34.641 L25 34.641 L22.5 38.9711 L20 34.641 L15 34.641 L17.5 30.3109 L15 25.9808 L10 25.9808 L7.5 30.3109 L5 25.9808 L-1.33227e-14 25.9808 L2.5 21.6506 L-1.77636e-14 17.3205 L5 17.3205 L7.5 12.9904 L5 8.66025 L-2.22045e-14 8.66025 L2.5 4.33013 L-2.66454e-14 7.99361e-15"/>
</svg>
