<?xml version="1.0" encoding="UTF-8"?>
<svg xmlns="http://www.w3.org/2000/svg"
 version="1.1" baseProfile="basic"
 viewBox="-64 -120 241 155"
 width="1280px" height="1024px"
 stroke="white" stroke-width="1px"
 fill="black" fill-opacity="0">
<rect x="-64" y="-120" width="241" height="155" stroke-width="0px" fill-opacity="1"/>
<path d="M0 0 L0 0 L3.53553 -3.53553 L7.07107 3.55271e-15 L10.6066 3.53553 L7.07107 7.07107 L10.6066 10.6066 L7.07107 14.1421 L3.53553 17.6777 L-4.44089e-15 14.1421 L3.53553 17.6777 L-7.10543e-15 21.2132 L-3.53553 24.7487 L-7.07107 21.2132 L-10.6066 24.7487 L-14.1421 21.2132 L-17.6777 17.6777 L-14.1421 14.1421 L-10.6066 17.6777 L-14.1421 21.2132 L-17.6777 24.7487 L-21.2132 21.2132 L-24.7487 24.7487 L-28.2843 21.2132 L-31.8198 17.6777 L-28.2843 14.1421 L-31.8198 17.6777 L-35.3553 14.1421 L-38.8909 10.6066 L-35.3553 7.07107 L-38.8909 3.53553 L-35.3553 3.55271e-15 L-31.8198 -3.53553 L-28.2843 3.55271e-15 L-24.7487 3.53553 L-28.2843 7.07107 L-31.8198 10.6066 L-35.3553 7.07107 L-38.8909 10.6066 L-42.4264 7.07107 L-45.9619 3.53553 L-42.4264 0 L-45.9619 3.53553 L-49.4975 -1.77636e-15 L-53.033 -3.53553 L-49.4975 -7.07107 L-53.033 -10.6066 L-49.4975 -14.1421 L-45.9619 -17.6777 L-42.4264 -14.1421 L-45.9619 -10.6066 L-49.4975 -14.1421 L-53.033 -17.6777 L-49.4975 -21.2132 L-53.033 -24.7487 L-49.4975 -28.2843 L-45.9619 -31.8198 L-42.4264 -28.2843 L-45.9619 -31.8198 L-42.4264 -35.3553 L-38.8909 -38.8909 L-35.3553 -35.3553 L-31.8198 -38.8909 L-28.2843 -35.3553 L-24.7487 -31.8198 L-28.2843 -28.2843 L-24.7487 -24.7487 L-28.2843 -21.2132 L-31.8198 -17.6777 L-35.3553 -21.2132 L-38.8909 -17.6777 L-42.4264 -21.2132 L-45.9619 -24.7487 L-42.4264 -28.2843 L-45.9619 -24.7487 L-49.4975 -28.2843 L-53.033 -31.8198 L-49.4975 -35.3553 L-53.033 -38.8909 L-49.4975 -42.4264 L-45.9619 -45.9619 L-42.4264 -42.4264 L-45.9619 -38.8909 L-49.4975 -42.4264 L-53.033 -45.9619 L-49.4975 -49.4975 L-53.033 -53.033 L-49.4975 -56.5685 L-45.9619 -60.1041 L-42.4264 -56.5685 L-45.9619 -60.1041 L-42.4264 -63.6396 L-38.8909 -67.1751 L-35.3553 -63.6396 L-31.8198 -67.1751 L-28.2843 -63.6396 L-24.7487 -60.1041 L-28.2843 -56.5685 L-31.8198 -53.033 L-35.3553 -56.5685 L-38.8909 -60.1041 L-35.3553 -63.6396 L-38.8909 -67.1751 L-35.3553 -70.7107 L-31.8198 -74.2462 L-28.2843 -70.7107 L-31.8198 -74.2462 L-28.2843 -77.7817 L-24.7487 -81.3173 L-21.2132 -77.7817 L-17.6777 -81.3173 L-14.1421 -77.7817 L-10.6066 -74.2462 L-14.1421 -70.7107 L-17.6777 -74.2462 L-14.1421 -77.7817 L-10.6066 -81.3173 L-7.07107 -77.7817 L-3.53553 -81.3173 L-7.10543e-15 -77.7817 L3.53553 -74.2462 L-6.21725e-15 -70.7107 L3.53553 -74.2462 L7.07107 -70.7107 L10.6066 -67.1751 L7.07107 -63.6396 L10.6066 -60.1041 L7.07107 -56.5685 L3.53553 -53.033 L-6.21725e-15 -56.5685 L3.53553 -53.033 L-8.88178e-15 -49.4975 L-3.53553 -45.9619 L-7.07107 -49.4975 L-10.6066 -45.9619 L-14.1421 -49.4975 L-17.6777 -53.033 L-14.1421 -56.5685 L-17.6777 -53.033 L-21.2132 -56.5685 L-24.7487 -60.1041 L-21.2132 -63.6396 L-24.7487 -67.1751 L-21.2132 -70.7107 L-17.6777 -74.2462 L-14.1421 -70.7107 L-17.6777 -67.1751 L-21.2132 -70.7107 L-24.7487 -74.2462 L-21.2132 -77.7817 L-24.7487 -81.3173 L-21.2132 -84.8528 L-17.6777 -88.3883 L-14.1421 -84.8528 L-17.6777 -88.3883 L-14.1421 -91.9239 L-10.6066 -95.4594 L-7.07107 -91.9239 L-3.53553 -95.4594 L-1.06581e-14 -91.9239 L3.53553 -88.3883 L-9.76996e-15 -84.8528 L-3.53553 -81.3173 L-7.07107 -84.8528 L-10.6066 -88.3883 L-7.07107 -91.9239 L-10.6066 -95.4594 L-7.07107 -98.9949 L-3.53553 -102.53 L-7.10543e-15 -98.9949 L-3.53553 -102.53 L-6.21725e-15 -106.066 L3.53553 -109.602 L7.07107 -106.066 L10.6066 -109.602 L14.1421 -106.066 L17.6777 -102.53 L14.1421 -98.9949 L10.6066 -102.53 L14.1421 -106.066 L17.6777 -109.602 L21.2132 -106.066 L24.7487 -109.602 L28.2843 -106.066 L31.8198 -102.53 L28.2843 -98.9949 L31.8198 -102.53 L35.3553 -98.9949 L38.8909 -95.4594 L35.3553 -91.9239 L38.8909 -88.3883 L35.3553 -84.8528 L31.8198 -81.3173 L28.2843 -84.8528 L24.7487 -81.3173 L21.2132 -84.8528 L17.6777 -88.3883 L21.2132 -91.9239 L17.6777 -95.4594 L21.2132 -98.9949 L24.7487 -102.53 L28.2843 -98.9949 L24.7487 -102.53 L28.2843 -106.066 L31.8198 -109.602 L35.3553 -106.066 L38.8909 -109.602 L42.4264 -106.066 L45.9619 -102.53 L42.4264 -98.9949 L38.8909 -102.53 L42.4264 -106.066 L45.9619 -109.602 L49.4975 -106.066 L53.033 -109.602 L56.5685 -106.066 L60.1041 -102.53 L56.5685 -98.9949 L60.1041 -102.53 L63.6396 -98.9949 L67.1751 -95.4594 L63.6396 -91.9239 L67.1751 -88.3883 L63.6396 -84.8528 L60.1041 -81.3173 L56.5685 -84.8528 L53.033 -88.3883 L56.5685 -91.9239 L60.1041 -95.4594 L63.6396 -91.9239 L67.1751 -95.4594 L70.7107 -91.9239 L74.2462 -88.3883 L70.7107 -84.8528 L74.2462 -88.3883 L77.7817 -84.8528 L81.3173 -81.3173 L77.7817 -77.7817 L81.3173 -74.2462 L77.7817 -70.7107 L74.2462 -67.1751 L70.7107 -70.7107 L74.2462 -74.2462 L77.7817 -70.7107 L81.3173 -67.1751 L77.7817 -63.6396 L81.3173 -60.1041 L77.7817 -56.5685 L74.2462 -53.033 L70.7107 -56.5685 L74.2462 -53.033 L70.7107 -49.4975 L67.1751 -45.9619 L63.6396 -49.4975 L60.1041 -45.9619 L56.5685 -49.4975 L53.033 -53.033 L56.5685 -56.5685 L60.1041 -53.033 L56.5685 -49.4975 L53.033 -45.9619 L49.4975 -49.4975 L45.9619 -45.9619 L42.4264 -49.4975 L38.8909 -53.033 L42.4264 -56.5685 L38.8909 -53.033 L35.3553 -56.5685 L31.8198 -60.1041 L35.3553 -63.6396 L31.8198 -67.1751 L35.3553 -70.7107 L38.8909 -74.2462 L42.4264 -70.7107 L38.8909 -67.1751 L35.3553 -70.7107 L31.8198 -74.2462 L35.3553 -77.7817 L31.8198 -81.3173 L35.3553 -84.8528 L38.8909 -88.3883 L42.4264 -84.8528 L38.8909 -88.3883 L42.4264 -91.9239 L45.9619 -95.4594 L49.4975 -91.9239 L53.033 -95.4594 L56.5685 -91.9239 L60.1041 -88.3883 L56.5685 -84.8528 L53.033 -81.3173 L49.4975 -84.8528 L45.9619 -88.3883 L49.4975 -91.9239 L45.9619 -95.4594 L49.4975 -98.9949 L53.033 -102.53 L56.5685 -98.9949 L53.033 -102.53 L56.5685 -106.066 L60.1041 -109.602 L63.6396 -106.066 L67.1751 -109.602 L70.7107 -106.066 L74.2462 -102.53 L70.7107 -98.9949 L67.1751 -102.53 L70.7107 -106.066 L74.2462 -109.602 L77.7817 -106.066 L81.3173 -109.602 L84.8528 -106.066 L88.3883 -102.53 L84.8528 -98.9949 L88.3883 -102.53 L91.9239 -98.9949 L95.4594 -95.4594 L91.9239 -91.9239 L95.4594 -88.3883 L91.9239 -84.8528 L88.3883 -81.3173 L84.8528 -84.8528 L81.3173 -81.3173 L77.7817 -84.8528 L74.2462 -88.3883 L77.7817 -91.9239 L74.2462 -95.4594 L77.7817 -98.9949 L81.3173 -102.53 L84.8528 -98.9949 L81.3173 -102.53 L84.8528 -106.066 L88.3883 -109.602 L91.9239 -106.066 L95.4594 -109.602 L98.9949 -106.066 L102.53 -102.53 L98.9949 -98.9949 L95.4594 -102.53 L98.9949 -106.066 L102.53 -109.602 L106.066 -106.066 L109.602 -109.602 L113.137 -106.066 L116.673 -102.53 L113.137 -98.9949 L116.673 -102.53 L120.208 -98.9949 L123.744 -95.4594 L120.208 -91.9239 L123.744 -88.3883 L120.208 -84.8528 L116.673 -81.3173 L113.137 -84.8528 L109.602 -88.3883 L113.137 -91.9239 L116.673 -95.4594 L120.208 -91.9239 L123.744 -95.4594 L127.279 -91.9239 L130.815 -88.3883 L127.279 -84.8528 L130.815 -88.3883 L134.35 -84.8528 L137.886 -81.3173 L134.35 -77.7817 L137.886 -74.2462 L134.35 -70.7107 L130.815 -67.1751 L127.279 -70.7107 L130.815 -74.2462 L134.35 -70.7107 L137.886 -67.1751 L134.35 -63.6396 L137.886 -60.1041 L134.35 -56.5685 L130.815 -53.033 L127.279 -56.5685 L130.815 -53.033 L127.279 -49.4975 L123.744 -45.9619 L120.208 -49.4975 L116.673 -45.9619 L113.137 -49.4975 L109.602 -53.033 L113.137 -56.5685 L109.602 -53.033 L106.066 -56.5685 L102.53 -60.1041 L106.066 -63.6396 L102.53 -67.1751 L106.066 -70.7107 L109.602 -74.2462 L113.137 -70.7107 L109.602 -74.2462 L113.137 -77.7817 L116.673 -81.3173 L120.208 -77.7817 L123.744 -81.3173 L127.279 -77.7817 L130.815 -74.2462 L127.279 -70.7107 L123.744 -74.2462 L127.279 -77.7817 L130.815 -81.3173 L134.35 -77.7817 L137.886 -81.3173 L141.421 -77.7817 L144.957 -74.2462 L141.421 -70.7107 L144.957 -74.2462 L148.492 -70.7107 L152.028 -67.1751 L148.492 -63.6396 L152.028 -60.1041 L148.492 -56.5685 L144.957 -53.033 L141.421 -56.5685 L137.886 -60.1041 L141.421 -63.6396 L144.957 -67.1751 L148.492 -63.6396 L152.028 -67.1751 L155.563 -63.6396 L159.099 -60.1041 L155.563 -56.5685 L159.099 -60.1041 L162.635 -56.5685 L166.17 -53.033 L162.635 -49.4975 L166.17 -45.9619 L162.635 -42.4264 L159.099 -38.8909 L155.563 -42.4264 L159.099 -45.9619 L162.635 -42.4264 L166.17 -38.8909 L162.635 -35.3553 L166.17 -31.8198 L162.635 -28.2843 L159.099 -24.7487 L155.563 -28.2843 L159.099 -24.7487 L155.563 -21.2132 L152.028 -17.6777 L148.492 -21.2132 L144.957 -17.6777 L141.421 -21.2132 L137.886 -24.7487 L141.421 -28.2843 L137.886 -31.8198 L141.421 -35.3553 L144.957 -38.8909 L148.492 -35.3553 L152.028 -38.8909 L155.563 -35.3553 L159.099 -31.8198 L155.563 -28.2843 L159.099 -31.8198 L162.635 -28.2843 L166.17 -24.7487 L162.635 -21.2132 L166.17 -17.6777 L162.635 -14.1421 L159.099 -10.6066 L155.563 -14.1421 L159.099 -17.6777 L162.635 -14.1421 L166.17 -10.6066 L162.635 -7.07107 L166.17 -3.53553 L162.635 3.55271e-15 L159.099 3.53553 L155.563 5.32907e-15 L159.099 3.53553 L155.563 7.07107 L152.028 10.6066 L148.492 7.07107 L144.957 10.6066 L141.421 7.07107 L137.886 3.53553 L141.421 8.88178e-15 L144.957 -3.53553 L148.492 8.88178e-15 L152.028 3.53553 L148.492 7.07107 L152.028 10.6066 L148.492 14.1421 L144.957 17.6777 L141.421 14.1421 L144.957 17.6777 L141.421 21.2132 L137.886 24.7487 L134.35 21.2132 L130.815 24.7487 L127.279 21.2132 L123.744 17.6777 L127.279 14.1421 L130.815 17.6777 L127.279 21.2132 L123.744 24.7487 L120.208 21.2132 L116.673 24.7487 L113.137 21.2132 L109.602 17.6777 L113.137 14.1421 L109.602 17.6777 L106.066 14.1421 L102.53 10.6066 L106.066 7.07107 L102.53 3.53553 L106.066 8.88178e-15 L109.602 -3.53553 L113.137 5.32907e-15"/>
</svg>
