<?xml version="1.0" encoding="UTF-8"?>
<svg xmlns="http://www.w3.org/2000/svg"
 version="1.1" baseProfile="basic"
 viewBox="-26 -46 91 61"
 width="1280px" height="1024px"
 stroke="white" stroke-width="1px"
 fill="black" fill-opacity="0">
<rect x="-26" y="-46" width="91" height="61" stroke-width="0px" fill-opacity="1"/>
<path d="M0 0 L0 0 L-1.77636e-15 5 L-5 5 L-10 5 L-10 -3.55271e-15 L-15 -4.88498e-15 L-15 -5 L-15 -10 L-10 -10 L-15 -10 L-15 -15 L-15 -20 L-10 -20 L-10 -25 L-5 -25 L0 -25 L8.88178e-16 -20 L-5 -20 L-5 -25 L-5 -30 L2.66454e-15 -30 L3.55271e-15 -35 L5 -35 L10 -35 L10 -30 L10 -35 L15 -35 L20 -35 L20 -30 L25 -30 L25 -25 L25 -20 L20 -20 L15 -20 L15 -25 L15 -30 L20 -30 L20 -35 L25 -35 L30 -35 L30 -30 L30 -35 L35 -35 L40 -35 L40 -30 L45 -30 L45 -25 L45 -20 L40 -20 L40 -25 L45 -25 L50 -25 L50 -20 L55 -20 L55 -15 L55 -10 L50 -10 L55 -10 L55 -5 L55 -5.32907e-15 L50 -3.9968e-15 L50 5 L45 5 L40 5 L40 0"/>
</svg>
