<?xml version="1.0" encoding="UTF-8"?>
<svg xmlns="http://www.w3.org/2000/svg"
 version="1.1" baseProfile="basic"
 viewBox="-120 -233 466 297"
 width="1280px" height="1024px"
 stroke="white" stroke-width="1px"
 fill="black" fill-opacity="0">
<rect x="-120" y="-233" width="466" height="297" stroke-width="0px" fill-opacity="1"/>
<path d="M0 0 L0 0 L-3.53553 -3.53553 L4.44089e-15 -7.07107 L3.53553 -10.6066 L7.07107 -7.07107 L10.6066 -10.6066 L14.1421 -7.07107 L17.6777 -3.53553 L14.1421 7.10543e-15 L17.6777 -3.53553 L21.2132 1.06581e-14 L24.7487 3.53553 L21.2132 7.07107 L24.7487 10.6066 L21.2132 14.1421 L17.6777 17.6777 L14.1421 14.1421 L17.6777 10.6066 L21.2132 14.1421 L24.7487 17.6777 L21.2132 21.2132 L24.7487 24.7487 L21.2132 28.2843 L17.6777 31.8198 L14.1421 28.2843 L17.6777 31.8198 L14.1421 35.3553 L10.6066 38.8909 L7.07107 35.3553 L3.53553 38.8909 L7.99361e-15 35.3553 L-3.53553 31.8198 L8.88178e-15 28.2843 L3.53553 24.7487 L7.07107 28.2843 L10.6066 31.8198 L7.07107 35.3553 L10.6066 38.8909 L7.07107 42.4264 L3.53553 45.9619 L2.66454e-15 42.4264 L3.53553 45.9619 L0 49.4975 L-3.53553 53.033 L-7.07107 49.4975 L-10.6066 53.033 L-14.1421 49.4975 L-17.6777 45.9619 L-14.1421 42.4264 L-10.6066 45.9619 L-14.1421 49.4975 L-17.6777 53.033 L-21.2132 49.4975 L-24.7487 53.033 L-28.2843 49.4975 L-31.8198 45.9619 L-28.2843 42.4264 L-31.8198 45.9619 L-35.3553 42.4264 L-38.8909 38.8909 L-35.3553 35.3553 L-38.8909 31.8198 L-35.3553 28.2843 L-31.8198 24.7487 L-28.2843 28.2843 L-24.7487 24.7487 L-21.2132 28.2843 L-17.6777 31.8198 L-21.2132 35.3553 L-17.6777 38.8909 L-21.2132 42.4264 L-24.7487 45.9619 L-28.2843 42.4264 L-24.7487 45.9619 L-28.2843 49.4975 L-31.8198 53.033 L-35.3553 49.4975 L-38.8909 53.033 L-42.4264 49.4975 L-45.9619 45.9619 L-42.4264 42.4264 L-38.8909 45.9619 L-42.4264 49.4975 L-45.9619 53.033 L-49.4975 49.4975 L-53.033 53.033 L-56.5685 49.4975 L-60.1041 45.9619 L-56.5685 42.4264 L-60.1041 45.9619 L-63.6396 42.4264 L-67.1751 38.8909 L-63.6396 35.3553 L-67.1751 31.8198 L-63.6396 28.2843 L-60.1041 24.7487 L-56.5685 28.2843 L-53.033 31.8198 L-56.5685 35.3553 L-60.1041 38.8909 L-63.6396 35.3553 L-67.1751 38.8909 L-70.7107 35.3553 L-74.2462 31.8198 L-70.7107 28.2843 L-74.2462 31.8198 L-77.7817 28.2843 L-81.3173 24.7487 L-77.7817 21.2132 L-81.3173 17.6777 L-77.7817 14.1421 L-74.2462 10.6066 L-70.7107 14.1421 L-74.2462 17.6777 L-77.7817 14.1421 L-81.3173 10.6066 L-77.7817 7.07107 L-81.3173 3.53553 L-77.7817 1.42109e-14 L-74.2462 -3.53553 L-70.7107 1.42109e-14 L-74.2462 -3.53553 L-70.7107 -7.07107 L-67.1751 -10.6066 L-63.6396 -7.07107 L-60.1041 -10.6066 L-56.5685 -7.07107 L-53.033 -3.53553 L-56.5685 1.42109e-14 L-53.033 -3.53553 L-49.4975 1.77636e-14 L-45.9619 3.53553 L-49.4975 7.07107 L-45.9619 10.6066 L-49.4975 14.1421 L-53.033 17.6777 L-56.5685 14.1421 L-53.033 17.6777 L-56.5685 21.2132 L-60.1041 24.7487 L-63.6396 21.2132 L-67.1751 24.7487 L-70.7107 21.2132 L-74.2462 17.6777 L-70.7107 14.1421 L-67.1751 17.6777 L-70.7107 21.2132 L-74.2462 24.7487 L-77.7817 21.2132 L-81.3173 24.7487 L-84.8528 21.2132 L-88.3883 17.6777 L-84.8528 14.1421 L-88.3883 17.6777 L-91.9239 14.1421 L-95.4594 10.6066 L-91.9239 7.07107 L-95.4594 3.53553 L-91.9239 1.77636e-14 L-88.3883 -3.53553 L-84.8528 1.77636e-14 L-81.3173 3.53553 L-84.8528 7.07107 L-88.3883 10.6066 L-91.9239 7.07107 L-95.4594 10.6066 L-98.9949 7.07107 L-102.53 3.53553 L-98.9949 1.42109e-14 L-102.53 3.53553 L-106.066 1.24345e-14 L-109.602 -3.53553 L-106.066 -7.07107 L-109.602 -10.6066 L-106.066 -14.1421 L-102.53 -17.6777 L-98.9949 -14.1421 L-102.53 -10.6066 L-106.066 -14.1421 L-109.602 -17.6777 L-106.066 -21.2132 L-109.602 -24.7487 L-106.066 -28.2843 L-102.53 -31.8198 L-98.9949 -28.2843 L-102.53 -31.8198 L-98.9949 -35.3553 L-95.4594 -38.8909 L-91.9239 -35.3553 L-88.3883 -38.8909 L-84.8528 -35.3553 L-81.3173 -31.8198 L-84.8528 -28.2843 L-81.3173 -24.7487 L-84.8528 -21.2132 L-88.3883 -17.6777 L-91.9239 -21.2132 L-95.4594 -17.6777 L-98.9949 -21.2132 L-102.53 -24.7487 L-98.9949 -28.2843 L-102.53 -24.7487 L-106.066 -28.2843 L-109.602 -31.8198 L-106.066 -35.3553 L-109.602 -38.8909 L-106.066 -42.4264 L-102.53 -45.9619 L-98.9949 -42.4264 L-102.53 -38.8909 L-106.066 -42.4264 L-109.602 -45.9619 L-106.066 -49.4975 L-109.602 -53.033 L-106.066 -56.5685 L-102.53 -60.1041 L-98.9949 -56.5685 L-102.53 -60.1041 L-98.9949 -63.6396 L-95.4594 -67.1751 L-91.9239 -63.6396 L-88.3883 -67.1751 L-84.8528 -63.6396 L-81.3173 -60.1041 L-84.8528 -56.5685 L-88.3883 -53.033 L-91.9239 -56.5685 L-95.4594 -60.1041 L-91.9239 -63.6396 L-95.4594 -67.1751 L-91.9239 -70.7107 L-88.3883 -74.2462 L-84.8528 -70.7107 L-88.3883 -74.2462 L-84.8528 -77.7817 L-81.3173 -81.3173 L-77.7817 -77.7817 L-74.2462 -81.3173 L-70.7107 -77.7817 L-67.1751 -74.2462 L-70.7107 -70.7107 L-74.2462 -74.2462 L-70.7107 -77.7817 L-67.1751 -81.3173 L-63.6396 -77.7817 L-60.1041 -81.3173 L-56.5685 -77.7817 L-53.033 -74.2462 L-56.5685 -70.7107 L-53.033 -74.2462 L-49.4975 -70.7107 L-45.9619 -67.1751 L-49.4975 -63.6396 L-45.9619 -60.1041 L-49.4975 -56.5685 L-53.033 -53.033 L-56.5685 -56.5685 L-53.033 -60.1041 L-49.4975 -56.5685 L-45.9619 -53.033 L-49.4975 -49.4975 L-45.9619 -45.9619 L-49.4975 -42.4264 L-53.033 -38.8909 L-56.5685 -42.4264 L-53.033 -38.8909 L-56.5685 -35.3553 L-60.1041 -31.8198 L-63.6396 -35.3553 L-67.1751 -31.8198 L-70.7107 -35.3553 L-74.2462 -38.8909 L-70.7107 -42.4264 L-67.1751 -38.8909 L-70.7107 -35.3553 L-74.2462 -31.8198 L-77.7817 -35.3553 L-81.3173 -31.8198 L-84.8528 -35.3553 L-88.3883 -38.8909 L-84.8528 -42.4264 L-88.3883 -38.8909 L-91.9239 -42.4264 L-95.4594 -45.9619 L-91.9239 -49.4975 L-95.4594 -53.033 L-91.9239 -56.5685 L-88.3883 -60.1041 L-84.8528 -56.5685 L-81.3173 -53.033 L-84.8528 -49.4975 L-88.3883 -45.9619 L-91.9239 -49.4975 L-95.4594 -45.9619 L-98.9949 -49.4975 L-102.53 -53.033 L-98.9949 -56.5685 L-102.53 -53.033 L-106.066 -56.5685 L-109.602 -60.1041 L-106.066 -63.6396 L-109.602 -67.1751 L-106.066 -70.7107 L-102.53 -74.2462 L-98.9949 -70.7107 L-102.53 -67.1751 L-106.066 -70.7107 L-109.602 -74.2462 L-106.066 -77.7817 L-109.602 -81.3173 L-106.066 -84.8528 L-102.53 -88.3883 L-98.9949 -84.8528 L-102.53 -88.3883 L-98.9949 -91.9239 L-95.4594 -95.4594 L-91.9239 -91.9239 L-88.3883 -95.4594 L-84.8528 -91.9239 L-81.3173 -88.3883 L-84.8528 -84.8528 L-81.3173 -81.3173 L-84.8528 -77.7817 L-88.3883 -74.2462 L-91.9239 -77.7817 L-95.4594 -74.2462 L-98.9949 -77.7817 L-102.53 -81.3173 L-98.9949 -84.8528 L-102.53 -81.3173 L-106.066 -84.8528 L-109.602 -88.3883 L-106.066 -91.9239 L-109.602 -95.4594 L-106.066 -98.9949 L-102.53 -102.53 L-98.9949 -98.9949 L-102.53 -95.4594 L-106.066 -98.9949 L-109.602 -102.53 L-106.066 -106.066 L-109.602 -109.602 L-106.066 -113.137 L-102.53 -116.673 L-98.9949 -113.137 L-102.53 -116.673 L-98.9949 -120.208 L-95.4594 -123.744 L-91.9239 -120.208 L-88.3883 -123.744 L-84.8528 -120.208 L-81.3173 -116.673 L-84.8528 -113.137 L-88.3883 -109.602 L-91.9239 -113.137 L-95.4594 -116.673 L-91.9239 -120.208 L-95.4594 -123.744 L-91.9239 -127.279 L-88.3883 -130.815 L-84.8528 -127.279 L-88.3883 -130.815 L-84.8528 -134.35 L-81.3173 -137.886 L-77.7817 -134.35 L-74.2462 -137.886 L-70.7107 -134.35 L-67.1751 -130.815 L-70.7107 -127.279 L-74.2462 -130.815 L-70.7107 -134.35 L-67.1751 -137.886 L-63.6396 -134.35 L-60.1041 -137.886 L-56.5685 -134.35 L-53.033 -130.815 L-56.5685 -127.279 L-53.033 -130.815 L-49.4975 -127.279 L-45.9619 -123.744 L-49.4975 -120.208 L-45.9619 -116.673 L-49.4975 -113.137 L-53.033 -109.602 L-56.5685 -113.137 L-53.033 -109.602 L-56.5685 -106.066 L-60.1041 -102.53 L-63.6396 -106.066 L-67.1751 -102.53 L-70.7107 -106.066 L-74.2462 -109.602 L-70.7107 -113.137 L-74.2462 -109.602 L-77.7817 -113.137 L-81.3173 -116.673 L-77.7817 -120.208 L-81.3173 -123.744 L-77.7817 -127.279 L-74.2462 -130.815 L-70.7107 -127.279 L-74.2462 -123.744 L-77.7817 -127.279 L-81.3173 -130.815 L-77.7817 -134.35 L-81.3173 -137.886 L-77.7817 -141.421 L-74.2462 -144.957 L-70.7107 -141.421 L-74.2462 -144.957 L-70.7107 -148.492 L-67.1751 -152.028 L-63.6396 -148.492 L-60.1041 -152.028 L-56.5685 -148.492 L-53.033 -144.957 L-56.5685 -141.421 L-60.1041 -137.886 L-63.6396 -141.421 L-67.1751 -144.957 L-63.6396 -148.492 L-67.1751 -152.028 L-63.6396 -155.563 L-60.1041 -159.099 L-56.5685 -155.563 L-60.1041 -159.099 L-56.5685 -162.635 L-53.033 -166.17 L-49.4975 -162.635 L-45.9619 -166.17 L-42.4264 -162.635 L-38.8909 -159.099 L-42.4264 -155.563 L-45.9619 -159.099 L-42.4264 -162.635 L-38.8909 -166.17 L-35.3553 -162.635 L-31.8198 -166.17 L-28.2843 -162.635 L-24.7487 -159.099 L-28.2843 -155.563 L-24.7487 -159.099 L-21.2132 -155.563 L-17.6777 -152.028 L-21.2132 -148.492 L-17.6777 -144.957 L-21.2132 -141.421 L-24.7487 -137.886 L-28.2843 -141.421 L-31.8198 -137.886 L-35.3553 -141.421 L-38.8909 -144.957 L-35.3553 -148.492 L-38.8909 -152.028 L-35.3553 -155.563 L-31.8198 -159.099 L-28.2843 -155.563 L-31.8198 -159.099 L-28.2843 -162.635 L-24.7487 -166.17 L-21.2132 -162.635 L-17.6777 -166.17 L-14.1421 -162.635 L-10.6066 -159.099 L-14.1421 -155.563 L-17.6777 -159.099 L-14.1421 -162.635 L-10.6066 -166.17 L-7.07107 -162.635 L-3.53553 -166.17 L0 -162.635 L3.53553 -159.099 L8.88178e-16 -155.563 L3.53553 -159.099 L7.07107 -155.563 L10.6066 -152.028 L7.07107 -148.492 L10.6066 -144.957 L7.07107 -141.421 L3.53553 -137.886 L8.88178e-16 -141.421 L-3.53553 -144.957 L1.77636e-15 -148.492 L3.53553 -152.028 L7.07107 -148.492 L10.6066 -152.028 L14.1421 -148.492 L17.6777 -144.957 L14.1421 -141.421 L17.6777 -144.957 L21.2132 -141.421 L24.7487 -137.886 L21.2132 -134.35 L24.7487 -130.815 L21.2132 -127.279 L17.6777 -123.744 L14.1421 -127.279 L17.6777 -130.815 L21.2132 -127.279 L24.7487 -123.744 L21.2132 -120.208 L24.7487 -116.673 L21.2132 -113.137 L17.6777 -109.602 L14.1421 -113.137 L17.6777 -109.602 L14.1421 -106.066 L10.6066 -102.53 L7.07107 -106.066 L3.53553 -102.53 L-8.88178e-16 -106.066 L-3.53553 -109.602 L-3.55271e-15 -113.137 L3.53553 -116.673 L7.07107 -113.137 L10.6066 -109.602 L7.07107 -106.066 L10.6066 -102.53 L7.07107 -98.9949 L3.53553 -95.4594 L-7.99361e-15 -98.9949 L3.53553 -95.4594 L-1.06581e-14 -91.9239 L-3.53553 -88.3883 L-7.07107 -91.9239 L-10.6066 -88.3883 L-14.1421 -91.9239 L-17.6777 -95.4594 L-14.1421 -98.9949 L-10.6066 -95.4594 L-14.1421 -91.9239 L-17.6777 -88.3883 L-21.2132 -91.9239 L-24.7487 -88.3883 L-28.2843 -91.9239 L-31.8198 -95.4594 L-28.2843 -98.9949 L-31.8198 -95.4594 L-35.3553 -98.9949 L-38.8909 -102.53 L-35.3553 -106.066 L-38.8909 -109.602 L-35.3553 -113.137 L-31.8198 -116.673 L-28.2843 -113.137 L-24.7487 -109.602 L-28.2843 -106.066 L-31.8198 -102.53 L-35.3553 -106.066 L-38.8909 -102.53 L-42.4264 -106.066 L-45.9619 -109.602 L-42.4264 -113.137 L-45.9619 -109.602 L-49.4975 -113.137 L-53.033 -116.673 L-49.4975 -120.208 L-53.033 -123.744 L-49.4975 -127.279 L-45.9619 -130.815 L-42.4264 -127.279 L-45.9619 -123.744 L-49.4975 -127.279 L-53.033 -130.815 L-49.4975 -134.35 L-53.033 -137.886 L-49.4975 -141.421 L-45.9619 -144.957 L-42.4264 -141.421 L-45.9619 -144.957 L-42.4264 -148.492 L-38.8909 -152.028 L-35.3553 -148.492 L-31.8198 -152.028 L-28.2843 -148.492 L-24.7487 -144.957 L-28.2843 -141.421 L-24.7487 -137.886 L-28.2843 -134.35 L-31.8198 -130.815 L-35.3553 -134.35 L-38.8909 -130.815 L-42.4264 -134.35 L-45.9619 -137.886 L-42.4264 -141.421 L-45.9619 -137.886 L-49.4975 -141.421 L-53.033 -144.957 L-49.4975 -148.492 L-53.033 -152.028 L-49.4975 -155.563 L-45.9619 -159.099 L-42.4264 -155.563 L-45.9619 -152.028 L-49.4975 -155.563 L-53.033 -159.099 L-49.4975 -162.635 L-53.033 -166.17 L-49.4975 -169.706 L-45.9619 -173.241 L-42.4264 -169.706 L-45.9619 -173.241 L-42.4264 -176.777 L-38.8909 -180.312 L-35.3553 -176.777 L-31.8198 -180.312 L-28.2843 -176.777 L-24.7487 -173.241 L-28.2843 -169.706 L-31.8198 -166.17 L-35.3553 -169.706 L-38.8909 -173.241 L-35.3553 -176.777 L-38.8909 -180.312 L-35.3553 -183.848 L-31.8198 -187.383 L-28.2843 -183.848 L-31.8198 -187.383 L-28.2843 -190.919 L-24.7487 -194.454 L-21.2132 -190.919 L-17.6777 -194.454 L-14.1421 -190.919 L-10.6066 -187.383 L-14.1421 -183.848 L-17.6777 -187.383 L-14.1421 -190.919 L-10.6066 -194.454 L-7.07107 -190.919 L-3.53553 -194.454 L-1.42109e-14 -190.919 L3.53553 -187.383 L-1.33227e-14 -183.848 L3.53553 -187.383 L7.07107 -183.848 L10.6066 -180.312 L7.07107 -176.777 L10.6066 -173.241 L7.07107 -169.706 L3.53553 -166.17 L-1.33227e-14 -169.706 L3.53553 -166.17 L-1.59872e-14 -162.635 L-3.53553 -159.099 L-7.07107 -162.635 L-10.6066 -159.099 L-14.1421 -162.635 L-17.6777 -166.17 L-14.1421 -169.706 L-17.6777 -166.17 L-21.2132 -169.706 L-24.7487 -173.241 L-21.2132 -176.777 L-24.7487 -180.312 L-21.2132 -183.848 L-17.6777 -187.383 L-14.1421 -183.848 L-17.6777 -180.312 L-21.2132 -183.848 L-24.7487 -187.383 L-21.2132 -190.919 L-24.7487 -194.454 L-21.2132 -197.99 L-17.6777 -201.525 L-14.1421 -197.99 L-17.6777 -201.525 L-14.1421 -205.061 L-10.6066 -208.597 L-7.07107 -205.061 L-3.53553 -208.597 L-1.77636e-14 -205.061 L3.53553 -201.525 L-1.68754e-14 -197.99 L-3.53553 -194.454 L-7.07107 -197.99 L-10.6066 -201.525 L-7.07107 -205.061 L-10.6066 -208.597 L-7.07107 -212.132 L-3.53553 -215.668 L-1.42109e-14 -212.132 L-3.53553 -215.668 L-1.33227e-14 -219.203 L3.53553 -222.739 L7.07107 -219.203 L10.6066 -222.739 L14.1421 -219.203 L17.6777 -215.668 L14.1421 -212.132 L10.6066 -215.668 L14.1421 -219.203 L17.6777 -222.739 L21.2132 -219.203 L24.7487 -222.739 L28.2843 -219.203 L31.8198 -215.668 L28.2843 -212.132 L31.8198 -215.668 L35.3553 -212.132 L38.8909 -208.597 L35.3553 -205.061 L38.8909 -201.525 L35.3553 -197.99 L31.8198 -194.454 L28.2843 -197.99 L24.7487 -194.454 L21.2132 -197.99 L17.6777 -201.525 L21.2132 -205.061 L17.6777 -208.597 L21.2132 -212.132 L24.7487 -215.668 L28.2843 -212.132 L24.7487 -215.668 L28.2843 -219.203 L31.8198 -222.739 L35.3553 -219.203 L38.8909 -222.739 L42.4264 -219.203 L45.9619 -215.668 L42.4264 -212.132 L38.8909 -215.668 L42.4264 -219.203 L45.9619 -222.739 L49.4975 -219.203 L53.033 -222.739 L56.5685 -219.203 L60.1041 -215.668 L56.5685 -212.132 L60.1041 -215.668 L63.6396 -212.132 L67.1751 -208.597 L63.6396 -205.061 L67.1751 -201.525 L63.6396 -197.99 L60.1041 -194.454 L56.5685 -197.99 L53.033 -201.525 L56.5685 -205.061 L60.1041 -208.597 L63.6396 -205.061 L67.1751 -208.597 L70.7107 -205.061 L74.2462 -201.525 L70.7107 -197.99 L74.2462 -201.525 L77.7817 -197.99 L81.3173 -194.454 L77.7817 -190.919 L81.3173 -187.383 L77.7817 -183.848 L74.2462 -180.312 L70.7107 -183.848 L74.2462 -187.383 L77.7817 -183.848 L81.3173 -180.312 L77.7817 -176.777 L81.3173 -173.241 L77.7817 -169.706 L74.2462 -166.17 L70.7107 -169.706 L74.2462 -166.17 L70.7107 -162.635 L67.1751 -159.099 L63.6396 -162.635 L60.1041 -159.099 L56.5685 -162.635 L53.033 -166.17 L56.5685 -169.706 L60.1041 -166.17 L56.5685 -162.635 L53.033 -159.099 L49.4975 -162.635 L45.9619 -159.099 L42.4264 -162.635 L38.8909 -166.17 L42.4264 -169.706 L38.8909 -166.17 L35.3553 -169.706 L31.8198 -173.241 L35.3553 -176.777 L31.8198 -180.312 L35.3553 -183.848 L38.8909 -187.383 L42.4264 -183.848 L38.8909 -180.312 L35.3553 -183.848 L31.8198 -187.383 L35.3553 -190.919 L31.8198 -194.454 L35.3553 -197.99 L38.8909 -201.525 L42.4264 -197.99 L38.8909 -201.525 L42.4264 -205.061 L45.9619 -208.597 L49.4975 -205.061 L53.033 -208.597 L56.5685 -205.061 L60.1041 -201.525 L56.5685 -197.99 L53.033 -194.454 L49.4975 -197.99 L45.9619 -201.525 L49.4975 -205.061 L45.9619 -208.597 L49.4975 -212.132 L53.033 -215.668 L56.5685 -212.132 L53.033 -215.668 L56.5685 -219.203 L60.1041 -222.739 L63.6396 -219.203 L67.1751 -222.739 L70.7107 -219.203 L74.2462 -215.668 L70.7107 -212.132 L67.1751 -215.668 L70.7107 -219.203 L74.2462 -222.739 L77.7817 -219.203 L81.3173 -222.739 L84.8528 -219.203 L88.3883 -215.668 L84.8528 -212.132 L88.3883 -215.668 L91.9239 -212.132 L95.4594 -208.597 L91.9239 -205.061 L95.4594 -201.525 L91.9239 -197.99 L88.3883 -194.454 L84.8528 -197.99 L81.3173 -194.454 L77.7817 -197.99 L74.2462 -201.525 L77.7817 -205.061 L74.2462 -208.597 L77.7817 -212.132 L81.3173 -215.668 L84.8528 -212.132 L81.3173 -215.668 L84.8528 -219.203 L88.3883 -222.739 L91.9239 -219.203 L95.4594 -222.739 L98.9949 -219.203 L102.53 -215.668 L98.9949 -212.132 L95.4594 -215.668 L98.9949 -219.203 L102.53 -222.739 L106.066 -219.203 L109.602 -222.739 L113.137 -219.203 L116.673 -215.668 L113.137 -212.132 L116.673 -215.668 L120.208 -212.132 L123.744 -208.597 L120.208 -205.061 L123.744 -201.525 L120.208 -197.99 L116.673 -194.454 L113.137 -197.99 L109.602 -201.525 L113.137 -205.061 L116.673 -208.597 L120.208 -205.061 L123.744 -208.597 L127.279 -205.061 L130.815 -201.525 L127.279 -197.99 L130.815 -201.525 L134.35 -197.99 L137.886 -194.454 L134.35 -190.919 L137.886 -187.383 L134.35 -183.848 L130.815 -180.312 L127.279 -183.848 L130.815 -187.383 L134.35 -183.848 L137.886 -180.312 L134.35 -176.777 L137.886 -173.241 L134.35 -169.706 L130.815 -166.17 L127.279 -169.706 L130.815 -166.17 L127.279 -162.635 L123.744 -159.099 L120.208 -162.635 L116.673 -159.099 L113.137 -162.635 L109.602 -166.17 L113.137 -169.706 L109.602 -166.17 L106.066 -169.706 L102.53 -173.241 L106.066 -176.777 L102.53 -180.312 L106.066 -183.848 L109.602 -187.383 L113.137 -183.848 L109.602 -187.383 L113.137 -190.919 L116.673 -194.454 L120.208 -190.919 L123.744 -194.454 L127.279 -190.919 L130.815 -187.383 L127.279 -183.848 L123.744 -187.383 L127.279 -190.919 L130.815 -194.454 L134.35 -190.919 L137.886 -194.454 L141.421 -190.919 L144.957 -187.383 L141.421 -183.848 L144.957 -187.383 L148.492 -183.848 L152.028 -180.312 L148.492 -176.777 L152.028 -173.241 L148.492 -169.706 L144.957 -166.17 L141.421 -169.706 L137.886 -173.241 L141.421 -176.777 L144.957 -180.312 L148.492 -176.777 L152.028 -180.312 L155.563 -176.777 L159.099 -173.241 L155.563 -169.706 L159.099 -173.241 L162.635 -169.706 L166.17 -166.17 L162.635 -162.635 L166.17 -159.099 L162.635 -155.563 L159.099 -152.028 L155.563 -155.563 L159.099 -159.099 L162.635 -155.563 L166.17 -152.028 L162.635 -148.492 L166.17 -144.957 L162.635 -141.421 L159.099 -137.886 L155.563 -141.421 L159.099 -137.886 L155.563 -134.35 L152.028 -130.815 L148.492 -134.35 L144.957 -130.815 L141.421 -134.35 L137.886 -137.886 L141.421 -141.421 L137.886 -144.957 L141.421 -148.492 L144.957 -152.028 L148.492 -148.492 L152.028 -152.028 L155.563 -148.492 L159.099 -144.957 L155.563 -141.421 L159.099 -144.957 L162.635 -141.421 L166.17 -137.886 L162.635 -134.35 L166.17 -130.815 L162.635 -127.279 L159.099 -123.744 L155.563 -127.279 L159.099 -130.815 L162.635 -127.279 L166.17 -123.744 L162.635 -120.208 L166.17 -116.673 L162.635 -113.137 L159.099 -109.602 L155.563 -113.137 L159.099 -109.602 L155.563 -106.066 L152.028 -102.53 L148.492 -106.066 L144.957 -102.53 L141.421 -106.066 L137.886 -109.602 L141.421 -113.137 L144.957 -116.673 L148.492 -113.137 L152.028 -109.602 L148.492 -106.066 L152.028 -102.53 L148.492 -98.9949 L144.957 -95.4594 L141.421 -98.9949 L144.957 -95.4594 L141.421 -91.9239 L137.886 -88.3883 L134.35 -91.9239 L130.815 -88.3883 L127.279 -91.9239 L123.744 -95.4594 L127.279 -98.9949 L130.815 -95.4594 L127.279 -91.9239 L123.744 -88.3883 L120.208 -91.9239 L116.673 -88.3883 L113.137 -91.9239 L109.602 -95.4594 L113.137 -98.9949 L109.602 -95.4594 L106.066 -98.9949 L102.53 -102.53 L106.066 -106.066 L102.53 -109.602 L106.066 -113.137 L109.602 -116.673 L113.137 -113.137 L116.673 -116.673 L120.208 -113.137 L123.744 -109.602 L120.208 -106.066 L123.744 -102.53 L120.208 -98.9949 L116.673 -95.4594 L113.137 -98.9949 L116.673 -95.4594 L113.137 -91.9239 L109.602 -88.3883 L106.066 -91.9239 L102.53 -88.3883 L98.9949 -91.9239 L95.4594 -95.4594 L98.9949 -98.9949 L102.53 -95.4594 L98.9949 -91.9239 L95.4594 -88.3883 L91.9239 -91.9239 L88.3883 -88.3883 L84.8528 -91.9239 L81.3173 -95.4594 L84.8528 -98.9949 L81.3173 -95.4594 L77.7817 -98.9949 L74.2462 -102.53 L77.7817 -106.066 L74.2462 -109.602 L77.7817 -113.137 L81.3173 -116.673 L84.8528 -113.137 L88.3883 -109.602 L84.8528 -106.066 L81.3173 -102.53 L77.7817 -106.066 L74.2462 -102.53 L70.7107 -106.066 L67.1751 -109.602 L70.7107 -113.137 L67.1751 -109.602 L63.6396 -113.137 L60.1041 -116.673 L63.6396 -120.208 L60.1041 -123.744 L63.6396 -127.279 L67.1751 -130.815 L70.7107 -127.279 L67.1751 -123.744 L63.6396 -127.279 L60.1041 -130.815 L63.6396 -134.35 L60.1041 -137.886 L63.6396 -141.421 L67.1751 -144.957 L70.7107 -141.421 L67.1751 -144.957 L70.7107 -148.492 L74.2462 -152.028 L77.7817 -148.492 L81.3173 -152.028 L84.8528 -148.492 L88.3883 -144.957 L84.8528 -141.421 L88.3883 -137.886 L84.8528 -134.35 L81.3173 -130.815 L77.7817 -134.35 L74.2462 -130.815 L70.7107 -134.35 L67.1751 -137.886 L70.7107 -141.421 L67.1751 -137.886 L63.6396 -141.421 L60.1041 -144.957 L63.6396 -148.492 L60.1041 -152.028 L63.6396 -155.563 L67.1751 -159.099 L70.7107 -155.563 L67.1751 -152.028 L63.6396 -155.563 L60.1041 -159.099 L63.6396 -162.635 L60.1041 -166.17 L63.6396 -169.706 L67.1751 -173.241 L70.7107 -169.706 L67.1751 -173.241 L70.7107 -176.777 L74.2462 -180.312 L77.7817 -176.777 L81.3173 -180.312 L84.8528 -176.777 L88.3883 -173.241 L84.8528 -169.706 L81.3173 -166.17 L77.7817 -169.706 L74.2462 -173.241 L77.7817 -176.777 L74.2462 -180.312 L77.7817 -183.848 L81.3173 -187.383 L84.8528 -183.848 L81.3173 -187.383 L84.8528 -190.919 L88.3883 -194.454 L91.9239 -190.919 L95.4594 -194.454 L98.9949 -190.919 L102.53 -187.383 L98.9949 -183.848 L95.4594 -187.383 L98.9949 -190.919 L102.53 -194.454 L106.066 -190.919 L109.602 -194.454 L113.137 -190.919 L116.673 -187.383 L113.137 -183.848 L116.673 -187.383 L120.208 -183.848 L123.744 -180.312 L120.208 -176.777 L123.744 -173.241 L120.208 -169.706 L116.673 -166.17 L113.137 -169.706 L116.673 -166.17 L113.137 -162.635 L109.602 -159.099 L106.066 -162.635 L102.53 -159.099 L98.9949 -162.635 L95.4594 -166.17 L98.9949 -169.706 L95.4594 -166.17 L91.9239 -169.706 L88.3883 -173.241 L91.9239 -176.777 L88.3883 -180.312 L91.9239 -183.848 L95.4594 -187.383 L98.9949 -183.848 L95.4594 -180.312 L91.9239 -183.848 L88.3883 -187.383 L91.9239 -190.919 L88.3883 -194.454 L91.9239 -197.99 L95.4594 -201.525 L98.9949 -197.99 L95.4594 -201.525 L98.9949 -205.061 L102.53 -208.597 L106.066 -205.061 L109.602 -208.597 L113.137 -205.061 L116.673 -201.525 L113.137 -197.99 L109.602 -194.454 L106.066 -197.99 L102.53 -201.525 L106.066 -205.061 L102.53 -208.597 L106.066 -212.132 L109.602 -215.668 L113.137 -212.132 L109.602 -215.668 L113.137 -219.203 L116.673 -222.739 L120.208 -219.203 L123.744 -222.739 L127.279 -219.203 L130.815 -215.668 L127.279 -212.132 L123.744 -215.668 L127.279 -219.203 L130.815 -222.739 L134.35 -219.203 L137.886 -222.739 L141.421 -219.203 L144.957 -215.668 L141.421 -212.132 L144.957 -215.668 L148.492 -212.132 L152.028 -208.597 L148.492 -205.061 L152.028 -201.525 L148.492 -197.99 L144.957 -194.454 L141.421 -197.99 L137.886 -194.454 L134.35 -197.99 L130.815 -201.525 L134.35 -205.061 L130.815 -208.597 L134.35 -212.132 L137.886 -215.668 L141.421 -212.132 L137.886 -215.668 L141.421 -219.203 L144.957 -222.739 L148.492 -219.203 L152.028 -222.739 L155.563 -219.203 L159.099 -215.668 L155.563 -212.132 L152.028 -215.668 L155.563 -219.203 L159.099 -222.739 L162.635 -219.203 L166.17 -222.739 L169.706 -219.203 L173.241 -215.668 L169.706 -212.132 L173.241 -215.668 L176.777 -212.132 L180.312 -208.597 L176.777 -205.061 L180.312 -201.525 L176.777 -197.99 L173.241 -194.454 L169.706 -197.99 L166.17 -201.525 L169.706 -205.061 L173.241 -208.597 L176.777 -205.061 L180.312 -208.597 L183.848 -205.061 L187.383 -201.525 L183.848 -197.99 L187.383 -201.525 L190.919 -197.99 L194.454 -194.454 L190.919 -190.919 L194.454 -187.383 L190.919 -183.848 L187.383 -180.312 L183.848 -183.848 L187.383 -187.383 L190.919 -183.848 L194.454 -180.312 L190.919 -176.777 L194.454 -173.241 L190.919 -169.706 L187.383 -166.17 L183.848 -169.706 L187.383 -166.17 L183.848 -162.635 L180.312 -159.099 L176.777 -162.635 L173.241 -159.099 L169.706 -162.635 L166.17 -166.17 L169.706 -169.706 L173.241 -166.17 L169.706 -162.635 L166.17 -159.099 L162.635 -162.635 L159.099 -159.099 L155.563 -162.635 L152.028 -166.17 L155.563 -169.706 L152.028 -166.17 L148.492 -169.706 L144.957 -173.241 L148.492 -176.777 L144.957 -180.312 L148.492 -183.848 L152.028 -187.383 L155.563 -183.848 L152.028 -180.312 L148.492 -183.848 L144.957 -187.383 L148.492 -190.919 L144.957 -194.454 L148.492 -197.99 L152.028 -201.525 L155.563 -197.99 L152.028 -201.525 L155.563 -205.061 L159.099 -208.597 L162.635 -205.061 L166.17 -208.597 L169.706 -205.061 L173.241 -201.525 L169.706 -197.99 L166.17 -194.454 L162.635 -197.99 L159.099 -201.525 L162.635 -205.061 L159.099 -208.597 L162.635 -212.132 L166.17 -215.668 L169.706 -212.132 L166.17 -215.668 L169.706 -219.203 L173.241 -222.739 L176.777 -219.203 L180.312 -222.739 L183.848 -219.203 L187.383 -215.668 L183.848 -212.132 L180.312 -215.668 L183.848 -219.203 L187.383 -222.739 L190.919 -219.203 L194.454 -222.739 L197.99 -219.203 L201.525 -215.668 L197.99 -212.132 L201.525 -215.668 L205.061 -212.132 L208.597 -208.597 L205.061 -205.061 L208.597 -201.525 L205.061 -197.99 L201.525 -194.454 L197.99 -197.99 L194.454 -194.454 L190.919 -197.99 L187.383 -201.525 L190.919 -205.061 L187.383 -208.597 L190.919 -212.132 L194.454 -215.668 L197.99 -212.132 L194.454 -215.668 L197.99 -219.203 L201.525 -222.739 L205.061 -219.203 L208.597 -222.739 L212.132 -219.203 L215.668 -215.668 L212.132 -212.132 L208.597 -215.668 L212.132 -219.203 L215.668 -222.739 L219.203 -219.203 L222.739 -222.739 L226.274 -219.203 L229.81 -215.668 L226.274 -212.132 L229.81 -215.668 L233.345 -212.132 L236.881 -208.597 L233.345 -205.061 L236.881 -201.525 L233.345 -197.99 L229.81 -194.454 L226.274 -197.99 L222.739 -201.525 L226.274 -205.061 L229.81 -208.597 L233.345 -205.061 L236.881 -208.597 L240.416 -205.061 L243.952 -201.525 L240.416 -197.99 L243.952 -201.525 L247.487 -197.99 L251.023 -194.454 L247.487 -190.919 L251.023 -187.383 L247.487 -183.848 L243.952 -180.312 L240.416 -183.848 L243.952 -187.383 L247.487 -183.848 L251.023 -180.312 L247.487 -176.777 L251.023 -173.241 L247.487 -169.706 L243.952 -166.17 L240.416 -169.706 L243.952 -166.17 L240.416 -162.635 L236.881 -159.099 L233.345 -162.635 L229.81 -159.099 L226.274 -162.635 L222.739 -166.17 L226.274 -169.706 L222.739 -166.17 L219.203 -169.706 L215.668 -173.241 L219.203 -176.777 L215.668 -180.312 L219.203 -183.848 L222.739 -187.383 L226.274 -183.848 L222.739 -187.383 L226.274 -190.919 L229.81 -194.454 L233.345 -190.919 L236.881 -194.454 L240.416 -190.919 L243.952 -187.383 L240.416 -183.848 L236.881 -187.383 L240.416 -190.919 L243.952 -194.454 L247.487 -190.919 L251.023 -194.454 L254.558 -190.919 L258.094 -187.383 L254.558 -183.848 L258.094 -187.383 L261.63 -183.848 L265.165 -180.312 L261.63 -176.777 L265.165 -173.241 L261.63 -169.706 L258.094 -166.17 L254.558 -169.706 L251.023 -173.241 L254.558 -176.777 L258.094 -180.312 L261.63 -176.777 L265.165 -180.312 L268.701 -176.777 L272.236 -173.241 L268.701 -169.706 L272.236 -173.241 L275.772 -169.706 L279.307 -166.17 L275.772 -162.635 L279.307 -159.099 L275.772 -155.563 L272.236 -152.028 L268.701 -155.563 L272.236 -159.099 L275.772 -155.563 L279.307 -152.028 L275.772 -148.492 L279.307 -144.957 L275.772 -141.421 L272.236 -137.886 L268.701 -141.421 L272.236 -137.886 L268.701 -134.35 L265.165 -130.815 L261.63 -134.35 L258.094 -130.815 L254.558 -134.35 L251.023 -137.886 L254.558 -141.421 L251.023 -144.957 L254.558 -148.492 L258.094 -152.028 L261.63 -148.492 L265.165 -152.028 L268.701 -148.492 L272.236 -144.957 L268.701 -141.421 L272.236 -144.957 L275.772 -141.421 L279.307 -137.886 L275.772 -134.35 L279.307 -130.815 L275.772 -127.279 L272.236 -123.744 L268.701 -127.279 L272.236 -130.815 L275.772 -127.279 L279.307 -123.744 L275.772 -120.208 L279.307 -116.673 L275.772 -113.137 L272.236 -109.602 L268.701 -113.137 L272.236 -109.602 L268.701 -106.066 L265.165 -102.53 L261.63 -106.066 L258.094 -102.53 L254.558 -106.066 L251.023 -109.602 L254.558 -113.137 L258.094 -116.673 L261.63 -113.137 L265.165 -109.602 L261.63 -106.066 L265.165 -102.53 L261.63 -98.9949 L258.094 -95.4594 L254.558 -98.9949 L258.094 -95.4594 L254.558 -91.9239 L251.023 -88.3883 L247.487 -91.9239 L243.952 -88.3883 L240.416 -91.9239 L236.881 -95.4594 L240.416 -98.9949 L243.952 -95.4594 L240.416 -91.9239 L236.881 -88.3883 L233.345 -91.9239 L229.81 -88.3883 L226.274 -91.9239 L222.739 -95.4594 L226.274 -98.9949 L222.739 -95.4594 L219.203 -98.9949 L215.668 -102.53 L219.203 -106.066 L215.668 -109.602 L219.203 -113.137 L222.739 -116.673 L226.274 -113.137 L229.81 -109.602 L226.274 -106.066 L222.739 -102.53 L219.203 -106.066 L215.668 -102.53 L212.132 -106.066 L208.597 -109.602 L212.132 -113.137 L208.597 -109.602 L205.061 -113.137 L201.525 -116.673 L205.061 -120.208 L201.525 -123.744 L205.061 -127.279 L208.597 -130.815 L212.132 -127.279 L208.597 -123.744 L205.061 -127.279 L201.525 -130.815 L205.061 -134.35 L201.525 -137.886 L205.061 -141.421 L208.597 -144.957 L212.132 -141.421 L208.597 -144.957 L212.132 -148.492 L215.668 -152.028 L219.203 -148.492 L222.739 -152.028 L226.274 -148.492 L229.81 -144.957 L226.274 -141.421 L222.739 -137.886 L219.203 -141.421 L215.668 -144.957 L219.203 -148.492 L215.668 -152.028 L219.203 -155.563 L222.739 -159.099 L226.274 -155.563 L222.739 -159.099 L226.274 -162.635 L229.81 -166.17 L233.345 -162.635 L236.881 -166.17 L240.416 -162.635 L243.952 -159.099 L240.416 -155.563 L236.881 -159.099 L240.416 -162.635 L243.952 -166.17 L247.487 -162.635 L251.023 -166.17 L254.558 -162.635 L258.094 -159.099 L254.558 -155.563 L258.094 -159.099 L261.63 -155.563 L265.165 -152.028 L261.63 -148.492 L265.165 -144.957 L261.63 -141.421 L258.094 -137.886 L254.558 -141.421 L251.023 -137.886 L247.487 -141.421 L243.952 -144.957 L247.487 -148.492 L243.952 -152.028 L247.487 -155.563 L251.023 -159.099 L254.558 -155.563 L251.023 -159.099 L254.558 -162.635 L258.094 -166.17 L261.63 -162.635 L265.165 -166.17 L268.701 -162.635 L272.236 -159.099 L268.701 -155.563 L265.165 -159.099 L268.701 -162.635 L272.236 -166.17 L275.772 -162.635 L279.307 -166.17 L282.843 -162.635 L286.378 -159.099 L282.843 -155.563 L286.378 -159.099 L289.914 -155.563 L293.449 -152.028 L289.914 -148.492 L293.449 -144.957 L289.914 -141.421 L286.378 -137.886 L282.843 -141.421 L279.307 -144.957 L282.843 -148.492 L286.378 -152.028 L289.914 -148.492 L293.449 -152.028 L296.985 -148.492 L300.52 -144.957 L296.985 -141.421 L300.52 -144.957 L304.056 -141.421 L307.591 -137.886 L304.056 -134.35 L307.591 -130.815 L304.056 -127.279 L300.52 -123.744 L296.985 -127.279 L300.52 -130.815 L304.056 -127.279 L307.591 -123.744 L304.056 -120.208 L307.591 -116.673 L304.056 -113.137 L300.52 -109.602 L296.985 -113.137 L300.52 -109.602 L296.985 -106.066 L293.449 -102.53 L289.914 -106.066 L286.378 -102.53 L282.843 -106.066 L279.307 -109.602 L282.843 -113.137 L279.307 -109.602 L275.772 -113.137 L272.236 -116.673 L275.772 -120.208 L272.236 -123.744 L275.772 -127.279 L279.307 -130.815 L282.843 -127.279 L279.307 -130.815 L282.843 -134.35 L286.378 -137.886 L289.914 -134.35 L293.449 -137.886 L296.985 -134.35 L300.52 -130.815 L296.985 -127.279 L293.449 -130.815 L296.985 -134.35 L300.52 -137.886 L304.056 -134.35 L307.591 -137.886 L311.127 -134.35 L314.663 -130.815 L311.127 -127.279 L314.663 -130.815 L318.198 -127.279 L321.734 -123.744 L318.198 -120.208 L321.734 -116.673 L318.198 -113.137 L314.663 -109.602 L311.127 -113.137 L307.591 -116.673 L311.127 -120.208 L314.663 -123.744 L318.198 -120.208 L321.734 -123.744 L325.269 -120.208 L328.805 -116.673 L325.269 -113.137 L328.805 -116.673 L332.34 -113.137 L335.876 -109.602 L332.34 -106.066 L335.876 -102.53 L332.34 -98.9949 L328.805 -95.4594 L325.269 -98.9949 L328.805 -102.53 L332.34 -98.9949 L335.876 -95.4594 L332.34 -91.9239 L335.876 -88.3883 L332.34 -84.8528 L328.805 -81.3173 L325.269 -84.8528 L328.805 -81.3173 L325.269 -77.7817 L321.734 -74.2462 L318.198 -77.7817 L314.663 -74.2462 L311.127 -77.7817 L307.591 -81.3173 L311.127 -84.8528 L307.591 -88.3883 L311.127 -91.9239 L314.663 -95.4594 L318.198 -91.9239 L321.734 -95.4594 L325.269 -91.9239 L328.805 -88.3883 L325.269 -84.8528 L328.805 -88.3883 L332.34 -84.8528 L335.876 -81.3173 L332.34 -77.7817 L335.876 -74.2462 L332.34 -70.7107 L328.805 -67.1751 L325.269 -70.7107 L328.805 -74.2462 L332.34 -70.7107 L335.876 -67.1751 L332.34 -63.6396 L335.876 -60.1041 L332.34 -56.5685 L328.805 -53.033 L325.269 -56.5685 L328.805 -53.033 L325.269 -49.4975 L321.734 -45.9619 L318.198 -49.4975 L314.663 -45.9619 L311.127 -49.4975 L307.591 -53.033 L311.127 -56.5685 L314.663 -60.1041 L318.198 -56.5685 L321.734 -53.033 L318.198 -49.4975 L321.734 -45.9619 L318.198 -42.4264 L314.663 -38.8909 L311.127 -42.4264 L314.663 -38.8909 L311.127 -35.3553 L307.591 -31.8198 L304.056 -35.3553 L300.52 -31.8198 L296.985 -35.3553 L293.449 -38.8909 L296.985 -42.4264 L300.52 -38.8909 L296.985 -35.3553 L293.449 -31.8198 L289.914 -35.3553 L286.378 -31.8198 L282.843 -35.3553 L279.307 -38.8909 L282.843 -42.4264 L279.307 -38.8909 L275.772 -42.4264 L272.236 -45.9619 L275.772 -49.4975 L272.236 -53.033 L275.772 -56.5685 L279.307 -60.1041 L282.843 -56.5685 L279.307 -53.033 L275.772 -56.5685 L272.236 -60.1041 L275.772 -63.6396 L272.236 -67.1751 L275.772 -70.7107 L279.307 -74.2462 L282.843 -70.7107 L279.307 -74.2462 L282.843 -77.7817 L286.378 -81.3173 L289.914 -77.7817 L293.449 -81.3173 L296.985 -77.7817 L300.52 -74.2462 L296.985 -70.7107 L293.449 -74.2462 L296.985 -77.7817 L300.52 -81.3173 L304.056 -77.7817 L307.591 -81.3173 L311.127 -77.7817 L314.663 -74.2462 L311.127 -70.7107 L314.663 -74.2462 L318.198 -70.7107 L321.734 -67.1751 L318.198 -63.6396 L321.734 -60.1041 L318.198 -56.5685 L314.663 -53.033 L311.127 -56.5685 L307.591 -60.1041 L311.127 -63.6396 L314.663 -67.1751 L318.198 -63.6396 L321.734 -67.1751 L325.269 -63.6396 L328.805 -60.1041 L325.269 -56.5685 L328.805 -60.1041 L332.34 -56.5685 L335.876 -53.033 L332.34 -49.4975 L335.876 -45.9619 L332.34 -42.4264 L328.805 -38.8909 L325.269 -42.4264 L328.805 -45.9619 L332.34 -42.4264 L335.876 -38.8909 L332.34 -35.3553 L335.876 -31.8198 L332.34 -28.2843 L328.805 -24.7487 L325.269 -28.2843 L328.805 -24.7487 L325.269 -21.2132 L321.734 -17.6777 L318.198 -21.2132 L314.663 -17.6777 L311.127 -21.2132 L307.591 -24.7487 L311.127 -28.2843 L307.591 -31.8198 L311.127 -35.3553 L314.663 -38.8909 L318.198 -35.3553 L321.734 -38.8909 L325.269 -35.3553 L328.805 -31.8198 L325.269 -28.2843 L328.805 -31.8198 L332.34 -28.2843 L335.876 -24.7487 L332.34 -21.2132 L335.876 -17.6777 L332.34 -14.1421 L328.805 -10.6066 L325.269 -14.1421 L328.805 -17.6777 L332.34 -14.1421 L335.876 -10.6066 L332.34 -7.07107 L335.876 -3.53553 L332.34 3.19744e-14 L328.805 3.53553 L325.269 3.37508e-14 L328.805 3.53553 L325.269 7.07107 L321.734 10.6066 L318.198 7.07107 L314.663 10.6066 L311.127 7.07107 L307.591 3.53553 L311.127 3.73035e-14 L314.663 -3.53553 L318.198 3.73035e-14 L321.734 3.53553 L318.198 7.07107 L321.734 10.6066 L318.198 14.1421 L314.663 17.6777 L311.127 14.1421 L314.663 17.6777 L311.127 21.2132 L307.591 24.7487 L304.056 21.2132 L300.52 24.7487 L296.985 21.2132 L293.449 17.6777 L296.985 14.1421 L300.52 17.6777 L296.985 21.2132 L293.449 24.7487 L289.914 21.2132 L286.378 24.7487 L282.843 21.2132 L279.307 17.6777 L282.843 14.1421 L279.307 17.6777 L275.772 14.1421 L272.236 10.6066 L275.772 7.07107 L272.236 3.53553 L275.772 3.73035e-14 L279.307 -3.53553 L282.843 3.37508e-14 L279.307 -3.53553 L282.843 -7.07107 L286.378 -10.6066 L289.914 -7.07107 L293.449 -10.6066 L296.985 -7.07107 L300.52 -3.53553 L296.985 3.37508e-14 L300.52 -3.53553 L304.056 3.37508e-14 L307.591 3.53553 L304.056 7.07107 L307.591 10.6066 L304.056 14.1421 L300.52 17.6777 L296.985 14.1421 L300.52 10.6066 L304.056 14.1421 L307.591 17.6777 L304.056 21.2132 L307.591 24.7487 L304.056 28.2843 L300.52 31.8198 L296.985 28.2843 L300.52 31.8198 L296.985 35.3553 L293.449 38.8909 L289.914 35.3553 L286.378 38.8909 L282.843 35.3553 L279.307 31.8198 L282.843 28.2843 L286.378 24.7487 L289.914 28.2843 L293.449 31.8198 L289.914 35.3553 L293.449 38.8909 L289.914 42.4264 L286.378 45.9619 L282.843 42.4264 L286.378 45.9619 L282.843 49.4975 L279.307 53.033 L275.772 49.4975 L272.236 53.033 L268.701 49.4975 L265.165 45.9619 L268.701 42.4264 L272.236 45.9619 L268.701 49.4975 L265.165 53.033 L261.63 49.4975 L258.094 53.033 L254.558 49.4975 L251.023 45.9619 L254.558 42.4264 L251.023 45.9619 L247.487 42.4264 L243.952 38.8909 L247.487 35.3553 L243.952 31.8198 L247.487 28.2843 L251.023 24.7487 L254.558 28.2843 L258.094 24.7487 L261.63 28.2843 L265.165 31.8198 L261.63 35.3553 L265.165 38.8909 L261.63 42.4264 L258.094 45.9619 L254.558 42.4264 L258.094 45.9619 L254.558 49.4975 L251.023 53.033 L247.487 49.4975 L243.952 53.033 L240.416 49.4975 L236.881 45.9619 L240.416 42.4264 L243.952 45.9619 L240.416 49.4975 L236.881 53.033 L233.345 49.4975 L229.81 53.033 L226.274 49.4975 L222.739 45.9619 L226.274 42.4264 L222.739 45.9619 L219.203 42.4264 L215.668 38.8909 L219.203 35.3553 L215.668 31.8198 L219.203 28.2843 L222.739 24.7487 L226.274 28.2843 L229.81 31.8198 L226.274 35.3553 L222.739 38.8909 L219.203 35.3553 L215.668 38.8909 L212.132 35.3553 L208.597 31.8198 L212.132 28.2843 L208.597 31.8198 L205.061 28.2843 L201.525 24.7487 L205.061 21.2132 L201.525 17.6777 L205.061 14.1421 L208.597 10.6066 L212.132 14.1421 L208.597 17.6777 L205.061 14.1421 L201.525 10.6066 L205.061 7.07107 L201.525 3.53553 L205.061 3.37508e-14 L208.597 -3.53553 L212.132 3.01981e-14 L208.597 -3.53553 L212.132 -7.07107 L215.668 -10.6066 L219.203 -7.07107 L222.739 -10.6066 L226.274 -7.07107 L229.81 -3.53553 L226.274 2.30926e-14"/>
</svg>
