<?xml version="1.0" encoding="UTF-8"?>
<svg xmlns="http://www.w3.org/2000/svg"
 version="1.1" baseProfile="basic"
 viewBox="-165 -325 650 411"
 width="1280px" height="1024px"
 stroke="white" stroke-width="1px"
 fill="black" fill-opacity="0">
<rect x="-165" y="-325" width="650" height="411" stroke-width="0px" fill-opacity="1"/>
<path d="M0 0 L0 0 L-5 -3.9968e-15 L-5 -5 L-5 -10 L7.10543e-15 -10 L1.02141e-14 -15 L5 -15 L10 -15 L10 -10 L10 -15 L15 -15 L20 -15 L20 -10 L25 -10 L25 -5 L25 1.77636e-14 L20 1.64313e-14 L20 -5 L25 -5 L30 -5 L30 2.13163e-14 L35 2.39808e-14 L35 5 L35 10 L30 10 L35 10 L35 15 L35 20 L30 20 L30 25 L25 25 L20 25 L20 20 L20 15 L25 15 L30 15 L30 20 L35 20 L35 25 L35 30 L30 30 L35 30 L35 35 L35 40 L30 40 L30 45 L25 45 L20 45 L20 40 L25 40 L25 45 L25 50 L20 50 L20 55 L15 55 L10 55 L10 50 L10 55 L5 55 L1.24345e-14 55 L1.28786e-14 50 L-5 50 L-5 45 L-5 40 L1.33227e-14 40 L1.64313e-14 35 L5 35 L10 35 L10 40 L15 40 L15 45 L15 50 L10 50 L15 50 L15 55 L15 60 L10 60 L10 65 L5 65 L5.32907e-15 65 L5.77316e-15 60 L5 60 L5 65 L5 70 L1.77636e-15 70 L0 75 L-5 75 L-10 75 L-10 70 L-10 75 L-15 75 L-20 75 L-20 70 L-25 70 L-25 65 L-25 60 L-20 60 L-15 60 L-15 65 L-15 70 L-20 70 L-20 75 L-25 75 L-30 75 L-30 70 L-30 75 L-35 75 L-40 75 L-40 70 L-45 70 L-45 65 L-45 60 L-40 60 L-40 65 L-45 65 L-50 65 L-50 60 L-55 60 L-55 55 L-55 50 L-50 50 L-55 50 L-55 45 L-55 40 L-50 40 L-50 35 L-45 35 L-40 35 L-40 40 L-40 35 L-35 35 L-30 35 L-30 40 L-25 40 L-25 45 L-25 50 L-30 50 L-25 50 L-25 55 L-25 60 L-30 60 L-30 65 L-35 65 L-40 65 L-40 60 L-35 60 L-35 65 L-35 70 L-40 70 L-40 75 L-45 75 L-50 75 L-50 70 L-50 75 L-55 75 L-60 75 L-60 70 L-65 70 L-65 65 L-65 60 L-60 60 L-55 60 L-55 65 L-55 70 L-60 70 L-60 75 L-65 75 L-70 75 L-70 70 L-70 75 L-75 75 L-80 75 L-80 70 L-85 70 L-85 65 L-85 60 L-80 60 L-80 65 L-85 65 L-90 65 L-90 60 L-95 60 L-95 55 L-95 50 L-90 50 L-95 50 L-95 45 L-95 40 L-90 40 L-90 35 L-85 35 L-80 35 L-80 40 L-75 40 L-75 45 L-75 50 L-80 50 L-80 55 L-85 55 L-90 55 L-90 50 L-90 55 L-95 55 L-100 55 L-100 50 L-105 50 L-105 45 L-105 40 L-100 40 L-100 45 L-105 45 L-110 45 L-110 40 L-115 40 L-115 35 L-115 30 L-110 30 L-115 30 L-115 25 L-115 20 L-110 20 L-110 15 L-105 15 L-100 15 L-100 20 L-100 25 L-105 25 L-110 25 L-110 20 L-115 20 L-115 15 L-115 10 L-110 10 L-115 10 L-115 5 L-115 4.08562e-14 L-110 4.08562e-14 L-110 -5 L-105 -5 L-100 -5 L-100 4.08562e-14 L-105 3.95239e-14 L-105 -5 L-105 -10 L-100 -10 L-100 -15 L-95 -15 L-90 -15 L-90 -10 L-90 -15 L-85 -15 L-80 -15 L-80 -10 L-75 -10 L-75 -5 L-75 3.90799e-14 L-80 4.04121e-14 L-80 -5 L-75 -5 L-70 -5 L-70 4.61853e-14 L-65 4.88498e-14 L-65 5 L-65 10 L-70 10 L-65 10 L-65 15 L-65 20 L-70 20 L-70 25 L-75 25 L-80 25 L-80 20 L-75 20 L-75 25 L-75 30 L-80 30 L-80 35 L-85 35 L-90 35 L-90 30 L-90 35 L-95 35 L-100 35 L-100 30 L-105 30 L-105 25 L-105 20 L-100 20 L-95 20 L-95 25 L-95 30 L-100 30 L-100 35 L-105 35 L-110 35 L-110 30 L-110 35 L-115 35 L-120 35 L-120 30 L-125 30 L-125 25 L-125 20 L-120 20 L-120 25 L-125 25 L-130 25 L-130 20 L-135 20 L-135 15 L-135 10 L-130 10 L-135 10 L-135 5 L-135 5.50671e-14 L-130 5.50671e-14 L-130 -5 L-125 -5 L-120 -5 L-120 5.50671e-14 L-115 5.77316e-14 L-115 5 L-115 10 L-120 10 L-120 15 L-125 15 L-130 15 L-130 10 L-130 15 L-135 15 L-140 15 L-140 10 L-145 10 L-145 5 L-145 4.61853e-14 L-140 4.61853e-14 L-140 5 L-145 5 L-150 5 L-150 4.26326e-14 L-155 4.13003e-14 L-155 -5 L-155 -10 L-150 -10 L-155 -10 L-155 -15 L-155 -20 L-150 -20 L-150 -25 L-145 -25 L-140 -25 L-140 -20 L-140 -15 L-145 -15 L-150 -15 L-150 -20 L-155 -20 L-155 -25 L-155 -30 L-150 -30 L-155 -30 L-155 -35 L-155 -40 L-150 -40 L-150 -45 L-145 -45 L-140 -45 L-140 -40 L-145 -40 L-145 -45 L-145 -50 L-140 -50 L-140 -55 L-135 -55 L-130 -55 L-130 -50 L-130 -55 L-125 -55 L-120 -55 L-120 -50 L-115 -50 L-115 -45 L-115 -40 L-120 -40 L-115 -40 L-115 -35 L-115 -30 L-120 -30 L-120 -25 L-125 -25 L-130 -25 L-130 -30 L-130 -25 L-135 -25 L-140 -25 L-140 -30 L-145 -30 L-145 -35 L-145 -40 L-140 -40 L-140 -35 L-145 -35 L-150 -35 L-150 -40 L-155 -40 L-155 -45 L-155 -50 L-150 -50 L-155 -50 L-155 -55 L-155 -60 L-150 -60 L-150 -65 L-145 -65 L-140 -65 L-140 -60 L-140 -55 L-145 -55 L-150 -55 L-150 -60 L-155 -60 L-155 -65 L-155 -70 L-150 -70 L-155 -70 L-155 -75 L-155 -80 L-150 -80 L-150 -85 L-145 -85 L-140 -85 L-140 -80 L-145 -80 L-145 -85 L-145 -90 L-140 -90 L-140 -95 L-135 -95 L-130 -95 L-130 -90 L-130 -95 L-125 -95 L-120 -95 L-120 -90 L-115 -90 L-115 -85 L-115 -80 L-120 -80 L-120 -75 L-125 -75 L-130 -75 L-130 -80 L-135 -80 L-135 -85 L-135 -90 L-130 -90 L-135 -90 L-135 -95 L-135 -100 L-130 -100 L-130 -105 L-125 -105 L-120 -105 L-120 -100 L-125 -100 L-125 -105 L-125 -110 L-120 -110 L-120 -115 L-115 -115 L-110 -115 L-110 -110 L-110 -115 L-105 -115 L-100 -115 L-100 -110 L-95 -110 L-95 -105 L-95 -100 L-100 -100 L-105 -100 L-105 -105 L-105 -110 L-100 -110 L-100 -115 L-95 -115 L-90 -115 L-90 -110 L-90 -115 L-85 -115 L-80 -115 L-80 -110 L-75 -110 L-75 -105 L-75 -100 L-80 -100 L-80 -105 L-75 -105 L-70 -105 L-70 -100 L-65 -100 L-65 -95 L-65 -90 L-70 -90 L-65 -90 L-65 -85 L-65 -80 L-70 -80 L-70 -75 L-75 -75 L-80 -75 L-80 -80 L-80 -85 L-75 -85 L-70 -85 L-70 -80 L-65 -80 L-65 -75 L-65 -70 L-70 -70 L-65 -70 L-65 -65 L-65 -60 L-70 -60 L-70 -55 L-75 -55 L-80 -55 L-80 -60 L-75 -60 L-75 -55 L-75 -50 L-80 -50 L-80 -45 L-85 -45 L-90 -45 L-90 -50 L-90 -45 L-95 -45 L-100 -45 L-100 -50 L-105 -50 L-105 -55 L-105 -60 L-100 -60 L-95 -60 L-95 -55 L-95 -50 L-100 -50 L-100 -45 L-105 -45 L-110 -45 L-110 -50 L-110 -45 L-115 -45 L-120 -45 L-120 -50 L-125 -50 L-125 -55 L-125 -60 L-120 -60 L-120 -55 L-125 -55 L-130 -55 L-130 -60 L-135 -60 L-135 -65 L-135 -70 L-130 -70 L-135 -70 L-135 -75 L-135 -80 L-130 -80 L-130 -85 L-125 -85 L-120 -85 L-120 -80 L-115 -80 L-115 -75 L-115 -70 L-120 -70 L-120 -65 L-125 -65 L-130 -65 L-130 -70 L-130 -65 L-135 -65 L-140 -65 L-140 -70 L-145 -70 L-145 -75 L-145 -80 L-140 -80 L-140 -75 L-145 -75 L-150 -75 L-150 -80 L-155 -80 L-155 -85 L-155 -90 L-150 -90 L-155 -90 L-155 -95 L-155 -100 L-150 -100 L-150 -105 L-145 -105 L-140 -105 L-140 -100 L-140 -95 L-145 -95 L-150 -95 L-150 -100 L-155 -100 L-155 -105 L-155 -110 L-150 -110 L-155 -110 L-155 -115 L-155 -120 L-150 -120 L-150 -125 L-145 -125 L-140 -125 L-140 -120 L-145 -120 L-145 -125 L-145 -130 L-140 -130 L-140 -135 L-135 -135 L-130 -135 L-130 -130 L-130 -135 L-125 -135 L-120 -135 L-120 -130 L-115 -130 L-115 -125 L-115 -120 L-120 -120 L-115 -120 L-115 -115 L-115 -110 L-120 -110 L-120 -105 L-125 -105 L-130 -105 L-130 -110 L-130 -105 L-135 -105 L-140 -105 L-140 -110 L-145 -110 L-145 -115 L-145 -120 L-140 -120 L-140 -115 L-145 -115 L-150 -115 L-150 -120 L-155 -120 L-155 -125 L-155 -130 L-150 -130 L-155 -130 L-155 -135 L-155 -140 L-150 -140 L-150 -145 L-145 -145 L-140 -145 L-140 -140 L-140 -135 L-145 -135 L-150 -135 L-150 -140 L-155 -140 L-155 -145 L-155 -150 L-150 -150 L-155 -150 L-155 -155 L-155 -160 L-150 -160 L-150 -165 L-145 -165 L-140 -165 L-140 -160 L-145 -160 L-145 -165 L-145 -170 L-140 -170 L-140 -175 L-135 -175 L-130 -175 L-130 -170 L-130 -175 L-125 -175 L-120 -175 L-120 -170 L-115 -170 L-115 -165 L-115 -160 L-120 -160 L-120 -155 L-125 -155 L-130 -155 L-130 -160 L-135 -160 L-135 -165 L-135 -170 L-130 -170 L-135 -170 L-135 -175 L-135 -180 L-130 -180 L-130 -185 L-125 -185 L-120 -185 L-120 -180 L-125 -180 L-125 -185 L-125 -190 L-120 -190 L-120 -195 L-115 -195 L-110 -195 L-110 -190 L-110 -195 L-105 -195 L-100 -195 L-100 -190 L-95 -190 L-95 -185 L-95 -180 L-100 -180 L-105 -180 L-105 -185 L-105 -190 L-100 -190 L-100 -195 L-95 -195 L-90 -195 L-90 -190 L-90 -195 L-85 -195 L-80 -195 L-80 -190 L-75 -190 L-75 -185 L-75 -180 L-80 -180 L-80 -185 L-75 -185 L-70 -185 L-70 -180 L-65 -180 L-65 -175 L-65 -170 L-70 -170 L-65 -170 L-65 -165 L-65 -160 L-70 -160 L-70 -155 L-75 -155 L-80 -155 L-80 -160 L-75 -160 L-75 -155 L-75 -150 L-80 -150 L-80 -145 L-85 -145 L-90 -145 L-90 -150 L-90 -145 L-95 -145 L-100 -145 L-100 -150 L-105 -150 L-105 -155 L-105 -160 L-100 -160 L-100 -155 L-105 -155 L-110 -155 L-110 -160 L-115 -160 L-115 -165 L-115 -170 L-110 -170 L-115 -170 L-115 -175 L-115 -180 L-110 -180 L-110 -185 L-105 -185 L-100 -185 L-100 -180 L-100 -175 L-105 -175 L-110 -175 L-110 -180 L-115 -180 L-115 -185 L-115 -190 L-110 -190 L-115 -190 L-115 -195 L-115 -200 L-110 -200 L-110 -205 L-105 -205 L-100 -205 L-100 -200 L-105 -200 L-105 -205 L-105 -210 L-100 -210 L-100 -215 L-95 -215 L-90 -215 L-90 -210 L-90 -215 L-85 -215 L-80 -215 L-80 -210 L-75 -210 L-75 -205 L-75 -200 L-80 -200 L-80 -195 L-85 -195 L-90 -195 L-90 -200 L-95 -200 L-95 -205 L-95 -210 L-90 -210 L-95 -210 L-95 -215 L-95 -220 L-90 -220 L-90 -225 L-85 -225 L-80 -225 L-80 -220 L-85 -220 L-85 -225 L-85 -230 L-80 -230 L-80 -235 L-75 -235 L-70 -235 L-70 -230 L-70 -235 L-65 -235 L-60 -235 L-60 -230 L-55 -230 L-55 -225 L-55 -220 L-60 -220 L-65 -220 L-65 -225 L-65 -230 L-60 -230 L-60 -235 L-55 -235 L-50 -235 L-50 -230 L-50 -235 L-45 -235 L-40 -235 L-40 -230 L-35 -230 L-35 -225 L-35 -220 L-40 -220 L-40 -225 L-35 -225 L-30 -225 L-30 -220 L-25 -220 L-25 -215 L-25 -210 L-30 -210 L-25 -210 L-25 -205 L-25 -200 L-30 -200 L-30 -195 L-35 -195 L-40 -195 L-40 -200 L-40 -195 L-45 -195 L-50 -195 L-50 -200 L-55 -200 L-55 -205 L-55 -210 L-50 -210 L-55 -210 L-55 -215 L-55 -220 L-50 -220 L-50 -225 L-45 -225 L-40 -225 L-40 -220 L-45 -220 L-45 -225 L-45 -230 L-40 -230 L-40 -235 L-35 -235 L-30 -235 L-30 -230 L-30 -235 L-25 -235 L-20 -235 L-20 -230 L-15 -230 L-15 -225 L-15 -220 L-20 -220 L-25 -220 L-25 -225 L-25 -230 L-20 -230 L-20 -235 L-15 -235 L-10 -235 L-10 -230 L-10 -235 L-5 -235 L0 -235 L8.88178e-16 -230 L5 -230 L5 -225 L5 -220 L1.77636e-15 -220 L2.66454e-15 -225 L5 -225 L10 -225 L10 -220 L15 -220 L15 -215 L15 -210 L10 -210 L15 -210 L15 -205 L15 -200 L10 -200 L10 -195 L5 -195 L3.55271e-15 -195 L1.77636e-15 -200 L-5 -200 L-5 -205 L-5 -210 L2.66454e-15 -210 L3.55271e-15 -215 L5 -215 L10 -215 L10 -210 L10 -215 L15 -215 L20 -215 L20 -210 L25 -210 L25 -205 L25 -200 L20 -200 L20 -205 L25 -205 L30 -205 L30 -200 L35 -200 L35 -195 L35 -190 L30 -190 L35 -190 L35 -185 L35 -180 L30 -180 L30 -175 L25 -175 L20 -175 L20 -180 L20 -185 L25 -185 L30 -185 L30 -180 L35 -180 L35 -175 L35 -170 L30 -170 L35 -170 L35 -165 L35 -160 L30 -160 L30 -155 L25 -155 L20 -155 L20 -160 L25 -160 L25 -155 L25 -150 L20 -150 L20 -145 L15 -145 L10 -145 L10 -150 L10 -145 L5 -145 L-1.77636e-15 -145 L-3.55271e-15 -150 L-5 -150 L-5 -155 L-5 -160 L-7.10543e-15 -160 L-3.9968e-15 -165 L5 -165 L10 -165 L10 -160 L15 -160 L15 -155 L15 -150 L10 -150 L15 -150 L15 -145 L15 -140 L10 -140 L10 -135 L5 -135 L-1.42109e-14 -135 L-1.37668e-14 -140 L5 -140 L5 -135 L5 -130 L-1.77636e-14 -130 L-1.95399e-14 -125 L-5 -125 L-10 -125 L-10 -130 L-10 -125 L-15 -125 L-20 -125 L-20 -130 L-25 -130 L-25 -135 L-25 -140 L-20 -140 L-15 -140 L-15 -135 L-15 -130 L-20 -130 L-20 -125 L-25 -125 L-30 -125 L-30 -130 L-30 -125 L-35 -125 L-40 -125 L-40 -130 L-45 -130 L-45 -135 L-45 -140 L-40 -140 L-40 -135 L-45 -135 L-50 -135 L-50 -140 L-55 -140 L-55 -145 L-55 -150 L-50 -150 L-55 -150 L-55 -155 L-55 -160 L-50 -160 L-50 -165 L-45 -165 L-40 -165 L-40 -160 L-35 -160 L-35 -155 L-35 -150 L-40 -150 L-40 -145 L-45 -145 L-50 -145 L-50 -150 L-50 -145 L-55 -145 L-60 -145 L-60 -150 L-65 -150 L-65 -155 L-65 -160 L-60 -160 L-60 -155 L-65 -155 L-70 -155 L-70 -160 L-75 -160 L-75 -165 L-75 -170 L-70 -170 L-75 -170 L-75 -175 L-75 -180 L-70 -180 L-70 -185 L-65 -185 L-60 -185 L-60 -180 L-60 -175 L-65 -175 L-70 -175 L-70 -180 L-75 -180 L-75 -185 L-75 -190 L-70 -190 L-75 -190 L-75 -195 L-75 -200 L-70 -200 L-70 -205 L-65 -205 L-60 -205 L-60 -200 L-65 -200 L-65 -205 L-65 -210 L-60 -210 L-60 -215 L-55 -215 L-50 -215 L-50 -210 L-50 -215 L-45 -215 L-40 -215 L-40 -210 L-35 -210 L-35 -205 L-35 -200 L-40 -200 L-35 -200 L-35 -195 L-35 -190 L-40 -190 L-40 -185 L-45 -185 L-50 -185 L-50 -190 L-50 -185 L-55 -185 L-60 -185 L-60 -190 L-65 -190 L-65 -195 L-65 -200 L-60 -200 L-60 -195 L-65 -195 L-70 -195 L-70 -200 L-75 -200 L-75 -205 L-75 -210 L-70 -210 L-75 -210 L-75 -215 L-75 -220 L-70 -220 L-70 -225 L-65 -225 L-60 -225 L-60 -220 L-60 -215 L-65 -215 L-70 -215 L-70 -220 L-75 -220 L-75 -225 L-75 -230 L-70 -230 L-75 -230 L-75 -235 L-75 -240 L-70 -240 L-70 -245 L-65 -245 L-60 -245 L-60 -240 L-65 -240 L-65 -245 L-65 -250 L-60 -250 L-60 -255 L-55 -255 L-50 -255 L-50 -250 L-50 -255 L-45 -255 L-40 -255 L-40 -250 L-35 -250 L-35 -245 L-35 -240 L-40 -240 L-40 -235 L-45 -235 L-50 -235 L-50 -240 L-55 -240 L-55 -245 L-55 -250 L-50 -250 L-55 -250 L-55 -255 L-55 -260 L-50 -260 L-50 -265 L-45 -265 L-40 -265 L-40 -260 L-45 -260 L-45 -265 L-45 -270 L-40 -270 L-40 -275 L-35 -275 L-30 -275 L-30 -270 L-30 -275 L-25 -275 L-20 -275 L-20 -270 L-15 -270 L-15 -265 L-15 -260 L-20 -260 L-25 -260 L-25 -265 L-25 -270 L-20 -270 L-20 -275 L-15 -275 L-10 -275 L-10 -270 L-10 -275 L-5 -275 L-2.84217e-14 -275 L-2.75335e-14 -270 L5 -270 L5 -265 L5 -260 L-2.66454e-14 -260 L-2.57572e-14 -265 L5 -265 L10 -265 L10 -260 L15 -260 L15 -255 L15 -250 L10 -250 L15 -250 L15 -245 L15 -240 L10 -240 L10 -235 L5 -235 L-2.4869e-14 -235 L-2.66454e-14 -240 L5 -240 L5 -235 L5 -230 L-3.01981e-14 -230 L-3.19744e-14 -225 L-5 -225 L-10 -225 L-10 -230 L-10 -225 L-15 -225 L-20 -225 L-20 -230 L-25 -230 L-25 -235 L-25 -240 L-20 -240 L-20 -235 L-25 -235 L-30 -235 L-30 -240 L-35 -240 L-35 -245 L-35 -250 L-30 -250 L-35 -250 L-35 -255 L-35 -260 L-30 -260 L-30 -265 L-25 -265 L-20 -265 L-20 -260 L-20 -255 L-25 -255 L-30 -255 L-30 -260 L-35 -260 L-35 -265 L-35 -270 L-30 -270 L-35 -270 L-35 -275 L-35 -280 L-30 -280 L-30 -285 L-25 -285 L-20 -285 L-20 -280 L-25 -280 L-25 -285 L-25 -290 L-20 -290 L-20 -295 L-15 -295 L-10 -295 L-10 -290 L-10 -295 L-5 -295 L-3.55271e-14 -295 L-3.4639e-14 -290 L5 -290 L5 -285 L5 -280 L-3.37508e-14 -280 L-3.55271e-14 -275 L-5 -275 L-10 -275 L-10 -280 L-15 -280 L-15 -285 L-15 -290 L-10 -290 L-15 -290 L-15 -295 L-15 -300 L-10 -300 L-10 -305 L-5 -305 L-3.55271e-14 -305 L-3.4639e-14 -300 L-5 -300 L-5 -305 L-5 -310 L-3.28626e-14 -310 L-3.19744e-14 -315 L5 -315 L10 -315 L10 -310 L10 -315 L15 -315 L20 -315 L20 -310 L25 -310 L25 -305 L25 -300 L20 -300 L15 -300 L15 -305 L15 -310 L20 -310 L20 -315 L25 -315 L30 -315 L30 -310 L30 -315 L35 -315 L40 -315 L40 -310 L45 -310 L45 -305 L45 -300 L40 -300 L40 -305 L45 -305 L50 -305 L50 -300 L55 -300 L55 -295 L55 -290 L50 -290 L55 -290 L55 -285 L55 -280 L50 -280 L50 -275 L45 -275 L40 -275 L40 -280 L40 -275 L35 -275 L30 -275 L30 -280 L25 -280 L25 -285 L25 -290 L30 -290 L25 -290 L25 -295 L25 -300 L30 -300 L30 -305 L35 -305 L40 -305 L40 -300 L35 -300 L35 -305 L35 -310 L40 -310 L40 -315 L45 -315 L50 -315 L50 -310 L50 -315 L55 -315 L60 -315 L60 -310 L65 -310 L65 -305 L65 -300 L60 -300 L55 -300 L55 -305 L55 -310 L60 -310 L60 -315 L65 -315 L70 -315 L70 -310 L70 -315 L75 -315 L80 -315 L80 -310 L85 -310 L85 -305 L85 -300 L80 -300 L80 -305 L85 -305 L90 -305 L90 -300 L95 -300 L95 -295 L95 -290 L90 -290 L95 -290 L95 -285 L95 -280 L90 -280 L90 -275 L85 -275 L80 -275 L80 -280 L75 -280 L75 -285 L75 -290 L80 -290 L80 -295 L85 -295 L90 -295 L90 -290 L90 -295 L95 -295 L100 -295 L100 -290 L105 -290 L105 -285 L105 -280 L100 -280 L100 -285 L105 -285 L110 -285 L110 -280 L115 -280 L115 -275 L115 -270 L110 -270 L115 -270 L115 -265 L115 -260 L110 -260 L110 -255 L105 -255 L100 -255 L100 -260 L100 -265 L105 -265 L110 -265 L110 -260 L115 -260 L115 -255 L115 -250 L110 -250 L115 -250 L115 -245 L115 -240 L110 -240 L110 -235 L105 -235 L100 -235 L100 -240 L105 -240 L105 -235 L105 -230 L100 -230 L100 -225 L95 -225 L90 -225 L90 -230 L90 -225 L85 -225 L80 -225 L80 -230 L75 -230 L75 -235 L75 -240 L80 -240 L85 -240 L85 -235 L85 -230 L80 -230 L80 -225 L75 -225 L70 -225 L70 -230 L70 -225 L65 -225 L60 -225 L60 -230 L55 -230 L55 -235 L55 -240 L60 -240 L60 -235 L55 -235 L50 -235 L50 -240 L45 -240 L45 -245 L45 -250 L50 -250 L45 -250 L45 -255 L45 -260 L50 -260 L50 -265 L55 -265 L60 -265 L60 -260 L60 -255 L55 -255 L50 -255 L50 -260 L45 -260 L45 -265 L45 -270 L50 -270 L45 -270 L45 -275 L45 -280 L50 -280 L50 -285 L55 -285 L60 -285 L60 -280 L55 -280 L55 -285 L55 -290 L60 -290 L60 -295 L65 -295 L70 -295 L70 -290 L70 -295 L75 -295 L80 -295 L80 -290 L85 -290 L85 -285 L85 -280 L80 -280 L80 -275 L75 -275 L70 -275 L70 -280 L65 -280 L65 -285 L65 -290 L70 -290 L65 -290 L65 -295 L65 -300 L70 -300 L70 -305 L75 -305 L80 -305 L80 -300 L75 -300 L75 -305 L75 -310 L80 -310 L80 -315 L85 -315 L90 -315 L90 -310 L90 -315 L95 -315 L100 -315 L100 -310 L105 -310 L105 -305 L105 -300 L100 -300 L95 -300 L95 -305 L95 -310 L100 -310 L100 -315 L105 -315 L110 -315 L110 -310 L110 -315 L115 -315 L120 -315 L120 -310 L125 -310 L125 -305 L125 -300 L120 -300 L120 -305 L125 -305 L130 -305 L130 -300 L135 -300 L135 -295 L135 -290 L130 -290 L135 -290 L135 -285 L135 -280 L130 -280 L130 -275 L125 -275 L120 -275 L120 -280 L120 -275 L115 -275 L110 -275 L110 -280 L105 -280 L105 -285 L105 -290 L110 -290 L105 -290 L105 -295 L105 -300 L110 -300 L110 -305 L115 -305 L120 -305 L120 -300 L115 -300 L115 -305 L115 -310 L120 -310 L120 -315 L125 -315 L130 -315 L130 -310 L130 -315 L135 -315 L140 -315 L140 -310 L145 -310 L145 -305 L145 -300 L140 -300 L135 -300 L135 -305 L135 -310 L140 -310 L140 -315 L145 -315 L150 -315 L150 -310 L150 -315 L155 -315 L160 -315 L160 -310 L165 -310 L165 -305 L165 -300 L160 -300 L160 -305 L165 -305 L170 -305 L170 -300 L175 -300 L175 -295 L175 -290 L170 -290 L175 -290 L175 -285 L175 -280 L170 -280 L170 -275 L165 -275 L160 -275 L160 -280 L155 -280 L155 -285 L155 -290 L160 -290 L160 -295 L165 -295 L170 -295 L170 -290 L170 -295 L175 -295 L180 -295 L180 -290 L185 -290 L185 -285 L185 -280 L180 -280 L180 -285 L185 -285 L190 -285 L190 -280 L195 -280 L195 -275 L195 -270 L190 -270 L195 -270 L195 -265 L195 -260 L190 -260 L190 -255 L185 -255 L180 -255 L180 -260 L180 -265 L185 -265 L190 -265 L190 -260 L195 -260 L195 -255 L195 -250 L190 -250 L195 -250 L195 -245 L195 -240 L190 -240 L190 -235 L185 -235 L180 -235 L180 -240 L185 -240 L185 -235 L185 -230 L180 -230 L180 -225 L175 -225 L170 -225 L170 -230 L170 -225 L165 -225 L160 -225 L160 -230 L155 -230 L155 -235 L155 -240 L160 -240 L160 -235 L155 -235 L150 -235 L150 -240 L145 -240 L145 -245 L145 -250 L150 -250 L145 -250 L145 -255 L145 -260 L150 -260 L150 -265 L155 -265 L160 -265 L160 -260 L155 -260 L155 -265 L155 -270 L160 -270 L160 -275 L165 -275 L170 -275 L170 -270 L170 -275 L175 -275 L180 -275 L180 -270 L185 -270 L185 -265 L185 -260 L180 -260 L175 -260 L175 -265 L175 -270 L180 -270 L180 -275 L185 -275 L190 -275 L190 -270 L190 -275 L195 -275 L200 -275 L200 -270 L205 -270 L205 -265 L205 -260 L200 -260 L200 -265 L205 -265 L210 -265 L210 -260 L215 -260 L215 -255 L215 -250 L210 -250 L215 -250 L215 -245 L215 -240 L210 -240 L210 -235 L205 -235 L200 -235 L200 -240 L195 -240 L195 -245 L195 -250 L200 -250 L200 -255 L205 -255 L210 -255 L210 -250 L210 -255 L215 -255 L220 -255 L220 -250 L225 -250 L225 -245 L225 -240 L220 -240 L220 -245 L225 -245 L230 -245 L230 -240 L235 -240 L235 -235 L235 -230 L230 -230 L235 -230 L235 -225 L235 -220 L230 -220 L230 -215 L225 -215 L220 -215 L220 -220 L220 -225 L225 -225 L230 -225 L230 -220 L235 -220 L235 -215 L235 -210 L230 -210 L235 -210 L235 -205 L235 -200 L230 -200 L230 -195 L225 -195 L220 -195 L220 -200 L225 -200 L225 -195 L225 -190 L220 -190 L220 -185 L215 -185 L210 -185 L210 -190 L210 -185 L205 -185 L200 -185 L200 -190 L195 -190 L195 -195 L195 -200 L200 -200 L195 -200 L195 -205 L195 -210 L200 -210 L200 -215 L205 -215 L210 -215 L210 -210 L210 -215 L215 -215 L220 -215 L220 -210 L225 -210 L225 -205 L225 -200 L220 -200 L220 -205 L225 -205 L230 -205 L230 -200 L235 -200 L235 -195 L235 -190 L230 -190 L235 -190 L235 -185 L235 -180 L230 -180 L230 -175 L225 -175 L220 -175 L220 -180 L220 -185 L225 -185 L230 -185 L230 -180 L235 -180 L235 -175 L235 -170 L230 -170 L235 -170 L235 -165 L235 -160 L230 -160 L230 -155 L225 -155 L220 -155 L220 -160 L225 -160 L225 -155 L225 -150 L220 -150 L220 -145 L215 -145 L210 -145 L210 -150 L210 -145 L205 -145 L200 -145 L200 -150 L195 -150 L195 -155 L195 -160 L200 -160 L200 -165 L205 -165 L210 -165 L210 -160 L215 -160 L215 -155 L215 -150 L210 -150 L215 -150 L215 -145 L215 -140 L210 -140 L210 -135 L205 -135 L200 -135 L200 -140 L205 -140 L205 -135 L205 -130 L200 -130 L200 -125 L195 -125 L190 -125 L190 -130 L190 -125 L185 -125 L180 -125 L180 -130 L175 -130 L175 -135 L175 -140 L180 -140 L185 -140 L185 -135 L185 -130 L180 -130 L180 -125 L175 -125 L170 -125 L170 -130 L170 -125 L165 -125 L160 -125 L160 -130 L155 -130 L155 -135 L155 -140 L160 -140 L160 -135 L155 -135 L150 -135 L150 -140 L145 -140 L145 -145 L145 -150 L150 -150 L145 -150 L145 -155 L145 -160 L150 -160 L150 -165 L155 -165 L160 -165 L160 -160 L160 -165 L165 -165 L170 -165 L170 -160 L175 -160 L175 -155 L175 -150 L170 -150 L175 -150 L175 -145 L175 -140 L170 -140 L170 -135 L165 -135 L160 -135 L160 -140 L165 -140 L165 -135 L165 -130 L160 -130 L160 -125 L155 -125 L150 -125 L150 -130 L150 -125 L145 -125 L140 -125 L140 -130 L135 -130 L135 -135 L135 -140 L140 -140 L145 -140 L145 -135 L145 -130 L140 -130 L140 -125 L135 -125 L130 -125 L130 -130 L130 -125 L125 -125 L120 -125 L120 -130 L115 -130 L115 -135 L115 -140 L120 -140 L120 -135 L115 -135 L110 -135 L110 -140 L105 -140 L105 -145 L105 -150 L110 -150 L105 -150 L105 -155 L105 -160 L110 -160 L110 -165 L115 -165 L120 -165 L120 -160 L125 -160 L125 -155 L125 -150 L120 -150 L120 -145 L115 -145 L110 -145 L110 -150 L110 -145 L105 -145 L100 -145 L100 -150 L95 -150 L95 -155 L95 -160 L100 -160 L100 -155 L95 -155 L90 -155 L90 -160 L85 -160 L85 -165 L85 -170 L90 -170 L85 -170 L85 -175 L85 -180 L90 -180 L90 -185 L95 -185 L100 -185 L100 -180 L100 -175 L95 -175 L90 -175 L90 -180 L85 -180 L85 -185 L85 -190 L90 -190 L85 -190 L85 -195 L85 -200 L90 -200 L90 -205 L95 -205 L100 -205 L100 -200 L95 -200 L95 -205 L95 -210 L100 -210 L100 -215 L105 -215 L110 -215 L110 -210 L110 -215 L115 -215 L120 -215 L120 -210 L125 -210 L125 -205 L125 -200 L120 -200 L125 -200 L125 -195 L125 -190 L120 -190 L120 -185 L115 -185 L110 -185 L110 -190 L110 -185 L105 -185 L100 -185 L100 -190 L95 -190 L95 -195 L95 -200 L100 -200 L100 -195 L95 -195 L90 -195 L90 -200 L85 -200 L85 -205 L85 -210 L90 -210 L85 -210 L85 -215 L85 -220 L90 -220 L90 -225 L95 -225 L100 -225 L100 -220 L100 -215 L95 -215 L90 -215 L90 -220 L85 -220 L85 -225 L85 -230 L90 -230 L85 -230 L85 -235 L85 -240 L90 -240 L90 -245 L95 -245 L100 -245 L100 -240 L95 -240 L95 -245 L95 -250 L100 -250 L100 -255 L105 -255 L110 -255 L110 -250 L110 -255 L115 -255 L120 -255 L120 -250 L125 -250 L125 -245 L125 -240 L120 -240 L120 -235 L115 -235 L110 -235 L110 -240 L105 -240 L105 -245 L105 -250 L110 -250 L105 -250 L105 -255 L105 -260 L110 -260 L110 -265 L115 -265 L120 -265 L120 -260 L115 -260 L115 -265 L115 -270 L120 -270 L120 -275 L125 -275 L130 -275 L130 -270 L130 -275 L135 -275 L140 -275 L140 -270 L145 -270 L145 -265 L145 -260 L140 -260 L135 -260 L135 -265 L135 -270 L140 -270 L140 -275 L145 -275 L150 -275 L150 -270 L150 -275 L155 -275 L160 -275 L160 -270 L165 -270 L165 -265 L165 -260 L160 -260 L160 -265 L165 -265 L170 -265 L170 -260 L175 -260 L175 -255 L175 -250 L170 -250 L175 -250 L175 -245 L175 -240 L170 -240 L170 -235 L165 -235 L160 -235 L160 -240 L165 -240 L165 -235 L165 -230 L160 -230 L160 -225 L155 -225 L150 -225 L150 -230 L150 -225 L145 -225 L140 -225 L140 -230 L135 -230 L135 -235 L135 -240 L140 -240 L140 -235 L135 -235 L130 -235 L130 -240 L125 -240 L125 -245 L125 -250 L130 -250 L125 -250 L125 -255 L125 -260 L130 -260 L130 -265 L135 -265 L140 -265 L140 -260 L140 -255 L135 -255 L130 -255 L130 -260 L125 -260 L125 -265 L125 -270 L130 -270 L125 -270 L125 -275 L125 -280 L130 -280 L130 -285 L135 -285 L140 -285 L140 -280 L135 -280 L135 -285 L135 -290 L140 -290 L140 -295 L145 -295 L150 -295 L150 -290 L150 -295 L155 -295 L160 -295 L160 -290 L165 -290 L165 -285 L165 -280 L160 -280 L160 -275 L155 -275 L150 -275 L150 -280 L145 -280 L145 -285 L145 -290 L150 -290 L145 -290 L145 -295 L145 -300 L150 -300 L150 -305 L155 -305 L160 -305 L160 -300 L155 -300 L155 -305 L155 -310 L160 -310 L160 -315 L165 -315 L170 -315 L170 -310 L170 -315 L175 -315 L180 -315 L180 -310 L185 -310 L185 -305 L185 -300 L180 -300 L175 -300 L175 -305 L175 -310 L180 -310 L180 -315 L185 -315 L190 -315 L190 -310 L190 -315 L195 -315 L200 -315 L200 -310 L205 -310 L205 -305 L205 -300 L200 -300 L200 -305 L205 -305 L210 -305 L210 -300 L215 -300 L215 -295 L215 -290 L210 -290 L215 -290 L215 -285 L215 -280 L210 -280 L210 -275 L205 -275 L200 -275 L200 -280 L200 -275 L195 -275 L190 -275 L190 -280 L185 -280 L185 -285 L185 -290 L190 -290 L185 -290 L185 -295 L185 -300 L190 -300 L190 -305 L195 -305 L200 -305 L200 -300 L195 -300 L195 -305 L195 -310 L200 -310 L200 -315 L205 -315 L210 -315 L210 -310 L210 -315 L215 -315 L220 -315 L220 -310 L225 -310 L225 -305 L225 -300 L220 -300 L215 -300 L215 -305 L215 -310 L220 -310 L220 -315 L225 -315 L230 -315 L230 -310 L230 -315 L235 -315 L240 -315 L240 -310 L245 -310 L245 -305 L245 -300 L240 -300 L240 -305 L245 -305 L250 -305 L250 -300 L255 -300 L255 -295 L255 -290 L250 -290 L255 -290 L255 -285 L255 -280 L250 -280 L250 -275 L245 -275 L240 -275 L240 -280 L235 -280 L235 -285 L235 -290 L240 -290 L240 -295 L245 -295 L250 -295 L250 -290 L250 -295 L255 -295 L260 -295 L260 -290 L265 -290 L265 -285 L265 -280 L260 -280 L260 -285 L265 -285 L270 -285 L270 -280 L275 -280 L275 -275 L275 -270 L270 -270 L275 -270 L275 -265 L275 -260 L270 -260 L270 -255 L265 -255 L260 -255 L260 -260 L260 -265 L265 -265 L270 -265 L270 -260 L275 -260 L275 -255 L275 -250 L270 -250 L275 -250 L275 -245 L275 -240 L270 -240 L270 -235 L265 -235 L260 -235 L260 -240 L265 -240 L265 -235 L265 -230 L260 -230 L260 -225 L255 -225 L250 -225 L250 -230 L250 -225 L245 -225 L240 -225 L240 -230 L235 -230 L235 -235 L235 -240 L240 -240 L245 -240 L245 -235 L245 -230 L240 -230 L240 -225 L235 -225 L230 -225 L230 -230 L230 -225 L225 -225 L220 -225 L220 -230 L215 -230 L215 -235 L215 -240 L220 -240 L220 -235 L215 -235 L210 -235 L210 -240 L205 -240 L205 -245 L205 -250 L210 -250 L205 -250 L205 -255 L205 -260 L210 -260 L210 -265 L215 -265 L220 -265 L220 -260 L220 -255 L215 -255 L210 -255 L210 -260 L205 -260 L205 -265 L205 -270 L210 -270 L205 -270 L205 -275 L205 -280 L210 -280 L210 -285 L215 -285 L220 -285 L220 -280 L215 -280 L215 -285 L215 -290 L220 -290 L220 -295 L225 -295 L230 -295 L230 -290 L230 -295 L235 -295 L240 -295 L240 -290 L245 -290 L245 -285 L245 -280 L240 -280 L240 -275 L235 -275 L230 -275 L230 -280 L225 -280 L225 -285 L225 -290 L230 -290 L225 -290 L225 -295 L225 -300 L230 -300 L230 -305 L235 -305 L240 -305 L240 -300 L235 -300 L235 -305 L235 -310 L240 -310 L240 -315 L245 -315 L250 -315 L250 -310 L250 -315 L255 -315 L260 -315 L260 -310 L265 -310 L265 -305 L265 -300 L260 -300 L255 -300 L255 -305 L255 -310 L260 -310 L260 -315 L265 -315 L270 -315 L270 -310 L270 -315 L275 -315 L280 -315 L280 -310 L285 -310 L285 -305 L285 -300 L280 -300 L280 -305 L285 -305 L290 -305 L290 -300 L295 -300 L295 -295 L295 -290 L290 -290 L295 -290 L295 -285 L295 -280 L290 -280 L290 -275 L285 -275 L280 -275 L280 -280 L280 -275 L275 -275 L270 -275 L270 -280 L265 -280 L265 -285 L265 -290 L270 -290 L265 -290 L265 -295 L265 -300 L270 -300 L270 -305 L275 -305 L280 -305 L280 -300 L275 -300 L275 -305 L275 -310 L280 -310 L280 -315 L285 -315 L290 -315 L290 -310 L290 -315 L295 -315 L300 -315 L300 -310 L305 -310 L305 -305 L305 -300 L300 -300 L295 -300 L295 -305 L295 -310 L300 -310 L300 -315 L305 -315 L310 -315 L310 -310 L310 -315 L315 -315 L320 -315 L320 -310 L325 -310 L325 -305 L325 -300 L320 -300 L320 -305 L325 -305 L330 -305 L330 -300 L335 -300 L335 -295 L335 -290 L330 -290 L335 -290 L335 -285 L335 -280 L330 -280 L330 -275 L325 -275 L320 -275 L320 -280 L315 -280 L315 -285 L315 -290 L320 -290 L320 -295 L325 -295 L330 -295 L330 -290 L330 -295 L335 -295 L340 -295 L340 -290 L345 -290 L345 -285 L345 -280 L340 -280 L340 -285 L345 -285 L350 -285 L350 -280 L355 -280 L355 -275 L355 -270 L350 -270 L355 -270 L355 -265 L355 -260 L350 -260 L350 -255 L345 -255 L340 -255 L340 -260 L340 -265 L345 -265 L350 -265 L350 -260 L355 -260 L355 -255 L355 -250 L350 -250 L355 -250 L355 -245 L355 -240 L350 -240 L350 -235 L345 -235 L340 -235 L340 -240 L345 -240 L345 -235 L345 -230 L340 -230 L340 -225 L335 -225 L330 -225 L330 -230 L330 -225 L325 -225 L320 -225 L320 -230 L315 -230 L315 -235 L315 -240 L320 -240 L320 -235 L315 -235 L310 -235 L310 -240 L305 -240 L305 -245 L305 -250 L310 -250 L305 -250 L305 -255 L305 -260 L310 -260 L310 -265 L315 -265 L320 -265 L320 -260 L315 -260 L315 -265 L315 -270 L320 -270 L320 -275 L325 -275 L330 -275 L330 -270 L330 -275 L335 -275 L340 -275 L340 -270 L345 -270 L345 -265 L345 -260 L340 -260 L335 -260 L335 -265 L335 -270 L340 -270 L340 -275 L345 -275 L350 -275 L350 -270 L350 -275 L355 -275 L360 -275 L360 -270 L365 -270 L365 -265 L365 -260 L360 -260 L360 -265 L365 -265 L370 -265 L370 -260 L375 -260 L375 -255 L375 -250 L370 -250 L375 -250 L375 -245 L375 -240 L370 -240 L370 -235 L365 -235 L360 -235 L360 -240 L355 -240 L355 -245 L355 -250 L360 -250 L360 -255 L365 -255 L370 -255 L370 -250 L370 -255 L375 -255 L380 -255 L380 -250 L385 -250 L385 -245 L385 -240 L380 -240 L380 -245 L385 -245 L390 -245 L390 -240 L395 -240 L395 -235 L395 -230 L390 -230 L395 -230 L395 -225 L395 -220 L390 -220 L390 -215 L385 -215 L380 -215 L380 -220 L380 -225 L385 -225 L390 -225 L390 -220 L395 -220 L395 -215 L395 -210 L390 -210 L395 -210 L395 -205 L395 -200 L390 -200 L390 -195 L385 -195 L380 -195 L380 -200 L385 -200 L385 -195 L385 -190 L380 -190 L380 -185 L375 -185 L370 -185 L370 -190 L370 -185 L365 -185 L360 -185 L360 -190 L355 -190 L355 -195 L355 -200 L360 -200 L355 -200 L355 -205 L355 -210 L360 -210 L360 -215 L365 -215 L370 -215 L370 -210 L370 -215 L375 -215 L380 -215 L380 -210 L385 -210 L385 -205 L385 -200 L380 -200 L380 -205 L385 -205 L390 -205 L390 -200 L395 -200 L395 -195 L395 -190 L390 -190 L395 -190 L395 -185 L395 -180 L390 -180 L390 -175 L385 -175 L380 -175 L380 -180 L380 -185 L385 -185 L390 -185 L390 -180 L395 -180 L395 -175 L395 -170 L390 -170 L395 -170 L395 -165 L395 -160 L390 -160 L390 -155 L385 -155 L380 -155 L380 -160 L385 -160 L385 -155 L385 -150 L380 -150 L380 -145 L375 -145 L370 -145 L370 -150 L370 -145 L365 -145 L360 -145 L360 -150 L355 -150 L355 -155 L355 -160 L360 -160 L360 -165 L365 -165 L370 -165 L370 -160 L375 -160 L375 -155 L375 -150 L370 -150 L375 -150 L375 -145 L375 -140 L370 -140 L370 -135 L365 -135 L360 -135 L360 -140 L365 -140 L365 -135 L365 -130 L360 -130 L360 -125 L355 -125 L350 -125 L350 -130 L350 -125 L345 -125 L340 -125 L340 -130 L335 -130 L335 -135 L335 -140 L340 -140 L345 -140 L345 -135 L345 -130 L340 -130 L340 -125 L335 -125 L330 -125 L330 -130 L330 -125 L325 -125 L320 -125 L320 -130 L315 -130 L315 -135 L315 -140 L320 -140 L320 -135 L315 -135 L310 -135 L310 -140 L305 -140 L305 -145 L305 -150 L310 -150 L305 -150 L305 -155 L305 -160 L310 -160 L310 -165 L315 -165 L320 -165 L320 -160 L325 -160 L325 -155 L325 -150 L320 -150 L320 -145 L315 -145 L310 -145 L310 -150 L310 -145 L305 -145 L300 -145 L300 -150 L295 -150 L295 -155 L295 -160 L300 -160 L300 -155 L295 -155 L290 -155 L290 -160 L285 -160 L285 -165 L285 -170 L290 -170 L285 -170 L285 -175 L285 -180 L290 -180 L290 -185 L295 -185 L300 -185 L300 -180 L300 -175 L295 -175 L290 -175 L290 -180 L285 -180 L285 -185 L285 -190 L290 -190 L285 -190 L285 -195 L285 -200 L290 -200 L290 -205 L295 -205 L300 -205 L300 -200 L295 -200 L295 -205 L295 -210 L300 -210 L300 -215 L305 -215 L310 -215 L310 -210 L310 -215 L315 -215 L320 -215 L320 -210 L325 -210 L325 -205 L325 -200 L320 -200 L320 -195 L315 -195 L310 -195 L310 -200 L305 -200 L305 -205 L305 -210 L310 -210 L305 -210 L305 -215 L305 -220 L310 -220 L310 -225 L315 -225 L320 -225 L320 -220 L315 -220 L315 -225 L315 -230 L320 -230 L320 -235 L325 -235 L330 -235 L330 -230 L330 -235 L335 -235 L340 -235 L340 -230 L345 -230 L345 -225 L345 -220 L340 -220 L335 -220 L335 -225 L335 -230 L340 -230 L340 -235 L345 -235 L350 -235 L350 -230 L350 -235 L355 -235 L360 -235 L360 -230 L365 -230 L365 -225 L365 -220 L360 -220 L360 -225 L365 -225 L370 -225 L370 -220 L375 -220 L375 -215 L375 -210 L370 -210 L375 -210 L375 -205 L375 -200 L370 -200 L370 -195 L365 -195 L360 -195 L360 -200 L360 -195 L355 -195 L350 -195 L350 -200 L345 -200 L345 -205 L345 -210 L350 -210 L345 -210 L345 -215 L345 -220 L350 -220 L350 -225 L355 -225 L360 -225 L360 -220 L355 -220 L355 -225 L355 -230 L360 -230 L360 -235 L365 -235 L370 -235 L370 -230 L370 -235 L375 -235 L380 -235 L380 -230 L385 -230 L385 -225 L385 -220 L380 -220 L375 -220 L375 -225 L375 -230 L380 -230 L380 -235 L385 -235 L390 -235 L390 -230 L390 -235 L395 -235 L400 -235 L400 -230 L405 -230 L405 -225 L405 -220 L400 -220 L400 -225 L405 -225 L410 -225 L410 -220 L415 -220 L415 -215 L415 -210 L410 -210 L415 -210 L415 -205 L415 -200 L410 -200 L410 -195 L405 -195 L400 -195 L400 -200 L395 -200 L395 -205 L395 -210 L400 -210 L400 -215 L405 -215 L410 -215 L410 -210 L410 -215 L415 -215 L420 -215 L420 -210 L425 -210 L425 -205 L425 -200 L420 -200 L420 -205 L425 -205 L430 -205 L430 -200 L435 -200 L435 -195 L435 -190 L430 -190 L435 -190 L435 -185 L435 -180 L430 -180 L430 -175 L425 -175 L420 -175 L420 -180 L420 -185 L425 -185 L430 -185 L430 -180 L435 -180 L435 -175 L435 -170 L430 -170 L435 -170 L435 -165 L435 -160 L430 -160 L430 -155 L425 -155 L420 -155 L420 -160 L425 -160 L425 -155 L425 -150 L420 -150 L420 -145 L415 -145 L410 -145 L410 -150 L410 -145 L405 -145 L400 -145 L400 -150 L395 -150 L395 -155 L395 -160 L400 -160 L400 -155 L395 -155 L390 -155 L390 -160 L385 -160 L385 -165 L385 -170 L390 -170 L385 -170 L385 -175 L385 -180 L390 -180 L390 -185 L395 -185 L400 -185 L400 -180 L395 -180 L395 -185 L395 -190 L400 -190 L400 -195 L405 -195 L410 -195 L410 -190 L410 -195 L415 -195 L420 -195 L420 -190 L425 -190 L425 -185 L425 -180 L420 -180 L415 -180 L415 -185 L415 -190 L420 -190 L420 -195 L425 -195 L430 -195 L430 -190 L430 -195 L435 -195 L440 -195 L440 -190 L445 -190 L445 -185 L445 -180 L440 -180 L440 -185 L445 -185 L450 -185 L450 -180 L455 -180 L455 -175 L455 -170 L450 -170 L455 -170 L455 -165 L455 -160 L450 -160 L450 -155 L445 -155 L440 -155 L440 -160 L435 -160 L435 -165 L435 -170 L440 -170 L440 -175 L445 -175 L450 -175 L450 -170 L450 -175 L455 -175 L460 -175 L460 -170 L465 -170 L465 -165 L465 -160 L460 -160 L460 -165 L465 -165 L470 -165 L470 -160 L475 -160 L475 -155 L475 -150 L470 -150 L475 -150 L475 -145 L475 -140 L470 -140 L470 -135 L465 -135 L460 -135 L460 -140 L460 -145 L465 -145 L470 -145 L470 -140 L475 -140 L475 -135 L475 -130 L470 -130 L475 -130 L475 -125 L475 -120 L470 -120 L470 -115 L465 -115 L460 -115 L460 -120 L465 -120 L465 -115 L465 -110 L460 -110 L460 -105 L455 -105 L450 -105 L450 -110 L450 -105 L445 -105 L440 -105 L440 -110 L435 -110 L435 -115 L435 -120 L440 -120 L435 -120 L435 -125 L435 -130 L440 -130 L440 -135 L445 -135 L450 -135 L450 -130 L450 -135 L455 -135 L460 -135 L460 -130 L465 -130 L465 -125 L465 -120 L460 -120 L460 -125 L465 -125 L470 -125 L470 -120 L475 -120 L475 -115 L475 -110 L470 -110 L475 -110 L475 -105 L475 -100 L470 -100 L470 -95 L465 -95 L460 -95 L460 -100 L460 -105 L465 -105 L470 -105 L470 -100 L475 -100 L475 -95 L475 -90 L470 -90 L475 -90 L475 -85 L475 -80 L470 -80 L470 -75 L465 -75 L460 -75 L460 -80 L465 -80 L465 -75 L465 -70 L460 -70 L460 -65 L455 -65 L450 -65 L450 -70 L450 -65 L445 -65 L440 -65 L440 -70 L435 -70 L435 -75 L435 -80 L440 -80 L440 -85 L445 -85 L450 -85 L450 -80 L455 -80 L455 -75 L455 -70 L450 -70 L455 -70 L455 -65 L455 -60 L450 -60 L450 -55 L445 -55 L440 -55 L440 -60 L445 -60 L445 -55 L445 -50 L440 -50 L440 -45 L435 -45 L430 -45 L430 -50 L430 -45 L425 -45 L420 -45 L420 -50 L415 -50 L415 -55 L415 -60 L420 -60 L425 -60 L425 -55 L425 -50 L420 -50 L420 -45 L415 -45 L410 -45 L410 -50 L410 -45 L405 -45 L400 -45 L400 -50 L395 -50 L395 -55 L395 -60 L400 -60 L400 -55 L395 -55 L390 -55 L390 -60 L385 -60 L385 -65 L385 -70 L390 -70 L385 -70 L385 -75 L385 -80 L390 -80 L390 -85 L395 -85 L400 -85 L400 -80 L400 -75 L395 -75 L390 -75 L390 -80 L385 -80 L385 -85 L385 -90 L390 -90 L385 -90 L385 -95 L385 -100 L390 -100 L390 -105 L395 -105 L400 -105 L400 -100 L395 -100 L395 -105 L395 -110 L400 -110 L400 -115 L405 -115 L410 -115 L410 -110 L410 -115 L415 -115 L420 -115 L420 -110 L425 -110 L425 -105 L425 -100 L420 -100 L415 -100 L415 -105 L415 -110 L420 -110 L420 -115 L425 -115 L430 -115 L430 -110 L430 -115 L435 -115 L440 -115 L440 -110 L445 -110 L445 -105 L445 -100 L440 -100 L440 -105 L445 -105 L450 -105 L450 -100 L455 -100 L455 -95 L455 -90 L450 -90 L455 -90 L455 -85 L455 -80 L450 -80 L450 -75 L445 -75 L440 -75 L440 -80 L435 -80 L435 -85 L435 -90 L440 -90 L440 -95 L445 -95 L450 -95 L450 -90 L450 -95 L455 -95 L460 -95 L460 -90 L465 -90 L465 -85 L465 -80 L460 -80 L460 -85 L465 -85 L470 -85 L470 -80 L475 -80 L475 -75 L475 -70 L470 -70 L475 -70 L475 -65 L475 -60 L470 -60 L470 -55 L465 -55 L460 -55 L460 -60 L460 -65 L465 -65 L470 -65 L470 -60 L475 -60 L475 -55 L475 -50 L470 -50 L475 -50 L475 -45 L475 -40 L470 -40 L470 -35 L465 -35 L460 -35 L460 -40 L465 -40 L465 -35 L465 -30 L460 -30 L460 -25 L455 -25 L450 -25 L450 -30 L450 -25 L445 -25 L440 -25 L440 -30 L435 -30 L435 -35 L435 -40 L440 -40 L435 -40 L435 -45 L435 -50 L440 -50 L440 -55 L445 -55 L450 -55 L450 -50 L450 -55 L455 -55 L460 -55 L460 -50 L465 -50 L465 -45 L465 -40 L460 -40 L460 -45 L465 -45 L470 -45 L470 -40 L475 -40 L475 -35 L475 -30 L470 -30 L475 -30 L475 -25 L475 -20 L470 -20 L470 -15 L465 -15 L460 -15 L460 -20 L460 -25 L465 -25 L470 -25 L470 -20 L475 -20 L475 -15 L475 -10 L470 -10 L475 -10 L475 -5 L475 5.32907e-15 L470 6.66134e-15 L470 5 L465 5 L460 5 L460 1.06581e-14 L465 1.06581e-14 L465 5 L465 10 L460 10 L460 15 L455 15 L450 15 L450 10 L450 15 L445 15 L440 15 L440 10 L435 10 L435 5 L435 2.13163e-14 L440 1.86517e-14 L440 -5 L445 -5 L450 -5 L450 1.86517e-14 L455 1.86517e-14 L455 5 L455 10 L450 10 L455 10 L455 15 L455 20 L450 20 L450 25 L445 25 L440 25 L440 20 L445 20 L445 25 L445 30 L440 30 L440 35 L435 35 L430 35 L430 30 L430 35 L425 35 L420 35 L420 30 L415 30 L415 25 L415 20 L420 20 L425 20 L425 25 L425 30 L420 30 L420 35 L415 35 L410 35 L410 30 L410 35 L405 35 L400 35 L400 30 L395 30 L395 25 L395 20 L400 20 L400 25 L395 25 L390 25 L390 20 L385 20 L385 15 L385 10 L390 10 L385 10 L385 5 L385 8.88178e-15 L390 6.21725e-15 L390 -5 L395 -5 L400 -5 L400 8.88178e-16 L395 -4.44089e-16 L395 -5 L395 -10 L400 -10 L400 -15 L405 -15 L410 -15 L410 -10 L410 -15 L415 -15 L420 -15 L420 -10 L425 -10 L425 -5 L425 0 L420 1.33227e-15 L420 -5 L425 -5 L430 -5 L430 1.77636e-15 L435 1.77636e-15 L435 5 L435 10 L430 10 L435 10 L435 15 L435 20 L430 20 L430 25 L425 25 L420 25 L420 20 L420 15 L425 15 L430 15 L430 20 L435 20 L435 25 L435 30 L430 30 L435 30 L435 35 L435 40 L430 40 L430 45 L425 45 L420 45 L420 40 L425 40 L425 45 L425 50 L420 50 L420 55 L415 55 L410 55 L410 50 L410 55 L405 55 L400 55 L400 50 L395 50 L395 45 L395 40 L400 40 L400 35 L405 35 L410 35 L410 40 L415 40 L415 45 L415 50 L410 50 L415 50 L415 55 L415 60 L410 60 L410 65 L405 65 L400 65 L400 60 L405 60 L405 65 L405 70 L400 70 L400 75 L395 75 L390 75 L390 70 L390 75 L385 75 L380 75 L380 70 L375 70 L375 65 L375 60 L380 60 L385 60 L385 65 L385 70 L380 70 L380 75 L375 75 L370 75 L370 70 L370 75 L365 75 L360 75 L360 70 L355 70 L355 65 L355 60 L360 60 L360 65 L355 65 L350 65 L350 60 L345 60 L345 55 L345 50 L350 50 L345 50 L345 45 L345 40 L350 40 L350 35 L355 35 L360 35 L360 40 L360 35 L365 35 L370 35 L370 40 L375 40 L375 45 L375 50 L370 50 L375 50 L375 55 L375 60 L370 60 L370 65 L365 65 L360 65 L360 60 L365 60 L365 65 L365 70 L360 70 L360 75 L355 75 L350 75 L350 70 L350 75 L345 75 L340 75 L340 70 L335 70 L335 65 L335 60 L340 60 L345 60 L345 65 L345 70 L340 70 L340 75 L335 75 L330 75 L330 70 L330 75 L325 75 L320 75 L320 70 L315 70 L315 65 L315 60 L320 60 L320 65 L315 65 L310 65 L310 60 L305 60 L305 55 L305 50 L310 50 L305 50 L305 45 L305 40 L310 40 L310 35 L315 35 L320 35 L320 40 L325 40 L325 45 L325 50 L320 50 L320 55 L315 55 L310 55 L310 50 L310 55 L305 55 L300 55 L300 50 L295 50 L295 45 L295 40 L300 40 L300 45 L295 45 L290 45 L290 40 L285 40 L285 35 L285 30 L290 30 L285 30 L285 25 L285 20 L290 20 L290 15 L295 15 L300 15 L300 20 L300 25 L295 25 L290 25 L290 20 L285 20 L285 15 L285 10 L290 10 L285 10 L285 5 L285 -1.59872e-14 L290 -1.86517e-14 L290 -5 L295 -5 L300 -5 L300 -2.39808e-14 L295 -2.26485e-14 L295 -5 L295 -10 L300 -10 L300 -15 L305 -15 L310 -15 L310 -10 L310 -15 L315 -15 L320 -15 L320 -10 L325 -10 L325 -5 L325 -4.26326e-14 L320 -3.86358e-14"/>
</svg>
