<?xml version="1.0" encoding="UTF-8"?>
<svg xmlns="http://www.w3.org/2000/svg"
 version="1.1" baseProfile="basic"
 viewBox="-35 -64 127 85"
 width="1280px" height="1024px"
 stroke="white" stroke-width="1px"
 fill="black" fill-opacity="0">
<rect x="-35" y="-64" width="127" height="85" stroke-width="0px" fill-opacity="1"/>
<path d="M0 0 L0 0 L3.53553 3.53553 L-2.66454e-15 7.07107 L-3.53553 10.6066 L-7.07107 7.07107 L-10.6066 10.6066 L-14.1421 7.07107 L-17.6777 3.53553 L-14.1421 -3.55271e-15 L-17.6777 3.53553 L-21.2132 -5.32907e-15 L-24.7487 -3.53553 L-21.2132 -7.07107 L-24.7487 -10.6066 L-21.2132 -14.1421 L-17.6777 -17.6777 L-14.1421 -14.1421 L-17.6777 -10.6066 L-21.2132 -14.1421 L-24.7487 -17.6777 L-21.2132 -21.2132 L-24.7487 -24.7487 L-21.2132 -28.2843 L-17.6777 -31.8198 L-14.1421 -28.2843 L-17.6777 -31.8198 L-14.1421 -35.3553 L-10.6066 -38.8909 L-7.07107 -35.3553 L-3.53553 -38.8909 L-3.55271e-15 -35.3553 L3.53553 -31.8198 L-2.66454e-15 -28.2843 L-3.53553 -24.7487 L-7.07107 -28.2843 L-10.6066 -31.8198 L-7.07107 -35.3553 L-10.6066 -38.8909 L-7.07107 -42.4264 L-3.53553 -45.9619 L0 -42.4264 L-3.53553 -45.9619 L8.88178e-16 -49.4975 L3.53553 -53.033 L7.07107 -49.4975 L10.6066 -53.033 L14.1421 -49.4975 L17.6777 -45.9619 L14.1421 -42.4264 L10.6066 -45.9619 L14.1421 -49.4975 L17.6777 -53.033 L21.2132 -49.4975 L24.7487 -53.033 L28.2843 -49.4975 L31.8198 -45.9619 L28.2843 -42.4264 L31.8198 -45.9619 L35.3553 -42.4264 L38.8909 -38.8909 L35.3553 -35.3553 L38.8909 -31.8198 L35.3553 -28.2843 L31.8198 -24.7487 L28.2843 -28.2843 L24.7487 -24.7487 L21.2132 -28.2843 L17.6777 -31.8198 L21.2132 -35.3553 L17.6777 -38.8909 L21.2132 -42.4264 L24.7487 -45.9619 L28.2843 -42.4264 L24.7487 -45.9619 L28.2843 -49.4975 L31.8198 -53.033 L35.3553 -49.4975 L38.8909 -53.033 L42.4264 -49.4975 L45.9619 -45.9619 L42.4264 -42.4264 L38.8909 -45.9619 L42.4264 -49.4975 L45.9619 -53.033 L49.4975 -49.4975 L53.033 -53.033 L56.5685 -49.4975 L60.1041 -45.9619 L56.5685 -42.4264 L60.1041 -45.9619 L63.6396 -42.4264 L67.1751 -38.8909 L63.6396 -35.3553 L67.1751 -31.8198 L63.6396 -28.2843 L60.1041 -24.7487 L56.5685 -28.2843 L53.033 -31.8198 L56.5685 -35.3553 L60.1041 -38.8909 L63.6396 -35.3553 L67.1751 -38.8909 L70.7107 -35.3553 L74.2462 -31.8198 L70.7107 -28.2843 L74.2462 -31.8198 L77.7817 -28.2843 L81.3173 -24.7487 L77.7817 -21.2132 L81.3173 -17.6777 L77.7817 -14.1421 L74.2462 -10.6066 L70.7107 -14.1421 L74.2462 -17.6777 L77.7817 -14.1421 L81.3173 -10.6066 L77.7817 -7.07107 L81.3173 -3.53553 L77.7817 -3.55271e-15 L74.2462 3.53553 L70.7107 -1.77636e-15 L74.2462 3.53553 L70.7107 7.07107 L67.1751 10.6066 L63.6396 7.07107 L60.1041 10.6066 L56.5685 7.07107 L53.033 3.53553 L56.5685 1.77636e-15"/>
</svg>
