<?xml version="1.0" encoding="UTF-8"?>
<svg xmlns="http://www.w3.org/2000/svg"
 version="1.1" baseProfile="basic"
 viewBox="-46 -86 171 112"
 width="1280px" height="1024px"
 stroke="white" stroke-width="1px"
 fill="black" fill-opacity="0">
<rect x="-46" y="-86" width="171" height="112" stroke-width="0px" fill-opacity="1"/>
<path d="M0 0 L0 0 L5 2.66454e-15 L5 5 L5 10 L-3.55271e-15 10 L-5.32907e-15 15 L-5 15 L-10 15 L-10 10 L-10 15 L-15 15 L-20 15 L-20 10 L-25 10 L-25 5 L-25 -7.10543e-15 L-20 -7.10543e-15 L-20 5 L-25 5 L-30 5 L-30 -1.06581e-14 L-35 -1.19904e-14 L-35 -5 L-35 -10 L-30 -10 L-35 -10 L-35 -15 L-35 -20 L-30 -20 L-30 -25 L-25 -25 L-20 -25 L-20 -20 L-20 -15 L-25 -15 L-30 -15 L-30 -20 L-35 -20 L-35 -25 L-35 -30 L-30 -30 L-35 -30 L-35 -35 L-35 -40 L-30 -40 L-30 -45 L-25 -45 L-20 -45 L-20 -40 L-25 -40 L-25 -45 L-25 -50 L-20 -50 L-20 -55 L-15 -55 L-10 -55 L-10 -50 L-10 -55 L-5 -55 L-7.10543e-15 -55 L-6.21725e-15 -50 L5 -50 L5 -45 L5 -40 L-5.32907e-15 -40 L-7.10543e-15 -35 L-5 -35 L-10 -35 L-10 -40 L-15 -40 L-15 -45 L-15 -50 L-10 -50 L-15 -50 L-15 -55 L-15 -60 L-10 -60 L-10 -65 L-5 -65 L-7.10543e-15 -65 L-6.21725e-15 -60 L-5 -60 L-5 -65 L-5 -70 L-4.44089e-15 -70 L-3.55271e-15 -75 L5 -75 L10 -75 L10 -70 L10 -75 L15 -75 L20 -75 L20 -70 L25 -70 L25 -65 L25 -60 L20 -60 L15 -60 L15 -65 L15 -70 L20 -70 L20 -75 L25 -75 L30 -75 L30 -70 L30 -75 L35 -75 L40 -75 L40 -70 L45 -70 L45 -65 L45 -60 L40 -60 L40 -65 L45 -65 L50 -65 L50 -60 L55 -60 L55 -55 L55 -50 L50 -50 L55 -50 L55 -45 L55 -40 L50 -40 L50 -35 L45 -35 L40 -35 L40 -40 L40 -35 L35 -35 L30 -35 L30 -40 L25 -40 L25 -45 L25 -50 L30 -50 L25 -50 L25 -55 L25 -60 L30 -60 L30 -65 L35 -65 L40 -65 L40 -60 L35 -60 L35 -65 L35 -70 L40 -70 L40 -75 L45 -75 L50 -75 L50 -70 L50 -75 L55 -75 L60 -75 L60 -70 L65 -70 L65 -65 L65 -60 L60 -60 L55 -60 L55 -65 L55 -70 L60 -70 L60 -75 L65 -75 L70 -75 L70 -70 L70 -75 L75 -75 L80 -75 L80 -70 L85 -70 L85 -65 L85 -60 L80 -60 L80 -65 L85 -65 L90 -65 L90 -60 L95 -60 L95 -55 L95 -50 L90 -50 L95 -50 L95 -45 L95 -40 L90 -40 L90 -35 L85 -35 L80 -35 L80 -40 L75 -40 L75 -45 L75 -50 L80 -50 L80 -55 L85 -55 L90 -55 L90 -50 L90 -55 L95 -55 L100 -55 L100 -50 L105 -50 L105 -45 L105 -40 L100 -40 L100 -45 L105 -45 L110 -45 L110 -40 L115 -40 L115 -35 L115 -30 L110 -30 L115 -30 L115 -25 L115 -20 L110 -20 L110 -15 L105 -15 L100 -15 L100 -20 L100 -25 L105 -25 L110 -25 L110 -20 L115 -20 L115 -15 L115 -10 L110 -10 L115 -10 L115 -5 L115 -8.88178e-15 L110 -7.54952e-15 L110 5 L105 5 L100 5 L100 -3.55271e-15 L105 -3.55271e-15 L105 5 L105 10 L100 10 L100 15 L95 15 L90 15 L90 10 L90 15 L85 15 L80 15 L80 10 L75 10 L75 5 L75 7.10543e-15 L80 4.44089e-15"/>
</svg>
