<?xml version="1.0" encoding="UTF-8"?>
<svg xmlns="http://www.w3.org/2000/svg"
 version="1.1" baseProfile="basic"
 viewBox="-21 -35 70 49"
 width="1280px" height="1024px"
 stroke="white" stroke-width="1px"
 fill="black" fill-opacity="0">
<rect x="-21" y="-35" width="70" height="49" stroke-width="0px" fill-opacity="1"/>
<path d="M0 0 L0 0 L-3.53553 3.53553 L-7.07107 -1.77636e-15 L-10.6066 -3.53553 L-7.07107 -7.07107 L-10.6066 -10.6066 L-7.07107 -14.1421 L-3.53553 -17.6777 L0 -14.1421 L-3.53553 -17.6777 L8.88178e-16 -21.2132 L3.53553 -24.7487 L7.07107 -21.2132 L10.6066 -24.7487 L14.1421 -21.2132 L17.6777 -17.6777 L14.1421 -14.1421 L10.6066 -17.6777 L14.1421 -21.2132 L17.6777 -24.7487 L21.2132 -21.2132 L24.7487 -24.7487 L28.2843 -21.2132 L31.8198 -17.6777 L28.2843 -14.1421 L31.8198 -17.6777 L35.3553 -14.1421 L38.8909 -10.6066 L35.3553 -7.07107 L38.8909 -3.53553 L35.3553 0 L31.8198 3.53553 L28.2843 1.77636e-15"/>
</svg>
