<?xml version="1.0" encoding="UTF-8"?>
<svg xmlns="http://www.w3.org/2000/svg"
 version="1.1" baseProfile="basic"
 viewBox="-86 -165 331 211"
 width="1280px" height="1024px"
 stroke="white" stroke-width="1px"
 fill="black" fill-opacity="0">
<rect x="-86" y="-165" width="331" height="211" stroke-width="0px" fill-opacity="1"/>
<path d="M0 0 L0 0 L3.10862e-15 -5 L5 -5 L10 -5 L10 5.32907e-15 L15 7.99361e-15 L15 5 L15 10 L10 10 L15 10 L15 15 L15 20 L10 20 L10 25 L5 25 L-7.10543e-15 25 L-6.66134e-15 20 L5 20 L5 25 L5 30 L-1.06581e-14 30 L-1.24345e-14 35 L-5 35 L-10 35 L-10 30 L-10 35 L-15 35 L-20 35 L-20 30 L-25 30 L-25 25 L-25 20 L-20 20 L-15 20 L-15 25 L-15 30 L-20 30 L-20 35 L-25 35 L-30 35 L-30 30 L-30 35 L-35 35 L-40 35 L-40 30 L-45 30 L-45 25 L-45 20 L-40 20 L-40 25 L-45 25 L-50 25 L-50 20 L-55 20 L-55 15 L-55 10 L-50 10 L-55 10 L-55 5 L-55 1.24345e-14 L-50 1.24345e-14 L-50 -5 L-45 -5 L-40 -5 L-40 1.24345e-14 L-35 1.5099e-14 L-35 5 L-35 10 L-40 10 L-40 15 L-45 15 L-50 15 L-50 10 L-50 15 L-55 15 L-60 15 L-60 10 L-65 10 L-65 5 L-65 3.55271e-15 L-60 3.55271e-15 L-60 5 L-65 5 L-70 5 L-70 0 L-75 -1.33227e-15 L-75 -5 L-75 -10 L-70 -10 L-75 -10 L-75 -15 L-75 -20 L-70 -20 L-70 -25 L-65 -25 L-60 -25 L-60 -20 L-60 -15 L-65 -15 L-70 -15 L-70 -20 L-75 -20 L-75 -25 L-75 -30 L-70 -30 L-75 -30 L-75 -35 L-75 -40 L-70 -40 L-70 -45 L-65 -45 L-60 -45 L-60 -40 L-65 -40 L-65 -45 L-65 -50 L-60 -50 L-60 -55 L-55 -55 L-50 -55 L-50 -50 L-50 -55 L-45 -55 L-40 -55 L-40 -50 L-35 -50 L-35 -45 L-35 -40 L-40 -40 L-35 -40 L-35 -35 L-35 -30 L-40 -30 L-40 -25 L-45 -25 L-50 -25 L-50 -30 L-50 -25 L-55 -25 L-60 -25 L-60 -30 L-65 -30 L-65 -35 L-65 -40 L-60 -40 L-60 -35 L-65 -35 L-70 -35 L-70 -40 L-75 -40 L-75 -45 L-75 -50 L-70 -50 L-75 -50 L-75 -55 L-75 -60 L-70 -60 L-70 -65 L-65 -65 L-60 -65 L-60 -60 L-60 -55 L-65 -55 L-70 -55 L-70 -60 L-75 -60 L-75 -65 L-75 -70 L-70 -70 L-75 -70 L-75 -75 L-75 -80 L-70 -80 L-70 -85 L-65 -85 L-60 -85 L-60 -80 L-65 -80 L-65 -85 L-65 -90 L-60 -90 L-60 -95 L-55 -95 L-50 -95 L-50 -90 L-50 -95 L-45 -95 L-40 -95 L-40 -90 L-35 -90 L-35 -85 L-35 -80 L-40 -80 L-40 -75 L-45 -75 L-50 -75 L-50 -80 L-55 -80 L-55 -85 L-55 -90 L-50 -90 L-55 -90 L-55 -95 L-55 -100 L-50 -100 L-50 -105 L-45 -105 L-40 -105 L-40 -100 L-45 -100 L-45 -105 L-45 -110 L-40 -110 L-40 -115 L-35 -115 L-30 -115 L-30 -110 L-30 -115 L-25 -115 L-20 -115 L-20 -110 L-15 -110 L-15 -105 L-15 -100 L-20 -100 L-25 -100 L-25 -105 L-25 -110 L-20 -110 L-20 -115 L-15 -115 L-10 -115 L-10 -110 L-10 -115 L-5 -115 L-2.84217e-14 -115 L-2.75335e-14 -110 L5 -110 L5 -105 L5 -100 L-2.66454e-14 -100 L-2.57572e-14 -105 L5 -105 L10 -105 L10 -100 L15 -100 L15 -95 L15 -90 L10 -90 L15 -90 L15 -85 L15 -80 L10 -80 L10 -75 L5 -75 L-2.4869e-14 -75 L-2.66454e-14 -80 L5 -80 L5 -75 L5 -70 L-3.01981e-14 -70 L-3.19744e-14 -65 L-5 -65 L-10 -65 L-10 -70 L-10 -65 L-15 -65 L-20 -65 L-20 -70 L-25 -70 L-25 -75 L-25 -80 L-20 -80 L-20 -75 L-25 -75 L-30 -75 L-30 -80 L-35 -80 L-35 -85 L-35 -90 L-30 -90 L-35 -90 L-35 -95 L-35 -100 L-30 -100 L-30 -105 L-25 -105 L-20 -105 L-20 -100 L-20 -95 L-25 -95 L-30 -95 L-30 -100 L-35 -100 L-35 -105 L-35 -110 L-30 -110 L-35 -110 L-35 -115 L-35 -120 L-30 -120 L-30 -125 L-25 -125 L-20 -125 L-20 -120 L-25 -120 L-25 -125 L-25 -130 L-20 -130 L-20 -135 L-15 -135 L-10 -135 L-10 -130 L-10 -135 L-5 -135 L-3.55271e-14 -135 L-3.4639e-14 -130 L5 -130 L5 -125 L5 -120 L-3.37508e-14 -120 L-3.55271e-14 -115 L-5 -115 L-10 -115 L-10 -120 L-15 -120 L-15 -125 L-15 -130 L-10 -130 L-15 -130 L-15 -135 L-15 -140 L-10 -140 L-10 -145 L-5 -145 L-3.55271e-14 -145 L-3.4639e-14 -140 L-5 -140 L-5 -145 L-5 -150 L-3.28626e-14 -150 L-3.19744e-14 -155 L5 -155 L10 -155 L10 -150 L10 -155 L15 -155 L20 -155 L20 -150 L25 -150 L25 -145 L25 -140 L20 -140 L15 -140 L15 -145 L15 -150 L20 -150 L20 -155 L25 -155 L30 -155 L30 -150 L30 -155 L35 -155 L40 -155 L40 -150 L45 -150 L45 -145 L45 -140 L40 -140 L40 -145 L45 -145 L50 -145 L50 -140 L55 -140 L55 -135 L55 -130 L50 -130 L55 -130 L55 -125 L55 -120 L50 -120 L50 -115 L45 -115 L40 -115 L40 -120 L40 -115 L35 -115 L30 -115 L30 -120 L25 -120 L25 -125 L25 -130 L30 -130 L25 -130 L25 -135 L25 -140 L30 -140 L30 -145 L35 -145 L40 -145 L40 -140 L35 -140 L35 -145 L35 -150 L40 -150 L40 -155 L45 -155 L50 -155 L50 -150 L50 -155 L55 -155 L60 -155 L60 -150 L65 -150 L65 -145 L65 -140 L60 -140 L55 -140 L55 -145 L55 -150 L60 -150 L60 -155 L65 -155 L70 -155 L70 -150 L70 -155 L75 -155 L80 -155 L80 -150 L85 -150 L85 -145 L85 -140 L80 -140 L80 -145 L85 -145 L90 -145 L90 -140 L95 -140 L95 -135 L95 -130 L90 -130 L95 -130 L95 -125 L95 -120 L90 -120 L90 -115 L85 -115 L80 -115 L80 -120 L75 -120 L75 -125 L75 -130 L80 -130 L80 -135 L85 -135 L90 -135 L90 -130 L90 -135 L95 -135 L100 -135 L100 -130 L105 -130 L105 -125 L105 -120 L100 -120 L100 -125 L105 -125 L110 -125 L110 -120 L115 -120 L115 -115 L115 -110 L110 -110 L115 -110 L115 -105 L115 -100 L110 -100 L110 -95 L105 -95 L100 -95 L100 -100 L100 -105 L105 -105 L110 -105 L110 -100 L115 -100 L115 -95 L115 -90 L110 -90 L115 -90 L115 -85 L115 -80 L110 -80 L110 -75 L105 -75 L100 -75 L100 -80 L105 -80 L105 -75 L105 -70 L100 -70 L100 -65 L95 -65 L90 -65 L90 -70 L90 -65 L85 -65 L80 -65 L80 -70 L75 -70 L75 -75 L75 -80 L80 -80 L85 -80 L85 -75 L85 -70 L80 -70 L80 -65 L75 -65 L70 -65 L70 -70 L70 -65 L65 -65 L60 -65 L60 -70 L55 -70 L55 -75 L55 -80 L60 -80 L60 -75 L55 -75 L50 -75 L50 -80 L45 -80 L45 -85 L45 -90 L50 -90 L45 -90 L45 -95 L45 -100 L50 -100 L50 -105 L55 -105 L60 -105 L60 -100 L60 -95 L55 -95 L50 -95 L50 -100 L45 -100 L45 -105 L45 -110 L50 -110 L45 -110 L45 -115 L45 -120 L50 -120 L50 -125 L55 -125 L60 -125 L60 -120 L55 -120 L55 -125 L55 -130 L60 -130 L60 -135 L65 -135 L70 -135 L70 -130 L70 -135 L75 -135 L80 -135 L80 -130 L85 -130 L85 -125 L85 -120 L80 -120 L80 -115 L75 -115 L70 -115 L70 -120 L65 -120 L65 -125 L65 -130 L70 -130 L65 -130 L65 -135 L65 -140 L70 -140 L70 -145 L75 -145 L80 -145 L80 -140 L75 -140 L75 -145 L75 -150 L80 -150 L80 -155 L85 -155 L90 -155 L90 -150 L90 -155 L95 -155 L100 -155 L100 -150 L105 -150 L105 -145 L105 -140 L100 -140 L95 -140 L95 -145 L95 -150 L100 -150 L100 -155 L105 -155 L110 -155 L110 -150 L110 -155 L115 -155 L120 -155 L120 -150 L125 -150 L125 -145 L125 -140 L120 -140 L120 -145 L125 -145 L130 -145 L130 -140 L135 -140 L135 -135 L135 -130 L130 -130 L135 -130 L135 -125 L135 -120 L130 -120 L130 -115 L125 -115 L120 -115 L120 -120 L120 -115 L115 -115 L110 -115 L110 -120 L105 -120 L105 -125 L105 -130 L110 -130 L105 -130 L105 -135 L105 -140 L110 -140 L110 -145 L115 -145 L120 -145 L120 -140 L115 -140 L115 -145 L115 -150 L120 -150 L120 -155 L125 -155 L130 -155 L130 -150 L130 -155 L135 -155 L140 -155 L140 -150 L145 -150 L145 -145 L145 -140 L140 -140 L135 -140 L135 -145 L135 -150 L140 -150 L140 -155 L145 -155 L150 -155 L150 -150 L150 -155 L155 -155 L160 -155 L160 -150 L165 -150 L165 -145 L165 -140 L160 -140 L160 -145 L165 -145 L170 -145 L170 -140 L175 -140 L175 -135 L175 -130 L170 -130 L175 -130 L175 -125 L175 -120 L170 -120 L170 -115 L165 -115 L160 -115 L160 -120 L155 -120 L155 -125 L155 -130 L160 -130 L160 -135 L165 -135 L170 -135 L170 -130 L170 -135 L175 -135 L180 -135 L180 -130 L185 -130 L185 -125 L185 -120 L180 -120 L180 -125 L185 -125 L190 -125 L190 -120 L195 -120 L195 -115 L195 -110 L190 -110 L195 -110 L195 -105 L195 -100 L190 -100 L190 -95 L185 -95 L180 -95 L180 -100 L180 -105 L185 -105 L190 -105 L190 -100 L195 -100 L195 -95 L195 -90 L190 -90 L195 -90 L195 -85 L195 -80 L190 -80 L190 -75 L185 -75 L180 -75 L180 -80 L185 -80 L185 -75 L185 -70 L180 -70 L180 -65 L175 -65 L170 -65 L170 -70 L170 -65 L165 -65 L160 -65 L160 -70 L155 -70 L155 -75 L155 -80 L160 -80 L160 -75 L155 -75 L150 -75 L150 -80 L145 -80 L145 -85 L145 -90 L150 -90 L145 -90 L145 -95 L145 -100 L150 -100 L150 -105 L155 -105 L160 -105 L160 -100 L155 -100 L155 -105 L155 -110 L160 -110 L160 -115 L165 -115 L170 -115 L170 -110 L170 -115 L175 -115 L180 -115 L180 -110 L185 -110 L185 -105 L185 -100 L180 -100 L175 -100 L175 -105 L175 -110 L180 -110 L180 -115 L185 -115 L190 -115 L190 -110 L190 -115 L195 -115 L200 -115 L200 -110 L205 -110 L205 -105 L205 -100 L200 -100 L200 -105 L205 -105 L210 -105 L210 -100 L215 -100 L215 -95 L215 -90 L210 -90 L215 -90 L215 -85 L215 -80 L210 -80 L210 -75 L205 -75 L200 -75 L200 -80 L195 -80 L195 -85 L195 -90 L200 -90 L200 -95 L205 -95 L210 -95 L210 -90 L210 -95 L215 -95 L220 -95 L220 -90 L225 -90 L225 -85 L225 -80 L220 -80 L220 -85 L225 -85 L230 -85 L230 -80 L235 -80 L235 -75 L235 -70 L230 -70 L235 -70 L235 -65 L235 -60 L230 -60 L230 -55 L225 -55 L220 -55 L220 -60 L220 -65 L225 -65 L230 -65 L230 -60 L235 -60 L235 -55 L235 -50 L230 -50 L235 -50 L235 -45 L235 -40 L230 -40 L230 -35 L225 -35 L220 -35 L220 -40 L225 -40 L225 -35 L225 -30 L220 -30 L220 -25 L215 -25 L210 -25 L210 -30 L210 -25 L205 -25 L200 -25 L200 -30 L195 -30 L195 -35 L195 -40 L200 -40 L195 -40 L195 -45 L195 -50 L200 -50 L200 -55 L205 -55 L210 -55 L210 -50 L210 -55 L215 -55 L220 -55 L220 -50 L225 -50 L225 -45 L225 -40 L220 -40 L220 -45 L225 -45 L230 -45 L230 -40 L235 -40 L235 -35 L235 -30 L230 -30 L235 -30 L235 -25 L235 -20 L230 -20 L230 -15 L225 -15 L220 -15 L220 -20 L220 -25 L225 -25 L230 -25 L230 -20 L235 -20 L235 -15 L235 -10 L230 -10 L235 -10 L235 -5 L235 5.32907e-15 L230 6.66134e-15 L230 5 L225 5 L220 5 L220 1.06581e-14 L225 1.06581e-14 L225 5 L225 10 L220 10 L220 15 L215 15 L210 15 L210 10 L210 15 L205 15 L200 15 L200 10 L195 10 L195 5 L195 2.13163e-14 L200 1.86517e-14 L200 -5 L205 -5 L210 -5 L210 1.86517e-14 L215 1.86517e-14 L215 5 L215 10 L210 10 L215 10 L215 15 L215 20 L210 20 L210 25 L205 25 L200 25 L200 20 L205 20 L205 25 L205 30 L200 30 L200 35 L195 35 L190 35 L190 30 L190 35 L185 35 L180 35 L180 30 L175 30 L175 25 L175 20 L180 20 L185 20 L185 25 L185 30 L180 30 L180 35 L175 35 L170 35 L170 30 L170 35 L165 35 L160 35 L160 30 L155 30 L155 25 L155 20 L160 20 L160 25 L155 25 L150 25 L150 20 L145 20 L145 15 L145 10 L150 10 L145 10 L145 5 L145 8.88178e-15 L150 6.21725e-15 L150 -5 L155 -5 L160 -5 L160 8.88178e-16"/>
</svg>
