<?xml version="1.0" encoding="UTF-8"?>
<svg xmlns="http://www.w3.org/2000/svg"
 version="1.1" baseProfile="basic"
 viewBox="-10 -140 285 151"
 width="1280px" height="1024px"
 stroke="white" stroke-width="1px"
 fill="black" fill-opacity="0">
<rect x="-10" y="-140" width="285" height="151" stroke-width="0px" fill-opacity="1"/>
<path d="M0 0 L0 0 L5 0 L10 0 L15 0 L20 0 L25 0 L25 -5 L20 -5 L15 -5 L10 -5 L5 -5 L0 -5 L3.06162e-16 -10 L5 -10 L10 -10 L15 -10 L20 -10 L25 -10 L30 -10 L35 -10 L40 -10 L45 -10 L50 -10 L55 -10 L55 -5 L50 -5 L45 -5 L40 -5 L35 -5 L30 -5 L30 8.88178e-16 L35 8.88178e-16 L40 8.88178e-16 L45 8.88178e-16 L50 8.88178e-16 L55 8.88178e-16 L60 8.88178e-16 L65 8.88178e-16 L70 8.88178e-16 L75 8.88178e-16 L80 8.88178e-16 L85 8.88178e-16 L85 -5 L80 -5 L75 -5 L70 -5 L65 -5 L60 -5 L60 -10 L65 -10 L70 -10 L75 -10 L80 -10 L85 -10 L85 -15 L80 -15 L75 -15 L70 -15 L65 -15 L60 -15 L60 -20 L65 -20 L70 -20 L75 -20 L80 -20 L85 -20 L85 -25 L80 -25 L75 -25 L70 -25 L65 -25 L60 -25 L55 -25 L50 -25 L45 -25 L40 -25 L35 -25 L30 -25 L30 -20 L35 -20 L40 -20 L45 -20 L50 -20 L55 -20 L55 -15 L50 -15 L45 -15 L40 -15 L35 -15 L30 -15 L25 -15 L20 -15 L15 -15 L10 -15 L5 -15 L0 -15 L3.06162e-16 -20 L5 -20 L10 -20 L15 -20 L20 -20 L25 -20 L25 -25 L20 -25 L15 -25 L10 -25 L5 -25 L0 -25 L3.06162e-16 -30 L5 -30 L10 -30 L15 -30 L20 -30 L25 -30 L25 -35 L20 -35 L15 -35 L10 -35 L5 -35 L0 -35 L3.06162e-16 -40 L5 -40 L10 -40 L15 -40 L20 -40 L25 -40 L30 -40 L35 -40 L40 -40 L45 -40 L50 -40 L55 -40 L55 -35 L50 -35 L45 -35 L40 -35 L35 -35 L30 -35 L30 -30 L35 -30 L40 -30 L45 -30 L50 -30 L55 -30 L60 -30 L65 -30 L70 -30 L75 -30 L80 -30 L85 -30 L85 -35 L80 -35 L75 -35 L70 -35 L65 -35 L60 -35 L60 -40 L65 -40 L70 -40 L75 -40 L80 -40 L85 -40 L90 -40 L95 -40 L100 -40 L105 -40 L110 -40 L115 -40 L115 -35 L110 -35 L105 -35 L100 -35 L95 -35 L90 -35 L90 -30 L95 -30 L100 -30 L105 -30 L110 -30 L115 -30 L120 -30 L125 -30 L130 -30 L135 -30 L140 -30 L145 -30 L145 -35 L140 -35 L135 -35 L130 -35 L125 -35 L120 -35 L120 -40 L125 -40 L130 -40 L135 -40 L140 -40 L145 -40 L150 -40 L155 -40 L160 -40 L165 -40 L170 -40 L175 -40 L175 -35 L170 -35 L165 -35 L160 -35 L155 -35 L150 -35 L150 -30 L155 -30 L160 -30 L165 -30 L170 -30 L175 -30 L175 -25 L170 -25 L165 -25 L160 -25 L155 -25 L150 -25 L150 -20 L155 -20 L160 -20 L165 -20 L170 -20 L175 -20 L175 -15 L170 -15 L165 -15 L160 -15 L155 -15 L150 -15 L145 -15 L140 -15 L135 -15 L130 -15 L125 -15 L120 -15 L120 -20 L125 -20 L130 -20 L135 -20 L140 -20 L145 -20 L145 -25 L140 -25 L135 -25 L130 -25 L125 -25 L120 -25 L115 -25 L110 -25 L105 -25 L100 -25 L95 -25 L90 -25 L90 -20 L95 -20 L100 -20 L105 -20 L110 -20 L115 -20 L115 -15 L110 -15 L105 -15 L100 -15 L95 -15 L90 -15 L90 -10 L95 -10 L100 -10 L105 -10 L110 -10 L115 -10 L115 -5 L110 -5 L105 -5 L100 -5 L95 -5 L90 -5 L90 4.44089e-15 L95 4.44089e-15 L100 4.44089e-15 L105 4.44089e-15 L110 4.44089e-15 L115 4.44089e-15 L120 4.44089e-15 L125 4.44089e-15 L130 4.44089e-15 L135 4.44089e-15 L140 4.44089e-15 L145 4.44089e-15 L145 -5 L140 -5 L135 -5 L130 -5 L125 -5 L120 -5 L120 -10 L125 -10 L130 -10 L135 -10 L140 -10 L145 -10 L150 -10 L155 -10 L160 -10 L165 -10 L170 -10 L175 -10 L175 -5 L170 -5 L165 -5 L160 -5 L155 -5 L150 -5 L150 4.44089e-15 L155 4.44089e-15 L160 4.44089e-15 L165 4.44089e-15 L170 4.44089e-15 L175 4.44089e-15 L180 4.44089e-15 L185 4.44089e-15 L190 4.44089e-15 L195 4.44089e-15 L200 4.44089e-15 L205 4.44089e-15 L205 -5 L200 -5 L195 -5 L190 -5 L185 -5 L180 -5 L180 -10 L185 -10 L190 -10 L195 -10 L200 -10 L205 -10 L210 -10 L215 -10 L220 -10 L225 -10 L230 -10 L235 -10 L235 -5 L230 -5 L225 -5 L220 -5 L215 -5 L210 -5 L210 4.44089e-15 L215 4.44089e-15 L220 4.44089e-15 L225 4.44089e-15 L230 4.44089e-15 L235 4.44089e-15 L240 4.44089e-15 L245 4.44089e-15 L250 4.44089e-15 L255 4.44089e-15 L260 4.44089e-15 L265 4.44089e-15 L265 -5 L260 -5 L255 -5 L250 -5 L245 -5 L240 -5 L240 -10 L245 -10 L250 -10 L255 -10 L260 -10 L265 -10 L265 -15 L260 -15 L255 -15 L250 -15 L245 -15 L240 -15 L240 -20 L245 -20 L250 -20 L255 -20 L260 -20 L265 -20 L265 -25 L260 -25 L255 -25 L250 -25 L245 -25 L240 -25 L235 -25 L230 -25 L225 -25 L220 -25 L215 -25 L210 -25 L210 -20 L215 -20 L220 -20 L225 -20 L230 -20 L235 -20 L235 -15 L230 -15 L225 -15 L220 -15 L215 -15 L210 -15 L205 -15 L200 -15 L195 -15 L190 -15 L185 -15 L180 -15 L180 -20 L185 -20 L190 -20 L195 -20 L200 -20 L205 -20 L205 -25 L200 -25 L195 -25 L190 -25 L185 -25 L180 -25 L180 -30 L185 -30 L190 -30 L195 -30 L200 -30 L205 -30 L205 -35 L200 -35 L195 -35 L190 -35 L185 -35 L180 -35 L180 -40 L185 -40 L190 -40 L195 -40 L200 -40 L205 -40 L210 -40 L215 -40 L220 -40 L225 -40 L230 -40 L235 -40 L235 -35 L230 -35 L225 -35 L220 -35 L215 -35 L210 -35 L210 -30 L215 -30 L220 -30 L225 -30 L230 -30 L235 -30 L240 -30 L245 -30 L250 -30 L255 -30 L260 -30 L265 -30 L265 -35 L260 -35 L255 -35 L250 -35 L245 -35 L240 -35 L240 -40 L245 -40 L250 -40 L255 -40 L260 -40 L265 -40 L265 -45 L260 -45 L255 -45 L250 -45 L245 -45 L240 -45 L240 -50 L245 -50 L250 -50 L255 -50 L260 -50 L265 -50 L265 -55 L260 -55 L255 -55 L250 -55 L245 -55 L240 -55 L235 -55 L230 -55 L225 -55 L220 -55 L215 -55 L210 -55 L210 -50 L215 -50 L220 -50 L225 -50 L230 -50 L235 -50 L235 -45 L230 -45 L225 -45 L220 -45 L215 -45 L210 -45 L205 -45 L200 -45 L195 -45 L190 -45 L185 -45 L180 -45 L180 -50 L185 -50 L190 -50 L195 -50 L200 -50 L205 -50 L205 -55 L200 -55 L195 -55 L190 -55 L185 -55 L180 -55 L180 -60 L185 -60 L190 -60 L195 -60 L200 -60 L205 -60 L205 -65 L200 -65 L195 -65 L190 -65 L185 -65 L180 -65 L180 -70 L185 -70 L190 -70 L195 -70 L200 -70 L205 -70 L210 -70 L215 -70 L220 -70 L225 -70 L230 -70 L235 -70 L235 -65 L230 -65 L225 -65 L220 -65 L215 -65 L210 -65 L210 -60 L215 -60 L220 -60 L225 -60 L230 -60 L235 -60 L240 -60 L245 -60 L250 -60 L255 -60 L260 -60 L265 -60 L265 -65 L260 -65 L255 -65 L250 -65 L245 -65 L240 -65 L240 -70 L245 -70 L250 -70 L255 -70 L260 -70 L265 -70 L265 -75 L260 -75 L255 -75 L250 -75 L245 -75 L240 -75 L240 -80 L245 -80 L250 -80 L255 -80 L260 -80 L265 -80 L265 -85 L260 -85 L255 -85 L250 -85 L245 -85 L240 -85 L235 -85 L230 -85 L225 -85 L220 -85 L215 -85 L210 -85 L210 -80 L215 -80 L220 -80 L225 -80 L230 -80 L235 -80 L235 -75 L230 -75 L225 -75 L220 -75 L215 -75 L210 -75 L205 -75 L200 -75 L195 -75 L190 -75 L185 -75 L180 -75 L180 -80 L185 -80 L190 -80 L195 -80 L200 -80 L205 -80 L205 -85 L200 -85 L195 -85 L190 -85 L185 -85 L180 -85 L175 -85 L170 -85 L165 -85 L160 -85 L155 -85 L150 -85 L150 -80 L155 -80 L160 -80 L165 -80 L170 -80 L175 -80 L175 -75 L170 -75 L165 -75 L160 -75 L155 -75 L150 -75 L145 -75 L140 -75 L135 -75 L130 -75 L125 -75 L120 -75 L120 -80 L125 -80 L130 -80 L135 -80 L140 -80 L145 -80 L145 -85 L140 -85 L135 -85 L130 -85 L125 -85 L120 -85 L115 -85 L110 -85 L105 -85 L100 -85 L95 -85 L90 -85 L90 -80 L95 -80 L100 -80 L105 -80 L110 -80 L115 -80 L115 -75 L110 -75 L105 -75 L100 -75 L95 -75 L90 -75 L90 -70 L95 -70 L100 -70 L105 -70 L110 -70 L115 -70 L115 -65 L110 -65 L105 -65 L100 -65 L95 -65 L90 -65 L90 -60 L95 -60 L100 -60 L105 -60 L110 -60 L115 -60 L120 -60 L125 -60 L130 -60 L135 -60 L140 -60 L145 -60 L145 -65 L140 -65 L135 -65 L130 -65 L125 -65 L120 -65 L120 -70 L125 -70 L130 -70 L135 -70 L140 -70 L145 -70 L150 -70 L155 -70 L160 -70 L165 -70 L170 -70 L175 -70 L175 -65 L170 -65 L165 -65 L160 -65 L155 -65 L150 -65 L150 -60 L155 -60 L160 -60 L165 -60 L170 -60 L175 -60 L175 -55 L170 -55 L165 -55 L160 -55 L155 -55 L150 -55 L150 -50 L155 -50 L160 -50 L165 -50 L170 -50 L175 -50 L175 -45 L170 -45 L165 -45 L160 -45 L155 -45 L150 -45 L145 -45 L140 -45 L135 -45 L130 -45 L125 -45 L120 -45 L120 -50 L125 -50 L130 -50 L135 -50 L140 -50 L145 -50 L145 -55 L140 -55 L135 -55 L130 -55 L125 -55 L120 -55 L115 -55 L110 -55 L105 -55 L100 -55 L95 -55 L90 -55 L90 -50 L95 -50 L100 -50 L105 -50 L110 -50 L115 -50 L115 -45 L110 -45 L105 -45 L100 -45 L95 -45 L90 -45 L85 -45 L80 -45 L75 -45 L70 -45 L65 -45 L60 -45 L60 -50 L65 -50 L70 -50 L75 -50 L80 -50 L85 -50 L85 -55 L80 -55 L75 -55 L70 -55 L65 -55 L60 -55 L55 -55 L50 -55 L45 -55 L40 -55 L35 -55 L30 -55 L30 -50 L35 -50 L40 -50 L45 -50 L50 -50 L55 -50 L55 -45 L50 -45 L45 -45 L40 -45 L35 -45 L30 -45 L25 -45 L20 -45 L15 -45 L10 -45 L5 -45 L0 -45 L3.06162e-16 -50 L5 -50 L10 -50 L15 -50 L20 -50 L25 -50 L25 -55 L20 -55 L15 -55 L10 -55 L5 -55 L0 -55 L3.06162e-16 -60 L5 -60 L10 -60 L15 -60 L20 -60 L25 -60 L25 -65 L20 -65 L15 -65 L10 -65 L5 -65 L0 -65 L3.06162e-16 -70 L5 -70 L10 -70 L15 -70 L20 -70 L25 -70 L30 -70 L35 -70 L40 -70 L45 -70 L50 -70 L55 -70 L55 -65 L50 -65 L45 -65 L40 -65 L35 -65 L30 -65 L30 -60 L35 -60 L40 -60 L45 -60 L50 -60 L55 -60 L60 -60 L65 -60 L70 -60 L75 -60 L80 -60 L85 -60 L85 -65 L80 -65 L75 -65 L70 -65 L65 -65 L60 -65 L60 -70 L65 -70 L70 -70 L75 -70 L80 -70 L85 -70 L85 -75 L80 -75 L75 -75 L70 -75 L65 -75 L60 -75 L60 -80 L65 -80 L70 -80 L75 -80 L80 -80 L85 -80 L85 -85 L80 -85 L75 -85 L70 -85 L65 -85 L60 -85 L55 -85 L50 -85 L45 -85 L40 -85 L35 -85 L30 -85 L30 -80 L35 -80 L40 -80 L45 -80 L50 -80 L55 -80 L55 -75 L50 -75 L45 -75 L40 -75 L35 -75 L30 -75 L25 -75 L20 -75 L15 -75 L10 -75 L5 -75 L0 -75 L3.06162e-16 -80 L5 -80 L10 -80 L15 -80 L20 -80 L25 -80 L25 -85 L20 -85 L15 -85 L10 -85 L5 -85 L0 -85 L3.06162e-16 -90 L5 -90 L10 -90 L15 -90 L20 -90 L25 -90 L25 -95 L20 -95 L15 -95 L10 -95 L5 -95 L0 -95 L3.06162e-16 -100 L5 -100 L10 -100 L15 -100 L20 -100 L25 -100 L30 -100 L35 -100 L40 -100 L45 -100 L50 -100 L55 -100 L55 -95 L50 -95 L45 -95 L40 -95 L35 -95 L30 -95 L30 -90 L35 -90 L40 -90 L45 -90 L50 -90 L55 -90 L60 -90 L65 -90 L70 -90 L75 -90 L80 -90 L85 -90 L85 -95 L80 -95 L75 -95 L70 -95 L65 -95 L60 -95 L60 -100 L65 -100 L70 -100 L75 -100 L80 -100 L85 -100 L85 -105 L80 -105 L75 -105 L70 -105 L65 -105 L60 -105 L60 -110 L65 -110 L70 -110 L75 -110 L80 -110 L85 -110 L85 -115 L80 -115 L75 -115 L70 -115 L65 -115 L60 -115 L55 -115 L50 -115 L45 -115 L40 -115 L35 -115 L30 -115 L30 -110 L35 -110 L40 -110 L45 -110 L50 -110 L55 -110 L55 -105 L50 -105 L45 -105 L40 -105 L35 -105 L30 -105 L25 -105 L20 -105 L15 -105 L10 -105 L5 -105 L0 -105 L3.06162e-16 -110 L5 -110 L10 -110 L15 -110 L20 -110 L25 -110 L25 -115 L20 -115 L15 -115 L10 -115 L5 -115 L0 -115 L3.06162e-16 -120 L5 -120 L10 -120 L15 -120 L20 -120 L25 -120 L25 -125 L20 -125 L15 -125 L10 -125 L5 -125 L0 -125 L3.06162e-16 -130 L5 -130 L10 -130 L15 -130 L20 -130 L25 -130 L30 -130 L35 -130 L40 -130 L45 -130 L50 -130 L55 -130 L55 -125 L50 -125 L45 -125 L40 -125 L35 -125 L30 -125 L30 -120 L35 -120 L40 -120 L45 -120 L50 -120 L55 -120 L60 -120 L65 -120 L70 -120 L75 -120 L80 -120 L85 -120 L85 -125 L80 -125 L75 -125 L70 -125 L65 -125 L60 -125 L60 -130 L65 -130 L70 -130 L75 -130 L80 -130 L85 -130 L90 -130 L95 -130 L100 -130 L105 -130 L110 -130 L115 -130 L115 -125 L110 -125 L105 -125 L100 -125 L95 -125 L90 -125 L90 -120 L95 -120 L100 -120 L105 -120 L110 -120 L115 -120 L120 -120 L125 -120 L130 -120 L135 -120 L140 -120 L145 -120 L145 -125 L140 -125 L135 -125 L130 -125 L125 -125 L120 -125 L120 -130 L125 -130 L130 -130 L135 -130 L140 -130 L145 -130 L150 -130 L155 -130 L160 -130 L165 -130 L170 -130 L175 -130 L175 -125 L170 -125 L165 -125 L160 -125 L155 -125 L150 -125 L150 -120 L155 -120 L160 -120 L165 -120 L170 -120 L175 -120 L175 -115 L170 -115 L165 -115 L160 -115 L155 -115 L150 -115 L150 -110 L155 -110 L160 -110 L165 -110 L170 -110 L175 -110 L175 -105 L170 -105 L165 -105 L160 -105 L155 -105 L150 -105 L145 -105 L140 -105 L135 -105 L130 -105 L125 -105 L120 -105 L120 -110 L125 -110 L130 -110 L135 -110 L140 -110 L145 -110 L145 -115 L140 -115 L135 -115 L130 -115 L125 -115 L120 -115 L115 -115 L110 -115 L105 -115 L100 -115 L95 -115 L90 -115 L90 -110 L95 -110 L100 -110 L105 -110 L110 -110 L115 -110 L115 -105 L110 -105 L105 -105 L100 -105 L95 -105 L90 -105 L90 -100 L95 -100 L100 -100 L105 -100 L110 -100 L115 -100 L115 -95 L110 -95 L105 -95 L100 -95 L95 -95 L90 -95 L90 -90 L95 -90 L100 -90 L105 -90 L110 -90 L115 -90 L120 -90 L125 -90 L130 -90 L135 -90 L140 -90 L145 -90 L145 -95 L140 -95 L135 -95 L130 -95 L125 -95 L120 -95 L120 -100 L125 -100 L130 -100 L135 -100 L140 -100 L145 -100 L150 -100 L155 -100 L160 -100 L165 -100 L170 -100 L175 -100 L175 -95 L170 -95 L165 -95 L160 -95 L155 -95 L150 -95 L150 -90 L155 -90 L160 -90 L165 -90 L170 -90 L175 -90 L180 -90 L185 -90 L190 -90 L195 -90 L200 -90 L205 -90 L205 -95 L200 -95 L195 -95 L190 -95 L185 -95 L180 -95 L180 -100 L185 -100 L190 -100 L195 -100 L200 -100 L205 -100 L210 -100 L215 -100 L220 -100 L225 -100 L230 -100 L235 -100 L235 -95 L230 -95 L225 -95 L220 -95 L215 -95 L210 -95 L210 -90 L215 -90 L220 -90 L225 -90 L230 -90 L235 -90 L240 -90 L245 -90 L250 -90 L255 -90 L260 -90 L265 -90 L265 -95 L260 -95 L255 -95 L250 -95 L245 -95 L240 -95 L240 -100 L245 -100 L250 -100 L255 -100 L260 -100 L265 -100 L265 -105 L260 -105 L255 -105 L250 -105 L245 -105 L240 -105 L240 -110 L245 -110 L250 -110 L255 -110 L260 -110 L265 -110 L265 -115 L260 -115 L255 -115 L250 -115 L245 -115 L240 -115 L235 -115 L230 -115 L225 -115 L220 -115 L215 -115 L210 -115 L210 -110 L215 -110 L220 -110 L225 -110 L230 -110 L235 -110 L235 -105 L230 -105 L225 -105 L220 -105 L215 -105 L210 -105 L205 -105 L200 -105 L195 -105 L190 -105 L185 -105 L180 -105 L180 -110 L185 -110 L190 -110 L195 -110 L200 -110 L205 -110 L205 -115 L200 -115 L195 -115 L190 -115 L185 -115 L180 -115 L180 -120 L185 -120 L190 -120 L195 -120 L200 -120 L205 -120 L205 -125 L200 -125 L195 -125 L190 -125 L185 -125 L180 -125 L180 -130 L185 -130 L190 -130 L195 -130 L200 -130 L205 -130 L210 -130 L215 -130 L220 -130 L225 -130 L230 -130 L235 -130 L235 -125 L230 -125 L225 -125 L220 -125 L215 -125 L210 -125 L210 -120 L215 -120 L220 -120 L225 -120 L230 -120 L235 -120 L240 -120 L245 -120 L250 -120 L255 -120 L260 -120 L265 -120 L265 -125 L260 -125 L255 -125 L250 -125 L245 -125 L240 -125 L240 -130 L245 -130 L250 -130 L255 -130 L260 -130 L265 -130"/>
</svg>
