<?xml version="1.0" encoding="UTF-8"?>
<svg xmlns="http://www.w3.org/2000/svg"
 version="1.1" baseProfile="basic"
 viewBox="-10 -50 105 61"
 width="1280px" height="1024px"
 stroke="white" stroke-width="1px"
 fill="black" fill-opacity="0">
<rect x="-10" y="-50" width="105" height="61" stroke-width="0px" fill-opacity="1"/>
<path d="M0 0 L0 0 L5 0 L10 0 L15 0 L20 0 L25 0 L25 -5 L20 -5 L15 -5 L10 -5 L5 -5 L0 -5 L3.06162e-16 -10 L5 -10 L10 -10 L15 -10 L20 -10 L25 -10 L30 -10 L35 -10 L40 -10 L45 -10 L50 -10 L55 -10 L55 -5 L50 -5 L45 -5 L40 -5 L35 -5 L30 -5 L30 8.88178e-16 L35 8.88178e-16 L40 8.88178e-16 L45 8.88178e-16 L50 8.88178e-16 L55 8.88178e-16 L60 8.88178e-16 L65 8.88178e-16 L70 8.88178e-16 L75 8.88178e-16 L80 8.88178e-16 L85 8.88178e-16 L85 -5 L80 -5 L75 -5 L70 -5 L65 -5 L60 -5 L60 -10 L65 -10 L70 -10 L75 -10 L80 -10 L85 -10 L85 -15 L80 -15 L75 -15 L70 -15 L65 -15 L60 -15 L60 -20 L65 -20 L70 -20 L75 -20 L80 -20 L85 -20 L85 -25 L80 -25 L75 -25 L70 -25 L65 -25 L60 -25 L55 -25 L50 -25 L45 -25 L40 -25 L35 -25 L30 -25 L30 -20 L35 -20 L40 -20 L45 -20 L50 -20 L55 -20 L55 -15 L50 -15 L45 -15 L40 -15 L35 -15 L30 -15 L25 -15 L20 -15 L15 -15 L10 -15 L5 -15 L0 -15 L3.06162e-16 -20 L5 -20 L10 -20 L15 -20 L20 -20 L25 -20 L25 -25 L20 -25 L15 -25 L10 -25 L5 -25 L0 -25 L3.06162e-16 -30 L5 -30 L10 -30 L15 -30 L20 -30 L25 -30 L25 -35 L20 -35 L15 -35 L10 -35 L5 -35 L0 -35 L3.06162e-16 -40 L5 -40 L10 -40 L15 -40 L20 -40 L25 -40 L30 -40 L35 -40 L40 -40 L45 -40 L50 -40 L55 -40 L55 -35 L50 -35 L45 -35 L40 -35 L35 -35 L30 -35 L30 -30 L35 -30 L40 -30 L45 -30 L50 -30 L55 -30 L60 -30 L65 -30 L70 -30 L75 -30 L80 -30 L85 -30 L85 -35 L80 -35 L75 -35 L70 -35 L65 -35 L60 -35 L60 -40 L65 -40 L70 -40 L75 -40 L80 -40 L85 -40"/>
</svg>
