<?xml version="1.0" encoding="UTF-8"?>
<svg xmlns="http://www.w3.org/2000/svg"
 version="1.1" baseProfile="basic"
 viewBox="-21 -63 76 74"
 width="1280px" height="1024px"
 stroke="white" stroke-width="1px"
 fill="black" fill-opacity="0">
<rect x="-21" y="-63" width="76" height="74" stroke-width="0px" fill-opacity="1"/>
<path d="M0 0 L0 0 L5 0 L6.54508 -4.75528 L2.5 -7.69421 L6.54508 -4.75528 L8.09017 0 L13.0902 0 L14.6353 -4.75528 L10.5902 -7.69421 L6.54508 -4.75528 L10.5902 -7.69421 L15.5902 -7.69421 L17.1353 -12.4495 L13.0902 -15.3884 L9.04508 -12.4495 L10.5902 -7.69421 L9.04508 -12.4495 L10.5902 -17.2048 L6.54508 -20.1437 L10.5902 -17.2048 L14.6353 -20.1437 L13.0902 -24.899 L14.6353 -20.1437 L13.0902 -15.3884 L17.1353 -12.4495 L18.6803 -7.69421 L23.6803 -7.69421 L25.2254 -12.4495 L23.6803 -7.69421 L19.6353 -4.75528 L21.1803 8.88178e-16 L26.1803 0 L27.7254 -4.75528 L23.6803 -7.69421 L27.7254 -4.75528 L29.2705 -1.77636e-15 L34.2705 -3.10862e-15 L35.8156 -4.75528 L31.7705 -7.69421 L27.7254 -4.75528 L31.7705 -7.69421 L36.7705 -7.69421 L38.3156 -12.4495 L34.2705 -15.3884 L30.2254 -12.4495 L31.7705 -7.69421 L30.2254 -12.4495 L31.7705 -17.2048 L27.7254 -20.1437 L23.6803 -17.2048 L25.2254 -12.4495 L30.2254 -12.4495 L25.2254 -12.4495 L21.1803 -15.3884 L17.1353 -12.4495 L21.1803 -15.3884 L19.6353 -20.1437 L14.6353 -20.1437 L19.6353 -20.1437 L23.6803 -17.2048 L27.7254 -20.1437 L32.7254 -20.1437 L34.2705 -24.899 L30.2254 -27.8379 L34.2705 -24.899 L35.8156 -20.1437 L40.8156 -20.1437 L42.3607 -24.899 L38.3156 -27.8379 L34.2705 -24.899 L38.3156 -27.8379 L43.3156 -27.8379 L44.8607 -32.5932 L40.8156 -35.5321 L36.7705 -32.5932 L38.3156 -27.8379 L36.7705 -32.5932 L38.3156 -37.3485 L34.2705 -40.2874 L30.2254 -37.3485 L31.7705 -32.5932 L36.7705 -32.5932 L31.7705 -32.5932 L27.7254 -35.5321 L23.6803 -32.5932 L25.2254 -27.8379 L30.2254 -27.8379 L31.7705 -32.5932 L30.2254 -27.8379 L26.1803 -24.899 L27.7254 -20.1437 L26.1803 -24.899 L21.1803 -24.899 L19.6353 -20.1437 L21.1803 -24.899 L25.2254 -27.8379 L23.6803 -32.5932 L25.2254 -37.3485 L21.1803 -40.2874 L17.1353 -37.3485 L21.1803 -40.2874 L26.1803 -40.2874 L27.7254 -45.0427 L23.6803 -47.9816 L19.6353 -45.0427 L21.1803 -40.2874 L19.6353 -45.0427 L21.1803 -49.798 L17.1353 -52.7369 L13.0902 -49.798 L14.6353 -45.0427 L19.6353 -45.0427 L14.6353 -45.0427 L10.5902 -47.9816 L6.54508 -45.0427 L8.09017 -40.2874 L13.0902 -40.2874 L14.6353 -45.0427 L13.0902 -40.2874 L9.04508 -37.3485 L10.5902 -32.5932 L15.5902 -32.5932 L17.1353 -37.3485 L13.0902 -40.2874 L17.1353 -37.3485 L18.6803 -32.5932 L23.6803 -32.5932 L18.6803 -32.5932 L17.1353 -27.8379 L21.1803 -24.899 L17.1353 -27.8379 L15.5902 -32.5932 L10.5902 -32.5932 L6.54508 -35.5321 L2.5 -32.5932 L4.04508 -27.8379 L2.5 -32.5932 L4.04508 -37.3485 L-3.9968e-14 -40.2874 L-4.04508 -37.3485 L-2.5 -32.5932 L2.5 -32.5932 L-2.5 -32.5932 L-6.54508 -35.5321 L-10.5902 -32.5932 L-9.04508 -27.8379 L-4.04508 -27.8379 L-2.5 -32.5932 L-4.04508 -27.8379 L-8.09017 -24.899 L-6.54508 -20.1437 L-1.54508 -20.1437 L3.55271e-15 -24.899 L-4.04508 -27.8379 L3.55271e-15 -24.899 L1.54508 -20.1437 L6.54508 -20.1437 L8.09017 -24.899 L4.04508 -27.8379 L3.55271e-15 -24.899 L4.04508 -27.8379 L9.04508 -27.8379 L10.5902 -32.5932 L9.04508 -27.8379 L13.0902 -24.899 L17.1353 -27.8379 L13.0902 -24.899 L8.09017 -24.899 L6.54508 -20.1437 L2.5 -17.2048 L4.04508 -12.4495 L9.04508 -12.4495 L4.04508 -12.4495 L2.84217e-14 -15.3884 L-4.04508 -12.4495 L-2.5 -7.69421 L2.5 -7.69421 L4.04508 -12.4495 L2.5 -7.69421 L-1.54508 -4.75528 L7.10543e-14 1.73195e-13"/>
</svg>
