<?xml version="1.0" encoding="UTF-8"?>
<svg xmlns="http://www.w3.org/2000/svg"
 version="1.1" baseProfile="basic"
 viewBox="-38 -149 166 160"
 width="1280px" height="1024px"
 stroke="white" stroke-width="1px"
 fill="black" fill-opacity="0">
<rect x="-38" y="-149" width="166" height="160" stroke-width="0px" fill-opacity="1"/>
<path d="M0 0 L0 0 L5 0 L6.54508 -4.75528 L2.5 -7.69421 L6.54508 -4.75528 L8.09017 0 L13.0902 0 L14.6353 -4.75528 L10.5902 -7.69421 L6.54508 -4.75528 L10.5902 -7.69421 L15.5902 -7.69421 L17.1353 -12.4495 L13.0902 -15.3884 L9.04508 -12.4495 L10.5902 -7.69421 L9.04508 -12.4495 L10.5902 -17.2048 L6.54508 -20.1437 L10.5902 -17.2048 L14.6353 -20.1437 L13.0902 -24.899 L14.6353 -20.1437 L13.0902 -15.3884 L17.1353 -12.4495 L18.6803 -7.69421 L23.6803 -7.69421 L25.2254 -12.4495 L23.6803 -7.69421 L19.6353 -4.75528 L21.1803 8.88178e-16 L26.1803 0 L27.7254 -4.75528 L23.6803 -7.69421 L27.7254 -4.75528 L29.2705 -1.77636e-15 L34.2705 -3.10862e-15 L35.8156 -4.75528 L31.7705 -7.69421 L27.7254 -4.75528 L31.7705 -7.69421 L36.7705 -7.69421 L38.3156 -12.4495 L34.2705 -15.3884 L30.2254 -12.4495 L31.7705 -7.69421 L30.2254 -12.4495 L31.7705 -17.2048 L27.7254 -20.1437 L23.6803 -17.2048 L25.2254 -12.4495 L30.2254 -12.4495 L25.2254 -12.4495 L21.1803 -15.3884 L17.1353 -12.4495 L21.1803 -15.3884 L19.6353 -20.1437 L14.6353 -20.1437 L19.6353 -20.1437 L23.6803 -17.2048 L27.7254 -20.1437 L32.7254 -20.1437 L34.2705 -24.899 L30.2254 -27.8379 L34.2705 -24.899 L35.8156 -20.1437 L40.8156 -20.1437 L42.3607 -24.899 L38.3156 -27.8379 L34.2705 -24.899 L38.3156 -27.8379 L43.3156 -27.8379 L44.8607 -32.5932 L40.8156 -35.5321 L36.7705 -32.5932 L38.3156 -27.8379 L36.7705 -32.5932 L38.3156 -37.3485 L34.2705 -40.2874 L30.2254 -37.3485 L31.7705 -32.5932 L36.7705 -32.5932 L31.7705 -32.5932 L27.7254 -35.5321 L23.6803 -32.5932 L25.2254 -27.8379 L30.2254 -27.8379 L31.7705 -32.5932 L30.2254 -27.8379 L26.1803 -24.899 L27.7254 -20.1437 L26.1803 -24.899 L21.1803 -24.899 L19.6353 -20.1437 L21.1803 -24.899 L25.2254 -27.8379 L23.6803 -32.5932 L25.2254 -37.3485 L21.1803 -40.2874 L17.1353 -37.3485 L21.1803 -40.2874 L26.1803 -40.2874 L27.7254 -45.0427 L23.6803 -47.9816 L19.6353 -45.0427 L21.1803 -40.2874 L19.6353 -45.0427 L21.1803 -49.798 L17.1353 -52.7369 L21.1803 -49.798 L25.2254 -52.7369 L23.6803 -57.4922 L25.2254 -52.7369 L23.6803 -47.9816 L27.7254 -45.0427 L31.7705 -47.9816 L30.2254 -52.7369 L25.2254 -52.7369 L30.2254 -52.7369 L34.2705 -49.798 L38.3156 -52.7369 L36.7705 -57.4922 L31.7705 -57.4922 L30.2254 -52.7369 L31.7705 -57.4922 L35.8156 -60.4311 L34.2705 -65.1864 L35.8156 -60.4311 L40.8156 -60.4311 L42.3607 -65.1864 L40.8156 -60.4311 L36.7705 -57.4922 L38.3156 -52.7369 L36.7705 -47.9816 L40.8156 -45.0427 L44.8607 -47.9816 L40.8156 -45.0427 L35.8156 -45.0427 L34.2705 -40.2874 L38.3156 -37.3485 L42.3607 -40.2874 L40.8156 -45.0427 L42.3607 -40.2874 L40.8156 -35.5321 L44.8607 -32.5932 L46.4058 -27.8379 L51.4058 -27.8379 L52.9508 -32.5932 L51.4058 -27.8379 L47.3607 -24.899 L48.9058 -20.1437 L53.9058 -20.1437 L55.4508 -24.899 L51.4058 -27.8379 L55.4508 -24.899 L56.9959 -20.1437 L61.9959 -20.1437 L63.541 -24.899 L59.4959 -27.8379 L55.4508 -24.899 L59.4959 -27.8379 L64.4959 -27.8379 L66.041 -32.5932 L64.4959 -27.8379 L68.541 -24.899 L72.5861 -27.8379 L68.541 -24.899 L63.541 -24.899 L61.9959 -20.1437 L57.9508 -17.2048 L59.4959 -12.4495 L64.4959 -12.4495 L59.4959 -12.4495 L55.4508 -15.3884 L51.4058 -12.4495 L52.9508 -7.69421 L57.9508 -7.69421 L59.4959 -12.4495 L57.9508 -7.69421 L53.9058 -4.75528 L55.4508 7.37188e-14 L60.4508 6.39488e-14 L61.9959 -4.75528 L57.9508 -7.69421 L61.9959 -4.75528 L63.541 5.77316e-14 L68.541 4.79616e-14 L70.0861 -4.75528 L66.041 -7.69421 L61.9959 -4.75528 L66.041 -7.69421 L71.041 -7.69421 L72.5861 -12.4495 L68.541 -15.3884 L64.4959 -12.4495 L66.041 -7.69421 L64.4959 -12.4495 L66.041 -17.2048 L61.9959 -20.1437 L66.041 -17.2048 L70.0861 -20.1437 L68.541 -24.899 L70.0861 -20.1437 L68.541 -15.3884 L72.5861 -12.4495 L74.1312 -7.69421 L79.1312 -7.69421 L80.6763 -12.4495 L79.1312 -7.69421 L75.0861 -4.75528 L76.6312 3.64153e-14 L81.6312 2.62013e-14 L83.1763 -4.75528 L79.1312 -7.69421 L83.1763 -4.75528 L84.7214 1.68754e-14 L89.7214 5.77316e-15 L91.2664 -4.75528 L87.2214 -7.69421 L83.1763 -4.75528 L87.2214 -7.69421 L92.2214 -7.69421 L93.7664 -12.4495 L89.7214 -15.3884 L85.6763 -12.4495 L87.2214 -7.69421 L85.6763 -12.4495 L87.2214 -17.2048 L83.1763 -20.1437 L79.1312 -17.2048 L80.6763 -12.4495 L85.6763 -12.4495 L80.6763 -12.4495 L76.6312 -15.3884 L72.5861 -12.4495 L76.6312 -15.3884 L75.0861 -20.1437 L70.0861 -20.1437 L75.0861 -20.1437 L79.1312 -17.2048 L83.1763 -20.1437 L88.1763 -20.1437 L89.7214 -24.899 L85.6763 -27.8379 L89.7214 -24.899 L91.2664 -20.1437 L96.2664 -20.1437 L97.8115 -24.899 L93.7664 -27.8379 L89.7214 -24.899 L93.7664 -27.8379 L98.7664 -27.8379 L100.312 -32.5932 L96.2664 -35.5321 L92.2214 -32.5932 L93.7664 -27.8379 L92.2214 -32.5932 L93.7664 -37.3485 L89.7214 -40.2874 L85.6763 -37.3485 L87.2214 -32.5932 L92.2214 -32.5932 L87.2214 -32.5932 L83.1763 -35.5321 L79.1312 -32.5932 L80.6763 -27.8379 L85.6763 -27.8379 L87.2214 -32.5932 L85.6763 -27.8379 L81.6312 -24.899 L83.1763 -20.1437 L81.6312 -24.899 L76.6312 -24.899 L75.0861 -20.1437 L76.6312 -24.899 L80.6763 -27.8379 L79.1312 -32.5932 L80.6763 -37.3485 L76.6312 -40.2874 L72.5861 -37.3485 L76.6312 -40.2874 L81.6312 -40.2874 L83.1763 -45.0427 L79.1312 -47.9816 L75.0861 -45.0427 L76.6312 -40.2874 L75.0861 -45.0427 L76.6312 -49.798 L72.5861 -52.7369 L68.541 -49.798 L70.0861 -45.0427 L75.0861 -45.0427 L70.0861 -45.0427 L66.041 -47.9816 L61.9959 -45.0427 L63.541 -40.2874 L68.541 -40.2874 L70.0861 -45.0427 L68.541 -40.2874 L64.4959 -37.3485 L66.041 -32.5932 L71.041 -32.5932 L72.5861 -37.3485 L68.541 -40.2874 L72.5861 -37.3485 L74.1312 -32.5932 L79.1312 -32.5932 L74.1312 -32.5932 L72.5861 -27.8379 L76.6312 -24.899 L72.5861 -27.8379 L71.041 -32.5932 L66.041 -32.5932 L61.9959 -35.5321 L57.9508 -32.5932 L59.4959 -27.8379 L57.9508 -32.5932 L59.4959 -37.3485 L55.4508 -40.2874 L51.4058 -37.3485 L52.9508 -32.5932 L57.9508 -32.5932 L52.9508 -32.5932 L48.9058 -35.5321 L44.8607 -32.5932 L48.9058 -35.5321 L47.3607 -40.2874 L42.3607 -40.2874 L47.3607 -40.2874 L51.4058 -37.3485 L55.4508 -40.2874 L53.9058 -45.0427 L48.9058 -45.0427 L47.3607 -40.2874 L48.9058 -45.0427 L52.9508 -47.9816 L51.4058 -52.7369 L46.4058 -52.7369 L44.8607 -47.9816 L48.9058 -45.0427 L44.8607 -47.9816 L43.3156 -52.7369 L38.3156 -52.7369 L43.3156 -52.7369 L44.8607 -57.4922 L40.8156 -60.4311 L44.8607 -57.4922 L46.4058 -52.7369 L51.4058 -52.7369 L55.4508 -49.798 L59.4959 -52.7369 L57.9508 -57.4922 L59.4959 -52.7369 L57.9508 -47.9816 L61.9959 -45.0427 L66.041 -47.9816 L64.4959 -52.7369 L59.4959 -52.7369 L64.4959 -52.7369 L68.541 -49.798 L72.5861 -52.7369 L77.5861 -52.7369 L79.1312 -57.4922 L75.0861 -60.4311 L79.1312 -57.4922 L80.6763 -52.7369 L85.6763 -52.7369 L87.2214 -57.4922 L83.1763 -60.4311 L79.1312 -57.4922 L83.1763 -60.4311 L88.1763 -60.4311 L89.7214 -65.1864 L85.6763 -68.1253 L81.6312 -65.1864 L83.1763 -60.4311 L81.6312 -65.1864 L83.1763 -69.9417 L79.1312 -72.8806 L83.1763 -69.9417 L87.2214 -72.8806 L85.6763 -77.6359 L87.2214 -72.8806 L85.6763 -68.1253 L89.7214 -65.1864 L91.2664 -60.4311 L96.2664 -60.4311 L97.8115 -65.1864 L96.2664 -60.4311 L92.2214 -57.4922 L93.7664 -52.7369 L98.7664 -52.7369 L100.312 -57.4922 L96.2664 -60.4311 L100.312 -57.4922 L101.857 -52.7369 L106.857 -52.7369 L108.402 -57.4922 L104.357 -60.4311 L100.312 -57.4922 L104.357 -60.4311 L109.357 -60.4311 L110.902 -65.1864 L106.857 -68.1253 L102.812 -65.1864 L104.357 -60.4311 L102.812 -65.1864 L104.357 -69.9417 L100.312 -72.8806 L96.2664 -69.9417 L97.8115 -65.1864 L102.812 -65.1864 L97.8115 -65.1864 L93.7664 -68.1253 L89.7214 -65.1864 L93.7664 -68.1253 L92.2214 -72.8806 L87.2214 -72.8806 L92.2214 -72.8806 L96.2664 -69.9417 L100.312 -72.8806 L105.312 -72.8806 L106.857 -77.6359 L102.812 -80.5748 L106.857 -77.6359 L108.402 -72.8806 L113.402 -72.8806 L114.947 -77.6359 L110.902 -80.5748 L106.857 -77.6359 L110.902 -80.5748 L115.902 -80.5748 L117.447 -85.3301 L113.402 -88.269 L109.357 -85.3301 L110.902 -80.5748 L109.357 -85.3301 L110.902 -90.0854 L106.857 -93.0243 L102.812 -90.0854 L104.357 -85.3301 L109.357 -85.3301 L104.357 -85.3301 L100.312 -88.269 L96.2664 -85.3301 L97.8115 -80.5748 L102.812 -80.5748 L104.357 -85.3301 L102.812 -80.5748 L98.7664 -77.6359 L100.312 -72.8806 L98.7664 -77.6359 L93.7664 -77.6359 L92.2214 -72.8806 L93.7664 -77.6359 L97.8115 -80.5748 L96.2664 -85.3301 L97.8115 -90.0854 L93.7664 -93.0243 L89.7214 -90.0854 L93.7664 -93.0243 L98.7664 -93.0243 L100.312 -97.7796 L96.2664 -100.719 L92.2214 -97.7796 L93.7664 -93.0243 L92.2214 -97.7796 L93.7664 -102.535 L89.7214 -105.474 L85.6763 -102.535 L87.2214 -97.7796 L92.2214 -97.7796 L87.2214 -97.7796 L83.1763 -100.719 L79.1312 -97.7796 L80.6763 -93.0243 L85.6763 -93.0243 L87.2214 -97.7796 L85.6763 -93.0243 L81.6312 -90.0854 L83.1763 -85.3301 L88.1763 -85.3301 L89.7214 -90.0854 L85.6763 -93.0243 L89.7214 -90.0854 L91.2664 -85.3301 L96.2664 -85.3301 L91.2664 -85.3301 L89.7214 -80.5748 L93.7664 -77.6359 L89.7214 -80.5748 L88.1763 -85.3301 L83.1763 -85.3301 L79.1312 -88.269 L75.0861 -85.3301 L76.6312 -80.5748 L75.0861 -85.3301 L76.6312 -90.0854 L72.5861 -93.0243 L68.541 -90.0854 L70.0861 -85.3301 L75.0861 -85.3301 L70.0861 -85.3301 L66.041 -88.269 L61.9959 -85.3301 L63.541 -80.5748 L68.541 -80.5748 L70.0861 -85.3301 L68.541 -80.5748 L64.4959 -77.6359 L66.041 -72.8806 L71.041 -72.8806 L72.5861 -77.6359 L68.541 -80.5748 L72.5861 -77.6359 L74.1312 -72.8806 L79.1312 -72.8806 L80.6763 -77.6359 L76.6312 -80.5748 L72.5861 -77.6359 L76.6312 -80.5748 L81.6312 -80.5748 L83.1763 -85.3301 L81.6312 -80.5748 L85.6763 -77.6359 L89.7214 -80.5748 L85.6763 -77.6359 L80.6763 -77.6359 L79.1312 -72.8806 L75.0861 -69.9417 L76.6312 -65.1864 L81.6312 -65.1864 L76.6312 -65.1864 L72.5861 -68.1253 L68.541 -65.1864 L70.0861 -60.4311 L75.0861 -60.4311 L76.6312 -65.1864 L75.0861 -60.4311 L71.041 -57.4922 L72.5861 -52.7369 L71.041 -57.4922 L66.041 -57.4922 L64.4959 -52.7369 L66.041 -57.4922 L70.0861 -60.4311 L68.541 -65.1864 L63.541 -65.1864 L61.9959 -60.4311 L66.041 -57.4922 L61.9959 -60.4311 L60.4508 -65.1864 L55.4508 -65.1864 L53.9058 -60.4311 L57.9508 -57.4922 L61.9959 -60.4311 L57.9508 -57.4922 L52.9508 -57.4922 L51.4058 -52.7369 L52.9508 -57.4922 L48.9058 -60.4311 L44.8607 -57.4922 L48.9058 -60.4311 L53.9058 -60.4311 L55.4508 -65.1864 L59.4959 -68.1253 L57.9508 -72.8806 L52.9508 -72.8806 L57.9508 -72.8806 L61.9959 -69.9417 L66.041 -72.8806 L64.4959 -77.6359 L59.4959 -77.6359 L57.9508 -72.8806 L59.4959 -77.6359 L63.541 -80.5748 L61.9959 -85.3301 L63.541 -90.0854 L59.4959 -93.0243 L55.4508 -90.0854 L59.4959 -93.0243 L64.4959 -93.0243 L66.041 -97.7796 L61.9959 -100.719 L57.9508 -97.7796 L59.4959 -93.0243 L57.9508 -97.7796 L59.4959 -102.535 L55.4508 -105.474 L51.4058 -102.535 L52.9508 -97.7796 L57.9508 -97.7796 L52.9508 -97.7796 L48.9058 -100.719 L44.8607 -97.7796 L48.9058 -100.719 L47.3607 -105.474 L42.3607 -105.474 L47.3607 -105.474 L51.4058 -102.535 L55.4508 -105.474 L60.4508 -105.474 L61.9959 -110.229 L57.9508 -113.168 L61.9959 -110.229 L63.541 -105.474 L68.541 -105.474 L70.0861 -110.229 L66.041 -113.168 L61.9959 -110.229 L66.041 -113.168 L71.041 -113.168 L72.5861 -117.923 L68.541 -120.862 L64.4959 -117.923 L66.041 -113.168 L64.4959 -117.923 L66.041 -122.679 L61.9959 -125.617 L57.9508 -122.679 L59.4959 -117.923 L64.4959 -117.923 L59.4959 -117.923 L55.4508 -120.862 L51.4058 -117.923 L52.9508 -113.168 L57.9508 -113.168 L59.4959 -117.923 L57.9508 -113.168 L53.9058 -110.229 L55.4508 -105.474 L53.9058 -110.229 L48.9058 -110.229 L47.3607 -105.474 L48.9058 -110.229 L52.9508 -113.168 L51.4058 -117.923 L52.9508 -122.679 L48.9058 -125.617 L44.8607 -122.679 L48.9058 -125.617 L53.9058 -125.617 L55.4508 -130.373 L51.4058 -133.312 L47.3607 -130.373 L48.9058 -125.617 L47.3607 -130.373 L48.9058 -135.128 L44.8607 -138.067 L40.8156 -135.128 L42.3607 -130.373 L47.3607 -130.373 L42.3607 -130.373 L38.3156 -133.312 L34.2705 -130.373 L35.8156 -125.617 L40.8156 -125.617 L42.3607 -130.373 L40.8156 -125.617 L36.7705 -122.679 L38.3156 -117.923 L43.3156 -117.923 L44.8607 -122.679 L40.8156 -125.617 L44.8607 -122.679 L46.4058 -117.923 L51.4058 -117.923 L46.4058 -117.923 L44.8607 -113.168 L48.9058 -110.229 L44.8607 -113.168 L43.3156 -117.923 L38.3156 -117.923 L34.2705 -120.862 L30.2254 -117.923 L31.7705 -113.168 L30.2254 -117.923 L31.7705 -122.679 L27.7254 -125.617 L23.6803 -122.679 L25.2254 -117.923 L30.2254 -117.923 L25.2254 -117.923 L21.1803 -120.862 L17.1353 -117.923 L18.6803 -113.168 L23.6803 -113.168 L25.2254 -117.923 L23.6803 -113.168 L19.6353 -110.229 L21.1803 -105.474 L26.1803 -105.474 L27.7254 -110.229 L23.6803 -113.168 L27.7254 -110.229 L29.2705 -105.474 L34.2705 -105.474 L35.8156 -110.229 L31.7705 -113.168 L27.7254 -110.229 L31.7705 -113.168 L36.7705 -113.168 L38.3156 -117.923 L36.7705 -113.168 L40.8156 -110.229 L44.8607 -113.168 L40.8156 -110.229 L35.8156 -110.229 L34.2705 -105.474 L30.2254 -102.535 L31.7705 -97.7796 L36.7705 -97.7796 L31.7705 -97.7796 L27.7254 -100.719 L23.6803 -97.7796 L25.2254 -93.0243 L30.2254 -93.0243 L31.7705 -97.7796 L30.2254 -93.0243 L26.1803 -90.0854 L27.7254 -85.3301 L32.7254 -85.3301 L34.2705 -90.0854 L30.2254 -93.0243 L34.2705 -90.0854 L35.8156 -85.3301 L40.8156 -85.3301 L42.3607 -90.0854 L38.3156 -93.0243 L34.2705 -90.0854 L38.3156 -93.0243 L43.3156 -93.0243 L44.8607 -97.7796 L40.8156 -100.719 L36.7705 -97.7796 L38.3156 -93.0243 L36.7705 -97.7796 L38.3156 -102.535 L34.2705 -105.474 L38.3156 -102.535 L42.3607 -105.474 L40.8156 -110.229 L42.3607 -105.474 L40.8156 -100.719 L44.8607 -97.7796 L46.4058 -93.0243 L51.4058 -93.0243 L52.9508 -97.7796 L51.4058 -93.0243 L47.3607 -90.0854 L48.9058 -85.3301 L53.9058 -85.3301 L55.4508 -90.0854 L51.4058 -93.0243 L55.4508 -90.0854 L56.9959 -85.3301 L61.9959 -85.3301 L56.9959 -85.3301 L55.4508 -80.5748 L59.4959 -77.6359 L55.4508 -80.5748 L53.9058 -85.3301 L48.9058 -85.3301 L47.3607 -80.5748 L51.4058 -77.6359 L55.4508 -80.5748 L51.4058 -77.6359 L46.4058 -77.6359 L44.8607 -72.8806 L48.9058 -69.9417 L52.9508 -72.8806 L51.4058 -77.6359 L52.9508 -72.8806 L51.4058 -68.1253 L55.4508 -65.1864 L51.4058 -68.1253 L47.3607 -65.1864 L48.9058 -60.4311 L47.3607 -65.1864 L48.9058 -69.9417 L44.8607 -72.8806 L43.3156 -77.6359 L38.3156 -77.6359 L36.7705 -72.8806 L38.3156 -77.6359 L42.3607 -80.5748 L40.8156 -85.3301 L35.8156 -85.3301 L34.2705 -80.5748 L38.3156 -77.6359 L34.2705 -80.5748 L32.7254 -85.3301 L27.7254 -85.3301 L23.6803 -88.269 L19.6353 -85.3301 L21.1803 -80.5748 L19.6353 -85.3301 L21.1803 -90.0854 L17.1353 -93.0243 L13.0902 -90.0854 L14.6353 -85.3301 L19.6353 -85.3301 L14.6353 -85.3301 L10.5902 -88.269 L6.54508 -85.3301 L8.09017 -80.5748 L13.0902 -80.5748 L14.6353 -85.3301 L13.0902 -80.5748 L9.04508 -77.6359 L10.5902 -72.8806 L9.04508 -77.6359 L4.04508 -77.6359 L2.5 -72.8806 L4.04508 -77.6359 L8.09017 -80.5748 L6.54508 -85.3301 L8.09017 -90.0854 L4.04508 -93.0243 L-1.22391e-12 -90.0854 L4.04508 -93.0243 L9.04508 -93.0243 L10.5902 -97.7796 L6.54508 -100.719 L2.5 -97.7796 L4.04508 -93.0243 L2.5 -97.7796 L4.04508 -102.535 L-1.32161e-12 -105.474 L-4.04508 -102.535 L-2.5 -97.7796 L2.5 -97.7796 L-2.5 -97.7796 L-6.54508 -100.719 L-10.5902 -97.7796 L-9.04508 -93.0243 L-4.04508 -93.0243 L-2.5 -97.7796 L-4.04508 -93.0243 L-8.09017 -90.0854 L-6.54508 -85.3301 L-1.54508 -85.3301 L-1.22369e-12 -90.0854 L-4.04508 -93.0243 L-1.22391e-12 -90.0854 L1.54508 -85.3301 L6.54508 -85.3301 L1.54508 -85.3301 L-1.16307e-12 -80.5748 L4.04508 -77.6359 L-1.16351e-12 -80.5748 L-1.54508 -85.3301 L-6.54508 -85.3301 L-10.5902 -88.269 L-14.6353 -85.3301 L-13.0902 -80.5748 L-14.6353 -85.3301 L-13.0902 -90.0854 L-17.1353 -93.0243 L-21.1803 -90.0854 L-19.6353 -85.3301 L-14.6353 -85.3301 L-19.6353 -85.3301 L-23.6803 -88.269 L-27.7254 -85.3301 L-26.1803 -80.5748 L-21.1803 -80.5748 L-19.6353 -85.3301 L-21.1803 -80.5748 L-25.2254 -77.6359 L-23.6803 -72.8806 L-18.6803 -72.8806 L-17.1353 -77.6359 L-21.1803 -80.5748 L-17.1353 -77.6359 L-15.5902 -72.8806 L-10.5902 -72.8806 L-9.04508 -77.6359 L-13.0902 -80.5748 L-17.1353 -77.6359 L-13.0902 -80.5748 L-8.09017 -80.5748 L-6.54508 -85.3301 L-8.09017 -80.5748 L-4.04508 -77.6359 L-1.16707e-12 -80.5748 L-4.04508 -77.6359 L-9.04508 -77.6359 L-10.5902 -72.8806 L-14.6353 -69.9417 L-13.0902 -65.1864 L-8.09017 -65.1864 L-13.0902 -65.1864 L-17.1353 -68.1253 L-21.1803 -65.1864 L-19.6353 -60.4311 L-14.6353 -60.4311 L-13.0902 -65.1864 L-14.6353 -60.4311 L-18.6803 -57.4922 L-17.1353 -52.7369 L-12.1353 -52.7369 L-10.5902 -57.4922 L-14.6353 -60.4311 L-10.5902 -57.4922 L-9.04508 -52.7369 L-4.04508 -52.7369 L-2.5 -57.4922 L-6.54508 -60.4311 L-10.5902 -57.4922 L-6.54508 -60.4311 L-1.54508 -60.4311 L-1.07181e-12 -65.1864 L-4.04508 -68.1253 L-8.09017 -65.1864 L-6.54508 -60.4311 L-8.09017 -65.1864 L-6.54508 -69.9417 L-10.5902 -72.8806 L-6.54508 -69.9417 L-2.5 -72.8806 L-4.04508 -77.6359 L-2.5 -72.8806 L-4.04508 -68.1253 L-1.07025e-12 -65.1864 L1.54508 -60.4311 L6.54508 -60.4311 L8.09017 -65.1864 L6.54508 -60.4311 L2.5 -57.4922 L4.04508 -52.7369 L9.04508 -52.7369 L10.5902 -57.4922 L6.54508 -60.4311 L10.5902 -57.4922 L12.1353 -52.7369 L17.1353 -52.7369 L18.6803 -57.4922 L14.6353 -60.4311 L10.5902 -57.4922 L14.6353 -60.4311 L19.6353 -60.4311 L21.1803 -65.1864 L17.1353 -68.1253 L13.0902 -65.1864 L14.6353 -60.4311 L13.0902 -65.1864 L14.6353 -69.9417 L10.5902 -72.8806 L6.54508 -69.9417 L8.09017 -65.1864 L13.0902 -65.1864 L8.09017 -65.1864 L4.04508 -68.1253 L-1.06937e-12 -65.1864 L4.04508 -68.1253 L2.5 -72.8806 L-2.5 -72.8806 L2.5 -72.8806 L6.54508 -69.9417 L10.5902 -72.8806 L15.5902 -72.8806 L17.1353 -77.6359 L13.0902 -80.5748 L17.1353 -77.6359 L18.6803 -72.8806 L23.6803 -72.8806 L25.2254 -77.6359 L21.1803 -80.5748 L17.1353 -77.6359 L21.1803 -80.5748 L26.1803 -80.5748 L27.7254 -85.3301 L26.1803 -80.5748 L30.2254 -77.6359 L34.2705 -80.5748 L30.2254 -77.6359 L25.2254 -77.6359 L23.6803 -72.8806 L27.7254 -69.9417 L31.7705 -72.8806 L30.2254 -77.6359 L31.7705 -72.8806 L30.2254 -68.1253 L34.2705 -65.1864 L38.3156 -68.1253 L36.7705 -72.8806 L31.7705 -72.8806 L36.7705 -72.8806 L40.8156 -69.9417 L44.8607 -72.8806 L40.8156 -69.9417 L42.3607 -65.1864 L47.3607 -65.1864 L42.3607 -65.1864 L38.3156 -68.1253 L34.2705 -65.1864 L29.2705 -65.1864 L27.7254 -60.4311 L31.7705 -57.4922 L27.7254 -60.4311 L26.1803 -65.1864 L21.1803 -65.1864 L19.6353 -60.4311 L23.6803 -57.4922 L27.7254 -60.4311 L23.6803 -57.4922 L18.6803 -57.4922 L17.1353 -52.7369 L13.0902 -49.798 L14.6353 -45.0427 L19.6353 -45.0427 L14.6353 -45.0427 L10.5902 -47.9816 L6.54508 -45.0427 L8.09017 -40.2874 L13.0902 -40.2874 L14.6353 -45.0427 L13.0902 -40.2874 L9.04508 -37.3485 L10.5902 -32.5932 L15.5902 -32.5932 L17.1353 -37.3485 L13.0902 -40.2874 L17.1353 -37.3485 L18.6803 -32.5932 L23.6803 -32.5932 L18.6803 -32.5932 L17.1353 -27.8379 L21.1803 -24.899 L17.1353 -27.8379 L15.5902 -32.5932 L10.5902 -32.5932 L6.54508 -35.5321 L2.5 -32.5932 L4.04508 -27.8379 L2.5 -32.5932 L4.04508 -37.3485 L-8.93507e-13 -40.2874 L-4.04508 -37.3485 L-2.5 -32.5932 L2.5 -32.5932 L-2.5 -32.5932 L-6.54508 -35.5321 L-10.5902 -32.5932 L-9.04508 -27.8379 L-4.04508 -27.8379 L-2.5 -32.5932 L-4.04508 -27.8379 L-8.09017 -24.899 L-6.54508 -20.1437 L-1.54508 -20.1437 L-7.97362e-13 -24.899 L-4.04508 -27.8379 L-7.97584e-13 -24.899 L1.54508 -20.1437 L6.54508 -20.1437 L8.09017 -24.899 L4.04508 -27.8379 L-7.96696e-13 -24.899 L4.04508 -27.8379 L9.04508 -27.8379 L10.5902 -32.5932 L9.04508 -27.8379 L13.0902 -24.899 L17.1353 -27.8379 L13.0902 -24.899 L8.09017 -24.899 L6.54508 -20.1437 L2.5 -17.2048 L4.04508 -12.4495 L9.04508 -12.4495 L4.04508 -12.4495 L-7.33635e-13 -15.3884 L-4.04508 -12.4495 L-2.5 -7.69421 L2.5 -7.69421 L4.04508 -12.4495 L2.5 -7.69421 L-1.54508 -4.75528 L-6.35714e-13 1.10401e-12"/>
</svg>
