<?xml version="1.0" encoding="UTF-8"?>
<svg xmlns="http://www.w3.org/2000/svg"
 version="1.1" baseProfile="basic"
 viewBox="-15 -31 43 42"
 width="1280px" height="1024px"
 stroke="white" stroke-width="1px"
 fill="black" fill-opacity="0">
<rect x="-15" y="-31" width="43" height="42" stroke-width="0px" fill-opacity="1"/>
<path d="M0 0 L0 0 L5 0 L6.54508 -4.75528 L2.5 -7.69421 L6.54508 -4.75528 L8.09017 0 L13.0902 0 L14.6353 -4.75528 L10.5902 -7.69421 L6.54508 -4.75528 L10.5902 -7.69421 L15.5902 -7.69421 L17.1353 -12.4495 L13.0902 -15.3884 L9.04508 -12.4495 L10.5902 -7.69421 L9.04508 -12.4495 L10.5902 -17.2048 L6.54508 -20.1437 L2.5 -17.2048 L4.04508 -12.4495 L9.04508 -12.4495 L4.04508 -12.4495 L-6.21725e-15 -15.3884 L-4.04508 -12.4495 L-2.5 -7.69421 L2.5 -7.69421 L4.04508 -12.4495 L2.5 -7.69421 L-1.54508 -4.75528 L6.21725e-15 7.10543e-15"/>
</svg>
