<?xml version="1.0" encoding="UTF-8"?>
<svg xmlns="http://www.w3.org/2000/svg"
 version="1.1" baseProfile="basic"
 viewBox="-10 -283 340 294"
 width="1280px" height="1024px"
 stroke="white" stroke-width="1px"
 fill="black" fill-opacity="0">
<rect x="-10" y="-283" width="340" height="294" stroke-width="0px" fill-opacity="1"/>
<path d="M0 0 L0 0 L5 0 L7.5 -4.33013 L5 -8.66025 L7.5 -12.9904 L12.5 -12.9904 L15 -8.66025 L12.5 -4.33013 L15 2.66454e-15 L20 2.66454e-15 L22.5 -4.33013 L27.5 -4.33013 L30 2.66454e-15 L35 2.66454e-15 L37.5 -4.33013 L35 -8.66025 L30 -8.66025 L27.5 -12.9904 L30 -17.3205 L27.5 -21.6506 L22.5 -21.6506 L20 -17.3205 L15 -17.3205 L12.5 -21.6506 L15 -25.9808 L20 -25.9808 L22.5 -30.3109 L20 -34.641 L22.5 -38.9711 L27.5 -38.9711 L30 -34.641 L35 -34.641 L37.5 -38.9711 L35 -43.3013 L30 -43.3013 L27.5 -47.6314 L30 -51.9615 L35 -51.9615 L37.5 -56.2917 L35 -60.6218 L37.5 -64.9519 L42.5 -64.9519 L45 -60.6218 L42.5 -56.2917 L45 -51.9615 L50 -51.9615 L52.5 -47.6314 L50 -43.3013 L45 -43.3013 L42.5 -38.9711 L45 -34.641 L50 -34.641 L52.5 -38.9711 L57.5 -38.9711 L60 -34.641 L57.5 -30.3109 L60 -25.9808 L65 -25.9808 L67.5 -21.6506 L65 -17.3205 L60 -17.3205 L57.5 -21.6506 L52.5 -21.6506 L50 -17.3205 L52.5 -12.9904 L50 -8.66025 L45 -8.66025 L42.5 -4.33013 L45 -2.66454e-15 L50 -2.66454e-15 L52.5 -4.33013 L57.5 -4.33013 L60 -2.66454e-15 L65 -2.66454e-15 L67.5 -4.33013 L65 -8.66025 L67.5 -12.9904 L72.5 -12.9904 L75 -8.66025 L72.5 -4.33013 L75 -8.88178e-16 L80 -8.88178e-16 L82.5 -4.33013 L87.5 -4.33013 L90 -8.88178e-16 L95 -8.88178e-16 L97.5 -4.33013 L95 -8.66025 L90 -8.66025 L87.5 -12.9904 L90 -17.3205 L95 -17.3205 L97.5 -21.6506 L95 -25.9808 L97.5 -30.3109 L102.5 -30.3109 L105 -25.9808 L102.5 -21.6506 L105 -17.3205 L110 -17.3205 L112.5 -12.9904 L110 -8.66025 L105 -8.66025 L102.5 -4.33013 L105 8.88178e-16 L110 8.88178e-16 L112.5 -4.33013 L117.5 -4.33013 L120 8.88178e-16 L125 8.88178e-16 L127.5 -4.33013 L125 -8.66025 L127.5 -12.9904 L132.5 -12.9904 L135 -8.66025 L132.5 -4.33013 L135 2.66454e-15 L140 2.66454e-15 L142.5 -4.33013 L147.5 -4.33013 L150 2.66454e-15 L155 2.66454e-15 L157.5 -4.33013 L155 -8.66025 L150 -8.66025 L147.5 -12.9904 L150 -17.3205 L147.5 -21.6506 L142.5 -21.6506 L140 -17.3205 L135 -17.3205 L132.5 -21.6506 L135 -25.9808 L140 -25.9808 L142.5 -30.3109 L140 -34.641 L135 -34.641 L132.5 -38.9711 L135 -43.3013 L132.5 -47.6314 L127.5 -47.6314 L125 -43.3013 L127.5 -38.9711 L125 -34.641 L120 -34.641 L117.5 -38.9711 L112.5 -38.9711 L110 -34.641 L105 -34.641 L102.5 -38.9711 L105 -43.3013 L110 -43.3013 L112.5 -47.6314 L110 -51.9615 L112.5 -56.2917 L117.5 -56.2917 L120 -51.9615 L125 -51.9615 L127.5 -56.2917 L125 -60.6218 L120 -60.6218 L117.5 -64.9519 L120 -69.282 L117.5 -73.6122 L112.5 -73.6122 L110 -69.282 L105 -69.282 L102.5 -73.6122 L105 -77.9423 L110 -77.9423 L112.5 -82.2724 L110 -86.6025 L105 -86.6025 L102.5 -90.9327 L105 -95.2628 L102.5 -99.5929 L97.5 -99.5929 L95 -95.2628 L97.5 -90.9327 L95 -86.6025 L90 -86.6025 L87.5 -82.2724 L90 -77.9423 L95 -77.9423 L97.5 -73.6122 L95 -69.282 L90 -69.282 L87.5 -73.6122 L82.5 -73.6122 L80 -69.282 L75 -69.282 L72.5 -73.6122 L75 -77.9423 L72.5 -82.2724 L67.5 -82.2724 L65 -77.9423 L67.5 -73.6122 L65 -69.282 L60 -69.282 L57.5 -73.6122 L52.5 -73.6122 L50 -69.282 L45 -69.282 L42.5 -73.6122 L45 -77.9423 L50 -77.9423 L52.5 -82.2724 L50 -86.6025 L52.5 -90.9327 L57.5 -90.9327 L60 -86.6025 L65 -86.6025 L67.5 -90.9327 L65 -95.2628 L60 -95.2628 L57.5 -99.5929 L60 -103.923 L65 -103.923 L67.5 -108.253 L65 -112.583 L67.5 -116.913 L72.5 -116.913 L75 -112.583 L72.5 -108.253 L75 -103.923 L80 -103.923 L82.5 -108.253 L87.5 -108.253 L90 -103.923 L95 -103.923 L97.5 -108.253 L95 -112.583 L90 -112.583 L87.5 -116.913 L90 -121.244 L87.5 -125.574 L82.5 -125.574 L80 -121.244 L75 -121.244 L72.5 -125.574 L75 -129.904 L80 -129.904 L82.5 -134.234 L80 -138.564 L82.5 -142.894 L87.5 -142.894 L90 -138.564 L95 -138.564 L97.5 -142.894 L95 -147.224 L90 -147.224 L87.5 -151.554 L90 -155.885 L95 -155.885 L97.5 -160.215 L95 -164.545 L97.5 -168.875 L102.5 -168.875 L105 -164.545 L102.5 -160.215 L105 -155.885 L110 -155.885 L112.5 -151.554 L110 -147.224 L105 -147.224 L102.5 -142.894 L105 -138.564 L110 -138.564 L112.5 -142.894 L117.5 -142.894 L120 -138.564 L125 -138.564 L127.5 -142.894 L125 -147.224 L127.5 -151.554 L132.5 -151.554 L135 -147.224 L132.5 -142.894 L135 -138.564 L140 -138.564 L142.5 -142.894 L147.5 -142.894 L150 -138.564 L155 -138.564 L157.5 -142.894 L155 -147.224 L150 -147.224 L147.5 -151.554 L150 -155.885 L147.5 -160.215 L142.5 -160.215 L140 -155.885 L135 -155.885 L132.5 -160.215 L135 -164.545 L140 -164.545 L142.5 -168.875 L140 -173.205 L135 -173.205 L132.5 -177.535 L135 -181.865 L132.5 -186.195 L127.5 -186.195 L125 -181.865 L127.5 -177.535 L125 -173.205 L120 -173.205 L117.5 -177.535 L112.5 -177.535 L110 -173.205 L105 -173.205 L102.5 -177.535 L105 -181.865 L110 -181.865 L112.5 -186.195 L110 -190.526 L112.5 -194.856 L117.5 -194.856 L120 -190.526 L125 -190.526 L127.5 -194.856 L125 -199.186 L120 -199.186 L117.5 -203.516 L120 -207.846 L125 -207.846 L127.5 -212.176 L125 -216.506 L127.5 -220.836 L132.5 -220.836 L135 -216.506 L132.5 -212.176 L135 -207.846 L140 -207.846 L142.5 -212.176 L147.5 -212.176 L150 -207.846 L155 -207.846 L157.5 -212.176 L155 -216.506 L150 -216.506 L147.5 -220.836 L150 -225.167 L147.5 -229.497 L142.5 -229.497 L140 -225.167 L135 -225.167 L132.5 -229.497 L135 -233.827 L140 -233.827 L142.5 -238.157 L140 -242.487 L142.5 -246.817 L147.5 -246.817 L150 -242.487 L155 -242.487 L157.5 -246.817 L155 -251.147 L150 -251.147 L147.5 -255.477 L150 -259.808 L155 -259.808 L157.5 -264.138 L155 -268.468 L157.5 -272.798 L162.5 -272.798 L165 -268.468 L162.5 -264.138 L165 -259.808 L170 -259.808 L172.5 -255.477 L170 -251.147 L165 -251.147 L162.5 -246.817 L165 -242.487 L170 -242.487 L172.5 -246.817 L177.5 -246.817 L180 -242.487 L177.5 -238.157 L180 -233.827 L185 -233.827 L187.5 -229.497 L185 -225.167 L180 -225.167 L177.5 -229.497 L172.5 -229.497 L170 -225.167 L172.5 -220.836 L170 -216.506 L165 -216.506 L162.5 -212.176 L165 -207.846 L170 -207.846 L172.5 -212.176 L177.5 -212.176 L180 -207.846 L185 -207.846 L187.5 -212.176 L185 -216.506 L187.5 -220.836 L192.5 -220.836 L195 -216.506 L192.5 -212.176 L195 -207.846 L200 -207.846 L202.5 -203.516 L200 -199.186 L195 -199.186 L192.5 -194.856 L195 -190.526 L200 -190.526 L202.5 -194.856 L207.5 -194.856 L210 -190.526 L207.5 -186.195 L210 -181.865 L215 -181.865 L217.5 -177.535 L215 -173.205 L210 -173.205 L207.5 -177.535 L202.5 -177.535 L200 -173.205 L195 -173.205 L192.5 -177.535 L195 -181.865 L192.5 -186.195 L187.5 -186.195 L185 -181.865 L187.5 -177.535 L185 -173.205 L180 -173.205 L177.5 -168.875 L180 -164.545 L185 -164.545 L187.5 -160.215 L185 -155.885 L180 -155.885 L177.5 -160.215 L172.5 -160.215 L170 -155.885 L172.5 -151.554 L170 -147.224 L165 -147.224 L162.5 -142.894 L165 -138.564 L170 -138.564 L172.5 -142.894 L177.5 -142.894 L180 -138.564 L185 -138.564 L187.5 -142.894 L185 -147.224 L187.5 -151.554 L192.5 -151.554 L195 -147.224 L192.5 -142.894 L195 -138.564 L200 -138.564 L202.5 -142.894 L207.5 -142.894 L210 -138.564 L215 -138.564 L217.5 -142.894 L215 -147.224 L210 -147.224 L207.5 -151.554 L210 -155.885 L215 -155.885 L217.5 -160.215 L215 -164.545 L217.5 -168.875 L222.5 -168.875 L225 -164.545 L222.5 -160.215 L225 -155.885 L230 -155.885 L232.5 -151.554 L230 -147.224 L225 -147.224 L222.5 -142.894 L225 -138.564 L230 -138.564 L232.5 -142.894 L237.5 -142.894 L240 -138.564 L237.5 -134.234 L240 -129.904 L245 -129.904 L247.5 -125.574 L245 -121.244 L240 -121.244 L237.5 -125.574 L232.5 -125.574 L230 -121.244 L232.5 -116.913 L230 -112.583 L225 -112.583 L222.5 -108.253 L225 -103.923 L230 -103.923 L232.5 -108.253 L237.5 -108.253 L240 -103.923 L245 -103.923 L247.5 -108.253 L245 -112.583 L247.5 -116.913 L252.5 -116.913 L255 -112.583 L252.5 -108.253 L255 -103.923 L260 -103.923 L262.5 -99.5929 L260 -95.2628 L255 -95.2628 L252.5 -90.9327 L255 -86.6025 L260 -86.6025 L262.5 -90.9327 L267.5 -90.9327 L270 -86.6025 L267.5 -82.2724 L270 -77.9423 L275 -77.9423 L277.5 -73.6122 L275 -69.282 L270 -69.282 L267.5 -73.6122 L262.5 -73.6122 L260 -69.282 L255 -69.282 L252.5 -73.6122 L255 -77.9423 L252.5 -82.2724 L247.5 -82.2724 L245 -77.9423 L247.5 -73.6122 L245 -69.282 L240 -69.282 L237.5 -73.6122 L232.5 -73.6122 L230 -69.282 L225 -69.282 L222.5 -73.6122 L225 -77.9423 L230 -77.9423 L232.5 -82.2724 L230 -86.6025 L225 -86.6025 L222.5 -90.9327 L225 -95.2628 L222.5 -99.5929 L217.5 -99.5929 L215 -95.2628 L217.5 -90.9327 L215 -86.6025 L210 -86.6025 L207.5 -82.2724 L210 -77.9423 L215 -77.9423 L217.5 -73.6122 L215 -69.282 L210 -69.282 L207.5 -73.6122 L202.5 -73.6122 L200 -69.282 L202.5 -64.9519 L200 -60.6218 L195 -60.6218 L192.5 -56.2917 L195 -51.9615 L200 -51.9615 L202.5 -56.2917 L207.5 -56.2917 L210 -51.9615 L207.5 -47.6314 L210 -43.3013 L215 -43.3013 L217.5 -38.9711 L215 -34.641 L210 -34.641 L207.5 -38.9711 L202.5 -38.9711 L200 -34.641 L195 -34.641 L192.5 -38.9711 L195 -43.3013 L192.5 -47.6314 L187.5 -47.6314 L185 -43.3013 L187.5 -38.9711 L185 -34.641 L180 -34.641 L177.5 -30.3109 L180 -25.9808 L185 -25.9808 L187.5 -21.6506 L185 -17.3205 L180 -17.3205 L177.5 -21.6506 L172.5 -21.6506 L170 -17.3205 L172.5 -12.9904 L170 -8.66025 L165 -8.66025 L162.5 -4.33013 L165 -2.39808e-14 L170 -2.39808e-14 L172.5 -4.33013 L177.5 -4.33013 L180 -2.39808e-14 L185 -2.39808e-14 L187.5 -4.33013 L185 -8.66025 L187.5 -12.9904 L192.5 -12.9904 L195 -8.66025 L192.5 -4.33013 L195 -2.22045e-14 L200 -2.22045e-14 L202.5 -4.33013 L207.5 -4.33013 L210 -2.22045e-14 L215 -2.22045e-14 L217.5 -4.33013 L215 -8.66025 L210 -8.66025 L207.5 -12.9904 L210 -17.3205 L215 -17.3205 L217.5 -21.6506 L215 -25.9808 L217.5 -30.3109 L222.5 -30.3109 L225 -25.9808 L222.5 -21.6506 L225 -17.3205 L230 -17.3205 L232.5 -12.9904 L230 -8.66025 L225 -8.66025 L222.5 -4.33013 L225 -2.04281e-14 L230 -2.04281e-14 L232.5 -4.33013 L237.5 -4.33013 L240 -2.04281e-14 L245 -2.04281e-14 L247.5 -4.33013 L245 -8.66025 L247.5 -12.9904 L252.5 -12.9904 L255 -8.66025 L252.5 -4.33013 L255 -1.86517e-14 L260 -1.86517e-14 L262.5 -4.33013 L267.5 -4.33013 L270 -1.86517e-14 L275 -1.86517e-14 L277.5 -4.33013 L275 -8.66025 L270 -8.66025 L267.5 -12.9904 L270 -17.3205 L267.5 -21.6506 L262.5 -21.6506 L260 -17.3205 L255 -17.3205 L252.5 -21.6506 L255 -25.9808 L260 -25.9808 L262.5 -30.3109 L260 -34.641 L262.5 -38.9711 L267.5 -38.9711 L270 -34.641 L275 -34.641 L277.5 -38.9711 L275 -43.3013 L270 -43.3013 L267.5 -47.6314 L270 -51.9615 L275 -51.9615 L277.5 -56.2917 L275 -60.6218 L277.5 -64.9519 L282.5 -64.9519 L285 -60.6218 L282.5 -56.2917 L285 -51.9615 L290 -51.9615 L292.5 -47.6314 L290 -43.3013 L285 -43.3013 L282.5 -38.9711 L285 -34.641 L290 -34.641 L292.5 -38.9711 L297.5 -38.9711 L300 -34.641 L297.5 -30.3109 L300 -25.9808 L305 -25.9808 L307.5 -21.6506 L305 -17.3205 L300 -17.3205 L297.5 -21.6506 L292.5 -21.6506 L290 -17.3205 L292.5 -12.9904 L290 -8.66025 L285 -8.66025 L282.5 -4.33013 L285 -3.10862e-14 L290 -3.10862e-14 L292.5 -4.33013 L297.5 -4.33013 L300 -3.10862e-14 L305 -3.10862e-14 L307.5 -4.33013 L305 -8.66025 L307.5 -12.9904 L312.5 -12.9904 L315 -8.66025 L312.5 -4.33013 L315 -2.93099e-14 L320 -2.93099e-14"/>
</svg>
