<?xml version="1.0" encoding="UTF-8"?>
<svg xmlns="http://www.w3.org/2000/svg"
 version="1.1" baseProfile="basic"
 viewBox="-10 -41 60 52"
 width="1280px" height="1024px"
 stroke="white" stroke-width="1px"
 fill="black" fill-opacity="0">
<rect x="-10" y="-41" width="60" height="52" stroke-width="0px" fill-opacity="1"/>
<path d="M0 0 L0 0 L2.5 -4.33013 L7.5 -4.33013 L10 0 L15 0 L17.5 -4.33013 L15 -8.66025 L10 -8.66025 L7.5 -12.9904 L10 -17.3205 L15 -17.3205 L17.5 -21.6506 L15 -25.9808 L17.5 -30.3109 L22.5 -30.3109 L25 -25.9808 L22.5 -21.6506 L25 -17.3205 L30 -17.3205 L32.5 -12.9904 L30 -8.66025 L25 -8.66025 L22.5 -4.33013 L25 1.5099e-14 L30 1.5099e-14 L32.5 -4.33013 L37.5 -4.33013 L40 1.5099e-14"/>
</svg>
