<?xml version="1.0" encoding="UTF-8"?>
<svg xmlns="http://www.w3.org/2000/svg"
 version="1.1" baseProfile="basic"
 viewBox="-10 -1115 1300 1126"
 width="1280px" height="1024px"
 stroke="white" stroke-width="1px"
 fill="black" fill-opacity="0">
<rect x="-10" y="-1115" width="1300" height="1126" stroke-width="0px" fill-opacity="1"/>
<path d="M0 0 L0 0 L5 0 L7.5 -4.33013 L5 -8.66025 L7.5 -12.9904 L12.5 -12.9904 L15 -8.66025 L12.5 -4.33013 L15 2.66454e-15 L20 2.66454e-15 L22.5 -4.33013 L27.5 -4.33013 L30 2.66454e-15 L35 2.66454e-15 L37.5 -4.33013 L35 -8.66025 L30 -8.66025 L27.5 -12.9904 L30 -17.3205 L27.5 -21.6506 L22.5 -21.6506 L20 -17.3205 L15 -17.3205 L12.5 -21.6506 L15 -25.9808 L20 -25.9808 L22.5 -30.3109 L20 -34.641 L22.5 -38.9711 L27.5 -38.9711 L30 -34.641 L35 -34.641 L37.5 -38.9711 L35 -43.3013 L30 -43.3013 L27.5 -47.6314 L30 -51.9615 L35 -51.9615 L37.5 -56.2917 L35 -60.6218 L37.5 -64.9519 L42.5 -64.9519 L45 -60.6218 L42.5 -56.2917 L45 -51.9615 L50 -51.9615 L52.5 -47.6314 L50 -43.3013 L45 -43.3013 L42.5 -38.9711 L45 -34.641 L50 -34.641 L52.5 -38.9711 L57.5 -38.9711 L60 -34.641 L57.5 -30.3109 L60 -25.9808 L65 -25.9808 L67.5 -21.6506 L65 -17.3205 L60 -17.3205 L57.5 -21.6506 L52.5 -21.6506 L50 -17.3205 L52.5 -12.9904 L50 -8.66025 L45 -8.66025 L42.5 -4.33013 L45 -2.66454e-15 L50 -2.66454e-15 L52.5 -4.33013 L57.5 -4.33013 L60 -2.66454e-15 L65 -2.66454e-15 L67.5 -4.33013 L65 -8.66025 L67.5 -12.9904 L72.5 -12.9904 L75 -8.66025 L72.5 -4.33013 L75 -8.88178e-16 L80 -8.88178e-16 L82.5 -4.33013 L87.5 -4.33013 L90 -8.88178e-16 L95 -8.88178e-16 L97.5 -4.33013 L95 -8.66025 L90 -8.66025 L87.5 -12.9904 L90 -17.3205 L95 -17.3205 L97.5 -21.6506 L95 -25.9808 L97.5 -30.3109 L102.5 -30.3109 L105 -25.9808 L102.5 -21.6506 L105 -17.3205 L110 -17.3205 L112.5 -12.9904 L110 -8.66025 L105 -8.66025 L102.5 -4.33013 L105 8.88178e-16 L110 8.88178e-16 L112.5 -4.33013 L117.5 -4.33013 L120 8.88178e-16 L125 8.88178e-16 L127.5 -4.33013 L125 -8.66025 L127.5 -12.9904 L132.5 -12.9904 L135 -8.66025 L132.5 -4.33013 L135 2.66454e-15 L140 2.66454e-15 L142.5 -4.33013 L147.5 -4.33013 L150 2.66454e-15 L155 2.66454e-15 L157.5 -4.33013 L155 -8.66025 L150 -8.66025 L147.5 -12.9904 L150 -17.3205 L147.5 -21.6506 L142.5 -21.6506 L140 -17.3205 L135 -17.3205 L132.5 -21.6506 L135 -25.9808 L140 -25.9808 L142.5 -30.3109 L140 -34.641 L135 -34.641 L132.5 -38.9711 L135 -43.3013 L132.5 -47.6314 L127.5 -47.6314 L125 -43.3013 L127.5 -38.9711 L125 -34.641 L120 -34.641 L117.5 -38.9711 L112.5 -38.9711 L110 -34.641 L105 -34.641 L102.5 -38.9711 L105 -43.3013 L110 -43.3013 L112.5 -47.6314 L110 -51.9615 L112.5 -56.2917 L117.5 -56.2917 L120 -51.9615 L125 -51.9615 L127.5 -56.2917 L125 -60.6218 L120 -60.6218 L117.5 -64.9519 L120 -69.282 L117.5 -73.6122 L112.5 -73.6122 L110 -69.282 L105 -69.282 L102.5 -73.6122 L105 -77.9423 L110 -77.9423 L112.5 -82.2724 L110 -86.6025 L105 -86.6025 L102.5 -90.9327 L105 -95.2628 L102.5 -99.5929 L97.5 -99.5929 L95 -95.2628 L97.5 -90.9327 L95 -86.6025 L90 -86.6025 L87.5 -82.2724 L90 -77.9423 L95 -77.9423 L97.5 -73.6122 L95 -69.282 L90 -69.282 L87.5 -73.6122 L82.5 -73.6122 L80 -69.282 L75 -69.282 L72.5 -73.6122 L75 -77.9423 L72.5 -82.2724 L67.5 -82.2724 L65 -77.9423 L67.5 -73.6122 L65 -69.282 L60 -69.282 L57.5 -73.6122 L52.5 -73.6122 L50 -69.282 L45 -69.282 L42.5 -73.6122 L45 -77.9423 L50 -77.9423 L52.5 -82.2724 L50 -86.6025 L52.5 -90.9327 L57.5 -90.9327 L60 -86.6025 L65 -86.6025 L67.5 -90.9327 L65 -95.2628 L60 -95.2628 L57.5 -99.5929 L60 -103.923 L65 -103.923 L67.5 -108.253 L65 -112.583 L67.5 -116.913 L72.5 -116.913 L75 -112.583 L72.5 -108.253 L75 -103.923 L80 -103.923 L82.5 -108.253 L87.5 -108.253 L90 -103.923 L95 -103.923 L97.5 -108.253 L95 -112.583 L90 -112.583 L87.5 -116.913 L90 -121.244 L87.5 -125.574 L82.5 -125.574 L80 -121.244 L75 -121.244 L72.5 -125.574 L75 -129.904 L80 -129.904 L82.5 -134.234 L80 -138.564 L82.5 -142.894 L87.5 -142.894 L90 -138.564 L95 -138.564 L97.5 -142.894 L95 -147.224 L90 -147.224 L87.5 -151.554 L90 -155.885 L95 -155.885 L97.5 -160.215 L95 -164.545 L97.5 -168.875 L102.5 -168.875 L105 -164.545 L102.5 -160.215 L105 -155.885 L110 -155.885 L112.5 -151.554 L110 -147.224 L105 -147.224 L102.5 -142.894 L105 -138.564 L110 -138.564 L112.5 -142.894 L117.5 -142.894 L120 -138.564 L125 -138.564 L127.5 -142.894 L125 -147.224 L127.5 -151.554 L132.5 -151.554 L135 -147.224 L132.5 -142.894 L135 -138.564 L140 -138.564 L142.5 -142.894 L147.5 -142.894 L150 -138.564 L155 -138.564 L157.5 -142.894 L155 -147.224 L150 -147.224 L147.5 -151.554 L150 -155.885 L147.5 -160.215 L142.5 -160.215 L140 -155.885 L135 -155.885 L132.5 -160.215 L135 -164.545 L140 -164.545 L142.5 -168.875 L140 -173.205 L135 -173.205 L132.5 -177.535 L135 -181.865 L132.5 -186.195 L127.5 -186.195 L125 -181.865 L127.5 -177.535 L125 -173.205 L120 -173.205 L117.5 -177.535 L112.5 -177.535 L110 -173.205 L105 -173.205 L102.5 -177.535 L105 -181.865 L110 -181.865 L112.5 -186.195 L110 -190.526 L112.5 -194.856 L117.5 -194.856 L120 -190.526 L125 -190.526 L127.5 -194.856 L125 -199.186 L120 -199.186 L117.5 -203.516 L120 -207.846 L125 -207.846 L127.5 -212.176 L125 -216.506 L127.5 -220.836 L132.5 -220.836 L135 -216.506 L132.5 -212.176 L135 -207.846 L140 -207.846 L142.5 -212.176 L147.5 -212.176 L150 -207.846 L155 -207.846 L157.5 -212.176 L155 -216.506 L150 -216.506 L147.5 -220.836 L150 -225.167 L147.5 -229.497 L142.5 -229.497 L140 -225.167 L135 -225.167 L132.5 -229.497 L135 -233.827 L140 -233.827 L142.5 -238.157 L140 -242.487 L142.5 -246.817 L147.5 -246.817 L150 -242.487 L155 -242.487 L157.5 -246.817 L155 -251.147 L150 -251.147 L147.5 -255.477 L150 -259.808 L155 -259.808 L157.5 -264.138 L155 -268.468 L157.5 -272.798 L162.5 -272.798 L165 -268.468 L162.5 -264.138 L165 -259.808 L170 -259.808 L172.5 -255.477 L170 -251.147 L165 -251.147 L162.5 -246.817 L165 -242.487 L170 -242.487 L172.5 -246.817 L177.5 -246.817 L180 -242.487 L177.5 -238.157 L180 -233.827 L185 -233.827 L187.5 -229.497 L185 -225.167 L180 -225.167 L177.5 -229.497 L172.5 -229.497 L170 -225.167 L172.5 -220.836 L170 -216.506 L165 -216.506 L162.5 -212.176 L165 -207.846 L170 -207.846 L172.5 -212.176 L177.5 -212.176 L180 -207.846 L185 -207.846 L187.5 -212.176 L185 -216.506 L187.5 -220.836 L192.5 -220.836 L195 -216.506 L192.5 -212.176 L195 -207.846 L200 -207.846 L202.5 -203.516 L200 -199.186 L195 -199.186 L192.5 -194.856 L195 -190.526 L200 -190.526 L202.5 -194.856 L207.5 -194.856 L210 -190.526 L207.5 -186.195 L210 -181.865 L215 -181.865 L217.5 -177.535 L215 -173.205 L210 -173.205 L207.5 -177.535 L202.5 -177.535 L200 -173.205 L195 -173.205 L192.5 -177.535 L195 -181.865 L192.5 -186.195 L187.5 -186.195 L185 -181.865 L187.5 -177.535 L185 -173.205 L180 -173.205 L177.5 -168.875 L180 -164.545 L185 -164.545 L187.5 -160.215 L185 -155.885 L180 -155.885 L177.5 -160.215 L172.5 -160.215 L170 -155.885 L172.5 -151.554 L170 -147.224 L165 -147.224 L162.5 -142.894 L165 -138.564 L170 -138.564 L172.5 -142.894 L177.5 -142.894 L180 -138.564 L185 -138.564 L187.5 -142.894 L185 -147.224 L187.5 -151.554 L192.5 -151.554 L195 -147.224 L192.5 -142.894 L195 -138.564 L200 -138.564 L202.5 -142.894 L207.5 -142.894 L210 -138.564 L215 -138.564 L217.5 -142.894 L215 -147.224 L210 -147.224 L207.5 -151.554 L210 -155.885 L215 -155.885 L217.5 -160.215 L215 -164.545 L217.5 -168.875 L222.5 -168.875 L225 -164.545 L222.5 -160.215 L225 -155.885 L230 -155.885 L232.5 -151.554 L230 -147.224 L225 -147.224 L222.5 -142.894 L225 -138.564 L230 -138.564 L232.5 -142.894 L237.5 -142.894 L240 -138.564 L237.5 -134.234 L240 -129.904 L245 -129.904 L247.5 -125.574 L245 -121.244 L240 -121.244 L237.5 -125.574 L232.5 -125.574 L230 -121.244 L232.5 -116.913 L230 -112.583 L225 -112.583 L222.5 -108.253 L225 -103.923 L230 -103.923 L232.5 -108.253 L237.5 -108.253 L240 -103.923 L245 -103.923 L247.5 -108.253 L245 -112.583 L247.5 -116.913 L252.5 -116.913 L255 -112.583 L252.5 -108.253 L255 -103.923 L260 -103.923 L262.5 -99.5929 L260 -95.2628 L255 -95.2628 L252.5 -90.9327 L255 -86.6025 L260 -86.6025 L262.5 -90.9327 L267.5 -90.9327 L270 -86.6025 L267.5 -82.2724 L270 -77.9423 L275 -77.9423 L277.5 -73.6122 L275 -69.282 L270 -69.282 L267.5 -73.6122 L262.5 -73.6122 L260 -69.282 L255 -69.282 L252.5 -73.6122 L255 -77.9423 L252.5 -82.2724 L247.5 -82.2724 L245 -77.9423 L247.5 -73.6122 L245 -69.282 L240 -69.282 L237.5 -73.6122 L232.5 -73.6122 L230 -69.282 L225 -69.282 L222.5 -73.6122 L225 -77.9423 L230 -77.9423 L232.5 -82.2724 L230 -86.6025 L225 -86.6025 L222.5 -90.9327 L225 -95.2628 L222.5 -99.5929 L217.5 -99.5929 L215 -95.2628 L217.5 -90.9327 L215 -86.6025 L210 -86.6025 L207.5 -82.2724 L210 -77.9423 L215 -77.9423 L217.5 -73.6122 L215 -69.282 L210 -69.282 L207.5 -73.6122 L202.5 -73.6122 L200 -69.282 L202.5 -64.9519 L200 -60.6218 L195 -60.6218 L192.5 -56.2917 L195 -51.9615 L200 -51.9615 L202.5 -56.2917 L207.5 -56.2917 L210 -51.9615 L207.5 -47.6314 L210 -43.3013 L215 -43.3013 L217.5 -38.9711 L215 -34.641 L210 -34.641 L207.5 -38.9711 L202.5 -38.9711 L200 -34.641 L195 -34.641 L192.5 -38.9711 L195 -43.3013 L192.5 -47.6314 L187.5 -47.6314 L185 -43.3013 L187.5 -38.9711 L185 -34.641 L180 -34.641 L177.5 -30.3109 L180 -25.9808 L185 -25.9808 L187.5 -21.6506 L185 -17.3205 L180 -17.3205 L177.5 -21.6506 L172.5 -21.6506 L170 -17.3205 L172.5 -12.9904 L170 -8.66025 L165 -8.66025 L162.5 -4.33013 L165 -2.39808e-14 L170 -2.39808e-14 L172.5 -4.33013 L177.5 -4.33013 L180 -2.39808e-14 L185 -2.39808e-14 L187.5 -4.33013 L185 -8.66025 L187.5 -12.9904 L192.5 -12.9904 L195 -8.66025 L192.5 -4.33013 L195 -2.22045e-14 L200 -2.22045e-14 L202.5 -4.33013 L207.5 -4.33013 L210 -2.22045e-14 L215 -2.22045e-14 L217.5 -4.33013 L215 -8.66025 L210 -8.66025 L207.5 -12.9904 L210 -17.3205 L215 -17.3205 L217.5 -21.6506 L215 -25.9808 L217.5 -30.3109 L222.5 -30.3109 L225 -25.9808 L222.5 -21.6506 L225 -17.3205 L230 -17.3205 L232.5 -12.9904 L230 -8.66025 L225 -8.66025 L222.5 -4.33013 L225 -2.04281e-14 L230 -2.04281e-14 L232.5 -4.33013 L237.5 -4.33013 L240 -2.04281e-14 L245 -2.04281e-14 L247.5 -4.33013 L245 -8.66025 L247.5 -12.9904 L252.5 -12.9904 L255 -8.66025 L252.5 -4.33013 L255 -1.86517e-14 L260 -1.86517e-14 L262.5 -4.33013 L267.5 -4.33013 L270 -1.86517e-14 L275 -1.86517e-14 L277.5 -4.33013 L275 -8.66025 L270 -8.66025 L267.5 -12.9904 L270 -17.3205 L267.5 -21.6506 L262.5 -21.6506 L260 -17.3205 L255 -17.3205 L252.5 -21.6506 L255 -25.9808 L260 -25.9808 L262.5 -30.3109 L260 -34.641 L262.5 -38.9711 L267.5 -38.9711 L270 -34.641 L275 -34.641 L277.5 -38.9711 L275 -43.3013 L270 -43.3013 L267.5 -47.6314 L270 -51.9615 L275 -51.9615 L277.5 -56.2917 L275 -60.6218 L277.5 -64.9519 L282.5 -64.9519 L285 -60.6218 L282.5 -56.2917 L285 -51.9615 L290 -51.9615 L292.5 -47.6314 L290 -43.3013 L285 -43.3013 L282.5 -38.9711 L285 -34.641 L290 -34.641 L292.5 -38.9711 L297.5 -38.9711 L300 -34.641 L297.5 -30.3109 L300 -25.9808 L305 -25.9808 L307.5 -21.6506 L305 -17.3205 L300 -17.3205 L297.5 -21.6506 L292.5 -21.6506 L290 -17.3205 L292.5 -12.9904 L290 -8.66025 L285 -8.66025 L282.5 -4.33013 L285 -3.10862e-14 L290 -3.10862e-14 L292.5 -4.33013 L297.5 -4.33013 L300 -3.10862e-14 L305 -3.10862e-14 L307.5 -4.33013 L305 -8.66025 L307.5 -12.9904 L312.5 -12.9904 L315 -8.66025 L312.5 -4.33013 L315 -2.93099e-14 L320 -2.93099e-14 L322.5 -4.33013 L327.5 -4.33013 L330 -2.93099e-14 L335 -2.93099e-14 L337.5 -4.33013 L335 -8.66025 L330 -8.66025 L327.5 -12.9904 L330 -17.3205 L335 -17.3205 L337.5 -21.6506 L335 -25.9808 L337.5 -30.3109 L342.5 -30.3109 L345 -25.9808 L342.5 -21.6506 L345 -17.3205 L350 -17.3205 L352.5 -12.9904 L350 -8.66025 L345 -8.66025 L342.5 -4.33013 L345 -2.75335e-14 L350 -2.75335e-14 L352.5 -4.33013 L357.5 -4.33013 L360 -2.75335e-14 L365 -2.75335e-14 L367.5 -4.33013 L365 -8.66025 L367.5 -12.9904 L372.5 -12.9904 L375 -8.66025 L372.5 -4.33013 L375 -2.57572e-14 L380 -2.57572e-14 L382.5 -4.33013 L387.5 -4.33013 L390 -2.57572e-14 L395 -2.57572e-14 L397.5 -4.33013 L395 -8.66025 L390 -8.66025 L387.5 -12.9904 L390 -17.3205 L387.5 -21.6506 L382.5 -21.6506 L380 -17.3205 L375 -17.3205 L372.5 -21.6506 L375 -25.9808 L380 -25.9808 L382.5 -30.3109 L380 -34.641 L375 -34.641 L372.5 -38.9711 L375 -43.3013 L372.5 -47.6314 L367.5 -47.6314 L365 -43.3013 L367.5 -38.9711 L365 -34.641 L360 -34.641 L357.5 -38.9711 L352.5 -38.9711 L350 -34.641 L345 -34.641 L342.5 -38.9711 L345 -43.3013 L350 -43.3013 L352.5 -47.6314 L350 -51.9615 L352.5 -56.2917 L357.5 -56.2917 L360 -51.9615 L365 -51.9615 L367.5 -56.2917 L365 -60.6218 L360 -60.6218 L357.5 -64.9519 L360 -69.282 L365 -69.282 L367.5 -73.6122 L365 -77.9423 L367.5 -82.2724 L372.5 -82.2724 L375 -77.9423 L372.5 -73.6122 L375 -69.282 L380 -69.282 L382.5 -73.6122 L387.5 -73.6122 L390 -69.282 L395 -69.282 L397.5 -73.6122 L395 -77.9423 L390 -77.9423 L387.5 -82.2724 L390 -86.6025 L387.5 -90.9327 L382.5 -90.9327 L380 -86.6025 L375 -86.6025 L372.5 -90.9327 L375 -95.2628 L380 -95.2628 L382.5 -99.5929 L380 -103.923 L382.5 -108.253 L387.5 -108.253 L390 -103.923 L395 -103.923 L397.5 -108.253 L395 -112.583 L390 -112.583 L387.5 -116.913 L390 -121.244 L395 -121.244 L397.5 -125.574 L395 -129.904 L397.5 -134.234 L402.5 -134.234 L405 -129.904 L402.5 -125.574 L405 -121.244 L410 -121.244 L412.5 -116.913 L410 -112.583 L405 -112.583 L402.5 -108.253 L405 -103.923 L410 -103.923 L412.5 -108.253 L417.5 -108.253 L420 -103.923 L417.5 -99.5929 L420 -95.2628 L425 -95.2628 L427.5 -90.9327 L425 -86.6025 L420 -86.6025 L417.5 -90.9327 L412.5 -90.9327 L410 -86.6025 L412.5 -82.2724 L410 -77.9423 L405 -77.9423 L402.5 -73.6122 L405 -69.282 L410 -69.282 L412.5 -73.6122 L417.5 -73.6122 L420 -69.282 L425 -69.282 L427.5 -73.6122 L425 -77.9423 L427.5 -82.2724 L432.5 -82.2724 L435 -77.9423 L432.5 -73.6122 L435 -69.282 L440 -69.282 L442.5 -64.9519 L440 -60.6218 L435 -60.6218 L432.5 -56.2917 L435 -51.9615 L440 -51.9615 L442.5 -56.2917 L447.5 -56.2917 L450 -51.9615 L447.5 -47.6314 L450 -43.3013 L455 -43.3013 L457.5 -38.9711 L455 -34.641 L450 -34.641 L447.5 -38.9711 L442.5 -38.9711 L440 -34.641 L435 -34.641 L432.5 -38.9711 L435 -43.3013 L432.5 -47.6314 L427.5 -47.6314 L425 -43.3013 L427.5 -38.9711 L425 -34.641 L420 -34.641 L417.5 -30.3109 L420 -25.9808 L425 -25.9808 L427.5 -21.6506 L425 -17.3205 L420 -17.3205 L417.5 -21.6506 L412.5 -21.6506 L410 -17.3205 L412.5 -12.9904 L410 -8.66025 L405 -8.66025 L402.5 -4.33013 L405 -2.39808e-14 L410 -2.39808e-14 L412.5 -4.33013 L417.5 -4.33013 L420 -2.39808e-14 L425 -2.39808e-14 L427.5 -4.33013 L425 -8.66025 L427.5 -12.9904 L432.5 -12.9904 L435 -8.66025 L432.5 -4.33013 L435 -2.22045e-14 L440 -2.22045e-14 L442.5 -4.33013 L447.5 -4.33013 L450 -2.22045e-14 L455 -2.22045e-14 L457.5 -4.33013 L455 -8.66025 L450 -8.66025 L447.5 -12.9904 L450 -17.3205 L455 -17.3205 L457.5 -21.6506 L455 -25.9808 L457.5 -30.3109 L462.5 -30.3109 L465 -25.9808 L462.5 -21.6506 L465 -17.3205 L470 -17.3205 L472.5 -12.9904 L470 -8.66025 L465 -8.66025 L462.5 -4.33013 L465 -2.04281e-14 L470 -2.04281e-14 L472.5 -4.33013 L477.5 -4.33013 L480 -2.04281e-14 L485 -2.04281e-14 L487.5 -4.33013 L485 -8.66025 L487.5 -12.9904 L492.5 -12.9904 L495 -8.66025 L492.5 -4.33013 L495 -1.86517e-14 L500 -1.86517e-14 L502.5 -4.33013 L507.5 -4.33013 L510 -1.86517e-14 L515 -1.86517e-14 L517.5 -4.33013 L515 -8.66025 L510 -8.66025 L507.5 -12.9904 L510 -17.3205 L507.5 -21.6506 L502.5 -21.6506 L500 -17.3205 L495 -17.3205 L492.5 -21.6506 L495 -25.9808 L500 -25.9808 L502.5 -30.3109 L500 -34.641 L502.5 -38.9711 L507.5 -38.9711 L510 -34.641 L515 -34.641 L517.5 -38.9711 L515 -43.3013 L510 -43.3013 L507.5 -47.6314 L510 -51.9615 L515 -51.9615 L517.5 -56.2917 L515 -60.6218 L517.5 -64.9519 L522.5 -64.9519 L525 -60.6218 L522.5 -56.2917 L525 -51.9615 L530 -51.9615 L532.5 -47.6314 L530 -43.3013 L525 -43.3013 L522.5 -38.9711 L525 -34.641 L530 -34.641 L532.5 -38.9711 L537.5 -38.9711 L540 -34.641 L537.5 -30.3109 L540 -25.9808 L545 -25.9808 L547.5 -21.6506 L545 -17.3205 L540 -17.3205 L537.5 -21.6506 L532.5 -21.6506 L530 -17.3205 L532.5 -12.9904 L530 -8.66025 L525 -8.66025 L522.5 -4.33013 L525 -3.10862e-14 L530 -3.10862e-14 L532.5 -4.33013 L537.5 -4.33013 L540 -3.10862e-14 L545 -3.10862e-14 L547.5 -4.33013 L545 -8.66025 L547.5 -12.9904 L552.5 -12.9904 L555 -8.66025 L552.5 -4.33013 L555 -2.93099e-14 L560 -2.93099e-14 L562.5 -4.33013 L567.5 -4.33013 L570 -2.93099e-14 L575 -2.93099e-14 L577.5 -4.33013 L575 -8.66025 L570 -8.66025 L567.5 -12.9904 L570 -17.3205 L575 -17.3205 L577.5 -21.6506 L575 -25.9808 L577.5 -30.3109 L582.5 -30.3109 L585 -25.9808 L582.5 -21.6506 L585 -17.3205 L590 -17.3205 L592.5 -12.9904 L590 -8.66025 L585 -8.66025 L582.5 -4.33013 L585 -2.75335e-14 L590 -2.75335e-14 L592.5 -4.33013 L597.5 -4.33013 L600 -2.75335e-14 L605 -2.75335e-14 L607.5 -4.33013 L605 -8.66025 L607.5 -12.9904 L612.5 -12.9904 L615 -8.66025 L612.5 -4.33013 L615 -2.57572e-14 L620 -2.57572e-14 L622.5 -4.33013 L627.5 -4.33013 L630 -2.57572e-14 L635 -2.57572e-14 L637.5 -4.33013 L635 -8.66025 L630 -8.66025 L627.5 -12.9904 L630 -17.3205 L627.5 -21.6506 L622.5 -21.6506 L620 -17.3205 L615 -17.3205 L612.5 -21.6506 L615 -25.9808 L620 -25.9808 L622.5 -30.3109 L620 -34.641 L615 -34.641 L612.5 -38.9711 L615 -43.3013 L612.5 -47.6314 L607.5 -47.6314 L605 -43.3013 L607.5 -38.9711 L605 -34.641 L600 -34.641 L597.5 -38.9711 L592.5 -38.9711 L590 -34.641 L585 -34.641 L582.5 -38.9711 L585 -43.3013 L590 -43.3013 L592.5 -47.6314 L590 -51.9615 L592.5 -56.2917 L597.5 -56.2917 L600 -51.9615 L605 -51.9615 L607.5 -56.2917 L605 -60.6218 L600 -60.6218 L597.5 -64.9519 L600 -69.282 L597.5 -73.6122 L592.5 -73.6122 L590 -69.282 L585 -69.282 L582.5 -73.6122 L585 -77.9423 L590 -77.9423 L592.5 -82.2724 L590 -86.6025 L585 -86.6025 L582.5 -90.9327 L585 -95.2628 L582.5 -99.5929 L577.5 -99.5929 L575 -95.2628 L577.5 -90.9327 L575 -86.6025 L570 -86.6025 L567.5 -82.2724 L570 -77.9423 L575 -77.9423 L577.5 -73.6122 L575 -69.282 L570 -69.282 L567.5 -73.6122 L562.5 -73.6122 L560 -69.282 L555 -69.282 L552.5 -73.6122 L555 -77.9423 L552.5 -82.2724 L547.5 -82.2724 L545 -77.9423 L547.5 -73.6122 L545 -69.282 L540 -69.282 L537.5 -73.6122 L532.5 -73.6122 L530 -69.282 L525 -69.282 L522.5 -73.6122 L525 -77.9423 L530 -77.9423 L532.5 -82.2724 L530 -86.6025 L532.5 -90.9327 L537.5 -90.9327 L540 -86.6025 L545 -86.6025 L547.5 -90.9327 L545 -95.2628 L540 -95.2628 L537.5 -99.5929 L540 -103.923 L545 -103.923 L547.5 -108.253 L545 -112.583 L547.5 -116.913 L552.5 -116.913 L555 -112.583 L552.5 -108.253 L555 -103.923 L560 -103.923 L562.5 -108.253 L567.5 -108.253 L570 -103.923 L575 -103.923 L577.5 -108.253 L575 -112.583 L570 -112.583 L567.5 -116.913 L570 -121.244 L567.5 -125.574 L562.5 -125.574 L560 -121.244 L555 -121.244 L552.5 -125.574 L555 -129.904 L560 -129.904 L562.5 -134.234 L560 -138.564 L555 -138.564 L552.5 -142.894 L555 -147.224 L552.5 -151.554 L547.5 -151.554 L545 -147.224 L547.5 -142.894 L545 -138.564 L540 -138.564 L537.5 -142.894 L532.5 -142.894 L530 -138.564 L525 -138.564 L522.5 -142.894 L525 -147.224 L530 -147.224 L532.5 -151.554 L530 -155.885 L532.5 -160.215 L537.5 -160.215 L540 -155.885 L545 -155.885 L547.5 -160.215 L545 -164.545 L540 -164.545 L537.5 -168.875 L540 -173.205 L537.5 -177.535 L532.5 -177.535 L530 -173.205 L525 -173.205 L522.5 -177.535 L525 -181.865 L530 -181.865 L532.5 -186.195 L530 -190.526 L525 -190.526 L522.5 -194.856 L525 -199.186 L522.5 -203.516 L517.5 -203.516 L515 -199.186 L517.5 -194.856 L515 -190.526 L510 -190.526 L507.5 -186.195 L510 -181.865 L515 -181.865 L517.5 -177.535 L515 -173.205 L510 -173.205 L507.5 -177.535 L502.5 -177.535 L500 -173.205 L502.5 -168.875 L500 -164.545 L495 -164.545 L492.5 -160.215 L495 -155.885 L500 -155.885 L502.5 -160.215 L507.5 -160.215 L510 -155.885 L507.5 -151.554 L510 -147.224 L515 -147.224 L517.5 -142.894 L515 -138.564 L510 -138.564 L507.5 -142.894 L502.5 -142.894 L500 -138.564 L495 -138.564 L492.5 -142.894 L495 -147.224 L492.5 -151.554 L487.5 -151.554 L485 -147.224 L487.5 -142.894 L485 -138.564 L480 -138.564 L477.5 -142.894 L472.5 -142.894 L470 -138.564 L465 -138.564 L462.5 -142.894 L465 -147.224 L470 -147.224 L472.5 -151.554 L470 -155.885 L465 -155.885 L462.5 -160.215 L465 -164.545 L462.5 -168.875 L457.5 -168.875 L455 -164.545 L457.5 -160.215 L455 -155.885 L450 -155.885 L447.5 -151.554 L450 -147.224 L455 -147.224 L457.5 -142.894 L455 -138.564 L450 -138.564 L447.5 -142.894 L442.5 -142.894 L440 -138.564 L435 -138.564 L432.5 -142.894 L435 -147.224 L432.5 -151.554 L427.5 -151.554 L425 -147.224 L427.5 -142.894 L425 -138.564 L420 -138.564 L417.5 -142.894 L412.5 -142.894 L410 -138.564 L405 -138.564 L402.5 -142.894 L405 -147.224 L410 -147.224 L412.5 -151.554 L410 -155.885 L412.5 -160.215 L417.5 -160.215 L420 -155.885 L425 -155.885 L427.5 -160.215 L425 -164.545 L420 -164.545 L417.5 -168.875 L420 -173.205 L425 -173.205 L427.5 -177.535 L425 -181.865 L427.5 -186.195 L432.5 -186.195 L435 -181.865 L432.5 -177.535 L435 -173.205 L440 -173.205 L442.5 -177.535 L447.5 -177.535 L450 -173.205 L455 -173.205 L457.5 -177.535 L455 -181.865 L450 -181.865 L447.5 -186.195 L450 -190.526 L447.5 -194.856 L442.5 -194.856 L440 -190.526 L435 -190.526 L432.5 -194.856 L435 -199.186 L440 -199.186 L442.5 -203.516 L440 -207.846 L442.5 -212.176 L447.5 -212.176 L450 -207.846 L455 -207.846 L457.5 -212.176 L455 -216.506 L450 -216.506 L447.5 -220.836 L450 -225.167 L455 -225.167 L457.5 -229.497 L455 -233.827 L457.5 -238.157 L462.5 -238.157 L465 -233.827 L462.5 -229.497 L465 -225.167 L470 -225.167 L472.5 -220.836 L470 -216.506 L465 -216.506 L462.5 -212.176 L465 -207.846 L470 -207.846 L472.5 -212.176 L477.5 -212.176 L480 -207.846 L485 -207.846 L487.5 -212.176 L485 -216.506 L487.5 -220.836 L492.5 -220.836 L495 -216.506 L492.5 -212.176 L495 -207.846 L500 -207.846 L502.5 -212.176 L507.5 -212.176 L510 -207.846 L515 -207.846 L517.5 -212.176 L515 -216.506 L510 -216.506 L507.5 -220.836 L510 -225.167 L507.5 -229.497 L502.5 -229.497 L500 -225.167 L495 -225.167 L492.5 -229.497 L495 -233.827 L500 -233.827 L502.5 -238.157 L500 -242.487 L495 -242.487 L492.5 -246.817 L495 -251.147 L492.5 -255.477 L487.5 -255.477 L485 -251.147 L487.5 -246.817 L485 -242.487 L480 -242.487 L477.5 -246.817 L472.5 -246.817 L470 -242.487 L465 -242.487 L462.5 -246.817 L465 -251.147 L470 -251.147 L472.5 -255.477 L470 -259.808 L472.5 -264.138 L477.5 -264.138 L480 -259.808 L485 -259.808 L487.5 -264.138 L485 -268.468 L480 -268.468 L477.5 -272.798 L480 -277.128 L477.5 -281.458 L472.5 -281.458 L470 -277.128 L465 -277.128 L462.5 -281.458 L465 -285.788 L470 -285.788 L472.5 -290.119 L470 -294.449 L465 -294.449 L462.5 -298.779 L465 -303.109 L462.5 -307.439 L457.5 -307.439 L455 -303.109 L457.5 -298.779 L455 -294.449 L450 -294.449 L447.5 -290.119 L450 -285.788 L455 -285.788 L457.5 -281.458 L455 -277.128 L450 -277.128 L447.5 -281.458 L442.5 -281.458 L440 -277.128 L435 -277.128 L432.5 -281.458 L435 -285.788 L432.5 -290.119 L427.5 -290.119 L425 -285.788 L427.5 -281.458 L425 -277.128 L420 -277.128 L417.5 -281.458 L412.5 -281.458 L410 -277.128 L405 -277.128 L402.5 -281.458 L405 -285.788 L410 -285.788 L412.5 -290.119 L410 -294.449 L412.5 -298.779 L417.5 -298.779 L420 -294.449 L425 -294.449 L427.5 -298.779 L425 -303.109 L420 -303.109 L417.5 -307.439 L420 -311.769 L425 -311.769 L427.5 -316.099 L425 -320.429 L427.5 -324.76 L432.5 -324.76 L435 -320.429 L432.5 -316.099 L435 -311.769 L440 -311.769 L442.5 -316.099 L447.5 -316.099 L450 -311.769 L455 -311.769 L457.5 -316.099 L455 -320.429 L450 -320.429 L447.5 -324.76 L450 -329.09 L447.5 -333.42 L442.5 -333.42 L440 -329.09 L435 -329.09 L432.5 -333.42 L435 -337.75 L440 -337.75 L442.5 -342.08 L440 -346.41 L435 -346.41 L432.5 -350.74 L435 -355.07 L432.5 -359.401 L427.5 -359.401 L425 -355.07 L427.5 -350.74 L425 -346.41 L420 -346.41 L417.5 -350.74 L412.5 -350.74 L410 -346.41 L405 -346.41 L402.5 -350.74 L405 -355.07 L410 -355.07 L412.5 -359.401 L410 -363.731 L412.5 -368.061 L417.5 -368.061 L420 -363.731 L425 -363.731 L427.5 -368.061 L425 -372.391 L420 -372.391 L417.5 -376.721 L420 -381.051 L417.5 -385.381 L412.5 -385.381 L410 -381.051 L405 -381.051 L402.5 -385.381 L405 -389.711 L410 -389.711 L412.5 -394.042 L410 -398.372 L405 -398.372 L402.5 -402.702 L405 -407.032 L402.5 -411.362 L397.5 -411.362 L395 -407.032 L397.5 -402.702 L395 -398.372 L390 -398.372 L387.5 -394.042 L390 -389.711 L395 -389.711 L397.5 -385.381 L395 -381.051 L390 -381.051 L387.5 -385.381 L382.5 -385.381 L380 -381.051 L382.5 -376.721 L380 -372.391 L375 -372.391 L372.5 -368.061 L375 -363.731 L380 -363.731 L382.5 -368.061 L387.5 -368.061 L390 -363.731 L387.5 -359.401 L390 -355.07 L395 -355.07 L397.5 -350.74 L395 -346.41 L390 -346.41 L387.5 -350.74 L382.5 -350.74 L380 -346.41 L375 -346.41 L372.5 -350.74 L375 -355.07 L372.5 -359.401 L367.5 -359.401 L365 -355.07 L367.5 -350.74 L365 -346.41 L360 -346.41 L357.5 -342.08 L360 -337.75 L365 -337.75 L367.5 -333.42 L365 -329.09 L360 -329.09 L357.5 -333.42 L352.5 -333.42 L350 -329.09 L352.5 -324.76 L350 -320.429 L345 -320.429 L342.5 -316.099 L345 -311.769 L350 -311.769 L352.5 -316.099 L357.5 -316.099 L360 -311.769 L365 -311.769 L367.5 -316.099 L365 -320.429 L367.5 -324.76 L372.5 -324.76 L375 -320.429 L372.5 -316.099 L375 -311.769 L380 -311.769 L382.5 -307.439 L380 -303.109 L375 -303.109 L372.5 -298.779 L375 -294.449 L380 -294.449 L382.5 -298.779 L387.5 -298.779 L390 -294.449 L387.5 -290.119 L390 -285.788 L395 -285.788 L397.5 -281.458 L395 -277.128 L390 -277.128 L387.5 -281.458 L382.5 -281.458 L380 -277.128 L375 -277.128 L372.5 -281.458 L375 -285.788 L372.5 -290.119 L367.5 -290.119 L365 -285.788 L367.5 -281.458 L365 -277.128 L360 -277.128 L357.5 -281.458 L352.5 -281.458 L350 -277.128 L345 -277.128 L342.5 -281.458 L345 -285.788 L350 -285.788 L352.5 -290.119 L350 -294.449 L345 -294.449 L342.5 -298.779 L345 -303.109 L342.5 -307.439 L337.5 -307.439 L335 -303.109 L337.5 -298.779 L335 -294.449 L330 -294.449 L327.5 -290.119 L330 -285.788 L335 -285.788 L337.5 -281.458 L335 -277.128 L330 -277.128 L327.5 -281.458 L322.5 -281.458 L320 -277.128 L315 -277.128 L312.5 -281.458 L315 -285.788 L312.5 -290.119 L307.5 -290.119 L305 -285.788 L307.5 -281.458 L305 -277.128 L300 -277.128 L297.5 -281.458 L292.5 -281.458 L290 -277.128 L285 -277.128 L282.5 -281.458 L285 -285.788 L290 -285.788 L292.5 -290.119 L290 -294.449 L292.5 -298.779 L297.5 -298.779 L300 -294.449 L305 -294.449 L307.5 -298.779 L305 -303.109 L300 -303.109 L297.5 -307.439 L300 -311.769 L297.5 -316.099 L292.5 -316.099 L290 -311.769 L285 -311.769 L282.5 -316.099 L285 -320.429 L290 -320.429 L292.5 -324.76 L290 -329.09 L285 -329.09 L282.5 -333.42 L285 -337.75 L282.5 -342.08 L277.5 -342.08 L275 -337.75 L277.5 -333.42 L275 -329.09 L270 -329.09 L267.5 -324.76 L270 -320.429 L275 -320.429 L277.5 -316.099 L275 -311.769 L270 -311.769 L267.5 -316.099 L262.5 -316.099 L260 -311.769 L262.5 -307.439 L260 -303.109 L255 -303.109 L252.5 -298.779 L255 -294.449 L260 -294.449 L262.5 -298.779 L267.5 -298.779 L270 -294.449 L267.5 -290.119 L270 -285.788 L275 -285.788 L277.5 -281.458 L275 -277.128 L270 -277.128 L267.5 -281.458 L262.5 -281.458 L260 -277.128 L255 -277.128 L252.5 -281.458 L255 -285.788 L252.5 -290.119 L247.5 -290.119 L245 -285.788 L247.5 -281.458 L245 -277.128 L240 -277.128 L237.5 -281.458 L232.5 -281.458 L230 -277.128 L225 -277.128 L222.5 -281.458 L225 -285.788 L230 -285.788 L232.5 -290.119 L230 -294.449 L225 -294.449 L222.5 -298.779 L225 -303.109 L222.5 -307.439 L217.5 -307.439 L215 -303.109 L217.5 -298.779 L215 -294.449 L210 -294.449 L207.5 -290.119 L210 -285.788 L215 -285.788 L217.5 -281.458 L215 -277.128 L210 -277.128 L207.5 -281.458 L202.5 -281.458 L200 -277.128 L195 -277.128 L192.5 -281.458 L195 -285.788 L192.5 -290.119 L187.5 -290.119 L185 -285.788 L187.5 -281.458 L185 -277.128 L180 -277.128 L177.5 -281.458 L172.5 -281.458 L170 -277.128 L165 -277.128 L162.5 -281.458 L165 -285.788 L170 -285.788 L172.5 -290.119 L170 -294.449 L172.5 -298.779 L177.5 -298.779 L180 -294.449 L185 -294.449 L187.5 -298.779 L185 -303.109 L180 -303.109 L177.5 -307.439 L180 -311.769 L185 -311.769 L187.5 -316.099 L185 -320.429 L187.5 -324.76 L192.5 -324.76 L195 -320.429 L192.5 -316.099 L195 -311.769 L200 -311.769 L202.5 -316.099 L207.5 -316.099 L210 -311.769 L215 -311.769 L217.5 -316.099 L215 -320.429 L210 -320.429 L207.5 -324.76 L210 -329.09 L207.5 -333.42 L202.5 -333.42 L200 -329.09 L195 -329.09 L192.5 -333.42 L195 -337.75 L200 -337.75 L202.5 -342.08 L200 -346.41 L202.5 -350.74 L207.5 -350.74 L210 -346.41 L215 -346.41 L217.5 -350.74 L215 -355.07 L210 -355.07 L207.5 -359.401 L210 -363.731 L215 -363.731 L217.5 -368.061 L215 -372.391 L217.5 -376.721 L222.5 -376.721 L225 -372.391 L222.5 -368.061 L225 -363.731 L230 -363.731 L232.5 -359.401 L230 -355.07 L225 -355.07 L222.5 -350.74 L225 -346.41 L230 -346.41 L232.5 -350.74 L237.5 -350.74 L240 -346.41 L245 -346.41 L247.5 -350.74 L245 -355.07 L247.5 -359.401 L252.5 -359.401 L255 -355.07 L252.5 -350.74 L255 -346.41 L260 -346.41 L262.5 -350.74 L267.5 -350.74 L270 -346.41 L275 -346.41 L277.5 -350.74 L275 -355.07 L270 -355.07 L267.5 -359.401 L270 -363.731 L267.5 -368.061 L262.5 -368.061 L260 -363.731 L255 -363.731 L252.5 -368.061 L255 -372.391 L260 -372.391 L262.5 -376.721 L260 -381.051 L255 -381.051 L252.5 -385.381 L255 -389.711 L252.5 -394.042 L247.5 -394.042 L245 -389.711 L247.5 -385.381 L245 -381.051 L240 -381.051 L237.5 -385.381 L232.5 -385.381 L230 -381.051 L225 -381.051 L222.5 -385.381 L225 -389.711 L230 -389.711 L232.5 -394.042 L230 -398.372 L232.5 -402.702 L237.5 -402.702 L240 -398.372 L245 -398.372 L247.5 -402.702 L245 -407.032 L240 -407.032 L237.5 -411.362 L240 -415.692 L245 -415.692 L247.5 -420.022 L245 -424.352 L247.5 -428.683 L252.5 -428.683 L255 -424.352 L252.5 -420.022 L255 -415.692 L260 -415.692 L262.5 -420.022 L267.5 -420.022 L270 -415.692 L275 -415.692 L277.5 -420.022 L275 -424.352 L270 -424.352 L267.5 -428.683 L270 -433.013 L267.5 -437.343 L262.5 -437.343 L260 -433.013 L255 -433.013 L252.5 -437.343 L255 -441.673 L260 -441.673 L262.5 -446.003 L260 -450.333 L262.5 -454.663 L267.5 -454.663 L270 -450.333 L275 -450.333 L277.5 -454.663 L275 -458.993 L270 -458.993 L267.5 -463.324 L270 -467.654 L275 -467.654 L277.5 -471.984 L275 -476.314 L277.5 -480.644 L282.5 -480.644 L285 -476.314 L282.5 -471.984 L285 -467.654 L290 -467.654 L292.5 -463.324 L290 -458.993 L285 -458.993 L282.5 -454.663 L285 -450.333 L290 -450.333 L292.5 -454.663 L297.5 -454.663 L300 -450.333 L297.5 -446.003 L300 -441.673 L305 -441.673 L307.5 -437.343 L305 -433.013 L300 -433.013 L297.5 -437.343 L292.5 -437.343 L290 -433.013 L292.5 -428.683 L290 -424.352 L285 -424.352 L282.5 -420.022 L285 -415.692 L290 -415.692 L292.5 -420.022 L297.5 -420.022 L300 -415.692 L305 -415.692 L307.5 -420.022 L305 -424.352 L307.5 -428.683 L312.5 -428.683 L315 -424.352 L312.5 -420.022 L315 -415.692 L320 -415.692 L322.5 -420.022 L327.5 -420.022 L330 -415.692 L335 -415.692 L337.5 -420.022 L335 -424.352 L330 -424.352 L327.5 -428.683 L330 -433.013 L335 -433.013 L337.5 -437.343 L335 -441.673 L337.5 -446.003 L342.5 -446.003 L345 -441.673 L342.5 -437.343 L345 -433.013 L350 -433.013 L352.5 -428.683 L350 -424.352 L345 -424.352 L342.5 -420.022 L345 -415.692 L350 -415.692 L352.5 -420.022 L357.5 -420.022 L360 -415.692 L365 -415.692 L367.5 -420.022 L365 -424.352 L367.5 -428.683 L372.5 -428.683 L375 -424.352 L372.5 -420.022 L375 -415.692 L380 -415.692 L382.5 -420.022 L387.5 -420.022 L390 -415.692 L395 -415.692 L397.5 -420.022 L395 -424.352 L390 -424.352 L387.5 -428.683 L390 -433.013 L387.5 -437.343 L382.5 -437.343 L380 -433.013 L375 -433.013 L372.5 -437.343 L375 -441.673 L380 -441.673 L382.5 -446.003 L380 -450.333 L375 -450.333 L372.5 -454.663 L375 -458.993 L372.5 -463.324 L367.5 -463.324 L365 -458.993 L367.5 -454.663 L365 -450.333 L360 -450.333 L357.5 -454.663 L352.5 -454.663 L350 -450.333 L345 -450.333 L342.5 -454.663 L345 -458.993 L350 -458.993 L352.5 -463.324 L350 -467.654 L352.5 -471.984 L357.5 -471.984 L360 -467.654 L365 -467.654 L367.5 -471.984 L365 -476.314 L360 -476.314 L357.5 -480.644 L360 -484.974 L357.5 -489.304 L352.5 -489.304 L350 -484.974 L345 -484.974 L342.5 -489.304 L345 -493.634 L350 -493.634 L352.5 -497.965 L350 -502.295 L345 -502.295 L342.5 -506.625 L345 -510.955 L342.5 -515.285 L337.5 -515.285 L335 -510.955 L337.5 -506.625 L335 -502.295 L330 -502.295 L327.5 -497.965 L330 -493.634 L335 -493.634 L337.5 -489.304 L335 -484.974 L330 -484.974 L327.5 -489.304 L322.5 -489.304 L320 -484.974 L315 -484.974 L312.5 -489.304 L315 -493.634 L312.5 -497.965 L307.5 -497.965 L305 -493.634 L307.5 -489.304 L305 -484.974 L300 -484.974 L297.5 -489.304 L292.5 -489.304 L290 -484.974 L285 -484.974 L282.5 -489.304 L285 -493.634 L290 -493.634 L292.5 -497.965 L290 -502.295 L292.5 -506.625 L297.5 -506.625 L300 -502.295 L305 -502.295 L307.5 -506.625 L305 -510.955 L300 -510.955 L297.5 -515.285 L300 -519.615 L305 -519.615 L307.5 -523.945 L305 -528.275 L307.5 -532.606 L312.5 -532.606 L315 -528.275 L312.5 -523.945 L315 -519.615 L320 -519.615 L322.5 -523.945 L327.5 -523.945 L330 -519.615 L335 -519.615 L337.5 -523.945 L335 -528.275 L330 -528.275 L327.5 -532.606 L330 -536.936 L327.5 -541.266 L322.5 -541.266 L320 -536.936 L315 -536.936 L312.5 -541.266 L315 -545.596 L320 -545.596 L322.5 -549.926 L320 -554.256 L322.5 -558.586 L327.5 -558.586 L330 -554.256 L335 -554.256 L337.5 -558.586 L335 -562.917 L330 -562.917 L327.5 -567.247 L330 -571.577 L335 -571.577 L337.5 -575.907 L335 -580.237 L337.5 -584.567 L342.5 -584.567 L345 -580.237 L342.5 -575.907 L345 -571.577 L350 -571.577 L352.5 -567.247 L350 -562.917 L345 -562.917 L342.5 -558.586 L345 -554.256 L350 -554.256 L352.5 -558.586 L357.5 -558.586 L360 -554.256 L365 -554.256 L367.5 -558.586 L365 -562.917 L367.5 -567.247 L372.5 -567.247 L375 -562.917 L372.5 -558.586 L375 -554.256 L380 -554.256 L382.5 -558.586 L387.5 -558.586 L390 -554.256 L395 -554.256 L397.5 -558.586 L395 -562.917 L390 -562.917 L387.5 -567.247 L390 -571.577 L387.5 -575.907 L382.5 -575.907 L380 -571.577 L375 -571.577 L372.5 -575.907 L375 -580.237 L380 -580.237 L382.5 -584.567 L380 -588.897 L375 -588.897 L372.5 -593.227 L375 -597.558 L372.5 -601.888 L367.5 -601.888 L365 -597.558 L367.5 -593.227 L365 -588.897 L360 -588.897 L357.5 -593.227 L352.5 -593.227 L350 -588.897 L345 -588.897 L342.5 -593.227 L345 -597.558 L350 -597.558 L352.5 -601.888 L350 -606.218 L352.5 -610.548 L357.5 -610.548 L360 -606.218 L365 -606.218 L367.5 -610.548 L365 -614.878 L360 -614.878 L357.5 -619.208 L360 -623.538 L365 -623.538 L367.5 -627.868 L365 -632.199 L367.5 -636.529 L372.5 -636.529 L375 -632.199 L372.5 -627.868 L375 -623.538 L380 -623.538 L382.5 -627.868 L387.5 -627.868 L390 -623.538 L395 -623.538 L397.5 -627.868 L395 -632.199 L390 -632.199 L387.5 -636.529 L390 -640.859 L387.5 -645.189 L382.5 -645.189 L380 -640.859 L375 -640.859 L372.5 -645.189 L375 -649.519 L380 -649.519 L382.5 -653.849 L380 -658.179 L382.5 -662.509 L387.5 -662.509 L390 -658.179 L395 -658.179 L397.5 -662.509 L395 -666.84 L390 -666.84 L387.5 -671.17 L390 -675.5 L395 -675.5 L397.5 -679.83 L395 -684.16 L397.5 -688.49 L402.5 -688.49 L405 -684.16 L402.5 -679.83 L405 -675.5 L410 -675.5 L412.5 -671.17 L410 -666.84 L405 -666.84 L402.5 -662.509 L405 -658.179 L410 -658.179 L412.5 -662.509 L417.5 -662.509 L420 -658.179 L417.5 -653.849 L420 -649.519 L425 -649.519 L427.5 -645.189 L425 -640.859 L420 -640.859 L417.5 -645.189 L412.5 -645.189 L410 -640.859 L412.5 -636.529 L410 -632.199 L405 -632.199 L402.5 -627.868 L405 -623.538 L410 -623.538 L412.5 -627.868 L417.5 -627.868 L420 -623.538 L425 -623.538 L427.5 -627.868 L425 -632.199 L427.5 -636.529 L432.5 -636.529 L435 -632.199 L432.5 -627.868 L435 -623.538 L440 -623.538 L442.5 -619.208 L440 -614.878 L435 -614.878 L432.5 -610.548 L435 -606.218 L440 -606.218 L442.5 -610.548 L447.5 -610.548 L450 -606.218 L447.5 -601.888 L450 -597.558 L455 -597.558 L457.5 -593.227 L455 -588.897 L450 -588.897 L447.5 -593.227 L442.5 -593.227 L440 -588.897 L435 -588.897 L432.5 -593.227 L435 -597.558 L432.5 -601.888 L427.5 -601.888 L425 -597.558 L427.5 -593.227 L425 -588.897 L420 -588.897 L417.5 -584.567 L420 -580.237 L425 -580.237 L427.5 -575.907 L425 -571.577 L420 -571.577 L417.5 -575.907 L412.5 -575.907 L410 -571.577 L412.5 -567.247 L410 -562.917 L405 -562.917 L402.5 -558.586 L405 -554.256 L410 -554.256 L412.5 -558.586 L417.5 -558.586 L420 -554.256 L425 -554.256 L427.5 -558.586 L425 -562.917 L427.5 -567.247 L432.5 -567.247 L435 -562.917 L432.5 -558.586 L435 -554.256 L440 -554.256 L442.5 -558.586 L447.5 -558.586 L450 -554.256 L455 -554.256 L457.5 -558.586 L455 -562.917 L450 -562.917 L447.5 -567.247 L450 -571.577 L455 -571.577 L457.5 -575.907 L455 -580.237 L457.5 -584.567 L462.5 -584.567 L465 -580.237 L462.5 -575.907 L465 -571.577 L470 -571.577 L472.5 -567.247 L470 -562.917 L465 -562.917 L462.5 -558.586 L465 -554.256 L470 -554.256 L472.5 -558.586 L477.5 -558.586 L480 -554.256 L485 -554.256 L487.5 -558.586 L485 -562.917 L487.5 -567.247 L492.5 -567.247 L495 -562.917 L492.5 -558.586 L495 -554.256 L500 -554.256 L502.5 -558.586 L507.5 -558.586 L510 -554.256 L515 -554.256 L517.5 -558.586 L515 -562.917 L510 -562.917 L507.5 -567.247 L510 -571.577 L507.5 -575.907 L502.5 -575.907 L500 -571.577 L495 -571.577 L492.5 -575.907 L495 -580.237 L500 -580.237 L502.5 -584.567 L500 -588.897 L502.5 -593.227 L507.5 -593.227 L510 -588.897 L515 -588.897 L517.5 -593.227 L515 -597.558 L510 -597.558 L507.5 -601.888 L510 -606.218 L515 -606.218 L517.5 -610.548 L515 -614.878 L517.5 -619.208 L522.5 -619.208 L525 -614.878 L522.5 -610.548 L525 -606.218 L530 -606.218 L532.5 -601.888 L530 -597.558 L525 -597.558 L522.5 -593.227 L525 -588.897 L530 -588.897 L532.5 -593.227 L537.5 -593.227 L540 -588.897 L537.5 -584.567 L540 -580.237 L545 -580.237 L547.5 -575.907 L545 -571.577 L540 -571.577 L537.5 -575.907 L532.5 -575.907 L530 -571.577 L532.5 -567.247 L530 -562.917 L525 -562.917 L522.5 -558.586 L525 -554.256 L530 -554.256 L532.5 -558.586 L537.5 -558.586 L540 -554.256 L545 -554.256 L547.5 -558.586 L545 -562.917 L547.5 -567.247 L552.5 -567.247 L555 -562.917 L552.5 -558.586 L555 -554.256 L560 -554.256 L562.5 -558.586 L567.5 -558.586 L570 -554.256 L575 -554.256 L577.5 -558.586 L575 -562.917 L570 -562.917 L567.5 -567.247 L570 -571.577 L575 -571.577 L577.5 -575.907 L575 -580.237 L577.5 -584.567 L582.5 -584.567 L585 -580.237 L582.5 -575.907 L585 -571.577 L590 -571.577 L592.5 -567.247 L590 -562.917 L585 -562.917 L582.5 -558.586 L585 -554.256 L590 -554.256 L592.5 -558.586 L597.5 -558.586 L600 -554.256 L605 -554.256 L607.5 -558.586 L605 -562.917 L607.5 -567.247 L612.5 -567.247 L615 -562.917 L612.5 -558.586 L615 -554.256 L620 -554.256 L622.5 -558.586 L627.5 -558.586 L630 -554.256 L635 -554.256 L637.5 -558.586 L635 -562.917 L630 -562.917 L627.5 -567.247 L630 -571.577 L627.5 -575.907 L622.5 -575.907 L620 -571.577 L615 -571.577 L612.5 -575.907 L615 -580.237 L620 -580.237 L622.5 -584.567 L620 -588.897 L615 -588.897 L612.5 -593.227 L615 -597.558 L612.5 -601.888 L607.5 -601.888 L605 -597.558 L607.5 -593.227 L605 -588.897 L600 -588.897 L597.5 -593.227 L592.5 -593.227 L590 -588.897 L585 -588.897 L582.5 -593.227 L585 -597.558 L590 -597.558 L592.5 -601.888 L590 -606.218 L592.5 -610.548 L597.5 -610.548 L600 -606.218 L605 -606.218 L607.5 -610.548 L605 -614.878 L600 -614.878 L597.5 -619.208 L600 -623.538 L597.5 -627.868 L592.5 -627.868 L590 -623.538 L585 -623.538 L582.5 -627.868 L585 -632.199 L590 -632.199 L592.5 -636.529 L590 -640.859 L585 -640.859 L582.5 -645.189 L585 -649.519 L582.5 -653.849 L577.5 -653.849 L575 -649.519 L577.5 -645.189 L575 -640.859 L570 -640.859 L567.5 -636.529 L570 -632.199 L575 -632.199 L577.5 -627.868 L575 -623.538 L570 -623.538 L567.5 -627.868 L562.5 -627.868 L560 -623.538 L555 -623.538 L552.5 -627.868 L555 -632.199 L552.5 -636.529 L547.5 -636.529 L545 -632.199 L547.5 -627.868 L545 -623.538 L540 -623.538 L537.5 -627.868 L532.5 -627.868 L530 -623.538 L525 -623.538 L522.5 -627.868 L525 -632.199 L530 -632.199 L532.5 -636.529 L530 -640.859 L532.5 -645.189 L537.5 -645.189 L540 -640.859 L545 -640.859 L547.5 -645.189 L545 -649.519 L540 -649.519 L537.5 -653.849 L540 -658.179 L545 -658.179 L547.5 -662.509 L545 -666.84 L547.5 -671.17 L552.5 -671.17 L555 -666.84 L552.5 -662.509 L555 -658.179 L560 -658.179 L562.5 -662.509 L567.5 -662.509 L570 -658.179 L575 -658.179 L577.5 -662.509 L575 -666.84 L570 -666.84 L567.5 -671.17 L570 -675.5 L567.5 -679.83 L562.5 -679.83 L560 -675.5 L555 -675.5 L552.5 -679.83 L555 -684.16 L560 -684.16 L562.5 -688.49 L560 -692.82 L555 -692.82 L552.5 -697.15 L555 -701.481 L552.5 -705.811 L547.5 -705.811 L545 -701.481 L547.5 -697.15 L545 -692.82 L540 -692.82 L537.5 -697.15 L532.5 -697.15 L530 -692.82 L525 -692.82 L522.5 -697.15 L525 -701.481 L530 -701.481 L532.5 -705.811 L530 -710.141 L532.5 -714.471 L537.5 -714.471 L540 -710.141 L545 -710.141 L547.5 -714.471 L545 -718.801 L540 -718.801 L537.5 -723.131 L540 -727.461 L537.5 -731.791 L532.5 -731.791 L530 -727.461 L525 -727.461 L522.5 -731.791 L525 -736.122 L530 -736.122 L532.5 -740.452 L530 -744.782 L525 -744.782 L522.5 -749.112 L525 -753.442 L522.5 -757.772 L517.5 -757.772 L515 -753.442 L517.5 -749.112 L515 -744.782 L510 -744.782 L507.5 -740.452 L510 -736.122 L515 -736.122 L517.5 -731.791 L515 -727.461 L510 -727.461 L507.5 -731.791 L502.5 -731.791 L500 -727.461 L502.5 -723.131 L500 -718.801 L495 -718.801 L492.5 -714.471 L495 -710.141 L500 -710.141 L502.5 -714.471 L507.5 -714.471 L510 -710.141 L507.5 -705.811 L510 -701.481 L515 -701.481 L517.5 -697.15 L515 -692.82 L510 -692.82 L507.5 -697.15 L502.5 -697.15 L500 -692.82 L495 -692.82 L492.5 -697.15 L495 -701.481 L492.5 -705.811 L487.5 -705.811 L485 -701.481 L487.5 -697.15 L485 -692.82 L480 -692.82 L477.5 -697.15 L472.5 -697.15 L470 -692.82 L465 -692.82 L462.5 -697.15 L465 -701.481 L470 -701.481 L472.5 -705.811 L470 -710.141 L465 -710.141 L462.5 -714.471 L465 -718.801 L462.5 -723.131 L457.5 -723.131 L455 -718.801 L457.5 -714.471 L455 -710.141 L450 -710.141 L447.5 -705.811 L450 -701.481 L455 -701.481 L457.5 -697.15 L455 -692.82 L450 -692.82 L447.5 -697.15 L442.5 -697.15 L440 -692.82 L435 -692.82 L432.5 -697.15 L435 -701.481 L432.5 -705.811 L427.5 -705.811 L425 -701.481 L427.5 -697.15 L425 -692.82 L420 -692.82 L417.5 -697.15 L412.5 -697.15 L410 -692.82 L405 -692.82 L402.5 -697.15 L405 -701.481 L410 -701.481 L412.5 -705.811 L410 -710.141 L412.5 -714.471 L417.5 -714.471 L420 -710.141 L425 -710.141 L427.5 -714.471 L425 -718.801 L420 -718.801 L417.5 -723.131 L420 -727.461 L425 -727.461 L427.5 -731.791 L425 -736.122 L427.5 -740.452 L432.5 -740.452 L435 -736.122 L432.5 -731.791 L435 -727.461 L440 -727.461 L442.5 -731.791 L447.5 -731.791 L450 -727.461 L455 -727.461 L457.5 -731.791 L455 -736.122 L450 -736.122 L447.5 -740.452 L450 -744.782 L447.5 -749.112 L442.5 -749.112 L440 -744.782 L435 -744.782 L432.5 -749.112 L435 -753.442 L440 -753.442 L442.5 -757.772 L440 -762.102 L442.5 -766.432 L447.5 -766.432 L450 -762.102 L455 -762.102 L457.5 -766.432 L455 -770.763 L450 -770.763 L447.5 -775.093 L450 -779.423 L455 -779.423 L457.5 -783.753 L455 -788.083 L457.5 -792.413 L462.5 -792.413 L465 -788.083 L462.5 -783.753 L465 -779.423 L470 -779.423 L472.5 -775.093 L470 -770.763 L465 -770.763 L462.5 -766.432 L465 -762.102 L470 -762.102 L472.5 -766.432 L477.5 -766.432 L480 -762.102 L485 -762.102 L487.5 -766.432 L485 -770.763 L487.5 -775.093 L492.5 -775.093 L495 -770.763 L492.5 -766.432 L495 -762.102 L500 -762.102 L502.5 -766.432 L507.5 -766.432 L510 -762.102 L515 -762.102 L517.5 -766.432 L515 -770.763 L510 -770.763 L507.5 -775.093 L510 -779.423 L507.5 -783.753 L502.5 -783.753 L500 -779.423 L495 -779.423 L492.5 -783.753 L495 -788.083 L500 -788.083 L502.5 -792.413 L500 -796.743 L495 -796.743 L492.5 -801.073 L495 -805.404 L492.5 -809.734 L487.5 -809.734 L485 -805.404 L487.5 -801.073 L485 -796.743 L480 -796.743 L477.5 -801.073 L472.5 -801.073 L470 -796.743 L465 -796.743 L462.5 -801.073 L465 -805.404 L470 -805.404 L472.5 -809.734 L470 -814.064 L472.5 -818.394 L477.5 -818.394 L480 -814.064 L485 -814.064 L487.5 -818.394 L485 -822.724 L480 -822.724 L477.5 -827.054 L480 -831.384 L485 -831.384 L487.5 -835.715 L485 -840.045 L487.5 -844.375 L492.5 -844.375 L495 -840.045 L492.5 -835.715 L495 -831.384 L500 -831.384 L502.5 -835.715 L507.5 -835.715 L510 -831.384 L515 -831.384 L517.5 -835.715 L515 -840.045 L510 -840.045 L507.5 -844.375 L510 -848.705 L507.5 -853.035 L502.5 -853.035 L500 -848.705 L495 -848.705 L492.5 -853.035 L495 -857.365 L500 -857.365 L502.5 -861.695 L500 -866.025 L502.5 -870.356 L507.5 -870.356 L510 -866.025 L515 -866.025 L517.5 -870.356 L515 -874.686 L510 -874.686 L507.5 -879.016 L510 -883.346 L515 -883.346 L517.5 -887.676 L515 -892.006 L517.5 -896.336 L522.5 -896.336 L525 -892.006 L522.5 -887.676 L525 -883.346 L530 -883.346 L532.5 -879.016 L530 -874.686 L525 -874.686 L522.5 -870.356 L525 -866.025 L530 -866.025 L532.5 -870.356 L537.5 -870.356 L540 -866.025 L537.5 -861.695 L540 -857.365 L545 -857.365 L547.5 -853.035 L545 -848.705 L540 -848.705 L537.5 -853.035 L532.5 -853.035 L530 -848.705 L532.5 -844.375 L530 -840.045 L525 -840.045 L522.5 -835.715 L525 -831.384 L530 -831.384 L532.5 -835.715 L537.5 -835.715 L540 -831.384 L545 -831.384 L547.5 -835.715 L545 -840.045 L547.5 -844.375 L552.5 -844.375 L555 -840.045 L552.5 -835.715 L555 -831.384 L560 -831.384 L562.5 -835.715 L567.5 -835.715 L570 -831.384 L575 -831.384 L577.5 -835.715 L575 -840.045 L570 -840.045 L567.5 -844.375 L570 -848.705 L575 -848.705 L577.5 -853.035 L575 -857.365 L577.5 -861.695 L582.5 -861.695 L585 -857.365 L582.5 -853.035 L585 -848.705 L590 -848.705 L592.5 -844.375 L590 -840.045 L585 -840.045 L582.5 -835.715 L585 -831.384 L590 -831.384 L592.5 -835.715 L597.5 -835.715 L600 -831.384 L605 -831.384 L607.5 -835.715 L605 -840.045 L607.5 -844.375 L612.5 -844.375 L615 -840.045 L612.5 -835.715 L615 -831.384 L620 -831.384 L622.5 -835.715 L627.5 -835.715 L630 -831.384 L635 -831.384 L637.5 -835.715 L635 -840.045 L630 -840.045 L627.5 -844.375 L630 -848.705 L627.5 -853.035 L622.5 -853.035 L620 -848.705 L615 -848.705 L612.5 -853.035 L615 -857.365 L620 -857.365 L622.5 -861.695 L620 -866.025 L615 -866.025 L612.5 -870.356 L615 -874.686 L612.5 -879.016 L607.5 -879.016 L605 -874.686 L607.5 -870.356 L605 -866.025 L600 -866.025 L597.5 -870.356 L592.5 -870.356 L590 -866.025 L585 -866.025 L582.5 -870.356 L585 -874.686 L590 -874.686 L592.5 -879.016 L590 -883.346 L592.5 -887.676 L597.5 -887.676 L600 -883.346 L605 -883.346 L607.5 -887.676 L605 -892.006 L600 -892.006 L597.5 -896.336 L600 -900.666 L597.5 -904.997 L592.5 -904.997 L590 -900.666 L585 -900.666 L582.5 -904.997 L585 -909.327 L590 -909.327 L592.5 -913.657 L590 -917.987 L585 -917.987 L582.5 -922.317 L585 -926.647 L582.5 -930.977 L577.5 -930.977 L575 -926.647 L577.5 -922.317 L575 -917.987 L570 -917.987 L567.5 -913.657 L570 -909.327 L575 -909.327 L577.5 -904.997 L575 -900.666 L570 -900.666 L567.5 -904.997 L562.5 -904.997 L560 -900.666 L555 -900.666 L552.5 -904.997 L555 -909.327 L552.5 -913.657 L547.5 -913.657 L545 -909.327 L547.5 -904.997 L545 -900.666 L540 -900.666 L537.5 -904.997 L532.5 -904.997 L530 -900.666 L525 -900.666 L522.5 -904.997 L525 -909.327 L530 -909.327 L532.5 -913.657 L530 -917.987 L532.5 -922.317 L537.5 -922.317 L540 -917.987 L545 -917.987 L547.5 -922.317 L545 -926.647 L540 -926.647 L537.5 -930.977 L540 -935.307 L545 -935.307 L547.5 -939.638 L545 -943.968 L547.5 -948.298 L552.5 -948.298 L555 -943.968 L552.5 -939.638 L555 -935.307 L560 -935.307 L562.5 -939.638 L567.5 -939.638 L570 -935.307 L575 -935.307 L577.5 -939.638 L575 -943.968 L570 -943.968 L567.5 -948.298 L570 -952.628 L567.5 -956.958 L562.5 -956.958 L560 -952.628 L555 -952.628 L552.5 -956.958 L555 -961.288 L560 -961.288 L562.5 -965.618 L560 -969.948 L562.5 -974.279 L567.5 -974.279 L570 -969.948 L575 -969.948 L577.5 -974.279 L575 -978.609 L570 -978.609 L567.5 -982.939 L570 -987.269 L575 -987.269 L577.5 -991.599 L575 -995.929 L577.5 -1000.26 L582.5 -1000.26 L585 -995.929 L582.5 -991.599 L585 -987.269 L590 -987.269 L592.5 -982.939 L590 -978.609 L585 -978.609 L582.5 -974.279 L585 -969.948 L590 -969.948 L592.5 -974.279 L597.5 -974.279 L600 -969.948 L605 -969.948 L607.5 -974.279 L605 -978.609 L607.5 -982.939 L612.5 -982.939 L615 -978.609 L612.5 -974.279 L615 -969.948 L620 -969.948 L622.5 -974.279 L627.5 -974.279 L630 -969.948 L635 -969.948 L637.5 -974.279 L635 -978.609 L630 -978.609 L627.5 -982.939 L630 -987.269 L627.5 -991.599 L622.5 -991.599 L620 -987.269 L615 -987.269 L612.5 -991.599 L615 -995.929 L620 -995.929 L622.5 -1000.26 L620 -1004.59 L615 -1004.59 L612.5 -1008.92 L615 -1013.25 L612.5 -1017.58 L607.5 -1017.58 L605 -1013.25 L607.5 -1008.92 L605 -1004.59 L600 -1004.59 L597.5 -1008.92 L592.5 -1008.92 L590 -1004.59 L585 -1004.59 L582.5 -1008.92 L585 -1013.25 L590 -1013.25 L592.5 -1017.58 L590 -1021.91 L592.5 -1026.24 L597.5 -1026.24 L600 -1021.91 L605 -1021.91 L607.5 -1026.24 L605 -1030.57 L600 -1030.57 L597.5 -1034.9 L600 -1039.23 L605 -1039.23 L607.5 -1043.56 L605 -1047.89 L607.5 -1052.22 L612.5 -1052.22 L615 -1047.89 L612.5 -1043.56 L615 -1039.23 L620 -1039.23 L622.5 -1043.56 L627.5 -1043.56 L630 -1039.23 L635 -1039.23 L637.5 -1043.56 L635 -1047.89 L630 -1047.89 L627.5 -1052.22 L630 -1056.55 L627.5 -1060.88 L622.5 -1060.88 L620 -1056.55 L615 -1056.55 L612.5 -1060.88 L615 -1065.21 L620 -1065.21 L622.5 -1069.54 L620 -1073.87 L622.5 -1078.2 L627.5 -1078.2 L630 -1073.87 L635 -1073.87 L637.5 -1078.2 L635 -1082.53 L630 -1082.53 L627.5 -1086.86 L630 -1091.19 L635 -1091.19 L637.5 -1095.52 L635 -1099.85 L637.5 -1104.18 L642.5 -1104.18 L645 -1099.85 L642.5 -1095.52 L645 -1091.19 L650 -1091.19 L652.5 -1086.86 L650 -1082.53 L645 -1082.53 L642.5 -1078.2 L645 -1073.87 L650 -1073.87 L652.5 -1078.2 L657.5 -1078.2 L660 -1073.87 L657.5 -1069.54 L660 -1065.21 L665 -1065.21 L667.5 -1060.88 L665 -1056.55 L660 -1056.55 L657.5 -1060.88 L652.5 -1060.88 L650 -1056.55 L652.5 -1052.22 L650 -1047.89 L645 -1047.89 L642.5 -1043.56 L645 -1039.23 L650 -1039.23 L652.5 -1043.56 L657.5 -1043.56 L660 -1039.23 L665 -1039.23 L667.5 -1043.56 L665 -1047.89 L667.5 -1052.22 L672.5 -1052.22 L675 -1047.89 L672.5 -1043.56 L675 -1039.23 L680 -1039.23 L682.5 -1034.9 L680 -1030.57 L675 -1030.57 L672.5 -1026.24 L675 -1021.91 L680 -1021.91 L682.5 -1026.24 L687.5 -1026.24 L690 -1021.91 L687.5 -1017.58 L690 -1013.25 L695 -1013.25 L697.5 -1008.92 L695 -1004.59 L690 -1004.59 L687.5 -1008.92 L682.5 -1008.92 L680 -1004.59 L675 -1004.59 L672.5 -1008.92 L675 -1013.25 L672.5 -1017.58 L667.5 -1017.58 L665 -1013.25 L667.5 -1008.92 L665 -1004.59 L660 -1004.59 L657.5 -1000.26 L660 -995.929 L665 -995.929 L667.5 -991.599 L665 -987.269 L660 -987.269 L657.5 -991.599 L652.5 -991.599 L650 -987.269 L652.5 -982.939 L650 -978.609 L645 -978.609 L642.5 -974.279 L645 -969.948 L650 -969.948 L652.5 -974.279 L657.5 -974.279 L660 -969.948 L665 -969.948 L667.5 -974.279 L665 -978.609 L667.5 -982.939 L672.5 -982.939 L675 -978.609 L672.5 -974.279 L675 -969.948 L680 -969.948 L682.5 -974.279 L687.5 -974.279 L690 -969.948 L695 -969.948 L697.5 -974.279 L695 -978.609 L690 -978.609 L687.5 -982.939 L690 -987.269 L695 -987.269 L697.5 -991.599 L695 -995.929 L697.5 -1000.26 L702.5 -1000.26 L705 -995.929 L702.5 -991.599 L705 -987.269 L710 -987.269 L712.5 -982.939 L710 -978.609 L705 -978.609 L702.5 -974.279 L705 -969.948 L710 -969.948 L712.5 -974.279 L717.5 -974.279 L720 -969.948 L717.5 -965.618 L720 -961.288 L725 -961.288 L727.5 -956.958 L725 -952.628 L720 -952.628 L717.5 -956.958 L712.5 -956.958 L710 -952.628 L712.5 -948.298 L710 -943.968 L705 -943.968 L702.5 -939.638 L705 -935.307 L710 -935.307 L712.5 -939.638 L717.5 -939.638 L720 -935.307 L725 -935.307 L727.5 -939.638 L725 -943.968 L727.5 -948.298 L732.5 -948.298 L735 -943.968 L732.5 -939.638 L735 -935.307 L740 -935.307 L742.5 -930.977 L740 -926.647 L735 -926.647 L732.5 -922.317 L735 -917.987 L740 -917.987 L742.5 -922.317 L747.5 -922.317 L750 -917.987 L747.5 -913.657 L750 -909.327 L755 -909.327 L757.5 -904.997 L755 -900.666 L750 -900.666 L747.5 -904.997 L742.5 -904.997 L740 -900.666 L735 -900.666 L732.5 -904.997 L735 -909.327 L732.5 -913.657 L727.5 -913.657 L725 -909.327 L727.5 -904.997 L725 -900.666 L720 -900.666 L717.5 -904.997 L712.5 -904.997 L710 -900.666 L705 -900.666 L702.5 -904.997 L705 -909.327 L710 -909.327 L712.5 -913.657 L710 -917.987 L705 -917.987 L702.5 -922.317 L705 -926.647 L702.5 -930.977 L697.5 -930.977 L695 -926.647 L697.5 -922.317 L695 -917.987 L690 -917.987 L687.5 -913.657 L690 -909.327 L695 -909.327 L697.5 -904.997 L695 -900.666 L690 -900.666 L687.5 -904.997 L682.5 -904.997 L680 -900.666 L682.5 -896.336 L680 -892.006 L675 -892.006 L672.5 -887.676 L675 -883.346 L680 -883.346 L682.5 -887.676 L687.5 -887.676 L690 -883.346 L687.5 -879.016 L690 -874.686 L695 -874.686 L697.5 -870.356 L695 -866.025 L690 -866.025 L687.5 -870.356 L682.5 -870.356 L680 -866.025 L675 -866.025 L672.5 -870.356 L675 -874.686 L672.5 -879.016 L667.5 -879.016 L665 -874.686 L667.5 -870.356 L665 -866.025 L660 -866.025 L657.5 -861.695 L660 -857.365 L665 -857.365 L667.5 -853.035 L665 -848.705 L660 -848.705 L657.5 -853.035 L652.5 -853.035 L650 -848.705 L652.5 -844.375 L650 -840.045 L645 -840.045 L642.5 -835.715 L645 -831.384 L650 -831.384 L652.5 -835.715 L657.5 -835.715 L660 -831.384 L665 -831.384 L667.5 -835.715 L665 -840.045 L667.5 -844.375 L672.5 -844.375 L675 -840.045 L672.5 -835.715 L675 -831.384 L680 -831.384 L682.5 -835.715 L687.5 -835.715 L690 -831.384 L695 -831.384 L697.5 -835.715 L695 -840.045 L690 -840.045 L687.5 -844.375 L690 -848.705 L695 -848.705 L697.5 -853.035 L695 -857.365 L697.5 -861.695 L702.5 -861.695 L705 -857.365 L702.5 -853.035 L705 -848.705 L710 -848.705 L712.5 -844.375 L710 -840.045 L705 -840.045 L702.5 -835.715 L705 -831.384 L710 -831.384 L712.5 -835.715 L717.5 -835.715 L720 -831.384 L725 -831.384 L727.5 -835.715 L725 -840.045 L727.5 -844.375 L732.5 -844.375 L735 -840.045 L732.5 -835.715 L735 -831.384 L740 -831.384 L742.5 -835.715 L747.5 -835.715 L750 -831.384 L755 -831.384 L757.5 -835.715 L755 -840.045 L750 -840.045 L747.5 -844.375 L750 -848.705 L747.5 -853.035 L742.5 -853.035 L740 -848.705 L735 -848.705 L732.5 -853.035 L735 -857.365 L740 -857.365 L742.5 -861.695 L740 -866.025 L742.5 -870.356 L747.5 -870.356 L750 -866.025 L755 -866.025 L757.5 -870.356 L755 -874.686 L750 -874.686 L747.5 -879.016 L750 -883.346 L755 -883.346 L757.5 -887.676 L755 -892.006 L757.5 -896.336 L762.5 -896.336 L765 -892.006 L762.5 -887.676 L765 -883.346 L770 -883.346 L772.5 -879.016 L770 -874.686 L765 -874.686 L762.5 -870.356 L765 -866.025 L770 -866.025 L772.5 -870.356 L777.5 -870.356 L780 -866.025 L777.5 -861.695 L780 -857.365 L785 -857.365 L787.5 -853.035 L785 -848.705 L780 -848.705 L777.5 -853.035 L772.5 -853.035 L770 -848.705 L772.5 -844.375 L770 -840.045 L765 -840.045 L762.5 -835.715 L765 -831.384 L770 -831.384 L772.5 -835.715 L777.5 -835.715 L780 -831.384 L785 -831.384 L787.5 -835.715 L785 -840.045 L787.5 -844.375 L792.5 -844.375 L795 -840.045 L792.5 -835.715 L795 -831.384 L800 -831.384 L802.5 -827.054 L800 -822.724 L795 -822.724 L792.5 -818.394 L795 -814.064 L800 -814.064 L802.5 -818.394 L807.5 -818.394 L810 -814.064 L807.5 -809.734 L810 -805.404 L815 -805.404 L817.5 -801.073 L815 -796.743 L810 -796.743 L807.5 -801.073 L802.5 -801.073 L800 -796.743 L795 -796.743 L792.5 -801.073 L795 -805.404 L792.5 -809.734 L787.5 -809.734 L785 -805.404 L787.5 -801.073 L785 -796.743 L780 -796.743 L777.5 -792.413 L780 -788.083 L785 -788.083 L787.5 -783.753 L785 -779.423 L780 -779.423 L777.5 -783.753 L772.5 -783.753 L770 -779.423 L772.5 -775.093 L770 -770.763 L765 -770.763 L762.5 -766.432 L765 -762.102 L770 -762.102 L772.5 -766.432 L777.5 -766.432 L780 -762.102 L785 -762.102 L787.5 -766.432 L785 -770.763 L787.5 -775.093 L792.5 -775.093 L795 -770.763 L792.5 -766.432 L795 -762.102 L800 -762.102 L802.5 -766.432 L807.5 -766.432 L810 -762.102 L815 -762.102 L817.5 -766.432 L815 -770.763 L810 -770.763 L807.5 -775.093 L810 -779.423 L815 -779.423 L817.5 -783.753 L815 -788.083 L817.5 -792.413 L822.5 -792.413 L825 -788.083 L822.5 -783.753 L825 -779.423 L830 -779.423 L832.5 -775.093 L830 -770.763 L825 -770.763 L822.5 -766.432 L825 -762.102 L830 -762.102 L832.5 -766.432 L837.5 -766.432 L840 -762.102 L837.5 -757.772 L840 -753.442 L845 -753.442 L847.5 -749.112 L845 -744.782 L840 -744.782 L837.5 -749.112 L832.5 -749.112 L830 -744.782 L832.5 -740.452 L830 -736.122 L825 -736.122 L822.5 -731.791 L825 -727.461 L830 -727.461 L832.5 -731.791 L837.5 -731.791 L840 -727.461 L845 -727.461 L847.5 -731.791 L845 -736.122 L847.5 -740.452 L852.5 -740.452 L855 -736.122 L852.5 -731.791 L855 -727.461 L860 -727.461 L862.5 -723.131 L860 -718.801 L855 -718.801 L852.5 -714.471 L855 -710.141 L860 -710.141 L862.5 -714.471 L867.5 -714.471 L870 -710.141 L867.5 -705.811 L870 -701.481 L875 -701.481 L877.5 -697.15 L875 -692.82 L870 -692.82 L867.5 -697.15 L862.5 -697.15 L860 -692.82 L855 -692.82 L852.5 -697.15 L855 -701.481 L852.5 -705.811 L847.5 -705.811 L845 -701.481 L847.5 -697.15 L845 -692.82 L840 -692.82 L837.5 -697.15 L832.5 -697.15 L830 -692.82 L825 -692.82 L822.5 -697.15 L825 -701.481 L830 -701.481 L832.5 -705.811 L830 -710.141 L825 -710.141 L822.5 -714.471 L825 -718.801 L822.5 -723.131 L817.5 -723.131 L815 -718.801 L817.5 -714.471 L815 -710.141 L810 -710.141 L807.5 -705.811 L810 -701.481 L815 -701.481 L817.5 -697.15 L815 -692.82 L810 -692.82 L807.5 -697.15 L802.5 -697.15 L800 -692.82 L795 -692.82 L792.5 -697.15 L795 -701.481 L792.5 -705.811 L787.5 -705.811 L785 -701.481 L787.5 -697.15 L785 -692.82 L780 -692.82 L777.5 -697.15 L772.5 -697.15 L770 -692.82 L765 -692.82 L762.5 -697.15 L765 -701.481 L770 -701.481 L772.5 -705.811 L770 -710.141 L772.5 -714.471 L777.5 -714.471 L780 -710.141 L785 -710.141 L787.5 -714.471 L785 -718.801 L780 -718.801 L777.5 -723.131 L780 -727.461 L777.5 -731.791 L772.5 -731.791 L770 -727.461 L765 -727.461 L762.5 -731.791 L765 -736.122 L770 -736.122 L772.5 -740.452 L770 -744.782 L765 -744.782 L762.5 -749.112 L765 -753.442 L762.5 -757.772 L757.5 -757.772 L755 -753.442 L757.5 -749.112 L755 -744.782 L750 -744.782 L747.5 -740.452 L750 -736.122 L755 -736.122 L757.5 -731.791 L755 -727.461 L750 -727.461 L747.5 -731.791 L742.5 -731.791 L740 -727.461 L742.5 -723.131 L740 -718.801 L735 -718.801 L732.5 -714.471 L735 -710.141 L740 -710.141 L742.5 -714.471 L747.5 -714.471 L750 -710.141 L747.5 -705.811 L750 -701.481 L755 -701.481 L757.5 -697.15 L755 -692.82 L750 -692.82 L747.5 -697.15 L742.5 -697.15 L740 -692.82 L735 -692.82 L732.5 -697.15 L735 -701.481 L732.5 -705.811 L727.5 -705.811 L725 -701.481 L727.5 -697.15 L725 -692.82 L720 -692.82 L717.5 -688.49 L720 -684.16 L725 -684.16 L727.5 -679.83 L725 -675.5 L720 -675.5 L717.5 -679.83 L712.5 -679.83 L710 -675.5 L712.5 -671.17 L710 -666.84 L705 -666.84 L702.5 -662.509 L705 -658.179 L710 -658.179 L712.5 -662.509 L717.5 -662.509 L720 -658.179 L725 -658.179 L727.5 -662.509 L725 -666.84 L727.5 -671.17 L732.5 -671.17 L735 -666.84 L732.5 -662.509 L735 -658.179 L740 -658.179 L742.5 -653.849 L740 -649.519 L735 -649.519 L732.5 -645.189 L735 -640.859 L740 -640.859 L742.5 -645.189 L747.5 -645.189 L750 -640.859 L747.5 -636.529 L750 -632.199 L755 -632.199 L757.5 -627.868 L755 -623.538 L750 -623.538 L747.5 -627.868 L742.5 -627.868 L740 -623.538 L735 -623.538 L732.5 -627.868 L735 -632.199 L732.5 -636.529 L727.5 -636.529 L725 -632.199 L727.5 -627.868 L725 -623.538 L720 -623.538 L717.5 -627.868 L712.5 -627.868 L710 -623.538 L705 -623.538 L702.5 -627.868 L705 -632.199 L710 -632.199 L712.5 -636.529 L710 -640.859 L705 -640.859 L702.5 -645.189 L705 -649.519 L702.5 -653.849 L697.5 -653.849 L695 -649.519 L697.5 -645.189 L695 -640.859 L690 -640.859 L687.5 -636.529 L690 -632.199 L695 -632.199 L697.5 -627.868 L695 -623.538 L690 -623.538 L687.5 -627.868 L682.5 -627.868 L680 -623.538 L682.5 -619.208 L680 -614.878 L675 -614.878 L672.5 -610.548 L675 -606.218 L680 -606.218 L682.5 -610.548 L687.5 -610.548 L690 -606.218 L687.5 -601.888 L690 -597.558 L695 -597.558 L697.5 -593.227 L695 -588.897 L690 -588.897 L687.5 -593.227 L682.5 -593.227 L680 -588.897 L675 -588.897 L672.5 -593.227 L675 -597.558 L672.5 -601.888 L667.5 -601.888 L665 -597.558 L667.5 -593.227 L665 -588.897 L660 -588.897 L657.5 -584.567 L660 -580.237 L665 -580.237 L667.5 -575.907 L665 -571.577 L660 -571.577 L657.5 -575.907 L652.5 -575.907 L650 -571.577 L652.5 -567.247 L650 -562.917 L645 -562.917 L642.5 -558.586 L645 -554.256 L650 -554.256 L652.5 -558.586 L657.5 -558.586 L660 -554.256 L665 -554.256 L667.5 -558.586 L665 -562.917 L667.5 -567.247 L672.5 -567.247 L675 -562.917 L672.5 -558.586 L675 -554.256 L680 -554.256 L682.5 -558.586 L687.5 -558.586 L690 -554.256 L695 -554.256 L697.5 -558.586 L695 -562.917 L690 -562.917 L687.5 -567.247 L690 -571.577 L695 -571.577 L697.5 -575.907 L695 -580.237 L697.5 -584.567 L702.5 -584.567 L705 -580.237 L702.5 -575.907 L705 -571.577 L710 -571.577 L712.5 -567.247 L710 -562.917 L705 -562.917 L702.5 -558.586 L705 -554.256 L710 -554.256 L712.5 -558.586 L717.5 -558.586 L720 -554.256 L725 -554.256 L727.5 -558.586 L725 -562.917 L727.5 -567.247 L732.5 -567.247 L735 -562.917 L732.5 -558.586 L735 -554.256 L740 -554.256 L742.5 -558.586 L747.5 -558.586 L750 -554.256 L755 -554.256 L757.5 -558.586 L755 -562.917 L750 -562.917 L747.5 -567.247 L750 -571.577 L747.5 -575.907 L742.5 -575.907 L740 -571.577 L735 -571.577 L732.5 -575.907 L735 -580.237 L740 -580.237 L742.5 -584.567 L740 -588.897 L742.5 -593.227 L747.5 -593.227 L750 -588.897 L755 -588.897 L757.5 -593.227 L755 -597.558 L750 -597.558 L747.5 -601.888 L750 -606.218 L755 -606.218 L757.5 -610.548 L755 -614.878 L757.5 -619.208 L762.5 -619.208 L765 -614.878 L762.5 -610.548 L765 -606.218 L770 -606.218 L772.5 -601.888 L770 -597.558 L765 -597.558 L762.5 -593.227 L765 -588.897 L770 -588.897 L772.5 -593.227 L777.5 -593.227 L780 -588.897 L777.5 -584.567 L780 -580.237 L785 -580.237 L787.5 -575.907 L785 -571.577 L780 -571.577 L777.5 -575.907 L772.5 -575.907 L770 -571.577 L772.5 -567.247 L770 -562.917 L765 -562.917 L762.5 -558.586 L765 -554.256 L770 -554.256 L772.5 -558.586 L777.5 -558.586 L780 -554.256 L785 -554.256 L787.5 -558.586 L785 -562.917 L787.5 -567.247 L792.5 -567.247 L795 -562.917 L792.5 -558.586 L795 -554.256 L800 -554.256 L802.5 -558.586 L807.5 -558.586 L810 -554.256 L815 -554.256 L817.5 -558.586 L815 -562.917 L810 -562.917 L807.5 -567.247 L810 -571.577 L815 -571.577 L817.5 -575.907 L815 -580.237 L817.5 -584.567 L822.5 -584.567 L825 -580.237 L822.5 -575.907 L825 -571.577 L830 -571.577 L832.5 -567.247 L830 -562.917 L825 -562.917 L822.5 -558.586 L825 -554.256 L830 -554.256 L832.5 -558.586 L837.5 -558.586 L840 -554.256 L845 -554.256 L847.5 -558.586 L845 -562.917 L847.5 -567.247 L852.5 -567.247 L855 -562.917 L852.5 -558.586 L855 -554.256 L860 -554.256 L862.5 -558.586 L867.5 -558.586 L870 -554.256 L875 -554.256 L877.5 -558.586 L875 -562.917 L870 -562.917 L867.5 -567.247 L870 -571.577 L867.5 -575.907 L862.5 -575.907 L860 -571.577 L855 -571.577 L852.5 -575.907 L855 -580.237 L860 -580.237 L862.5 -584.567 L860 -588.897 L855 -588.897 L852.5 -593.227 L855 -597.558 L852.5 -601.888 L847.5 -601.888 L845 -597.558 L847.5 -593.227 L845 -588.897 L840 -588.897 L837.5 -593.227 L832.5 -593.227 L830 -588.897 L825 -588.897 L822.5 -593.227 L825 -597.558 L830 -597.558 L832.5 -601.888 L830 -606.218 L832.5 -610.548 L837.5 -610.548 L840 -606.218 L845 -606.218 L847.5 -610.548 L845 -614.878 L840 -614.878 L837.5 -619.208 L840 -623.538 L845 -623.538 L847.5 -627.868 L845 -632.199 L847.5 -636.529 L852.5 -636.529 L855 -632.199 L852.5 -627.868 L855 -623.538 L860 -623.538 L862.5 -627.868 L867.5 -627.868 L870 -623.538 L875 -623.538 L877.5 -627.868 L875 -632.199 L870 -632.199 L867.5 -636.529 L870 -640.859 L867.5 -645.189 L862.5 -645.189 L860 -640.859 L855 -640.859 L852.5 -645.189 L855 -649.519 L860 -649.519 L862.5 -653.849 L860 -658.179 L862.5 -662.509 L867.5 -662.509 L870 -658.179 L875 -658.179 L877.5 -662.509 L875 -666.84 L870 -666.84 L867.5 -671.17 L870 -675.5 L875 -675.5 L877.5 -679.83 L875 -684.16 L877.5 -688.49 L882.5 -688.49 L885 -684.16 L882.5 -679.83 L885 -675.5 L890 -675.5 L892.5 -671.17 L890 -666.84 L885 -666.84 L882.5 -662.509 L885 -658.179 L890 -658.179 L892.5 -662.509 L897.5 -662.509 L900 -658.179 L897.5 -653.849 L900 -649.519 L905 -649.519 L907.5 -645.189 L905 -640.859 L900 -640.859 L897.5 -645.189 L892.5 -645.189 L890 -640.859 L892.5 -636.529 L890 -632.199 L885 -632.199 L882.5 -627.868 L885 -623.538 L890 -623.538 L892.5 -627.868 L897.5 -627.868 L900 -623.538 L905 -623.538 L907.5 -627.868 L905 -632.199 L907.5 -636.529 L912.5 -636.529 L915 -632.199 L912.5 -627.868 L915 -623.538 L920 -623.538 L922.5 -619.208 L920 -614.878 L915 -614.878 L912.5 -610.548 L915 -606.218 L920 -606.218 L922.5 -610.548 L927.5 -610.548 L930 -606.218 L927.5 -601.888 L930 -597.558 L935 -597.558 L937.5 -593.227 L935 -588.897 L930 -588.897 L927.5 -593.227 L922.5 -593.227 L920 -588.897 L915 -588.897 L912.5 -593.227 L915 -597.558 L912.5 -601.888 L907.5 -601.888 L905 -597.558 L907.5 -593.227 L905 -588.897 L900 -588.897 L897.5 -584.567 L900 -580.237 L905 -580.237 L907.5 -575.907 L905 -571.577 L900 -571.577 L897.5 -575.907 L892.5 -575.907 L890 -571.577 L892.5 -567.247 L890 -562.917 L885 -562.917 L882.5 -558.586 L885 -554.256 L890 -554.256 L892.5 -558.586 L897.5 -558.586 L900 -554.256 L905 -554.256 L907.5 -558.586 L905 -562.917 L907.5 -567.247 L912.5 -567.247 L915 -562.917 L912.5 -558.586 L915 -554.256 L920 -554.256 L922.5 -558.586 L927.5 -558.586 L930 -554.256 L935 -554.256 L937.5 -558.586 L935 -562.917 L930 -562.917 L927.5 -567.247 L930 -571.577 L935 -571.577 L937.5 -575.907 L935 -580.237 L937.5 -584.567 L942.5 -584.567 L945 -580.237 L942.5 -575.907 L945 -571.577 L950 -571.577 L952.5 -567.247 L950 -562.917 L945 -562.917 L942.5 -558.586 L945 -554.256 L950 -554.256 L952.5 -558.586 L957.5 -558.586 L960 -554.256 L957.5 -549.926 L960 -545.596 L965 -545.596 L967.5 -541.266 L965 -536.936 L960 -536.936 L957.5 -541.266 L952.5 -541.266 L950 -536.936 L952.5 -532.606 L950 -528.275 L945 -528.275 L942.5 -523.945 L945 -519.615 L950 -519.615 L952.5 -523.945 L957.5 -523.945 L960 -519.615 L965 -519.615 L967.5 -523.945 L965 -528.275 L967.5 -532.606 L972.5 -532.606 L975 -528.275 L972.5 -523.945 L975 -519.615 L980 -519.615 L982.5 -515.285 L980 -510.955 L975 -510.955 L972.5 -506.625 L975 -502.295 L980 -502.295 L982.5 -506.625 L987.5 -506.625 L990 -502.295 L987.5 -497.965 L990 -493.634 L995 -493.634 L997.5 -489.304 L995 -484.974 L990 -484.974 L987.5 -489.304 L982.5 -489.304 L980 -484.974 L975 -484.974 L972.5 -489.304 L975 -493.634 L972.5 -497.965 L967.5 -497.965 L965 -493.634 L967.5 -489.304 L965 -484.974 L960 -484.974 L957.5 -489.304 L952.5 -489.304 L950 -484.974 L945 -484.974 L942.5 -489.304 L945 -493.634 L950 -493.634 L952.5 -497.965 L950 -502.295 L945 -502.295 L942.5 -506.625 L945 -510.955 L942.5 -515.285 L937.5 -515.285 L935 -510.955 L937.5 -506.625 L935 -502.295 L930 -502.295 L927.5 -497.965 L930 -493.634 L935 -493.634 L937.5 -489.304 L935 -484.974 L930 -484.974 L927.5 -489.304 L922.5 -489.304 L920 -484.974 L922.5 -480.644 L920 -476.314 L915 -476.314 L912.5 -471.984 L915 -467.654 L920 -467.654 L922.5 -471.984 L927.5 -471.984 L930 -467.654 L927.5 -463.324 L930 -458.993 L935 -458.993 L937.5 -454.663 L935 -450.333 L930 -450.333 L927.5 -454.663 L922.5 -454.663 L920 -450.333 L915 -450.333 L912.5 -454.663 L915 -458.993 L912.5 -463.324 L907.5 -463.324 L905 -458.993 L907.5 -454.663 L905 -450.333 L900 -450.333 L897.5 -446.003 L900 -441.673 L905 -441.673 L907.5 -437.343 L905 -433.013 L900 -433.013 L897.5 -437.343 L892.5 -437.343 L890 -433.013 L892.5 -428.683 L890 -424.352 L885 -424.352 L882.5 -420.022 L885 -415.692 L890 -415.692 L892.5 -420.022 L897.5 -420.022 L900 -415.692 L905 -415.692 L907.5 -420.022 L905 -424.352 L907.5 -428.683 L912.5 -428.683 L915 -424.352 L912.5 -420.022 L915 -415.692 L920 -415.692 L922.5 -420.022 L927.5 -420.022 L930 -415.692 L935 -415.692 L937.5 -420.022 L935 -424.352 L930 -424.352 L927.5 -428.683 L930 -433.013 L935 -433.013 L937.5 -437.343 L935 -441.673 L937.5 -446.003 L942.5 -446.003 L945 -441.673 L942.5 -437.343 L945 -433.013 L950 -433.013 L952.5 -428.683 L950 -424.352 L945 -424.352 L942.5 -420.022 L945 -415.692 L950 -415.692 L952.5 -420.022 L957.5 -420.022 L960 -415.692 L965 -415.692 L967.5 -420.022 L965 -424.352 L967.5 -428.683 L972.5 -428.683 L975 -424.352 L972.5 -420.022 L975 -415.692 L980 -415.692 L982.5 -420.022 L987.5 -420.022 L990 -415.692 L995 -415.692 L997.5 -420.022 L995 -424.352 L990 -424.352 L987.5 -428.683 L990 -433.013 L987.5 -437.343 L982.5 -437.343 L980 -433.013 L975 -433.013 L972.5 -437.343 L975 -441.673 L980 -441.673 L982.5 -446.003 L980 -450.333 L982.5 -454.663 L987.5 -454.663 L990 -450.333 L995 -450.333 L997.5 -454.663 L995 -458.993 L990 -458.993 L987.5 -463.324 L990 -467.654 L995 -467.654 L997.5 -471.984 L995 -476.314 L997.5 -480.644 L1002.5 -480.644 L1005 -476.314 L1002.5 -471.984 L1005 -467.654 L1010 -467.654 L1012.5 -463.324 L1010 -458.993 L1005 -458.993 L1002.5 -454.663 L1005 -450.333 L1010 -450.333 L1012.5 -454.663 L1017.5 -454.663 L1020 -450.333 L1017.5 -446.003 L1020 -441.673 L1025 -441.673 L1027.5 -437.343 L1025 -433.013 L1020 -433.013 L1017.5 -437.343 L1012.5 -437.343 L1010 -433.013 L1012.5 -428.683 L1010 -424.352 L1005 -424.352 L1002.5 -420.022 L1005 -415.692 L1010 -415.692 L1012.5 -420.022 L1017.5 -420.022 L1020 -415.692 L1025 -415.692 L1027.5 -420.022 L1025 -424.352 L1027.5 -428.683 L1032.5 -428.683 L1035 -424.352 L1032.5 -420.022 L1035 -415.692 L1040 -415.692 L1042.5 -411.362 L1040 -407.032 L1035 -407.032 L1032.5 -402.702 L1035 -398.372 L1040 -398.372 L1042.5 -402.702 L1047.5 -402.702 L1050 -398.372 L1047.5 -394.042 L1050 -389.711 L1055 -389.711 L1057.5 -385.381 L1055 -381.051 L1050 -381.051 L1047.5 -385.381 L1042.5 -385.381 L1040 -381.051 L1035 -381.051 L1032.5 -385.381 L1035 -389.711 L1032.5 -394.042 L1027.5 -394.042 L1025 -389.711 L1027.5 -385.381 L1025 -381.051 L1020 -381.051 L1017.5 -376.721 L1020 -372.391 L1025 -372.391 L1027.5 -368.061 L1025 -363.731 L1020 -363.731 L1017.5 -368.061 L1012.5 -368.061 L1010 -363.731 L1012.5 -359.401 L1010 -355.07 L1005 -355.07 L1002.5 -350.74 L1005 -346.41 L1010 -346.41 L1012.5 -350.74 L1017.5 -350.74 L1020 -346.41 L1025 -346.41 L1027.5 -350.74 L1025 -355.07 L1027.5 -359.401 L1032.5 -359.401 L1035 -355.07 L1032.5 -350.74 L1035 -346.41 L1040 -346.41 L1042.5 -350.74 L1047.5 -350.74 L1050 -346.41 L1055 -346.41 L1057.5 -350.74 L1055 -355.07 L1050 -355.07 L1047.5 -359.401 L1050 -363.731 L1055 -363.731 L1057.5 -368.061 L1055 -372.391 L1057.5 -376.721 L1062.5 -376.721 L1065 -372.391 L1062.5 -368.061 L1065 -363.731 L1070 -363.731 L1072.5 -359.401 L1070 -355.07 L1065 -355.07 L1062.5 -350.74 L1065 -346.41 L1070 -346.41 L1072.5 -350.74 L1077.5 -350.74 L1080 -346.41 L1077.5 -342.08 L1080 -337.75 L1085 -337.75 L1087.5 -333.42 L1085 -329.09 L1080 -329.09 L1077.5 -333.42 L1072.5 -333.42 L1070 -329.09 L1072.5 -324.76 L1070 -320.429 L1065 -320.429 L1062.5 -316.099 L1065 -311.769 L1070 -311.769 L1072.5 -316.099 L1077.5 -316.099 L1080 -311.769 L1085 -311.769 L1087.5 -316.099 L1085 -320.429 L1087.5 -324.76 L1092.5 -324.76 L1095 -320.429 L1092.5 -316.099 L1095 -311.769 L1100 -311.769 L1102.5 -307.439 L1100 -303.109 L1095 -303.109 L1092.5 -298.779 L1095 -294.449 L1100 -294.449 L1102.5 -298.779 L1107.5 -298.779 L1110 -294.449 L1107.5 -290.119 L1110 -285.788 L1115 -285.788 L1117.5 -281.458 L1115 -277.128 L1110 -277.128 L1107.5 -281.458 L1102.5 -281.458 L1100 -277.128 L1095 -277.128 L1092.5 -281.458 L1095 -285.788 L1092.5 -290.119 L1087.5 -290.119 L1085 -285.788 L1087.5 -281.458 L1085 -277.128 L1080 -277.128 L1077.5 -281.458 L1072.5 -281.458 L1070 -277.128 L1065 -277.128 L1062.5 -281.458 L1065 -285.788 L1070 -285.788 L1072.5 -290.119 L1070 -294.449 L1065 -294.449 L1062.5 -298.779 L1065 -303.109 L1062.5 -307.439 L1057.5 -307.439 L1055 -303.109 L1057.5 -298.779 L1055 -294.449 L1050 -294.449 L1047.5 -290.119 L1050 -285.788 L1055 -285.788 L1057.5 -281.458 L1055 -277.128 L1050 -277.128 L1047.5 -281.458 L1042.5 -281.458 L1040 -277.128 L1035 -277.128 L1032.5 -281.458 L1035 -285.788 L1032.5 -290.119 L1027.5 -290.119 L1025 -285.788 L1027.5 -281.458 L1025 -277.128 L1020 -277.128 L1017.5 -281.458 L1012.5 -281.458 L1010 -277.128 L1005 -277.128 L1002.5 -281.458 L1005 -285.788 L1010 -285.788 L1012.5 -290.119 L1010 -294.449 L1012.5 -298.779 L1017.5 -298.779 L1020 -294.449 L1025 -294.449 L1027.5 -298.779 L1025 -303.109 L1020 -303.109 L1017.5 -307.439 L1020 -311.769 L1017.5 -316.099 L1012.5 -316.099 L1010 -311.769 L1005 -311.769 L1002.5 -316.099 L1005 -320.429 L1010 -320.429 L1012.5 -324.76 L1010 -329.09 L1005 -329.09 L1002.5 -333.42 L1005 -337.75 L1002.5 -342.08 L997.5 -342.08 L995 -337.75 L997.5 -333.42 L995 -329.09 L990 -329.09 L987.5 -324.76 L990 -320.429 L995 -320.429 L997.5 -316.099 L995 -311.769 L990 -311.769 L987.5 -316.099 L982.5 -316.099 L980 -311.769 L982.5 -307.439 L980 -303.109 L975 -303.109 L972.5 -298.779 L975 -294.449 L980 -294.449 L982.5 -298.779 L987.5 -298.779 L990 -294.449 L987.5 -290.119 L990 -285.788 L995 -285.788 L997.5 -281.458 L995 -277.128 L990 -277.128 L987.5 -281.458 L982.5 -281.458 L980 -277.128 L975 -277.128 L972.5 -281.458 L975 -285.788 L972.5 -290.119 L967.5 -290.119 L965 -285.788 L967.5 -281.458 L965 -277.128 L960 -277.128 L957.5 -281.458 L952.5 -281.458 L950 -277.128 L945 -277.128 L942.5 -281.458 L945 -285.788 L950 -285.788 L952.5 -290.119 L950 -294.449 L945 -294.449 L942.5 -298.779 L945 -303.109 L942.5 -307.439 L937.5 -307.439 L935 -303.109 L937.5 -298.779 L935 -294.449 L930 -294.449 L927.5 -290.119 L930 -285.788 L935 -285.788 L937.5 -281.458 L935 -277.128 L930 -277.128 L927.5 -281.458 L922.5 -281.458 L920 -277.128 L915 -277.128 L912.5 -281.458 L915 -285.788 L912.5 -290.119 L907.5 -290.119 L905 -285.788 L907.5 -281.458 L905 -277.128 L900 -277.128 L897.5 -281.458 L892.5 -281.458 L890 -277.128 L885 -277.128 L882.5 -281.458 L885 -285.788 L890 -285.788 L892.5 -290.119 L890 -294.449 L892.5 -298.779 L897.5 -298.779 L900 -294.449 L905 -294.449 L907.5 -298.779 L905 -303.109 L900 -303.109 L897.5 -307.439 L900 -311.769 L905 -311.769 L907.5 -316.099 L905 -320.429 L907.5 -324.76 L912.5 -324.76 L915 -320.429 L912.5 -316.099 L915 -311.769 L920 -311.769 L922.5 -316.099 L927.5 -316.099 L930 -311.769 L935 -311.769 L937.5 -316.099 L935 -320.429 L930 -320.429 L927.5 -324.76 L930 -329.09 L927.5 -333.42 L922.5 -333.42 L920 -329.09 L915 -329.09 L912.5 -333.42 L915 -337.75 L920 -337.75 L922.5 -342.08 L920 -346.41 L915 -346.41 L912.5 -350.74 L915 -355.07 L912.5 -359.401 L907.5 -359.401 L905 -355.07 L907.5 -350.74 L905 -346.41 L900 -346.41 L897.5 -350.74 L892.5 -350.74 L890 -346.41 L885 -346.41 L882.5 -350.74 L885 -355.07 L890 -355.07 L892.5 -359.401 L890 -363.731 L892.5 -368.061 L897.5 -368.061 L900 -363.731 L905 -363.731 L907.5 -368.061 L905 -372.391 L900 -372.391 L897.5 -376.721 L900 -381.051 L897.5 -385.381 L892.5 -385.381 L890 -381.051 L885 -381.051 L882.5 -385.381 L885 -389.711 L890 -389.711 L892.5 -394.042 L890 -398.372 L885 -398.372 L882.5 -402.702 L885 -407.032 L882.5 -411.362 L877.5 -411.362 L875 -407.032 L877.5 -402.702 L875 -398.372 L870 -398.372 L867.5 -394.042 L870 -389.711 L875 -389.711 L877.5 -385.381 L875 -381.051 L870 -381.051 L867.5 -385.381 L862.5 -385.381 L860 -381.051 L862.5 -376.721 L860 -372.391 L855 -372.391 L852.5 -368.061 L855 -363.731 L860 -363.731 L862.5 -368.061 L867.5 -368.061 L870 -363.731 L867.5 -359.401 L870 -355.07 L875 -355.07 L877.5 -350.74 L875 -346.41 L870 -346.41 L867.5 -350.74 L862.5 -350.74 L860 -346.41 L855 -346.41 L852.5 -350.74 L855 -355.07 L852.5 -359.401 L847.5 -359.401 L845 -355.07 L847.5 -350.74 L845 -346.41 L840 -346.41 L837.5 -342.08 L840 -337.75 L845 -337.75 L847.5 -333.42 L845 -329.09 L840 -329.09 L837.5 -333.42 L832.5 -333.42 L830 -329.09 L832.5 -324.76 L830 -320.429 L825 -320.429 L822.5 -316.099 L825 -311.769 L830 -311.769 L832.5 -316.099 L837.5 -316.099 L840 -311.769 L845 -311.769 L847.5 -316.099 L845 -320.429 L847.5 -324.76 L852.5 -324.76 L855 -320.429 L852.5 -316.099 L855 -311.769 L860 -311.769 L862.5 -307.439 L860 -303.109 L855 -303.109 L852.5 -298.779 L855 -294.449 L860 -294.449 L862.5 -298.779 L867.5 -298.779 L870 -294.449 L867.5 -290.119 L870 -285.788 L875 -285.788 L877.5 -281.458 L875 -277.128 L870 -277.128 L867.5 -281.458 L862.5 -281.458 L860 -277.128 L855 -277.128 L852.5 -281.458 L855 -285.788 L852.5 -290.119 L847.5 -290.119 L845 -285.788 L847.5 -281.458 L845 -277.128 L840 -277.128 L837.5 -281.458 L832.5 -281.458 L830 -277.128 L825 -277.128 L822.5 -281.458 L825 -285.788 L830 -285.788 L832.5 -290.119 L830 -294.449 L825 -294.449 L822.5 -298.779 L825 -303.109 L822.5 -307.439 L817.5 -307.439 L815 -303.109 L817.5 -298.779 L815 -294.449 L810 -294.449 L807.5 -290.119 L810 -285.788 L815 -285.788 L817.5 -281.458 L815 -277.128 L810 -277.128 L807.5 -281.458 L802.5 -281.458 L800 -277.128 L802.5 -272.798 L800 -268.468 L795 -268.468 L792.5 -264.138 L795 -259.808 L800 -259.808 L802.5 -264.138 L807.5 -264.138 L810 -259.808 L807.5 -255.477 L810 -251.147 L815 -251.147 L817.5 -246.817 L815 -242.487 L810 -242.487 L807.5 -246.817 L802.5 -246.817 L800 -242.487 L795 -242.487 L792.5 -246.817 L795 -251.147 L792.5 -255.477 L787.5 -255.477 L785 -251.147 L787.5 -246.817 L785 -242.487 L780 -242.487 L777.5 -238.157 L780 -233.827 L785 -233.827 L787.5 -229.497 L785 -225.167 L780 -225.167 L777.5 -229.497 L772.5 -229.497 L770 -225.167 L772.5 -220.836 L770 -216.506 L765 -216.506 L762.5 -212.176 L765 -207.846 L770 -207.846 L772.5 -212.176 L777.5 -212.176 L780 -207.846 L785 -207.846 L787.5 -212.176 L785 -216.506 L787.5 -220.836 L792.5 -220.836 L795 -216.506 L792.5 -212.176 L795 -207.846 L800 -207.846 L802.5 -212.176 L807.5 -212.176 L810 -207.846 L815 -207.846 L817.5 -212.176 L815 -216.506 L810 -216.506 L807.5 -220.836 L810 -225.167 L815 -225.167 L817.5 -229.497 L815 -233.827 L817.5 -238.157 L822.5 -238.157 L825 -233.827 L822.5 -229.497 L825 -225.167 L830 -225.167 L832.5 -220.836 L830 -216.506 L825 -216.506 L822.5 -212.176 L825 -207.846 L830 -207.846 L832.5 -212.176 L837.5 -212.176 L840 -207.846 L837.5 -203.516 L840 -199.186 L845 -199.186 L847.5 -194.856 L845 -190.526 L840 -190.526 L837.5 -194.856 L832.5 -194.856 L830 -190.526 L832.5 -186.195 L830 -181.865 L825 -181.865 L822.5 -177.535 L825 -173.205 L830 -173.205 L832.5 -177.535 L837.5 -177.535 L840 -173.205 L845 -173.205 L847.5 -177.535 L845 -181.865 L847.5 -186.195 L852.5 -186.195 L855 -181.865 L852.5 -177.535 L855 -173.205 L860 -173.205 L862.5 -168.875 L860 -164.545 L855 -164.545 L852.5 -160.215 L855 -155.885 L860 -155.885 L862.5 -160.215 L867.5 -160.215 L870 -155.885 L867.5 -151.554 L870 -147.224 L875 -147.224 L877.5 -142.894 L875 -138.564 L870 -138.564 L867.5 -142.894 L862.5 -142.894 L860 -138.564 L855 -138.564 L852.5 -142.894 L855 -147.224 L852.5 -151.554 L847.5 -151.554 L845 -147.224 L847.5 -142.894 L845 -138.564 L840 -138.564 L837.5 -142.894 L832.5 -142.894 L830 -138.564 L825 -138.564 L822.5 -142.894 L825 -147.224 L830 -147.224 L832.5 -151.554 L830 -155.885 L825 -155.885 L822.5 -160.215 L825 -164.545 L822.5 -168.875 L817.5 -168.875 L815 -164.545 L817.5 -160.215 L815 -155.885 L810 -155.885 L807.5 -151.554 L810 -147.224 L815 -147.224 L817.5 -142.894 L815 -138.564 L810 -138.564 L807.5 -142.894 L802.5 -142.894 L800 -138.564 L795 -138.564 L792.5 -142.894 L795 -147.224 L792.5 -151.554 L787.5 -151.554 L785 -147.224 L787.5 -142.894 L785 -138.564 L780 -138.564 L777.5 -142.894 L772.5 -142.894 L770 -138.564 L765 -138.564 L762.5 -142.894 L765 -147.224 L770 -147.224 L772.5 -151.554 L770 -155.885 L772.5 -160.215 L777.5 -160.215 L780 -155.885 L785 -155.885 L787.5 -160.215 L785 -164.545 L780 -164.545 L777.5 -168.875 L780 -173.205 L777.5 -177.535 L772.5 -177.535 L770 -173.205 L765 -173.205 L762.5 -177.535 L765 -181.865 L770 -181.865 L772.5 -186.195 L770 -190.526 L765 -190.526 L762.5 -194.856 L765 -199.186 L762.5 -203.516 L757.5 -203.516 L755 -199.186 L757.5 -194.856 L755 -190.526 L750 -190.526 L747.5 -186.195 L750 -181.865 L755 -181.865 L757.5 -177.535 L755 -173.205 L750 -173.205 L747.5 -177.535 L742.5 -177.535 L740 -173.205 L742.5 -168.875 L740 -164.545 L735 -164.545 L732.5 -160.215 L735 -155.885 L740 -155.885 L742.5 -160.215 L747.5 -160.215 L750 -155.885 L747.5 -151.554 L750 -147.224 L755 -147.224 L757.5 -142.894 L755 -138.564 L750 -138.564 L747.5 -142.894 L742.5 -142.894 L740 -138.564 L735 -138.564 L732.5 -142.894 L735 -147.224 L732.5 -151.554 L727.5 -151.554 L725 -147.224 L727.5 -142.894 L725 -138.564 L720 -138.564 L717.5 -134.234 L720 -129.904 L725 -129.904 L727.5 -125.574 L725 -121.244 L720 -121.244 L717.5 -125.574 L712.5 -125.574 L710 -121.244 L712.5 -116.913 L710 -112.583 L705 -112.583 L702.5 -108.253 L705 -103.923 L710 -103.923 L712.5 -108.253 L717.5 -108.253 L720 -103.923 L725 -103.923 L727.5 -108.253 L725 -112.583 L727.5 -116.913 L732.5 -116.913 L735 -112.583 L732.5 -108.253 L735 -103.923 L740 -103.923 L742.5 -99.5929 L740 -95.2628 L735 -95.2628 L732.5 -90.9327 L735 -86.6025 L740 -86.6025 L742.5 -90.9327 L747.5 -90.9327 L750 -86.6025 L747.5 -82.2724 L750 -77.9423 L755 -77.9423 L757.5 -73.6122 L755 -69.282 L750 -69.282 L747.5 -73.6122 L742.5 -73.6122 L740 -69.282 L735 -69.282 L732.5 -73.6122 L735 -77.9423 L732.5 -82.2724 L727.5 -82.2724 L725 -77.9423 L727.5 -73.6122 L725 -69.282 L720 -69.282 L717.5 -73.6122 L712.5 -73.6122 L710 -69.282 L705 -69.282 L702.5 -73.6122 L705 -77.9423 L710 -77.9423 L712.5 -82.2724 L710 -86.6025 L705 -86.6025 L702.5 -90.9327 L705 -95.2628 L702.5 -99.5929 L697.5 -99.5929 L695 -95.2628 L697.5 -90.9327 L695 -86.6025 L690 -86.6025 L687.5 -82.2724 L690 -77.9423 L695 -77.9423 L697.5 -73.6122 L695 -69.282 L690 -69.282 L687.5 -73.6122 L682.5 -73.6122 L680 -69.282 L682.5 -64.9519 L680 -60.6218 L675 -60.6218 L672.5 -56.2917 L675 -51.9615 L680 -51.9615 L682.5 -56.2917 L687.5 -56.2917 L690 -51.9615 L687.5 -47.6314 L690 -43.3013 L695 -43.3013 L697.5 -38.9711 L695 -34.641 L690 -34.641 L687.5 -38.9711 L682.5 -38.9711 L680 -34.641 L675 -34.641 L672.5 -38.9711 L675 -43.3013 L672.5 -47.6314 L667.5 -47.6314 L665 -43.3013 L667.5 -38.9711 L665 -34.641 L660 -34.641 L657.5 -30.3109 L660 -25.9808 L665 -25.9808 L667.5 -21.6506 L665 -17.3205 L660 -17.3205 L657.5 -21.6506 L652.5 -21.6506 L650 -17.3205 L652.5 -12.9904 L650 -8.66025 L645 -8.66025 L642.5 -4.33013 L645 3.28626e-14 L650 3.28626e-14 L652.5 -4.33013 L657.5 -4.33013 L660 3.28626e-14 L665 3.28626e-14 L667.5 -4.33013 L665 -8.66025 L667.5 -12.9904 L672.5 -12.9904 L675 -8.66025 L672.5 -4.33013 L675 3.4639e-14 L680 3.4639e-14 L682.5 -4.33013 L687.5 -4.33013 L690 3.4639e-14 L695 3.4639e-14 L697.5 -4.33013 L695 -8.66025 L690 -8.66025 L687.5 -12.9904 L690 -17.3205 L695 -17.3205 L697.5 -21.6506 L695 -25.9808 L697.5 -30.3109 L702.5 -30.3109 L705 -25.9808 L702.5 -21.6506 L705 -17.3205 L710 -17.3205 L712.5 -12.9904 L710 -8.66025 L705 -8.66025 L702.5 -4.33013 L705 3.64153e-14 L710 3.64153e-14 L712.5 -4.33013 L717.5 -4.33013 L720 3.64153e-14 L725 3.64153e-14 L727.5 -4.33013 L725 -8.66025 L727.5 -12.9904 L732.5 -12.9904 L735 -8.66025 L732.5 -4.33013 L735 3.81917e-14 L740 3.81917e-14 L742.5 -4.33013 L747.5 -4.33013 L750 3.81917e-14 L755 3.81917e-14 L757.5 -4.33013 L755 -8.66025 L750 -8.66025 L747.5 -12.9904 L750 -17.3205 L747.5 -21.6506 L742.5 -21.6506 L740 -17.3205 L735 -17.3205 L732.5 -21.6506 L735 -25.9808 L740 -25.9808 L742.5 -30.3109 L740 -34.641 L742.5 -38.9711 L747.5 -38.9711 L750 -34.641 L755 -34.641 L757.5 -38.9711 L755 -43.3013 L750 -43.3013 L747.5 -47.6314 L750 -51.9615 L755 -51.9615 L757.5 -56.2917 L755 -60.6218 L757.5 -64.9519 L762.5 -64.9519 L765 -60.6218 L762.5 -56.2917 L765 -51.9615 L770 -51.9615 L772.5 -47.6314 L770 -43.3013 L765 -43.3013 L762.5 -38.9711 L765 -34.641 L770 -34.641 L772.5 -38.9711 L777.5 -38.9711 L780 -34.641 L777.5 -30.3109 L780 -25.9808 L785 -25.9808 L787.5 -21.6506 L785 -17.3205 L780 -17.3205 L777.5 -21.6506 L772.5 -21.6506 L770 -17.3205 L772.5 -12.9904 L770 -8.66025 L765 -8.66025 L762.5 -4.33013 L765 2.57572e-14 L770 2.57572e-14 L772.5 -4.33013 L777.5 -4.33013 L780 2.57572e-14 L785 2.57572e-14 L787.5 -4.33013 L785 -8.66025 L787.5 -12.9904 L792.5 -12.9904 L795 -8.66025 L792.5 -4.33013 L795 2.75335e-14 L800 2.75335e-14 L802.5 -4.33013 L807.5 -4.33013 L810 2.75335e-14 L815 2.75335e-14 L817.5 -4.33013 L815 -8.66025 L810 -8.66025 L807.5 -12.9904 L810 -17.3205 L815 -17.3205 L817.5 -21.6506 L815 -25.9808 L817.5 -30.3109 L822.5 -30.3109 L825 -25.9808 L822.5 -21.6506 L825 -17.3205 L830 -17.3205 L832.5 -12.9904 L830 -8.66025 L825 -8.66025 L822.5 -4.33013 L825 2.93099e-14 L830 2.93099e-14 L832.5 -4.33013 L837.5 -4.33013 L840 2.93099e-14 L845 2.93099e-14 L847.5 -4.33013 L845 -8.66025 L847.5 -12.9904 L852.5 -12.9904 L855 -8.66025 L852.5 -4.33013 L855 3.10862e-14 L860 3.10862e-14 L862.5 -4.33013 L867.5 -4.33013 L870 3.10862e-14 L875 3.10862e-14 L877.5 -4.33013 L875 -8.66025 L870 -8.66025 L867.5 -12.9904 L870 -17.3205 L867.5 -21.6506 L862.5 -21.6506 L860 -17.3205 L855 -17.3205 L852.5 -21.6506 L855 -25.9808 L860 -25.9808 L862.5 -30.3109 L860 -34.641 L855 -34.641 L852.5 -38.9711 L855 -43.3013 L852.5 -47.6314 L847.5 -47.6314 L845 -43.3013 L847.5 -38.9711 L845 -34.641 L840 -34.641 L837.5 -38.9711 L832.5 -38.9711 L830 -34.641 L825 -34.641 L822.5 -38.9711 L825 -43.3013 L830 -43.3013 L832.5 -47.6314 L830 -51.9615 L832.5 -56.2917 L837.5 -56.2917 L840 -51.9615 L845 -51.9615 L847.5 -56.2917 L845 -60.6218 L840 -60.6218 L837.5 -64.9519 L840 -69.282 L845 -69.282 L847.5 -73.6122 L845 -77.9423 L847.5 -82.2724 L852.5 -82.2724 L855 -77.9423 L852.5 -73.6122 L855 -69.282 L860 -69.282 L862.5 -73.6122 L867.5 -73.6122 L870 -69.282 L875 -69.282 L877.5 -73.6122 L875 -77.9423 L870 -77.9423 L867.5 -82.2724 L870 -86.6025 L867.5 -90.9327 L862.5 -90.9327 L860 -86.6025 L855 -86.6025 L852.5 -90.9327 L855 -95.2628 L860 -95.2628 L862.5 -99.5929 L860 -103.923 L862.5 -108.253 L867.5 -108.253 L870 -103.923 L875 -103.923 L877.5 -108.253 L875 -112.583 L870 -112.583 L867.5 -116.913 L870 -121.244 L875 -121.244 L877.5 -125.574 L875 -129.904 L877.5 -134.234 L882.5 -134.234 L885 -129.904 L882.5 -125.574 L885 -121.244 L890 -121.244 L892.5 -116.913 L890 -112.583 L885 -112.583 L882.5 -108.253 L885 -103.923 L890 -103.923 L892.5 -108.253 L897.5 -108.253 L900 -103.923 L897.5 -99.5929 L900 -95.2628 L905 -95.2628 L907.5 -90.9327 L905 -86.6025 L900 -86.6025 L897.5 -90.9327 L892.5 -90.9327 L890 -86.6025 L892.5 -82.2724 L890 -77.9423 L885 -77.9423 L882.5 -73.6122 L885 -69.282 L890 -69.282 L892.5 -73.6122 L897.5 -73.6122 L900 -69.282 L905 -69.282 L907.5 -73.6122 L905 -77.9423 L907.5 -82.2724 L912.5 -82.2724 L915 -77.9423 L912.5 -73.6122 L915 -69.282 L920 -69.282 L922.5 -64.9519 L920 -60.6218 L915 -60.6218 L912.5 -56.2917 L915 -51.9615 L920 -51.9615 L922.5 -56.2917 L927.5 -56.2917 L930 -51.9615 L927.5 -47.6314 L930 -43.3013 L935 -43.3013 L937.5 -38.9711 L935 -34.641 L930 -34.641 L927.5 -38.9711 L922.5 -38.9711 L920 -34.641 L915 -34.641 L912.5 -38.9711 L915 -43.3013 L912.5 -47.6314 L907.5 -47.6314 L905 -43.3013 L907.5 -38.9711 L905 -34.641 L900 -34.641 L897.5 -30.3109 L900 -25.9808 L905 -25.9808 L907.5 -21.6506 L905 -17.3205 L900 -17.3205 L897.5 -21.6506 L892.5 -21.6506 L890 -17.3205 L892.5 -12.9904 L890 -8.66025 L885 -8.66025 L882.5 -4.33013 L885 3.28626e-14 L890 3.28626e-14 L892.5 -4.33013 L897.5 -4.33013 L900 3.28626e-14 L905 3.28626e-14 L907.5 -4.33013 L905 -8.66025 L907.5 -12.9904 L912.5 -12.9904 L915 -8.66025 L912.5 -4.33013 L915 3.4639e-14 L920 3.4639e-14 L922.5 -4.33013 L927.5 -4.33013 L930 3.4639e-14 L935 3.4639e-14 L937.5 -4.33013 L935 -8.66025 L930 -8.66025 L927.5 -12.9904 L930 -17.3205 L935 -17.3205 L937.5 -21.6506 L935 -25.9808 L937.5 -30.3109 L942.5 -30.3109 L945 -25.9808 L942.5 -21.6506 L945 -17.3205 L950 -17.3205 L952.5 -12.9904 L950 -8.66025 L945 -8.66025 L942.5 -4.33013 L945 3.64153e-14 L950 3.64153e-14 L952.5 -4.33013 L957.5 -4.33013 L960 3.64153e-14 L965 3.64153e-14 L967.5 -4.33013 L965 -8.66025 L967.5 -12.9904 L972.5 -12.9904 L975 -8.66025 L972.5 -4.33013 L975 3.81917e-14 L980 3.81917e-14 L982.5 -4.33013 L987.5 -4.33013 L990 3.81917e-14 L995 3.81917e-14 L997.5 -4.33013 L995 -8.66025 L990 -8.66025 L987.5 -12.9904 L990 -17.3205 L987.5 -21.6506 L982.5 -21.6506 L980 -17.3205 L975 -17.3205 L972.5 -21.6506 L975 -25.9808 L980 -25.9808 L982.5 -30.3109 L980 -34.641 L982.5 -38.9711 L987.5 -38.9711 L990 -34.641 L995 -34.641 L997.5 -38.9711 L995 -43.3013 L990 -43.3013 L987.5 -47.6314 L990 -51.9615 L995 -51.9615 L997.5 -56.2917 L995 -60.6218 L997.5 -64.9519 L1002.5 -64.9519 L1005 -60.6218 L1002.5 -56.2917 L1005 -51.9615 L1010 -51.9615 L1012.5 -47.6314 L1010 -43.3013 L1005 -43.3013 L1002.5 -38.9711 L1005 -34.641 L1010 -34.641 L1012.5 -38.9711 L1017.5 -38.9711 L1020 -34.641 L1017.5 -30.3109 L1020 -25.9808 L1025 -25.9808 L1027.5 -21.6506 L1025 -17.3205 L1020 -17.3205 L1017.5 -21.6506 L1012.5 -21.6506 L1010 -17.3205 L1012.5 -12.9904 L1010 -8.66025 L1005 -8.66025 L1002.5 -4.33013 L1005 2.57572e-14 L1010 2.57572e-14 L1012.5 -4.33013 L1017.5 -4.33013 L1020 2.57572e-14 L1025 2.57572e-14 L1027.5 -4.33013 L1025 -8.66025 L1027.5 -12.9904 L1032.5 -12.9904 L1035 -8.66025 L1032.5 -4.33013 L1035 2.75335e-14 L1040 2.75335e-14 L1042.5 -4.33013 L1047.5 -4.33013 L1050 2.75335e-14 L1055 2.75335e-14 L1057.5 -4.33013 L1055 -8.66025 L1050 -8.66025 L1047.5 -12.9904 L1050 -17.3205 L1055 -17.3205 L1057.5 -21.6506 L1055 -25.9808 L1057.5 -30.3109 L1062.5 -30.3109 L1065 -25.9808 L1062.5 -21.6506 L1065 -17.3205 L1070 -17.3205 L1072.5 -12.9904 L1070 -8.66025 L1065 -8.66025 L1062.5 -4.33013 L1065 2.93099e-14 L1070 2.93099e-14 L1072.5 -4.33013 L1077.5 -4.33013 L1080 2.93099e-14 L1085 2.93099e-14 L1087.5 -4.33013 L1085 -8.66025 L1087.5 -12.9904 L1092.5 -12.9904 L1095 -8.66025 L1092.5 -4.33013 L1095 3.10862e-14 L1100 3.10862e-14 L1102.5 -4.33013 L1107.5 -4.33013 L1110 3.10862e-14 L1115 3.10862e-14 L1117.5 -4.33013 L1115 -8.66025 L1110 -8.66025 L1107.5 -12.9904 L1110 -17.3205 L1107.5 -21.6506 L1102.5 -21.6506 L1100 -17.3205 L1095 -17.3205 L1092.5 -21.6506 L1095 -25.9808 L1100 -25.9808 L1102.5 -30.3109 L1100 -34.641 L1095 -34.641 L1092.5 -38.9711 L1095 -43.3013 L1092.5 -47.6314 L1087.5 -47.6314 L1085 -43.3013 L1087.5 -38.9711 L1085 -34.641 L1080 -34.641 L1077.5 -38.9711 L1072.5 -38.9711 L1070 -34.641 L1065 -34.641 L1062.5 -38.9711 L1065 -43.3013 L1070 -43.3013 L1072.5 -47.6314 L1070 -51.9615 L1072.5 -56.2917 L1077.5 -56.2917 L1080 -51.9615 L1085 -51.9615 L1087.5 -56.2917 L1085 -60.6218 L1080 -60.6218 L1077.5 -64.9519 L1080 -69.282 L1077.5 -73.6122 L1072.5 -73.6122 L1070 -69.282 L1065 -69.282 L1062.5 -73.6122 L1065 -77.9423 L1070 -77.9423 L1072.5 -82.2724 L1070 -86.6025 L1065 -86.6025 L1062.5 -90.9327 L1065 -95.2628 L1062.5 -99.5929 L1057.5 -99.5929 L1055 -95.2628 L1057.5 -90.9327 L1055 -86.6025 L1050 -86.6025 L1047.5 -82.2724 L1050 -77.9423 L1055 -77.9423 L1057.5 -73.6122 L1055 -69.282 L1050 -69.282 L1047.5 -73.6122 L1042.5 -73.6122 L1040 -69.282 L1035 -69.282 L1032.5 -73.6122 L1035 -77.9423 L1032.5 -82.2724 L1027.5 -82.2724 L1025 -77.9423 L1027.5 -73.6122 L1025 -69.282 L1020 -69.282 L1017.5 -73.6122 L1012.5 -73.6122 L1010 -69.282 L1005 -69.282 L1002.5 -73.6122 L1005 -77.9423 L1010 -77.9423 L1012.5 -82.2724 L1010 -86.6025 L1012.5 -90.9327 L1017.5 -90.9327 L1020 -86.6025 L1025 -86.6025 L1027.5 -90.9327 L1025 -95.2628 L1020 -95.2628 L1017.5 -99.5929 L1020 -103.923 L1025 -103.923 L1027.5 -108.253 L1025 -112.583 L1027.5 -116.913 L1032.5 -116.913 L1035 -112.583 L1032.5 -108.253 L1035 -103.923 L1040 -103.923 L1042.5 -108.253 L1047.5 -108.253 L1050 -103.923 L1055 -103.923 L1057.5 -108.253 L1055 -112.583 L1050 -112.583 L1047.5 -116.913 L1050 -121.244 L1047.5 -125.574 L1042.5 -125.574 L1040 -121.244 L1035 -121.244 L1032.5 -125.574 L1035 -129.904 L1040 -129.904 L1042.5 -134.234 L1040 -138.564 L1042.5 -142.894 L1047.5 -142.894 L1050 -138.564 L1055 -138.564 L1057.5 -142.894 L1055 -147.224 L1050 -147.224 L1047.5 -151.554 L1050 -155.885 L1055 -155.885 L1057.5 -160.215 L1055 -164.545 L1057.5 -168.875 L1062.5 -168.875 L1065 -164.545 L1062.5 -160.215 L1065 -155.885 L1070 -155.885 L1072.5 -151.554 L1070 -147.224 L1065 -147.224 L1062.5 -142.894 L1065 -138.564 L1070 -138.564 L1072.5 -142.894 L1077.5 -142.894 L1080 -138.564 L1085 -138.564 L1087.5 -142.894 L1085 -147.224 L1087.5 -151.554 L1092.5 -151.554 L1095 -147.224 L1092.5 -142.894 L1095 -138.564 L1100 -138.564 L1102.5 -142.894 L1107.5 -142.894 L1110 -138.564 L1115 -138.564 L1117.5 -142.894 L1115 -147.224 L1110 -147.224 L1107.5 -151.554 L1110 -155.885 L1107.5 -160.215 L1102.5 -160.215 L1100 -155.885 L1095 -155.885 L1092.5 -160.215 L1095 -164.545 L1100 -164.545 L1102.5 -168.875 L1100 -173.205 L1095 -173.205 L1092.5 -177.535 L1095 -181.865 L1092.5 -186.195 L1087.5 -186.195 L1085 -181.865 L1087.5 -177.535 L1085 -173.205 L1080 -173.205 L1077.5 -177.535 L1072.5 -177.535 L1070 -173.205 L1065 -173.205 L1062.5 -177.535 L1065 -181.865 L1070 -181.865 L1072.5 -186.195 L1070 -190.526 L1072.5 -194.856 L1077.5 -194.856 L1080 -190.526 L1085 -190.526 L1087.5 -194.856 L1085 -199.186 L1080 -199.186 L1077.5 -203.516 L1080 -207.846 L1085 -207.846 L1087.5 -212.176 L1085 -216.506 L1087.5 -220.836 L1092.5 -220.836 L1095 -216.506 L1092.5 -212.176 L1095 -207.846 L1100 -207.846 L1102.5 -212.176 L1107.5 -212.176 L1110 -207.846 L1115 -207.846 L1117.5 -212.176 L1115 -216.506 L1110 -216.506 L1107.5 -220.836 L1110 -225.167 L1107.5 -229.497 L1102.5 -229.497 L1100 -225.167 L1095 -225.167 L1092.5 -229.497 L1095 -233.827 L1100 -233.827 L1102.5 -238.157 L1100 -242.487 L1102.5 -246.817 L1107.5 -246.817 L1110 -242.487 L1115 -242.487 L1117.5 -246.817 L1115 -251.147 L1110 -251.147 L1107.5 -255.477 L1110 -259.808 L1115 -259.808 L1117.5 -264.138 L1115 -268.468 L1117.5 -272.798 L1122.5 -272.798 L1125 -268.468 L1122.5 -264.138 L1125 -259.808 L1130 -259.808 L1132.5 -255.477 L1130 -251.147 L1125 -251.147 L1122.5 -246.817 L1125 -242.487 L1130 -242.487 L1132.5 -246.817 L1137.5 -246.817 L1140 -242.487 L1137.5 -238.157 L1140 -233.827 L1145 -233.827 L1147.5 -229.497 L1145 -225.167 L1140 -225.167 L1137.5 -229.497 L1132.5 -229.497 L1130 -225.167 L1132.5 -220.836 L1130 -216.506 L1125 -216.506 L1122.5 -212.176 L1125 -207.846 L1130 -207.846 L1132.5 -212.176 L1137.5 -212.176 L1140 -207.846 L1145 -207.846 L1147.5 -212.176 L1145 -216.506 L1147.5 -220.836 L1152.5 -220.836 L1155 -216.506 L1152.5 -212.176 L1155 -207.846 L1160 -207.846 L1162.5 -203.516 L1160 -199.186 L1155 -199.186 L1152.5 -194.856 L1155 -190.526 L1160 -190.526 L1162.5 -194.856 L1167.5 -194.856 L1170 -190.526 L1167.5 -186.195 L1170 -181.865 L1175 -181.865 L1177.5 -177.535 L1175 -173.205 L1170 -173.205 L1167.5 -177.535 L1162.5 -177.535 L1160 -173.205 L1155 -173.205 L1152.5 -177.535 L1155 -181.865 L1152.5 -186.195 L1147.5 -186.195 L1145 -181.865 L1147.5 -177.535 L1145 -173.205 L1140 -173.205 L1137.5 -168.875 L1140 -164.545 L1145 -164.545 L1147.5 -160.215 L1145 -155.885 L1140 -155.885 L1137.5 -160.215 L1132.5 -160.215 L1130 -155.885 L1132.5 -151.554 L1130 -147.224 L1125 -147.224 L1122.5 -142.894 L1125 -138.564 L1130 -138.564 L1132.5 -142.894 L1137.5 -142.894 L1140 -138.564 L1145 -138.564 L1147.5 -142.894 L1145 -147.224 L1147.5 -151.554 L1152.5 -151.554 L1155 -147.224 L1152.5 -142.894 L1155 -138.564 L1160 -138.564 L1162.5 -142.894 L1167.5 -142.894 L1170 -138.564 L1175 -138.564 L1177.5 -142.894 L1175 -147.224 L1170 -147.224 L1167.5 -151.554 L1170 -155.885 L1175 -155.885 L1177.5 -160.215 L1175 -164.545 L1177.5 -168.875 L1182.5 -168.875 L1185 -164.545 L1182.5 -160.215 L1185 -155.885 L1190 -155.885 L1192.5 -151.554 L1190 -147.224 L1185 -147.224 L1182.5 -142.894 L1185 -138.564 L1190 -138.564 L1192.5 -142.894 L1197.5 -142.894 L1200 -138.564 L1197.5 -134.234 L1200 -129.904 L1205 -129.904 L1207.5 -125.574 L1205 -121.244 L1200 -121.244 L1197.5 -125.574 L1192.5 -125.574 L1190 -121.244 L1192.5 -116.913 L1190 -112.583 L1185 -112.583 L1182.5 -108.253 L1185 -103.923 L1190 -103.923 L1192.5 -108.253 L1197.5 -108.253 L1200 -103.923 L1205 -103.923 L1207.5 -108.253 L1205 -112.583 L1207.5 -116.913 L1212.5 -116.913 L1215 -112.583 L1212.5 -108.253 L1215 -103.923 L1220 -103.923 L1222.5 -99.5929 L1220 -95.2628 L1215 -95.2628 L1212.5 -90.9327 L1215 -86.6025 L1220 -86.6025 L1222.5 -90.9327 L1227.5 -90.9327 L1230 -86.6025 L1227.5 -82.2724 L1230 -77.9423 L1235 -77.9423 L1237.5 -73.6122 L1235 -69.282 L1230 -69.282 L1227.5 -73.6122 L1222.5 -73.6122 L1220 -69.282 L1215 -69.282 L1212.5 -73.6122 L1215 -77.9423 L1212.5 -82.2724 L1207.5 -82.2724 L1205 -77.9423 L1207.5 -73.6122 L1205 -69.282 L1200 -69.282 L1197.5 -73.6122 L1192.5 -73.6122 L1190 -69.282 L1185 -69.282 L1182.5 -73.6122 L1185 -77.9423 L1190 -77.9423 L1192.5 -82.2724 L1190 -86.6025 L1185 -86.6025 L1182.5 -90.9327 L1185 -95.2628 L1182.5 -99.5929 L1177.5 -99.5929 L1175 -95.2628 L1177.5 -90.9327 L1175 -86.6025 L1170 -86.6025 L1167.5 -82.2724 L1170 -77.9423 L1175 -77.9423 L1177.5 -73.6122 L1175 -69.282 L1170 -69.282 L1167.5 -73.6122 L1162.5 -73.6122 L1160 -69.282 L1162.5 -64.9519 L1160 -60.6218 L1155 -60.6218 L1152.5 -56.2917 L1155 -51.9615 L1160 -51.9615 L1162.5 -56.2917 L1167.5 -56.2917 L1170 -51.9615 L1167.5 -47.6314 L1170 -43.3013 L1175 -43.3013 L1177.5 -38.9711 L1175 -34.641 L1170 -34.641 L1167.5 -38.9711 L1162.5 -38.9711 L1160 -34.641 L1155 -34.641 L1152.5 -38.9711 L1155 -43.3013 L1152.5 -47.6314 L1147.5 -47.6314 L1145 -43.3013 L1147.5 -38.9711 L1145 -34.641 L1140 -34.641 L1137.5 -30.3109 L1140 -25.9808 L1145 -25.9808 L1147.5 -21.6506 L1145 -17.3205 L1140 -17.3205 L1137.5 -21.6506 L1132.5 -21.6506 L1130 -17.3205 L1132.5 -12.9904 L1130 -8.66025 L1125 -8.66025 L1122.5 -4.33013 L1125 3.28626e-14 L1130 3.28626e-14 L1132.5 -4.33013 L1137.5 -4.33013 L1140 3.28626e-14 L1145 3.28626e-14 L1147.5 -4.33013 L1145 -8.66025 L1147.5 -12.9904 L1152.5 -12.9904 L1155 -8.66025 L1152.5 -4.33013 L1155 3.4639e-14 L1160 3.4639e-14 L1162.5 -4.33013 L1167.5 -4.33013 L1170 3.4639e-14 L1175 3.4639e-14 L1177.5 -4.33013 L1175 -8.66025 L1170 -8.66025 L1167.5 -12.9904 L1170 -17.3205 L1175 -17.3205 L1177.5 -21.6506 L1175 -25.9808 L1177.5 -30.3109 L1182.5 -30.3109 L1185 -25.9808 L1182.5 -21.6506 L1185 -17.3205 L1190 -17.3205 L1192.5 -12.9904 L1190 -8.66025 L1185 -8.66025 L1182.5 -4.33013 L1185 3.64153e-14 L1190 3.64153e-14 L1192.5 -4.33013 L1197.5 -4.33013 L1200 3.64153e-14 L1205 3.64153e-14 L1207.5 -4.33013 L1205 -8.66025 L1207.5 -12.9904 L1212.5 -12.9904 L1215 -8.66025 L1212.5 -4.33013 L1215 3.81917e-14 L1220 3.81917e-14 L1222.5 -4.33013 L1227.5 -4.33013 L1230 3.81917e-14 L1235 3.81917e-14 L1237.5 -4.33013 L1235 -8.66025 L1230 -8.66025 L1227.5 -12.9904 L1230 -17.3205 L1227.5 -21.6506 L1222.5 -21.6506 L1220 -17.3205 L1215 -17.3205 L1212.5 -21.6506 L1215 -25.9808 L1220 -25.9808 L1222.5 -30.3109 L1220 -34.641 L1222.5 -38.9711 L1227.5 -38.9711 L1230 -34.641 L1235 -34.641 L1237.5 -38.9711 L1235 -43.3013 L1230 -43.3013 L1227.5 -47.6314 L1230 -51.9615 L1235 -51.9615 L1237.5 -56.2917 L1235 -60.6218 L1237.5 -64.9519 L1242.5 -64.9519 L1245 -60.6218 L1242.5 -56.2917 L1245 -51.9615 L1250 -51.9615 L1252.5 -47.6314 L1250 -43.3013 L1245 -43.3013 L1242.5 -38.9711 L1245 -34.641 L1250 -34.641 L1252.5 -38.9711 L1257.5 -38.9711 L1260 -34.641 L1257.5 -30.3109 L1260 -25.9808 L1265 -25.9808 L1267.5 -21.6506 L1265 -17.3205 L1260 -17.3205 L1257.5 -21.6506 L1252.5 -21.6506 L1250 -17.3205 L1252.5 -12.9904 L1250 -8.66025 L1245 -8.66025 L1242.5 -4.33013 L1245 2.57572e-14 L1250 2.57572e-14 L1252.5 -4.33013 L1257.5 -4.33013 L1260 2.57572e-14 L1265 2.57572e-14 L1267.5 -4.33013 L1265 -8.66025 L1267.5 -12.9904 L1272.5 -12.9904 L1275 -8.66025 L1272.5 -4.33013 L1275 2.75335e-14 L1280 2.75335e-14"/>
</svg>
