<?xml version="1.0" encoding="UTF-8"?>
<svg xmlns="http://www.w3.org/2000/svg"
 version="1.1" baseProfile="basic"
 viewBox="-10 -560 660 571"
 width="1280px" height="1024px"
 stroke="white" stroke-width="1px"
 fill="black" fill-opacity="0">
<rect x="-10" y="-560" width="660" height="571" stroke-width="0px" fill-opacity="1"/>
<path d="M0 0 L0 0 L2.5 -4.33013 L7.5 -4.33013 L10 0 L15 0 L17.5 -4.33013 L15 -8.66025 L10 -8.66025 L7.5 -12.9904 L10 -17.3205 L15 -17.3205 L17.5 -21.6506 L15 -25.9808 L17.5 -30.3109 L22.5 -30.3109 L25 -25.9808 L22.5 -21.6506 L25 -17.3205 L30 -17.3205 L32.5 -12.9904 L30 -8.66025 L25 -8.66025 L22.5 -4.33013 L25 1.5099e-14 L30 1.5099e-14 L32.5 -4.33013 L37.5 -4.33013 L40 1.5099e-14 L45 1.5099e-14 L47.5 -4.33013 L45 -8.66025 L47.5 -12.9904 L52.5 -12.9904 L55 -8.66025 L52.5 -4.33013 L55 1.68754e-14 L60 1.68754e-14 L62.5 -4.33013 L67.5 -4.33013 L70 1.68754e-14 L75 1.68754e-14 L77.5 -4.33013 L75 -8.66025 L70 -8.66025 L67.5 -12.9904 L70 -17.3205 L67.5 -21.6506 L62.5 -21.6506 L60 -17.3205 L55 -17.3205 L52.5 -21.6506 L55 -25.9808 L60 -25.9808 L62.5 -30.3109 L60 -34.641 L55 -34.641 L52.5 -38.9711 L55 -43.3013 L52.5 -47.6314 L47.5 -47.6314 L45 -43.3013 L47.5 -38.9711 L45 -34.641 L40 -34.641 L37.5 -38.9711 L32.5 -38.9711 L30 -34.641 L25 -34.641 L22.5 -38.9711 L25 -43.3013 L30 -43.3013 L32.5 -47.6314 L30 -51.9615 L32.5 -56.2917 L37.5 -56.2917 L40 -51.9615 L45 -51.9615 L47.5 -56.2917 L45 -60.6218 L40 -60.6218 L37.5 -64.9519 L40 -69.282 L45 -69.282 L47.5 -73.6122 L45 -77.9423 L47.5 -82.2724 L52.5 -82.2724 L55 -77.9423 L52.5 -73.6122 L55 -69.282 L60 -69.282 L62.5 -73.6122 L67.5 -73.6122 L70 -69.282 L75 -69.282 L77.5 -73.6122 L75 -77.9423 L70 -77.9423 L67.5 -82.2724 L70 -86.6025 L67.5 -90.9327 L62.5 -90.9327 L60 -86.6025 L55 -86.6025 L52.5 -90.9327 L55 -95.2628 L60 -95.2628 L62.5 -99.5929 L60 -103.923 L62.5 -108.253 L67.5 -108.253 L70 -103.923 L75 -103.923 L77.5 -108.253 L75 -112.583 L70 -112.583 L67.5 -116.913 L70 -121.244 L75 -121.244 L77.5 -125.574 L75 -129.904 L77.5 -134.234 L82.5 -134.234 L85 -129.904 L82.5 -125.574 L85 -121.244 L90 -121.244 L92.5 -116.913 L90 -112.583 L85 -112.583 L82.5 -108.253 L85 -103.923 L90 -103.923 L92.5 -108.253 L97.5 -108.253 L100 -103.923 L97.5 -99.5929 L100 -95.2628 L105 -95.2628 L107.5 -90.9327 L105 -86.6025 L100 -86.6025 L97.5 -90.9327 L92.5 -90.9327 L90 -86.6025 L92.5 -82.2724 L90 -77.9423 L85 -77.9423 L82.5 -73.6122 L85 -69.282 L90 -69.282 L92.5 -73.6122 L97.5 -73.6122 L100 -69.282 L105 -69.282 L107.5 -73.6122 L105 -77.9423 L107.5 -82.2724 L112.5 -82.2724 L115 -77.9423 L112.5 -73.6122 L115 -69.282 L120 -69.282 L122.5 -64.9519 L120 -60.6218 L115 -60.6218 L112.5 -56.2917 L115 -51.9615 L120 -51.9615 L122.5 -56.2917 L127.5 -56.2917 L130 -51.9615 L127.5 -47.6314 L130 -43.3013 L135 -43.3013 L137.5 -38.9711 L135 -34.641 L130 -34.641 L127.5 -38.9711 L122.5 -38.9711 L120 -34.641 L115 -34.641 L112.5 -38.9711 L115 -43.3013 L112.5 -47.6314 L107.5 -47.6314 L105 -43.3013 L107.5 -38.9711 L105 -34.641 L100 -34.641 L97.5 -30.3109 L100 -25.9808 L105 -25.9808 L107.5 -21.6506 L105 -17.3205 L100 -17.3205 L97.5 -21.6506 L92.5 -21.6506 L90 -17.3205 L92.5 -12.9904 L90 -8.66025 L85 -8.66025 L82.5 -4.33013 L85 3.28626e-14 L90 3.28626e-14 L92.5 -4.33013 L97.5 -4.33013 L100 3.28626e-14 L105 3.28626e-14 L107.5 -4.33013 L105 -8.66025 L107.5 -12.9904 L112.5 -12.9904 L115 -8.66025 L112.5 -4.33013 L115 3.4639e-14 L120 3.4639e-14 L122.5 -4.33013 L127.5 -4.33013 L130 3.4639e-14 L135 3.4639e-14 L137.5 -4.33013 L135 -8.66025 L130 -8.66025 L127.5 -12.9904 L130 -17.3205 L135 -17.3205 L137.5 -21.6506 L135 -25.9808 L137.5 -30.3109 L142.5 -30.3109 L145 -25.9808 L142.5 -21.6506 L145 -17.3205 L150 -17.3205 L152.5 -12.9904 L150 -8.66025 L145 -8.66025 L142.5 -4.33013 L145 3.64153e-14 L150 3.64153e-14 L152.5 -4.33013 L157.5 -4.33013 L160 3.64153e-14 L165 3.64153e-14 L167.5 -4.33013 L165 -8.66025 L167.5 -12.9904 L172.5 -12.9904 L175 -8.66025 L172.5 -4.33013 L175 3.81917e-14 L180 3.81917e-14 L182.5 -4.33013 L187.5 -4.33013 L190 3.81917e-14 L195 3.81917e-14 L197.5 -4.33013 L195 -8.66025 L190 -8.66025 L187.5 -12.9904 L190 -17.3205 L187.5 -21.6506 L182.5 -21.6506 L180 -17.3205 L175 -17.3205 L172.5 -21.6506 L175 -25.9808 L180 -25.9808 L182.5 -30.3109 L180 -34.641 L182.5 -38.9711 L187.5 -38.9711 L190 -34.641 L195 -34.641 L197.5 -38.9711 L195 -43.3013 L190 -43.3013 L187.5 -47.6314 L190 -51.9615 L195 -51.9615 L197.5 -56.2917 L195 -60.6218 L197.5 -64.9519 L202.5 -64.9519 L205 -60.6218 L202.5 -56.2917 L205 -51.9615 L210 -51.9615 L212.5 -47.6314 L210 -43.3013 L205 -43.3013 L202.5 -38.9711 L205 -34.641 L210 -34.641 L212.5 -38.9711 L217.5 -38.9711 L220 -34.641 L217.5 -30.3109 L220 -25.9808 L225 -25.9808 L227.5 -21.6506 L225 -17.3205 L220 -17.3205 L217.5 -21.6506 L212.5 -21.6506 L210 -17.3205 L212.5 -12.9904 L210 -8.66025 L205 -8.66025 L202.5 -4.33013 L205 2.57572e-14 L210 2.57572e-14 L212.5 -4.33013 L217.5 -4.33013 L220 2.57572e-14 L225 2.57572e-14 L227.5 -4.33013 L225 -8.66025 L227.5 -12.9904 L232.5 -12.9904 L235 -8.66025 L232.5 -4.33013 L235 2.75335e-14 L240 2.75335e-14 L242.5 -4.33013 L247.5 -4.33013 L250 2.75335e-14 L255 2.75335e-14 L257.5 -4.33013 L255 -8.66025 L250 -8.66025 L247.5 -12.9904 L250 -17.3205 L255 -17.3205 L257.5 -21.6506 L255 -25.9808 L257.5 -30.3109 L262.5 -30.3109 L265 -25.9808 L262.5 -21.6506 L265 -17.3205 L270 -17.3205 L272.5 -12.9904 L270 -8.66025 L265 -8.66025 L262.5 -4.33013 L265 2.93099e-14 L270 2.93099e-14 L272.5 -4.33013 L277.5 -4.33013 L280 2.93099e-14 L285 2.93099e-14 L287.5 -4.33013 L285 -8.66025 L287.5 -12.9904 L292.5 -12.9904 L295 -8.66025 L292.5 -4.33013 L295 3.10862e-14 L300 3.10862e-14 L302.5 -4.33013 L307.5 -4.33013 L310 3.10862e-14 L315 3.10862e-14 L317.5 -4.33013 L315 -8.66025 L310 -8.66025 L307.5 -12.9904 L310 -17.3205 L307.5 -21.6506 L302.5 -21.6506 L300 -17.3205 L295 -17.3205 L292.5 -21.6506 L295 -25.9808 L300 -25.9808 L302.5 -30.3109 L300 -34.641 L295 -34.641 L292.5 -38.9711 L295 -43.3013 L292.5 -47.6314 L287.5 -47.6314 L285 -43.3013 L287.5 -38.9711 L285 -34.641 L280 -34.641 L277.5 -38.9711 L272.5 -38.9711 L270 -34.641 L265 -34.641 L262.5 -38.9711 L265 -43.3013 L270 -43.3013 L272.5 -47.6314 L270 -51.9615 L272.5 -56.2917 L277.5 -56.2917 L280 -51.9615 L285 -51.9615 L287.5 -56.2917 L285 -60.6218 L280 -60.6218 L277.5 -64.9519 L280 -69.282 L277.5 -73.6122 L272.5 -73.6122 L270 -69.282 L265 -69.282 L262.5 -73.6122 L265 -77.9423 L270 -77.9423 L272.5 -82.2724 L270 -86.6025 L265 -86.6025 L262.5 -90.9327 L265 -95.2628 L262.5 -99.5929 L257.5 -99.5929 L255 -95.2628 L257.5 -90.9327 L255 -86.6025 L250 -86.6025 L247.5 -82.2724 L250 -77.9423 L255 -77.9423 L257.5 -73.6122 L255 -69.282 L250 -69.282 L247.5 -73.6122 L242.5 -73.6122 L240 -69.282 L235 -69.282 L232.5 -73.6122 L235 -77.9423 L232.5 -82.2724 L227.5 -82.2724 L225 -77.9423 L227.5 -73.6122 L225 -69.282 L220 -69.282 L217.5 -73.6122 L212.5 -73.6122 L210 -69.282 L205 -69.282 L202.5 -73.6122 L205 -77.9423 L210 -77.9423 L212.5 -82.2724 L210 -86.6025 L212.5 -90.9327 L217.5 -90.9327 L220 -86.6025 L225 -86.6025 L227.5 -90.9327 L225 -95.2628 L220 -95.2628 L217.5 -99.5929 L220 -103.923 L225 -103.923 L227.5 -108.253 L225 -112.583 L227.5 -116.913 L232.5 -116.913 L235 -112.583 L232.5 -108.253 L235 -103.923 L240 -103.923 L242.5 -108.253 L247.5 -108.253 L250 -103.923 L255 -103.923 L257.5 -108.253 L255 -112.583 L250 -112.583 L247.5 -116.913 L250 -121.244 L247.5 -125.574 L242.5 -125.574 L240 -121.244 L235 -121.244 L232.5 -125.574 L235 -129.904 L240 -129.904 L242.5 -134.234 L240 -138.564 L235 -138.564 L232.5 -142.894 L235 -147.224 L232.5 -151.554 L227.5 -151.554 L225 -147.224 L227.5 -142.894 L225 -138.564 L220 -138.564 L217.5 -142.894 L212.5 -142.894 L210 -138.564 L205 -138.564 L202.5 -142.894 L205 -147.224 L210 -147.224 L212.5 -151.554 L210 -155.885 L212.5 -160.215 L217.5 -160.215 L220 -155.885 L225 -155.885 L227.5 -160.215 L225 -164.545 L220 -164.545 L217.5 -168.875 L220 -173.205 L217.5 -177.535 L212.5 -177.535 L210 -173.205 L205 -173.205 L202.5 -177.535 L205 -181.865 L210 -181.865 L212.5 -186.195 L210 -190.526 L205 -190.526 L202.5 -194.856 L205 -199.186 L202.5 -203.516 L197.5 -203.516 L195 -199.186 L197.5 -194.856 L195 -190.526 L190 -190.526 L187.5 -186.195 L190 -181.865 L195 -181.865 L197.5 -177.535 L195 -173.205 L190 -173.205 L187.5 -177.535 L182.5 -177.535 L180 -173.205 L182.5 -168.875 L180 -164.545 L175 -164.545 L172.5 -160.215 L175 -155.885 L180 -155.885 L182.5 -160.215 L187.5 -160.215 L190 -155.885 L187.5 -151.554 L190 -147.224 L195 -147.224 L197.5 -142.894 L195 -138.564 L190 -138.564 L187.5 -142.894 L182.5 -142.894 L180 -138.564 L175 -138.564 L172.5 -142.894 L175 -147.224 L172.5 -151.554 L167.5 -151.554 L165 -147.224 L167.5 -142.894 L165 -138.564 L160 -138.564 L157.5 -142.894 L152.5 -142.894 L150 -138.564 L145 -138.564 L142.5 -142.894 L145 -147.224 L150 -147.224 L152.5 -151.554 L150 -155.885 L145 -155.885 L142.5 -160.215 L145 -164.545 L142.5 -168.875 L137.5 -168.875 L135 -164.545 L137.5 -160.215 L135 -155.885 L130 -155.885 L127.5 -151.554 L130 -147.224 L135 -147.224 L137.5 -142.894 L135 -138.564 L130 -138.564 L127.5 -142.894 L122.5 -142.894 L120 -138.564 L115 -138.564 L112.5 -142.894 L115 -147.224 L112.5 -151.554 L107.5 -151.554 L105 -147.224 L107.5 -142.894 L105 -138.564 L100 -138.564 L97.5 -142.894 L92.5 -142.894 L90 -138.564 L85 -138.564 L82.5 -142.894 L85 -147.224 L90 -147.224 L92.5 -151.554 L90 -155.885 L92.5 -160.215 L97.5 -160.215 L100 -155.885 L105 -155.885 L107.5 -160.215 L105 -164.545 L100 -164.545 L97.5 -168.875 L100 -173.205 L105 -173.205 L107.5 -177.535 L105 -181.865 L107.5 -186.195 L112.5 -186.195 L115 -181.865 L112.5 -177.535 L115 -173.205 L120 -173.205 L122.5 -177.535 L127.5 -177.535 L130 -173.205 L135 -173.205 L137.5 -177.535 L135 -181.865 L130 -181.865 L127.5 -186.195 L130 -190.526 L127.5 -194.856 L122.5 -194.856 L120 -190.526 L115 -190.526 L112.5 -194.856 L115 -199.186 L120 -199.186 L122.5 -203.516 L120 -207.846 L122.5 -212.176 L127.5 -212.176 L130 -207.846 L135 -207.846 L137.5 -212.176 L135 -216.506 L130 -216.506 L127.5 -220.836 L130 -225.167 L135 -225.167 L137.5 -229.497 L135 -233.827 L137.5 -238.157 L142.5 -238.157 L145 -233.827 L142.5 -229.497 L145 -225.167 L150 -225.167 L152.5 -220.836 L150 -216.506 L145 -216.506 L142.5 -212.176 L145 -207.846 L150 -207.846 L152.5 -212.176 L157.5 -212.176 L160 -207.846 L165 -207.846 L167.5 -212.176 L165 -216.506 L167.5 -220.836 L172.5 -220.836 L175 -216.506 L172.5 -212.176 L175 -207.846 L180 -207.846 L182.5 -212.176 L187.5 -212.176 L190 -207.846 L195 -207.846 L197.5 -212.176 L195 -216.506 L190 -216.506 L187.5 -220.836 L190 -225.167 L187.5 -229.497 L182.5 -229.497 L180 -225.167 L175 -225.167 L172.5 -229.497 L175 -233.827 L180 -233.827 L182.5 -238.157 L180 -242.487 L175 -242.487 L172.5 -246.817 L175 -251.147 L172.5 -255.477 L167.5 -255.477 L165 -251.147 L167.5 -246.817 L165 -242.487 L160 -242.487 L157.5 -246.817 L152.5 -246.817 L150 -242.487 L145 -242.487 L142.5 -246.817 L145 -251.147 L150 -251.147 L152.5 -255.477 L150 -259.808 L152.5 -264.138 L157.5 -264.138 L160 -259.808 L165 -259.808 L167.5 -264.138 L165 -268.468 L160 -268.468 L157.5 -272.798 L160 -277.128 L165 -277.128 L167.5 -281.458 L165 -285.788 L167.5 -290.119 L172.5 -290.119 L175 -285.788 L172.5 -281.458 L175 -277.128 L180 -277.128 L182.5 -281.458 L187.5 -281.458 L190 -277.128 L195 -277.128 L197.5 -281.458 L195 -285.788 L190 -285.788 L187.5 -290.119 L190 -294.449 L187.5 -298.779 L182.5 -298.779 L180 -294.449 L175 -294.449 L172.5 -298.779 L175 -303.109 L180 -303.109 L182.5 -307.439 L180 -311.769 L182.5 -316.099 L187.5 -316.099 L190 -311.769 L195 -311.769 L197.5 -316.099 L195 -320.429 L190 -320.429 L187.5 -324.76 L190 -329.09 L195 -329.09 L197.5 -333.42 L195 -337.75 L197.5 -342.08 L202.5 -342.08 L205 -337.75 L202.5 -333.42 L205 -329.09 L210 -329.09 L212.5 -324.76 L210 -320.429 L205 -320.429 L202.5 -316.099 L205 -311.769 L210 -311.769 L212.5 -316.099 L217.5 -316.099 L220 -311.769 L217.5 -307.439 L220 -303.109 L225 -303.109 L227.5 -298.779 L225 -294.449 L220 -294.449 L217.5 -298.779 L212.5 -298.779 L210 -294.449 L212.5 -290.119 L210 -285.788 L205 -285.788 L202.5 -281.458 L205 -277.128 L210 -277.128 L212.5 -281.458 L217.5 -281.458 L220 -277.128 L225 -277.128 L227.5 -281.458 L225 -285.788 L227.5 -290.119 L232.5 -290.119 L235 -285.788 L232.5 -281.458 L235 -277.128 L240 -277.128 L242.5 -281.458 L247.5 -281.458 L250 -277.128 L255 -277.128 L257.5 -281.458 L255 -285.788 L250 -285.788 L247.5 -290.119 L250 -294.449 L255 -294.449 L257.5 -298.779 L255 -303.109 L257.5 -307.439 L262.5 -307.439 L265 -303.109 L262.5 -298.779 L265 -294.449 L270 -294.449 L272.5 -290.119 L270 -285.788 L265 -285.788 L262.5 -281.458 L265 -277.128 L270 -277.128 L272.5 -281.458 L277.5 -281.458 L280 -277.128 L285 -277.128 L287.5 -281.458 L285 -285.788 L287.5 -290.119 L292.5 -290.119 L295 -285.788 L292.5 -281.458 L295 -277.128 L300 -277.128 L302.5 -281.458 L307.5 -281.458 L310 -277.128 L315 -277.128 L317.5 -281.458 L315 -285.788 L310 -285.788 L307.5 -290.119 L310 -294.449 L307.5 -298.779 L302.5 -298.779 L300 -294.449 L295 -294.449 L292.5 -298.779 L295 -303.109 L300 -303.109 L302.5 -307.439 L300 -311.769 L295 -311.769 L292.5 -316.099 L295 -320.429 L292.5 -324.76 L287.5 -324.76 L285 -320.429 L287.5 -316.099 L285 -311.769 L280 -311.769 L277.5 -316.099 L272.5 -316.099 L270 -311.769 L265 -311.769 L262.5 -316.099 L265 -320.429 L270 -320.429 L272.5 -324.76 L270 -329.09 L272.5 -333.42 L277.5 -333.42 L280 -329.09 L285 -329.09 L287.5 -333.42 L285 -337.75 L280 -337.75 L277.5 -342.08 L280 -346.41 L277.5 -350.74 L272.5 -350.74 L270 -346.41 L265 -346.41 L262.5 -350.74 L265 -355.07 L270 -355.07 L272.5 -359.401 L270 -363.731 L265 -363.731 L262.5 -368.061 L265 -372.391 L262.5 -376.721 L257.5 -376.721 L255 -372.391 L257.5 -368.061 L255 -363.731 L250 -363.731 L247.5 -359.401 L250 -355.07 L255 -355.07 L257.5 -350.74 L255 -346.41 L250 -346.41 L247.5 -350.74 L242.5 -350.74 L240 -346.41 L235 -346.41 L232.5 -350.74 L235 -355.07 L232.5 -359.401 L227.5 -359.401 L225 -355.07 L227.5 -350.74 L225 -346.41 L220 -346.41 L217.5 -350.74 L212.5 -350.74 L210 -346.41 L205 -346.41 L202.5 -350.74 L205 -355.07 L210 -355.07 L212.5 -359.401 L210 -363.731 L212.5 -368.061 L217.5 -368.061 L220 -363.731 L225 -363.731 L227.5 -368.061 L225 -372.391 L220 -372.391 L217.5 -376.721 L220 -381.051 L225 -381.051 L227.5 -385.381 L225 -389.711 L227.5 -394.042 L232.5 -394.042 L235 -389.711 L232.5 -385.381 L235 -381.051 L240 -381.051 L242.5 -385.381 L247.5 -385.381 L250 -381.051 L255 -381.051 L257.5 -385.381 L255 -389.711 L250 -389.711 L247.5 -394.042 L250 -398.372 L247.5 -402.702 L242.5 -402.702 L240 -398.372 L235 -398.372 L232.5 -402.702 L235 -407.032 L240 -407.032 L242.5 -411.362 L240 -415.692 L242.5 -420.022 L247.5 -420.022 L250 -415.692 L255 -415.692 L257.5 -420.022 L255 -424.352 L250 -424.352 L247.5 -428.683 L250 -433.013 L255 -433.013 L257.5 -437.343 L255 -441.673 L257.5 -446.003 L262.5 -446.003 L265 -441.673 L262.5 -437.343 L265 -433.013 L270 -433.013 L272.5 -428.683 L270 -424.352 L265 -424.352 L262.5 -420.022 L265 -415.692 L270 -415.692 L272.5 -420.022 L277.5 -420.022 L280 -415.692 L285 -415.692 L287.5 -420.022 L285 -424.352 L287.5 -428.683 L292.5 -428.683 L295 -424.352 L292.5 -420.022 L295 -415.692 L300 -415.692 L302.5 -420.022 L307.5 -420.022 L310 -415.692 L315 -415.692 L317.5 -420.022 L315 -424.352 L310 -424.352 L307.5 -428.683 L310 -433.013 L307.5 -437.343 L302.5 -437.343 L300 -433.013 L295 -433.013 L292.5 -437.343 L295 -441.673 L300 -441.673 L302.5 -446.003 L300 -450.333 L295 -450.333 L292.5 -454.663 L295 -458.993 L292.5 -463.324 L287.5 -463.324 L285 -458.993 L287.5 -454.663 L285 -450.333 L280 -450.333 L277.5 -454.663 L272.5 -454.663 L270 -450.333 L265 -450.333 L262.5 -454.663 L265 -458.993 L270 -458.993 L272.5 -463.324 L270 -467.654 L272.5 -471.984 L277.5 -471.984 L280 -467.654 L285 -467.654 L287.5 -471.984 L285 -476.314 L280 -476.314 L277.5 -480.644 L280 -484.974 L285 -484.974 L287.5 -489.304 L285 -493.634 L287.5 -497.965 L292.5 -497.965 L295 -493.634 L292.5 -489.304 L295 -484.974 L300 -484.974 L302.5 -489.304 L307.5 -489.304 L310 -484.974 L315 -484.974 L317.5 -489.304 L315 -493.634 L310 -493.634 L307.5 -497.965 L310 -502.295 L307.5 -506.625 L302.5 -506.625 L300 -502.295 L295 -502.295 L292.5 -506.625 L295 -510.955 L300 -510.955 L302.5 -515.285 L300 -519.615 L302.5 -523.945 L307.5 -523.945 L310 -519.615 L315 -519.615 L317.5 -523.945 L315 -528.275 L310 -528.275 L307.5 -532.606 L310 -536.936 L315 -536.936 L317.5 -541.266 L315 -545.596 L317.5 -549.926 L322.5 -549.926 L325 -545.596 L322.5 -541.266 L325 -536.936 L330 -536.936 L332.5 -532.606 L330 -528.275 L325 -528.275 L322.5 -523.945 L325 -519.615 L330 -519.615 L332.5 -523.945 L337.5 -523.945 L340 -519.615 L337.5 -515.285 L340 -510.955 L345 -510.955 L347.5 -506.625 L345 -502.295 L340 -502.295 L337.5 -506.625 L332.5 -506.625 L330 -502.295 L332.5 -497.965 L330 -493.634 L325 -493.634 L322.5 -489.304 L325 -484.974 L330 -484.974 L332.5 -489.304 L337.5 -489.304 L340 -484.974 L345 -484.974 L347.5 -489.304 L345 -493.634 L347.5 -497.965 L352.5 -497.965 L355 -493.634 L352.5 -489.304 L355 -484.974 L360 -484.974 L362.5 -480.644 L360 -476.314 L355 -476.314 L352.5 -471.984 L355 -467.654 L360 -467.654 L362.5 -471.984 L367.5 -471.984 L370 -467.654 L367.5 -463.324 L370 -458.993 L375 -458.993 L377.5 -454.663 L375 -450.333 L370 -450.333 L367.5 -454.663 L362.5 -454.663 L360 -450.333 L355 -450.333 L352.5 -454.663 L355 -458.993 L352.5 -463.324 L347.5 -463.324 L345 -458.993 L347.5 -454.663 L345 -450.333 L340 -450.333 L337.5 -446.003 L340 -441.673 L345 -441.673 L347.5 -437.343 L345 -433.013 L340 -433.013 L337.5 -437.343 L332.5 -437.343 L330 -433.013 L332.5 -428.683 L330 -424.352 L325 -424.352 L322.5 -420.022 L325 -415.692 L330 -415.692 L332.5 -420.022 L337.5 -420.022 L340 -415.692 L345 -415.692 L347.5 -420.022 L345 -424.352 L347.5 -428.683 L352.5 -428.683 L355 -424.352 L352.5 -420.022 L355 -415.692 L360 -415.692 L362.5 -420.022 L367.5 -420.022 L370 -415.692 L375 -415.692 L377.5 -420.022 L375 -424.352 L370 -424.352 L367.5 -428.683 L370 -433.013 L375 -433.013 L377.5 -437.343 L375 -441.673 L377.5 -446.003 L382.5 -446.003 L385 -441.673 L382.5 -437.343 L385 -433.013 L390 -433.013 L392.5 -428.683 L390 -424.352 L385 -424.352 L382.5 -420.022 L385 -415.692 L390 -415.692 L392.5 -420.022 L397.5 -420.022 L400 -415.692 L397.5 -411.362 L400 -407.032 L405 -407.032 L407.5 -402.702 L405 -398.372 L400 -398.372 L397.5 -402.702 L392.5 -402.702 L390 -398.372 L392.5 -394.042 L390 -389.711 L385 -389.711 L382.5 -385.381 L385 -381.051 L390 -381.051 L392.5 -385.381 L397.5 -385.381 L400 -381.051 L405 -381.051 L407.5 -385.381 L405 -389.711 L407.5 -394.042 L412.5 -394.042 L415 -389.711 L412.5 -385.381 L415 -381.051 L420 -381.051 L422.5 -376.721 L420 -372.391 L415 -372.391 L412.5 -368.061 L415 -363.731 L420 -363.731 L422.5 -368.061 L427.5 -368.061 L430 -363.731 L427.5 -359.401 L430 -355.07 L435 -355.07 L437.5 -350.74 L435 -346.41 L430 -346.41 L427.5 -350.74 L422.5 -350.74 L420 -346.41 L415 -346.41 L412.5 -350.74 L415 -355.07 L412.5 -359.401 L407.5 -359.401 L405 -355.07 L407.5 -350.74 L405 -346.41 L400 -346.41 L397.5 -350.74 L392.5 -350.74 L390 -346.41 L385 -346.41 L382.5 -350.74 L385 -355.07 L390 -355.07 L392.5 -359.401 L390 -363.731 L385 -363.731 L382.5 -368.061 L385 -372.391 L382.5 -376.721 L377.5 -376.721 L375 -372.391 L377.5 -368.061 L375 -363.731 L370 -363.731 L367.5 -359.401 L370 -355.07 L375 -355.07 L377.5 -350.74 L375 -346.41 L370 -346.41 L367.5 -350.74 L362.5 -350.74 L360 -346.41 L362.5 -342.08 L360 -337.75 L355 -337.75 L352.5 -333.42 L355 -329.09 L360 -329.09 L362.5 -333.42 L367.5 -333.42 L370 -329.09 L367.5 -324.76 L370 -320.429 L375 -320.429 L377.5 -316.099 L375 -311.769 L370 -311.769 L367.5 -316.099 L362.5 -316.099 L360 -311.769 L355 -311.769 L352.5 -316.099 L355 -320.429 L352.5 -324.76 L347.5 -324.76 L345 -320.429 L347.5 -316.099 L345 -311.769 L340 -311.769 L337.5 -307.439 L340 -303.109 L345 -303.109 L347.5 -298.779 L345 -294.449 L340 -294.449 L337.5 -298.779 L332.5 -298.779 L330 -294.449 L332.5 -290.119 L330 -285.788 L325 -285.788 L322.5 -281.458 L325 -277.128 L330 -277.128 L332.5 -281.458 L337.5 -281.458 L340 -277.128 L345 -277.128 L347.5 -281.458 L345 -285.788 L347.5 -290.119 L352.5 -290.119 L355 -285.788 L352.5 -281.458 L355 -277.128 L360 -277.128 L362.5 -281.458 L367.5 -281.458 L370 -277.128 L375 -277.128 L377.5 -281.458 L375 -285.788 L370 -285.788 L367.5 -290.119 L370 -294.449 L375 -294.449 L377.5 -298.779 L375 -303.109 L377.5 -307.439 L382.5 -307.439 L385 -303.109 L382.5 -298.779 L385 -294.449 L390 -294.449 L392.5 -290.119 L390 -285.788 L385 -285.788 L382.5 -281.458 L385 -277.128 L390 -277.128 L392.5 -281.458 L397.5 -281.458 L400 -277.128 L405 -277.128 L407.5 -281.458 L405 -285.788 L407.5 -290.119 L412.5 -290.119 L415 -285.788 L412.5 -281.458 L415 -277.128 L420 -277.128 L422.5 -281.458 L427.5 -281.458 L430 -277.128 L435 -277.128 L437.5 -281.458 L435 -285.788 L430 -285.788 L427.5 -290.119 L430 -294.449 L427.5 -298.779 L422.5 -298.779 L420 -294.449 L415 -294.449 L412.5 -298.779 L415 -303.109 L420 -303.109 L422.5 -307.439 L420 -311.769 L422.5 -316.099 L427.5 -316.099 L430 -311.769 L435 -311.769 L437.5 -316.099 L435 -320.429 L430 -320.429 L427.5 -324.76 L430 -329.09 L435 -329.09 L437.5 -333.42 L435 -337.75 L437.5 -342.08 L442.5 -342.08 L445 -337.75 L442.5 -333.42 L445 -329.09 L450 -329.09 L452.5 -324.76 L450 -320.429 L445 -320.429 L442.5 -316.099 L445 -311.769 L450 -311.769 L452.5 -316.099 L457.5 -316.099 L460 -311.769 L457.5 -307.439 L460 -303.109 L465 -303.109 L467.5 -298.779 L465 -294.449 L460 -294.449 L457.5 -298.779 L452.5 -298.779 L450 -294.449 L452.5 -290.119 L450 -285.788 L445 -285.788 L442.5 -281.458 L445 -277.128 L450 -277.128 L452.5 -281.458 L457.5 -281.458 L460 -277.128 L465 -277.128 L467.5 -281.458 L465 -285.788 L467.5 -290.119 L472.5 -290.119 L475 -285.788 L472.5 -281.458 L475 -277.128 L480 -277.128 L482.5 -272.798 L480 -268.468 L475 -268.468 L472.5 -264.138 L475 -259.808 L480 -259.808 L482.5 -264.138 L487.5 -264.138 L490 -259.808 L487.5 -255.477 L490 -251.147 L495 -251.147 L497.5 -246.817 L495 -242.487 L490 -242.487 L487.5 -246.817 L482.5 -246.817 L480 -242.487 L475 -242.487 L472.5 -246.817 L475 -251.147 L472.5 -255.477 L467.5 -255.477 L465 -251.147 L467.5 -246.817 L465 -242.487 L460 -242.487 L457.5 -238.157 L460 -233.827 L465 -233.827 L467.5 -229.497 L465 -225.167 L460 -225.167 L457.5 -229.497 L452.5 -229.497 L450 -225.167 L452.5 -220.836 L450 -216.506 L445 -216.506 L442.5 -212.176 L445 -207.846 L450 -207.846 L452.5 -212.176 L457.5 -212.176 L460 -207.846 L465 -207.846 L467.5 -212.176 L465 -216.506 L467.5 -220.836 L472.5 -220.836 L475 -216.506 L472.5 -212.176 L475 -207.846 L480 -207.846 L482.5 -212.176 L487.5 -212.176 L490 -207.846 L495 -207.846 L497.5 -212.176 L495 -216.506 L490 -216.506 L487.5 -220.836 L490 -225.167 L495 -225.167 L497.5 -229.497 L495 -233.827 L497.5 -238.157 L502.5 -238.157 L505 -233.827 L502.5 -229.497 L505 -225.167 L510 -225.167 L512.5 -220.836 L510 -216.506 L505 -216.506 L502.5 -212.176 L505 -207.846 L510 -207.846 L512.5 -212.176 L517.5 -212.176 L520 -207.846 L517.5 -203.516 L520 -199.186 L525 -199.186 L527.5 -194.856 L525 -190.526 L520 -190.526 L517.5 -194.856 L512.5 -194.856 L510 -190.526 L512.5 -186.195 L510 -181.865 L505 -181.865 L502.5 -177.535 L505 -173.205 L510 -173.205 L512.5 -177.535 L517.5 -177.535 L520 -173.205 L525 -173.205 L527.5 -177.535 L525 -181.865 L527.5 -186.195 L532.5 -186.195 L535 -181.865 L532.5 -177.535 L535 -173.205 L540 -173.205 L542.5 -168.875 L540 -164.545 L535 -164.545 L532.5 -160.215 L535 -155.885 L540 -155.885 L542.5 -160.215 L547.5 -160.215 L550 -155.885 L547.5 -151.554 L550 -147.224 L555 -147.224 L557.5 -142.894 L555 -138.564 L550 -138.564 L547.5 -142.894 L542.5 -142.894 L540 -138.564 L535 -138.564 L532.5 -142.894 L535 -147.224 L532.5 -151.554 L527.5 -151.554 L525 -147.224 L527.5 -142.894 L525 -138.564 L520 -138.564 L517.5 -142.894 L512.5 -142.894 L510 -138.564 L505 -138.564 L502.5 -142.894 L505 -147.224 L510 -147.224 L512.5 -151.554 L510 -155.885 L505 -155.885 L502.5 -160.215 L505 -164.545 L502.5 -168.875 L497.5 -168.875 L495 -164.545 L497.5 -160.215 L495 -155.885 L490 -155.885 L487.5 -151.554 L490 -147.224 L495 -147.224 L497.5 -142.894 L495 -138.564 L490 -138.564 L487.5 -142.894 L482.5 -142.894 L480 -138.564 L475 -138.564 L472.5 -142.894 L475 -147.224 L472.5 -151.554 L467.5 -151.554 L465 -147.224 L467.5 -142.894 L465 -138.564 L460 -138.564 L457.5 -142.894 L452.5 -142.894 L450 -138.564 L445 -138.564 L442.5 -142.894 L445 -147.224 L450 -147.224 L452.5 -151.554 L450 -155.885 L452.5 -160.215 L457.5 -160.215 L460 -155.885 L465 -155.885 L467.5 -160.215 L465 -164.545 L460 -164.545 L457.5 -168.875 L460 -173.205 L457.5 -177.535 L452.5 -177.535 L450 -173.205 L445 -173.205 L442.5 -177.535 L445 -181.865 L450 -181.865 L452.5 -186.195 L450 -190.526 L445 -190.526 L442.5 -194.856 L445 -199.186 L442.5 -203.516 L437.5 -203.516 L435 -199.186 L437.5 -194.856 L435 -190.526 L430 -190.526 L427.5 -186.195 L430 -181.865 L435 -181.865 L437.5 -177.535 L435 -173.205 L430 -173.205 L427.5 -177.535 L422.5 -177.535 L420 -173.205 L422.5 -168.875 L420 -164.545 L415 -164.545 L412.5 -160.215 L415 -155.885 L420 -155.885 L422.5 -160.215 L427.5 -160.215 L430 -155.885 L427.5 -151.554 L430 -147.224 L435 -147.224 L437.5 -142.894 L435 -138.564 L430 -138.564 L427.5 -142.894 L422.5 -142.894 L420 -138.564 L415 -138.564 L412.5 -142.894 L415 -147.224 L412.5 -151.554 L407.5 -151.554 L405 -147.224 L407.5 -142.894 L405 -138.564 L400 -138.564 L397.5 -134.234 L400 -129.904 L405 -129.904 L407.5 -125.574 L405 -121.244 L400 -121.244 L397.5 -125.574 L392.5 -125.574 L390 -121.244 L392.5 -116.913 L390 -112.583 L385 -112.583 L382.5 -108.253 L385 -103.923 L390 -103.923 L392.5 -108.253 L397.5 -108.253 L400 -103.923 L405 -103.923 L407.5 -108.253 L405 -112.583 L407.5 -116.913 L412.5 -116.913 L415 -112.583 L412.5 -108.253 L415 -103.923 L420 -103.923 L422.5 -99.5929 L420 -95.2628 L415 -95.2628 L412.5 -90.9327 L415 -86.6025 L420 -86.6025 L422.5 -90.9327 L427.5 -90.9327 L430 -86.6025 L427.5 -82.2724 L430 -77.9423 L435 -77.9423 L437.5 -73.6122 L435 -69.282 L430 -69.282 L427.5 -73.6122 L422.5 -73.6122 L420 -69.282 L415 -69.282 L412.5 -73.6122 L415 -77.9423 L412.5 -82.2724 L407.5 -82.2724 L405 -77.9423 L407.5 -73.6122 L405 -69.282 L400 -69.282 L397.5 -73.6122 L392.5 -73.6122 L390 -69.282 L385 -69.282 L382.5 -73.6122 L385 -77.9423 L390 -77.9423 L392.5 -82.2724 L390 -86.6025 L385 -86.6025 L382.5 -90.9327 L385 -95.2628 L382.5 -99.5929 L377.5 -99.5929 L375 -95.2628 L377.5 -90.9327 L375 -86.6025 L370 -86.6025 L367.5 -82.2724 L370 -77.9423 L375 -77.9423 L377.5 -73.6122 L375 -69.282 L370 -69.282 L367.5 -73.6122 L362.5 -73.6122 L360 -69.282 L362.5 -64.9519 L360 -60.6218 L355 -60.6218 L352.5 -56.2917 L355 -51.9615 L360 -51.9615 L362.5 -56.2917 L367.5 -56.2917 L370 -51.9615 L367.5 -47.6314 L370 -43.3013 L375 -43.3013 L377.5 -38.9711 L375 -34.641 L370 -34.641 L367.5 -38.9711 L362.5 -38.9711 L360 -34.641 L355 -34.641 L352.5 -38.9711 L355 -43.3013 L352.5 -47.6314 L347.5 -47.6314 L345 -43.3013 L347.5 -38.9711 L345 -34.641 L340 -34.641 L337.5 -30.3109 L340 -25.9808 L345 -25.9808 L347.5 -21.6506 L345 -17.3205 L340 -17.3205 L337.5 -21.6506 L332.5 -21.6506 L330 -17.3205 L332.5 -12.9904 L330 -8.66025 L325 -8.66025 L322.5 -4.33013 L325 3.28626e-14 L330 3.28626e-14 L332.5 -4.33013 L337.5 -4.33013 L340 3.28626e-14 L345 3.28626e-14 L347.5 -4.33013 L345 -8.66025 L347.5 -12.9904 L352.5 -12.9904 L355 -8.66025 L352.5 -4.33013 L355 3.4639e-14 L360 3.4639e-14 L362.5 -4.33013 L367.5 -4.33013 L370 3.4639e-14 L375 3.4639e-14 L377.5 -4.33013 L375 -8.66025 L370 -8.66025 L367.5 -12.9904 L370 -17.3205 L375 -17.3205 L377.5 -21.6506 L375 -25.9808 L377.5 -30.3109 L382.5 -30.3109 L385 -25.9808 L382.5 -21.6506 L385 -17.3205 L390 -17.3205 L392.5 -12.9904 L390 -8.66025 L385 -8.66025 L382.5 -4.33013 L385 3.64153e-14 L390 3.64153e-14 L392.5 -4.33013 L397.5 -4.33013 L400 3.64153e-14 L405 3.64153e-14 L407.5 -4.33013 L405 -8.66025 L407.5 -12.9904 L412.5 -12.9904 L415 -8.66025 L412.5 -4.33013 L415 3.81917e-14 L420 3.81917e-14 L422.5 -4.33013 L427.5 -4.33013 L430 3.81917e-14 L435 3.81917e-14 L437.5 -4.33013 L435 -8.66025 L430 -8.66025 L427.5 -12.9904 L430 -17.3205 L427.5 -21.6506 L422.5 -21.6506 L420 -17.3205 L415 -17.3205 L412.5 -21.6506 L415 -25.9808 L420 -25.9808 L422.5 -30.3109 L420 -34.641 L422.5 -38.9711 L427.5 -38.9711 L430 -34.641 L435 -34.641 L437.5 -38.9711 L435 -43.3013 L430 -43.3013 L427.5 -47.6314 L430 -51.9615 L435 -51.9615 L437.5 -56.2917 L435 -60.6218 L437.5 -64.9519 L442.5 -64.9519 L445 -60.6218 L442.5 -56.2917 L445 -51.9615 L450 -51.9615 L452.5 -47.6314 L450 -43.3013 L445 -43.3013 L442.5 -38.9711 L445 -34.641 L450 -34.641 L452.5 -38.9711 L457.5 -38.9711 L460 -34.641 L457.5 -30.3109 L460 -25.9808 L465 -25.9808 L467.5 -21.6506 L465 -17.3205 L460 -17.3205 L457.5 -21.6506 L452.5 -21.6506 L450 -17.3205 L452.5 -12.9904 L450 -8.66025 L445 -8.66025 L442.5 -4.33013 L445 2.57572e-14 L450 2.57572e-14 L452.5 -4.33013 L457.5 -4.33013 L460 2.57572e-14 L465 2.57572e-14 L467.5 -4.33013 L465 -8.66025 L467.5 -12.9904 L472.5 -12.9904 L475 -8.66025 L472.5 -4.33013 L475 2.75335e-14 L480 2.75335e-14 L482.5 -4.33013 L487.5 -4.33013 L490 2.75335e-14 L495 2.75335e-14 L497.5 -4.33013 L495 -8.66025 L490 -8.66025 L487.5 -12.9904 L490 -17.3205 L495 -17.3205 L497.5 -21.6506 L495 -25.9808 L497.5 -30.3109 L502.5 -30.3109 L505 -25.9808 L502.5 -21.6506 L505 -17.3205 L510 -17.3205 L512.5 -12.9904 L510 -8.66025 L505 -8.66025 L502.5 -4.33013 L505 2.93099e-14 L510 2.93099e-14 L512.5 -4.33013 L517.5 -4.33013 L520 2.93099e-14 L525 2.93099e-14 L527.5 -4.33013 L525 -8.66025 L527.5 -12.9904 L532.5 -12.9904 L535 -8.66025 L532.5 -4.33013 L535 3.10862e-14 L540 3.10862e-14 L542.5 -4.33013 L547.5 -4.33013 L550 3.10862e-14 L555 3.10862e-14 L557.5 -4.33013 L555 -8.66025 L550 -8.66025 L547.5 -12.9904 L550 -17.3205 L547.5 -21.6506 L542.5 -21.6506 L540 -17.3205 L535 -17.3205 L532.5 -21.6506 L535 -25.9808 L540 -25.9808 L542.5 -30.3109 L540 -34.641 L535 -34.641 L532.5 -38.9711 L535 -43.3013 L532.5 -47.6314 L527.5 -47.6314 L525 -43.3013 L527.5 -38.9711 L525 -34.641 L520 -34.641 L517.5 -38.9711 L512.5 -38.9711 L510 -34.641 L505 -34.641 L502.5 -38.9711 L505 -43.3013 L510 -43.3013 L512.5 -47.6314 L510 -51.9615 L512.5 -56.2917 L517.5 -56.2917 L520 -51.9615 L525 -51.9615 L527.5 -56.2917 L525 -60.6218 L520 -60.6218 L517.5 -64.9519 L520 -69.282 L525 -69.282 L527.5 -73.6122 L525 -77.9423 L527.5 -82.2724 L532.5 -82.2724 L535 -77.9423 L532.5 -73.6122 L535 -69.282 L540 -69.282 L542.5 -73.6122 L547.5 -73.6122 L550 -69.282 L555 -69.282 L557.5 -73.6122 L555 -77.9423 L550 -77.9423 L547.5 -82.2724 L550 -86.6025 L547.5 -90.9327 L542.5 -90.9327 L540 -86.6025 L535 -86.6025 L532.5 -90.9327 L535 -95.2628 L540 -95.2628 L542.5 -99.5929 L540 -103.923 L542.5 -108.253 L547.5 -108.253 L550 -103.923 L555 -103.923 L557.5 -108.253 L555 -112.583 L550 -112.583 L547.5 -116.913 L550 -121.244 L555 -121.244 L557.5 -125.574 L555 -129.904 L557.5 -134.234 L562.5 -134.234 L565 -129.904 L562.5 -125.574 L565 -121.244 L570 -121.244 L572.5 -116.913 L570 -112.583 L565 -112.583 L562.5 -108.253 L565 -103.923 L570 -103.923 L572.5 -108.253 L577.5 -108.253 L580 -103.923 L577.5 -99.5929 L580 -95.2628 L585 -95.2628 L587.5 -90.9327 L585 -86.6025 L580 -86.6025 L577.5 -90.9327 L572.5 -90.9327 L570 -86.6025 L572.5 -82.2724 L570 -77.9423 L565 -77.9423 L562.5 -73.6122 L565 -69.282 L570 -69.282 L572.5 -73.6122 L577.5 -73.6122 L580 -69.282 L585 -69.282 L587.5 -73.6122 L585 -77.9423 L587.5 -82.2724 L592.5 -82.2724 L595 -77.9423 L592.5 -73.6122 L595 -69.282 L600 -69.282 L602.5 -64.9519 L600 -60.6218 L595 -60.6218 L592.5 -56.2917 L595 -51.9615 L600 -51.9615 L602.5 -56.2917 L607.5 -56.2917 L610 -51.9615 L607.5 -47.6314 L610 -43.3013 L615 -43.3013 L617.5 -38.9711 L615 -34.641 L610 -34.641 L607.5 -38.9711 L602.5 -38.9711 L600 -34.641 L595 -34.641 L592.5 -38.9711 L595 -43.3013 L592.5 -47.6314 L587.5 -47.6314 L585 -43.3013 L587.5 -38.9711 L585 -34.641 L580 -34.641 L577.5 -30.3109 L580 -25.9808 L585 -25.9808 L587.5 -21.6506 L585 -17.3205 L580 -17.3205 L577.5 -21.6506 L572.5 -21.6506 L570 -17.3205 L572.5 -12.9904 L570 -8.66025 L565 -8.66025 L562.5 -4.33013 L565 3.28626e-14 L570 3.28626e-14 L572.5 -4.33013 L577.5 -4.33013 L580 3.28626e-14 L585 3.28626e-14 L587.5 -4.33013 L585 -8.66025 L587.5 -12.9904 L592.5 -12.9904 L595 -8.66025 L592.5 -4.33013 L595 3.4639e-14 L600 3.4639e-14 L602.5 -4.33013 L607.5 -4.33013 L610 3.4639e-14 L615 3.4639e-14 L617.5 -4.33013 L615 -8.66025 L610 -8.66025 L607.5 -12.9904 L610 -17.3205 L615 -17.3205 L617.5 -21.6506 L615 -25.9808 L617.5 -30.3109 L622.5 -30.3109 L625 -25.9808 L622.5 -21.6506 L625 -17.3205 L630 -17.3205 L632.5 -12.9904 L630 -8.66025 L625 -8.66025 L622.5 -4.33013 L625 3.64153e-14 L630 3.64153e-14 L632.5 -4.33013 L637.5 -4.33013 L640 3.64153e-14"/>
</svg>
