<?xml version="1.0" encoding="UTF-8"?>
<svg xmlns="http://www.w3.org/2000/svg"
 version="1.1" baseProfile="basic"
 viewBox="-10 -75 100 86"
 width="1280px" height="1024px"
 stroke="white" stroke-width="1px"
 fill="black" fill-opacity="0">
<rect x="-10" y="-75" width="100" height="86" stroke-width="0px" fill-opacity="1"/>
<path d="M0 0 L0 0 L5 0 L7.5 -4.33013 L5 -8.66025 L7.5 -12.9904 L12.5 -12.9904 L15 -8.66025 L12.5 -4.33013 L15 2.66454e-15 L20 2.66454e-15 L22.5 -4.33013 L27.5 -4.33013 L30 2.66454e-15 L35 2.66454e-15 L37.5 -4.33013 L35 -8.66025 L30 -8.66025 L27.5 -12.9904 L30 -17.3205 L27.5 -21.6506 L22.5 -21.6506 L20 -17.3205 L15 -17.3205 L12.5 -21.6506 L15 -25.9808 L20 -25.9808 L22.5 -30.3109 L20 -34.641 L22.5 -38.9711 L27.5 -38.9711 L30 -34.641 L35 -34.641 L37.5 -38.9711 L35 -43.3013 L30 -43.3013 L27.5 -47.6314 L30 -51.9615 L35 -51.9615 L37.5 -56.2917 L35 -60.6218 L37.5 -64.9519 L42.5 -64.9519 L45 -60.6218 L42.5 -56.2917 L45 -51.9615 L50 -51.9615 L52.5 -47.6314 L50 -43.3013 L45 -43.3013 L42.5 -38.9711 L45 -34.641 L50 -34.641 L52.5 -38.9711 L57.5 -38.9711 L60 -34.641 L57.5 -30.3109 L60 -25.9808 L65 -25.9808 L67.5 -21.6506 L65 -17.3205 L60 -17.3205 L57.5 -21.6506 L52.5 -21.6506 L50 -17.3205 L52.5 -12.9904 L50 -8.66025 L45 -8.66025 L42.5 -4.33013 L45 -2.66454e-15 L50 -2.66454e-15 L52.5 -4.33013 L57.5 -4.33013 L60 -2.66454e-15 L65 -2.66454e-15 L67.5 -4.33013 L65 -8.66025 L67.5 -12.9904 L72.5 -12.9904 L75 -8.66025 L72.5 -4.33013 L75 -8.88178e-16 L80 -8.88178e-16"/>
</svg>
