<?xml version="1.0" encoding="UTF-8"?>
<svg xmlns="http://www.w3.org/2000/svg"
 version="1.1" baseProfile="basic"
 viewBox="-10 -145 180 156"
 width="1280px" height="1024px"
 stroke="white" stroke-width="1px"
 fill="black" fill-opacity="0">
<rect x="-10" y="-145" width="180" height="156" stroke-width="0px" fill-opacity="1"/>
<path d="M0 0 L0 0 L2.5 -4.33013 L7.5 -4.33013 L10 0 L15 0 L17.5 -4.33013 L15 -8.66025 L10 -8.66025 L7.5 -12.9904 L10 -17.3205 L15 -17.3205 L17.5 -21.6506 L15 -25.9808 L17.5 -30.3109 L22.5 -30.3109 L25 -25.9808 L22.5 -21.6506 L25 -17.3205 L30 -17.3205 L32.5 -12.9904 L30 -8.66025 L25 -8.66025 L22.5 -4.33013 L25 1.5099e-14 L30 1.5099e-14 L32.5 -4.33013 L37.5 -4.33013 L40 1.5099e-14 L45 1.5099e-14 L47.5 -4.33013 L45 -8.66025 L47.5 -12.9904 L52.5 -12.9904 L55 -8.66025 L52.5 -4.33013 L55 1.68754e-14 L60 1.68754e-14 L62.5 -4.33013 L67.5 -4.33013 L70 1.68754e-14 L75 1.68754e-14 L77.5 -4.33013 L75 -8.66025 L70 -8.66025 L67.5 -12.9904 L70 -17.3205 L67.5 -21.6506 L62.5 -21.6506 L60 -17.3205 L55 -17.3205 L52.5 -21.6506 L55 -25.9808 L60 -25.9808 L62.5 -30.3109 L60 -34.641 L55 -34.641 L52.5 -38.9711 L55 -43.3013 L52.5 -47.6314 L47.5 -47.6314 L45 -43.3013 L47.5 -38.9711 L45 -34.641 L40 -34.641 L37.5 -38.9711 L32.5 -38.9711 L30 -34.641 L25 -34.641 L22.5 -38.9711 L25 -43.3013 L30 -43.3013 L32.5 -47.6314 L30 -51.9615 L32.5 -56.2917 L37.5 -56.2917 L40 -51.9615 L45 -51.9615 L47.5 -56.2917 L45 -60.6218 L40 -60.6218 L37.5 -64.9519 L40 -69.282 L45 -69.282 L47.5 -73.6122 L45 -77.9423 L47.5 -82.2724 L52.5 -82.2724 L55 -77.9423 L52.5 -73.6122 L55 -69.282 L60 -69.282 L62.5 -73.6122 L67.5 -73.6122 L70 -69.282 L75 -69.282 L77.5 -73.6122 L75 -77.9423 L70 -77.9423 L67.5 -82.2724 L70 -86.6025 L67.5 -90.9327 L62.5 -90.9327 L60 -86.6025 L55 -86.6025 L52.5 -90.9327 L55 -95.2628 L60 -95.2628 L62.5 -99.5929 L60 -103.923 L62.5 -108.253 L67.5 -108.253 L70 -103.923 L75 -103.923 L77.5 -108.253 L75 -112.583 L70 -112.583 L67.5 -116.913 L70 -121.244 L75 -121.244 L77.5 -125.574 L75 -129.904 L77.5 -134.234 L82.5 -134.234 L85 -129.904 L82.5 -125.574 L85 -121.244 L90 -121.244 L92.5 -116.913 L90 -112.583 L85 -112.583 L82.5 -108.253 L85 -103.923 L90 -103.923 L92.5 -108.253 L97.5 -108.253 L100 -103.923 L97.5 -99.5929 L100 -95.2628 L105 -95.2628 L107.5 -90.9327 L105 -86.6025 L100 -86.6025 L97.5 -90.9327 L92.5 -90.9327 L90 -86.6025 L92.5 -82.2724 L90 -77.9423 L85 -77.9423 L82.5 -73.6122 L85 -69.282 L90 -69.282 L92.5 -73.6122 L97.5 -73.6122 L100 -69.282 L105 -69.282 L107.5 -73.6122 L105 -77.9423 L107.5 -82.2724 L112.5 -82.2724 L115 -77.9423 L112.5 -73.6122 L115 -69.282 L120 -69.282 L122.5 -64.9519 L120 -60.6218 L115 -60.6218 L112.5 -56.2917 L115 -51.9615 L120 -51.9615 L122.5 -56.2917 L127.5 -56.2917 L130 -51.9615 L127.5 -47.6314 L130 -43.3013 L135 -43.3013 L137.5 -38.9711 L135 -34.641 L130 -34.641 L127.5 -38.9711 L122.5 -38.9711 L120 -34.641 L115 -34.641 L112.5 -38.9711 L115 -43.3013 L112.5 -47.6314 L107.5 -47.6314 L105 -43.3013 L107.5 -38.9711 L105 -34.641 L100 -34.641 L97.5 -30.3109 L100 -25.9808 L105 -25.9808 L107.5 -21.6506 L105 -17.3205 L100 -17.3205 L97.5 -21.6506 L92.5 -21.6506 L90 -17.3205 L92.5 -12.9904 L90 -8.66025 L85 -8.66025 L82.5 -4.33013 L85 3.28626e-14 L90 3.28626e-14 L92.5 -4.33013 L97.5 -4.33013 L100 3.28626e-14 L105 3.28626e-14 L107.5 -4.33013 L105 -8.66025 L107.5 -12.9904 L112.5 -12.9904 L115 -8.66025 L112.5 -4.33013 L115 3.4639e-14 L120 3.4639e-14 L122.5 -4.33013 L127.5 -4.33013 L130 3.4639e-14 L135 3.4639e-14 L137.5 -4.33013 L135 -8.66025 L130 -8.66025 L127.5 -12.9904 L130 -17.3205 L135 -17.3205 L137.5 -21.6506 L135 -25.9808 L137.5 -30.3109 L142.5 -30.3109 L145 -25.9808 L142.5 -21.6506 L145 -17.3205 L150 -17.3205 L152.5 -12.9904 L150 -8.66025 L145 -8.66025 L142.5 -4.33013 L145 3.64153e-14 L150 3.64153e-14 L152.5 -4.33013 L157.5 -4.33013 L160 3.64153e-14"/>
</svg>
