<?xml version="1.0" encoding="UTF-8"?>
<svg xmlns="http://www.w3.org/2000/svg"
 version="1.1" baseProfile="basic"
 viewBox="-11 -28 41 39"
 width="1280px" height="1024px"
 stroke="white" stroke-width="1px"
 fill="black" fill-opacity="0">
<rect x="-11" y="-28" width="41" height="39" stroke-width="0px" fill-opacity="1"/>
<path d="M0 0 L0 0 L5 0 L2.5 -4.33013 L-8.88178e-16 -1.77636e-15"/>
<path d="M10 5.32907e-15 L10 5.32907e-15 L7.5 -4.33013 L5 0 L10 7.10543e-15"/>
<path d="M5 -8.66025 L5 -8.66025 L2.5 -4.33013 L7.5 -4.33013 L5 -8.66025"/>
<path d="M20 4.44089e-14 L20 4.44089e-14 L17.5 -4.33013 L15 2.84217e-14 L20 4.52971e-14"/>
<path d="M15 -8.66025 L15 -8.66025 L12.5 -4.33013 L17.5 -4.33013 L15 -8.66025"/>
<path d="M10 5.32907e-15 L10 5.32907e-15 L15 2.88658e-14 L12.5 -4.33013 L10 4.44089e-15"/>
<path d="M10 -17.3205 L10 -17.3205 L7.5 -12.9904 L12.5 -12.9904 L10 -17.3205"/>
<path d="M5 -8.66025 L5 -8.66025 L10 -8.66025 L7.5 -12.9904 L5 -8.66025"/>
<path d="M15 -8.66025 L15 -8.66025 L12.5 -12.9904 L10 -8.66025 L15 -8.66025"/>
</svg>
