<?xml version="1.0" encoding="UTF-8"?>
<svg xmlns="http://www.w3.org/2000/svg"
 version="1.1" baseProfile="basic"
 viewBox="-10 -76 155 151"
 width="1280px" height="1024px"
 stroke="white" stroke-width="1px"
 fill="black" fill-opacity="0">
<rect x="-10" y="-76" width="155" height="151" stroke-width="0px" fill-opacity="1"/>
<path d="M0 0 L0 0 L5 0 L5 -5 L10 -5 L10 0 L10 5 L5 5 L5 8.88178e-16"/>
<path d="M10 -3.36468e-16 L10 -3.36468e-16 L15 -1.56112e-15 L15 -5 L10 -5 L10 -10 L15 -10 L20 -10 L20 -5 L15 -5"/>
<path d="M15 -10 L15 -10 L15 -15 L20 -15 L20 -20 L25 -20 L25 -15 L25 -10 L20 -10 L20 -15"/>
<path d="M25 -15 L25 -15 L30 -15 L30 -10 L35 -10 L35 -5 L30 -5 L25 -5 L25 -10 L30 -10"/>
<path d="M30 -5 L30 -5 L30 -1.06581e-14 L30 5 L35 5 L35 10 L30 10 L25 10 L25 5 L30 5"/>
<path d="M30 10 L30 10 L30 15 L25 15 L25 20 L20 20 L20 15 L20 10 L25 10 L25 15"/>
<path d="M20 15 L20 15 L15 15 L15 10 L10 10 L10 5 L15 5 L20 5 L20 10 L15 10"/>
<path d="M15 5 L15 5 L15 8.88178e-15"/>
<path d="M30 -2.05097e-14 L30 -2.05097e-14 L35 -3.03069e-14 L35 -5 L40 -5 L40 -3.9968e-14 L40 5 L35 5 L35 -2.93099e-14"/>
<path d="M40 -4.03317e-14 L40 -4.03317e-14 L45 -5.13535e-14 L45 -5 L40 -5 L40 -10 L45 -10 L50 -10 L50 -5 L45 -5"/>
<path d="M45 -10 L45 -10 L45 -15 L40 -15 L40 -10 L35 -10 L35 -15 L35 -20 L40 -20 L40 -15"/>
<path d="M35 -15 L35 -15 L30 -15 L30 -20 L25 -20 L25 -25 L30 -25 L35 -25 L35 -20 L30 -20"/>
<path d="M30 -25 L30 -25 L30 -30 L35 -30 L35 -35 L40 -35 L40 -30 L40 -25 L35 -25 L35 -30"/>
<path d="M40 -30 L40 -30 L45 -30 L50 -30 L50 -35 L55 -35 L55 -30 L55 -25 L50 -25 L50 -30"/>
<path d="M55 -30 L55 -30 L60 -30 L60 -25 L65 -25 L65 -20 L60 -20 L55 -20 L55 -25 L60 -25"/>
<path d="M60 -20 L60 -20 L60 -15 L55 -15 L55 -10 L50 -10 L50 -15 L50 -20 L55 -20 L55 -15"/>
<path d="M50 -15 L50 -15 L45 -15"/>
<path d="M45 -30 L45 -30 L45 -35 L40 -35 L40 -40 L45 -40 L50 -40 L50 -35 L45 -35"/>
<path d="M45 -40 L45 -40 L45 -45 L50 -45 L50 -50 L55 -50 L55 -45 L55 -40 L50 -40 L50 -45"/>
<path d="M55 -45 L55 -45 L60 -45 L60 -50 L55 -50 L55 -55 L60 -55 L65 -55 L65 -50 L60 -50"/>
<path d="M60 -55 L60 -55 L60 -60 L65 -60 L65 -65 L70 -65 L70 -60 L70 -55 L65 -55 L65 -60"/>
<path d="M70 -60 L70 -60 L75 -60 L75 -55 L80 -55 L80 -50 L75 -50 L70 -50 L70 -55 L75 -55"/>
<path d="M75 -50 L75 -50 L75 -45 L75 -40 L80 -40 L80 -35 L75 -35 L70 -35 L70 -40 L75 -40"/>
<path d="M75 -35 L75 -35 L75 -30 L70 -30 L70 -25 L65 -25 L65 -30 L65 -35 L70 -35 L70 -30"/>
<path d="M65 -30 L65 -30 L60 -30 L60 -35 L55 -35 L55 -40 L60 -40 L65 -40 L65 -35 L60 -35"/>
<path d="M60 -40 L60 -40 L60 -45"/>
<path d="M75 -45 L75 -45 L80 -45 L80 -50 L85 -50 L85 -45 L85 -40 L80 -40 L80 -45"/>
<path d="M85 -45 L85 -45 L90 -45 L90 -40 L95 -40 L95 -35 L90 -35 L85 -35 L85 -40 L90 -40"/>
<path d="M90 -35 L90 -35 L90 -30 L95 -30 L95 -35 L100 -35 L100 -30 L100 -25 L95 -25 L95 -30"/>
<path d="M100 -30 L100 -30 L105 -30 L105 -25 L110 -25 L110 -20 L105 -20 L100 -20 L100 -25 L105 -25"/>
<path d="M105 -20 L105 -20 L105 -15 L100 -15 L100 -10 L95 -10 L95 -15 L95 -20 L100 -20 L100 -15"/>
<path d="M95 -15 L95 -15 L90 -15 L85 -15 L85 -10 L80 -10 L80 -15 L80 -20 L85 -20 L85 -15"/>
<path d="M80 -15 L80 -15 L75 -15 L75 -20 L70 -20 L70 -25 L75 -25 L80 -25 L80 -20 L75 -20"/>
<path d="M75 -25 L75 -25 L75 -30 L80 -30 L80 -35 L85 -35 L85 -30 L85 -25 L80 -25 L80 -30"/>
<path d="M85 -30 L85 -30 L90 -30"/>
<path d="M90 -15 L90 -15 L90 -10 L95 -10 L95 -5 L90 -5 L85 -5 L85 -10 L90 -10"/>
<path d="M90 -5 L90 -5 L90 -2.77112e-13 L90 5 L95 5 L95 10 L90 10 L85 10 L85 5 L90 5"/>
<path d="M90 10 L90 10 L90 15 L95 15 L95 10 L100 10 L100 15 L100 20 L95 20 L95 15"/>
<path d="M100 15 L100 15 L105 15 L105 20 L110 20 L110 25 L105 25 L100 25 L100 20 L105 20"/>
<path d="M105 25 L105 25 L105 30 L100 30 L100 35 L95 35 L95 30 L95 25 L100 25 L100 30"/>
<path d="M95 30 L95 30 L90 30 L85 30 L85 35 L80 35 L80 30 L80 25 L85 25 L85 30"/>
<path d="M80 30 L80 30 L75 30 L75 25 L70 25 L70 20 L75 20 L80 20 L80 25 L75 25"/>
<path d="M75 20 L75 20 L75 15 L80 15 L80 10 L85 10 L85 15 L85 20 L80 20 L80 15"/>
<path d="M85 15 L85 15 L90 15"/>
<path d="M90 30 L90 30 L90 35 L95 35 L95 40 L90 40 L85 40 L85 35 L90 35"/>
<path d="M90 40 L90 40 L90 45 L85 45 L85 50 L80 50 L80 45 L80 40 L85 40 L85 45"/>
<path d="M80 45 L80 45 L75 45 L75 50 L80 50 L80 55 L75 55 L70 55 L70 50 L75 50"/>
<path d="M75 55 L75 55 L75 60 L70 60 L70 65 L65 65 L65 60 L65 55 L70 55 L70 60"/>
<path d="M65 60 L65 60 L60 60 L60 55 L55 55 L55 50 L60 50 L65 50 L65 55 L60 55"/>
<path d="M60 50 L60 50 L60 45 L60 40 L55 40 L55 35 L60 35 L65 35 L65 40 L60 40"/>
<path d="M60 35 L60 35 L60 30 L65 30 L65 25 L70 25 L70 30 L70 35 L65 35 L65 30"/>
<path d="M70 30 L70 30 L75 30 L75 35 L80 35 L80 40 L75 40 L70 40 L70 35 L75 35"/>
<path d="M75 40 L75 40 L75 45"/>
<path d="M60 45 L60 45 L55 45 L55 50 L50 50 L50 45 L50 40 L55 40 L55 45"/>
<path d="M50 45 L50 45 L45 45 L45 40 L40 40 L40 35 L45 35 L50 35 L50 40 L45 40"/>
<path d="M45 35 L45 35 L45 30 L40 30 L40 35 L35 35 L35 30 L35 25 L40 25 L40 30"/>
<path d="M35 30 L35 30 L30 30 L30 25 L25 25 L25 20 L30 20 L35 20 L35 25 L30 25"/>
<path d="M30 20 L30 20 L30 15 L35 15 L35 10 L40 10 L40 15 L40 20 L35 20 L35 15"/>
<path d="M40 15 L40 15 L45 15 L50 15 L50 10 L55 10 L55 15 L55 20 L50 20 L50 15"/>
<path d="M55 15 L55 15 L60 15 L60 20 L65 20 L65 25 L60 25 L55 25 L55 20 L60 20"/>
<path d="M60 25 L60 25 L60 30 L55 30 L55 35 L50 35 L50 30 L50 25 L55 25 L55 30"/>
<path d="M50 30 L50 30 L45 30"/>
<path d="M45 15 L45 15 L45 10 L40 10 L40 5 L45 5 L50 5 L50 10 L45 10"/>
<path d="M45 5 L45 5 L45 2.59348e-13"/>
<path d="M90 -4.46048e-13 L90 -4.46048e-13 L95 -5.24426e-13 L95 -5 L100 -5 L100 -6.02185e-13 L100 5 L95 5 L95 -5.23137e-13"/>
<path d="M100 -6.02739e-13 L100 -6.02739e-13 L105 -6.82341e-13 L105 -5 L100 -5 L100 -10 L105 -10 L110 -10 L110 -5 L105 -5"/>
<path d="M105 -10 L105 -10 L105 -15 L110 -15 L110 -20 L115 -20 L115 -15 L115 -10 L110 -10 L110 -15"/>
<path d="M115 -15 L115 -15 L120 -15 L120 -10 L125 -10 L125 -5 L120 -5 L115 -5 L115 -10 L120 -10"/>
<path d="M120 -5 L120 -5 L120 -9.30811e-13 L120 5 L125 5 L125 10 L120 10 L115 10 L115 5 L120 5"/>
<path d="M120 10 L120 10 L120 15 L115 15 L115 20 L110 20 L110 15 L110 10 L115 10 L115 15"/>
<path d="M110 15 L110 15 L105 15 L105 10 L100 10 L100 5 L105 5 L110 5 L110 10 L105 10"/>
<path d="M105 5 L105 5 L105 -6.71463e-13"/>
<path d="M120 -9.35987e-13 L120 -9.35987e-13 L125 -1.02416e-12 L125 -5 L130 -5 L130 -1.112e-12 L130 5 L125 5 L125 -1.02318e-12"/>
<path d="M130 -1.11258e-12 L130 -1.11258e-12 L135 -1.20198e-12"/>
</svg>
