<?xml version="1.0" encoding="UTF-8"?>
<svg xmlns="http://www.w3.org/2000/svg"
 version="1.1" baseProfile="basic"
 viewBox="-11 -80 101 91"
 width="1280px" height="1024px"
 stroke="white" stroke-width="1px"
 fill="black" fill-opacity="0">
<rect x="-11" y="-80" width="101" height="91" stroke-width="0px" fill-opacity="1"/>
<path d="M0 0 L0 0 L5 0 L2.5 -4.33013 L-8.88178e-16 -1.77636e-15"/>
<path d="M10 5.32907e-15 L10 5.32907e-15 L7.5 -4.33013 L5 0 L10 7.10543e-15"/>
<path d="M5 -8.66025 L5 -8.66025 L2.5 -4.33013 L7.5 -4.33013 L5 -8.66025"/>
<path d="M20 4.44089e-14 L20 4.44089e-14 L17.5 -4.33013 L15 2.84217e-14 L20 4.52971e-14"/>
<path d="M15 -8.66025 L15 -8.66025 L12.5 -4.33013 L17.5 -4.33013 L15 -8.66025"/>
<path d="M10 5.32907e-15 L10 5.32907e-15 L15 2.88658e-14 L12.5 -4.33013 L10 4.44089e-15"/>
<path d="M10 -17.3205 L10 -17.3205 L7.5 -12.9904 L12.5 -12.9904 L10 -17.3205"/>
<path d="M5 -8.66025 L5 -8.66025 L10 -8.66025 L7.5 -12.9904 L5 -8.66025"/>
<path d="M15 -8.66025 L15 -8.66025 L12.5 -12.9904 L10 -8.66025 L15 -8.66025"/>
<path d="M40 2.66454e-13 L40 2.66454e-13 L37.5 -4.33013 L35 2.22045e-13 L40 2.6823e-13"/>
<path d="M35 -8.66025 L35 -8.66025 L32.5 -4.33013 L37.5 -4.33013 L35 -8.66025"/>
<path d="M30 1.68754e-13 L30 1.68754e-13 L35 2.22933e-13 L32.5 -4.33013 L30 1.66978e-13"/>
<path d="M30 -17.3205 L30 -17.3205 L27.5 -12.9904 L32.5 -12.9904 L30 -17.3205"/>
<path d="M25 -8.66025 L25 -8.66025 L30 -8.66025 L27.5 -12.9904 L25 -8.66025"/>
<path d="M35 -8.66025 L35 -8.66025 L32.5 -12.9904 L30 -8.66025 L35 -8.66025"/>
<path d="M20 2.30926e-14 L20 2.30926e-14 L25 9.59233e-14 L22.5 -4.33013 L20 2.13163e-14"/>
<path d="M30 1.74083e-13 L30 1.74083e-13 L27.5 -4.33013 L25 9.68114e-14 L30 1.75415e-13"/>
<path d="M25 -8.66025 L25 -8.66025 L22.5 -4.33013 L27.5 -4.33013 L25 -8.66025"/>
<path d="M20 -34.641 L20 -34.641 L17.5 -30.3109 L22.5 -30.3109 L20 -34.641"/>
<path d="M15 -25.9808 L15 -25.9808 L20 -25.9808 L17.5 -30.3109 L15 -25.9808"/>
<path d="M25 -25.9808 L25 -25.9808 L22.5 -30.3109 L20 -25.9808 L25 -25.9808"/>
<path d="M10 -17.3205 L10 -17.3205 L15 -17.3205 L12.5 -21.6506 L10 -17.3205"/>
<path d="M20 -17.3205 L20 -17.3205 L17.5 -21.6506 L15 -17.3205 L20 -17.3205"/>
<path d="M15 -25.9808 L15 -25.9808 L12.5 -21.6506 L17.5 -21.6506 L15 -25.9808"/>
<path d="M30 -17.3205 L30 -17.3205 L27.5 -21.6506 L25 -17.3205 L30 -17.3205"/>
<path d="M25 -25.9808 L25 -25.9808 L22.5 -21.6506 L27.5 -21.6506 L25 -25.9808"/>
<path d="M20 -17.3205 L20 -17.3205 L25 -17.3205 L22.5 -21.6506 L20 -17.3205"/>
<path d="M80 1.61116e-12 L80 1.61116e-12 L77.5 -4.33013 L75 1.47793e-12 L80 1.61293e-12"/>
<path d="M75 -8.66025 L75 -8.66025 L72.5 -4.33013 L77.5 -4.33013 L75 -8.66025"/>
<path d="M70 1.33582e-12 L70 1.33582e-12 L75 1.47882e-12 L72.5 -4.33013 L70 1.33404e-12"/>
<path d="M70 -17.3205 L70 -17.3205 L67.5 -12.9904 L72.5 -12.9904 L70 -17.3205"/>
<path d="M65 -8.66025 L65 -8.66025 L70 -8.66025 L67.5 -12.9904 L65 -8.66025"/>
<path d="M75 -8.66025 L75 -8.66025 L72.5 -12.9904 L70 -8.66025 L75 -8.66025"/>
<path d="M60 1.00897e-12 L60 1.00897e-12 L65 1.17151e-12 L62.5 -4.33013 L60 1.00808e-12"/>
<path d="M70 1.33848e-12 L70 1.33848e-12 L67.5 -4.33013 L65 1.17151e-12 L70 1.34071e-12"/>
<path d="M65 -8.66025 L65 -8.66025 L62.5 -4.33013 L67.5 -4.33013 L65 -8.66025"/>
<path d="M60 -34.641 L60 -34.641 L57.5 -30.3109 L62.5 -30.3109 L60 -34.641"/>
<path d="M55 -25.9808 L55 -25.9808 L60 -25.9808 L57.5 -30.3109 L55 -25.9808"/>
<path d="M65 -25.9808 L65 -25.9808 L62.5 -30.3109 L60 -25.9808 L65 -25.9808"/>
<path d="M50 -17.3205 L50 -17.3205 L55 -17.3205 L52.5 -21.6506 L50 -17.3205"/>
<path d="M60 -17.3205 L60 -17.3205 L57.5 -21.6506 L55 -17.3205 L60 -17.3205"/>
<path d="M55 -25.9808 L55 -25.9808 L52.5 -21.6506 L57.5 -21.6506 L55 -25.9808"/>
<path d="M70 -17.3205 L70 -17.3205 L67.5 -21.6506 L65 -17.3205 L70 -17.3205"/>
<path d="M65 -25.9808 L65 -25.9808 L62.5 -21.6506 L67.5 -21.6506 L65 -25.9808"/>
<path d="M60 -17.3205 L60 -17.3205 L65 -17.3205 L62.5 -21.6506 L60 -17.3205"/>
<path d="M40 1.29674e-13 L40 1.29674e-13 L45 3.52163e-13 L42.5 -4.33013 L40 1.28786e-13"/>
<path d="M50 5.79092e-13 L50 5.79092e-13 L47.5 -4.33013 L45 3.52607e-13 L50 5.80869e-13"/>
<path d="M45 -8.66025 L45 -8.66025 L42.5 -4.33013 L47.5 -4.33013 L45 -8.66025"/>
<path d="M60 1.05693e-12 L60 1.05693e-12 L57.5 -4.33013 L55 8.20677e-13 L60 1.05871e-12"/>
<path d="M55 -8.66025 L55 -8.66025 L52.5 -4.33013 L57.5 -4.33013 L55 -8.66025"/>
<path d="M50 5.73763e-13 L50 5.73763e-13 L55 8.19345e-13 L52.5 -4.33013 L50 5.71987e-13"/>
<path d="M50 -17.3205 L50 -17.3205 L47.5 -12.9904 L52.5 -12.9904 L50 -17.3205"/>
<path d="M45 -8.66025 L45 -8.66025 L50 -8.66025 L47.5 -12.9904 L45 -8.66025"/>
<path d="M55 -8.66025 L55 -8.66025 L52.5 -12.9904 L50 -8.66025 L55 -8.66025"/>
<path d="M40 -69.282 L40 -69.282 L37.5 -64.9519 L42.5 -64.9519 L40 -69.282"/>
<path d="M35 -60.6218 L35 -60.6218 L40 -60.6218 L37.5 -64.9519 L35 -60.6218"/>
<path d="M45 -60.6218 L45 -60.6218 L42.5 -64.9519 L40 -60.6218 L45 -60.6218"/>
<path d="M30 -51.9615 L30 -51.9615 L35 -51.9615 L32.5 -56.2917 L30 -51.9615"/>
<path d="M40 -51.9615 L40 -51.9615 L37.5 -56.2917 L35 -51.9615 L40 -51.9615"/>
<path d="M35 -60.6218 L35 -60.6218 L32.5 -56.2917 L37.5 -56.2917 L35 -60.6218"/>
<path d="M50 -51.9615 L50 -51.9615 L47.5 -56.2917 L45 -51.9615 L50 -51.9615"/>
<path d="M45 -60.6218 L45 -60.6218 L42.5 -56.2917 L47.5 -56.2917 L45 -60.6218"/>
<path d="M40 -51.9615 L40 -51.9615 L45 -51.9615 L42.5 -56.2917 L40 -51.9615"/>
<path d="M20 -34.641 L20 -34.641 L25 -34.641 L22.5 -38.9711 L20 -34.641"/>
<path d="M30 -34.641 L30 -34.641 L27.5 -38.9711 L25 -34.641 L30 -34.641"/>
<path d="M25 -43.3013 L25 -43.3013 L22.5 -38.9711 L27.5 -38.9711 L25 -43.3013"/>
<path d="M40 -34.641 L40 -34.641 L37.5 -38.9711 L35 -34.641 L40 -34.641"/>
<path d="M35 -43.3013 L35 -43.3013 L32.5 -38.9711 L37.5 -38.9711 L35 -43.3013"/>
<path d="M30 -34.641 L30 -34.641 L35 -34.641 L32.5 -38.9711 L30 -34.641"/>
<path d="M30 -51.9615 L30 -51.9615 L27.5 -47.6314 L32.5 -47.6314 L30 -51.9615"/>
<path d="M25 -43.3013 L25 -43.3013 L30 -43.3013 L27.5 -47.6314 L25 -43.3013"/>
<path d="M35 -43.3013 L35 -43.3013 L32.5 -47.6314 L30 -43.3013 L35 -43.3013"/>
<path d="M60 -34.641 L60 -34.641 L57.5 -38.9711 L55 -34.641 L60 -34.641"/>
<path d="M55 -43.3013 L55 -43.3013 L52.5 -38.9711 L57.5 -38.9711 L55 -43.3013"/>
<path d="M50 -34.641 L50 -34.641 L55 -34.641 L52.5 -38.9711 L50 -34.641"/>
<path d="M50 -51.9615 L50 -51.9615 L47.5 -47.6314 L52.5 -47.6314 L50 -51.9615"/>
<path d="M45 -43.3013 L45 -43.3013 L50 -43.3013 L47.5 -47.6314 L45 -43.3013"/>
<path d="M55 -43.3013 L55 -43.3013 L52.5 -47.6314 L50 -43.3013 L55 -43.3013"/>
<path d="M40 -34.641 L40 -34.641 L45 -34.641 L42.5 -38.9711 L40 -34.641"/>
<path d="M50 -34.641 L50 -34.641 L47.5 -38.9711 L45 -34.641 L50 -34.641"/>
<path d="M45 -43.3013 L45 -43.3013 L42.5 -38.9711 L47.5 -38.9711 L45 -43.3013"/>
</svg>
