<?xml version="1.0" encoding="UTF-8"?>
<svg xmlns="http://www.w3.org/2000/svg"
 version="1.1" baseProfile="basic"
 viewBox="-11 -288 341 299"
 width="1280px" height="1024px"
 stroke="white" stroke-width="1px"
 fill="black" fill-opacity="0">
<rect x="-11" y="-288" width="341" height="299" stroke-width="0px" fill-opacity="1"/>
<path d="M0 0 L0 0 L5 0 L2.5 -4.33013 L-8.88178e-16 -1.77636e-15"/>
<path d="M10 5.32907e-15 L10 5.32907e-15 L7.5 -4.33013 L5 0 L10 7.10543e-15"/>
<path d="M5 -8.66025 L5 -8.66025 L2.5 -4.33013 L7.5 -4.33013 L5 -8.66025"/>
<path d="M20 4.44089e-14 L20 4.44089e-14 L17.5 -4.33013 L15 2.84217e-14 L20 4.52971e-14"/>
<path d="M15 -8.66025 L15 -8.66025 L12.5 -4.33013 L17.5 -4.33013 L15 -8.66025"/>
<path d="M10 5.32907e-15 L10 5.32907e-15 L15 2.88658e-14 L12.5 -4.33013 L10 4.44089e-15"/>
<path d="M10 -17.3205 L10 -17.3205 L7.5 -12.9904 L12.5 -12.9904 L10 -17.3205"/>
<path d="M5 -8.66025 L5 -8.66025 L10 -8.66025 L7.5 -12.9904 L5 -8.66025"/>
<path d="M15 -8.66025 L15 -8.66025 L12.5 -12.9904 L10 -8.66025 L15 -8.66025"/>
<path d="M40 2.66454e-13 L40 2.66454e-13 L37.5 -4.33013 L35 2.22045e-13 L40 2.6823e-13"/>
<path d="M35 -8.66025 L35 -8.66025 L32.5 -4.33013 L37.5 -4.33013 L35 -8.66025"/>
<path d="M30 1.68754e-13 L30 1.68754e-13 L35 2.22933e-13 L32.5 -4.33013 L30 1.66978e-13"/>
<path d="M30 -17.3205 L30 -17.3205 L27.5 -12.9904 L32.5 -12.9904 L30 -17.3205"/>
<path d="M25 -8.66025 L25 -8.66025 L30 -8.66025 L27.5 -12.9904 L25 -8.66025"/>
<path d="M35 -8.66025 L35 -8.66025 L32.5 -12.9904 L30 -8.66025 L35 -8.66025"/>
<path d="M20 2.30926e-14 L20 2.30926e-14 L25 9.59233e-14 L22.5 -4.33013 L20 2.13163e-14"/>
<path d="M30 1.74083e-13 L30 1.74083e-13 L27.5 -4.33013 L25 9.68114e-14 L30 1.75415e-13"/>
<path d="M25 -8.66025 L25 -8.66025 L22.5 -4.33013 L27.5 -4.33013 L25 -8.66025"/>
<path d="M20 -34.641 L20 -34.641 L17.5 -30.3109 L22.5 -30.3109 L20 -34.641"/>
<path d="M15 -25.9808 L15 -25.9808 L20 -25.9808 L17.5 -30.3109 L15 -25.9808"/>
<path d="M25 -25.9808 L25 -25.9808 L22.5 -30.3109 L20 -25.9808 L25 -25.9808"/>
<path d="M10 -17.3205 L10 -17.3205 L15 -17.3205 L12.5 -21.6506 L10 -17.3205"/>
<path d="M20 -17.3205 L20 -17.3205 L17.5 -21.6506 L15 -17.3205 L20 -17.3205"/>
<path d="M15 -25.9808 L15 -25.9808 L12.5 -21.6506 L17.5 -21.6506 L15 -25.9808"/>
<path d="M30 -17.3205 L30 -17.3205 L27.5 -21.6506 L25 -17.3205 L30 -17.3205"/>
<path d="M25 -25.9808 L25 -25.9808 L22.5 -21.6506 L27.5 -21.6506 L25 -25.9808"/>
<path d="M20 -17.3205 L20 -17.3205 L25 -17.3205 L22.5 -21.6506 L20 -17.3205"/>
<path d="M80 1.61116e-12 L80 1.61116e-12 L77.5 -4.33013 L75 1.47793e-12 L80 1.61293e-12"/>
<path d="M75 -8.66025 L75 -8.66025 L72.5 -4.33013 L77.5 -4.33013 L75 -8.66025"/>
<path d="M70 1.33582e-12 L70 1.33582e-12 L75 1.47882e-12 L72.5 -4.33013 L70 1.33404e-12"/>
<path d="M70 -17.3205 L70 -17.3205 L67.5 -12.9904 L72.5 -12.9904 L70 -17.3205"/>
<path d="M65 -8.66025 L65 -8.66025 L70 -8.66025 L67.5 -12.9904 L65 -8.66025"/>
<path d="M75 -8.66025 L75 -8.66025 L72.5 -12.9904 L70 -8.66025 L75 -8.66025"/>
<path d="M60 1.00897e-12 L60 1.00897e-12 L65 1.17151e-12 L62.5 -4.33013 L60 1.00808e-12"/>
<path d="M70 1.33848e-12 L70 1.33848e-12 L67.5 -4.33013 L65 1.17151e-12 L70 1.34071e-12"/>
<path d="M65 -8.66025 L65 -8.66025 L62.5 -4.33013 L67.5 -4.33013 L65 -8.66025"/>
<path d="M60 -34.641 L60 -34.641 L57.5 -30.3109 L62.5 -30.3109 L60 -34.641"/>
<path d="M55 -25.9808 L55 -25.9808 L60 -25.9808 L57.5 -30.3109 L55 -25.9808"/>
<path d="M65 -25.9808 L65 -25.9808 L62.5 -30.3109 L60 -25.9808 L65 -25.9808"/>
<path d="M50 -17.3205 L50 -17.3205 L55 -17.3205 L52.5 -21.6506 L50 -17.3205"/>
<path d="M60 -17.3205 L60 -17.3205 L57.5 -21.6506 L55 -17.3205 L60 -17.3205"/>
<path d="M55 -25.9808 L55 -25.9808 L52.5 -21.6506 L57.5 -21.6506 L55 -25.9808"/>
<path d="M70 -17.3205 L70 -17.3205 L67.5 -21.6506 L65 -17.3205 L70 -17.3205"/>
<path d="M65 -25.9808 L65 -25.9808 L62.5 -21.6506 L67.5 -21.6506 L65 -25.9808"/>
<path d="M60 -17.3205 L60 -17.3205 L65 -17.3205 L62.5 -21.6506 L60 -17.3205"/>
<path d="M40 1.29674e-13 L40 1.29674e-13 L45 3.52163e-13 L42.5 -4.33013 L40 1.28786e-13"/>
<path d="M50 5.79092e-13 L50 5.79092e-13 L47.5 -4.33013 L45 3.52607e-13 L50 5.80869e-13"/>
<path d="M45 -8.66025 L45 -8.66025 L42.5 -4.33013 L47.5 -4.33013 L45 -8.66025"/>
<path d="M60 1.05693e-12 L60 1.05693e-12 L57.5 -4.33013 L55 8.20677e-13 L60 1.05871e-12"/>
<path d="M55 -8.66025 L55 -8.66025 L52.5 -4.33013 L57.5 -4.33013 L55 -8.66025"/>
<path d="M50 5.73763e-13 L50 5.73763e-13 L55 8.19345e-13 L52.5 -4.33013 L50 5.71987e-13"/>
<path d="M50 -17.3205 L50 -17.3205 L47.5 -12.9904 L52.5 -12.9904 L50 -17.3205"/>
<path d="M45 -8.66025 L45 -8.66025 L50 -8.66025 L47.5 -12.9904 L45 -8.66025"/>
<path d="M55 -8.66025 L55 -8.66025 L52.5 -12.9904 L50 -8.66025 L55 -8.66025"/>
<path d="M40 -69.282 L40 -69.282 L37.5 -64.9519 L42.5 -64.9519 L40 -69.282"/>
<path d="M35 -60.6218 L35 -60.6218 L40 -60.6218 L37.5 -64.9519 L35 -60.6218"/>
<path d="M45 -60.6218 L45 -60.6218 L42.5 -64.9519 L40 -60.6218 L45 -60.6218"/>
<path d="M30 -51.9615 L30 -51.9615 L35 -51.9615 L32.5 -56.2917 L30 -51.9615"/>
<path d="M40 -51.9615 L40 -51.9615 L37.5 -56.2917 L35 -51.9615 L40 -51.9615"/>
<path d="M35 -60.6218 L35 -60.6218 L32.5 -56.2917 L37.5 -56.2917 L35 -60.6218"/>
<path d="M50 -51.9615 L50 -51.9615 L47.5 -56.2917 L45 -51.9615 L50 -51.9615"/>
<path d="M45 -60.6218 L45 -60.6218 L42.5 -56.2917 L47.5 -56.2917 L45 -60.6218"/>
<path d="M40 -51.9615 L40 -51.9615 L45 -51.9615 L42.5 -56.2917 L40 -51.9615"/>
<path d="M20 -34.641 L20 -34.641 L25 -34.641 L22.5 -38.9711 L20 -34.641"/>
<path d="M30 -34.641 L30 -34.641 L27.5 -38.9711 L25 -34.641 L30 -34.641"/>
<path d="M25 -43.3013 L25 -43.3013 L22.5 -38.9711 L27.5 -38.9711 L25 -43.3013"/>
<path d="M40 -34.641 L40 -34.641 L37.5 -38.9711 L35 -34.641 L40 -34.641"/>
<path d="M35 -43.3013 L35 -43.3013 L32.5 -38.9711 L37.5 -38.9711 L35 -43.3013"/>
<path d="M30 -34.641 L30 -34.641 L35 -34.641 L32.5 -38.9711 L30 -34.641"/>
<path d="M30 -51.9615 L30 -51.9615 L27.5 -47.6314 L32.5 -47.6314 L30 -51.9615"/>
<path d="M25 -43.3013 L25 -43.3013 L30 -43.3013 L27.5 -47.6314 L25 -43.3013"/>
<path d="M35 -43.3013 L35 -43.3013 L32.5 -47.6314 L30 -43.3013 L35 -43.3013"/>
<path d="M60 -34.641 L60 -34.641 L57.5 -38.9711 L55 -34.641 L60 -34.641"/>
<path d="M55 -43.3013 L55 -43.3013 L52.5 -38.9711 L57.5 -38.9711 L55 -43.3013"/>
<path d="M50 -34.641 L50 -34.641 L55 -34.641 L52.5 -38.9711 L50 -34.641"/>
<path d="M50 -51.9615 L50 -51.9615 L47.5 -47.6314 L52.5 -47.6314 L50 -51.9615"/>
<path d="M45 -43.3013 L45 -43.3013 L50 -43.3013 L47.5 -47.6314 L45 -43.3013"/>
<path d="M55 -43.3013 L55 -43.3013 L52.5 -47.6314 L50 -43.3013 L55 -43.3013"/>
<path d="M40 -34.641 L40 -34.641 L45 -34.641 L42.5 -38.9711 L40 -34.641"/>
<path d="M50 -34.641 L50 -34.641 L47.5 -38.9711 L45 -34.641 L50 -34.641"/>
<path d="M45 -43.3013 L45 -43.3013 L42.5 -38.9711 L47.5 -38.9711 L45 -43.3013"/>
<path d="M160 9.72022e-12 L160 9.72022e-12 L157.5 -4.33013 L155 9.31699e-12 L160 9.722e-12"/>
<path d="M155 -8.66025 L155 -8.66025 L152.5 -4.33013 L157.5 -4.33013 L155 -8.66025"/>
<path d="M150 8.90488e-12 L150 8.90488e-12 L155 9.31699e-12 L152.5 -4.33013 L150 8.9031e-12"/>
<path d="M150 -17.3205 L150 -17.3205 L147.5 -12.9904 L152.5 -12.9904 L150 -17.3205"/>
<path d="M145 -8.66025 L145 -8.66025 L150 -8.66025 L147.5 -12.9904 L145 -8.66025"/>
<path d="M155 -8.66025 L155 -8.66025 L152.5 -12.9904 L150 -8.66025 L155 -8.66025"/>
<path d="M140 8.03446e-12 L140 8.03446e-12 L145 8.46612e-12 L142.5 -4.33013 L140 8.03269e-12"/>
<path d="M150 8.90221e-12 L150 8.90221e-12 L147.5 -4.33013 L145 8.46523e-12 L150 8.90399e-12"/>
<path d="M145 -8.66025 L145 -8.66025 L142.5 -4.33013 L147.5 -4.33013 L145 -8.66025"/>
<path d="M140 -34.641 L140 -34.641 L137.5 -30.3109 L142.5 -30.3109 L140 -34.641"/>
<path d="M135 -25.9808 L135 -25.9808 L140 -25.9808 L137.5 -30.3109 L135 -25.9808"/>
<path d="M145 -25.9808 L145 -25.9808 L142.5 -30.3109 L140 -25.9808 L145 -25.9808"/>
<path d="M130 -17.3205 L130 -17.3205 L135 -17.3205 L132.5 -21.6506 L130 -17.3205"/>
<path d="M140 -17.3205 L140 -17.3205 L137.5 -21.6506 L135 -17.3205 L140 -17.3205"/>
<path d="M135 -25.9808 L135 -25.9808 L132.5 -21.6506 L137.5 -21.6506 L135 -25.9808"/>
<path d="M150 -17.3205 L150 -17.3205 L147.5 -21.6506 L145 -17.3205 L150 -17.3205"/>
<path d="M145 -25.9808 L145 -25.9808 L142.5 -21.6506 L147.5 -21.6506 L145 -25.9808"/>
<path d="M140 -17.3205 L140 -17.3205 L145 -17.3205 L142.5 -21.6506 L140 -17.3205"/>
<path d="M120 6.0485e-12 L120 6.0485e-12 L125 6.54055e-12 L122.5 -4.33013 L120 6.04494e-12"/>
<path d="M130 7.03793e-12 L130 7.03793e-12 L127.5 -4.33013 L125 6.53966e-12 L130 7.0397e-12"/>
<path d="M125 -8.66025 L125 -8.66025 L122.5 -4.33013 L127.5 -4.33013 L125 -8.66025"/>
<path d="M140 8.05933e-12 L140 8.05933e-12 L137.5 -4.33013 L135 7.55218e-12 L140 8.06155e-12"/>
<path d="M135 -8.66025 L135 -8.66025 L132.5 -4.33013 L137.5 -4.33013 L135 -8.66025"/>
<path d="M130 7.03793e-12 L130 7.03793e-12 L135 7.55307e-12 L132.5 -4.33013 L130 7.03615e-12"/>
<path d="M130 -17.3205 L130 -17.3205 L127.5 -12.9904 L132.5 -12.9904 L130 -17.3205"/>
<path d="M125 -8.66025 L125 -8.66025 L130 -8.66025 L127.5 -12.9904 L125 -8.66025"/>
<path d="M135 -8.66025 L135 -8.66025 L132.5 -12.9904 L130 -8.66025 L135 -8.66025"/>
<path d="M120 -69.282 L120 -69.282 L117.5 -64.9519 L122.5 -64.9519 L120 -69.282"/>
<path d="M115 -60.6218 L115 -60.6218 L120 -60.6218 L117.5 -64.9519 L115 -60.6218"/>
<path d="M125 -60.6218 L125 -60.6218 L122.5 -64.9519 L120 -60.6218 L125 -60.6218"/>
<path d="M110 -51.9615 L110 -51.9615 L115 -51.9615 L112.5 -56.2917 L110 -51.9615"/>
<path d="M120 -51.9615 L120 -51.9615 L117.5 -56.2917 L115 -51.9615 L120 -51.9615"/>
<path d="M115 -60.6218 L115 -60.6218 L112.5 -56.2917 L117.5 -56.2917 L115 -60.6218"/>
<path d="M130 -51.9615 L130 -51.9615 L127.5 -56.2917 L125 -51.9615 L130 -51.9615"/>
<path d="M125 -60.6218 L125 -60.6218 L122.5 -56.2917 L127.5 -56.2917 L125 -60.6218"/>
<path d="M120 -51.9615 L120 -51.9615 L125 -51.9615 L122.5 -56.2917 L120 -51.9615"/>
<path d="M100 -34.641 L100 -34.641 L105 -34.641 L102.5 -38.9711 L100 -34.641"/>
<path d="M110 -34.641 L110 -34.641 L107.5 -38.9711 L105 -34.641 L110 -34.641"/>
<path d="M105 -43.3013 L105 -43.3013 L102.5 -38.9711 L107.5 -38.9711 L105 -43.3013"/>
<path d="M120 -34.641 L120 -34.641 L117.5 -38.9711 L115 -34.641 L120 -34.641"/>
<path d="M115 -43.3013 L115 -43.3013 L112.5 -38.9711 L117.5 -38.9711 L115 -43.3013"/>
<path d="M110 -34.641 L110 -34.641 L115 -34.641 L112.5 -38.9711 L110 -34.641"/>
<path d="M110 -51.9615 L110 -51.9615 L107.5 -47.6314 L112.5 -47.6314 L110 -51.9615"/>
<path d="M105 -43.3013 L105 -43.3013 L110 -43.3013 L107.5 -47.6314 L105 -43.3013"/>
<path d="M115 -43.3013 L115 -43.3013 L112.5 -47.6314 L110 -43.3013 L115 -43.3013"/>
<path d="M140 -34.641 L140 -34.641 L137.5 -38.9711 L135 -34.641 L140 -34.641"/>
<path d="M135 -43.3013 L135 -43.3013 L132.5 -38.9711 L137.5 -38.9711 L135 -43.3013"/>
<path d="M130 -34.641 L130 -34.641 L135 -34.641 L132.5 -38.9711 L130 -34.641"/>
<path d="M130 -51.9615 L130 -51.9615 L127.5 -47.6314 L132.5 -47.6314 L130 -51.9615"/>
<path d="M125 -43.3013 L125 -43.3013 L130 -43.3013 L127.5 -47.6314 L125 -43.3013"/>
<path d="M135 -43.3013 L135 -43.3013 L132.5 -47.6314 L130 -43.3013 L135 -43.3013"/>
<path d="M120 -34.641 L120 -34.641 L125 -34.641 L122.5 -38.9711 L120 -34.641"/>
<path d="M130 -34.641 L130 -34.641 L127.5 -38.9711 L125 -34.641 L130 -34.641"/>
<path d="M125 -43.3013 L125 -43.3013 L122.5 -38.9711 L127.5 -38.9711 L125 -43.3013"/>
<path d="M80 6.39488e-13 L80 6.39488e-13 L85 1.31095e-12 L82.5 -4.33013 L80 6.37712e-13"/>
<path d="M90 1.98597e-12 L90 1.98597e-12 L87.5 -4.33013 L85 1.31095e-12 L90 1.98774e-12"/>
<path d="M85 -8.66025 L85 -8.66025 L82.5 -4.33013 L87.5 -4.33013 L85 -8.66025"/>
<path d="M100 3.36264e-12 L100 3.36264e-12 L97.5 -4.33013 L95 2.67608e-12 L100 3.36398e-12"/>
<path d="M95 -8.66025 L95 -8.66025 L92.5 -4.33013 L97.5 -4.33013 L95 -8.66025"/>
<path d="M90 1.97886e-12 L90 1.97886e-12 L95 2.67431e-12 L92.5 -4.33013 L90 1.97709e-12"/>
<path d="M90 -17.3205 L90 -17.3205 L87.5 -12.9904 L92.5 -12.9904 L90 -17.3205"/>
<path d="M85 -8.66025 L85 -8.66025 L90 -8.66025 L87.5 -12.9904 L85 -8.66025"/>
<path d="M95 -8.66025 L95 -8.66025 L92.5 -12.9904 L90 -8.66025 L95 -8.66025"/>
<path d="M120 6.25988e-12 L120 6.25988e-12 L117.5 -4.33013 L115 5.54401e-12 L120 6.26166e-12"/>
<path d="M115 -8.66025 L115 -8.66025 L112.5 -4.33013 L117.5 -4.33013 L115 -8.66025"/>
<path d="M110 4.82103e-12 L110 4.82103e-12 L115 5.54401e-12 L112.5 -4.33013 L110 4.81926e-12"/>
<path d="M110 -17.3205 L110 -17.3205 L107.5 -12.9904 L112.5 -12.9904 L110 -17.3205"/>
<path d="M105 -8.66025 L105 -8.66025 L110 -8.66025 L107.5 -12.9904 L105 -8.66025"/>
<path d="M115 -8.66025 L115 -8.66025 L112.5 -12.9904 L110 -8.66025 L115 -8.66025"/>
<path d="M100 3.32712e-12 L100 3.32712e-12 L105 4.07141e-12 L102.5 -4.33013 L100 3.32534e-12"/>
<path d="M110 4.82014e-12 L110 4.82014e-12 L107.5 -4.33013 L105 4.07052e-12 L110 4.82192e-12"/>
<path d="M105 -8.66025 L105 -8.66025 L102.5 -4.33013 L107.5 -4.33013 L105 -8.66025"/>
<path d="M100 -34.641 L100 -34.641 L97.5 -30.3109 L102.5 -30.3109 L100 -34.641"/>
<path d="M95 -25.9808 L95 -25.9808 L100 -25.9808 L97.5 -30.3109 L95 -25.9808"/>
<path d="M105 -25.9808 L105 -25.9808 L102.5 -30.3109 L100 -25.9808 L105 -25.9808"/>
<path d="M90 -17.3205 L90 -17.3205 L95 -17.3205 L92.5 -21.6506 L90 -17.3205"/>
<path d="M100 -17.3205 L100 -17.3205 L97.5 -21.6506 L95 -17.3205 L100 -17.3205"/>
<path d="M95 -25.9808 L95 -25.9808 L92.5 -21.6506 L97.5 -21.6506 L95 -25.9808"/>
<path d="M110 -17.3205 L110 -17.3205 L107.5 -21.6506 L105 -17.3205 L110 -17.3205"/>
<path d="M105 -25.9808 L105 -25.9808 L102.5 -21.6506 L107.5 -21.6506 L105 -25.9808"/>
<path d="M100 -17.3205 L100 -17.3205 L105 -17.3205 L102.5 -21.6506 L100 -17.3205"/>
<path d="M80 -138.564 L80 -138.564 L77.5 -134.234 L82.5 -134.234 L80 -138.564"/>
<path d="M75 -129.904 L75 -129.904 L80 -129.904 L77.5 -134.234 L75 -129.904"/>
<path d="M85 -129.904 L85 -129.904 L82.5 -134.234 L80 -129.904 L85 -129.904"/>
<path d="M70 -121.244 L70 -121.244 L75 -121.244 L72.5 -125.574 L70 -121.244"/>
<path d="M80 -121.244 L80 -121.244 L77.5 -125.574 L75 -121.244 L80 -121.244"/>
<path d="M75 -129.904 L75 -129.904 L72.5 -125.574 L77.5 -125.574 L75 -129.904"/>
<path d="M90 -121.244 L90 -121.244 L87.5 -125.574 L85 -121.244 L90 -121.244"/>
<path d="M85 -129.904 L85 -129.904 L82.5 -125.574 L87.5 -125.574 L85 -129.904"/>
<path d="M80 -121.244 L80 -121.244 L85 -121.244 L82.5 -125.574 L80 -121.244"/>
<path d="M60 -103.923 L60 -103.923 L65 -103.923 L62.5 -108.253 L60 -103.923"/>
<path d="M70 -103.923 L70 -103.923 L67.5 -108.253 L65 -103.923 L70 -103.923"/>
<path d="M65 -112.583 L65 -112.583 L62.5 -108.253 L67.5 -108.253 L65 -112.583"/>
<path d="M80 -103.923 L80 -103.923 L77.5 -108.253 L75 -103.923 L80 -103.923"/>
<path d="M75 -112.583 L75 -112.583 L72.5 -108.253 L77.5 -108.253 L75 -112.583"/>
<path d="M70 -103.923 L70 -103.923 L75 -103.923 L72.5 -108.253 L70 -103.923"/>
<path d="M70 -121.244 L70 -121.244 L67.5 -116.913 L72.5 -116.913 L70 -121.244"/>
<path d="M65 -112.583 L65 -112.583 L70 -112.583 L67.5 -116.913 L65 -112.583"/>
<path d="M75 -112.583 L75 -112.583 L72.5 -116.913 L70 -112.583 L75 -112.583"/>
<path d="M100 -103.923 L100 -103.923 L97.5 -108.253 L95 -103.923 L100 -103.923"/>
<path d="M95 -112.583 L95 -112.583 L92.5 -108.253 L97.5 -108.253 L95 -112.583"/>
<path d="M90 -103.923 L90 -103.923 L95 -103.923 L92.5 -108.253 L90 -103.923"/>
<path d="M90 -121.244 L90 -121.244 L87.5 -116.913 L92.5 -116.913 L90 -121.244"/>
<path d="M85 -112.583 L85 -112.583 L90 -112.583 L87.5 -116.913 L85 -112.583"/>
<path d="M95 -112.583 L95 -112.583 L92.5 -116.913 L90 -112.583 L95 -112.583"/>
<path d="M80 -103.923 L80 -103.923 L85 -103.923 L82.5 -108.253 L80 -103.923"/>
<path d="M90 -103.923 L90 -103.923 L87.5 -108.253 L85 -103.923 L90 -103.923"/>
<path d="M85 -112.583 L85 -112.583 L82.5 -108.253 L87.5 -108.253 L85 -112.583"/>
<path d="M40 -69.282 L40 -69.282 L45 -69.282 L42.5 -73.6122 L40 -69.282"/>
<path d="M50 -69.282 L50 -69.282 L47.5 -73.6122 L45 -69.282 L50 -69.282"/>
<path d="M45 -77.9423 L45 -77.9423 L42.5 -73.6122 L47.5 -73.6122 L45 -77.9423"/>
<path d="M60 -69.282 L60 -69.282 L57.5 -73.6122 L55 -69.282 L60 -69.282"/>
<path d="M55 -77.9423 L55 -77.9423 L52.5 -73.6122 L57.5 -73.6122 L55 -77.9423"/>
<path d="M50 -69.282 L50 -69.282 L55 -69.282 L52.5 -73.6122 L50 -69.282"/>
<path d="M50 -86.6025 L50 -86.6025 L47.5 -82.2724 L52.5 -82.2724 L50 -86.6025"/>
<path d="M45 -77.9423 L45 -77.9423 L50 -77.9423 L47.5 -82.2724 L45 -77.9423"/>
<path d="M55 -77.9423 L55 -77.9423 L52.5 -82.2724 L50 -77.9423 L55 -77.9423"/>
<path d="M80 -69.282 L80 -69.282 L77.5 -73.6122 L75 -69.282 L80 -69.282"/>
<path d="M75 -77.9423 L75 -77.9423 L72.5 -73.6122 L77.5 -73.6122 L75 -77.9423"/>
<path d="M70 -69.282 L70 -69.282 L75 -69.282 L72.5 -73.6122 L70 -69.282"/>
<path d="M70 -86.6025 L70 -86.6025 L67.5 -82.2724 L72.5 -82.2724 L70 -86.6025"/>
<path d="M65 -77.9423 L65 -77.9423 L70 -77.9423 L67.5 -82.2724 L65 -77.9423"/>
<path d="M75 -77.9423 L75 -77.9423 L72.5 -82.2724 L70 -77.9423 L75 -77.9423"/>
<path d="M60 -69.282 L60 -69.282 L65 -69.282 L62.5 -73.6122 L60 -69.282"/>
<path d="M70 -69.282 L70 -69.282 L67.5 -73.6122 L65 -69.282 L70 -69.282"/>
<path d="M65 -77.9423 L65 -77.9423 L62.5 -73.6122 L67.5 -73.6122 L65 -77.9423"/>
<path d="M60 -103.923 L60 -103.923 L57.5 -99.5929 L62.5 -99.5929 L60 -103.923"/>
<path d="M55 -95.2628 L55 -95.2628 L60 -95.2628 L57.5 -99.5929 L55 -95.2628"/>
<path d="M65 -95.2628 L65 -95.2628 L62.5 -99.5929 L60 -95.2628 L65 -95.2628"/>
<path d="M50 -86.6025 L50 -86.6025 L55 -86.6025 L52.5 -90.9327 L50 -86.6025"/>
<path d="M60 -86.6025 L60 -86.6025 L57.5 -90.9327 L55 -86.6025 L60 -86.6025"/>
<path d="M55 -95.2628 L55 -95.2628 L52.5 -90.9327 L57.5 -90.9327 L55 -95.2628"/>
<path d="M70 -86.6025 L70 -86.6025 L67.5 -90.9327 L65 -86.6025 L70 -86.6025"/>
<path d="M65 -95.2628 L65 -95.2628 L62.5 -90.9327 L67.5 -90.9327 L65 -95.2628"/>
<path d="M60 -86.6025 L60 -86.6025 L65 -86.6025 L62.5 -90.9327 L60 -86.6025"/>
<path d="M120 -69.282 L120 -69.282 L117.5 -73.6122 L115 -69.282 L120 -69.282"/>
<path d="M115 -77.9423 L115 -77.9423 L112.5 -73.6122 L117.5 -73.6122 L115 -77.9423"/>
<path d="M110 -69.282 L110 -69.282 L115 -69.282 L112.5 -73.6122 L110 -69.282"/>
<path d="M110 -86.6025 L110 -86.6025 L107.5 -82.2724 L112.5 -82.2724 L110 -86.6025"/>
<path d="M105 -77.9423 L105 -77.9423 L110 -77.9423 L107.5 -82.2724 L105 -77.9423"/>
<path d="M115 -77.9423 L115 -77.9423 L112.5 -82.2724 L110 -77.9423 L115 -77.9423"/>
<path d="M100 -69.282 L100 -69.282 L105 -69.282 L102.5 -73.6122 L100 -69.282"/>
<path d="M110 -69.282 L110 -69.282 L107.5 -73.6122 L105 -69.282 L110 -69.282"/>
<path d="M105 -77.9423 L105 -77.9423 L102.5 -73.6122 L107.5 -73.6122 L105 -77.9423"/>
<path d="M100 -103.923 L100 -103.923 L97.5 -99.5929 L102.5 -99.5929 L100 -103.923"/>
<path d="M95 -95.2628 L95 -95.2628 L100 -95.2628 L97.5 -99.5929 L95 -95.2628"/>
<path d="M105 -95.2628 L105 -95.2628 L102.5 -99.5929 L100 -95.2628 L105 -95.2628"/>
<path d="M90 -86.6025 L90 -86.6025 L95 -86.6025 L92.5 -90.9327 L90 -86.6025"/>
<path d="M100 -86.6025 L100 -86.6025 L97.5 -90.9327 L95 -86.6025 L100 -86.6025"/>
<path d="M95 -95.2628 L95 -95.2628 L92.5 -90.9327 L97.5 -90.9327 L95 -95.2628"/>
<path d="M110 -86.6025 L110 -86.6025 L107.5 -90.9327 L105 -86.6025 L110 -86.6025"/>
<path d="M105 -95.2628 L105 -95.2628 L102.5 -90.9327 L107.5 -90.9327 L105 -95.2628"/>
<path d="M100 -86.6025 L100 -86.6025 L105 -86.6025 L102.5 -90.9327 L100 -86.6025"/>
<path d="M80 -69.282 L80 -69.282 L85 -69.282 L82.5 -73.6122 L80 -69.282"/>
<path d="M90 -69.282 L90 -69.282 L87.5 -73.6122 L85 -69.282 L90 -69.282"/>
<path d="M85 -77.9423 L85 -77.9423 L82.5 -73.6122 L87.5 -73.6122 L85 -77.9423"/>
<path d="M100 -69.282 L100 -69.282 L97.5 -73.6122 L95 -69.282 L100 -69.282"/>
<path d="M95 -77.9423 L95 -77.9423 L92.5 -73.6122 L97.5 -73.6122 L95 -77.9423"/>
<path d="M90 -69.282 L90 -69.282 L95 -69.282 L92.5 -73.6122 L90 -69.282"/>
<path d="M90 -86.6025 L90 -86.6025 L87.5 -82.2724 L92.5 -82.2724 L90 -86.6025"/>
<path d="M85 -77.9423 L85 -77.9423 L90 -77.9423 L87.5 -82.2724 L85 -77.9423"/>
<path d="M95 -77.9423 L95 -77.9423 L92.5 -82.2724 L90 -77.9423 L95 -77.9423"/>
<path d="M320 5.81206e-11 L320 5.81206e-11 L317.5 -4.33013 L315 5.69127e-11 L320 5.81228e-11"/>
<path d="M315 -8.66025 L315 -8.66025 L312.5 -4.33013 L317.5 -4.33013 L315 -8.66025"/>
<path d="M310 5.56977e-11 L310 5.56977e-11 L315 5.69145e-11 L312.5 -4.33013 L310 5.56968e-11"/>
<path d="M310 -17.3205 L310 -17.3205 L307.5 -12.9904 L312.5 -12.9904 L310 -17.3205"/>
<path d="M305 -8.66025 L305 -8.66025 L310 -8.66025 L307.5 -12.9904 L305 -8.66025"/>
<path d="M315 -8.66025 L315 -8.66025 L312.5 -12.9904 L310 -8.66025 L315 -8.66025"/>
<path d="M300 5.32268e-11 L300 5.32268e-11 L305 5.4464e-11 L302.5 -4.33013 L300 5.3225e-11"/>
<path d="M310 5.57066e-11 L310 5.57066e-11 L307.5 -4.33013 L305 5.4464e-11 L310 5.57083e-11"/>
<path d="M305 -8.66025 L305 -8.66025 L302.5 -4.33013 L307.5 -4.33013 L305 -8.66025"/>
<path d="M300 -34.641 L300 -34.641 L297.5 -30.3109 L302.5 -30.3109 L300 -34.641"/>
<path d="M295 -25.9808 L295 -25.9808 L300 -25.9808 L297.5 -30.3109 L295 -25.9808"/>
<path d="M305 -25.9808 L305 -25.9808 L302.5 -30.3109 L300 -25.9808 L305 -25.9808"/>
<path d="M290 -17.3205 L290 -17.3205 L295 -17.3205 L292.5 -21.6506 L290 -17.3205"/>
<path d="M300 -17.3205 L300 -17.3205 L297.5 -21.6506 L295 -17.3205 L300 -17.3205"/>
<path d="M295 -25.9808 L295 -25.9808 L292.5 -21.6506 L297.5 -21.6506 L295 -25.9808"/>
<path d="M310 -17.3205 L310 -17.3205 L307.5 -21.6506 L305 -17.3205 L310 -17.3205"/>
<path d="M305 -25.9808 L305 -25.9808 L302.5 -21.6506 L307.5 -21.6506 L305 -25.9808"/>
<path d="M300 -17.3205 L300 -17.3205 L305 -17.3205 L302.5 -21.6506 L300 -17.3205"/>
<path d="M280 4.80256e-11 L280 4.80256e-11 L285 4.93223e-11 L282.5 -4.33013 L280 4.80238e-11"/>
<path d="M290 5.06244e-11 L290 5.06244e-11 L287.5 -4.33013 L285 4.93223e-11 L290 5.06253e-11"/>
<path d="M285 -8.66025 L285 -8.66025 L282.5 -4.33013 L287.5 -4.33013 L285 -8.66025"/>
<path d="M300 5.32516e-11 L300 5.32516e-11 L297.5 -4.33013 L295 5.19407e-11 L300 5.32534e-11"/>
<path d="M295 -8.66025 L295 -8.66025 L292.5 -4.33013 L297.5 -4.33013 L295 -8.66025"/>
<path d="M290 5.06208e-11 L290 5.06208e-11 L295 5.19393e-11 L292.5 -4.33013 L290 5.06191e-11"/>
<path d="M290 -17.3205 L290 -17.3205 L287.5 -12.9904 L292.5 -12.9904 L290 -17.3205"/>
<path d="M285 -8.66025 L285 -8.66025 L290 -8.66025 L287.5 -12.9904 L285 -8.66025"/>
<path d="M295 -8.66025 L295 -8.66025 L292.5 -12.9904 L290 -8.66025 L295 -8.66025"/>
<path d="M280 -69.282 L280 -69.282 L277.5 -64.9519 L282.5 -64.9519 L280 -69.282"/>
<path d="M275 -60.6218 L275 -60.6218 L280 -60.6218 L277.5 -64.9519 L275 -60.6218"/>
<path d="M285 -60.6218 L285 -60.6218 L282.5 -64.9519 L280 -60.6218 L285 -60.6218"/>
<path d="M270 -51.9615 L270 -51.9615 L275 -51.9615 L272.5 -56.2917 L270 -51.9615"/>
<path d="M280 -51.9615 L280 -51.9615 L277.5 -56.2917 L275 -51.9615 L280 -51.9615"/>
<path d="M275 -60.6218 L275 -60.6218 L272.5 -56.2917 L277.5 -56.2917 L275 -60.6218"/>
<path d="M290 -51.9615 L290 -51.9615 L287.5 -56.2917 L285 -51.9615 L290 -51.9615"/>
<path d="M285 -60.6218 L285 -60.6218 L282.5 -56.2917 L287.5 -56.2917 L285 -60.6218"/>
<path d="M280 -51.9615 L280 -51.9615 L285 -51.9615 L282.5 -56.2917 L280 -51.9615"/>
<path d="M260 -34.641 L260 -34.641 L265 -34.641 L262.5 -38.9711 L260 -34.641"/>
<path d="M270 -34.641 L270 -34.641 L267.5 -38.9711 L265 -34.641 L270 -34.641"/>
<path d="M265 -43.3013 L265 -43.3013 L262.5 -38.9711 L267.5 -38.9711 L265 -43.3013"/>
<path d="M280 -34.641 L280 -34.641 L277.5 -38.9711 L275 -34.641 L280 -34.641"/>
<path d="M275 -43.3013 L275 -43.3013 L272.5 -38.9711 L277.5 -38.9711 L275 -43.3013"/>
<path d="M270 -34.641 L270 -34.641 L275 -34.641 L272.5 -38.9711 L270 -34.641"/>
<path d="M270 -51.9615 L270 -51.9615 L267.5 -47.6314 L272.5 -47.6314 L270 -51.9615"/>
<path d="M265 -43.3013 L265 -43.3013 L270 -43.3013 L267.5 -47.6314 L265 -43.3013"/>
<path d="M275 -43.3013 L275 -43.3013 L272.5 -47.6314 L270 -43.3013 L275 -43.3013"/>
<path d="M300 -34.641 L300 -34.641 L297.5 -38.9711 L295 -34.641 L300 -34.641"/>
<path d="M295 -43.3013 L295 -43.3013 L292.5 -38.9711 L297.5 -38.9711 L295 -43.3013"/>
<path d="M290 -34.641 L290 -34.641 L295 -34.641 L292.5 -38.9711 L290 -34.641"/>
<path d="M290 -51.9615 L290 -51.9615 L287.5 -47.6314 L292.5 -47.6314 L290 -51.9615"/>
<path d="M285 -43.3013 L285 -43.3013 L290 -43.3013 L287.5 -47.6314 L285 -43.3013"/>
<path d="M295 -43.3013 L295 -43.3013 L292.5 -47.6314 L290 -43.3013 L295 -43.3013"/>
<path d="M280 -34.641 L280 -34.641 L285 -34.641 L282.5 -38.9711 L280 -34.641"/>
<path d="M290 -34.641 L290 -34.641 L287.5 -38.9711 L285 -34.641 L290 -34.641"/>
<path d="M285 -43.3013 L285 -43.3013 L282.5 -38.9711 L287.5 -38.9711 L285 -43.3013"/>
<path d="M240 3.62235e-11 L240 3.62235e-11 L245 3.76978e-11 L242.5 -4.33013 L240 3.62217e-11"/>
<path d="M250 3.91776e-11 L250 3.91776e-11 L247.5 -4.33013 L245 3.76978e-11 L250 3.91802e-11"/>
<path d="M245 -8.66025 L245 -8.66025 L242.5 -4.33013 L247.5 -4.33013 L245 -8.66025"/>
<path d="M260 4.21636e-11 L260 4.21636e-11 L257.5 -4.33013 L255 4.06732e-11 L260 4.21654e-11"/>
<path d="M255 -8.66025 L255 -8.66025 L252.5 -4.33013 L257.5 -4.33013 L255 -8.66025"/>
<path d="M250 3.9174e-11 L250 3.9174e-11 L255 4.06732e-11 L252.5 -4.33013 L250 3.91722e-11"/>
<path d="M250 -17.3205 L250 -17.3205 L247.5 -12.9904 L252.5 -12.9904 L250 -17.3205"/>
<path d="M245 -8.66025 L245 -8.66025 L250 -8.66025 L247.5 -12.9904 L245 -8.66025"/>
<path d="M255 -8.66025 L255 -8.66025 L252.5 -12.9904 L250 -8.66025 L255 -8.66025"/>
<path d="M280 4.8276e-11 L280 4.8276e-11 L277.5 -4.33013 L275 4.67573e-11 L280 4.82778e-11"/>
<path d="M275 -8.66025 L275 -8.66025 L272.5 -4.33013 L277.5 -4.33013 L275 -8.66025"/>
<path d="M270 4.52296e-11 L270 4.52296e-11 L275 4.67582e-11 L272.5 -4.33013 L270 4.52278e-11"/>
<path d="M270 -17.3205 L270 -17.3205 L267.5 -12.9904 L272.5 -12.9904 L270 -17.3205"/>
<path d="M265 -8.66025 L265 -8.66025 L270 -8.66025 L267.5 -12.9904 L265 -8.66025"/>
<path d="M275 -8.66025 L275 -8.66025 L272.5 -12.9904 L270 -8.66025 L275 -8.66025"/>
<path d="M260 4.21352e-11 L260 4.21352e-11 L265 4.36833e-11 L262.5 -4.33013 L260 4.21343e-11"/>
<path d="M270 4.52358e-11 L270 4.52358e-11 L267.5 -4.33013 L265 4.36833e-11 L270 4.5238e-11"/>
<path d="M265 -8.66025 L265 -8.66025 L262.5 -4.33013 L267.5 -4.33013 L265 -8.66025"/>
<path d="M260 -34.641 L260 -34.641 L257.5 -30.3109 L262.5 -30.3109 L260 -34.641"/>
<path d="M255 -25.9808 L255 -25.9808 L260 -25.9808 L257.5 -30.3109 L255 -25.9808"/>
<path d="M265 -25.9808 L265 -25.9808 L262.5 -30.3109 L260 -25.9808 L265 -25.9808"/>
<path d="M250 -17.3205 L250 -17.3205 L255 -17.3205 L252.5 -21.6506 L250 -17.3205"/>
<path d="M260 -17.3205 L260 -17.3205 L257.5 -21.6506 L255 -17.3205 L260 -17.3205"/>
<path d="M255 -25.9808 L255 -25.9808 L252.5 -21.6506 L257.5 -21.6506 L255 -25.9808"/>
<path d="M270 -17.3205 L270 -17.3205 L267.5 -21.6506 L265 -17.3205 L270 -17.3205"/>
<path d="M265 -25.9808 L265 -25.9808 L262.5 -21.6506 L267.5 -21.6506 L265 -25.9808"/>
<path d="M260 -17.3205 L260 -17.3205 L265 -17.3205 L262.5 -21.6506 L260 -17.3205"/>
<path d="M240 -138.564 L240 -138.564 L237.5 -134.234 L242.5 -134.234 L240 -138.564"/>
<path d="M235 -129.904 L235 -129.904 L240 -129.904 L237.5 -134.234 L235 -129.904"/>
<path d="M245 -129.904 L245 -129.904 L242.5 -134.234 L240 -129.904 L245 -129.904"/>
<path d="M230 -121.244 L230 -121.244 L235 -121.244 L232.5 -125.574 L230 -121.244"/>
<path d="M240 -121.244 L240 -121.244 L237.5 -125.574 L235 -121.244 L240 -121.244"/>
<path d="M235 -129.904 L235 -129.904 L232.5 -125.574 L237.5 -125.574 L235 -129.904"/>
<path d="M250 -121.244 L250 -121.244 L247.5 -125.574 L245 -121.244 L250 -121.244"/>
<path d="M245 -129.904 L245 -129.904 L242.5 -125.574 L247.5 -125.574 L245 -129.904"/>
<path d="M240 -121.244 L240 -121.244 L245 -121.244 L242.5 -125.574 L240 -121.244"/>
<path d="M220 -103.923 L220 -103.923 L225 -103.923 L222.5 -108.253 L220 -103.923"/>
<path d="M230 -103.923 L230 -103.923 L227.5 -108.253 L225 -103.923 L230 -103.923"/>
<path d="M225 -112.583 L225 -112.583 L222.5 -108.253 L227.5 -108.253 L225 -112.583"/>
<path d="M240 -103.923 L240 -103.923 L237.5 -108.253 L235 -103.923 L240 -103.923"/>
<path d="M235 -112.583 L235 -112.583 L232.5 -108.253 L237.5 -108.253 L235 -112.583"/>
<path d="M230 -103.923 L230 -103.923 L235 -103.923 L232.5 -108.253 L230 -103.923"/>
<path d="M230 -121.244 L230 -121.244 L227.5 -116.913 L232.5 -116.913 L230 -121.244"/>
<path d="M225 -112.583 L225 -112.583 L230 -112.583 L227.5 -116.913 L225 -112.583"/>
<path d="M235 -112.583 L235 -112.583 L232.5 -116.913 L230 -112.583 L235 -112.583"/>
<path d="M260 -103.923 L260 -103.923 L257.5 -108.253 L255 -103.923 L260 -103.923"/>
<path d="M255 -112.583 L255 -112.583 L252.5 -108.253 L257.5 -108.253 L255 -112.583"/>
<path d="M250 -103.923 L250 -103.923 L255 -103.923 L252.5 -108.253 L250 -103.923"/>
<path d="M250 -121.244 L250 -121.244 L247.5 -116.913 L252.5 -116.913 L250 -121.244"/>
<path d="M245 -112.583 L245 -112.583 L250 -112.583 L247.5 -116.913 L245 -112.583"/>
<path d="M255 -112.583 L255 -112.583 L252.5 -116.913 L250 -112.583 L255 -112.583"/>
<path d="M240 -103.923 L240 -103.923 L245 -103.923 L242.5 -108.253 L240 -103.923"/>
<path d="M250 -103.923 L250 -103.923 L247.5 -108.253 L245 -103.923 L250 -103.923"/>
<path d="M245 -112.583 L245 -112.583 L242.5 -108.253 L247.5 -108.253 L245 -112.583"/>
<path d="M200 -69.282 L200 -69.282 L205 -69.282 L202.5 -73.6122 L200 -69.282"/>
<path d="M210 -69.282 L210 -69.282 L207.5 -73.6122 L205 -69.282 L210 -69.282"/>
<path d="M205 -77.9423 L205 -77.9423 L202.5 -73.6122 L207.5 -73.6122 L205 -77.9423"/>
<path d="M220 -69.282 L220 -69.282 L217.5 -73.6122 L215 -69.282 L220 -69.282"/>
<path d="M215 -77.9423 L215 -77.9423 L212.5 -73.6122 L217.5 -73.6122 L215 -77.9423"/>
<path d="M210 -69.282 L210 -69.282 L215 -69.282 L212.5 -73.6122 L210 -69.282"/>
<path d="M210 -86.6025 L210 -86.6025 L207.5 -82.2724 L212.5 -82.2724 L210 -86.6025"/>
<path d="M205 -77.9423 L205 -77.9423 L210 -77.9423 L207.5 -82.2724 L205 -77.9423"/>
<path d="M215 -77.9423 L215 -77.9423 L212.5 -82.2724 L210 -77.9423 L215 -77.9423"/>
<path d="M240 -69.282 L240 -69.282 L237.5 -73.6122 L235 -69.282 L240 -69.282"/>
<path d="M235 -77.9423 L235 -77.9423 L232.5 -73.6122 L237.5 -73.6122 L235 -77.9423"/>
<path d="M230 -69.282 L230 -69.282 L235 -69.282 L232.5 -73.6122 L230 -69.282"/>
<path d="M230 -86.6025 L230 -86.6025 L227.5 -82.2724 L232.5 -82.2724 L230 -86.6025"/>
<path d="M225 -77.9423 L225 -77.9423 L230 -77.9423 L227.5 -82.2724 L225 -77.9423"/>
<path d="M235 -77.9423 L235 -77.9423 L232.5 -82.2724 L230 -77.9423 L235 -77.9423"/>
<path d="M220 -69.282 L220 -69.282 L225 -69.282 L222.5 -73.6122 L220 -69.282"/>
<path d="M230 -69.282 L230 -69.282 L227.5 -73.6122 L225 -69.282 L230 -69.282"/>
<path d="M225 -77.9423 L225 -77.9423 L222.5 -73.6122 L227.5 -73.6122 L225 -77.9423"/>
<path d="M220 -103.923 L220 -103.923 L217.5 -99.5929 L222.5 -99.5929 L220 -103.923"/>
<path d="M215 -95.2628 L215 -95.2628 L220 -95.2628 L217.5 -99.5929 L215 -95.2628"/>
<path d="M225 -95.2628 L225 -95.2628 L222.5 -99.5929 L220 -95.2628 L225 -95.2628"/>
<path d="M210 -86.6025 L210 -86.6025 L215 -86.6025 L212.5 -90.9327 L210 -86.6025"/>
<path d="M220 -86.6025 L220 -86.6025 L217.5 -90.9327 L215 -86.6025 L220 -86.6025"/>
<path d="M215 -95.2628 L215 -95.2628 L212.5 -90.9327 L217.5 -90.9327 L215 -95.2628"/>
<path d="M230 -86.6025 L230 -86.6025 L227.5 -90.9327 L225 -86.6025 L230 -86.6025"/>
<path d="M225 -95.2628 L225 -95.2628 L222.5 -90.9327 L227.5 -90.9327 L225 -95.2628"/>
<path d="M220 -86.6025 L220 -86.6025 L225 -86.6025 L222.5 -90.9327 L220 -86.6025"/>
<path d="M280 -69.282 L280 -69.282 L277.5 -73.6122 L275 -69.282 L280 -69.282"/>
<path d="M275 -77.9423 L275 -77.9423 L272.5 -73.6122 L277.5 -73.6122 L275 -77.9423"/>
<path d="M270 -69.282 L270 -69.282 L275 -69.282 L272.5 -73.6122 L270 -69.282"/>
<path d="M270 -86.6025 L270 -86.6025 L267.5 -82.2724 L272.5 -82.2724 L270 -86.6025"/>
<path d="M265 -77.9423 L265 -77.9423 L270 -77.9423 L267.5 -82.2724 L265 -77.9423"/>
<path d="M275 -77.9423 L275 -77.9423 L272.5 -82.2724 L270 -77.9423 L275 -77.9423"/>
<path d="M260 -69.282 L260 -69.282 L265 -69.282 L262.5 -73.6122 L260 -69.282"/>
<path d="M270 -69.282 L270 -69.282 L267.5 -73.6122 L265 -69.282 L270 -69.282"/>
<path d="M265 -77.9423 L265 -77.9423 L262.5 -73.6122 L267.5 -73.6122 L265 -77.9423"/>
<path d="M260 -103.923 L260 -103.923 L257.5 -99.5929 L262.5 -99.5929 L260 -103.923"/>
<path d="M255 -95.2628 L255 -95.2628 L260 -95.2628 L257.5 -99.5929 L255 -95.2628"/>
<path d="M265 -95.2628 L265 -95.2628 L262.5 -99.5929 L260 -95.2628 L265 -95.2628"/>
<path d="M250 -86.6025 L250 -86.6025 L255 -86.6025 L252.5 -90.9327 L250 -86.6025"/>
<path d="M260 -86.6025 L260 -86.6025 L257.5 -90.9327 L255 -86.6025 L260 -86.6025"/>
<path d="M255 -95.2628 L255 -95.2628 L252.5 -90.9327 L257.5 -90.9327 L255 -95.2628"/>
<path d="M270 -86.6025 L270 -86.6025 L267.5 -90.9327 L265 -86.6025 L270 -86.6025"/>
<path d="M265 -95.2628 L265 -95.2628 L262.5 -90.9327 L267.5 -90.9327 L265 -95.2628"/>
<path d="M260 -86.6025 L260 -86.6025 L265 -86.6025 L262.5 -90.9327 L260 -86.6025"/>
<path d="M240 -69.282 L240 -69.282 L245 -69.282 L242.5 -73.6122 L240 -69.282"/>
<path d="M250 -69.282 L250 -69.282 L247.5 -73.6122 L245 -69.282 L250 -69.282"/>
<path d="M245 -77.9423 L245 -77.9423 L242.5 -73.6122 L247.5 -73.6122 L245 -77.9423"/>
<path d="M260 -69.282 L260 -69.282 L257.5 -73.6122 L255 -69.282 L260 -69.282"/>
<path d="M255 -77.9423 L255 -77.9423 L252.5 -73.6122 L257.5 -73.6122 L255 -77.9423"/>
<path d="M250 -69.282 L250 -69.282 L255 -69.282 L252.5 -73.6122 L250 -69.282"/>
<path d="M250 -86.6025 L250 -86.6025 L247.5 -82.2724 L252.5 -82.2724 L250 -86.6025"/>
<path d="M245 -77.9423 L245 -77.9423 L250 -77.9423 L247.5 -82.2724 L245 -77.9423"/>
<path d="M255 -77.9423 L255 -77.9423 L252.5 -82.2724 L250 -77.9423 L255 -77.9423"/>
<path d="M160 3.63798e-12 L160 3.63798e-12 L165 5.65148e-12 L162.5 -4.33013 L160 3.63709e-12"/>
<path d="M170 7.66942e-12 L170 7.66942e-12 L167.5 -4.33013 L165 5.65148e-12 L170 7.67075e-12"/>
<path d="M165 -8.66025 L165 -8.66025 L162.5 -4.33013 L167.5 -4.33013 L165 -8.66025"/>
<path d="M180 1.17346e-11 L180 1.17346e-11 L177.5 -4.33013 L175 9.70601e-12 L180 1.17364e-11"/>
<path d="M175 -8.66025 L175 -8.66025 L172.5 -4.33013 L177.5 -4.33013 L175 -8.66025"/>
<path d="M170 7.66853e-12 L170 7.66853e-12 L175 9.70601e-12 L172.5 -4.33013 L170 7.66676e-12"/>
<path d="M170 -17.3205 L170 -17.3205 L167.5 -12.9904 L172.5 -12.9904 L170 -17.3205"/>
<path d="M165 -8.66025 L165 -8.66025 L170 -8.66025 L167.5 -12.9904 L165 -8.66025"/>
<path d="M175 -8.66025 L175 -8.66025 L172.5 -12.9904 L170 -8.66025 L175 -8.66025"/>
<path d="M200 2.00053e-11 L200 2.00053e-11 L197.5 -4.33013 L195 1.79465e-11 L200 2.00062e-11"/>
<path d="M195 -8.66025 L195 -8.66025 L192.5 -4.33013 L197.5 -4.33013 L195 -8.66025"/>
<path d="M190 1.58824e-11 L190 1.58824e-11 L195 1.79479e-11 L192.5 -4.33013 L190 1.58797e-11"/>
<path d="M190 -17.3205 L190 -17.3205 L187.5 -12.9904 L192.5 -12.9904 L190 -17.3205"/>
<path d="M185 -8.66025 L185 -8.66025 L190 -8.66025 L187.5 -12.9904 L185 -8.66025"/>
<path d="M195 -8.66025 L195 -8.66025 L192.5 -12.9904 L190 -8.66025 L195 -8.66025"/>
<path d="M180 1.16991e-11 L180 1.16991e-11 L185 1.37867e-11 L182.5 -4.33013 L180 1.16982e-11"/>
<path d="M190 1.58797e-11 L190 1.58797e-11 L187.5 -4.33013 L185 1.37881e-11 L190 1.58811e-11"/>
<path d="M185 -8.66025 L185 -8.66025 L182.5 -4.33013 L187.5 -4.33013 L185 -8.66025"/>
<path d="M180 -34.641 L180 -34.641 L177.5 -30.3109 L182.5 -30.3109 L180 -34.641"/>
<path d="M175 -25.9808 L175 -25.9808 L180 -25.9808 L177.5 -30.3109 L175 -25.9808"/>
<path d="M185 -25.9808 L185 -25.9808 L182.5 -30.3109 L180 -25.9808 L185 -25.9808"/>
<path d="M170 -17.3205 L170 -17.3205 L175 -17.3205 L172.5 -21.6506 L170 -17.3205"/>
<path d="M180 -17.3205 L180 -17.3205 L177.5 -21.6506 L175 -17.3205 L180 -17.3205"/>
<path d="M175 -25.9808 L175 -25.9808 L172.5 -21.6506 L177.5 -21.6506 L175 -25.9808"/>
<path d="M190 -17.3205 L190 -17.3205 L187.5 -21.6506 L185 -17.3205 L190 -17.3205"/>
<path d="M185 -25.9808 L185 -25.9808 L182.5 -21.6506 L187.5 -21.6506 L185 -25.9808"/>
<path d="M180 -17.3205 L180 -17.3205 L185 -17.3205 L182.5 -21.6506 L180 -17.3205"/>
<path d="M240 3.74403e-11 L240 3.74403e-11 L237.5 -4.33013 L235 3.52927e-11 L240 3.7442e-11"/>
<path d="M235 -8.66025 L235 -8.66025 L232.5 -4.33013 L237.5 -4.33013 L235 -8.66025"/>
<path d="M230 3.31362e-11 L230 3.31362e-11 L235 3.52918e-11 L232.5 -4.33013 L230 3.31344e-11"/>
<path d="M230 -17.3205 L230 -17.3205 L227.5 -12.9904 L232.5 -12.9904 L230 -17.3205"/>
<path d="M225 -8.66025 L225 -8.66025 L230 -8.66025 L227.5 -12.9904 L225 -8.66025"/>
<path d="M235 -8.66025 L235 -8.66025 L232.5 -12.9904 L230 -8.66025 L235 -8.66025"/>
<path d="M220 2.87823e-11 L220 2.87823e-11 L225 3.09583e-11 L222.5 -4.33013 L220 2.87788e-11"/>
<path d="M230 3.31397e-11 L230 3.31397e-11 L227.5 -4.33013 L225 3.09575e-11 L230 3.31415e-11"/>
<path d="M225 -8.66025 L225 -8.66025 L222.5 -4.33013 L227.5 -4.33013 L225 -8.66025"/>
<path d="M220 -34.641 L220 -34.641 L217.5 -30.3109 L222.5 -30.3109 L220 -34.641"/>
<path d="M215 -25.9808 L215 -25.9808 L220 -25.9808 L217.5 -30.3109 L215 -25.9808"/>
<path d="M225 -25.9808 L225 -25.9808 L222.5 -30.3109 L220 -25.9808 L225 -25.9808"/>
<path d="M210 -17.3205 L210 -17.3205 L215 -17.3205 L212.5 -21.6506 L210 -17.3205"/>
<path d="M220 -17.3205 L220 -17.3205 L217.5 -21.6506 L215 -17.3205 L220 -17.3205"/>
<path d="M215 -25.9808 L215 -25.9808 L212.5 -21.6506 L217.5 -21.6506 L215 -25.9808"/>
<path d="M230 -17.3205 L230 -17.3205 L227.5 -21.6506 L225 -17.3205 L230 -17.3205"/>
<path d="M225 -25.9808 L225 -25.9808 L222.5 -21.6506 L227.5 -21.6506 L225 -25.9808"/>
<path d="M220 -17.3205 L220 -17.3205 L225 -17.3205 L222.5 -21.6506 L220 -17.3205"/>
<path d="M200 1.98295e-11 L200 1.98295e-11 L205 2.20659e-11 L202.5 -4.33013 L200 1.98277e-11"/>
<path d="M210 2.43077e-11 L210 2.43077e-11 L207.5 -4.33013 L205 2.20659e-11 L210 2.43094e-11"/>
<path d="M205 -8.66025 L205 -8.66025 L202.5 -4.33013 L207.5 -4.33013 L205 -8.66025"/>
<path d="M220 2.88143e-11 L220 2.88143e-11 L217.5 -4.33013 L215 2.65636e-11 L220 2.88161e-11"/>
<path d="M215 -8.66025 L215 -8.66025 L212.5 -4.33013 L217.5 -4.33013 L215 -8.66025"/>
<path d="M210 2.43041e-11 L210 2.43041e-11 L215 2.65628e-11 L212.5 -4.33013 L210 2.43032e-11"/>
<path d="M210 -17.3205 L210 -17.3205 L207.5 -12.9904 L212.5 -12.9904 L210 -17.3205"/>
<path d="M205 -8.66025 L205 -8.66025 L210 -8.66025 L207.5 -12.9904 L205 -8.66025"/>
<path d="M215 -8.66025 L215 -8.66025 L212.5 -12.9904 L210 -8.66025 L215 -8.66025"/>
<path d="M200 -69.282 L200 -69.282 L197.5 -64.9519 L202.5 -64.9519 L200 -69.282"/>
<path d="M195 -60.6218 L195 -60.6218 L200 -60.6218 L197.5 -64.9519 L195 -60.6218"/>
<path d="M205 -60.6218 L205 -60.6218 L202.5 -64.9519 L200 -60.6218 L205 -60.6218"/>
<path d="M190 -51.9615 L190 -51.9615 L195 -51.9615 L192.5 -56.2917 L190 -51.9615"/>
<path d="M200 -51.9615 L200 -51.9615 L197.5 -56.2917 L195 -51.9615 L200 -51.9615"/>
<path d="M195 -60.6218 L195 -60.6218 L192.5 -56.2917 L197.5 -56.2917 L195 -60.6218"/>
<path d="M210 -51.9615 L210 -51.9615 L207.5 -56.2917 L205 -51.9615 L210 -51.9615"/>
<path d="M205 -60.6218 L205 -60.6218 L202.5 -56.2917 L207.5 -56.2917 L205 -60.6218"/>
<path d="M200 -51.9615 L200 -51.9615 L205 -51.9615 L202.5 -56.2917 L200 -51.9615"/>
<path d="M180 -34.641 L180 -34.641 L185 -34.641 L182.5 -38.9711 L180 -34.641"/>
<path d="M190 -34.641 L190 -34.641 L187.5 -38.9711 L185 -34.641 L190 -34.641"/>
<path d="M185 -43.3013 L185 -43.3013 L182.5 -38.9711 L187.5 -38.9711 L185 -43.3013"/>
<path d="M200 -34.641 L200 -34.641 L197.5 -38.9711 L195 -34.641 L200 -34.641"/>
<path d="M195 -43.3013 L195 -43.3013 L192.5 -38.9711 L197.5 -38.9711 L195 -43.3013"/>
<path d="M190 -34.641 L190 -34.641 L195 -34.641 L192.5 -38.9711 L190 -34.641"/>
<path d="M190 -51.9615 L190 -51.9615 L187.5 -47.6314 L192.5 -47.6314 L190 -51.9615"/>
<path d="M185 -43.3013 L185 -43.3013 L190 -43.3013 L187.5 -47.6314 L185 -43.3013"/>
<path d="M195 -43.3013 L195 -43.3013 L192.5 -47.6314 L190 -43.3013 L195 -43.3013"/>
<path d="M220 -34.641 L220 -34.641 L217.5 -38.9711 L215 -34.641 L220 -34.641"/>
<path d="M215 -43.3013 L215 -43.3013 L212.5 -38.9711 L217.5 -38.9711 L215 -43.3013"/>
<path d="M210 -34.641 L210 -34.641 L215 -34.641 L212.5 -38.9711 L210 -34.641"/>
<path d="M210 -51.9615 L210 -51.9615 L207.5 -47.6314 L212.5 -47.6314 L210 -51.9615"/>
<path d="M205 -43.3013 L205 -43.3013 L210 -43.3013 L207.5 -47.6314 L205 -43.3013"/>
<path d="M215 -43.3013 L215 -43.3013 L212.5 -47.6314 L210 -43.3013 L215 -43.3013"/>
<path d="M200 -34.641 L200 -34.641 L205 -34.641 L202.5 -38.9711 L200 -34.641"/>
<path d="M210 -34.641 L210 -34.641 L207.5 -38.9711 L205 -34.641 L210 -34.641"/>
<path d="M205 -43.3013 L205 -43.3013 L202.5 -38.9711 L207.5 -38.9711 L205 -43.3013"/>
<path d="M160 -277.128 L160 -277.128 L157.5 -272.798 L162.5 -272.798 L160 -277.128"/>
<path d="M155 -268.468 L155 -268.468 L160 -268.468 L157.5 -272.798 L155 -268.468"/>
<path d="M165 -268.468 L165 -268.468 L162.5 -272.798 L160 -268.468 L165 -268.468"/>
<path d="M150 -259.808 L150 -259.808 L155 -259.808 L152.5 -264.138 L150 -259.808"/>
<path d="M160 -259.808 L160 -259.808 L157.5 -264.138 L155 -259.808 L160 -259.808"/>
<path d="M155 -268.468 L155 -268.468 L152.5 -264.138 L157.5 -264.138 L155 -268.468"/>
<path d="M170 -259.808 L170 -259.808 L167.5 -264.138 L165 -259.808 L170 -259.808"/>
<path d="M165 -268.468 L165 -268.468 L162.5 -264.138 L167.5 -264.138 L165 -268.468"/>
<path d="M160 -259.808 L160 -259.808 L165 -259.808 L162.5 -264.138 L160 -259.808"/>
<path d="M140 -242.487 L140 -242.487 L145 -242.487 L142.5 -246.817 L140 -242.487"/>
<path d="M150 -242.487 L150 -242.487 L147.5 -246.817 L145 -242.487 L150 -242.487"/>
<path d="M145 -251.147 L145 -251.147 L142.5 -246.817 L147.5 -246.817 L145 -251.147"/>
<path d="M160 -242.487 L160 -242.487 L157.5 -246.817 L155 -242.487 L160 -242.487"/>
<path d="M155 -251.147 L155 -251.147 L152.5 -246.817 L157.5 -246.817 L155 -251.147"/>
<path d="M150 -242.487 L150 -242.487 L155 -242.487 L152.5 -246.817 L150 -242.487"/>
<path d="M150 -259.808 L150 -259.808 L147.5 -255.477 L152.5 -255.477 L150 -259.808"/>
<path d="M145 -251.147 L145 -251.147 L150 -251.147 L147.5 -255.477 L145 -251.147"/>
<path d="M155 -251.147 L155 -251.147 L152.5 -255.477 L150 -251.147 L155 -251.147"/>
<path d="M180 -242.487 L180 -242.487 L177.5 -246.817 L175 -242.487 L180 -242.487"/>
<path d="M175 -251.147 L175 -251.147 L172.5 -246.817 L177.5 -246.817 L175 -251.147"/>
<path d="M170 -242.487 L170 -242.487 L175 -242.487 L172.5 -246.817 L170 -242.487"/>
<path d="M170 -259.808 L170 -259.808 L167.5 -255.477 L172.5 -255.477 L170 -259.808"/>
<path d="M165 -251.147 L165 -251.147 L170 -251.147 L167.5 -255.477 L165 -251.147"/>
<path d="M175 -251.147 L175 -251.147 L172.5 -255.477 L170 -251.147 L175 -251.147"/>
<path d="M160 -242.487 L160 -242.487 L165 -242.487 L162.5 -246.817 L160 -242.487"/>
<path d="M170 -242.487 L170 -242.487 L167.5 -246.817 L165 -242.487 L170 -242.487"/>
<path d="M165 -251.147 L165 -251.147 L162.5 -246.817 L167.5 -246.817 L165 -251.147"/>
<path d="M120 -207.846 L120 -207.846 L125 -207.846 L122.5 -212.176 L120 -207.846"/>
<path d="M130 -207.846 L130 -207.846 L127.5 -212.176 L125 -207.846 L130 -207.846"/>
<path d="M125 -216.506 L125 -216.506 L122.5 -212.176 L127.5 -212.176 L125 -216.506"/>
<path d="M140 -207.846 L140 -207.846 L137.5 -212.176 L135 -207.846 L140 -207.846"/>
<path d="M135 -216.506 L135 -216.506 L132.5 -212.176 L137.5 -212.176 L135 -216.506"/>
<path d="M130 -207.846 L130 -207.846 L135 -207.846 L132.5 -212.176 L130 -207.846"/>
<path d="M130 -225.167 L130 -225.167 L127.5 -220.836 L132.5 -220.836 L130 -225.167"/>
<path d="M125 -216.506 L125 -216.506 L130 -216.506 L127.5 -220.836 L125 -216.506"/>
<path d="M135 -216.506 L135 -216.506 L132.5 -220.836 L130 -216.506 L135 -216.506"/>
<path d="M160 -207.846 L160 -207.846 L157.5 -212.176 L155 -207.846 L160 -207.846"/>
<path d="M155 -216.506 L155 -216.506 L152.5 -212.176 L157.5 -212.176 L155 -216.506"/>
<path d="M150 -207.846 L150 -207.846 L155 -207.846 L152.5 -212.176 L150 -207.846"/>
<path d="M150 -225.167 L150 -225.167 L147.5 -220.836 L152.5 -220.836 L150 -225.167"/>
<path d="M145 -216.506 L145 -216.506 L150 -216.506 L147.5 -220.836 L145 -216.506"/>
<path d="M155 -216.506 L155 -216.506 L152.5 -220.836 L150 -216.506 L155 -216.506"/>
<path d="M140 -207.846 L140 -207.846 L145 -207.846 L142.5 -212.176 L140 -207.846"/>
<path d="M150 -207.846 L150 -207.846 L147.5 -212.176 L145 -207.846 L150 -207.846"/>
<path d="M145 -216.506 L145 -216.506 L142.5 -212.176 L147.5 -212.176 L145 -216.506"/>
<path d="M140 -242.487 L140 -242.487 L137.5 -238.157 L142.5 -238.157 L140 -242.487"/>
<path d="M135 -233.827 L135 -233.827 L140 -233.827 L137.5 -238.157 L135 -233.827"/>
<path d="M145 -233.827 L145 -233.827 L142.5 -238.157 L140 -233.827 L145 -233.827"/>
<path d="M130 -225.167 L130 -225.167 L135 -225.167 L132.5 -229.497 L130 -225.167"/>
<path d="M140 -225.167 L140 -225.167 L137.5 -229.497 L135 -225.167 L140 -225.167"/>
<path d="M135 -233.827 L135 -233.827 L132.5 -229.497 L137.5 -229.497 L135 -233.827"/>
<path d="M150 -225.167 L150 -225.167 L147.5 -229.497 L145 -225.167 L150 -225.167"/>
<path d="M145 -233.827 L145 -233.827 L142.5 -229.497 L147.5 -229.497 L145 -233.827"/>
<path d="M140 -225.167 L140 -225.167 L145 -225.167 L142.5 -229.497 L140 -225.167"/>
<path d="M200 -207.846 L200 -207.846 L197.5 -212.176 L195 -207.846 L200 -207.846"/>
<path d="M195 -216.506 L195 -216.506 L192.5 -212.176 L197.5 -212.176 L195 -216.506"/>
<path d="M190 -207.846 L190 -207.846 L195 -207.846 L192.5 -212.176 L190 -207.846"/>
<path d="M190 -225.167 L190 -225.167 L187.5 -220.836 L192.5 -220.836 L190 -225.167"/>
<path d="M185 -216.506 L185 -216.506 L190 -216.506 L187.5 -220.836 L185 -216.506"/>
<path d="M195 -216.506 L195 -216.506 L192.5 -220.836 L190 -216.506 L195 -216.506"/>
<path d="M180 -207.846 L180 -207.846 L185 -207.846 L182.5 -212.176 L180 -207.846"/>
<path d="M190 -207.846 L190 -207.846 L187.5 -212.176 L185 -207.846 L190 -207.846"/>
<path d="M185 -216.506 L185 -216.506 L182.5 -212.176 L187.5 -212.176 L185 -216.506"/>
<path d="M180 -242.487 L180 -242.487 L177.5 -238.157 L182.5 -238.157 L180 -242.487"/>
<path d="M175 -233.827 L175 -233.827 L180 -233.827 L177.5 -238.157 L175 -233.827"/>
<path d="M185 -233.827 L185 -233.827 L182.5 -238.157 L180 -233.827 L185 -233.827"/>
<path d="M170 -225.167 L170 -225.167 L175 -225.167 L172.5 -229.497 L170 -225.167"/>
<path d="M180 -225.167 L180 -225.167 L177.5 -229.497 L175 -225.167 L180 -225.167"/>
<path d="M175 -233.827 L175 -233.827 L172.5 -229.497 L177.5 -229.497 L175 -233.827"/>
<path d="M190 -225.167 L190 -225.167 L187.5 -229.497 L185 -225.167 L190 -225.167"/>
<path d="M185 -233.827 L185 -233.827 L182.5 -229.497 L187.5 -229.497 L185 -233.827"/>
<path d="M180 -225.167 L180 -225.167 L185 -225.167 L182.5 -229.497 L180 -225.167"/>
<path d="M160 -207.846 L160 -207.846 L165 -207.846 L162.5 -212.176 L160 -207.846"/>
<path d="M170 -207.846 L170 -207.846 L167.5 -212.176 L165 -207.846 L170 -207.846"/>
<path d="M165 -216.506 L165 -216.506 L162.5 -212.176 L167.5 -212.176 L165 -216.506"/>
<path d="M180 -207.846 L180 -207.846 L177.5 -212.176 L175 -207.846 L180 -207.846"/>
<path d="M175 -216.506 L175 -216.506 L172.5 -212.176 L177.5 -212.176 L175 -216.506"/>
<path d="M170 -207.846 L170 -207.846 L175 -207.846 L172.5 -212.176 L170 -207.846"/>
<path d="M170 -225.167 L170 -225.167 L167.5 -220.836 L172.5 -220.836 L170 -225.167"/>
<path d="M165 -216.506 L165 -216.506 L170 -216.506 L167.5 -220.836 L165 -216.506"/>
<path d="M175 -216.506 L175 -216.506 L172.5 -220.836 L170 -216.506 L175 -216.506"/>
<path d="M80 -138.564 L80 -138.564 L85 -138.564 L82.5 -142.894 L80 -138.564"/>
<path d="M90 -138.564 L90 -138.564 L87.5 -142.894 L85 -138.564 L90 -138.564"/>
<path d="M85 -147.224 L85 -147.224 L82.5 -142.894 L87.5 -142.894 L85 -147.224"/>
<path d="M100 -138.564 L100 -138.564 L97.5 -142.894 L95 -138.564 L100 -138.564"/>
<path d="M95 -147.224 L95 -147.224 L92.5 -142.894 L97.5 -142.894 L95 -147.224"/>
<path d="M90 -138.564 L90 -138.564 L95 -138.564 L92.5 -142.894 L90 -138.564"/>
<path d="M90 -155.885 L90 -155.885 L87.5 -151.554 L92.5 -151.554 L90 -155.885"/>
<path d="M85 -147.224 L85 -147.224 L90 -147.224 L87.5 -151.554 L85 -147.224"/>
<path d="M95 -147.224 L95 -147.224 L92.5 -151.554 L90 -147.224 L95 -147.224"/>
<path d="M120 -138.564 L120 -138.564 L117.5 -142.894 L115 -138.564 L120 -138.564"/>
<path d="M115 -147.224 L115 -147.224 L112.5 -142.894 L117.5 -142.894 L115 -147.224"/>
<path d="M110 -138.564 L110 -138.564 L115 -138.564 L112.5 -142.894 L110 -138.564"/>
<path d="M110 -155.885 L110 -155.885 L107.5 -151.554 L112.5 -151.554 L110 -155.885"/>
<path d="M105 -147.224 L105 -147.224 L110 -147.224 L107.5 -151.554 L105 -147.224"/>
<path d="M115 -147.224 L115 -147.224 L112.5 -151.554 L110 -147.224 L115 -147.224"/>
<path d="M100 -138.564 L100 -138.564 L105 -138.564 L102.5 -142.894 L100 -138.564"/>
<path d="M110 -138.564 L110 -138.564 L107.5 -142.894 L105 -138.564 L110 -138.564"/>
<path d="M105 -147.224 L105 -147.224 L102.5 -142.894 L107.5 -142.894 L105 -147.224"/>
<path d="M100 -173.205 L100 -173.205 L97.5 -168.875 L102.5 -168.875 L100 -173.205"/>
<path d="M95 -164.545 L95 -164.545 L100 -164.545 L97.5 -168.875 L95 -164.545"/>
<path d="M105 -164.545 L105 -164.545 L102.5 -168.875 L100 -164.545 L105 -164.545"/>
<path d="M90 -155.885 L90 -155.885 L95 -155.885 L92.5 -160.215 L90 -155.885"/>
<path d="M100 -155.885 L100 -155.885 L97.5 -160.215 L95 -155.885 L100 -155.885"/>
<path d="M95 -164.545 L95 -164.545 L92.5 -160.215 L97.5 -160.215 L95 -164.545"/>
<path d="M110 -155.885 L110 -155.885 L107.5 -160.215 L105 -155.885 L110 -155.885"/>
<path d="M105 -164.545 L105 -164.545 L102.5 -160.215 L107.5 -160.215 L105 -164.545"/>
<path d="M100 -155.885 L100 -155.885 L105 -155.885 L102.5 -160.215 L100 -155.885"/>
<path d="M160 -138.564 L160 -138.564 L157.5 -142.894 L155 -138.564 L160 -138.564"/>
<path d="M155 -147.224 L155 -147.224 L152.5 -142.894 L157.5 -142.894 L155 -147.224"/>
<path d="M150 -138.564 L150 -138.564 L155 -138.564 L152.5 -142.894 L150 -138.564"/>
<path d="M150 -155.885 L150 -155.885 L147.5 -151.554 L152.5 -151.554 L150 -155.885"/>
<path d="M145 -147.224 L145 -147.224 L150 -147.224 L147.5 -151.554 L145 -147.224"/>
<path d="M155 -147.224 L155 -147.224 L152.5 -151.554 L150 -147.224 L155 -147.224"/>
<path d="M140 -138.564 L140 -138.564 L145 -138.564 L142.5 -142.894 L140 -138.564"/>
<path d="M150 -138.564 L150 -138.564 L147.5 -142.894 L145 -138.564 L150 -138.564"/>
<path d="M145 -147.224 L145 -147.224 L142.5 -142.894 L147.5 -142.894 L145 -147.224"/>
<path d="M140 -173.205 L140 -173.205 L137.5 -168.875 L142.5 -168.875 L140 -173.205"/>
<path d="M135 -164.545 L135 -164.545 L140 -164.545 L137.5 -168.875 L135 -164.545"/>
<path d="M145 -164.545 L145 -164.545 L142.5 -168.875 L140 -164.545 L145 -164.545"/>
<path d="M130 -155.885 L130 -155.885 L135 -155.885 L132.5 -160.215 L130 -155.885"/>
<path d="M140 -155.885 L140 -155.885 L137.5 -160.215 L135 -155.885 L140 -155.885"/>
<path d="M135 -164.545 L135 -164.545 L132.5 -160.215 L137.5 -160.215 L135 -164.545"/>
<path d="M150 -155.885 L150 -155.885 L147.5 -160.215 L145 -155.885 L150 -155.885"/>
<path d="M145 -164.545 L145 -164.545 L142.5 -160.215 L147.5 -160.215 L145 -164.545"/>
<path d="M140 -155.885 L140 -155.885 L145 -155.885 L142.5 -160.215 L140 -155.885"/>
<path d="M120 -138.564 L120 -138.564 L125 -138.564 L122.5 -142.894 L120 -138.564"/>
<path d="M130 -138.564 L130 -138.564 L127.5 -142.894 L125 -138.564 L130 -138.564"/>
<path d="M125 -147.224 L125 -147.224 L122.5 -142.894 L127.5 -142.894 L125 -147.224"/>
<path d="M140 -138.564 L140 -138.564 L137.5 -142.894 L135 -138.564 L140 -138.564"/>
<path d="M135 -147.224 L135 -147.224 L132.5 -142.894 L137.5 -142.894 L135 -147.224"/>
<path d="M130 -138.564 L130 -138.564 L135 -138.564 L132.5 -142.894 L130 -138.564"/>
<path d="M130 -155.885 L130 -155.885 L127.5 -151.554 L132.5 -151.554 L130 -155.885"/>
<path d="M125 -147.224 L125 -147.224 L130 -147.224 L127.5 -151.554 L125 -147.224"/>
<path d="M135 -147.224 L135 -147.224 L132.5 -151.554 L130 -147.224 L135 -147.224"/>
<path d="M120 -207.846 L120 -207.846 L117.5 -203.516 L122.5 -203.516 L120 -207.846"/>
<path d="M115 -199.186 L115 -199.186 L120 -199.186 L117.5 -203.516 L115 -199.186"/>
<path d="M125 -199.186 L125 -199.186 L122.5 -203.516 L120 -199.186 L125 -199.186"/>
<path d="M110 -190.526 L110 -190.526 L115 -190.526 L112.5 -194.856 L110 -190.526"/>
<path d="M120 -190.526 L120 -190.526 L117.5 -194.856 L115 -190.526 L120 -190.526"/>
<path d="M115 -199.186 L115 -199.186 L112.5 -194.856 L117.5 -194.856 L115 -199.186"/>
<path d="M130 -190.526 L130 -190.526 L127.5 -194.856 L125 -190.526 L130 -190.526"/>
<path d="M125 -199.186 L125 -199.186 L122.5 -194.856 L127.5 -194.856 L125 -199.186"/>
<path d="M120 -190.526 L120 -190.526 L125 -190.526 L122.5 -194.856 L120 -190.526"/>
<path d="M100 -173.205 L100 -173.205 L105 -173.205 L102.5 -177.535 L100 -173.205"/>
<path d="M110 -173.205 L110 -173.205 L107.5 -177.535 L105 -173.205 L110 -173.205"/>
<path d="M105 -181.865 L105 -181.865 L102.5 -177.535 L107.5 -177.535 L105 -181.865"/>
<path d="M120 -173.205 L120 -173.205 L117.5 -177.535 L115 -173.205 L120 -173.205"/>
<path d="M115 -181.865 L115 -181.865 L112.5 -177.535 L117.5 -177.535 L115 -181.865"/>
<path d="M110 -173.205 L110 -173.205 L115 -173.205 L112.5 -177.535 L110 -173.205"/>
<path d="M110 -190.526 L110 -190.526 L107.5 -186.195 L112.5 -186.195 L110 -190.526"/>
<path d="M105 -181.865 L105 -181.865 L110 -181.865 L107.5 -186.195 L105 -181.865"/>
<path d="M115 -181.865 L115 -181.865 L112.5 -186.195 L110 -181.865 L115 -181.865"/>
<path d="M140 -173.205 L140 -173.205 L137.5 -177.535 L135 -173.205 L140 -173.205"/>
<path d="M135 -181.865 L135 -181.865 L132.5 -177.535 L137.5 -177.535 L135 -181.865"/>
<path d="M130 -173.205 L130 -173.205 L135 -173.205 L132.5 -177.535 L130 -173.205"/>
<path d="M130 -190.526 L130 -190.526 L127.5 -186.195 L132.5 -186.195 L130 -190.526"/>
<path d="M125 -181.865 L125 -181.865 L130 -181.865 L127.5 -186.195 L125 -181.865"/>
<path d="M135 -181.865 L135 -181.865 L132.5 -186.195 L130 -181.865 L135 -181.865"/>
<path d="M120 -173.205 L120 -173.205 L125 -173.205 L122.5 -177.535 L120 -173.205"/>
<path d="M130 -173.205 L130 -173.205 L127.5 -177.535 L125 -173.205 L130 -173.205"/>
<path d="M125 -181.865 L125 -181.865 L122.5 -177.535 L127.5 -177.535 L125 -181.865"/>
<path d="M240 -138.564 L240 -138.564 L237.5 -142.894 L235 -138.564 L240 -138.564"/>
<path d="M235 -147.224 L235 -147.224 L232.5 -142.894 L237.5 -142.894 L235 -147.224"/>
<path d="M230 -138.564 L230 -138.564 L235 -138.564 L232.5 -142.894 L230 -138.564"/>
<path d="M230 -155.885 L230 -155.885 L227.5 -151.554 L232.5 -151.554 L230 -155.885"/>
<path d="M225 -147.224 L225 -147.224 L230 -147.224 L227.5 -151.554 L225 -147.224"/>
<path d="M235 -147.224 L235 -147.224 L232.5 -151.554 L230 -147.224 L235 -147.224"/>
<path d="M220 -138.564 L220 -138.564 L225 -138.564 L222.5 -142.894 L220 -138.564"/>
<path d="M230 -138.564 L230 -138.564 L227.5 -142.894 L225 -138.564 L230 -138.564"/>
<path d="M225 -147.224 L225 -147.224 L222.5 -142.894 L227.5 -142.894 L225 -147.224"/>
<path d="M220 -173.205 L220 -173.205 L217.5 -168.875 L222.5 -168.875 L220 -173.205"/>
<path d="M215 -164.545 L215 -164.545 L220 -164.545 L217.5 -168.875 L215 -164.545"/>
<path d="M225 -164.545 L225 -164.545 L222.5 -168.875 L220 -164.545 L225 -164.545"/>
<path d="M210 -155.885 L210 -155.885 L215 -155.885 L212.5 -160.215 L210 -155.885"/>
<path d="M220 -155.885 L220 -155.885 L217.5 -160.215 L215 -155.885 L220 -155.885"/>
<path d="M215 -164.545 L215 -164.545 L212.5 -160.215 L217.5 -160.215 L215 -164.545"/>
<path d="M230 -155.885 L230 -155.885 L227.5 -160.215 L225 -155.885 L230 -155.885"/>
<path d="M225 -164.545 L225 -164.545 L222.5 -160.215 L227.5 -160.215 L225 -164.545"/>
<path d="M220 -155.885 L220 -155.885 L225 -155.885 L222.5 -160.215 L220 -155.885"/>
<path d="M200 -138.564 L200 -138.564 L205 -138.564 L202.5 -142.894 L200 -138.564"/>
<path d="M210 -138.564 L210 -138.564 L207.5 -142.894 L205 -138.564 L210 -138.564"/>
<path d="M205 -147.224 L205 -147.224 L202.5 -142.894 L207.5 -142.894 L205 -147.224"/>
<path d="M220 -138.564 L220 -138.564 L217.5 -142.894 L215 -138.564 L220 -138.564"/>
<path d="M215 -147.224 L215 -147.224 L212.5 -142.894 L217.5 -142.894 L215 -147.224"/>
<path d="M210 -138.564 L210 -138.564 L215 -138.564 L212.5 -142.894 L210 -138.564"/>
<path d="M210 -155.885 L210 -155.885 L207.5 -151.554 L212.5 -151.554 L210 -155.885"/>
<path d="M205 -147.224 L205 -147.224 L210 -147.224 L207.5 -151.554 L205 -147.224"/>
<path d="M215 -147.224 L215 -147.224 L212.5 -151.554 L210 -147.224 L215 -147.224"/>
<path d="M200 -207.846 L200 -207.846 L197.5 -203.516 L202.5 -203.516 L200 -207.846"/>
<path d="M195 -199.186 L195 -199.186 L200 -199.186 L197.5 -203.516 L195 -199.186"/>
<path d="M205 -199.186 L205 -199.186 L202.5 -203.516 L200 -199.186 L205 -199.186"/>
<path d="M190 -190.526 L190 -190.526 L195 -190.526 L192.5 -194.856 L190 -190.526"/>
<path d="M200 -190.526 L200 -190.526 L197.5 -194.856 L195 -190.526 L200 -190.526"/>
<path d="M195 -199.186 L195 -199.186 L192.5 -194.856 L197.5 -194.856 L195 -199.186"/>
<path d="M210 -190.526 L210 -190.526 L207.5 -194.856 L205 -190.526 L210 -190.526"/>
<path d="M205 -199.186 L205 -199.186 L202.5 -194.856 L207.5 -194.856 L205 -199.186"/>
<path d="M200 -190.526 L200 -190.526 L205 -190.526 L202.5 -194.856 L200 -190.526"/>
<path d="M180 -173.205 L180 -173.205 L185 -173.205 L182.5 -177.535 L180 -173.205"/>
<path d="M190 -173.205 L190 -173.205 L187.5 -177.535 L185 -173.205 L190 -173.205"/>
<path d="M185 -181.865 L185 -181.865 L182.5 -177.535 L187.5 -177.535 L185 -181.865"/>
<path d="M200 -173.205 L200 -173.205 L197.5 -177.535 L195 -173.205 L200 -173.205"/>
<path d="M195 -181.865 L195 -181.865 L192.5 -177.535 L197.5 -177.535 L195 -181.865"/>
<path d="M190 -173.205 L190 -173.205 L195 -173.205 L192.5 -177.535 L190 -173.205"/>
<path d="M190 -190.526 L190 -190.526 L187.5 -186.195 L192.5 -186.195 L190 -190.526"/>
<path d="M185 -181.865 L185 -181.865 L190 -181.865 L187.5 -186.195 L185 -181.865"/>
<path d="M195 -181.865 L195 -181.865 L192.5 -186.195 L190 -181.865 L195 -181.865"/>
<path d="M220 -173.205 L220 -173.205 L217.5 -177.535 L215 -173.205 L220 -173.205"/>
<path d="M215 -181.865 L215 -181.865 L212.5 -177.535 L217.5 -177.535 L215 -181.865"/>
<path d="M210 -173.205 L210 -173.205 L215 -173.205 L212.5 -177.535 L210 -173.205"/>
<path d="M210 -190.526 L210 -190.526 L207.5 -186.195 L212.5 -186.195 L210 -190.526"/>
<path d="M205 -181.865 L205 -181.865 L210 -181.865 L207.5 -186.195 L205 -181.865"/>
<path d="M215 -181.865 L215 -181.865 L212.5 -186.195 L210 -181.865 L215 -181.865"/>
<path d="M200 -173.205 L200 -173.205 L205 -173.205 L202.5 -177.535 L200 -173.205"/>
<path d="M210 -173.205 L210 -173.205 L207.5 -177.535 L205 -173.205 L210 -173.205"/>
<path d="M205 -181.865 L205 -181.865 L202.5 -177.535 L207.5 -177.535 L205 -181.865"/>
<path d="M160 -138.564 L160 -138.564 L165 -138.564 L162.5 -142.894 L160 -138.564"/>
<path d="M170 -138.564 L170 -138.564 L167.5 -142.894 L165 -138.564 L170 -138.564"/>
<path d="M165 -147.224 L165 -147.224 L162.5 -142.894 L167.5 -142.894 L165 -147.224"/>
<path d="M180 -138.564 L180 -138.564 L177.5 -142.894 L175 -138.564 L180 -138.564"/>
<path d="M175 -147.224 L175 -147.224 L172.5 -142.894 L177.5 -142.894 L175 -147.224"/>
<path d="M170 -138.564 L170 -138.564 L175 -138.564 L172.5 -142.894 L170 -138.564"/>
<path d="M170 -155.885 L170 -155.885 L167.5 -151.554 L172.5 -151.554 L170 -155.885"/>
<path d="M165 -147.224 L165 -147.224 L170 -147.224 L167.5 -151.554 L165 -147.224"/>
<path d="M175 -147.224 L175 -147.224 L172.5 -151.554 L170 -147.224 L175 -147.224"/>
<path d="M200 -138.564 L200 -138.564 L197.5 -142.894 L195 -138.564 L200 -138.564"/>
<path d="M195 -147.224 L195 -147.224 L192.5 -142.894 L197.5 -142.894 L195 -147.224"/>
<path d="M190 -138.564 L190 -138.564 L195 -138.564 L192.5 -142.894 L190 -138.564"/>
<path d="M190 -155.885 L190 -155.885 L187.5 -151.554 L192.5 -151.554 L190 -155.885"/>
<path d="M185 -147.224 L185 -147.224 L190 -147.224 L187.5 -151.554 L185 -147.224"/>
<path d="M195 -147.224 L195 -147.224 L192.5 -151.554 L190 -147.224 L195 -147.224"/>
<path d="M180 -138.564 L180 -138.564 L185 -138.564 L182.5 -142.894 L180 -138.564"/>
<path d="M190 -138.564 L190 -138.564 L187.5 -142.894 L185 -138.564 L190 -138.564"/>
<path d="M185 -147.224 L185 -147.224 L182.5 -142.894 L187.5 -142.894 L185 -147.224"/>
<path d="M180 -173.205 L180 -173.205 L177.5 -168.875 L182.5 -168.875 L180 -173.205"/>
<path d="M175 -164.545 L175 -164.545 L180 -164.545 L177.5 -168.875 L175 -164.545"/>
<path d="M185 -164.545 L185 -164.545 L182.5 -168.875 L180 -164.545 L185 -164.545"/>
<path d="M170 -155.885 L170 -155.885 L175 -155.885 L172.5 -160.215 L170 -155.885"/>
<path d="M180 -155.885 L180 -155.885 L177.5 -160.215 L175 -155.885 L180 -155.885"/>
<path d="M175 -164.545 L175 -164.545 L172.5 -160.215 L177.5 -160.215 L175 -164.545"/>
<path d="M190 -155.885 L190 -155.885 L187.5 -160.215 L185 -155.885 L190 -155.885"/>
<path d="M185 -164.545 L185 -164.545 L182.5 -160.215 L187.5 -160.215 L185 -164.545"/>
<path d="M180 -155.885 L180 -155.885 L185 -155.885 L182.5 -160.215 L180 -155.885"/>
</svg>
