<?xml version="1.0" encoding="UTF-8"?>
<svg xmlns="http://www.w3.org/2000/svg"
 version="1.1" baseProfile="basic"
 viewBox="-11 -149 181 160"
 width="1280px" height="1024px"
 stroke="white" stroke-width="1px"
 fill="black" fill-opacity="0">
<rect x="-11" y="-149" width="181" height="160" stroke-width="0px" fill-opacity="1"/>
<path d="M0 0 L0 0 L5 0 L2.5 -4.33013 L-8.88178e-16 -1.77636e-15"/>
<path d="M10 5.32907e-15 L10 5.32907e-15 L7.5 -4.33013 L5 0 L10 7.10543e-15"/>
<path d="M5 -8.66025 L5 -8.66025 L2.5 -4.33013 L7.5 -4.33013 L5 -8.66025"/>
<path d="M20 4.44089e-14 L20 4.44089e-14 L17.5 -4.33013 L15 2.84217e-14 L20 4.52971e-14"/>
<path d="M15 -8.66025 L15 -8.66025 L12.5 -4.33013 L17.5 -4.33013 L15 -8.66025"/>
<path d="M10 5.32907e-15 L10 5.32907e-15 L15 2.88658e-14 L12.5 -4.33013 L10 4.44089e-15"/>
<path d="M10 -17.3205 L10 -17.3205 L7.5 -12.9904 L12.5 -12.9904 L10 -17.3205"/>
<path d="M5 -8.66025 L5 -8.66025 L10 -8.66025 L7.5 -12.9904 L5 -8.66025"/>
<path d="M15 -8.66025 L15 -8.66025 L12.5 -12.9904 L10 -8.66025 L15 -8.66025"/>
<path d="M40 2.66454e-13 L40 2.66454e-13 L37.5 -4.33013 L35 2.22045e-13 L40 2.6823e-13"/>
<path d="M35 -8.66025 L35 -8.66025 L32.5 -4.33013 L37.5 -4.33013 L35 -8.66025"/>
<path d="M30 1.68754e-13 L30 1.68754e-13 L35 2.22933e-13 L32.5 -4.33013 L30 1.66978e-13"/>
<path d="M30 -17.3205 L30 -17.3205 L27.5 -12.9904 L32.5 -12.9904 L30 -17.3205"/>
<path d="M25 -8.66025 L25 -8.66025 L30 -8.66025 L27.5 -12.9904 L25 -8.66025"/>
<path d="M35 -8.66025 L35 -8.66025 L32.5 -12.9904 L30 -8.66025 L35 -8.66025"/>
<path d="M20 2.30926e-14 L20 2.30926e-14 L25 9.59233e-14 L22.5 -4.33013 L20 2.13163e-14"/>
<path d="M30 1.74083e-13 L30 1.74083e-13 L27.5 -4.33013 L25 9.68114e-14 L30 1.75415e-13"/>
<path d="M25 -8.66025 L25 -8.66025 L22.5 -4.33013 L27.5 -4.33013 L25 -8.66025"/>
<path d="M20 -34.641 L20 -34.641 L17.5 -30.3109 L22.5 -30.3109 L20 -34.641"/>
<path d="M15 -25.9808 L15 -25.9808 L20 -25.9808 L17.5 -30.3109 L15 -25.9808"/>
<path d="M25 -25.9808 L25 -25.9808 L22.5 -30.3109 L20 -25.9808 L25 -25.9808"/>
<path d="M10 -17.3205 L10 -17.3205 L15 -17.3205 L12.5 -21.6506 L10 -17.3205"/>
<path d="M20 -17.3205 L20 -17.3205 L17.5 -21.6506 L15 -17.3205 L20 -17.3205"/>
<path d="M15 -25.9808 L15 -25.9808 L12.5 -21.6506 L17.5 -21.6506 L15 -25.9808"/>
<path d="M30 -17.3205 L30 -17.3205 L27.5 -21.6506 L25 -17.3205 L30 -17.3205"/>
<path d="M25 -25.9808 L25 -25.9808 L22.5 -21.6506 L27.5 -21.6506 L25 -25.9808"/>
<path d="M20 -17.3205 L20 -17.3205 L25 -17.3205 L22.5 -21.6506 L20 -17.3205"/>
<path d="M80 1.61116e-12 L80 1.61116e-12 L77.5 -4.33013 L75 1.47793e-12 L80 1.61293e-12"/>
<path d="M75 -8.66025 L75 -8.66025 L72.5 -4.33013 L77.5 -4.33013 L75 -8.66025"/>
<path d="M70 1.33582e-12 L70 1.33582e-12 L75 1.47882e-12 L72.5 -4.33013 L70 1.33404e-12"/>
<path d="M70 -17.3205 L70 -17.3205 L67.5 -12.9904 L72.5 -12.9904 L70 -17.3205"/>
<path d="M65 -8.66025 L65 -8.66025 L70 -8.66025 L67.5 -12.9904 L65 -8.66025"/>
<path d="M75 -8.66025 L75 -8.66025 L72.5 -12.9904 L70 -8.66025 L75 -8.66025"/>
<path d="M60 1.00897e-12 L60 1.00897e-12 L65 1.17151e-12 L62.5 -4.33013 L60 1.00808e-12"/>
<path d="M70 1.33848e-12 L70 1.33848e-12 L67.5 -4.33013 L65 1.17151e-12 L70 1.34071e-12"/>
<path d="M65 -8.66025 L65 -8.66025 L62.5 -4.33013 L67.5 -4.33013 L65 -8.66025"/>
<path d="M60 -34.641 L60 -34.641 L57.5 -30.3109 L62.5 -30.3109 L60 -34.641"/>
<path d="M55 -25.9808 L55 -25.9808 L60 -25.9808 L57.5 -30.3109 L55 -25.9808"/>
<path d="M65 -25.9808 L65 -25.9808 L62.5 -30.3109 L60 -25.9808 L65 -25.9808"/>
<path d="M50 -17.3205 L50 -17.3205 L55 -17.3205 L52.5 -21.6506 L50 -17.3205"/>
<path d="M60 -17.3205 L60 -17.3205 L57.5 -21.6506 L55 -17.3205 L60 -17.3205"/>
<path d="M55 -25.9808 L55 -25.9808 L52.5 -21.6506 L57.5 -21.6506 L55 -25.9808"/>
<path d="M70 -17.3205 L70 -17.3205 L67.5 -21.6506 L65 -17.3205 L70 -17.3205"/>
<path d="M65 -25.9808 L65 -25.9808 L62.5 -21.6506 L67.5 -21.6506 L65 -25.9808"/>
<path d="M60 -17.3205 L60 -17.3205 L65 -17.3205 L62.5 -21.6506 L60 -17.3205"/>
<path d="M40 1.29674e-13 L40 1.29674e-13 L45 3.52163e-13 L42.5 -4.33013 L40 1.28786e-13"/>
<path d="M50 5.79092e-13 L50 5.79092e-13 L47.5 -4.33013 L45 3.52607e-13 L50 5.80869e-13"/>
<path d="M45 -8.66025 L45 -8.66025 L42.5 -4.33013 L47.5 -4.33013 L45 -8.66025"/>
<path d="M60 1.05693e-12 L60 1.05693e-12 L57.5 -4.33013 L55 8.20677e-13 L60 1.05871e-12"/>
<path d="M55 -8.66025 L55 -8.66025 L52.5 -4.33013 L57.5 -4.33013 L55 -8.66025"/>
<path d="M50 5.73763e-13 L50 5.73763e-13 L55 8.19345e-13 L52.5 -4.33013 L50 5.71987e-13"/>
<path d="M50 -17.3205 L50 -17.3205 L47.5 -12.9904 L52.5 -12.9904 L50 -17.3205"/>
<path d="M45 -8.66025 L45 -8.66025 L50 -8.66025 L47.5 -12.9904 L45 -8.66025"/>
<path d="M55 -8.66025 L55 -8.66025 L52.5 -12.9904 L50 -8.66025 L55 -8.66025"/>
<path d="M40 -69.282 L40 -69.282 L37.5 -64.9519 L42.5 -64.9519 L40 -69.282"/>
<path d="M35 -60.6218 L35 -60.6218 L40 -60.6218 L37.5 -64.9519 L35 -60.6218"/>
<path d="M45 -60.6218 L45 -60.6218 L42.5 -64.9519 L40 -60.6218 L45 -60.6218"/>
<path d="M30 -51.9615 L30 -51.9615 L35 -51.9615 L32.5 -56.2917 L30 -51.9615"/>
<path d="M40 -51.9615 L40 -51.9615 L37.5 -56.2917 L35 -51.9615 L40 -51.9615"/>
<path d="M35 -60.6218 L35 -60.6218 L32.5 -56.2917 L37.5 -56.2917 L35 -60.6218"/>
<path d="M50 -51.9615 L50 -51.9615 L47.5 -56.2917 L45 -51.9615 L50 -51.9615"/>
<path d="M45 -60.6218 L45 -60.6218 L42.5 -56.2917 L47.5 -56.2917 L45 -60.6218"/>
<path d="M40 -51.9615 L40 -51.9615 L45 -51.9615 L42.5 -56.2917 L40 -51.9615"/>
<path d="M20 -34.641 L20 -34.641 L25 -34.641 L22.5 -38.9711 L20 -34.641"/>
<path d="M30 -34.641 L30 -34.641 L27.5 -38.9711 L25 -34.641 L30 -34.641"/>
<path d="M25 -43.3013 L25 -43.3013 L22.5 -38.9711 L27.5 -38.9711 L25 -43.3013"/>
<path d="M40 -34.641 L40 -34.641 L37.5 -38.9711 L35 -34.641 L40 -34.641"/>
<path d="M35 -43.3013 L35 -43.3013 L32.5 -38.9711 L37.5 -38.9711 L35 -43.3013"/>
<path d="M30 -34.641 L30 -34.641 L35 -34.641 L32.5 -38.9711 L30 -34.641"/>
<path d="M30 -51.9615 L30 -51.9615 L27.5 -47.6314 L32.5 -47.6314 L30 -51.9615"/>
<path d="M25 -43.3013 L25 -43.3013 L30 -43.3013 L27.5 -47.6314 L25 -43.3013"/>
<path d="M35 -43.3013 L35 -43.3013 L32.5 -47.6314 L30 -43.3013 L35 -43.3013"/>
<path d="M60 -34.641 L60 -34.641 L57.5 -38.9711 L55 -34.641 L60 -34.641"/>
<path d="M55 -43.3013 L55 -43.3013 L52.5 -38.9711 L57.5 -38.9711 L55 -43.3013"/>
<path d="M50 -34.641 L50 -34.641 L55 -34.641 L52.5 -38.9711 L50 -34.641"/>
<path d="M50 -51.9615 L50 -51.9615 L47.5 -47.6314 L52.5 -47.6314 L50 -51.9615"/>
<path d="M45 -43.3013 L45 -43.3013 L50 -43.3013 L47.5 -47.6314 L45 -43.3013"/>
<path d="M55 -43.3013 L55 -43.3013 L52.5 -47.6314 L50 -43.3013 L55 -43.3013"/>
<path d="M40 -34.641 L40 -34.641 L45 -34.641 L42.5 -38.9711 L40 -34.641"/>
<path d="M50 -34.641 L50 -34.641 L47.5 -38.9711 L45 -34.641 L50 -34.641"/>
<path d="M45 -43.3013 L45 -43.3013 L42.5 -38.9711 L47.5 -38.9711 L45 -43.3013"/>
<path d="M160 9.72022e-12 L160 9.72022e-12 L157.5 -4.33013 L155 9.31699e-12 L160 9.722e-12"/>
<path d="M155 -8.66025 L155 -8.66025 L152.5 -4.33013 L157.5 -4.33013 L155 -8.66025"/>
<path d="M150 8.90488e-12 L150 8.90488e-12 L155 9.31699e-12 L152.5 -4.33013 L150 8.9031e-12"/>
<path d="M150 -17.3205 L150 -17.3205 L147.5 -12.9904 L152.5 -12.9904 L150 -17.3205"/>
<path d="M145 -8.66025 L145 -8.66025 L150 -8.66025 L147.5 -12.9904 L145 -8.66025"/>
<path d="M155 -8.66025 L155 -8.66025 L152.5 -12.9904 L150 -8.66025 L155 -8.66025"/>
<path d="M140 8.03446e-12 L140 8.03446e-12 L145 8.46612e-12 L142.5 -4.33013 L140 8.03269e-12"/>
<path d="M150 8.90221e-12 L150 8.90221e-12 L147.5 -4.33013 L145 8.46523e-12 L150 8.90399e-12"/>
<path d="M145 -8.66025 L145 -8.66025 L142.5 -4.33013 L147.5 -4.33013 L145 -8.66025"/>
<path d="M140 -34.641 L140 -34.641 L137.5 -30.3109 L142.5 -30.3109 L140 -34.641"/>
<path d="M135 -25.9808 L135 -25.9808 L140 -25.9808 L137.5 -30.3109 L135 -25.9808"/>
<path d="M145 -25.9808 L145 -25.9808 L142.5 -30.3109 L140 -25.9808 L145 -25.9808"/>
<path d="M130 -17.3205 L130 -17.3205 L135 -17.3205 L132.5 -21.6506 L130 -17.3205"/>
<path d="M140 -17.3205 L140 -17.3205 L137.5 -21.6506 L135 -17.3205 L140 -17.3205"/>
<path d="M135 -25.9808 L135 -25.9808 L132.5 -21.6506 L137.5 -21.6506 L135 -25.9808"/>
<path d="M150 -17.3205 L150 -17.3205 L147.5 -21.6506 L145 -17.3205 L150 -17.3205"/>
<path d="M145 -25.9808 L145 -25.9808 L142.5 -21.6506 L147.5 -21.6506 L145 -25.9808"/>
<path d="M140 -17.3205 L140 -17.3205 L145 -17.3205 L142.5 -21.6506 L140 -17.3205"/>
<path d="M120 6.0485e-12 L120 6.0485e-12 L125 6.54055e-12 L122.5 -4.33013 L120 6.04494e-12"/>
<path d="M130 7.03793e-12 L130 7.03793e-12 L127.5 -4.33013 L125 6.53966e-12 L130 7.0397e-12"/>
<path d="M125 -8.66025 L125 -8.66025 L122.5 -4.33013 L127.5 -4.33013 L125 -8.66025"/>
<path d="M140 8.05933e-12 L140 8.05933e-12 L137.5 -4.33013 L135 7.55218e-12 L140 8.06155e-12"/>
<path d="M135 -8.66025 L135 -8.66025 L132.5 -4.33013 L137.5 -4.33013 L135 -8.66025"/>
<path d="M130 7.03793e-12 L130 7.03793e-12 L135 7.55307e-12 L132.5 -4.33013 L130 7.03615e-12"/>
<path d="M130 -17.3205 L130 -17.3205 L127.5 -12.9904 L132.5 -12.9904 L130 -17.3205"/>
<path d="M125 -8.66025 L125 -8.66025 L130 -8.66025 L127.5 -12.9904 L125 -8.66025"/>
<path d="M135 -8.66025 L135 -8.66025 L132.5 -12.9904 L130 -8.66025 L135 -8.66025"/>
<path d="M120 -69.282 L120 -69.282 L117.5 -64.9519 L122.5 -64.9519 L120 -69.282"/>
<path d="M115 -60.6218 L115 -60.6218 L120 -60.6218 L117.5 -64.9519 L115 -60.6218"/>
<path d="M125 -60.6218 L125 -60.6218 L122.5 -64.9519 L120 -60.6218 L125 -60.6218"/>
<path d="M110 -51.9615 L110 -51.9615 L115 -51.9615 L112.5 -56.2917 L110 -51.9615"/>
<path d="M120 -51.9615 L120 -51.9615 L117.5 -56.2917 L115 -51.9615 L120 -51.9615"/>
<path d="M115 -60.6218 L115 -60.6218 L112.5 -56.2917 L117.5 -56.2917 L115 -60.6218"/>
<path d="M130 -51.9615 L130 -51.9615 L127.5 -56.2917 L125 -51.9615 L130 -51.9615"/>
<path d="M125 -60.6218 L125 -60.6218 L122.5 -56.2917 L127.5 -56.2917 L125 -60.6218"/>
<path d="M120 -51.9615 L120 -51.9615 L125 -51.9615 L122.5 -56.2917 L120 -51.9615"/>
<path d="M100 -34.641 L100 -34.641 L105 -34.641 L102.5 -38.9711 L100 -34.641"/>
<path d="M110 -34.641 L110 -34.641 L107.5 -38.9711 L105 -34.641 L110 -34.641"/>
<path d="M105 -43.3013 L105 -43.3013 L102.5 -38.9711 L107.5 -38.9711 L105 -43.3013"/>
<path d="M120 -34.641 L120 -34.641 L117.5 -38.9711 L115 -34.641 L120 -34.641"/>
<path d="M115 -43.3013 L115 -43.3013 L112.5 -38.9711 L117.5 -38.9711 L115 -43.3013"/>
<path d="M110 -34.641 L110 -34.641 L115 -34.641 L112.5 -38.9711 L110 -34.641"/>
<path d="M110 -51.9615 L110 -51.9615 L107.5 -47.6314 L112.5 -47.6314 L110 -51.9615"/>
<path d="M105 -43.3013 L105 -43.3013 L110 -43.3013 L107.5 -47.6314 L105 -43.3013"/>
<path d="M115 -43.3013 L115 -43.3013 L112.5 -47.6314 L110 -43.3013 L115 -43.3013"/>
<path d="M140 -34.641 L140 -34.641 L137.5 -38.9711 L135 -34.641 L140 -34.641"/>
<path d="M135 -43.3013 L135 -43.3013 L132.5 -38.9711 L137.5 -38.9711 L135 -43.3013"/>
<path d="M130 -34.641 L130 -34.641 L135 -34.641 L132.5 -38.9711 L130 -34.641"/>
<path d="M130 -51.9615 L130 -51.9615 L127.5 -47.6314 L132.5 -47.6314 L130 -51.9615"/>
<path d="M125 -43.3013 L125 -43.3013 L130 -43.3013 L127.5 -47.6314 L125 -43.3013"/>
<path d="M135 -43.3013 L135 -43.3013 L132.5 -47.6314 L130 -43.3013 L135 -43.3013"/>
<path d="M120 -34.641 L120 -34.641 L125 -34.641 L122.5 -38.9711 L120 -34.641"/>
<path d="M130 -34.641 L130 -34.641 L127.5 -38.9711 L125 -34.641 L130 -34.641"/>
<path d="M125 -43.3013 L125 -43.3013 L122.5 -38.9711 L127.5 -38.9711 L125 -43.3013"/>
<path d="M80 6.39488e-13 L80 6.39488e-13 L85 1.31095e-12 L82.5 -4.33013 L80 6.37712e-13"/>
<path d="M90 1.98597e-12 L90 1.98597e-12 L87.5 -4.33013 L85 1.31095e-12 L90 1.98774e-12"/>
<path d="M85 -8.66025 L85 -8.66025 L82.5 -4.33013 L87.5 -4.33013 L85 -8.66025"/>
<path d="M100 3.36264e-12 L100 3.36264e-12 L97.5 -4.33013 L95 2.67608e-12 L100 3.36398e-12"/>
<path d="M95 -8.66025 L95 -8.66025 L92.5 -4.33013 L97.5 -4.33013 L95 -8.66025"/>
<path d="M90 1.97886e-12 L90 1.97886e-12 L95 2.67431e-12 L92.5 -4.33013 L90 1.97709e-12"/>
<path d="M90 -17.3205 L90 -17.3205 L87.5 -12.9904 L92.5 -12.9904 L90 -17.3205"/>
<path d="M85 -8.66025 L85 -8.66025 L90 -8.66025 L87.5 -12.9904 L85 -8.66025"/>
<path d="M95 -8.66025 L95 -8.66025 L92.5 -12.9904 L90 -8.66025 L95 -8.66025"/>
<path d="M120 6.25988e-12 L120 6.25988e-12 L117.5 -4.33013 L115 5.54401e-12 L120 6.26166e-12"/>
<path d="M115 -8.66025 L115 -8.66025 L112.5 -4.33013 L117.5 -4.33013 L115 -8.66025"/>
<path d="M110 4.82103e-12 L110 4.82103e-12 L115 5.54401e-12 L112.5 -4.33013 L110 4.81926e-12"/>
<path d="M110 -17.3205 L110 -17.3205 L107.5 -12.9904 L112.5 -12.9904 L110 -17.3205"/>
<path d="M105 -8.66025 L105 -8.66025 L110 -8.66025 L107.5 -12.9904 L105 -8.66025"/>
<path d="M115 -8.66025 L115 -8.66025 L112.5 -12.9904 L110 -8.66025 L115 -8.66025"/>
<path d="M100 3.32712e-12 L100 3.32712e-12 L105 4.07141e-12 L102.5 -4.33013 L100 3.32534e-12"/>
<path d="M110 4.82014e-12 L110 4.82014e-12 L107.5 -4.33013 L105 4.07052e-12 L110 4.82192e-12"/>
<path d="M105 -8.66025 L105 -8.66025 L102.5 -4.33013 L107.5 -4.33013 L105 -8.66025"/>
<path d="M100 -34.641 L100 -34.641 L97.5 -30.3109 L102.5 -30.3109 L100 -34.641"/>
<path d="M95 -25.9808 L95 -25.9808 L100 -25.9808 L97.5 -30.3109 L95 -25.9808"/>
<path d="M105 -25.9808 L105 -25.9808 L102.5 -30.3109 L100 -25.9808 L105 -25.9808"/>
<path d="M90 -17.3205 L90 -17.3205 L95 -17.3205 L92.5 -21.6506 L90 -17.3205"/>
<path d="M100 -17.3205 L100 -17.3205 L97.5 -21.6506 L95 -17.3205 L100 -17.3205"/>
<path d="M95 -25.9808 L95 -25.9808 L92.5 -21.6506 L97.5 -21.6506 L95 -25.9808"/>
<path d="M110 -17.3205 L110 -17.3205 L107.5 -21.6506 L105 -17.3205 L110 -17.3205"/>
<path d="M105 -25.9808 L105 -25.9808 L102.5 -21.6506 L107.5 -21.6506 L105 -25.9808"/>
<path d="M100 -17.3205 L100 -17.3205 L105 -17.3205 L102.5 -21.6506 L100 -17.3205"/>
<path d="M80 -138.564 L80 -138.564 L77.5 -134.234 L82.5 -134.234 L80 -138.564"/>
<path d="M75 -129.904 L75 -129.904 L80 -129.904 L77.5 -134.234 L75 -129.904"/>
<path d="M85 -129.904 L85 -129.904 L82.5 -134.234 L80 -129.904 L85 -129.904"/>
<path d="M70 -121.244 L70 -121.244 L75 -121.244 L72.5 -125.574 L70 -121.244"/>
<path d="M80 -121.244 L80 -121.244 L77.5 -125.574 L75 -121.244 L80 -121.244"/>
<path d="M75 -129.904 L75 -129.904 L72.5 -125.574 L77.5 -125.574 L75 -129.904"/>
<path d="M90 -121.244 L90 -121.244 L87.5 -125.574 L85 -121.244 L90 -121.244"/>
<path d="M85 -129.904 L85 -129.904 L82.5 -125.574 L87.5 -125.574 L85 -129.904"/>
<path d="M80 -121.244 L80 -121.244 L85 -121.244 L82.5 -125.574 L80 -121.244"/>
<path d="M60 -103.923 L60 -103.923 L65 -103.923 L62.5 -108.253 L60 -103.923"/>
<path d="M70 -103.923 L70 -103.923 L67.5 -108.253 L65 -103.923 L70 -103.923"/>
<path d="M65 -112.583 L65 -112.583 L62.5 -108.253 L67.5 -108.253 L65 -112.583"/>
<path d="M80 -103.923 L80 -103.923 L77.5 -108.253 L75 -103.923 L80 -103.923"/>
<path d="M75 -112.583 L75 -112.583 L72.5 -108.253 L77.5 -108.253 L75 -112.583"/>
<path d="M70 -103.923 L70 -103.923 L75 -103.923 L72.5 -108.253 L70 -103.923"/>
<path d="M70 -121.244 L70 -121.244 L67.5 -116.913 L72.5 -116.913 L70 -121.244"/>
<path d="M65 -112.583 L65 -112.583 L70 -112.583 L67.5 -116.913 L65 -112.583"/>
<path d="M75 -112.583 L75 -112.583 L72.5 -116.913 L70 -112.583 L75 -112.583"/>
<path d="M100 -103.923 L100 -103.923 L97.5 -108.253 L95 -103.923 L100 -103.923"/>
<path d="M95 -112.583 L95 -112.583 L92.5 -108.253 L97.5 -108.253 L95 -112.583"/>
<path d="M90 -103.923 L90 -103.923 L95 -103.923 L92.5 -108.253 L90 -103.923"/>
<path d="M90 -121.244 L90 -121.244 L87.5 -116.913 L92.5 -116.913 L90 -121.244"/>
<path d="M85 -112.583 L85 -112.583 L90 -112.583 L87.5 -116.913 L85 -112.583"/>
<path d="M95 -112.583 L95 -112.583 L92.5 -116.913 L90 -112.583 L95 -112.583"/>
<path d="M80 -103.923 L80 -103.923 L85 -103.923 L82.5 -108.253 L80 -103.923"/>
<path d="M90 -103.923 L90 -103.923 L87.5 -108.253 L85 -103.923 L90 -103.923"/>
<path d="M85 -112.583 L85 -112.583 L82.5 -108.253 L87.5 -108.253 L85 -112.583"/>
<path d="M40 -69.282 L40 -69.282 L45 -69.282 L42.5 -73.6122 L40 -69.282"/>
<path d="M50 -69.282 L50 -69.282 L47.5 -73.6122 L45 -69.282 L50 -69.282"/>
<path d="M45 -77.9423 L45 -77.9423 L42.5 -73.6122 L47.5 -73.6122 L45 -77.9423"/>
<path d="M60 -69.282 L60 -69.282 L57.5 -73.6122 L55 -69.282 L60 -69.282"/>
<path d="M55 -77.9423 L55 -77.9423 L52.5 -73.6122 L57.5 -73.6122 L55 -77.9423"/>
<path d="M50 -69.282 L50 -69.282 L55 -69.282 L52.5 -73.6122 L50 -69.282"/>
<path d="M50 -86.6025 L50 -86.6025 L47.5 -82.2724 L52.5 -82.2724 L50 -86.6025"/>
<path d="M45 -77.9423 L45 -77.9423 L50 -77.9423 L47.5 -82.2724 L45 -77.9423"/>
<path d="M55 -77.9423 L55 -77.9423 L52.5 -82.2724 L50 -77.9423 L55 -77.9423"/>
<path d="M80 -69.282 L80 -69.282 L77.5 -73.6122 L75 -69.282 L80 -69.282"/>
<path d="M75 -77.9423 L75 -77.9423 L72.5 -73.6122 L77.5 -73.6122 L75 -77.9423"/>
<path d="M70 -69.282 L70 -69.282 L75 -69.282 L72.5 -73.6122 L70 -69.282"/>
<path d="M70 -86.6025 L70 -86.6025 L67.5 -82.2724 L72.5 -82.2724 L70 -86.6025"/>
<path d="M65 -77.9423 L65 -77.9423 L70 -77.9423 L67.5 -82.2724 L65 -77.9423"/>
<path d="M75 -77.9423 L75 -77.9423 L72.5 -82.2724 L70 -77.9423 L75 -77.9423"/>
<path d="M60 -69.282 L60 -69.282 L65 -69.282 L62.5 -73.6122 L60 -69.282"/>
<path d="M70 -69.282 L70 -69.282 L67.5 -73.6122 L65 -69.282 L70 -69.282"/>
<path d="M65 -77.9423 L65 -77.9423 L62.5 -73.6122 L67.5 -73.6122 L65 -77.9423"/>
<path d="M60 -103.923 L60 -103.923 L57.5 -99.5929 L62.5 -99.5929 L60 -103.923"/>
<path d="M55 -95.2628 L55 -95.2628 L60 -95.2628 L57.5 -99.5929 L55 -95.2628"/>
<path d="M65 -95.2628 L65 -95.2628 L62.5 -99.5929 L60 -95.2628 L65 -95.2628"/>
<path d="M50 -86.6025 L50 -86.6025 L55 -86.6025 L52.5 -90.9327 L50 -86.6025"/>
<path d="M60 -86.6025 L60 -86.6025 L57.5 -90.9327 L55 -86.6025 L60 -86.6025"/>
<path d="M55 -95.2628 L55 -95.2628 L52.5 -90.9327 L57.5 -90.9327 L55 -95.2628"/>
<path d="M70 -86.6025 L70 -86.6025 L67.5 -90.9327 L65 -86.6025 L70 -86.6025"/>
<path d="M65 -95.2628 L65 -95.2628 L62.5 -90.9327 L67.5 -90.9327 L65 -95.2628"/>
<path d="M60 -86.6025 L60 -86.6025 L65 -86.6025 L62.5 -90.9327 L60 -86.6025"/>
<path d="M120 -69.282 L120 -69.282 L117.5 -73.6122 L115 -69.282 L120 -69.282"/>
<path d="M115 -77.9423 L115 -77.9423 L112.5 -73.6122 L117.5 -73.6122 L115 -77.9423"/>
<path d="M110 -69.282 L110 -69.282 L115 -69.282 L112.5 -73.6122 L110 -69.282"/>
<path d="M110 -86.6025 L110 -86.6025 L107.5 -82.2724 L112.5 -82.2724 L110 -86.6025"/>
<path d="M105 -77.9423 L105 -77.9423 L110 -77.9423 L107.5 -82.2724 L105 -77.9423"/>
<path d="M115 -77.9423 L115 -77.9423 L112.5 -82.2724 L110 -77.9423 L115 -77.9423"/>
<path d="M100 -69.282 L100 -69.282 L105 -69.282 L102.5 -73.6122 L100 -69.282"/>
<path d="M110 -69.282 L110 -69.282 L107.5 -73.6122 L105 -69.282 L110 -69.282"/>
<path d="M105 -77.9423 L105 -77.9423 L102.5 -73.6122 L107.5 -73.6122 L105 -77.9423"/>
<path d="M100 -103.923 L100 -103.923 L97.5 -99.5929 L102.5 -99.5929 L100 -103.923"/>
<path d="M95 -95.2628 L95 -95.2628 L100 -95.2628 L97.5 -99.5929 L95 -95.2628"/>
<path d="M105 -95.2628 L105 -95.2628 L102.5 -99.5929 L100 -95.2628 L105 -95.2628"/>
<path d="M90 -86.6025 L90 -86.6025 L95 -86.6025 L92.5 -90.9327 L90 -86.6025"/>
<path d="M100 -86.6025 L100 -86.6025 L97.5 -90.9327 L95 -86.6025 L100 -86.6025"/>
<path d="M95 -95.2628 L95 -95.2628 L92.5 -90.9327 L97.5 -90.9327 L95 -95.2628"/>
<path d="M110 -86.6025 L110 -86.6025 L107.5 -90.9327 L105 -86.6025 L110 -86.6025"/>
<path d="M105 -95.2628 L105 -95.2628 L102.5 -90.9327 L107.5 -90.9327 L105 -95.2628"/>
<path d="M100 -86.6025 L100 -86.6025 L105 -86.6025 L102.5 -90.9327 L100 -86.6025"/>
<path d="M80 -69.282 L80 -69.282 L85 -69.282 L82.5 -73.6122 L80 -69.282"/>
<path d="M90 -69.282 L90 -69.282 L87.5 -73.6122 L85 -69.282 L90 -69.282"/>
<path d="M85 -77.9423 L85 -77.9423 L82.5 -73.6122 L87.5 -73.6122 L85 -77.9423"/>
<path d="M100 -69.282 L100 -69.282 L97.5 -73.6122 L95 -69.282 L100 -69.282"/>
<path d="M95 -77.9423 L95 -77.9423 L92.5 -73.6122 L97.5 -73.6122 L95 -77.9423"/>
<path d="M90 -69.282 L90 -69.282 L95 -69.282 L92.5 -73.6122 L90 -69.282"/>
<path d="M90 -86.6025 L90 -86.6025 L87.5 -82.2724 L92.5 -82.2724 L90 -86.6025"/>
<path d="M85 -77.9423 L85 -77.9423 L90 -77.9423 L87.5 -82.2724 L85 -77.9423"/>
<path d="M95 -77.9423 L95 -77.9423 L92.5 -82.2724 L90 -77.9423 L95 -77.9423"/>
</svg>
