<?xml version="1.0" encoding="UTF-8"?>
<svg xmlns="http://www.w3.org/2000/svg"
 version="1.1" baseProfile="basic"
 viewBox="-11 -45 61 56"
 width="1280px" height="1024px"
 stroke="white" stroke-width="1px"
 fill="black" fill-opacity="0">
<rect x="-11" y="-45" width="61" height="56" stroke-width="0px" fill-opacity="1"/>
<path d="M0 0 L0 0 L5 0 L2.5 -4.33013 L-8.88178e-16 -1.77636e-15"/>
<path d="M10 5.32907e-15 L10 5.32907e-15 L7.5 -4.33013 L5 0 L10 7.10543e-15"/>
<path d="M5 -8.66025 L5 -8.66025 L2.5 -4.33013 L7.5 -4.33013 L5 -8.66025"/>
<path d="M20 4.44089e-14 L20 4.44089e-14 L17.5 -4.33013 L15 2.84217e-14 L20 4.52971e-14"/>
<path d="M15 -8.66025 L15 -8.66025 L12.5 -4.33013 L17.5 -4.33013 L15 -8.66025"/>
<path d="M10 5.32907e-15 L10 5.32907e-15 L15 2.88658e-14 L12.5 -4.33013 L10 4.44089e-15"/>
<path d="M10 -17.3205 L10 -17.3205 L7.5 -12.9904 L12.5 -12.9904 L10 -17.3205"/>
<path d="M5 -8.66025 L5 -8.66025 L10 -8.66025 L7.5 -12.9904 L5 -8.66025"/>
<path d="M15 -8.66025 L15 -8.66025 L12.5 -12.9904 L10 -8.66025 L15 -8.66025"/>
<path d="M40 2.66454e-13 L40 2.66454e-13 L37.5 -4.33013 L35 2.22045e-13 L40 2.6823e-13"/>
<path d="M35 -8.66025 L35 -8.66025 L32.5 -4.33013 L37.5 -4.33013 L35 -8.66025"/>
<path d="M30 1.68754e-13 L30 1.68754e-13 L35 2.22933e-13 L32.5 -4.33013 L30 1.66978e-13"/>
<path d="M30 -17.3205 L30 -17.3205 L27.5 -12.9904 L32.5 -12.9904 L30 -17.3205"/>
<path d="M25 -8.66025 L25 -8.66025 L30 -8.66025 L27.5 -12.9904 L25 -8.66025"/>
<path d="M35 -8.66025 L35 -8.66025 L32.5 -12.9904 L30 -8.66025 L35 -8.66025"/>
<path d="M20 2.30926e-14 L20 2.30926e-14 L25 9.59233e-14 L22.5 -4.33013 L20 2.13163e-14"/>
<path d="M30 1.74083e-13 L30 1.74083e-13 L27.5 -4.33013 L25 9.68114e-14 L30 1.75415e-13"/>
<path d="M25 -8.66025 L25 -8.66025 L22.5 -4.33013 L27.5 -4.33013 L25 -8.66025"/>
<path d="M20 -34.641 L20 -34.641 L17.5 -30.3109 L22.5 -30.3109 L20 -34.641"/>
<path d="M15 -25.9808 L15 -25.9808 L20 -25.9808 L17.5 -30.3109 L15 -25.9808"/>
<path d="M25 -25.9808 L25 -25.9808 L22.5 -30.3109 L20 -25.9808 L25 -25.9808"/>
<path d="M10 -17.3205 L10 -17.3205 L15 -17.3205 L12.5 -21.6506 L10 -17.3205"/>
<path d="M20 -17.3205 L20 -17.3205 L17.5 -21.6506 L15 -17.3205 L20 -17.3205"/>
<path d="M15 -25.9808 L15 -25.9808 L12.5 -21.6506 L17.5 -21.6506 L15 -25.9808"/>
<path d="M30 -17.3205 L30 -17.3205 L27.5 -21.6506 L25 -17.3205 L30 -17.3205"/>
<path d="M25 -25.9808 L25 -25.9808 L22.5 -21.6506 L27.5 -21.6506 L25 -25.9808"/>
<path d="M20 -17.3205 L20 -17.3205 L25 -17.3205 L22.5 -21.6506 L20 -17.3205"/>
</svg>
