<?xml version="1.0" encoding="UTF-8"?>
<svg xmlns="http://www.w3.org/2000/svg"
 version="1.1" baseProfile="basic"
 viewBox="-10 -211 426 421"
 width="1280px" height="1024px"
 stroke="white" stroke-width="1px"
 fill="black" fill-opacity="0">
<rect x="-10" y="-211" width="426" height="421" stroke-width="0px" fill-opacity="1"/>
<path d="M0 0 L0 0 L5 0 L5 -5 L10 -5 L10 0 L10 5 L5 5 L5 8.88178e-16"/>
<path d="M10 -3.36468e-16 L10 -3.36468e-16 L15 -1.56112e-15 L15 -5 L10 -5 L10 -10 L15 -10 L20 -10 L20 -5 L15 -5"/>
<path d="M15 -10 L15 -10 L15 -15 L20 -15 L20 -20 L25 -20 L25 -15 L25 -10 L20 -10 L20 -15"/>
<path d="M25 -15 L25 -15 L30 -15 L30 -10 L35 -10 L35 -5 L30 -5 L25 -5 L25 -10 L30 -10"/>
<path d="M30 -5 L30 -5 L30 -1.06581e-14 L30 5 L35 5 L35 10 L30 10 L25 10 L25 5 L30 5"/>
<path d="M30 10 L30 10 L30 15 L25 15 L25 20 L20 20 L20 15 L20 10 L25 10 L25 15"/>
<path d="M20 15 L20 15 L15 15 L15 10 L10 10 L10 5 L15 5 L20 5 L20 10 L15 10"/>
<path d="M15 5 L15 5 L15 8.88178e-15"/>
<path d="M30 -2.05097e-14 L30 -2.05097e-14 L35 -3.03069e-14 L35 -5 L40 -5 L40 -3.9968e-14 L40 5 L35 5 L35 -2.93099e-14"/>
<path d="M40 -4.03317e-14 L40 -4.03317e-14 L45 -5.13535e-14 L45 -5 L40 -5 L40 -10 L45 -10 L50 -10 L50 -5 L45 -5"/>
<path d="M45 -10 L45 -10 L45 -15 L40 -15 L40 -10 L35 -10 L35 -15 L35 -20 L40 -20 L40 -15"/>
<path d="M35 -15 L35 -15 L30 -15 L30 -20 L25 -20 L25 -25 L30 -25 L35 -25 L35 -20 L30 -20"/>
<path d="M30 -25 L30 -25 L30 -30 L35 -30 L35 -35 L40 -35 L40 -30 L40 -25 L35 -25 L35 -30"/>
<path d="M40 -30 L40 -30 L45 -30 L50 -30 L50 -35 L55 -35 L55 -30 L55 -25 L50 -25 L50 -30"/>
<path d="M55 -30 L55 -30 L60 -30 L60 -25 L65 -25 L65 -20 L60 -20 L55 -20 L55 -25 L60 -25"/>
<path d="M60 -20 L60 -20 L60 -15 L55 -15 L55 -10 L50 -10 L50 -15 L50 -20 L55 -20 L55 -15"/>
<path d="M50 -15 L50 -15 L45 -15"/>
<path d="M45 -30 L45 -30 L45 -35 L40 -35 L40 -40 L45 -40 L50 -40 L50 -35 L45 -35"/>
<path d="M45 -40 L45 -40 L45 -45 L50 -45 L50 -50 L55 -50 L55 -45 L55 -40 L50 -40 L50 -45"/>
<path d="M55 -45 L55 -45 L60 -45 L60 -50 L55 -50 L55 -55 L60 -55 L65 -55 L65 -50 L60 -50"/>
<path d="M60 -55 L60 -55 L60 -60 L65 -60 L65 -65 L70 -65 L70 -60 L70 -55 L65 -55 L65 -60"/>
<path d="M70 -60 L70 -60 L75 -60 L75 -55 L80 -55 L80 -50 L75 -50 L70 -50 L70 -55 L75 -55"/>
<path d="M75 -50 L75 -50 L75 -45 L75 -40 L80 -40 L80 -35 L75 -35 L70 -35 L70 -40 L75 -40"/>
<path d="M75 -35 L75 -35 L75 -30 L70 -30 L70 -25 L65 -25 L65 -30 L65 -35 L70 -35 L70 -30"/>
<path d="M65 -30 L65 -30 L60 -30 L60 -35 L55 -35 L55 -40 L60 -40 L65 -40 L65 -35 L60 -35"/>
<path d="M60 -40 L60 -40 L60 -45"/>
<path d="M75 -45 L75 -45 L80 -45 L80 -50 L85 -50 L85 -45 L85 -40 L80 -40 L80 -45"/>
<path d="M85 -45 L85 -45 L90 -45 L90 -40 L95 -40 L95 -35 L90 -35 L85 -35 L85 -40 L90 -40"/>
<path d="M90 -35 L90 -35 L90 -30 L95 -30 L95 -35 L100 -35 L100 -30 L100 -25 L95 -25 L95 -30"/>
<path d="M100 -30 L100 -30 L105 -30 L105 -25 L110 -25 L110 -20 L105 -20 L100 -20 L100 -25 L105 -25"/>
<path d="M105 -20 L105 -20 L105 -15 L100 -15 L100 -10 L95 -10 L95 -15 L95 -20 L100 -20 L100 -15"/>
<path d="M95 -15 L95 -15 L90 -15 L85 -15 L85 -10 L80 -10 L80 -15 L80 -20 L85 -20 L85 -15"/>
<path d="M80 -15 L80 -15 L75 -15 L75 -20 L70 -20 L70 -25 L75 -25 L80 -25 L80 -20 L75 -20"/>
<path d="M75 -25 L75 -25 L75 -30 L80 -30 L80 -35 L85 -35 L85 -30 L85 -25 L80 -25 L80 -30"/>
<path d="M85 -30 L85 -30 L90 -30"/>
<path d="M90 -15 L90 -15 L90 -10 L95 -10 L95 -5 L90 -5 L85 -5 L85 -10 L90 -10"/>
<path d="M90 -5 L90 -5 L90 -2.77112e-13 L90 5 L95 5 L95 10 L90 10 L85 10 L85 5 L90 5"/>
<path d="M90 10 L90 10 L90 15 L95 15 L95 10 L100 10 L100 15 L100 20 L95 20 L95 15"/>
<path d="M100 15 L100 15 L105 15 L105 20 L110 20 L110 25 L105 25 L100 25 L100 20 L105 20"/>
<path d="M105 25 L105 25 L105 30 L100 30 L100 35 L95 35 L95 30 L95 25 L100 25 L100 30"/>
<path d="M95 30 L95 30 L90 30 L85 30 L85 35 L80 35 L80 30 L80 25 L85 25 L85 30"/>
<path d="M80 30 L80 30 L75 30 L75 25 L70 25 L70 20 L75 20 L80 20 L80 25 L75 25"/>
<path d="M75 20 L75 20 L75 15 L80 15 L80 10 L85 10 L85 15 L85 20 L80 20 L80 15"/>
<path d="M85 15 L85 15 L90 15"/>
<path d="M90 30 L90 30 L90 35 L95 35 L95 40 L90 40 L85 40 L85 35 L90 35"/>
<path d="M90 40 L90 40 L90 45 L85 45 L85 50 L80 50 L80 45 L80 40 L85 40 L85 45"/>
<path d="M80 45 L80 45 L75 45 L75 50 L80 50 L80 55 L75 55 L70 55 L70 50 L75 50"/>
<path d="M75 55 L75 55 L75 60 L70 60 L70 65 L65 65 L65 60 L65 55 L70 55 L70 60"/>
<path d="M65 60 L65 60 L60 60 L60 55 L55 55 L55 50 L60 50 L65 50 L65 55 L60 55"/>
<path d="M60 50 L60 50 L60 45 L60 40 L55 40 L55 35 L60 35 L65 35 L65 40 L60 40"/>
<path d="M60 35 L60 35 L60 30 L65 30 L65 25 L70 25 L70 30 L70 35 L65 35 L65 30"/>
<path d="M70 30 L70 30 L75 30 L75 35 L80 35 L80 40 L75 40 L70 40 L70 35 L75 35"/>
<path d="M75 40 L75 40 L75 45"/>
<path d="M60 45 L60 45 L55 45 L55 50 L50 50 L50 45 L50 40 L55 40 L55 45"/>
<path d="M50 45 L50 45 L45 45 L45 40 L40 40 L40 35 L45 35 L50 35 L50 40 L45 40"/>
<path d="M45 35 L45 35 L45 30 L40 30 L40 35 L35 35 L35 30 L35 25 L40 25 L40 30"/>
<path d="M35 30 L35 30 L30 30 L30 25 L25 25 L25 20 L30 20 L35 20 L35 25 L30 25"/>
<path d="M30 20 L30 20 L30 15 L35 15 L35 10 L40 10 L40 15 L40 20 L35 20 L35 15"/>
<path d="M40 15 L40 15 L45 15 L50 15 L50 10 L55 10 L55 15 L55 20 L50 20 L50 15"/>
<path d="M55 15 L55 15 L60 15 L60 20 L65 20 L65 25 L60 25 L55 25 L55 20 L60 20"/>
<path d="M60 25 L60 25 L60 30 L55 30 L55 35 L50 35 L50 30 L50 25 L55 25 L55 30"/>
<path d="M50 30 L50 30 L45 30"/>
<path d="M45 15 L45 15 L45 10 L40 10 L40 5 L45 5 L50 5 L50 10 L45 10"/>
<path d="M45 5 L45 5 L45 2.59348e-13"/>
<path d="M90 -4.46048e-13 L90 -4.46048e-13 L95 -5.24426e-13 L95 -5 L100 -5 L100 -6.02185e-13 L100 5 L95 5 L95 -5.23137e-13"/>
<path d="M100 -6.02739e-13 L100 -6.02739e-13 L105 -6.82341e-13 L105 -5 L100 -5 L100 -10 L105 -10 L110 -10 L110 -5 L105 -5"/>
<path d="M105 -10 L105 -10 L105 -15 L110 -15 L110 -20 L115 -20 L115 -15 L115 -10 L110 -10 L110 -15"/>
<path d="M115 -15 L115 -15 L120 -15 L120 -10 L125 -10 L125 -5 L120 -5 L115 -5 L115 -10 L120 -10"/>
<path d="M120 -5 L120 -5 L120 -9.30811e-13 L120 5 L125 5 L125 10 L120 10 L115 10 L115 5 L120 5"/>
<path d="M120 10 L120 10 L120 15 L115 15 L115 20 L110 20 L110 15 L110 10 L115 10 L115 15"/>
<path d="M110 15 L110 15 L105 15 L105 10 L100 10 L100 5 L105 5 L110 5 L110 10 L105 10"/>
<path d="M105 5 L105 5 L105 -6.71463e-13"/>
<path d="M120 -9.35987e-13 L120 -9.35987e-13 L125 -1.02416e-12 L125 -5 L130 -5 L130 -1.112e-12 L130 5 L125 5 L125 -1.02318e-12"/>
<path d="M130 -1.11258e-12 L130 -1.11258e-12 L135 -1.20198e-12 L135 -5 L130 -5 L130 -10 L135 -10 L140 -10 L140 -5 L135 -5"/>
<path d="M135 -10 L135 -10 L135 -15 L130 -15 L130 -10 L125 -10 L125 -15 L125 -20 L130 -20 L130 -15"/>
<path d="M125 -15 L125 -15 L120 -15 L120 -20 L115 -20 L115 -25 L120 -25 L125 -25 L125 -20 L120 -20"/>
<path d="M120 -25 L120 -25 L120 -30 L125 -30 L125 -35 L130 -35 L130 -30 L130 -25 L125 -25 L125 -30"/>
<path d="M130 -30 L130 -30 L135 -30 L140 -30 L140 -35 L145 -35 L145 -30 L145 -25 L140 -25 L140 -30"/>
<path d="M145 -30 L145 -30 L150 -30 L150 -25 L155 -25 L155 -20 L150 -20 L145 -20 L145 -25 L150 -25"/>
<path d="M150 -20 L150 -20 L150 -15 L145 -15 L145 -10 L140 -10 L140 -15 L140 -20 L145 -20 L145 -15"/>
<path d="M140 -15 L140 -15 L135 -15"/>
<path d="M135 -30 L135 -30 L135 -35 L130 -35 L130 -40 L135 -40 L140 -40 L140 -35 L135 -35"/>
<path d="M135 -40 L135 -40 L135 -45 L130 -45 L130 -40 L125 -40 L125 -45 L125 -50 L130 -50 L130 -45"/>
<path d="M125 -45 L125 -45 L120 -45 L120 -40 L125 -40 L125 -35 L120 -35 L115 -35 L115 -40 L120 -40"/>
<path d="M120 -35 L120 -35 L120 -30 L115 -30 L115 -25 L110 -25 L110 -30 L110 -35 L115 -35 L115 -30"/>
<path d="M110 -30 L110 -30 L105 -30 L105 -35 L100 -35 L100 -40 L105 -40 L110 -40 L110 -35 L105 -35"/>
<path d="M105 -40 L105 -40 L105 -45 L105 -50 L100 -50 L100 -55 L105 -55 L110 -55 L110 -50 L105 -50"/>
<path d="M105 -55 L105 -55 L105 -60 L110 -60 L110 -65 L115 -65 L115 -60 L115 -55 L110 -55 L110 -60"/>
<path d="M115 -60 L115 -60 L120 -60 L120 -55 L125 -55 L125 -50 L120 -50 L115 -50 L115 -55 L120 -55"/>
<path d="M120 -50 L120 -50 L120 -45"/>
<path d="M105 -45 L105 -45 L100 -45 L100 -40 L95 -40 L95 -45 L95 -50 L100 -50 L100 -45"/>
<path d="M95 -45 L95 -45 L90 -45 L90 -50 L85 -50 L85 -55 L90 -55 L95 -55 L95 -50 L90 -50"/>
<path d="M90 -55 L90 -55 L90 -60 L85 -60 L85 -55 L80 -55 L80 -60 L80 -65 L85 -65 L85 -60"/>
<path d="M80 -60 L80 -60 L75 -60 L75 -65 L70 -65 L70 -70 L75 -70 L80 -70 L80 -65 L75 -65"/>
<path d="M75 -70 L75 -70 L75 -75 L80 -75 L80 -80 L85 -80 L85 -75 L85 -70 L80 -70 L80 -75"/>
<path d="M85 -75 L85 -75 L90 -75 L95 -75 L95 -80 L100 -80 L100 -75 L100 -70 L95 -70 L95 -75"/>
<path d="M100 -75 L100 -75 L105 -75 L105 -70 L110 -70 L110 -65 L105 -65 L100 -65 L100 -70 L105 -70"/>
<path d="M105 -65 L105 -65 L105 -60 L100 -60 L100 -55 L95 -55 L95 -60 L95 -65 L100 -65 L100 -60"/>
<path d="M95 -60 L95 -60 L90 -60"/>
<path d="M90 -75 L90 -75 L90 -80 L85 -80 L85 -85 L90 -85 L95 -85 L95 -80 L90 -80"/>
<path d="M90 -85 L90 -85 L90 -90 L95 -90 L95 -95 L100 -95 L100 -90 L100 -85 L95 -85 L95 -90"/>
<path d="M100 -90 L100 -90 L105 -90 L105 -95 L100 -95 L100 -100 L105 -100 L110 -100 L110 -95 L105 -95"/>
<path d="M105 -100 L105 -100 L105 -105 L110 -105 L110 -110 L115 -110 L115 -105 L115 -100 L110 -100 L110 -105"/>
<path d="M115 -105 L115 -105 L120 -105 L120 -100 L125 -100 L125 -95 L120 -95 L115 -95 L115 -100 L120 -100"/>
<path d="M120 -95 L120 -95 L120 -90 L120 -85 L125 -85 L125 -80 L120 -80 L115 -80 L115 -85 L120 -85"/>
<path d="M120 -80 L120 -80 L120 -75 L115 -75 L115 -70 L110 -70 L110 -75 L110 -80 L115 -80 L115 -75"/>
<path d="M110 -75 L110 -75 L105 -75 L105 -80 L100 -80 L100 -85 L105 -85 L110 -85 L110 -80 L105 -80"/>
<path d="M105 -85 L105 -85 L105 -90"/>
<path d="M120 -90 L120 -90 L125 -90 L125 -95 L130 -95 L130 -90 L130 -85 L125 -85 L125 -90"/>
<path d="M130 -90 L130 -90 L135 -90 L140 -90 L140 -95 L145 -95 L145 -90 L145 -85 L140 -85 L140 -90"/>
<path d="M145 -90 L145 -90 L150 -90 L150 -95 L145 -95 L145 -100 L150 -100 L155 -100 L155 -95 L150 -95"/>
<path d="M150 -100 L150 -100 L150 -105 L155 -105 L155 -110 L160 -110 L160 -105 L160 -100 L155 -100 L155 -105"/>
<path d="M160 -105 L160 -105 L165 -105 L165 -100 L170 -100 L170 -95 L165 -95 L160 -95 L160 -100 L165 -100"/>
<path d="M165 -95 L165 -95 L165 -90 L165 -85 L170 -85 L170 -80 L165 -80 L160 -80 L160 -85 L165 -85"/>
<path d="M165 -80 L165 -80 L165 -75 L160 -75 L160 -70 L155 -70 L155 -75 L155 -80 L160 -80 L160 -75"/>
<path d="M155 -75 L155 -75 L150 -75 L150 -80 L145 -80 L145 -85 L150 -85 L155 -85 L155 -80 L150 -80"/>
<path d="M150 -85 L150 -85 L150 -90"/>
<path d="M165 -90 L165 -90 L170 -90 L170 -95 L175 -95 L175 -90 L175 -85 L170 -85 L170 -90"/>
<path d="M175 -90 L175 -90 L180 -90 L180 -85 L185 -85 L185 -80 L180 -80 L175 -80 L175 -85 L180 -85"/>
<path d="M180 -80 L180 -80 L180 -75 L185 -75 L185 -80 L190 -80 L190 -75 L190 -70 L185 -70 L185 -75"/>
<path d="M190 -75 L190 -75 L195 -75 L195 -70 L200 -70 L200 -65 L195 -65 L190 -65 L190 -70 L195 -70"/>
<path d="M195 -65 L195 -65 L195 -60 L190 -60 L190 -55 L185 -55 L185 -60 L185 -65 L190 -65 L190 -60"/>
<path d="M185 -60 L185 -60 L180 -60 L175 -60 L175 -55 L170 -55 L170 -60 L170 -65 L175 -65 L175 -60"/>
<path d="M170 -60 L170 -60 L165 -60 L165 -65 L160 -65 L160 -70 L165 -70 L170 -70 L170 -65 L165 -65"/>
<path d="M165 -70 L165 -70 L165 -75 L170 -75 L170 -80 L175 -80 L175 -75 L175 -70 L170 -70 L170 -75"/>
<path d="M175 -75 L175 -75 L180 -75"/>
<path d="M180 -60 L180 -60 L180 -55 L185 -55 L185 -50 L180 -50 L175 -50 L175 -55 L180 -55"/>
<path d="M180 -50 L180 -50 L180 -45 L175 -45 L175 -40 L170 -40 L170 -45 L170 -50 L175 -50 L175 -45"/>
<path d="M170 -45 L170 -45 L165 -45 L165 -40 L170 -40 L170 -35 L165 -35 L160 -35 L160 -40 L165 -40"/>
<path d="M165 -35 L165 -35 L165 -30 L160 -30 L160 -25 L155 -25 L155 -30 L155 -35 L160 -35 L160 -30"/>
<path d="M155 -30 L155 -30 L150 -30 L150 -35 L145 -35 L145 -40 L150 -40 L155 -40 L155 -35 L150 -35"/>
<path d="M150 -40 L150 -40 L150 -45 L150 -50 L145 -50 L145 -55 L150 -55 L155 -55 L155 -50 L150 -50"/>
<path d="M150 -55 L150 -55 L150 -60 L155 -60 L155 -65 L160 -65 L160 -60 L160 -55 L155 -55 L155 -60"/>
<path d="M160 -60 L160 -60 L165 -60 L165 -55 L170 -55 L170 -50 L165 -50 L160 -50 L160 -55 L165 -55"/>
<path d="M165 -50 L165 -50 L165 -45"/>
<path d="M150 -45 L150 -45 L145 -45 L145 -40 L140 -40 L140 -45 L140 -50 L145 -50 L145 -45"/>
<path d="M140 -45 L140 -45 L135 -45"/>
<path d="M135 -90 L135 -90 L135 -95 L130 -95 L130 -100 L135 -100 L140 -100 L140 -95 L135 -95"/>
<path d="M135 -100 L135 -100 L135 -105 L130 -105 L130 -100 L125 -100 L125 -105 L125 -110 L130 -110 L130 -105"/>
<path d="M125 -105 L125 -105 L120 -105 L120 -110 L115 -110 L115 -115 L120 -115 L125 -115 L125 -110 L120 -110"/>
<path d="M120 -115 L120 -115 L120 -120 L125 -120 L125 -125 L130 -125 L130 -120 L130 -115 L125 -115 L125 -120"/>
<path d="M130 -120 L130 -120 L135 -120 L140 -120 L140 -125 L145 -125 L145 -120 L145 -115 L140 -115 L140 -120"/>
<path d="M145 -120 L145 -120 L150 -120 L150 -115 L155 -115 L155 -110 L150 -110 L145 -110 L145 -115 L150 -115"/>
<path d="M150 -110 L150 -110 L150 -105 L145 -105 L145 -100 L140 -100 L140 -105 L140 -110 L145 -110 L145 -105"/>
<path d="M140 -105 L140 -105 L135 -105"/>
<path d="M135 -120 L135 -120 L135 -125 L130 -125 L130 -130 L135 -130 L140 -130 L140 -125 L135 -125"/>
<path d="M135 -130 L135 -130 L135 -135 L140 -135 L140 -140 L145 -140 L145 -135 L145 -130 L140 -130 L140 -135"/>
<path d="M145 -135 L145 -135 L150 -135 L150 -140 L145 -140 L145 -145 L150 -145 L155 -145 L155 -140 L150 -140"/>
<path d="M150 -145 L150 -145 L150 -150 L155 -150 L155 -155 L160 -155 L160 -150 L160 -145 L155 -145 L155 -150"/>
<path d="M160 -150 L160 -150 L165 -150 L165 -145 L170 -145 L170 -140 L165 -140 L160 -140 L160 -145 L165 -145"/>
<path d="M165 -140 L165 -140 L165 -135 L165 -130 L170 -130 L170 -125 L165 -125 L160 -125 L160 -130 L165 -130"/>
<path d="M165 -125 L165 -125 L165 -120 L160 -120 L160 -115 L155 -115 L155 -120 L155 -125 L160 -125 L160 -120"/>
<path d="M155 -120 L155 -120 L150 -120 L150 -125 L145 -125 L145 -130 L150 -130 L155 -130 L155 -125 L150 -125"/>
<path d="M150 -130 L150 -130 L150 -135"/>
<path d="M165 -135 L165 -135 L170 -135 L170 -140 L175 -140 L175 -135 L175 -130 L170 -130 L170 -135"/>
<path d="M175 -135 L175 -135 L180 -135 L180 -140 L175 -140 L175 -145 L180 -145 L185 -145 L185 -140 L180 -140"/>
<path d="M180 -145 L180 -145 L180 -150 L175 -150 L175 -145 L170 -145 L170 -150 L170 -155 L175 -155 L175 -150"/>
<path d="M170 -150 L170 -150 L165 -150 L165 -155 L160 -155 L160 -160 L165 -160 L170 -160 L170 -155 L165 -155"/>
<path d="M165 -160 L165 -160 L165 -165 L170 -165 L170 -170 L175 -170 L175 -165 L175 -160 L170 -160 L170 -165"/>
<path d="M175 -165 L175 -165 L180 -165 L185 -165 L185 -170 L190 -170 L190 -165 L190 -160 L185 -160 L185 -165"/>
<path d="M190 -165 L190 -165 L195 -165 L195 -160 L200 -160 L200 -155 L195 -155 L190 -155 L190 -160 L195 -160"/>
<path d="M195 -155 L195 -155 L195 -150 L190 -150 L190 -145 L185 -145 L185 -150 L185 -155 L190 -155 L190 -150"/>
<path d="M185 -150 L185 -150 L180 -150"/>
<path d="M180 -165 L180 -165 L180 -170 L175 -170 L175 -175 L180 -175 L185 -175 L185 -170 L180 -170"/>
<path d="M180 -175 L180 -175 L180 -180 L185 -180 L185 -185 L190 -185 L190 -180 L190 -175 L185 -175 L185 -180"/>
<path d="M190 -180 L190 -180 L195 -180 L195 -185 L190 -185 L190 -190 L195 -190 L200 -190 L200 -185 L195 -185"/>
<path d="M195 -190 L195 -190 L195 -195 L200 -195 L200 -200 L205 -200 L205 -195 L205 -190 L200 -190 L200 -195"/>
<path d="M205 -195 L205 -195 L210 -195 L210 -190 L215 -190 L215 -185 L210 -185 L205 -185 L205 -190 L210 -190"/>
<path d="M210 -185 L210 -185 L210 -180 L210 -175 L215 -175 L215 -170 L210 -170 L205 -170 L205 -175 L210 -175"/>
<path d="M210 -170 L210 -170 L210 -165 L205 -165 L205 -160 L200 -160 L200 -165 L200 -170 L205 -170 L205 -165"/>
<path d="M200 -165 L200 -165 L195 -165 L195 -170 L190 -170 L190 -175 L195 -175 L200 -175 L200 -170 L195 -170"/>
<path d="M195 -175 L195 -175 L195 -180"/>
<path d="M210 -180 L210 -180 L215 -180 L215 -185 L220 -185 L220 -180 L220 -175 L215 -175 L215 -180"/>
<path d="M220 -180 L220 -180 L225 -180 L225 -175 L230 -175 L230 -170 L225 -170 L220 -170 L220 -175 L225 -175"/>
<path d="M225 -170 L225 -170 L225 -165 L230 -165 L230 -170 L235 -170 L235 -165 L235 -160 L230 -160 L230 -165"/>
<path d="M235 -165 L235 -165 L240 -165 L240 -160 L245 -160 L245 -155 L240 -155 L235 -155 L235 -160 L240 -160"/>
<path d="M240 -155 L240 -155 L240 -150 L235 -150 L235 -145 L230 -145 L230 -150 L230 -155 L235 -155 L235 -150"/>
<path d="M230 -150 L230 -150 L225 -150 L220 -150 L220 -145 L215 -145 L215 -150 L215 -155 L220 -155 L220 -150"/>
<path d="M215 -150 L215 -150 L210 -150 L210 -155 L205 -155 L205 -160 L210 -160 L215 -160 L215 -155 L210 -155"/>
<path d="M210 -160 L210 -160 L210 -165 L215 -165 L215 -170 L220 -170 L220 -165 L220 -160 L215 -160 L215 -165"/>
<path d="M220 -165 L220 -165 L225 -165"/>
<path d="M225 -150 L225 -150 L225 -145 L230 -145 L230 -140 L225 -140 L220 -140 L220 -145 L225 -145"/>
<path d="M225 -140 L225 -140 L225 -135 L225 -130 L230 -130 L230 -125 L225 -125 L220 -125 L220 -130 L225 -130"/>
<path d="M225 -125 L225 -125 L225 -120 L230 -120 L230 -125 L235 -125 L235 -120 L235 -115 L230 -115 L230 -120"/>
<path d="M235 -120 L235 -120 L240 -120 L240 -115 L245 -115 L245 -110 L240 -110 L235 -110 L235 -115 L240 -115"/>
<path d="M240 -110 L240 -110 L240 -105 L235 -105 L235 -100 L230 -100 L230 -105 L230 -110 L235 -110 L235 -105"/>
<path d="M230 -105 L230 -105 L225 -105 L220 -105 L220 -100 L215 -100 L215 -105 L215 -110 L220 -110 L220 -105"/>
<path d="M215 -105 L215 -105 L210 -105 L210 -110 L205 -110 L205 -115 L210 -115 L215 -115 L215 -110 L210 -110"/>
<path d="M210 -115 L210 -115 L210 -120 L215 -120 L215 -125 L220 -125 L220 -120 L220 -115 L215 -115 L215 -120"/>
<path d="M220 -120 L220 -120 L225 -120"/>
<path d="M225 -105 L225 -105 L225 -100 L230 -100 L230 -95 L225 -95 L220 -95 L220 -100 L225 -100"/>
<path d="M225 -95 L225 -95 L225 -90 L220 -90 L220 -85 L215 -85 L215 -90 L215 -95 L220 -95 L220 -90"/>
<path d="M215 -90 L215 -90 L210 -90 L210 -85 L215 -85 L215 -80 L210 -80 L205 -80 L205 -85 L210 -85"/>
<path d="M210 -80 L210 -80 L210 -75 L205 -75 L205 -70 L200 -70 L200 -75 L200 -80 L205 -80 L205 -75"/>
<path d="M200 -75 L200 -75 L195 -75 L195 -80 L190 -80 L190 -85 L195 -85 L200 -85 L200 -80 L195 -80"/>
<path d="M195 -85 L195 -85 L195 -90 L195 -95 L190 -95 L190 -100 L195 -100 L200 -100 L200 -95 L195 -95"/>
<path d="M195 -100 L195 -100 L195 -105 L200 -105 L200 -110 L205 -110 L205 -105 L205 -100 L200 -100 L200 -105"/>
<path d="M205 -105 L205 -105 L210 -105 L210 -100 L215 -100 L215 -95 L210 -95 L205 -95 L205 -100 L210 -100"/>
<path d="M210 -95 L210 -95 L210 -90"/>
<path d="M195 -90 L195 -90 L190 -90 L190 -85 L185 -85 L185 -90 L185 -95 L190 -95 L190 -90"/>
<path d="M185 -90 L185 -90 L180 -90 L180 -95 L175 -95 L175 -100 L180 -100 L185 -100 L185 -95 L180 -95"/>
<path d="M180 -100 L180 -100 L180 -105 L175 -105 L175 -100 L170 -100 L170 -105 L170 -110 L175 -110 L175 -105"/>
<path d="M170 -105 L170 -105 L165 -105 L165 -110 L160 -110 L160 -115 L165 -115 L170 -115 L170 -110 L165 -110"/>
<path d="M165 -115 L165 -115 L165 -120 L170 -120 L170 -125 L175 -125 L175 -120 L175 -115 L170 -115 L170 -120"/>
<path d="M175 -120 L175 -120 L180 -120 L185 -120 L185 -125 L190 -125 L190 -120 L190 -115 L185 -115 L185 -120"/>
<path d="M190 -120 L190 -120 L195 -120 L195 -115 L200 -115 L200 -110 L195 -110 L190 -110 L190 -115 L195 -115"/>
<path d="M195 -110 L195 -110 L195 -105 L190 -105 L190 -100 L185 -100 L185 -105 L185 -110 L190 -110 L190 -105"/>
<path d="M185 -105 L185 -105 L180 -105"/>
<path d="M180 -120 L180 -120 L180 -125 L175 -125 L175 -130 L180 -130 L185 -130 L185 -125 L180 -125"/>
<path d="M180 -130 L180 -130 L180 -135"/>
<path d="M225 -135 L225 -135 L230 -135 L230 -140 L235 -140 L235 -135 L235 -130 L230 -130 L230 -135"/>
<path d="M235 -135 L235 -135 L240 -135 L240 -140 L235 -140 L235 -145 L240 -145 L245 -145 L245 -140 L240 -140"/>
<path d="M240 -145 L240 -145 L240 -150 L245 -150 L245 -155 L250 -155 L250 -150 L250 -145 L245 -145 L245 -150"/>
<path d="M250 -150 L250 -150 L255 -150 L255 -145 L260 -145 L260 -140 L255 -140 L250 -140 L250 -145 L255 -145"/>
<path d="M255 -140 L255 -140 L255 -135 L255 -130 L260 -130 L260 -125 L255 -125 L250 -125 L250 -130 L255 -130"/>
<path d="M255 -125 L255 -125 L255 -120 L250 -120 L250 -115 L245 -115 L245 -120 L245 -125 L250 -125 L250 -120"/>
<path d="M245 -120 L245 -120 L240 -120 L240 -125 L235 -125 L235 -130 L240 -130 L245 -130 L245 -125 L240 -125"/>
<path d="M240 -130 L240 -130 L240 -135"/>
<path d="M255 -135 L255 -135 L260 -135 L260 -140 L265 -140 L265 -135 L265 -130 L260 -130 L260 -135"/>
<path d="M265 -135 L265 -135 L270 -135 L270 -130 L275 -130 L275 -125 L270 -125 L265 -125 L265 -130 L270 -130"/>
<path d="M270 -125 L270 -125 L270 -120 L275 -120 L275 -125 L280 -125 L280 -120 L280 -115 L275 -115 L275 -120"/>
<path d="M280 -120 L280 -120 L285 -120 L285 -115 L290 -115 L290 -110 L285 -110 L280 -110 L280 -115 L285 -115"/>
<path d="M285 -110 L285 -110 L285 -105 L280 -105 L280 -100 L275 -100 L275 -105 L275 -110 L280 -110 L280 -105"/>
<path d="M275 -105 L275 -105 L270 -105 L265 -105 L265 -100 L260 -100 L260 -105 L260 -110 L265 -110 L265 -105"/>
<path d="M260 -105 L260 -105 L255 -105 L255 -110 L250 -110 L250 -115 L255 -115 L260 -115 L260 -110 L255 -110"/>
<path d="M255 -115 L255 -115 L255 -120 L260 -120 L260 -125 L265 -125 L265 -120 L265 -115 L260 -115 L260 -120"/>
<path d="M265 -120 L265 -120 L270 -120"/>
<path d="M270 -105 L270 -105 L270 -100 L275 -100 L275 -95 L270 -95 L265 -95 L265 -100 L270 -100"/>
<path d="M270 -95 L270 -95 L270 -90 L275 -90 L275 -95 L280 -95 L280 -90 L280 -85 L275 -85 L275 -90"/>
<path d="M280 -90 L280 -90 L285 -90 L285 -95 L280 -95 L280 -100 L285 -100 L290 -100 L290 -95 L285 -95"/>
<path d="M285 -100 L285 -100 L285 -105 L290 -105 L290 -110 L295 -110 L295 -105 L295 -100 L290 -100 L290 -105"/>
<path d="M295 -105 L295 -105 L300 -105 L300 -100 L305 -100 L305 -95 L300 -95 L295 -95 L295 -100 L300 -100"/>
<path d="M300 -95 L300 -95 L300 -90 L300 -85 L305 -85 L305 -80 L300 -80 L295 -80 L295 -85 L300 -85"/>
<path d="M300 -80 L300 -80 L300 -75 L295 -75 L295 -70 L290 -70 L290 -75 L290 -80 L295 -80 L295 -75"/>
<path d="M290 -75 L290 -75 L285 -75 L285 -80 L280 -80 L280 -85 L285 -85 L290 -85 L290 -80 L285 -80"/>
<path d="M285 -85 L285 -85 L285 -90"/>
<path d="M300 -90 L300 -90 L305 -90 L305 -95 L310 -95 L310 -90 L310 -85 L305 -85 L305 -90"/>
<path d="M310 -90 L310 -90 L315 -90 L315 -85 L320 -85 L320 -80 L315 -80 L310 -80 L310 -85 L315 -85"/>
<path d="M315 -80 L315 -80 L315 -75 L320 -75 L320 -80 L325 -80 L325 -75 L325 -70 L320 -70 L320 -75"/>
<path d="M325 -75 L325 -75 L330 -75 L330 -70 L335 -70 L335 -65 L330 -65 L325 -65 L325 -70 L330 -70"/>
<path d="M330 -65 L330 -65 L330 -60 L325 -60 L325 -55 L320 -55 L320 -60 L320 -65 L325 -65 L325 -60"/>
<path d="M320 -60 L320 -60 L315 -60 L310 -60 L310 -55 L305 -55 L305 -60 L305 -65 L310 -65 L310 -60"/>
<path d="M305 -60 L305 -60 L300 -60 L300 -65 L295 -65 L295 -70 L300 -70 L305 -70 L305 -65 L300 -65"/>
<path d="M300 -70 L300 -70 L300 -75 L305 -75 L305 -80 L310 -80 L310 -75 L310 -70 L305 -70 L305 -75"/>
<path d="M310 -75 L310 -75 L315 -75"/>
<path d="M315 -60 L315 -60 L315 -55 L320 -55 L320 -50 L315 -50 L310 -50 L310 -55 L315 -55"/>
<path d="M315 -50 L315 -50 L315 -45 L310 -45 L310 -40 L305 -40 L305 -45 L305 -50 L310 -50 L310 -45"/>
<path d="M305 -45 L305 -45 L300 -45 L300 -40 L305 -40 L305 -35 L300 -35 L295 -35 L295 -40 L300 -40"/>
<path d="M300 -35 L300 -35 L300 -30 L295 -30 L295 -25 L290 -25 L290 -30 L290 -35 L295 -35 L295 -30"/>
<path d="M290 -30 L290 -30 L285 -30 L285 -35 L280 -35 L280 -40 L285 -40 L290 -40 L290 -35 L285 -35"/>
<path d="M285 -40 L285 -40 L285 -45 L285 -50 L280 -50 L280 -55 L285 -55 L290 -55 L290 -50 L285 -50"/>
<path d="M285 -55 L285 -55 L285 -60 L290 -60 L290 -65 L295 -65 L295 -60 L295 -55 L290 -55 L290 -60"/>
<path d="M295 -60 L295 -60 L300 -60 L300 -55 L305 -55 L305 -50 L300 -50 L295 -50 L295 -55 L300 -55"/>
<path d="M300 -50 L300 -50 L300 -45"/>
<path d="M285 -45 L285 -45 L280 -45 L280 -40 L275 -40 L275 -45 L275 -50 L280 -50 L280 -45"/>
<path d="M275 -45 L275 -45 L270 -45 L265 -45 L265 -40 L260 -40 L260 -45 L260 -50 L265 -50 L265 -45"/>
<path d="M260 -45 L260 -45 L255 -45 L255 -40 L260 -40 L260 -35 L255 -35 L250 -35 L250 -40 L255 -40"/>
<path d="M255 -35 L255 -35 L255 -30 L250 -30 L250 -25 L245 -25 L245 -30 L245 -35 L250 -35 L250 -30"/>
<path d="M245 -30 L245 -30 L240 -30 L240 -35 L235 -35 L235 -40 L240 -40 L245 -40 L245 -35 L240 -35"/>
<path d="M240 -40 L240 -40 L240 -45 L240 -50 L235 -50 L235 -55 L240 -55 L245 -55 L245 -50 L240 -50"/>
<path d="M240 -55 L240 -55 L240 -60 L245 -60 L245 -65 L250 -65 L250 -60 L250 -55 L245 -55 L245 -60"/>
<path d="M250 -60 L250 -60 L255 -60 L255 -55 L260 -55 L260 -50 L255 -50 L250 -50 L250 -55 L255 -55"/>
<path d="M255 -50 L255 -50 L255 -45"/>
<path d="M240 -45 L240 -45 L235 -45 L235 -40 L230 -40 L230 -45 L230 -50 L235 -50 L235 -45"/>
<path d="M230 -45 L230 -45 L225 -45 L225 -50 L220 -50 L220 -55 L225 -55 L230 -55 L230 -50 L225 -50"/>
<path d="M225 -55 L225 -55 L225 -60 L220 -60 L220 -55 L215 -55 L215 -60 L215 -65 L220 -65 L220 -60"/>
<path d="M215 -60 L215 -60 L210 -60 L210 -65 L205 -65 L205 -70 L210 -70 L215 -70 L215 -65 L210 -65"/>
<path d="M210 -70 L210 -70 L210 -75 L215 -75 L215 -80 L220 -80 L220 -75 L220 -70 L215 -70 L215 -75"/>
<path d="M220 -75 L220 -75 L225 -75 L230 -75 L230 -80 L235 -80 L235 -75 L235 -70 L230 -70 L230 -75"/>
<path d="M235 -75 L235 -75 L240 -75 L240 -70 L245 -70 L245 -65 L240 -65 L235 -65 L235 -70 L240 -70"/>
<path d="M240 -65 L240 -65 L240 -60 L235 -60 L235 -55 L230 -55 L230 -60 L230 -65 L235 -65 L235 -60"/>
<path d="M230 -60 L230 -60 L225 -60"/>
<path d="M225 -75 L225 -75 L225 -80 L220 -80 L220 -85 L225 -85 L230 -85 L230 -80 L225 -80"/>
<path d="M225 -85 L225 -85 L225 -90 L230 -90 L230 -95 L235 -95 L235 -90 L235 -85 L230 -85 L230 -90"/>
<path d="M235 -90 L235 -90 L240 -90 L240 -95 L235 -95 L235 -100 L240 -100 L245 -100 L245 -95 L240 -95"/>
<path d="M240 -100 L240 -100 L240 -105 L245 -105 L245 -110 L250 -110 L250 -105 L250 -100 L245 -100 L245 -105"/>
<path d="M250 -105 L250 -105 L255 -105 L255 -100 L260 -100 L260 -95 L255 -95 L250 -95 L250 -100 L255 -100"/>
<path d="M255 -95 L255 -95 L255 -90 L255 -85 L260 -85 L260 -80 L255 -80 L250 -80 L250 -85 L255 -85"/>
<path d="M255 -80 L255 -80 L255 -75 L250 -75 L250 -70 L245 -70 L245 -75 L245 -80 L250 -80 L250 -75"/>
<path d="M245 -75 L245 -75 L240 -75 L240 -80 L235 -80 L235 -85 L240 -85 L245 -85 L245 -80 L240 -80"/>
<path d="M240 -85 L240 -85 L240 -90"/>
<path d="M255 -90 L255 -90 L260 -90 L260 -95 L265 -95 L265 -90 L265 -85 L260 -85 L260 -90"/>
<path d="M265 -90 L265 -90 L270 -90"/>
<path d="M270 -45 L270 -45 L270 -40 L275 -40 L275 -35 L270 -35 L265 -35 L265 -40 L270 -40"/>
<path d="M270 -35 L270 -35 L270 -30 L275 -30 L275 -35 L280 -35 L280 -30 L280 -25 L275 -25 L275 -30"/>
<path d="M280 -30 L280 -30 L285 -30 L285 -25 L290 -25 L290 -20 L285 -20 L280 -20 L280 -25 L285 -25"/>
<path d="M285 -20 L285 -20 L285 -15 L280 -15 L280 -10 L275 -10 L275 -15 L275 -20 L280 -20 L280 -15"/>
<path d="M275 -15 L275 -15 L270 -15 L265 -15 L265 -10 L260 -10 L260 -15 L260 -20 L265 -20 L265 -15"/>
<path d="M260 -15 L260 -15 L255 -15 L255 -20 L250 -20 L250 -25 L255 -25 L260 -25 L260 -20 L255 -20"/>
<path d="M255 -25 L255 -25 L255 -30 L260 -30 L260 -35 L265 -35 L265 -30 L265 -25 L260 -25 L260 -30"/>
<path d="M265 -30 L265 -30 L270 -30"/>
<path d="M270 -15 L270 -15 L270 -10 L275 -10 L275 -5 L270 -5 L265 -5 L265 -10 L270 -10"/>
<path d="M270 -5 L270 -5 L270 -6.99174e-12 L270 5 L275 5 L275 10 L270 10 L265 10 L265 5 L270 5"/>
<path d="M270 10 L270 10 L270 15 L275 15 L275 10 L280 10 L280 15 L280 20 L275 20 L275 15"/>
<path d="M280 15 L280 15 L285 15 L285 20 L290 20 L290 25 L285 25 L280 25 L280 20 L285 20"/>
<path d="M285 25 L285 25 L285 30 L280 30 L280 35 L275 35 L275 30 L275 25 L280 25 L280 30"/>
<path d="M275 30 L275 30 L270 30 L265 30 L265 35 L260 35 L260 30 L260 25 L265 25 L265 30"/>
<path d="M260 30 L260 30 L255 30 L255 25 L250 25 L250 20 L255 20 L260 20 L260 25 L255 25"/>
<path d="M255 20 L255 20 L255 15 L260 15 L260 10 L265 10 L265 15 L265 20 L260 20 L260 15"/>
<path d="M265 15 L265 15 L270 15"/>
<path d="M270 30 L270 30 L270 35 L275 35 L275 40 L270 40 L265 40 L265 35 L270 35"/>
<path d="M270 40 L270 40 L270 45 L275 45 L275 40 L280 40 L280 45 L280 50 L275 50 L275 45"/>
<path d="M280 45 L280 45 L285 45 L285 40 L280 40 L280 35 L285 35 L290 35 L290 40 L285 40"/>
<path d="M285 35 L285 35 L285 30 L290 30 L290 25 L295 25 L295 30 L295 35 L290 35 L290 30"/>
<path d="M295 30 L295 30 L300 30 L300 35 L305 35 L305 40 L300 40 L295 40 L295 35 L300 35"/>
<path d="M300 40 L300 40 L300 45 L300 50 L305 50 L305 55 L300 55 L295 55 L295 50 L300 50"/>
<path d="M300 55 L300 55 L300 60 L295 60 L295 65 L290 65 L290 60 L290 55 L295 55 L295 60"/>
<path d="M290 60 L290 60 L285 60 L285 55 L280 55 L280 50 L285 50 L290 50 L290 55 L285 55"/>
<path d="M285 50 L285 50 L285 45"/>
<path d="M300 45 L300 45 L305 45 L305 40 L310 40 L310 45 L310 50 L305 50 L305 45"/>
<path d="M310 45 L310 45 L315 45 L315 50 L320 50 L320 55 L315 55 L310 55 L310 50 L315 50"/>
<path d="M315 55 L315 55 L315 60 L320 60 L320 55 L325 55 L325 60 L325 65 L320 65 L320 60"/>
<path d="M325 60 L325 60 L330 60 L330 65 L335 65 L335 70 L330 70 L325 70 L325 65 L330 65"/>
<path d="M330 70 L330 70 L330 75 L325 75 L325 80 L320 80 L320 75 L320 70 L325 70 L325 75"/>
<path d="M320 75 L320 75 L315 75 L310 75 L310 80 L305 80 L305 75 L305 70 L310 70 L310 75"/>
<path d="M305 75 L305 75 L300 75 L300 70 L295 70 L295 65 L300 65 L305 65 L305 70 L300 70"/>
<path d="M300 65 L300 65 L300 60 L305 60 L305 55 L310 55 L310 60 L310 65 L305 65 L305 60"/>
<path d="M310 60 L310 60 L315 60"/>
<path d="M315 75 L315 75 L315 80 L320 80 L320 85 L315 85 L310 85 L310 80 L315 80"/>
<path d="M315 85 L315 85 L315 90 L310 90 L310 95 L305 95 L305 90 L305 85 L310 85 L310 90"/>
<path d="M305 90 L305 90 L300 90 L300 95 L305 95 L305 100 L300 100 L295 100 L295 95 L300 95"/>
<path d="M300 100 L300 100 L300 105 L295 105 L295 110 L290 110 L290 105 L290 100 L295 100 L295 105"/>
<path d="M290 105 L290 105 L285 105 L285 100 L280 100 L280 95 L285 95 L290 95 L290 100 L285 100"/>
<path d="M285 95 L285 95 L285 90 L285 85 L280 85 L280 80 L285 80 L290 80 L290 85 L285 85"/>
<path d="M285 80 L285 80 L285 75 L290 75 L290 70 L295 70 L295 75 L295 80 L290 80 L290 75"/>
<path d="M295 75 L295 75 L300 75 L300 80 L305 80 L305 85 L300 85 L295 85 L295 80 L300 80"/>
<path d="M300 85 L300 85 L300 90"/>
<path d="M285 90 L285 90 L280 90 L280 95 L275 95 L275 90 L275 85 L280 85 L280 90"/>
<path d="M275 90 L275 90 L270 90 L265 90 L265 95 L260 95 L260 90 L260 85 L265 85 L265 90"/>
<path d="M260 90 L260 90 L255 90 L255 95 L260 95 L260 100 L255 100 L250 100 L250 95 L255 95"/>
<path d="M255 100 L255 100 L255 105 L250 105 L250 110 L245 110 L245 105 L245 100 L250 100 L250 105"/>
<path d="M245 105 L245 105 L240 105 L240 100 L235 100 L235 95 L240 95 L245 95 L245 100 L240 100"/>
<path d="M240 95 L240 95 L240 90 L240 85 L235 85 L235 80 L240 80 L245 80 L245 85 L240 85"/>
<path d="M240 80 L240 80 L240 75 L245 75 L245 70 L250 70 L250 75 L250 80 L245 80 L245 75"/>
<path d="M250 75 L250 75 L255 75 L255 80 L260 80 L260 85 L255 85 L250 85 L250 80 L255 80"/>
<path d="M255 85 L255 85 L255 90"/>
<path d="M240 90 L240 90 L235 90 L235 95 L230 95 L230 90 L230 85 L235 85 L235 90"/>
<path d="M230 90 L230 90 L225 90 L225 85 L220 85 L220 80 L225 80 L230 80 L230 85 L225 85"/>
<path d="M225 80 L225 80 L225 75 L220 75 L220 80 L215 80 L215 75 L215 70 L220 70 L220 75"/>
<path d="M215 75 L215 75 L210 75 L210 70 L205 70 L205 65 L210 65 L215 65 L215 70 L210 70"/>
<path d="M210 65 L210 65 L210 60 L215 60 L215 55 L220 55 L220 60 L220 65 L215 65 L215 60"/>
<path d="M220 60 L220 60 L225 60 L230 60 L230 55 L235 55 L235 60 L235 65 L230 65 L230 60"/>
<path d="M235 60 L235 60 L240 60 L240 65 L245 65 L245 70 L240 70 L235 70 L235 65 L240 65"/>
<path d="M240 70 L240 70 L240 75 L235 75 L235 80 L230 80 L230 75 L230 70 L235 70 L235 75"/>
<path d="M230 75 L230 75 L225 75"/>
<path d="M225 60 L225 60 L225 55 L220 55 L220 50 L225 50 L230 50 L230 55 L225 55"/>
<path d="M225 50 L225 50 L225 45 L230 45 L230 40 L235 40 L235 45 L235 50 L230 50 L230 45"/>
<path d="M235 45 L235 45 L240 45 L240 40 L235 40 L235 35 L240 35 L245 35 L245 40 L240 40"/>
<path d="M240 35 L240 35 L240 30 L245 30 L245 25 L250 25 L250 30 L250 35 L245 35 L245 30"/>
<path d="M250 30 L250 30 L255 30 L255 35 L260 35 L260 40 L255 40 L250 40 L250 35 L255 35"/>
<path d="M255 40 L255 40 L255 45 L255 50 L260 50 L260 55 L255 55 L250 55 L250 50 L255 50"/>
<path d="M255 55 L255 55 L255 60 L250 60 L250 65 L245 65 L245 60 L245 55 L250 55 L250 60"/>
<path d="M245 60 L245 60 L240 60 L240 55 L235 55 L235 50 L240 50 L245 50 L245 55 L240 55"/>
<path d="M240 50 L240 50 L240 45"/>
<path d="M255 45 L255 45 L260 45 L260 40 L265 40 L265 45 L265 50 L260 50 L260 45"/>
<path d="M265 45 L265 45 L270 45"/>
<path d="M270 90 L270 90 L270 95 L275 95 L275 100 L270 100 L265 100 L265 95 L270 95"/>
<path d="M270 100 L270 100 L270 105 L275 105 L275 100 L280 100 L280 105 L280 110 L275 110 L275 105"/>
<path d="M280 105 L280 105 L285 105 L285 110 L290 110 L290 115 L285 115 L280 115 L280 110 L285 110"/>
<path d="M285 115 L285 115 L285 120 L280 120 L280 125 L275 125 L275 120 L275 115 L280 115 L280 120"/>
<path d="M275 120 L275 120 L270 120 L265 120 L265 125 L260 125 L260 120 L260 115 L265 115 L265 120"/>
<path d="M260 120 L260 120 L255 120 L255 115 L250 115 L250 110 L255 110 L260 110 L260 115 L255 115"/>
<path d="M255 110 L255 110 L255 105 L260 105 L260 100 L265 100 L265 105 L265 110 L260 110 L260 105"/>
<path d="M265 105 L265 105 L270 105"/>
<path d="M270 120 L270 120 L270 125 L275 125 L275 130 L270 130 L265 130 L265 125 L270 125"/>
<path d="M270 130 L270 130 L270 135 L265 135 L265 140 L260 140 L260 135 L260 130 L265 130 L265 135"/>
<path d="M260 135 L260 135 L255 135 L255 140 L260 140 L260 145 L255 145 L250 145 L250 140 L255 140"/>
<path d="M255 145 L255 145 L255 150 L250 150 L250 155 L245 155 L245 150 L245 145 L250 145 L250 150"/>
<path d="M245 150 L245 150 L240 150 L240 145 L235 145 L235 140 L240 140 L245 140 L245 145 L240 145"/>
<path d="M240 140 L240 140 L240 135 L240 130 L235 130 L235 125 L240 125 L245 125 L245 130 L240 130"/>
<path d="M240 125 L240 125 L240 120 L245 120 L245 115 L250 115 L250 120 L250 125 L245 125 L245 120"/>
<path d="M250 120 L250 120 L255 120 L255 125 L260 125 L260 130 L255 130 L250 130 L250 125 L255 125"/>
<path d="M255 130 L255 130 L255 135"/>
<path d="M240 135 L240 135 L235 135 L235 140 L230 140 L230 135 L230 130 L235 130 L235 135"/>
<path d="M230 135 L230 135 L225 135 L225 140 L230 140 L230 145 L225 145 L220 145 L220 140 L225 140"/>
<path d="M225 145 L225 145 L225 150 L230 150 L230 145 L235 145 L235 150 L235 155 L230 155 L230 150"/>
<path d="M235 150 L235 150 L240 150 L240 155 L245 155 L245 160 L240 160 L235 160 L235 155 L240 155"/>
<path d="M240 160 L240 160 L240 165 L235 165 L235 170 L230 170 L230 165 L230 160 L235 160 L235 165"/>
<path d="M230 165 L230 165 L225 165 L220 165 L220 170 L215 170 L215 165 L215 160 L220 160 L220 165"/>
<path d="M215 165 L215 165 L210 165 L210 160 L205 160 L205 155 L210 155 L215 155 L215 160 L210 160"/>
<path d="M210 155 L210 155 L210 150 L215 150 L215 145 L220 145 L220 150 L220 155 L215 155 L215 150"/>
<path d="M220 150 L220 150 L225 150"/>
<path d="M225 165 L225 165 L225 170 L230 170 L230 175 L225 175 L220 175 L220 170 L225 170"/>
<path d="M225 175 L225 175 L225 180 L220 180 L220 185 L215 185 L215 180 L215 175 L220 175 L220 180"/>
<path d="M215 180 L215 180 L210 180 L210 185 L215 185 L215 190 L210 190 L205 190 L205 185 L210 185"/>
<path d="M210 190 L210 190 L210 195 L205 195 L205 200 L200 200 L200 195 L200 190 L205 190 L205 195"/>
<path d="M200 195 L200 195 L195 195 L195 190 L190 190 L190 185 L195 185 L200 185 L200 190 L195 190"/>
<path d="M195 185 L195 185 L195 180 L195 175 L190 175 L190 170 L195 170 L200 170 L200 175 L195 175"/>
<path d="M195 170 L195 170 L195 165 L200 165 L200 160 L205 160 L205 165 L205 170 L200 170 L200 165"/>
<path d="M205 165 L205 165 L210 165 L210 170 L215 170 L215 175 L210 175 L205 175 L205 170 L210 170"/>
<path d="M210 175 L210 175 L210 180"/>
<path d="M195 180 L195 180 L190 180 L190 185 L185 185 L185 180 L185 175 L190 175 L190 180"/>
<path d="M185 180 L185 180 L180 180 L180 175 L175 175 L175 170 L180 170 L185 170 L185 175 L180 175"/>
<path d="M180 170 L180 170 L180 165 L175 165 L175 170 L170 170 L170 165 L170 160 L175 160 L175 165"/>
<path d="M170 165 L170 165 L165 165 L165 160 L160 160 L160 155 L165 155 L170 155 L170 160 L165 160"/>
<path d="M165 155 L165 155 L165 150 L170 150 L170 145 L175 145 L175 150 L175 155 L170 155 L170 150"/>
<path d="M175 150 L175 150 L180 150 L185 150 L185 145 L190 145 L190 150 L190 155 L185 155 L185 150"/>
<path d="M190 150 L190 150 L195 150 L195 155 L200 155 L200 160 L195 160 L190 160 L190 155 L195 155"/>
<path d="M195 160 L195 160 L195 165 L190 165 L190 170 L185 170 L185 165 L185 160 L190 160 L190 165"/>
<path d="M185 165 L185 165 L180 165"/>
<path d="M180 150 L180 150 L180 145 L175 145 L175 140 L180 140 L185 140 L185 145 L180 145"/>
<path d="M180 140 L180 140 L180 135 L180 130 L175 130 L175 125 L180 125 L185 125 L185 130 L180 130"/>
<path d="M180 125 L180 125 L180 120 L175 120 L175 125 L170 125 L170 120 L170 115 L175 115 L175 120"/>
<path d="M170 120 L170 120 L165 120 L165 115 L160 115 L160 110 L165 110 L170 110 L170 115 L165 115"/>
<path d="M165 110 L165 110 L165 105 L170 105 L170 100 L175 100 L175 105 L175 110 L170 110 L170 105"/>
<path d="M175 105 L175 105 L180 105 L185 105 L185 100 L190 100 L190 105 L190 110 L185 110 L185 105"/>
<path d="M190 105 L190 105 L195 105 L195 110 L200 110 L200 115 L195 115 L190 115 L190 110 L195 110"/>
<path d="M195 115 L195 115 L195 120 L190 120 L190 125 L185 125 L185 120 L185 115 L190 115 L190 120"/>
<path d="M185 120 L185 120 L180 120"/>
<path d="M180 105 L180 105 L180 100 L175 100 L175 95 L180 95 L185 95 L185 100 L180 100"/>
<path d="M180 95 L180 95 L180 90 L185 90 L185 85 L190 85 L190 90 L190 95 L185 95 L185 90"/>
<path d="M190 90 L190 90 L195 90 L195 85 L190 85 L190 80 L195 80 L200 80 L200 85 L195 85"/>
<path d="M195 80 L195 80 L195 75 L200 75 L200 70 L205 70 L205 75 L205 80 L200 80 L200 75"/>
<path d="M205 75 L205 75 L210 75 L210 80 L215 80 L215 85 L210 85 L205 85 L205 80 L210 80"/>
<path d="M210 85 L210 85 L210 90 L210 95 L215 95 L215 100 L210 100 L205 100 L205 95 L210 95"/>
<path d="M210 100 L210 100 L210 105 L205 105 L205 110 L200 110 L200 105 L200 100 L205 100 L205 105"/>
<path d="M200 105 L200 105 L195 105 L195 100 L190 100 L190 95 L195 95 L200 95 L200 100 L195 100"/>
<path d="M195 95 L195 95 L195 90"/>
<path d="M210 90 L210 90 L215 90 L215 85 L220 85 L220 90 L220 95 L215 95 L215 90"/>
<path d="M220 90 L220 90 L225 90 L225 95 L230 95 L230 100 L225 100 L220 100 L220 95 L225 95"/>
<path d="M225 100 L225 100 L225 105 L230 105 L230 100 L235 100 L235 105 L235 110 L230 110 L230 105"/>
<path d="M235 105 L235 105 L240 105 L240 110 L245 110 L245 115 L240 115 L235 115 L235 110 L240 110"/>
<path d="M240 115 L240 115 L240 120 L235 120 L235 125 L230 125 L230 120 L230 115 L235 115 L235 120"/>
<path d="M230 120 L230 120 L225 120 L220 120 L220 125 L215 125 L215 120 L215 115 L220 115 L220 120"/>
<path d="M215 120 L215 120 L210 120 L210 115 L205 115 L205 110 L210 110 L215 110 L215 115 L210 115"/>
<path d="M210 110 L210 110 L210 105 L215 105 L215 100 L220 100 L220 105 L220 110 L215 110 L215 105"/>
<path d="M220 105 L220 105 L225 105"/>
<path d="M225 120 L225 120 L225 125 L230 125 L230 130 L225 130 L220 130 L220 125 L225 125"/>
<path d="M225 130 L225 130 L225 135"/>
<path d="M180 135 L180 135 L175 135 L175 140 L170 140 L170 135 L170 130 L175 130 L175 135"/>
<path d="M170 135 L170 135 L165 135 L165 140 L170 140 L170 145 L165 145 L160 145 L160 140 L165 140"/>
<path d="M165 145 L165 145 L165 150 L160 150 L160 155 L155 155 L155 150 L155 145 L160 145 L160 150"/>
<path d="M155 150 L155 150 L150 150 L150 145 L145 145 L145 140 L150 140 L155 140 L155 145 L150 145"/>
<path d="M150 140 L150 140 L150 135 L150 130 L145 130 L145 125 L150 125 L155 125 L155 130 L150 130"/>
<path d="M150 125 L150 125 L150 120 L155 120 L155 115 L160 115 L160 120 L160 125 L155 125 L155 120"/>
<path d="M160 120 L160 120 L165 120 L165 125 L170 125 L170 130 L165 130 L160 130 L160 125 L165 125"/>
<path d="M165 130 L165 130 L165 135"/>
<path d="M150 135 L150 135 L145 135 L145 140 L140 140 L140 135 L140 130 L145 130 L145 135"/>
<path d="M140 135 L140 135 L135 135 L135 130 L130 130 L130 125 L135 125 L140 125 L140 130 L135 130"/>
<path d="M135 125 L135 125 L135 120 L130 120 L130 125 L125 125 L125 120 L125 115 L130 115 L130 120"/>
<path d="M125 120 L125 120 L120 120 L120 115 L115 115 L115 110 L120 110 L125 110 L125 115 L120 115"/>
<path d="M120 110 L120 110 L120 105 L125 105 L125 100 L130 100 L130 105 L130 110 L125 110 L125 105"/>
<path d="M130 105 L130 105 L135 105 L140 105 L140 100 L145 100 L145 105 L145 110 L140 110 L140 105"/>
<path d="M145 105 L145 105 L150 105 L150 110 L155 110 L155 115 L150 115 L145 115 L145 110 L150 110"/>
<path d="M150 115 L150 115 L150 120 L145 120 L145 125 L140 125 L140 120 L140 115 L145 115 L145 120"/>
<path d="M140 120 L140 120 L135 120"/>
<path d="M135 105 L135 105 L135 100 L130 100 L130 95 L135 95 L140 95 L140 100 L135 100"/>
<path d="M135 95 L135 95 L135 90 L130 90 L130 95 L125 95 L125 90 L125 85 L130 85 L130 90"/>
<path d="M125 90 L125 90 L120 90 L120 95 L125 95 L125 100 L120 100 L115 100 L115 95 L120 95"/>
<path d="M120 100 L120 100 L120 105 L115 105 L115 110 L110 110 L110 105 L110 100 L115 100 L115 105"/>
<path d="M110 105 L110 105 L105 105 L105 100 L100 100 L100 95 L105 95 L110 95 L110 100 L105 100"/>
<path d="M105 95 L105 95 L105 90 L105 85 L100 85 L100 80 L105 80 L110 80 L110 85 L105 85"/>
<path d="M105 80 L105 80 L105 75 L110 75 L110 70 L115 70 L115 75 L115 80 L110 80 L110 75"/>
<path d="M115 75 L115 75 L120 75 L120 80 L125 80 L125 85 L120 85 L115 85 L115 80 L120 80"/>
<path d="M120 85 L120 85 L120 90"/>
<path d="M105 90 L105 90 L100 90 L100 95 L95 95 L95 90 L95 85 L100 85 L100 90"/>
<path d="M95 90 L95 90 L90 90 L90 85 L85 85 L85 80 L90 80 L95 80 L95 85 L90 85"/>
<path d="M90 80 L90 80 L90 75 L85 75 L85 80 L80 80 L80 75 L80 70 L85 70 L85 75"/>
<path d="M80 75 L80 75 L75 75 L75 70 L70 70 L70 65 L75 65 L80 65 L80 70 L75 70"/>
<path d="M75 65 L75 65 L75 60 L80 60 L80 55 L85 55 L85 60 L85 65 L80 65 L80 60"/>
<path d="M85 60 L85 60 L90 60 L95 60 L95 55 L100 55 L100 60 L100 65 L95 65 L95 60"/>
<path d="M100 60 L100 60 L105 60 L105 65 L110 65 L110 70 L105 70 L100 70 L100 65 L105 65"/>
<path d="M105 70 L105 70 L105 75 L100 75 L100 80 L95 80 L95 75 L95 70 L100 70 L100 75"/>
<path d="M95 75 L95 75 L90 75"/>
<path d="M90 60 L90 60 L90 55 L85 55 L85 50 L90 50 L95 50 L95 55 L90 55"/>
<path d="M90 50 L90 50 L90 45 L95 45 L95 40 L100 40 L100 45 L100 50 L95 50 L95 45"/>
<path d="M100 45 L100 45 L105 45 L105 40 L100 40 L100 35 L105 35 L110 35 L110 40 L105 40"/>
<path d="M105 35 L105 35 L105 30 L110 30 L110 25 L115 25 L115 30 L115 35 L110 35 L110 30"/>
<path d="M115 30 L115 30 L120 30 L120 35 L125 35 L125 40 L120 40 L115 40 L115 35 L120 35"/>
<path d="M120 40 L120 40 L120 45 L120 50 L125 50 L125 55 L120 55 L115 55 L115 50 L120 50"/>
<path d="M120 55 L120 55 L120 60 L115 60 L115 65 L110 65 L110 60 L110 55 L115 55 L115 60"/>
<path d="M110 60 L110 60 L105 60 L105 55 L100 55 L100 50 L105 50 L110 50 L110 55 L105 55"/>
<path d="M105 50 L105 50 L105 45"/>
<path d="M120 45 L120 45 L125 45 L125 40 L130 40 L130 45 L130 50 L125 50 L125 45"/>
<path d="M130 45 L130 45 L135 45 L140 45 L140 40 L145 40 L145 45 L145 50 L140 50 L140 45"/>
<path d="M145 45 L145 45 L150 45 L150 40 L145 40 L145 35 L150 35 L155 35 L155 40 L150 40"/>
<path d="M150 35 L150 35 L150 30 L155 30 L155 25 L160 25 L160 30 L160 35 L155 35 L155 30"/>
<path d="M160 30 L160 30 L165 30 L165 35 L170 35 L170 40 L165 40 L160 40 L160 35 L165 35"/>
<path d="M165 40 L165 40 L165 45 L165 50 L170 50 L170 55 L165 55 L160 55 L160 50 L165 50"/>
<path d="M165 55 L165 55 L165 60 L160 60 L160 65 L155 65 L155 60 L155 55 L160 55 L160 60"/>
<path d="M155 60 L155 60 L150 60 L150 55 L145 55 L145 50 L150 50 L155 50 L155 55 L150 55"/>
<path d="M150 50 L150 50 L150 45"/>
<path d="M165 45 L165 45 L170 45 L170 40 L175 40 L175 45 L175 50 L170 50 L170 45"/>
<path d="M175 45 L175 45 L180 45 L180 50 L185 50 L185 55 L180 55 L175 55 L175 50 L180 50"/>
<path d="M180 55 L180 55 L180 60 L185 60 L185 55 L190 55 L190 60 L190 65 L185 65 L185 60"/>
<path d="M190 60 L190 60 L195 60 L195 65 L200 65 L200 70 L195 70 L190 70 L190 65 L195 65"/>
<path d="M195 70 L195 70 L195 75 L190 75 L190 80 L185 80 L185 75 L185 70 L190 70 L190 75"/>
<path d="M185 75 L185 75 L180 75 L175 75 L175 80 L170 80 L170 75 L170 70 L175 70 L175 75"/>
<path d="M170 75 L170 75 L165 75 L165 70 L160 70 L160 65 L165 65 L170 65 L170 70 L165 70"/>
<path d="M165 65 L165 65 L165 60 L170 60 L170 55 L175 55 L175 60 L175 65 L170 65 L170 60"/>
<path d="M175 60 L175 60 L180 60"/>
<path d="M180 75 L180 75 L180 80 L185 80 L185 85 L180 85 L175 85 L175 80 L180 80"/>
<path d="M180 85 L180 85 L180 90 L175 90 L175 95 L170 95 L170 90 L170 85 L175 85 L175 90"/>
<path d="M170 90 L170 90 L165 90 L165 95 L170 95 L170 100 L165 100 L160 100 L160 95 L165 95"/>
<path d="M165 100 L165 100 L165 105 L160 105 L160 110 L155 110 L155 105 L155 100 L160 100 L160 105"/>
<path d="M155 105 L155 105 L150 105 L150 100 L145 100 L145 95 L150 95 L155 95 L155 100 L150 100"/>
<path d="M150 95 L150 95 L150 90 L150 85 L145 85 L145 80 L150 80 L155 80 L155 85 L150 85"/>
<path d="M150 80 L150 80 L150 75 L155 75 L155 70 L160 70 L160 75 L160 80 L155 80 L155 75"/>
<path d="M160 75 L160 75 L165 75 L165 80 L170 80 L170 85 L165 85 L160 85 L160 80 L165 80"/>
<path d="M165 85 L165 85 L165 90"/>
<path d="M150 90 L150 90 L145 90 L145 95 L140 95 L140 90 L140 85 L145 85 L145 90"/>
<path d="M140 90 L140 90 L135 90"/>
<path d="M135 45 L135 45 L135 40 L130 40 L130 35 L135 35 L140 35 L140 40 L135 40"/>
<path d="M135 35 L135 35 L135 30 L130 30 L130 35 L125 35 L125 30 L125 25 L130 25 L130 30"/>
<path d="M125 30 L125 30 L120 30 L120 25 L115 25 L115 20 L120 20 L125 20 L125 25 L120 25"/>
<path d="M120 20 L120 20 L120 15 L125 15 L125 10 L130 10 L130 15 L130 20 L125 20 L125 15"/>
<path d="M130 15 L130 15 L135 15 L140 15 L140 10 L145 10 L145 15 L145 20 L140 20 L140 15"/>
<path d="M145 15 L145 15 L150 15 L150 20 L155 20 L155 25 L150 25 L145 25 L145 20 L150 20"/>
<path d="M150 25 L150 25 L150 30 L145 30 L145 35 L140 35 L140 30 L140 25 L145 25 L145 30"/>
<path d="M140 30 L140 30 L135 30"/>
<path d="M135 15 L135 15 L135 10 L130 10 L130 5 L135 5 L140 5 L140 10 L135 10"/>
<path d="M135 5 L135 5 L135 6.5512e-12"/>
<path d="M270 -1.03783e-11 L270 -1.03783e-11 L275 -1.10053e-11 L275 -5 L280 -5 L280 -1.16325e-11 L280 5 L275 5 L275 -1.10045e-11"/>
<path d="M280 -1.16328e-11 L280 -1.16328e-11 L285 -1.2261e-11 L285 -5 L280 -5 L280 -10 L285 -10 L290 -10 L290 -5 L285 -5"/>
<path d="M285 -10 L285 -10 L285 -15 L290 -15 L290 -20 L295 -20 L295 -15 L295 -10 L290 -10 L290 -15"/>
<path d="M295 -15 L295 -15 L300 -15 L300 -10 L305 -10 L305 -5 L300 -5 L295 -5 L295 -10 L300 -10"/>
<path d="M300 -5 L300 -5 L300 -1.41487e-11 L300 5 L305 5 L305 10 L300 10 L295 10 L295 5 L300 5"/>
<path d="M300 10 L300 10 L300 15 L295 15 L295 20 L290 20 L290 15 L290 10 L295 10 L295 15"/>
<path d="M290 15 L290 15 L285 15 L285 10 L280 10 L280 5 L285 5 L290 5 L290 10 L285 10"/>
<path d="M285 5 L285 5 L285 -1.22498e-11"/>
<path d="M300 -1.41602e-11 L300 -1.41602e-11 L305 -1.4797e-11 L305 -5 L310 -5 L310 -1.54339e-11 L310 5 L305 5 L305 -1.47962e-11"/>
<path d="M310 -1.54342e-11 L310 -1.54342e-11 L315 -1.60722e-11 L315 -5 L310 -5 L310 -10 L315 -10 L320 -10 L320 -5 L315 -5"/>
<path d="M315 -10 L315 -10 L315 -15 L310 -15 L310 -10 L305 -10 L305 -15 L305 -20 L310 -20 L310 -15"/>
<path d="M305 -15 L305 -15 L300 -15 L300 -20 L295 -20 L295 -25 L300 -25 L305 -25 L305 -20 L300 -20"/>
<path d="M300 -25 L300 -25 L300 -30 L305 -30 L305 -35 L310 -35 L310 -30 L310 -25 L305 -25 L305 -30"/>
<path d="M310 -30 L310 -30 L315 -30 L320 -30 L320 -35 L325 -35 L325 -30 L325 -25 L320 -25 L320 -30"/>
<path d="M325 -30 L325 -30 L330 -30 L330 -25 L335 -25 L335 -20 L330 -20 L325 -20 L325 -25 L330 -25"/>
<path d="M330 -20 L330 -20 L330 -15 L325 -15 L325 -10 L320 -10 L320 -15 L320 -20 L325 -20 L325 -15"/>
<path d="M320 -15 L320 -15 L315 -15"/>
<path d="M315 -30 L315 -30 L315 -35 L310 -35 L310 -40 L315 -40 L320 -40 L320 -35 L315 -35"/>
<path d="M315 -40 L315 -40 L315 -45 L320 -45 L320 -50 L325 -50 L325 -45 L325 -40 L320 -40 L320 -45"/>
<path d="M325 -45 L325 -45 L330 -45 L330 -50 L325 -50 L325 -55 L330 -55 L335 -55 L335 -50 L330 -50"/>
<path d="M330 -55 L330 -55 L330 -60 L335 -60 L335 -65 L340 -65 L340 -60 L340 -55 L335 -55 L335 -60"/>
<path d="M340 -60 L340 -60 L345 -60 L345 -55 L350 -55 L350 -50 L345 -50 L340 -50 L340 -55 L345 -55"/>
<path d="M345 -50 L345 -50 L345 -45 L345 -40 L350 -40 L350 -35 L345 -35 L340 -35 L340 -40 L345 -40"/>
<path d="M345 -35 L345 -35 L345 -30 L340 -30 L340 -25 L335 -25 L335 -30 L335 -35 L340 -35 L340 -30"/>
<path d="M335 -30 L335 -30 L330 -30 L330 -35 L325 -35 L325 -40 L330 -40 L335 -40 L335 -35 L330 -35"/>
<path d="M330 -40 L330 -40 L330 -45"/>
<path d="M345 -45 L345 -45 L350 -45 L350 -50 L355 -50 L355 -45 L355 -40 L350 -40 L350 -45"/>
<path d="M355 -45 L355 -45 L360 -45 L360 -40 L365 -40 L365 -35 L360 -35 L355 -35 L355 -40 L360 -40"/>
<path d="M360 -35 L360 -35 L360 -30 L365 -30 L365 -35 L370 -35 L370 -30 L370 -25 L365 -25 L365 -30"/>
<path d="M370 -30 L370 -30 L375 -30 L375 -25 L380 -25 L380 -20 L375 -20 L370 -20 L370 -25 L375 -25"/>
<path d="M375 -20 L375 -20 L375 -15 L370 -15 L370 -10 L365 -10 L365 -15 L365 -20 L370 -20 L370 -15"/>
<path d="M365 -15 L365 -15 L360 -15 L355 -15 L355 -10 L350 -10 L350 -15 L350 -20 L355 -20 L355 -15"/>
<path d="M350 -15 L350 -15 L345 -15 L345 -20 L340 -20 L340 -25 L345 -25 L350 -25 L350 -20 L345 -20"/>
<path d="M345 -25 L345 -25 L345 -30 L350 -30 L350 -35 L355 -35 L355 -30 L355 -25 L350 -25 L350 -30"/>
<path d="M355 -30 L355 -30 L360 -30"/>
<path d="M360 -15 L360 -15 L360 -10 L365 -10 L365 -5 L360 -5 L355 -5 L355 -10 L360 -10"/>
<path d="M360 -5 L360 -5 L360 -2.19771e-11 L360 5 L365 5 L365 10 L360 10 L355 10 L355 5 L360 5"/>
<path d="M360 10 L360 10 L360 15 L365 15 L365 10 L370 10 L370 15 L370 20 L365 20 L365 15"/>
<path d="M370 15 L370 15 L375 15 L375 20 L380 20 L380 25 L375 25 L370 25 L370 20 L375 20"/>
<path d="M375 25 L375 25 L375 30 L370 30 L370 35 L365 35 L365 30 L365 25 L370 25 L370 30"/>
<path d="M365 30 L365 30 L360 30 L355 30 L355 35 L350 35 L350 30 L350 25 L355 25 L355 30"/>
<path d="M350 30 L350 30 L345 30 L345 25 L340 25 L340 20 L345 20 L350 20 L350 25 L345 25"/>
<path d="M345 20 L345 20 L345 15 L350 15 L350 10 L355 10 L355 15 L355 20 L350 20 L350 15"/>
<path d="M355 15 L355 15 L360 15"/>
<path d="M360 30 L360 30 L360 35 L365 35 L365 40 L360 40 L355 40 L355 35 L360 35"/>
<path d="M360 40 L360 40 L360 45 L355 45 L355 50 L350 50 L350 45 L350 40 L355 40 L355 45"/>
<path d="M350 45 L350 45 L345 45 L345 50 L350 50 L350 55 L345 55 L340 55 L340 50 L345 50"/>
<path d="M345 55 L345 55 L345 60 L340 60 L340 65 L335 65 L335 60 L335 55 L340 55 L340 60"/>
<path d="M335 60 L335 60 L330 60 L330 55 L325 55 L325 50 L330 50 L335 50 L335 55 L330 55"/>
<path d="M330 50 L330 50 L330 45 L330 40 L325 40 L325 35 L330 35 L335 35 L335 40 L330 40"/>
<path d="M330 35 L330 35 L330 30 L335 30 L335 25 L340 25 L340 30 L340 35 L335 35 L335 30"/>
<path d="M340 30 L340 30 L345 30 L345 35 L350 35 L350 40 L345 40 L340 40 L340 35 L345 35"/>
<path d="M345 40 L345 40 L345 45"/>
<path d="M330 45 L330 45 L325 45 L325 50 L320 50 L320 45 L320 40 L325 40 L325 45"/>
<path d="M320 45 L320 45 L315 45 L315 40 L310 40 L310 35 L315 35 L320 35 L320 40 L315 40"/>
<path d="M315 35 L315 35 L315 30 L310 30 L310 35 L305 35 L305 30 L305 25 L310 25 L310 30"/>
<path d="M305 30 L305 30 L300 30 L300 25 L295 25 L295 20 L300 20 L305 20 L305 25 L300 25"/>
<path d="M300 20 L300 20 L300 15 L305 15 L305 10 L310 10 L310 15 L310 20 L305 20 L305 15"/>
<path d="M310 15 L310 15 L315 15 L320 15 L320 10 L325 10 L325 15 L325 20 L320 20 L320 15"/>
<path d="M325 15 L325 15 L330 15 L330 20 L335 20 L335 25 L330 25 L325 25 L325 20 L330 20"/>
<path d="M330 25 L330 25 L330 30 L325 30 L325 35 L320 35 L320 30 L320 25 L325 25 L325 30"/>
<path d="M320 30 L320 30 L315 30"/>
<path d="M315 15 L315 15 L315 10 L310 10 L310 5 L315 5 L320 5 L320 10 L315 10"/>
<path d="M315 5 L315 5 L315 -1.58096e-11"/>
<path d="M360 -2.21581e-11 L360 -2.21581e-11 L365 -2.28635e-11 L365 -5 L370 -5 L370 -2.35687e-11 L370 5 L365 5 L365 -2.28626e-11"/>
<path d="M370 -2.35692e-11 L370 -2.35692e-11 L375 -2.42758e-11 L375 -5 L370 -5 L370 -10 L375 -10 L380 -10 L380 -5 L375 -5"/>
<path d="M375 -10 L375 -10 L375 -15 L380 -15 L380 -20 L385 -20 L385 -15 L385 -10 L380 -10 L380 -15"/>
<path d="M385 -15 L385 -15 L390 -15 L390 -10 L395 -10 L395 -5 L390 -5 L385 -5 L385 -10 L390 -10"/>
<path d="M390 -5 L390 -5 L390 -2.63984e-11 L390 5 L395 5 L395 10 L390 10 L385 10 L385 5 L390 5"/>
<path d="M390 10 L390 10 L390 15 L385 15 L385 20 L380 20 L380 15 L380 10 L385 10 L385 15"/>
<path d="M380 15 L380 15 L375 15 L375 10 L370 10 L370 5 L375 5 L380 5 L380 10 L375 10"/>
<path d="M375 5 L375 5 L375 -2.42597e-11"/>
<path d="M390 -2.64053e-11 L390 -2.64053e-11 L395 -2.71205e-11 L395 -5 L400 -5 L400 -2.78355e-11 L400 5 L395 5 L395 -2.71196e-11"/>
<path d="M400 -2.78361e-11 L400 -2.78361e-11 L405 -2.85525e-11"/>
</svg>
